<svg width="16" height="14" viewBox="0 0 16 14" fill="none" xmlns="http://www.w3.org/2000/svg">
<path d="M6.5 7C6.22386 7 6 7.22386 6 7.5C6 7.77614 6.22386 8 6.5 8H9.5C9.77614 8 10 7.77614 10 7.5C10 7.22386 9.77614 7 9.5 7H6.5ZM0 1.75C0 0.783502 0.783501 0 1.75 0H14.25C15.2165 0 16 0.783502 16 1.75V3.25C16 3.9481 15.5912 4.55073 15 4.83159V11C15 12.6569 13.6569 14 12 14H4C2.34315 14 1 12.6569 1 11V4.83159C0.408763 4.55073 0 3.9481 0 3.25V1.75ZM1.75 1C1.33579 1 1 1.33579 1 1.75V3.25C1 3.66421 1.33579 4 1.75 4H14.25C14.6642 4 15 3.66421 15 3.25V1.75C15 1.33579 14.6642 1 14.25 1H1.75ZM2 5V11C2 12.1046 2.89543 13 4 13H12C13.1046 13 14 12.1046 14 11V5H2Z" fill="#272727"/>
</svg>
