<svg width="14" height="16" viewBox="0 0 14 16" fill="none" xmlns="http://www.w3.org/2000/svg">
<path d="M3.53039 2.00821C4.22083 0.808083 5.51605 0 7 0C9.20914 0 11 1.79086 11 4C11 6.20914 9.20914 8 7 8C5.40521 8 4.02841 7.0667 3.38598 5.71649C3.13814 5.89746 2.8327 6.00427 2.50232 6.00427H2.0022V6.25891C2.0022 6.44889 2.07392 6.62212 2.19176 6.75301C2.32913 6.59883 2.52931 6.50171 2.7522 6.50171C3.16641 6.50171 3.5022 6.83711 3.5022 7.25085C3.5022 7.6646 3.16641 8 2.7522 8C2.7278 8 2.70368 7.99884 2.67989 7.99656C1.74788 7.96442 1.0022 7.19875 1.0022 6.25891L1.00232 2.50744C1.00232 2.2313 1.22618 2.00744 1.50232 2.00744L3.50232 2.00744C3.51174 2.00744 3.5211 2.0077 3.53039 2.00821ZM4.00232 4.11906C4.06483 5.72073 5.38302 7 7 7C8.65685 7 10 5.65685 10 4C10 2.34315 8.65685 1 7 1C5.38302 1 4.06483 2.27927 4.00232 3.88094V4.11906ZM3.00232 3.86248V3.00744L2.00232 3.00744L2.00232 5.00427H2.50232C2.77846 5.00427 3.00232 4.78042 3.00232 4.50427V4.13752C3.00078 4.09187 3 4.04603 3 4C3 3.95397 3.00078 3.90813 3.00232 3.86248ZM0 11C0 9.88687 0.903151 9 2.00873 9L12 9.00001C13.1045 9.00001 14 9.89557 14 11C14 12.6912 13.1672 13.9663 11.865 14.7966C10.583 15.614 8.85474 16 7 16C5.14526 16 3.41697 15.614 2.13499 14.7966C0.83281 13.9663 0 12.6912 0 11ZM2.00873 10C1.44786 10 1 10.4467 1 11C1 12.3088 1.62226 13.2837 2.67262 13.9534C3.74318 14.636 5.26489 15 7 15C8.73511 15 10.2568 14.636 11.3274 13.9534C12.3777 13.2837 13 12.3088 13 11C13 10.4478 12.5522 10 12 10L2.00873 10Z" fill="#262626"/>
</svg>
