<svg width="16" height="14" viewBox="0 0 16 14" fill="none" xmlns="http://www.w3.org/2000/svg">
<path d="M0 1.5C0 0.671573 0.671573 0 1.5 0H14.5C15.3284 0 16 0.671573 16 1.5V5.5C16 6.32843 15.3284 7 14.5 7H1.5C0.671573 7 0 6.32843 0 5.5V1.5ZM1.5 1C1.22386 1 1 1.22386 1 1.5V5.5C1 5.77614 1.22386 6 1.5 6H14.5C14.7761 6 15 5.77614 15 5.5V1.5C15 1.22386 14.7761 1 14.5 1H1.5ZM0 10.5C0 9.67157 0.671573 9 1.5 9H5.5C6.32843 9 7 9.67157 7 10.5V12.5C7 13.3284 6.32843 14 5.5 14H1.5C0.671573 14 0 13.3284 0 12.5V10.5ZM1.5 10C1.22386 10 1 10.2239 1 10.5V12.5C1 12.7761 1.22386 13 1.5 13H5.5C5.77614 13 6 12.7761 6 12.5V10.5C6 10.2239 5.77614 10 5.5 10H1.5ZM10.5 9C9.67157 9 9 9.67157 9 10.5V12.5C9 13.3284 9.67157 14 10.5 14H14.5C15.3284 14 16 13.3284 16 12.5V10.5C16 9.67157 15.3284 9 14.5 9H10.5ZM10 10.5C10 10.2239 10.2239 10 10.5 10H14.5C14.7761 10 15 10.2239 15 10.5V12.5C15 12.7761 14.7761 13 14.5 13H10.5C10.2239 13 10 12.7761 10 12.5V10.5Z" fill="#212121"/>
</svg>
