<svg width="96" height="96" viewBox="0 0 96 96" fill="none" xmlns="http://www.w3.org/2000/svg">
<g clip-path="url(#clip0_113_2475)">
<rect width="96" height="96" rx="48" fill="white"/>
<path d="M66.8895 48.0658L56.4608 49.1396C55.4316 49.1804 54.6737 49.5482 54.0273 50.3396L52.1548 53.3415C54.0681 53.3972 54.239 55.292 55.9221 55.136C57.8949 54.9539 60.0646 55.0171 62.2937 52.4313L65.5743 49.6857L68.1935 47.3711L66.8895 48.0621V48.0658Z" fill="#929292"/>
<path d="M42.5681 50.3393C41.9217 49.5442 41.1637 49.1801 40.1346 49.1393L29.7059 48.0655L28.4019 47.3745L31.0211 49.6891L34.3017 52.4347C36.5308 55.0205 38.7005 54.9573 40.6733 55.1394C42.3563 55.2917 42.531 53.4007 44.4406 53.3449L42.5681 50.343V50.3393Z" fill="#929292"/>
<path d="M89.3735 73.9948C89.3735 73.9205 89.3549 73.8536 89.3326 73.7941L89.3809 68.0355L88.6082 67.6082C81.7684 63.815 79.5875 45.0827 79.32 38.1463V35.9357C79.32 27.9962 76.0506 20.4877 70.1173 14.7885C64.1729 9.07816 56.3078 5.93506 47.9707 5.93506C39.6337 5.93506 31.8168 9.22677 25.8055 15.2046C19.9689 21.0116 16.6214 28.7987 16.6214 36.5747L16.7217 38.477C16.5917 41.7835 16.0307 47.7316 14.7489 53.468C14.6189 53.7095 14.5632 53.9696 14.5743 54.2296C13.144 60.2966 10.8814 65.9921 7.43733 67.898L6.67941 68.3179L6.5791 77.6654H6.82059C6.92834 78.2822 7.15868 78.8729 7.5042 79.4005C16.1496 92.6082 31.0775 101.354 48.0079 101.354C64.9383 101.354 80.1077 92.4707 88.7196 79.0809C88.9945 78.6574 89.1803 78.1856 89.2918 77.6952H89.3029V77.6469C89.3586 77.3942 89.3958 77.1379 89.4032 76.8778C89.4329 75.7484 89.4144 74.7973 89.3735 73.9985V73.9948ZM18.3602 50.5292L36.3977 61.6044C35.6361 62.3883 34.8968 63.228 34.2206 64.1122L17.7806 53.5051C17.9961 52.502 18.1893 51.5026 18.3602 50.5292ZM26.2328 48.8128L26.6377 41.3823C26.7603 39.116 28.1238 37.1283 30.1932 36.1958L41.7291 31.0056H54.3907V30.9647C54.4984 30.987 54.6062 31.0056 54.7139 31.0056C54.8031 31.0056 54.8885 30.9944 54.974 30.9796L65.9786 35.932C67.9068 36.7977 69.1774 38.6479 69.2926 40.7618L69.7161 48.497L68.6015 54.2073L59.1908 60.0254C56.1777 57.2873 53.2798 55.4965 53.0346 55.3442L50.8835 54.1145C49.4791 53.312 47.7367 53.312 46.336 54.1145L44.2257 55.3219L44.1923 55.3442C43.962 55.4854 41.4207 57.0532 38.6343 59.4904L27.2285 52.4872L26.2328 48.8128ZM63.2107 21.5874C63.285 21.6617 63.3593 21.7323 63.4336 21.8066C66.4467 24.8866 68.2634 29.0439 68.8616 34.2044C68.3526 33.8217 67.799 33.4874 67.2046 33.2199L57.3183 28.7727L62.8949 22.2562C63.0658 22.0593 63.1661 21.8289 63.2144 21.5911L63.2107 21.5874ZM60.636 20.3205L54.3572 27.6619H41.7848L35.5061 20.3205C35.3389 20.1236 35.1271 19.9899 34.9042 19.9044C38.2925 17.3706 42.6616 16.0108 47.8667 16.0108C51.7083 16.0108 56.8873 16.739 61.2379 19.9081C61.015 19.9936 60.8069 20.1273 60.6397 20.3242L60.636 20.3205ZM32.9314 21.6209C32.9834 21.8475 33.0837 22.0667 33.2435 22.2562L38.9984 28.9808L28.9784 33.4874C28.3096 33.7883 27.6966 34.1673 27.1356 34.6019C27.8378 29.1591 29.8292 24.7677 32.9314 21.6209ZM49.9361 86.4557H48.0079C44.0957 86.3331 40.4771 84.6761 37.8169 81.7856C36.2157 80.0432 35.0565 77.9292 34.4584 75.7409L34.4584 75.4855C33.9487 75.3889 34.4212 75.2022 34.28 75.0127C34.2689 74.9533 34.2577 74.8939 34.2466 74.8344C34.2875 74.5335 34.2392 74.2251 34.098 73.9502C34.0014 73.2034 33.9642 72.4604 34.0051 71.7285C34.3135 66.0776 42.5539 59.8359 45.7267 57.8891L47.8184 56.6891C48.3088 56.4068 48.9218 56.4068 49.4122 56.6891L51.5076 57.8891C52.8897 58.7362 55.2303 60.3969 57.4632 62.4701C57.4966 62.5666 57.5412 62.6632 57.6007 62.7561C57.7938 63.0719 58.0874 63.2837 58.418 63.3877C59.5103 64.4837 60.532 65.6652 61.3531 66.8875C61.3939 67.0324 61.4459 67.1698 61.5314 67.3036C61.6131 67.4299 61.7134 67.5377 61.8212 67.6305C62.6274 68.9866 63.1587 70.3724 63.233 71.7285C63.4373 75.466 62.0255 79.367 59.4546 82.1609C57.727 84.0408 54.673 86.3108 49.9398 86.4557H49.9361ZM61.3716 62.1728L77.99 51.9002C78.1646 52.7881 78.3578 53.6835 78.5695 54.5826C78.4767 54.6197 78.3838 54.6643 78.2946 54.72L63.2441 64.428C62.6645 63.6404 62.033 62.8862 61.3716 62.1728ZM32.5896 66.594C32.1475 67.4002 31.7797 68.225 31.5122 69.0683C31.0032 67.7197 30.509 66.3042 30.0706 64.9704L32.5896 66.594ZM35.6287 83.7993C38.6566 87.0947 42.7211 89.0564 47.1459 89.3871L47.5546 94.9191V98.3631C47.5546 98.3631 47.5546 98.3631 47.5546 98.3668C40.1613 98.2925 33.2472 96.4423 27.1653 93.2249C27.195 93.106 27.2173 92.9834 27.2173 92.8571V83.4129L31.9914 77.8326C32.7716 79.9912 34.0014 82.0309 35.6287 83.7993ZM50.5231 94.7556L50.1293 89.4242C54.6507 89.2607 58.6298 87.4477 61.6391 84.1746C63.389 82.2723 64.6931 79.9429 65.4547 77.4611L70.5557 83.4241L70.6598 92.2218C64.7117 95.7364 57.8793 97.8987 50.5305 98.3037V94.8671C50.5305 94.8299 50.5305 94.7927 50.5268 94.7593L50.5231 94.7556ZM66.495 67.2962C66.3166 68.2175 66.1495 69.0758 65.9451 69.8708C65.7073 68.8714 65.3284 67.8906 64.8343 66.9432L66.952 65.576L66.5507 67.0398L66.495 67.2962ZM47.9707 8.90355C63.6194 8.90355 76.3478 21.0301 76.3478 35.932V38.2243C76.3664 38.6664 76.5522 43.1879 77.4327 48.7459L72.0493 52.0748L72.7069 48.6976L72.2648 40.5909C72.235 40.0708 72.157 39.5618 72.0418 39.0677H72.053C72.2239 30.8087 70.0393 24.2995 65.5587 19.7224C61.275 15.3458 55.1523 13.0349 47.863 13.0349C41.0938 13.0349 35.298 15.1675 31.0998 19.2059C26.3071 23.8166 23.8773 30.53 23.8773 39.1643H24.0296C23.8364 39.8256 23.7138 40.5092 23.673 41.2188L23.242 49.1249L23.5392 50.2209L18.8617 47.349C19.5268 42.586 19.6791 38.9154 19.6939 38.5178V38.4509L19.5936 36.5339C19.6159 21.554 32.6007 8.90726 47.9707 8.90726V8.90355ZM9.55873 76.51L9.62932 70.0269C13.2257 67.5302 15.5477 62.1728 17.0413 56.5702L26.2031 62.4775C26.7232 64.2682 28.6626 70.6956 30.7245 74.7452L24.6055 81.8971C24.3752 82.1646 24.2488 82.5101 24.2488 82.8631V91.5382C18.271 87.7672 13.2443 82.6067 9.56245 76.5063L9.55873 76.51ZM73.606 90.3121L73.5168 82.8482C73.5131 82.499 73.3868 82.1646 73.1601 81.9008L67.0188 74.7192C68.4566 72.7464 68.9247 70.3612 69.4114 67.8646L70.6858 63.1945L70.6561 63.1871L79.3609 57.5733C80.8581 62.6855 83.0873 67.4188 86.3976 69.7259L86.3419 76.7032C83.0576 82.0829 78.7219 86.7195 73.6097 90.3121H73.606Z" fill="#929292"/>
<path d="M58.9334 45.43C59.3049 45.2146 59.7619 45.144 60.1929 45.2406L64.9707 46.3068L59.9291 42.7774C59.5427 42.5061 59.0263 42.443 58.5805 42.6102C52.0342 45.0585 52.1791 46.4034 52.1791 46.4034L50.9233 50.1113L58.9297 45.4263L58.9334 45.43Z" fill="#929292"/>
<path d="M37.6606 45.4298L45.667 50.1147L44.4112 46.4069C44.4112 46.4069 44.5598 45.0619 38.0099 42.6136C37.564 42.4464 37.0476 42.5096 36.6612 42.7808L31.6196 46.3103L36.3974 45.244C36.8321 45.1474 37.2891 45.2143 37.6569 45.4335L37.6606 45.4298Z" fill="#929292"/>
<path d="M55.0472 63.0883L49.8013 59.4213C49.3146 59.0795 48.6718 59.0647 48.1665 59.3767L42.5862 62.8356C41.8878 63.2666 41.6723 64.1843 42.107 64.8827C42.5417 65.5812 43.4556 65.7967 44.1541 65.362L48.9022 62.4195L53.3456 65.5255C53.6057 65.7075 53.9029 65.793 54.1964 65.793C54.6645 65.793 55.1252 65.5701 55.415 65.1577C55.8868 64.4852 55.7197 63.5601 55.0472 63.0883Z" fill="#929292"/>
<path d="M48.6165 67.3691C45.0684 67.3691 42.1816 70.2559 42.1816 73.804C42.1816 77.352 45.0684 80.2388 48.6165 80.2388C52.1645 80.2388 55.0513 77.352 55.0513 73.804C55.0513 70.2559 52.1645 67.3691 48.6165 67.3691ZM48.6165 77.2629C46.7068 77.2629 45.1538 75.7099 45.1538 73.8002C45.1538 71.8906 46.7068 70.3376 48.6165 70.3376C50.5261 70.3376 52.0791 71.8906 52.0791 73.8002C52.0791 75.7099 50.5261 77.2629 48.6165 77.2629Z" fill="#929292"/>
</g>
<rect x="1.35484" y="1.35484" width="93.2903" height="93.2903" rx="46.6452" stroke="#929292" stroke-width="2.70968"/>
<defs>
<clipPath id="clip0_113_2475">
<rect width="96" height="96" rx="48" fill="white"/>
</clipPath>
</defs>
</svg>
