<svg width="96" height="96" viewBox="0 0 96 96" fill="none" xmlns="http://www.w3.org/2000/svg">
<g clip-path="url(#clip0_113_2465)">
<rect width="96" height="96" rx="48" fill="white"/>
<g clip-path="url(#clip1_113_2465)">
<path d="M88.8989 72.9128C88.8767 72.4406 88.4665 72.1877 88.0895 72.2435L79.8627 65.5724C82.1984 64.3267 83.9946 61.9579 84.7966 59.0575C86.1234 54.2754 85.2511 50.0846 82.6567 47.8348C86.7849 44.1646 88.3039 38.4678 86.2453 33.1948C85.0109 30.034 82.6641 27.6616 79.6409 26.52C78.6282 26.137 77.5786 25.9102 76.5179 25.8358C77.9482 20.5405 76.2112 14.5648 71.9647 11.4077C69.5218 9.58936 66.5873 8.93117 63.712 9.55217C61.8604 9.95006 60.1381 10.8797 58.6967 12.2109C57.1889 8.12053 53.5817 5.92285 48.1711 5.92285C42.7604 5.92285 38.8576 8.20977 37.3017 12.3485C35.8308 10.9429 34.0531 9.96493 32.135 9.55217C29.2559 8.93117 26.3251 9.58936 23.8822 11.4077C19.6283 14.5685 17.8913 20.5554 19.3327 25.8544C18.187 25.9436 17.0634 26.1928 15.999 26.5981C12.9833 27.7546 10.6734 30.0712 9.49811 33.1279C7.39889 38.5793 9.44637 44.9827 14.1918 48.9839C11.5086 50.9547 10.7362 54.7365 12.0963 59.6933C12.8133 62.3149 14.4801 64.4754 16.6717 65.6393C16.4721 65.8215 16.2762 66.0112 16.0914 66.212L8.67025 74.2367C8.02718 74.2367 7.3915 74.7015 7.34715 75.4935C7.28802 76.4901 7.54672 77.483 8.08631 78.3196C16.6199 91.5391 31.3551 100.293 48.0676 100.293C64.78 100.293 79.7518 91.4016 88.2558 78.0036C88.6735 77.3454 88.91 76.5794 88.9322 75.7947C88.9617 74.6643 88.9396 73.7123 88.9026 72.9128H88.8989ZM23.6715 66.0037L25.331 65.7211L26.1034 65.6207C26.4064 65.6021 26.7132 65.5501 27.0015 65.4831L27.8996 68.8447C27.7369 69.0827 27.4376 69.3616 26.7539 69.3653C26.1145 69.3653 25.3236 69.1125 24.6435 68.6774C23.7344 68.0973 23.3648 66.9892 23.6715 66.0037ZM26.9128 74.7089L28.8457 72.3699L29.0896 73.281C29.7068 75.5865 30.8525 77.6912 32.39 79.3943V94.4099C29.7327 93.3835 27.2047 92.1044 24.8246 90.6021L25.2977 78.896C25.3679 77.3677 25.9408 75.8803 26.9128 74.7052V74.7089ZM31.9428 72.5075L26.0184 50.356L25.7042 48.467C27.3008 46.868 32.7522 41.9074 39.837 40.8328C41.9843 42.2198 44.6674 43.049 47.5797 43.049C50.7323 43.049 53.615 42.0785 55.8436 40.4795L55.8103 40.7584C62.8508 41.6248 68.3982 46.4552 70.2646 48.2736L70.0724 50.0808L66.1401 70.3545C65.6042 73.1285 64.1776 75.5791 62.1265 77.2524L54.4059 83.5442C50.8431 86.4521 46.0127 86.5079 42.3945 83.6892L35.9453 78.6692C34.0346 77.1818 32.6154 74.9915 31.9465 72.5075H31.9428ZM58.2532 38.1665C59.1144 37.051 59.739 35.7941 60.0605 34.448C63.043 35.2363 67.3819 38.345 68.9674 39.4755C69.4626 39.8287 69.9098 40.1485 70.3349 40.3308C70.8744 42.8668 70.6712 44.4881 70.6527 44.6071C68.0878 42.428 63.7083 39.3714 58.2532 38.1665ZM60.2601 31.4545C60.0901 29.7328 59.4322 28.1264 58.4048 26.732C60.042 27.4459 61.6645 28.502 62.7732 29.2308L63.043 29.4056C65.4379 30.9711 67.4078 33.1614 68.7013 35.6714C65.8112 33.7154 62.8102 31.9789 60.2638 31.4583L60.2601 31.4545ZM57.3515 32.3507C57.3515 36.2329 53.7074 39.4532 48.9842 39.9924L54.7459 35.095C55.0157 34.8682 55.1598 34.5224 55.1377 34.1691C55.1155 33.8158 54.927 33.496 54.6313 33.3027L48.4187 29.2866L50.1705 24.9061C54.3061 25.806 57.3552 28.7995 57.3552 32.3507H57.3515ZM46.7371 30.8558L52.1662 34.3662L48.548 37.4377L49.1505 36.1362C49.4387 35.5115 49.217 34.7678 48.633 34.4071L43.0043 30.9339L46.6114 27.8178L46.1421 28.9891C45.8686 29.6733 46.1199 30.458 46.7334 30.8558H46.7371ZM40.4099 30.2348C40.1401 30.4654 39.9996 30.8149 40.0255 31.1682C40.0551 31.5252 40.2473 31.845 40.5503 32.0309L46.8147 35.8982L45.0075 39.799C40.8645 38.9065 37.808 35.9057 37.808 32.3507C37.808 28.2826 41.8106 24.9396 46.8701 24.6533L40.4062 30.2386L40.4099 30.2348ZM25.1166 44.9455L25.1055 44.886C25.0981 44.86 24.6583 42.93 25.1868 40.1039C25.4825 39.9292 25.7929 39.7098 26.1219 39.4755C27.7222 38.3339 32.1202 35.188 35.099 34.4294C35.4353 35.8648 36.119 37.1997 37.0689 38.3674C31.721 39.7618 27.4893 42.8668 25.1203 44.9455H25.1166ZM34.9031 31.4397C32.4861 31.9156 29.6477 33.496 26.8869 35.3367C28.1841 32.968 30.0801 30.9005 32.3715 29.4056C33.0072 28.9891 34.5224 28.0595 36.3334 27.3567C35.5499 28.595 35.0509 29.9783 34.9031 31.4434V31.4397ZM64.1296 79.4352C65.9738 77.8846 67.4041 75.8468 68.2948 73.5264L69.2705 74.7089C70.2425 75.884 70.8153 77.3751 70.8855 78.8923L71.3586 90.576C69.082 92.0188 66.6649 93.2534 64.1333 94.2574V79.4352H64.1296ZM69.4774 68.6625L70.017 65.8736L73.4172 66.4128H73.5502C73.7202 66.4053 73.8902 66.4091 74.0565 66.4165C74.0381 66.7251 73.9715 67.0598 73.8533 67.4019C73.565 68.22 73.0328 68.9303 72.4599 69.2575C71.4436 69.8376 70.1722 69.5624 69.4774 68.6588V68.6625ZM18.0909 63.0363C16.5978 62.2591 15.4484 60.7531 14.942 58.905C14.262 56.4247 13.6189 52.0889 16.9304 50.8506C17.0265 50.9026 17.1189 50.9547 17.215 51.0068L18.5639 48.3591C13.0609 45.5219 10.289 39.3044 12.2552 34.2026C13.1237 31.9454 14.8275 30.2311 17.0487 29.3796C18.1352 28.9631 19.3068 28.7697 20.5042 28.792C20.5264 28.8329 20.5449 28.8701 20.5671 28.911L20.7629 28.7995C22.3189 28.8664 23.9118 29.2903 25.416 30.0675L26.7649 27.4199C25.379 26.7059 23.9266 26.2299 22.4704 25.9957C20.8369 21.6338 22.0971 16.4315 25.634 13.8025C27.3858 12.501 29.474 12.025 31.5104 12.4638C33.5209 12.8989 35.2801 14.152 36.533 16.0262C36.5071 16.4018 36.4923 16.7885 36.4923 17.1827H39.449C39.449 11.6123 42.2984 8.90142 48.1637 8.90142C53.1198 8.90142 55.7734 10.8871 56.3906 15.1077C56.361 15.1598 56.3277 15.2118 56.2945 15.2676L56.4201 15.3383C56.494 15.9146 56.531 16.5282 56.531 17.1827H59.4876C59.4876 16.7179 59.4692 16.2642 59.4359 15.8254C60.6777 14.0628 62.3852 12.8803 64.3218 12.4601C66.3582 12.0213 68.4463 12.4973 70.1981 13.7988C73.7535 16.4427 75.01 21.6821 73.3358 26.0589C72.2751 26.2857 71.2292 26.6576 70.2166 27.1856L71.5766 29.8258C72.7113 29.2345 73.8976 28.8924 75.0803 28.8032L75.2651 28.9073C75.2872 28.8701 75.3057 28.8292 75.3279 28.792C76.4366 28.74 77.5417 28.9073 78.5913 29.3052C80.8199 30.1456 82.5569 31.9156 83.4808 34.2844C85.4101 39.2226 83.248 44.6629 78.3363 47.2213L79.6963 49.8614C79.8294 49.7908 79.9587 49.7201 80.0881 49.6458C82.6123 51.0737 82.8673 54.8964 81.9397 58.2542C81.3447 60.4036 80.0511 62.129 78.3991 62.9805C77.2017 63.5978 75.9377 63.6945 74.7476 63.2557L74.6146 63.2074L71.2292 62.6645L70.6638 62.5157L72.9774 50.5866L73.5687 45.0645C73.6426 44.5513 74.0602 40.9778 72.0977 36.0135C70.6453 32.3358 67.9954 29.1044 64.6433 26.9142L64.3772 26.7394C61.8456 25.0809 57.673 22.3478 54.04 23.1473C52.1441 22.2027 49.934 21.6598 47.5724 21.6598C44.9372 21.6598 42.4869 22.3366 40.4542 23.4931C36.4258 23.4968 32.3789 25.8507 30.7527 26.9142C27.4006 29.1044 24.7507 32.3396 23.2983 36.0135C21.321 41.015 22.0786 44.9455 22.2117 45.5367L23.1172 50.9882L26.2253 62.605L25.8632 62.6533C25.8632 62.6533 25.8484 62.6533 25.841 62.6533L25.6747 62.6422L24.8875 62.776L21.7423 63.1813L21.6832 63.1888C21.1621 63.278 20.6447 63.4119 20.1457 63.583C19.4435 63.5569 18.745 63.3747 18.0872 63.0363H18.0909ZM10.7029 76.3971L18.2424 68.246C18.9076 67.5321 19.7207 66.9706 20.6114 66.5876C20.5782 68.3836 21.443 70.1574 23.058 71.1874C23.7381 71.6225 24.4661 71.9386 25.1979 72.1282L24.6398 72.805C23.2576 74.4746 22.4445 76.5905 22.3447 78.7696L21.9456 88.6238C17.5069 85.3031 13.6966 81.1532 10.7029 76.3971ZM35.3466 95.4288V81.9638L40.5799 86.0357C42.9045 87.8429 45.6062 88.7465 48.3041 88.7465C51.0021 88.7465 53.8959 87.7797 56.2612 85.8497L61.1729 81.8486V95.306C57.041 96.6075 52.643 97.3141 48.0639 97.3141C43.4848 97.3141 39.364 96.6522 35.3466 95.4288ZM74.2376 88.5866L73.8422 78.7659C73.7424 76.5942 72.9293 74.4784 71.5471 72.8087L71.329 72.5447C72.2123 72.5447 73.1067 72.3179 73.9272 71.8493C75.4351 70.9829 76.651 69.1385 76.9577 67.2123C77.246 67.361 77.5269 67.5284 77.793 67.718L86.4338 74.7201C83.3219 80.1603 79.1715 84.8866 74.2413 88.5866H74.2376Z" fill="#929292"/>
<path d="M53.0354 55.2882L58.775 48.0184C59.0411 47.68 59.4403 47.4532 59.8764 47.3863L64.692 46.6537L58.7491 45.1849C58.2946 45.0733 57.7919 45.1998 57.4371 45.5158C52.2445 50.1715 52.8654 51.3726 52.8654 51.3726L53.0354 55.2882Z" fill="#929292"/>
<path d="M38.5325 48.032L44.4236 55.1754L44.5086 51.2598C44.5086 51.2598 45.1036 50.0475 39.8149 45.5034C39.4565 45.1948 38.9501 45.0758 38.4955 45.1985L32.5859 46.7938L37.4164 47.4222C37.8562 47.478 38.259 47.7011 38.5325 48.032Z" fill="#929292"/>
<path d="M48.6668 69.6273C50.6773 69.6273 52.3146 67.9799 52.3146 65.957H49.3579C49.3579 66.34 49.0475 66.6524 48.6668 66.6524C48.2861 66.6524 47.9757 66.34 47.9757 65.957H45.019C45.019 67.9799 46.6563 69.6273 48.6668 69.6273Z" fill="#929292"/>
<path d="M48.3787 78.0684C51.206 78.0684 53.5011 76.4732 53.5011 74.5098H43.2563C43.2563 76.4769 45.5478 78.0684 48.3787 78.0684Z" fill="#929292"/>
<path d="M56.2549 58.7821C58.2174 58.5999 60.3757 58.6631 62.5932 56.0749L65.8566 53.3269L68.4621 51.0103L67.1649 51.7019L56.7908 52.7766C55.767 52.8175 55.0131 53.1856 54.37 53.9777L52.5073 56.9823C54.4107 57.0381 54.5807 58.9345 56.2549 58.7783V58.7821ZM59.6506 56.193C61.8533 56.0071 62.9406 54.5317 62.9406 54.5317C62.9406 54.5317 58.9122 58.9122 54.5474 56.9377C54.5474 56.9377 56.2801 56.4756 59.6506 56.193Z" fill="#929292"/>
<path d="M44.8308 56.9852L42.9681 53.9806C42.325 53.1848 41.5711 52.8204 40.5473 52.7795L30.1732 51.7048L28.876 51.0132L31.4815 53.3298L34.7449 56.0779C36.9624 58.666 39.1208 58.6028 41.0832 58.785C42.7574 58.9374 42.9311 57.0447 44.8308 56.9889V56.9852ZM34.8447 54.5458C34.8447 54.5458 36.2009 56.0108 38.3999 56.193C41.7705 56.4756 43.2379 56.9406 43.2379 56.9406C38.8731 58.904 34.8447 54.5458 34.8447 54.5458Z" fill="#929292"/>
</g>
</g>
<rect x="1.35484" y="1.35484" width="93.2903" height="93.2903" rx="46.6452" stroke="#929292" stroke-width="2.70968"/>
<defs>
<clipPath id="clip0_113_2465">
<rect width="96" height="96" rx="48" fill="white"/>
</clipPath>
<clipPath id="clip1_113_2465">
<rect width="81.6774" height="94.4516" fill="white" transform="translate(7.35498 5.80664)"/>
</clipPath>
</defs>
</svg>
