<svg width="248" height="248" viewBox="0 0 248 248" fill="none" xmlns="http://www.w3.org/2000/svg">
<g clip-path="url(#clip0_113_1979)">
<rect width="248" height="248" rx="124" fill="#FFD2EC"/>
<g clip-path="url(#clip1_113_1979)">
<path d="M124.745 179.764C129.571 179.764 133.501 175.823 133.501 170.983H126.404C126.404 171.899 125.659 172.646 124.745 172.646C123.832 172.646 123.086 171.899 123.086 170.983H115.989C115.989 175.823 119.919 179.764 124.745 179.764Z" fill="#010101"/>
<path d="M222.899 186.492C222.899 183.44 222.145 180.46 220.752 177.817L222.598 167.995C223.414 163.698 222.553 159.383 220.282 155.789L220.451 155.824L222.385 145.549C223.334 140.522 221.977 135.469 218.739 131.634C220.504 125.575 220.442 119.356 218.534 113.6L218.472 113.422C217.284 109.917 215.066 106.812 212.067 104.454L204.784 98.7158C203.728 97.8884 203.081 96.5984 203.001 95.1838C200.809 55.3706 165.324 22.9773 123.912 22.9773C82.5003 22.9773 47.0147 55.3617 44.8234 95.1749C44.7436 96.5895 44.096 97.8795 43.0403 98.7069L35.7569 104.445C32.7583 106.803 30.5405 109.908 29.3517 113.413L29.2896 113.609C27.3468 119.445 27.3113 125.771 29.1654 131.928C25.9451 135.762 24.6055 140.798 25.5459 145.807L27.329 157.746C26.362 160.504 26.1136 163.494 26.6725 166.465L28.5976 177.577C26.2999 180.736 25.0225 184.57 25.0225 188.538L25.4838 193.52C25.4749 193.609 25.4483 193.698 25.4483 193.787C25.3773 195.051 25.5193 196.305 25.8564 197.497L25.9185 198.2L26.0693 198.182C26.362 199.01 26.7524 199.801 27.2314 200.54C47.8752 232.168 83.5205 253.111 123.948 253.111C164.375 253.111 200.588 231.839 221.16 199.784C222.172 198.209 222.748 196.376 222.793 194.499C222.855 192.088 222.819 190.033 222.748 188.262L222.864 186.768V186.483L222.899 186.492ZM206.39 184.659L188.744 168.565C186.26 166.305 185.276 162.755 186.225 159.534L187.343 155.744L212.005 177.96C214.383 180.104 215.767 183.155 215.802 186.358L215.137 194.677C213.762 196.91 212.307 199.09 210.781 201.216V194.615C210.781 190.833 209.184 187.204 206.39 184.659ZM93.563 200.335C89.6063 196.83 86.661 192.034 85.2061 186.643L73.0789 146.527L81.7729 138.698L84.0972 140.762L91.9306 147.337C97.2535 153.529 102.434 153.378 107.145 153.814C111.164 154.179 111.581 149.65 116.141 149.517L111.67 142.328C110.126 140.424 108.316 139.552 105.859 139.454L83.5028 137.15L86.3594 134.579C88.0361 133.111 89.4644 131.421 90.6354 129.579L96.9341 128.164C97.9721 127.933 99.0632 128.093 99.9415 128.618L119.059 139.837L116.061 130.958C116.061 130.958 116.416 127.737 100.775 121.874C99.7109 121.474 98.4777 121.625 97.5551 122.275L92.6049 125.744C93.7315 122.96 94.3348 119.961 94.3348 116.892V105.308L100.855 99.5699L103.738 97.0877C102.842 104.045 105.158 111.198 109.966 115.824C114.091 119.801 119.263 121.794 124.444 121.794C129.625 121.794 134.797 119.801 138.922 115.824C143.482 111.42 145.745 104.783 145.106 98.2176L148.362 101.02L153.56 105.593V114.846C153.56 117.969 154.181 121.02 155.343 123.832L153.117 122.266C152.194 121.616 150.961 121.465 149.896 121.865C134.265 127.728 134.611 130.949 134.611 130.949L131.612 139.828L150.73 128.609C151.617 128.093 152.709 127.924 153.738 128.155L158.44 129.205C159.353 130.388 160.374 131.492 161.5 132.488L166.717 137.186L144.813 139.445C142.356 139.543 140.546 140.424 139.002 142.319L134.531 149.508C139.1 149.641 139.508 154.179 143.527 153.805C148.237 153.369 153.418 153.52 158.741 147.328L166.575 140.753L168.642 138.921L175.322 144.935L168.074 177.773H167.994C167.994 177.853 168.012 177.924 168.021 177.995L167.267 181.403L167.249 181.492C165.963 188.129 162.538 193.992 157.615 197.995L139.082 213.049C130.53 220.006 118.944 220.148 110.25 213.396L94.7695 201.385C94.3791 201.083 94.0154 200.753 93.6517 200.433V200.335H93.5363H93.563ZM38.5957 194.615V203.173C36.5109 200.406 34.5415 197.524 32.714 194.552L32.1285 188.369C32.1728 185.175 33.5479 182.132 35.9254 179.988L62.2025 156.323L63.1429 159.526C64.101 162.746 63.1074 166.296 60.6234 168.556L42.9782 184.65C40.1837 187.195 38.5868 190.825 38.5868 194.606L38.5957 194.615ZM35.198 135.246L110.108 69.6944L106.373 85.4329L96.2155 94.1785L33.0688 149.775L32.0841 144.561C31.4276 141.082 32.6075 137.586 35.1891 135.237L35.198 135.246ZM212.733 134.979C215.314 137.328 216.494 140.824 215.838 144.303L214.764 149.988L153.028 95.6286L142.373 86.456L138.009 69.5966L212.724 134.97L212.733 134.979ZM135.223 58.2531C135.17 58.2087 135.108 58.1731 135.046 58.1286L131.781 45.4951C158.244 49.214 179.119 71.3848 181.789 99.0183L135.223 58.2531ZM112.77 58.4756C112.77 58.4756 112.725 58.5023 112.707 58.5289L66.1769 99.2585C69.3529 71.972 90.1918 49.5254 115.839 45.5663L112.778 58.4756H112.77ZM65.4051 173.832C68.5633 170.949 70.3731 166.928 70.5771 162.764L75.1459 177.88H75.075C75.1371 178.627 74.933 179.223 74.4096 179.828C73.2386 181.189 70.7368 182.204 68.0399 182.39C64.722 182.622 61.8388 180.397 61.5106 177.39L65.414 173.832H65.4051ZM89.5087 140.753L89.7483 140.851L105.575 142.622C107.136 142.711 109.656 143.921 110.676 145.824L112.113 148.52C109.212 148.547 108.946 151.145 106.391 150.878C103.392 150.575 100.101 150.593 96.7212 146.981L94.3082 145.104C92.596 143.778 90.9991 142.319 89.5087 140.744V140.753ZM161.846 140.753C160.356 142.328 158.75 143.787 157.047 145.113L154.634 146.99C151.254 150.611 147.962 150.584 144.964 150.887C142.409 151.145 142.143 148.547 139.242 148.529L140.679 145.833C141.69 143.921 144.219 142.711 145.78 142.631L161.607 140.86L161.846 140.762V140.753ZM179.456 182.275C178.569 182.079 177.744 181.67 177.034 181.056C176.165 180.3 175.553 179.321 175.278 178.236L178.791 162.337C178.879 166.652 180.707 170.86 183.971 173.832L187.76 177.284C187.414 178.129 186.819 179.001 186.021 179.81C184.557 181.287 182.676 182.275 181.106 182.39C180.547 182.435 179.997 182.39 179.465 182.275H179.456ZM45.6928 211.688V194.615C45.6928 192.835 46.4469 191.127 47.7599 189.926L55.8062 182.586C57.6781 186.118 61.2089 188.663 65.3341 189.339C61.5993 194.205 59.3726 200.184 59.0798 206.323L58.2814 223.325C53.7836 219.793 49.5785 215.896 45.684 211.696L45.6928 211.688ZM93.6783 241.634V209.517L105.939 219.027C111.519 223.351 118.004 225.513 124.48 225.513C130.956 225.513 137.902 223.2 143.58 218.583L155.672 208.76V241.207C145.682 244.321 135.046 246.011 123.956 246.011C112.867 246.011 103.251 244.481 93.6783 241.643V241.634ZM190.323 222.764L189.436 203.396C189.197 198.2 187.245 193.138 183.927 189.143L183.883 189.09C186.447 188.405 188.966 186.928 191.042 184.828C191.858 184.001 192.55 183.12 193.145 182.204L201.617 189.926C202.93 191.127 203.684 192.835 203.684 194.615V210.077C199.594 214.677 195.132 218.921 190.332 222.764H190.323Z" fill="#010101"/>
<path d="M124.787 199.24C131.574 199.24 137.083 195.423 137.083 190.725H112.491C112.491 195.432 117.991 199.24 124.787 199.24Z" fill="#010101"/>
</g>
</g>
<rect x="3.5" y="3.5" width="241" height="241" rx="120.5" stroke="black" stroke-width="7"/>
<defs>
<clipPath id="clip0_113_1979">
<rect width="248" height="248" rx="124" fill="white"/>
</clipPath>
<clipPath id="clip1_113_1979">
<rect width="198" height="230" fill="white" transform="translate(25 23)"/>
</clipPath>
</defs>
</svg>
