<svg width="248" height="249" viewBox="0 0 248 249" fill="none" xmlns="http://www.w3.org/2000/svg">
<g clip-path="url(#clip0_113_2049)">
<rect x="2.98594" y="4.48594" width="241.028" height="241.028" rx="120.514" fill="#C3FFEA"/>
<rect x="2.98594" y="4.48594" width="241.028" height="241.028" rx="120.514" stroke="black" stroke-width="6.97189"/>
<path d="M221.386 187.201L195.246 124.643L205.765 109.963C205.868 109.818 205.962 109.664 206.039 109.51C207.739 106.143 207.534 102.23 205.492 99.0596C203.45 95.8894 199.997 94.0779 196.212 94.2231C196.152 94.2231 196.101 94.2231 196.041 94.2317L191.504 94.6333L200.997 81.3886C201.1 81.2433 201.194 81.0895 201.271 80.9357C202.971 77.5689 202.766 73.6553 200.724 70.4851C198.681 67.315 195.246 65.512 191.444 65.6487L170.474 66.4519L171.261 65.23C171.303 65.1616 171.337 65.1018 171.38 65.0334C173.209 61.7265 173.149 57.8129 171.235 54.5658C169.321 51.3187 165.92 49.379 162.143 49.379C162.109 49.379 162.066 49.379 162.032 49.379L142.191 50.037L125.195 25.4701C124.562 24.5558 123.52 24.0089 122.409 24.0004C121.315 23.9833 120.247 24.5302 119.598 25.4359L102.08 49.9857L84.7254 49.3876C84.7254 49.3876 84.6485 49.3876 84.6058 49.3876C80.8289 49.3876 77.4366 51.3273 75.5139 54.5744C73.5999 57.8215 73.5401 61.7351 75.3687 65.042C75.4029 65.1018 75.4285 65.1531 75.4627 65.2043L76.3001 66.5288L54.1856 65.606C50.6224 65.4351 47.3069 67.1782 45.3159 70.2117C43.2139 73.4075 42.9661 77.3724 44.6323 80.8331C44.7007 80.9699 44.7691 81.098 44.8545 81.2262L53.7157 94.7017L48.5203 94.2402C48.4605 94.2402 48.4092 94.2402 48.3494 94.2317C44.564 94.095 41.1118 95.898 39.0695 99.0681C37.0273 102.238 36.8222 106.152 38.5227 109.519C38.6252 109.732 38.7534 109.929 38.9072 110.117L54.6043 129.762L29.8495 189.013C29.0377 189.491 28.431 190.329 28.3627 191.465C28.226 193.755 28.8326 196.037 30.0973 197.959C50.1439 228.337 84.7596 248.452 124.024 248.452C163.288 248.452 198.459 228.021 218.429 197.233C219.412 195.721 219.967 193.96 220.018 192.157C221 191.5 228.473 189.5 222.5 189.5L221.394 187.218L221.386 187.201ZM188.889 192.439H168.458V185.603H168.347C169.543 183.493 170.534 181.228 171.312 178.861H195.34L188.889 192.439ZM83.1019 192.439H62.5597L56.151 178.861H80.1197L80.2479 179.374C80.9315 182.057 81.8885 184.629 83.0934 187.039V192.439H83.1019ZM73.7451 153.73L75.4627 160.49C74.3946 163.044 70.31 162.549 67.9602 161.626C65.2001 160.541 63.8415 157.413 64.9267 154.662L64.6789 154.559L66.2683 144.348L73.7622 153.722L73.7451 153.73ZM101.269 106.272C95.082 108.288 89.5875 110.86 84.9391 113.466L68.4131 87.7888C67.6525 86.1396 68.3361 84.7724 68.6694 84.2511C69.0112 83.7128 70.011 82.4652 71.9934 82.5507L86.5541 82.8583L101.269 106.28V106.272ZM94.5607 58.7785C94.8769 58.2487 95.7912 57.0268 97.5686 56.9499L100.722 57.3088L118.948 84.5246V99.5979L94.4326 62.5212C93.8259 61.3249 93.8771 59.9406 94.5607 58.7785ZM144.933 58.018C145.181 57.6762 145.344 57.3002 145.455 56.9157L149.069 56.9413C150.949 56.9413 151.915 58.2231 152.239 58.77C152.923 59.915 152.974 61.2907 152.385 62.4785L125.793 100.632V84.5844L144.933 58.018ZM124.938 109.109C138.892 109.109 154.623 113.629 170.944 126.668C172.73 128.095 173.585 130.386 173.175 132.65L165.92 172.393C164.664 179.263 161.34 185.313 156.563 189.44L138.713 204.847C130.518 211.922 119.427 212.067 111.104 205.205L96.1928 192.918C91.7409 189.252 88.434 183.843 86.8788 177.699L75.2661 131.975C74.7876 130.086 75.4712 128.087 77.0179 126.882C85.7508 120.08 103.2 109.126 124.938 109.126V109.109ZM159.904 82.8498L173.901 82.5421C175.841 82.4567 176.823 83.7128 177.174 84.2511C177.507 84.7724 178.182 86.1225 177.456 87.7546L161.135 111.501C161.066 111.595 161.024 111.698 160.972 111.792C155.88 109.015 150.71 106.853 145.463 105.297L159.913 82.8498H159.904ZM178.319 148.262L183.719 140.734L185.821 151.457L185.761 151.5C185.796 151.551 185.83 151.611 185.855 151.663L186.394 154.388C186.377 154.739 186.334 155.098 186.266 155.474C185.83 157.883 184.428 160.259 182.771 161.395C180.233 163.138 176.917 162.839 174.969 160.823L177.071 149.321C177.55 149.082 177.977 148.723 178.31 148.262H178.319ZM173.645 168.137C175.354 168.949 177.234 169.376 179.148 169.376C181.728 169.376 184.352 168.616 186.65 167.035C187.325 166.574 187.957 166.01 188.556 165.403L189.854 172.025H172.935L173.645 168.137ZM62.8075 166.531C63.6108 167.112 64.4909 167.608 65.4479 167.984C67.4646 168.778 69.635 169.214 71.7285 169.214C73.822 169.214 75.6678 168.812 77.3426 167.949L78.3765 172.025H61.9445L62.799 166.539L62.8075 166.531ZM162.177 56.215C164.057 56.2406 165.006 57.4968 165.33 58.0436C165.647 58.582 166.287 60.0004 165.433 61.6411L138.422 103.588C136.508 103.23 134.585 102.948 132.646 102.742L158.11 66.2127C158.178 66.1101 158.247 66.0076 158.306 65.8965C159.947 62.8886 160.041 59.3852 158.64 56.3261L162.177 56.2065V56.215ZM81.4014 58.0436C81.7262 57.4968 82.6661 56.2406 84.5545 56.215L88.152 56.3432C86.7506 59.4023 86.8531 62.8972 88.4938 65.905C88.5365 65.9905 88.5878 66.0759 88.6476 66.1528L113.249 103.349C112.693 103.443 112.129 103.537 111.574 103.64C110.412 103.853 109.275 104.093 108.147 104.357L91.3649 77.6458C91.3649 77.6458 91.3649 77.6288 91.3564 77.6288L81.3245 61.6667C80.4529 60.0175 81.0938 58.5905 81.4185 58.0522L81.4014 58.0436ZM48.1102 208.769L64.7131 210.64C64.8669 210.657 65.0292 210.666 65.183 210.666C66.3708 210.666 67.5073 210.102 68.2251 209.128C69.0625 208 69.2077 206.521 68.6096 205.248L65.7897 199.267H83.1019V233.284C69.7632 227.585 57.8942 219.185 48.1102 208.752V208.769ZM89.9379 235.933V209.059C96.415 222.184 109.933 231.242 125.536 231.242C141.139 231.242 155.35 221.714 161.613 208.034V234.626C149.992 239.121 137.328 241.599 124.007 241.599C112.027 241.599 100.576 239.599 89.9293 235.925L89.9379 235.933ZM168.449 231.695V199.275H185.633L182.796 205.257C182.198 206.521 182.343 208.008 183.172 209.136C183.899 210.119 185.044 210.683 186.197 210.683C186.368 210.683 186.539 210.674 186.71 210.649L199.664 209.008C190.803 218.39 180.25 226.124 168.441 231.704L168.449 231.695Z" fill="#010101"/>
<path d="M148.325 124.402C149.128 123.829 150.162 123.582 151.179 123.71L162.339 125.171L150.068 118.13C149.128 117.592 147.932 117.549 146.941 118.027C132.448 124.991 133.064 128.033 133.064 128.033L130.953 136.784L148.325 124.402Z" fill="#010101"/>
<path d="M98.7482 124.406L116.12 136.788L114.01 128.038C114.01 128.038 114.625 124.987 100.132 118.032C99.1498 117.562 97.9535 117.596 97.005 118.134L84.7344 125.175L95.8941 123.714C96.911 123.577 97.9364 123.834 98.7482 124.406Z" fill="#010101"/>
<path d="M125.532 171.692C130.18 171.692 133.965 167.906 133.965 163.258H127.129C127.129 164.138 126.412 164.856 125.532 164.856C124.651 164.856 123.934 164.138 123.934 163.258H117.098C117.098 167.906 120.883 171.692 125.532 171.692Z" fill="#010101"/>
<path d="M124.867 191.717C131.404 191.717 136.71 188.051 136.71 183.539H113.023C113.023 188.059 118.321 191.717 124.867 191.717Z" fill="#010101"/>
<path d="M79.6523 133.58C82.7438 132.579 95.5448 129.027 108.321 134.397C108.47 134.443 108.77 134.533 108.992 134.611H108.993C108.997 134.613 109 134.614 109.004 134.615C109.008 134.617 109.012 134.618 109.016 134.619H109.015C109.817 134.898 110.554 135.295 111.212 135.789L111.214 135.788C113.252 137.319 114.5 139.759 114.5 142.419C114.5 143.411 114.322 144.387 113.983 145.319L113.982 145.321C112.679 148.888 111.003 152.136 108.994 154.971C106.102 159.053 101.417 161.5 96.4395 161.5H96.4336L94.1182 161.491H94.0947L94.0703 161.49C93.0766 161.455 90.6286 161.365 89.0791 161.31L88.9805 161.56L87.7334 161.282C87.682 161.271 87.6341 161.259 87.5967 161.25C87.5571 161.241 87.5273 161.234 87.4971 161.228L87.4912 161.226L87.4785 161.224C86.8488 161.095 86.2081 160.932 85.5713 160.697L85.5127 160.675L85.4561 160.649V160.648L85.4541 160.647C85.4529 160.647 85.451 160.646 85.4492 160.646C85.4456 160.644 85.4405 160.641 85.4346 160.639C85.4227 160.633 85.4064 160.625 85.3857 160.615C85.3442 160.595 85.285 160.567 85.2109 160.53C85.063 160.457 84.8541 160.35 84.6006 160.215C84.095 159.944 83.4042 159.553 82.667 159.068C81.2722 158.152 79.4074 156.713 78.5693 154.947L78.541 154.889C77.2601 152.786 76.5 150.302 76.5 147.642V138.646C76.5 137.494 76.6432 136.507 77.0156 135.695C77.4115 134.832 78.0226 134.262 78.7529 133.905H78.7539L78.7549 133.904L78.7568 133.903L78.7617 133.901C78.766 133.899 78.7701 133.897 78.7744 133.895C78.7808 133.891 78.7884 133.888 78.7959 133.885C78.8132 133.877 78.8339 133.868 78.8574 133.857C78.8791 133.848 78.9047 133.839 78.9326 133.828L79.291 133.688C79.4019 133.65 79.5235 133.613 79.6523 133.58Z" fill="#010101" stroke="#474747" stroke-width="3"/>
<g clip-path="url(#clip1_113_2049)">
<path d="M110.331 136.996C110.331 136.996 110.331 136.996 110.322 136.996C109.777 136.586 109.169 136.258 108.506 136.03C108.279 135.948 108.043 135.884 107.816 135.811C95.4773 130.589 83.0208 134.062 80.0791 135.018C79.8794 135.064 79.6887 135.137 79.5162 135.21C79.4617 135.228 79.4254 135.246 79.4254 135.246C78.5357 135.675 78 136.55 78 138.646V147.641C78 150.084 78.7173 152.362 79.9248 154.276C79.9248 154.276 79.9248 154.295 79.9248 154.304C81.214 157.02 86.0895 159.289 86.0895 159.289C86.6342 159.49 87.1971 159.635 87.7782 159.754C87.7782 159.754 87.8054 159.754 87.8236 159.763C87.9053 159.781 87.978 159.799 88.0597 159.818L88.0778 159.772C89.1673 159.809 92.8534 159.945 94.1245 159.991L96.4397 160C100.925 160 105.156 157.794 107.77 154.103C109.695 151.387 111.311 148.261 112.573 144.807C112.855 144.032 113 143.23 113 142.419C113 140.232 111.974 138.236 110.313 136.987L110.331 136.996Z" fill="#010101"/>
<rect x="107.41" y="121.227" width="8" height="51" transform="rotate(30 107.41 121.227)" fill="white"/>
<rect x="102.215" y="118.227" width="4" height="51" transform="rotate(30 102.215 118.227)" fill="white"/>
<rect x="98.75" y="116.227" width="2" height="51" transform="rotate(30 98.75 116.227)" fill="white"/>
</g>
<path d="M167.3 132.658C164.138 131.625 150.967 127.931 137.824 133.502C137.671 133.55 137.361 133.643 137.132 133.726H137.131C136.3 134.014 135.539 134.427 134.859 134.94L134.858 134.939C132.774 136.519 131.5 139.032 131.5 141.768C131.5 142.788 131.681 143.792 132.027 144.753L132.028 144.755C133.367 148.449 135.088 151.811 137.151 154.747C140.116 158.967 144.922 161.5 150.033 161.5H150.039L152.421 161.49H152.445L152.469 161.489C153.496 161.452 156.036 161.358 157.629 161.301L157.729 161.556L158.982 161.274C159.035 161.263 159.084 161.251 159.122 161.242C159.16 161.233 159.189 161.225 159.219 161.219L159.244 161.214C159.891 161.081 160.548 160.911 161.201 160.669L161.26 160.647L161.316 160.621L160.68 159.263L161.317 160.62L161.319 160.619C161.321 160.619 161.322 160.618 161.324 160.617C161.328 160.615 161.333 160.613 161.339 160.61C161.351 160.605 161.368 160.596 161.39 160.586C161.432 160.565 161.493 160.536 161.568 160.498C161.72 160.422 161.935 160.311 162.195 160.171C162.715 159.891 163.424 159.486 164.181 158.984C165.616 158.033 167.522 156.547 168.377 154.731L168.404 154.675C169.72 152.501 170.5 149.933 170.5 147.184V137.854L170.493 137.417C170.46 136.415 170.306 135.549 169.976 134.822C169.575 133.941 168.955 133.358 168.211 132.991H168.21L168.209 132.99L168.207 132.989C168.206 132.989 168.204 132.987 168.202 132.986C168.199 132.985 168.196 132.983 168.192 132.981C168.185 132.978 168.177 132.974 168.168 132.97C168.15 132.961 168.129 132.952 168.105 132.941C168.073 132.927 168.032 132.913 167.986 132.896C167.807 132.82 167.57 132.728 167.3 132.658Z" fill="#010101" stroke="#474747" stroke-width="3"/>
<g clip-path="url(#clip2_113_2049)">
<path d="M135.746 137.144C135.746 137.144 135.746 137.144 135.755 137.144C136.315 136.719 136.941 136.379 137.623 136.142C137.856 136.057 138.099 135.991 138.332 135.916C151.023 130.5 163.836 134.101 166.861 135.093C167.067 135.141 167.263 135.216 167.44 135.292C167.496 135.311 167.534 135.33 167.534 135.33C168.449 135.774 169 136.681 169 138.855V148.184C169 150.717 168.262 153.08 167.02 155.064C167.02 155.064 167.02 155.083 167.02 155.093C165.694 157.909 160.679 160.263 160.679 160.263C160.119 160.471 159.54 160.622 158.942 160.745C158.942 160.745 158.914 160.745 158.896 160.754C158.812 160.773 158.737 160.792 158.653 160.811L158.634 160.764C157.514 160.802 153.722 160.943 152.415 160.991L150.033 161C145.42 161 141.068 158.713 138.379 154.885C136.399 152.068 134.737 148.826 133.439 145.244C133.149 144.441 133 143.609 133 142.768C133 140.5 134.055 138.43 135.764 137.135L135.746 137.144Z" fill="#010101"/>
<rect width="8" height="51" transform="matrix(-0.866025 0.5 0.5 0.866025 141.379 121.227)" fill="white"/>
<rect width="4" height="51" transform="matrix(-0.866025 0.5 0.5 0.866025 146.574 118.227)" fill="white"/>
<rect width="2" height="51" transform="matrix(-0.866025 0.5 0.5 0.866025 150.039 116.227)" fill="white"/>
</g>
<path d="M175.662 131.161C173.61 130.961 171.512 130.489 169.284 129.989C165.097 129.054 160.346 128 153.516 128C144.948 128 139.337 129.917 134.374 131.616C130.594 132.905 127.331 134.023 123.505 134.023C119.678 134.023 116.415 132.905 112.635 131.616C107.681 129.917 102.071 128 93.4933 128C86.6629 128 81.9122 129.063 77.7159 129.999C75.4977 130.489 73.3996 130.961 71.3477 131.161C70.0075 131.298 69 132.406 69 133.741V136.884C69 137.965 69.684 138.937 70.7099 139.319L72.2812 139.9V147.613C72.2812 157.206 80.1006 165 89.7131 165H96.8023C103.06 165 108.975 161.984 112.617 156.933C115.269 153.263 117.432 149.012 119.031 144.288C119.678 142.371 121.453 141.081 123.449 141.072H123.551C125.547 141.081 127.331 142.38 127.978 144.288C129.577 149.012 131.74 153.263 134.393 156.933C138.044 161.984 143.95 165 150.207 165H157.296C166.909 165 174.728 157.197 174.728 147.613V139.9L176.299 139.319C177.316 138.937 178 137.965 178 136.884V133.741C178 132.406 176.993 131.288 175.652 131.161H175.662ZM170.8 138.029V147.567C170.8 155.116 164.653 161.257 157.102 161.257H150.244C145.207 161.257 140.456 158.832 137.517 154.771C135.4 151.846 133.625 148.485 132.239 144.779C131.906 143.888 131.74 142.971 131.74 142.044C131.74 138.71 133.857 135.758 137.018 134.704C142.72 132.787 148.543 131.743 153.433 131.743C159.69 131.743 164.099 132.724 167.999 133.596C169.987 134.041 170.8 135.331 170.8 138.047V138.029ZM115.26 142.044C115.26 142.971 115.094 143.897 114.761 144.788C113.375 148.494 111.6 151.855 109.483 154.78C106.544 158.841 101.793 161.266 96.756 161.266H89.8979C82.3466 161.266 76.2001 155.125 76.2001 147.576V138.038C76.2001 134.677 77.5496 133.914 79.0007 133.587C82.8919 132.715 87.3007 131.734 93.558 131.734C98.4475 131.734 104.28 132.787 109.973 134.695C113.134 135.758 115.251 138.701 115.251 142.035L115.26 142.044Z" fill="#010101"/>
</g>
<defs>
<clipPath id="clip0_113_2049">
<rect width="248" height="249" fill="white"/>
</clipPath>
<clipPath id="clip1_113_2049">
<rect x="78" y="133" width="35" height="27" rx="10" fill="white"/>
</clipPath>
<clipPath id="clip2_113_2049">
<rect width="36" height="28" rx="10" transform="matrix(-1 0 0 1 169 133)" fill="white"/>
</clipPath>
</defs>
</svg>
