<svg width="248" height="248" viewBox="0 0 248 248" fill="none" xmlns="http://www.w3.org/2000/svg">
<g clip-path="url(#clip0_113_1984)">
<rect width="248" height="248" rx="124" fill="#FFE3DE"/>
<g clip-path="url(#clip1_113_1984)">
<path d="M225.669 187.121C225.614 185.966 224.594 185.348 223.658 185.484L203.211 169.169C209.016 166.122 213.48 160.329 215.473 153.235C218.771 141.54 216.603 131.29 210.155 125.788C220.415 116.812 224.19 102.879 219.074 89.9832C216.006 82.2528 210.173 76.4506 202.659 73.6585C200.143 72.7218 197.534 72.1671 194.898 71.9852C198.452 59.0346 194.135 44.4198 183.581 36.6986C177.51 32.2513 170.216 30.6416 163.07 32.1604C158.468 33.1335 154.187 35.4071 150.605 38.663C146.857 28.659 137.892 23.2842 124.445 23.2842C110.997 23.2842 101.297 28.8773 97.4302 38.9995C93.7743 35.5617 89.3561 33.1699 84.5888 32.1604C77.4333 30.6416 70.1492 32.2513 64.0775 36.6986C53.505 44.4289 49.1878 59.071 52.7702 72.0306C49.9227 72.2489 47.1303 72.8582 44.4848 73.8495C36.9894 76.6779 31.2485 82.3438 28.3275 89.8195C23.1101 103.152 28.1989 118.813 39.9931 128.598C33.3244 133.418 31.4046 142.668 34.7849 154.79C36.5669 161.202 40.7096 166.486 46.1566 169.333C45.6606 169.778 45.1737 170.242 44.7145 170.733L26.2699 190.359C24.6717 190.359 23.0917 191.496 22.9815 193.433C22.8346 195.87 23.4775 198.298 24.8186 200.345C46.028 232.676 82.6507 254.084 124.188 254.084C165.725 254.084 202.935 232.339 224.071 199.572C225.109 197.962 225.697 196.089 225.752 194.17C225.825 191.405 225.77 189.077 225.678 187.121H225.669ZM63.554 170.224L67.6783 169.533L69.598 169.287C70.3512 169.242 71.1136 169.114 71.8301 168.951L74.0622 177.172C73.658 177.754 72.914 178.436 71.2147 178.445C69.6256 178.445 67.6599 177.827 65.9698 176.763C63.7101 175.344 62.7916 172.634 63.554 170.224ZM84.1111 186.13L69.3868 131.954L68.606 127.334C72.5741 123.424 86.1228 111.292 103.731 108.663C109.068 112.055 115.737 114.084 122.975 114.084C130.81 114.084 137.975 111.71 143.514 107.799L143.431 108.481C160.93 110.6 174.717 122.414 179.356 126.861L178.878 131.281L169.105 180.864C167.773 187.649 164.227 193.642 159.129 197.735L139.941 213.123C131.086 220.234 119.08 220.371 110.088 213.477L94.0591 201.2C89.3102 197.562 85.7829 192.205 84.1203 186.13H84.1111ZM149.503 102.142C151.643 99.4141 153.195 96.3402 153.995 93.048C161.407 94.976 172.191 102.579 176.132 105.344C177.363 106.208 178.474 106.99 179.53 107.435C180.871 113.638 180.366 117.603 180.32 117.894C173.946 112.565 163.061 105.089 149.503 102.142ZM147.262 87.9187C147.262 97.4133 138.205 105.289 126.466 106.608L140.786 94.6304C141.456 94.0757 141.815 93.2299 141.759 92.3659C141.704 91.5019 141.236 90.7198 140.501 90.2469L125.06 80.4248L129.414 69.7115C139.693 71.9124 147.271 79.2335 147.271 87.9187H147.262ZM105.155 82.7439C104.485 83.3078 104.136 84.1627 104.2 85.0267C104.273 85.8997 104.751 86.6819 105.504 87.1366L121.074 96.5948L116.582 106.135C106.285 103.952 98.6886 96.613 98.6886 87.9187C98.6886 77.9693 108.636 69.7934 121.211 69.0931L105.146 82.753L105.155 82.7439ZM67.1455 118.722L67.1179 118.576C67.0996 118.513 66.0065 113.793 67.32 106.881C68.0549 106.453 68.8265 105.917 69.644 105.344C73.6213 102.552 84.5521 94.8578 91.9556 93.0025C92.7915 96.513 94.4908 99.7779 96.8515 102.634C83.56 106.044 73.0426 113.638 67.1547 118.722H67.1455ZM177.399 176.726L178.74 169.906L187.191 171.224H187.522C187.944 171.206 188.367 171.215 188.78 171.233C188.734 171.988 188.569 172.807 188.275 173.643C187.558 175.644 186.236 177.381 184.812 178.182C182.286 179.6 179.126 178.927 177.399 176.717V176.726ZM31.322 195.643L50.0604 175.708C51.7138 173.962 53.7346 172.588 55.9484 171.652C55.8657 176.044 58.0151 180.382 62.0292 182.902C63.7193 183.966 65.5288 184.739 67.3476 185.202L65.9606 186.858C62.5252 190.941 60.5044 196.116 60.2564 201.445L59.2643 225.546C48.2325 217.424 38.7622 207.275 31.322 195.643ZM92.571 242.189V209.257L105.578 219.216C111.355 223.636 118.07 225.846 124.775 225.846C131.481 225.846 138.673 223.481 144.552 218.761L156.759 208.975V241.888C146.49 245.071 135.559 246.799 124.178 246.799C112.798 246.799 102.556 245.181 92.571 242.189ZM189.23 225.455L188.247 201.436C187.999 196.125 185.979 190.95 182.543 186.867L182.001 186.221C184.197 186.221 186.419 185.666 188.459 184.52C192.206 182.401 195.228 177.89 195.991 173.18C196.707 173.543 197.405 173.953 198.067 174.416L219.542 191.541C211.808 204.847 201.493 216.406 189.239 225.455H189.23Z" fill="#010101"/>
<path d="M136.534 144.017L150.799 126.237C151.46 125.41 152.452 124.855 153.536 124.691L165.505 122.9L150.735 119.307C149.605 119.034 148.355 119.344 147.474 120.117C134.568 131.503 136.111 134.44 136.111 134.44L136.534 144.017Z" fill="#010101"/>
<path d="M100.488 126.27L115.13 143.741L115.341 134.164C115.341 134.164 116.82 131.2 103.676 120.086C102.785 119.331 101.526 119.04 100.397 119.34L85.709 123.242L97.7145 124.779C98.8075 124.915 99.8088 125.461 100.488 126.27Z" fill="#010101"/>
<path d="M125.675 179.087C130.672 179.087 134.742 175.058 134.742 170.11H127.393C127.393 171.047 126.622 171.811 125.675 171.811C124.729 171.811 123.958 171.047 123.958 170.11H116.609C116.609 175.058 120.679 179.087 125.675 179.087Z" fill="#010101"/>
<path d="M124.96 199.731C131.987 199.731 137.691 195.83 137.691 191.028H112.229C112.229 195.839 117.924 199.731 124.96 199.731Z" fill="#010101"/>
<path d="M144.536 152.562C149.413 152.117 154.778 152.271 160.289 145.942L168.4 139.221L174.876 133.555L171.651 135.247L145.868 137.875C143.323 137.975 141.449 138.875 139.851 140.812L135.222 148.161C139.952 148.297 140.375 152.935 144.536 152.553V152.562ZM153.005 143.468C158.479 143.013 161.152 142.167 161.152 142.167C161.152 142.167 151.14 152.881 140.292 148.052C140.292 148.052 144.628 144.159 153.005 143.468Z" fill="#010101"/>
<path d="M116.141 148.168L111.512 140.819C109.913 138.873 108.04 137.982 105.495 137.882L79.7114 135.254L76.4873 133.562L82.9631 139.228L91.0739 145.949C96.5852 152.278 101.95 152.124 106.827 152.569C110.988 152.942 111.42 148.313 116.141 148.177V148.168ZM91.3219 142.202C91.3219 142.202 94.0041 143.048 99.4695 143.493C107.847 144.184 112.182 148.059 112.182 148.059C101.334 152.86 91.3219 142.202 91.3219 142.202Z" fill="#010101"/>
</g>
</g>
<rect x="3.5" y="3.5" width="241" height="241" rx="120.5" stroke="black" stroke-width="7"/>
<defs>
<clipPath id="clip0_113_1984">
<rect width="248" height="248" rx="124" fill="white"/>
</clipPath>
<clipPath id="clip1_113_1984">
<rect width="203" height="231" fill="white" transform="translate(23 23)"/>
</clipPath>
</defs>
</svg>
