<svg width="248" height="248" viewBox="0 0 248 248" fill="none" xmlns="http://www.w3.org/2000/svg">
<g clip-path="url(#clip0_113_2093)">
<rect width="248" height="248" rx="124" fill="#C4EFFF"/>
<path d="M127.815 135.084L147.962 126.511C148.896 126.118 149.987 126.089 150.967 126.445L161.834 130.371L151.087 120.599C150.263 119.848 149.073 119.546 147.979 119.804C131.92 123.577 131.857 126.769 131.857 126.769" fill="#010101"/>
<path d="M113.353 126.78C113.353 126.78 113.299 123.587 97.2311 119.813C96.1373 119.555 94.9471 119.858 94.1236 120.608L83.3754 130.38L94.2427 126.454C95.2315 126.098 96.3214 126.118 97.2482 126.521L117.395 135.095" fill="#010101"/>
<path d="M123.676 177.174C128.446 177.174 132.331 173.289 132.331 168.519H125.316C125.316 169.422 124.579 170.159 123.676 170.159C122.772 170.159 122.036 169.422 122.036 168.519H115.021C115.021 173.289 118.905 177.174 123.676 177.174Z" fill="#010101"/>
<path d="M123.72 196.378C130.429 196.378 135.875 192.616 135.875 187.986H111.566C111.566 192.624 117.003 196.378 123.72 196.378Z" fill="#010101"/>
<path d="M220.112 98.6216C223.725 94.807 224.514 89.2036 221.813 84.1788C220.989 82.7144 218.858 80.3555 215.771 79.8556C214.903 78.2859 213.667 76.918 212.097 75.892C212.001 75.8306 211.895 75.7604 211.799 75.7078C209.019 73.9891 205.766 73.4717 202.635 74.2434C200.732 74.7169 199.013 75.6289 197.593 76.9092C194.655 74.2697 190.534 73.1297 186.561 74.0241C184.115 46.0418 156.413 23.7242 122.134 22.444V22.3826C121.617 22.3826 121.099 22.4089 120.582 22.4176C120.065 22.4089 119.547 22.3826 119.03 22.3826V22.444C84.7864 23.7242 57.1021 45.9979 54.6117 73.9452C53.384 74.4538 52.2528 75.1554 51.2707 76.041C48.2453 73.3138 43.9396 72.1826 39.8532 73.2349C37.4855 73.8488 35.4949 75.2781 34.2497 77.2687C33.899 77.8212 33.6359 78.3736 33.4517 78.9173C30.5755 79.5838 28.0499 81.285 26.3575 83.8105C26.2873 83.907 26.226 84.0122 26.1558 84.1174C24.3581 86.9762 23.7969 90.3085 24.5861 93.5004C25.0597 95.4033 25.9716 97.1133 27.2519 98.5252C25.542 100.332 24.3406 102.603 23.8934 104.997C23.3321 107.97 23.9547 110.855 25.656 113.152C26.5943 114.617 29.0496 116.888 33.0834 117.519C33.9428 119.475 35.3459 121.185 37.2225 122.421C37.3102 122.482 37.4066 122.535 37.4943 122.597L32.2241 128.866C30.2861 130.857 29.1812 133.619 29.1812 136.487V151.894C26.8573 155.481 25.9366 159.892 26.7433 164.145L28.655 174.264L29.3565 174.133C26.6293 177.404 25.1035 181.552 25.1035 185.857L25.5595 190.768C25.5507 190.856 25.5244 190.943 25.5244 191.04C25.4543 192.285 25.5946 193.521 25.9278 194.705L25.9892 195.398L26.1383 195.38C26.4276 196.196 26.8135 196.976 27.287 197.704C47.6928 228.879 82.9273 249.521 122.888 249.521C162.849 249.521 198.654 228.554 218.981 196.95C219.98 195.398 220.542 193.6 220.594 191.75C220.656 189.374 220.621 187.348 220.55 185.603L220.673 184.121V183.84C220.682 180.832 219.937 177.895 218.56 175.29L220.384 165.609C221.042 162.145 220.673 158.508 219.497 156.008L219.788 155.569V138.249C219.788 135.321 218.63 132.506 216.622 130.506L210.387 124.701C210.992 124.464 211.588 124.184 212.167 123.85C213.842 122.974 216.315 120.746 216.587 117.282C218.332 116.388 219.858 115.055 220.998 113.354L221.191 113.056C222.988 110.197 223.549 106.865 222.76 103.673C222.287 101.779 221.375 100.069 220.103 98.6567L220.112 98.6216ZM202.074 179.122L184.632 163.259C182.177 161.032 181.203 157.533 182.15 154.358L183.062 151.28L209.94 175.422C212.29 177.526 213.658 180.543 213.693 183.7L213.035 191.899C210.992 195.196 208.791 198.371 206.423 201.422V188.953C206.423 185.226 204.845 181.648 202.083 179.14L202.074 179.122ZM92.854 197.468C88.943 194.013 86.0316 189.286 84.5935 183.972L72.606 144.432L85.7334 132.637C90.7494 128.244 93.6257 121.886 93.6257 115.204V103.594L99.1853 98.6918C100.229 100.831 101.842 102.682 103.921 104.05C104.035 104.129 104.149 104.199 104.28 104.278C107.621 106.338 111.532 106.97 115.294 106.04C117.785 105.426 120.012 104.172 121.783 102.419C124.563 105.172 128.29 106.672 132.061 106.672C134.525 106.672 137.007 106.032 139.252 104.699C141.277 103.646 144.311 100.893 144.478 96.6047C144.539 96.5784 144.601 96.5433 144.653 96.517L152.169 103.217V113.17C152.169 119.852 155.045 126.201 160.035 130.576L173.697 142.844L166.532 175.211H166.454C166.454 175.29 166.471 175.361 166.48 175.431L165.734 178.78L165.717 178.868C164.445 185.41 161.06 191.189 156.194 195.135L137.875 209.972C129.421 216.83 117.969 216.97 109.375 210.314L94.0729 198.476C93.6871 198.178 93.3275 197.853 92.968 197.538V197.441H92.854V197.468ZM38.5203 191.829V200.265C36.4596 197.538 34.5128 194.697 32.7064 191.768L32.1276 185.673C32.1714 182.525 33.5307 179.517 35.8808 177.413L61.855 154.087L62.7846 157.243C63.7316 160.418 62.7495 163.917 60.2941 166.144L42.8523 182.008C40.0988 184.516 38.5115 188.093 38.5115 191.82L38.5203 191.829ZM170.601 92.1412C170.645 92.8866 170.742 93.6407 170.926 94.3773C171.399 96.2803 172.311 97.9902 173.592 99.4021C171.882 101.209 170.689 103.48 170.233 105.865C169.97 107.259 169.979 108.636 170.233 109.943L150.02 91.9044C150.064 91.8431 150.108 91.7817 150.152 91.7203C150.231 91.5975 150.31 91.4835 150.388 91.3608C152.554 87.9232 153.23 83.9157 152.274 80.0749C151.66 77.5844 150.406 75.3658 148.643 73.5944C148.801 73.4366 148.95 73.27 149.099 73.1121L170.61 92.1324L170.601 92.1412ZM89.8988 71.9195C90.4776 72.8929 91.1703 73.7874 91.9683 74.5941C89.662 76.8478 88.0485 79.7592 87.461 82.8547C86.7857 86.4325 87.5399 89.8963 89.6006 92.6411C89.8988 93.0883 90.7757 94.2546 92.3542 95.3858L76.0435 109.758C76.8678 107.514 77.0169 105.102 76.4381 102.769C75.9646 100.867 75.0526 99.1653 73.7811 97.7535C77.0257 94.316 77.9815 89.4403 76.1838 84.8453L89.89 71.9195H89.8988ZM65.0207 171.344C68.1425 168.503 69.9314 164.539 70.1331 160.435L74.6229 175.238L73.4917 175.325C73.5268 175.755 73.4479 176.15 73.3075 176.518L71.922 178.184C70.554 179.158 68.5634 179.675 67.0639 179.789C65.5995 179.894 64.1701 179.429 63.0564 178.474C61.9778 177.544 61.3113 176.273 61.171 174.861L65.0295 171.353L65.0207 171.344ZM177.24 179.526C176.556 179.307 175.924 178.947 175.363 178.465C174.495 177.728 173.899 176.755 173.618 175.685L176.301 163.557C177.161 165.381 178.371 167.056 179.905 168.45L186.167 174.142C185.483 176.72 182.238 179.561 179.37 179.78C178.643 179.833 177.915 179.745 177.24 179.526ZM37.2926 133.707L44.7113 124.912L44.0975 124.394C44.9569 124.377 45.825 124.271 46.6844 124.061C48.5873 123.587 50.2973 122.675 51.7091 121.404C53.8225 123.324 56.5058 124.403 59.2681 124.552L36.2052 144.879V136.478C36.2052 135.408 36.5999 134.4 37.3014 133.716L37.2926 133.707ZM45.5356 208.648V191.82C45.5356 190.066 46.281 188.383 47.5788 187.199L55.4886 179.999C56.2165 181.42 57.2249 182.709 58.4789 183.779C60.3292 185.366 62.5478 186.348 64.9067 186.673C61.2412 191.452 59.0577 197.327 58.7771 203.352L57.9878 220.11C53.5419 216.628 49.3853 212.787 45.5356 208.648ZM92.9768 238.174V206.517L105.096 215.892C110.612 220.153 117.022 222.284 123.423 222.284C129.825 222.284 136.691 220.004 142.303 215.453L154.256 205.772V237.753C144.373 240.822 133.859 242.488 122.906 242.488C111.953 242.488 102.439 240.98 92.968 238.183L92.9768 238.174ZM188.499 219.575L187.622 200.484C187.385 195.363 185.456 190.373 182.177 186.436L182.124 186.375C185.86 185.366 189.551 182.639 191.621 179.105L197.347 184.314C198.645 185.498 199.39 187.181 199.39 188.935V209.578C195.988 213.156 192.349 216.505 188.49 219.575H188.499ZM212.79 138.223V147.922L186.886 124.806C188.867 125.376 190.963 125.438 193.015 124.938C194.804 124.499 196.418 123.649 197.777 122.491L211.729 135.496C212.404 136.189 212.79 137.18 212.79 138.232V138.223Z" fill="#010101"/>
<path d="M166.489 134.349L141.874 136.883C139.445 136.98 137.656 137.848 136.131 139.716L131.711 146.801C136.227 146.933 136.63 151.405 140.603 151.037C145.259 150.607 150.38 150.756 155.642 144.653L163.385 138.172L169.567 132.709L166.489 134.34V134.349ZM155.142 140.82L150.345 144.837C147.083 148.616 143.909 148.529 141.024 148.792C138.56 149.02 138.305 146.249 135.508 146.161L138.244 141.768C139.191 140.601 140.296 140.066 141.804 140.005L157.063 138.435L158.974 137.418L155.142 140.803V140.82Z" fill="#010101"/>
<path d="M103.351 136.882L78.7362 134.348L75.6582 132.717L81.8405 138.18L89.5836 144.66C94.8451 150.763 99.9663 150.614 104.623 151.044C108.595 151.404 109.007 146.94 113.515 146.809L109.095 139.723C107.569 137.847 105.78 136.987 103.351 136.891V136.882ZM103.623 148.799C100.738 148.536 97.5636 148.624 94.3014 144.844L89.5047 140.828L85.6726 137.443L87.5843 138.46L102.843 140.03C104.351 140.091 105.456 140.626 106.403 141.793L109.139 146.186C106.341 146.265 106.087 149.036 103.623 148.817V148.799Z" fill="#010101"/>
<path d="M146.828 73.8511C151.28 69.5191 152.337 62.9427 149.182 57.076C148.241 55.401 145.771 52.6863 142.195 52.2325C141.212 50.3429 139.742 48.7009 137.883 47.4797C137.768 47.4054 137.66 47.3311 137.545 47.2651C134.398 45.3178 130.714 44.7319 127.171 45.6066C124.825 46.1842 122.727 47.3641 121.05 49.0227C117.606 45.6479 112.502 44.1956 107.678 45.4416C105.035 46.1264 102.814 47.7272 101.418 49.9468C100.964 50.6647 100.641 51.3826 100.443 52.0839C97.0403 52.7688 94.0421 54.7574 92.0433 57.7279L91.8203 58.0662C89.7803 61.3007 89.1443 65.0716 90.0446 68.6857C90.6227 71.0373 91.8121 73.1249 93.4722 74.7917C91.3 76.9123 89.7803 79.66 89.2269 82.5645C88.5909 85.9311 89.3012 89.1904 91.2422 91.773C91.7873 92.5899 94.3642 95.9565 99.9228 96.6909C100.881 99.0343 102.525 101.072 104.738 102.533C104.854 102.607 104.961 102.681 105.077 102.747C108.224 104.695 111.907 105.281 115.451 104.406C117.796 103.828 119.886 102.648 121.563 100.998C124.181 103.589 127.691 105 131.243 105C133.564 105 135.893 104.398 138.015 103.143C139.923 102.153 142.781 99.5623 142.938 95.5274C145.052 94.5207 146.894 92.953 148.265 90.9149C148.34 90.7994 148.414 90.6839 148.488 90.5766C150.528 87.3421 151.164 83.5712 150.264 79.9653C149.686 77.6219 148.505 75.5343 146.845 73.8676L146.828 73.8511ZM108.909 50.2274C112.7 49.2372 116.921 50.9452 118.936 54.2705C119.382 55.0132 120.191 55.467 121.059 55.467H121.075C121.951 55.467 122.752 54.9967 123.198 54.2458C124.346 52.3067 126.18 50.937 128.36 50.4006C130.598 49.8478 132.936 50.2274 134.943 51.4651L135.158 51.6053C137.478 53.1318 138.8 55.7145 138.676 58.52C138.56 61.243 137.09 63.6276 134.753 64.8983L121.686 71.9697L114.311 58.3302C112.568 55.1122 109.537 52.8843 105.96 52.1169C106.687 51.2175 107.703 50.5409 108.917 50.2274H108.909ZM95.3884 89.0748C95.3388 88.9923 95.281 88.9098 95.2232 88.8273C93.7943 86.9625 93.8109 84.8914 94.0834 83.4804C94.5872 80.8235 96.3382 78.3646 98.7665 76.8958C99.5181 76.442 99.9724 75.6251 99.9641 74.7505C99.9559 73.8758 99.4851 73.0672 98.7252 72.6298C96.7595 71.4912 95.3801 69.6676 94.835 67.4892C94.2651 65.1954 94.6781 62.786 95.9831 60.7149L96.14 60.4756C97.7919 58.0167 100.567 56.6469 103.524 56.7707C106.283 56.9027 108.686 58.3632 109.942 60.6901L117.325 74.3296L105.481 80.741C101.6 82.8451 99.163 86.7727 98.973 91.2615C98.973 91.3192 98.973 91.377 98.973 91.4347C96.4456 90.6591 95.4297 89.1326 95.3884 89.0748ZM135.694 98.7455C135.637 98.7785 135.579 98.8032 135.521 98.8445C131.49 101.27 126.171 99.8759 123.66 95.7172C123.214 94.9746 122.405 94.5207 121.538 94.5207H121.521C120.646 94.5207 119.845 94.9911 119.399 95.7337C118.251 97.6728 116.417 99.0425 114.236 99.5788C111.998 100.132 109.661 99.7521 107.654 98.5144L107.439 98.3741C105.118 96.8476 103.797 94.265 103.92 91.4595C104.036 88.7365 105.506 86.3519 107.844 85.0812L119.688 78.6699L125.965 90.2713C128.054 94.1329 131.994 96.5671 136.504 96.7816C136.727 96.7899 136.942 96.7981 137.165 96.7981C137.305 96.7981 137.445 96.7899 137.586 96.7816C136.975 98.0111 135.851 98.6464 135.686 98.729L135.694 98.7455ZM141.55 75.9882C143.516 77.1269 144.895 78.9504 145.441 81.137C146.01 83.4309 145.598 85.8403 144.276 87.9361L144.136 88.1589C142.484 90.6178 139.725 91.9958 136.752 91.8638C133.993 91.7318 131.59 90.2713 130.334 87.9444L124.057 76.3347L137.123 69.2633C141.005 67.1592 143.442 63.2315 143.632 58.7428C143.64 58.5282 143.632 58.322 143.632 58.1157C144.4 58.7593 144.838 59.4772 144.838 59.4772C147.291 64.0319 145.92 69.0818 141.509 71.747C140.757 72.2008 140.303 73.0177 140.311 73.8923C140.32 74.767 140.791 75.5756 141.55 76.0129V75.9882Z" fill="#6BCDEA"/>
<path d="M217.963 98.6329C221.278 95.1667 222.002 90.0749 219.524 85.5091C218.768 84.1784 216.813 82.0349 213.981 81.5807C213.184 80.1544 212.05 78.9113 210.61 77.979C210.521 77.9232 210.425 77.8595 210.344 77.8117C207.794 76.2499 204.809 75.7798 201.937 76.481C200.191 76.9113 198.614 77.74 197.311 78.9033C194.535 76.4252 190.584 75.3973 186.835 76.3535C184.663 76.9113 182.837 78.2101 181.686 80.0189C181.372 80.5209 181.123 81.0149 180.954 81.509C178.323 82.1146 175.998 83.6684 174.445 85.9633C174.381 86.0509 174.324 86.1465 174.26 86.2422C172.611 88.8398 172.096 91.8678 172.82 94.7683C173.254 96.4974 174.091 98.0512 175.266 99.3341C173.697 100.976 172.603 103.039 172.184 105.207C171.669 107.908 172.241 110.538 173.802 112.617C174.662 113.948 176.915 116.012 180.616 116.585C181.405 118.362 182.684 119.916 184.397 121.032C184.486 121.088 184.583 121.151 184.671 121.199C187.221 122.761 190.206 123.231 193.079 122.53C194.824 122.1 196.393 121.271 197.689 120.115C199.764 121.988 202.46 123 205.187 123C207.062 123 208.952 122.522 210.666 121.51C212.203 120.713 214.472 118.689 214.721 115.542C216.322 114.729 217.722 113.518 218.768 111.972L218.945 111.701C220.594 109.103 221.109 106.075 220.385 103.175C219.951 101.454 219.114 99.8998 217.947 98.6169L217.963 98.6329ZM188.05 80.9751C190.786 80.2739 193.819 81.4851 195.259 83.8596C195.693 84.5768 196.482 85.015 197.327 85.015H197.335C198.188 85.015 198.968 84.5608 199.402 83.8437C200.223 82.4652 201.534 81.501 203.087 81.1185C204.688 80.7281 206.362 80.999 207.81 81.8835L207.963 81.9791C209.612 83.0548 210.545 84.8796 210.465 86.8477C210.384 88.7681 209.347 90.4415 207.689 91.3259L198.019 96.5213L192.548 86.4892C191.268 84.1465 189.144 82.4572 186.61 81.6922C187.028 81.3735 187.511 81.1185 188.058 80.9831L188.05 80.9751ZM177.889 110.059C177.84 109.98 177.784 109.9 177.728 109.82C176.73 108.53 176.746 107.087 176.939 106.099C177.301 104.227 178.597 102.418 180.334 101.374C181.067 100.936 181.509 100.147 181.501 99.3022C181.493 98.4576 181.034 97.6767 180.294 97.2544C178.886 96.4496 177.905 95.1587 177.519 93.6128C177.116 91.9873 177.406 90.2662 178.355 88.784L178.46 88.6167C179.643 86.8716 181.622 85.8915 183.738 85.9951C185.733 86.0908 187.39 87.0948 188.292 88.7442L193.771 98.7763L185.041 103.462C182.032 105.071 180.117 108.028 179.795 111.422C178.452 110.864 177.905 110.059 177.889 110.044V110.059ZM208.429 117.287C208.373 117.319 208.317 117.342 208.26 117.382C205.372 119.103 201.567 118.107 199.764 115.151C199.33 114.434 198.542 113.996 197.697 113.996H197.681C196.828 113.996 196.047 114.45 195.613 115.167C194.792 116.546 193.481 117.51 191.928 117.892C190.327 118.283 188.654 118.012 187.205 117.127L187.053 117.032C185.403 115.956 184.462 114.131 184.55 112.155C184.631 110.235 185.669 108.561 187.326 107.677L196.055 102.992L200.682 111.462C202.363 114.554 205.533 116.498 209.162 116.705C208.824 117.048 208.494 117.247 208.429 117.287ZM212.935 100.697C214.343 101.501 215.324 102.792 215.711 104.338C216.113 105.964 215.823 107.685 214.874 109.167L214.769 109.334C213.587 111.079 211.615 112.059 209.491 111.956C207.496 111.86 205.839 110.856 204.938 109.207L200.312 100.729L209.99 95.5332C212.959 93.9395 214.858 91.047 215.22 87.7163C215.268 87.78 215.3 87.8278 215.3 87.8278C217.07 91.0789 216.081 94.6806 212.903 96.585C212.171 97.0233 211.728 97.8121 211.736 98.6568C211.744 99.5014 212.203 100.282 212.943 100.705L212.935 100.697Z" fill="#6BCDEA"/>
<path d="M71.9634 97.6329C75.2781 94.1667 76.0022 89.0749 73.5242 84.5091C72.7679 83.1784 70.8129 81.0349 67.9808 80.5807C67.1843 79.1544 66.0499 77.9113 64.6098 76.979C64.5213 76.9232 64.4247 76.8595 64.3443 76.8117C61.7938 75.2499 58.809 74.7798 55.9367 75.481C54.1908 75.9113 52.6139 76.74 51.3105 77.9033C48.5348 75.4252 44.5845 74.3973 40.8353 75.3535C38.663 75.9113 36.8366 77.2101 35.6861 79.0189C35.3724 79.5209 35.123 80.0149 34.954 80.509C32.3231 81.1146 29.998 82.6684 28.4452 84.9633C28.3808 85.0509 28.3245 85.1465 28.2601 85.2422C26.6108 87.8398 26.0959 90.8678 26.82 93.7683C27.2544 95.4974 28.0912 97.0512 29.2658 98.3341C27.6969 99.9756 26.6028 102.039 26.1844 104.207C25.6695 106.908 26.2407 109.538 27.8015 111.617C28.6624 112.948 30.9152 115.012 34.6161 115.585C35.4046 117.362 36.6838 118.916 38.3975 120.032C38.486 120.088 38.5825 120.151 38.671 120.199C41.2215 121.761 44.2063 122.231 47.0786 121.53C48.8245 121.1 50.3933 120.271 51.6887 119.115C53.7644 120.988 56.4597 122 59.1871 122C61.0617 122 62.9524 121.522 64.6661 120.51C66.2028 119.713 68.4716 117.689 68.721 114.542C70.3221 113.729 71.722 112.518 72.7679 110.972L72.9449 110.701C74.5943 108.103 75.1092 105.075 74.3851 102.175C73.9506 100.454 73.1139 98.8998 71.9473 97.6169L71.9634 97.6329ZM42.0501 79.9751C44.7856 79.2739 47.8188 80.4851 49.2589 82.8596C49.6934 83.5768 50.4818 84.015 51.3266 84.015H51.3347C52.1875 84.015 52.9679 83.5608 53.4024 82.8437C54.223 81.4652 55.5344 80.501 57.0872 80.1185C58.6883 79.7281 60.3617 79.999 61.8099 80.8835L61.9628 80.9791C63.6121 82.0548 64.5454 83.8796 64.465 85.8477C64.3845 87.7681 63.3466 89.4415 61.6893 90.3259L52.0185 95.5213L46.5476 85.4892C45.2683 83.1465 43.1443 81.4572 40.61 80.6922C41.0284 80.3735 41.5111 80.1185 42.0582 79.9831L42.0501 79.9751ZM31.8887 109.059C31.8404 108.98 31.7841 108.9 31.7277 108.82C30.7301 107.53 30.7462 106.087 30.9393 105.099C31.3013 103.227 32.5967 101.418 34.3345 100.374C35.0666 99.9357 35.5091 99.1469 35.5011 98.3022C35.493 97.4576 35.0345 96.6767 34.2943 96.2544C32.8863 95.4496 31.9048 94.1587 31.5186 92.6128C31.1163 90.9873 31.4059 89.2662 32.3553 87.784L32.4599 87.6167C33.6426 85.8716 35.6218 84.8915 37.7377 84.9951C39.733 85.0908 41.3904 86.0948 42.2915 87.7442L47.7705 97.7763L39.0411 102.462C36.0321 104.071 34.1173 107.028 33.7954 110.422C32.4518 109.864 31.9048 109.059 31.8887 109.044V109.059ZM62.4294 116.287C62.3731 116.319 62.3168 116.342 62.2605 116.382C59.3721 118.103 55.5666 117.107 53.7644 114.151C53.33 113.434 52.5415 112.996 51.6967 112.996H51.6806C50.8278 112.996 50.0474 113.45 49.6129 114.167C48.7923 115.546 47.4809 116.51 45.9281 116.892C44.327 117.283 42.6536 117.012 41.2054 116.127L41.0525 116.032C39.4032 114.956 38.4619 113.131 38.5504 111.155C38.6308 109.235 39.6687 107.561 41.3261 106.677L50.0554 101.992L54.6816 110.462C56.3631 113.554 59.5331 115.498 63.1616 115.705C62.8237 116.048 62.4938 116.247 62.4294 116.287ZM66.9349 99.6967C68.3429 100.501 69.3244 101.792 69.7106 103.338C70.1129 104.964 69.8233 106.685 68.8739 108.167L68.7693 108.334C67.5866 110.079 65.6155 111.059 63.4915 110.956C61.4962 110.86 59.8388 109.856 58.9377 108.207L54.3115 99.7286L63.9903 94.5332C66.9591 92.9395 68.8578 90.047 69.2199 86.7163C69.2681 86.78 69.3003 86.8278 69.3003 86.8278C71.0703 90.0789 70.0807 93.6806 66.9027 95.585C66.1706 96.0233 65.7281 96.8121 65.7361 97.6568C65.7442 98.5014 66.2028 99.2823 66.943 99.7046L66.9349 99.6967Z" fill="#6BCDEA"/>
</g>
<rect x="3.5" y="3.5" width="241" height="241" rx="120.5" stroke="black" stroke-width="7"/>
<defs>
<clipPath id="clip0_113_2093">
<rect width="248" height="248" rx="124" fill="white"/>
</clipPath>
</defs>
</svg>
