<svg width="248" height="248" viewBox="0 0 248 248" fill="none" xmlns="http://www.w3.org/2000/svg">
<g clip-path="url(#clip0_113_2207)">
<rect width="248" height="248" rx="124" fill="#FFC4F2"/>
<path d="M63.8202 91.6689L75.3287 87.2968C83.2173 88.2558 97.791 84.9274 104.213 89.9294C105.153 90.6628 107.043 93.4083 107.72 93.5494C109.121 93.8502 109.271 91.8945 109.375 90.8133C110.277 81.2322 103.32 79.5868 95.5156 79.6056C89.5451 79.615 82.136 79.2859 76.316 79.7467C72.1131 80.0757 66.7349 84.9838 64.2151 88.2088C63.3783 89.2807 61.3098 91.3962 63.8108 91.6783L63.8202 91.6689Z" fill="black"/>
<path d="M91.7861 100.644C93.5542 100.437 100.624 98.8397 101.687 99.3474L101.677 99.3562C103.369 100.174 100.088 103.644 99.3262 104.34C91.7196 111.288 79.5343 111.138 72.3604 103.635C72.0401 103.295 69.6438 100.522 69.9258 100.268C70.4991 100.287 71.0819 100.231 71.6553 100.268C78.7729 100.767 84.5557 101.5 91.7861 100.644Z" fill="black"/>
<path d="M227.504 197.137L226.574 178.134C226.555 175.173 225.539 172.117 223.687 169.268L225.398 160.195C226.141 156.274 225.483 152.344 223.621 148.959L225.398 139.538C226.498 133.727 224.533 127.86 220.077 123.826L194.088 101.007V85.6995C194.088 68.7188 186.877 53.0262 173.789 41.5176C160.353 29.6988 141.435 23.1924 120.515 23.1924V27.8278H120.458V23.1924C79.6801 23.1924 48.5488 47.9583 46.1135 81.459H45.9443V82.7377L37.2001 93.9172C34.323 97.0294 32.7245 100.828 32.7904 104.391L32.5459 116.097L33.7306 137.798L33.7494 138.005C34.1349 141.55 35.8461 144.728 38.4506 146.73C40.0302 147.943 42.0517 148.601 44.0544 148.601C44.6938 148.601 45.3237 148.526 45.9443 148.385V175.182C45.9443 179.864 46.9692 184.528 48.9155 188.665C49.7429 190.433 50.7771 192.473 52.0465 194.711L51.9712 218.273L50.3446 220.125C50.8806 220.596 51.4259 221.056 51.9618 221.517V221.602H52.0559C69.7135 236.749 88.9038 246.499 109.119 250.57C116.18 251.99 123.241 252.705 130.293 252.705C143.692 252.705 157.034 250.138 170.15 245.023C186.651 238.592 201.403 228.418 213.58 215.208H213.815V214.964C217.867 210.544 221.628 205.787 225.06 200.719L227.495 197.127L227.504 197.137ZM161.274 189.267L143.099 203.991L142.808 204.254C142.723 204.339 134.505 212.34 124.821 210.366L124.765 189.389C126.814 189.361 128.826 189.116 130.312 188.646C133.293 187.715 135.107 185.506 137.195 183.353C137.26 183.146 137.195 182.845 136.978 182.76C136.706 182.648 135.963 182.807 135.624 182.817C132.362 182.93 129.174 182.497 125.987 183.428C125.752 183.494 125.507 183.635 125.272 183.701C125.084 183.748 124.915 183.776 124.746 183.795V181.999C125.404 181.895 126.034 181.585 126.739 181.425C129.898 180.729 133.123 181.275 136.301 181.002C136.527 180.983 136.988 180.955 137.176 180.889C137.42 180.795 137.505 180.466 137.373 180.25C137.27 180.071 136.217 179.545 135.953 179.385C133.302 177.768 130.735 175.624 127.378 176.564C126.513 176.809 125.63 177.298 124.727 177.373L124.52 105.285C126.532 106.187 128.704 106.657 130.895 106.657C133.528 106.657 136.179 105.98 138.586 104.551C140.73 103.432 143.851 100.612 144.312 96.2584C146.146 95.2805 147.772 93.9172 149.098 92.2247L152.182 94.8668L157.184 99.2577V108.181C157.184 109.967 157.4 111.735 157.795 113.446L151.025 108.707C150.123 108.077 148.91 107.927 147.866 108.312C132.531 114.048 132.879 117.197 132.879 117.197L129.936 125.876L148.684 114.903C149.549 114.396 150.621 114.236 151.637 114.461L158.547 116.003C159.582 118.899 161.18 121.579 163.267 123.864L141.341 126.12C138.934 126.214 137.157 127.079 135.643 128.932L131.262 135.955C135.737 136.087 136.141 140.525 140.09 140.158C144.716 139.735 149.794 139.876 155.012 133.83L162.694 127.399L164.894 125.453C164.96 125.509 165.026 125.575 165.091 125.631L178.518 137.695L171.429 169.729H171.363C171.363 169.794 171.382 169.851 171.382 169.907L170.658 173.189L170.639 173.283C169.388 179.705 166.069 185.384 161.293 189.248L161.274 189.267ZM55.7322 185.487C54.256 182.337 53.4756 178.783 53.4756 175.201V150.209C58.1298 161.633 64.8901 173.508 73.672 176.696L69.1118 192.699C68.6511 194.316 69.3186 196.037 70.7478 196.92C71.359 197.296 72.0453 197.484 72.7317 197.484C73.6437 197.484 74.5464 197.155 75.261 196.507L99.3781 174.665C102.744 172.831 106.543 171.863 110.379 171.863H117.196L117.355 227.384C79.1159 226.322 61.6181 198.002 55.751 185.487H55.7322ZM53.4756 85.7089C53.4756 85.5678 53.485 85.4362 53.485 85.3046L70.2213 63.9141C73.1266 60.6045 76.944 49.1054 78.2321 42.4109C78.7586 42.0724 79.2758 41.7245 79.8211 41.3954C82.0119 44.4324 84.6728 46.3975 87.7849 47.2437C93.0409 48.6729 97.6481 46.3505 99.5003 45.194C100.309 45.1376 101.118 45.4384 101.672 46.0308C106.298 51.0517 111.3 53.6561 116.124 53.6561C116.368 53.6561 116.603 53.6373 116.848 53.6279L116.914 76.7202L116.867 76.7484L116.914 76.833L117.111 144.822L100.666 146.129C88.8286 147.172 79.0877 155.634 76.3798 167.199L75.7405 169.437C66.0842 165.404 57.1143 140.976 53.4756 125.443V85.7089ZM144.754 59.2976C146.193 63.1808 144.801 67.2144 141.106 69.4521L135.662 72.743L141.172 75.9304C142.968 76.9646 144.227 78.6383 144.726 80.6316C145.243 82.7471 144.867 84.9661 143.645 86.8936L143.504 87.1098C141.99 89.3664 139.442 90.6169 136.734 90.5041C134.195 90.3819 132.08 89.0937 130.933 86.9782L124.718 75.4791L137.618 68.8316C141.322 66.8195 143.87 63.3594 144.754 59.2976ZM124.473 90.7956C126.692 94.707 130.575 97.2832 135.079 97.885L134.816 98.026C131.403 100.085 126.984 99.1355 124.501 95.9669L124.482 90.7862L124.473 90.7956ZM134.111 62.1841L124.398 67.1862L124.351 51.3055C125.357 50.2054 126.654 49.4251 128.121 49.0678C130.18 48.56 132.324 48.9079 134.167 50.0456L134.374 50.1772C136.48 51.5688 137.674 53.91 137.561 56.458C137.458 58.9215 136.141 61.0746 134.101 62.1841H134.111ZM159.431 126.196L155.717 129.477L151.063 133.379C147.894 137.046 145.871 137.215 142.018 137.215C139.27 137.215 138.929 135.034 136.668 134.667C136.668 134.667 138.163 130.695 140.09 129.642C142.018 128.588 145.375 128.092 146.862 128.092C148.35 128.092 149.255 127.82 150.829 127.597C152.402 127.374 156.282 126.605 157.274 126.605C158.266 126.605 159.431 126.196 159.431 126.196ZM184.413 173.95C183.031 174.054 181.687 173.612 180.634 172.709C179.834 172.023 179.28 171.148 179.016 170.161L182.035 156.518C182.542 160.129 184.282 163.542 187.055 166.062L190.619 169.306C189.603 171.515 186.82 173.762 184.404 173.95H184.413ZM218.017 138.146L217.284 142.029L157.099 89.1878L152.267 85.0413C152.614 82.9916 152.539 80.8855 152.031 78.8263C151.467 76.5227 150.386 74.4354 148.891 72.6866C149.107 72.4421 149.314 72.1882 149.521 71.9344L152.173 74.2098L215.084 129.449C217.538 131.677 218.638 134.93 218.017 138.155V138.146ZM44.3835 141.051C43.8476 141.183 43.2834 140.957 43.0578 140.779C42.0893 140.026 41.4312 138.757 41.2525 137.281L40.0866 115.975L40.3311 104.382V104.288C40.2841 102.643 41.2149 100.64 42.8227 98.938L45.9631 94.9232V139.519C45.4836 140.374 44.9382 140.91 44.3929 141.051H44.3835ZM71.0863 217.85L70.9171 226.472C67.0527 223.915 63.2447 221.103 59.5026 218.029L59.5402 205.881C62.7088 209.914 66.5355 214.023 71.0863 217.841V217.85ZM78.3543 231.042L78.5048 223.322C88.5183 229.791 101.296 234.502 117.365 234.897L117.393 244.402C104.089 242.663 90.9724 238.197 78.3543 231.042ZM124.915 245.089L124.84 217.991C125.912 218.142 126.974 218.217 127.999 218.217C138.671 218.217 146.682 210.958 147.97 209.736L159.234 200.615V240.858C147.829 244.299 136.329 245.7 124.924 245.098L124.915 245.089ZM193.9 223.059L192.894 194.758C192.659 189.737 190.798 184.838 187.638 180.936C190.986 179.921 194.248 177.561 196.326 174.496L204.365 181.811C205.597 182.93 206.302 184.528 206.302 186.192V211.974C202.419 215.998 198.282 219.702 193.9 223.059ZM218.845 196.507C217.246 198.867 215.563 201.151 213.824 203.37V186.192C213.824 182.412 212.216 178.793 209.424 176.254L192.123 160.514C189.773 158.371 188.832 155.023 189.735 151.968L190.704 148.686L214.557 170.114C217.378 172.643 219.061 175.68 219.061 178.247L219.879 195.002L218.854 196.516L218.845 196.507Z" fill="black"/>
</g>
<rect x="3.5" y="3.5" width="241" height="241" rx="120.5" stroke="black" stroke-width="7"/>
<defs>
<clipPath id="clip0_113_2207">
<rect width="248" height="248" rx="124" fill="white"/>
</clipPath>
</defs>
</svg>
