<svg width="248" height="248" viewBox="0 0 248 248" fill="none" xmlns="http://www.w3.org/2000/svg">
<g clip-path="url(#clip0_113_2001)">
<rect width="248" height="248" rx="124" fill="#E7EAFF"/>
<path d="M170.885 127.555L145.001 130.22C142.447 130.322 140.565 131.235 138.961 133.199L134.313 140.65C139.062 140.788 139.487 145.491 143.664 145.103C148.56 144.652 153.946 144.808 159.478 138.39L167.621 131.576L174.122 125.831L170.885 127.546V127.555ZM157.68 136.085L155.172 138.031C151.659 141.784 148.238 141.756 145.121 142.07C142.465 142.337 142.188 139.645 139.173 139.626L140.667 136.832C141.718 134.849 144.346 133.595 145.969 133.512L162.42 131.677L162.669 131.576C161.12 133.208 159.451 134.72 157.68 136.094V136.085Z" fill="#010101"/>
<path d="M110.525 133.205C108.92 131.231 107.039 130.328 104.485 130.226L78.6009 127.561L75.3643 125.846L81.8652 131.591L90.0076 138.406C95.5404 144.824 100.926 144.667 105.822 145.119C109.999 145.497 110.433 140.803 115.172 140.665L110.525 133.214V133.205ZM105.038 142.085C101.921 141.771 98.5004 141.79 94.9871 138.046L92.4789 136.1C90.6992 134.726 89.0394 133.214 87.4902 131.582L87.7392 131.683L104.19 133.518C105.813 133.61 108.432 134.865 109.492 136.838L110.986 139.632C107.971 139.66 107.694 142.352 105.038 142.076V142.085Z" fill="#010101"/>
<path d="M226.76 191.924C226.76 191.74 226.714 191.574 226.659 191.426L226.779 177.133L224.861 176.073C207.885 166.658 202.472 120.164 201.808 102.948V97.4617C201.808 77.7558 193.693 59.1197 178.967 44.9743C164.213 30.8012 144.691 23 123.999 23C103.306 23 83.9047 31.17 68.9847 46.007C54.4981 60.4199 46.1897 79.7476 46.1897 99.0477L46.4387 103.769C46.1159 111.976 44.7235 126.739 41.5422 140.977C41.2195 141.576 41.0811 142.222 41.1088 142.867C37.5586 157.925 31.9429 172.062 23.3948 176.792L21.5136 177.834L21.2646 201.035H21.864C22.1314 202.566 22.7032 204.032 23.5607 205.341C45.0186 238.123 82.0696 259.83 124.091 259.83C166.112 259.83 203.763 237.782 225.137 204.548C225.82 203.497 226.281 202.326 226.558 201.109H226.585V200.989C226.724 200.362 226.816 199.725 226.834 199.08C226.908 196.277 226.862 193.916 226.76 191.934V191.924ZM50.5053 133.683L95.2745 161.171C93.3841 163.117 91.5491 165.201 89.8708 167.396L49.0667 141.069C49.6016 138.579 50.0811 136.099 50.5053 133.683ZM70.0451 129.423L71.0502 110.98C71.3545 105.355 74.7387 100.422 79.875 98.1072L108.507 85.2251H139.933V85.1236C140.2 85.179 140.468 85.2251 140.735 85.2251C140.957 85.2251 141.169 85.1974 141.381 85.1605L168.694 97.4525C173.48 99.601 176.634 104.193 176.92 109.44L177.971 128.639L175.204 142.812L151.847 157.252C144.368 150.456 137.176 146.012 136.567 145.634L131.228 142.581C127.743 140.59 123.418 140.59 119.941 142.581L114.704 145.578L114.621 145.634C114.049 145.984 107.742 149.875 100.826 155.924L72.5164 138.542L70.0451 129.423ZM161.824 61.8492C162.009 62.0336 162.193 62.2088 162.378 62.3932C169.856 70.0377 174.365 80.3562 175.85 93.1646C174.587 92.2148 173.213 91.3849 171.737 90.7209L147.199 79.6831L161.04 63.509C161.465 63.0203 161.714 62.4486 161.834 61.8584L161.824 61.8492ZM86.6711 61.9322C86.8001 62.4947 87.0491 63.0387 87.4456 63.509L101.729 80.1995L76.8596 91.3849C75.1998 92.1318 73.6783 93.0724 72.2859 94.1512C74.0287 80.6421 78.9713 69.7426 86.6711 61.9322ZM157.26 162.582L198.506 137.085C198.94 139.289 199.419 141.512 199.945 143.743C199.714 143.835 199.484 143.946 199.263 144.084L161.907 168.18C160.469 166.225 158.901 164.353 157.26 162.582ZM85.8227 173.556C84.7254 175.557 83.8125 177.604 83.1485 179.697C81.8852 176.35 80.6588 172.836 79.5707 169.526L85.8227 173.556ZM93.3657 216.259C100.881 224.438 110.969 229.307 121.952 230.128L122.966 243.858V252.407C122.966 252.407 122.966 252.407 122.966 252.416C104.616 252.231 87.4549 247.639 72.3597 239.654C72.4334 239.358 72.4888 239.054 72.4888 238.741V215.3L84.3381 201.45C86.2745 206.807 89.3268 211.87 93.3657 216.259ZM130.334 243.453L129.356 230.22C140.579 229.814 150.455 225.314 157.924 217.191C162.267 212.469 165.504 206.688 167.394 200.528L180.055 215.328L180.313 237.164C165.55 245.887 148.592 251.254 130.352 252.259V243.729C130.352 243.637 130.352 243.545 130.343 243.462L130.334 243.453ZM169.976 175.298C169.533 177.585 169.118 179.715 168.611 181.689C168.021 179.208 167.08 176.774 165.854 174.422L171.11 171.029L170.114 174.662L169.976 175.298Z" fill="#010101"/>
<path d="M151.21 121.021C152.132 120.486 153.266 120.311 154.336 120.55L166.195 123.197L153.681 114.437C152.722 113.764 151.441 113.607 150.334 114.022C134.086 120.099 134.446 123.437 134.446 123.437L131.329 132.64L151.201 121.012L151.21 121.021Z" fill="#010101"/>
<path d="M98.4117 121.019L118.284 132.647L115.167 123.444C115.167 123.444 115.536 120.106 99.2785 114.029C98.172 113.614 96.8902 113.771 95.9312 114.444L83.418 123.205L95.2765 120.558C96.3554 120.318 97.4896 120.484 98.4025 121.028L98.4117 121.019Z" fill="#010101"/>
<path d="M141.562 164.858L128.542 155.756C127.334 154.908 125.738 154.871 124.484 155.646L110.634 164.231C108.9 165.3 108.365 167.578 109.444 169.312C110.523 171.045 112.792 171.58 114.525 170.501L126.31 163.198L137.339 170.907C137.984 171.359 138.722 171.571 139.45 171.571C140.612 171.571 141.756 171.017 142.475 169.994C143.646 168.325 143.231 166.029 141.562 164.858Z" fill="#E7EAFF"/>
<path d="M125.601 175.477C116.795 175.477 109.63 182.642 109.63 191.449C109.63 200.255 116.795 207.42 125.601 207.42C134.407 207.42 141.572 200.255 141.572 191.449C141.572 182.642 134.407 175.477 125.601 175.477ZM125.601 200.034C120.861 200.034 117.007 196.179 117.007 191.439C117.007 186.7 120.861 182.845 125.601 182.845C130.341 182.845 134.195 186.7 134.195 191.439C134.195 196.179 130.341 200.034 125.601 200.034Z" fill="#E7EAFF"/>
</g>
<rect x="3.5" y="3.5" width="241" height="241" rx="120.5" stroke="black" stroke-width="7"/>
<defs>
<clipPath id="clip0_113_2001">
<rect width="248" height="248" rx="124" fill="white"/>
</clipPath>
</defs>
</svg>
