<svg width="248" height="248" viewBox="0 0 248 248" fill="none" xmlns="http://www.w3.org/2000/svg">
<g clip-path="url(#clip0_113_2169)">
<rect width="248" height="248" rx="124" fill="#FFF6CD"/>
<g clip-path="url(#clip1_113_2169)">
<path d="M129.768 132.861L151.012 130.131C151.996 130.009 153.031 130.27 153.86 130.864L163.052 137.431L155.521 125.398C154.945 124.475 153.904 123.875 152.806 123.828C136.683 123.127 135.778 126.112 135.778 126.112" fill="#010101"/>
<path d="M115.876 126.13C115.876 126.13 114.979 123.141 98.8485 123.846C97.7501 123.893 96.7095 124.492 96.133 125.416L88.6018 137.448L97.7946 130.881C98.6313 130.284 99.6629 130.015 100.642 130.149L121.886 132.879" fill="#010101"/>
<path d="M125.233 181.159C129.9 181.159 133.7 177.364 133.7 172.704H126.838C126.838 173.586 126.117 174.306 125.233 174.306C124.35 174.306 123.629 173.586 123.629 172.704H116.767C116.767 177.364 120.567 181.159 125.233 181.159Z" fill="#010101"/>
<path d="M220.148 187.645C220.148 184.707 219.419 181.837 218.063 179.293L219.848 169.837C220.577 166.008 219.925 162.161 218.072 158.864L219.848 149.493C220.92 143.865 219.007 138.186 214.692 134.28L187.919 110.8H188.974V96.5296C188.974 80.2973 182.146 64.9472 169.741 53.3061C157.337 41.6651 140.944 35.2578 123.564 35.2578C106.184 35.2578 89.8855 41.9649 77.344 54.1542C65.1455 66.0094 58.1542 81.9248 58.1542 97.8231V112.368H58.9348L35.5245 132.892C31.3125 136.712 29.3566 142.52 30.4118 148.062L32.1875 157.467C30.3689 160.765 29.6912 164.654 30.4118 168.406L32.2819 178.291L32.9681 178.163C30.3003 181.358 28.8076 185.409 28.8076 189.615L29.2537 194.412C29.2451 194.498 29.2194 194.583 29.2194 194.678C29.1508 195.894 29.288 197.102 29.614 198.258L29.674 198.935L29.8199 198.918C30.1029 199.714 30.4804 200.477 30.9436 201.188C50.9055 231.639 85.3733 251.804 124.465 251.804C157.569 251.804 187.344 237.344 207.821 214.431H208.413V213.762C212.084 209.591 215.447 205.145 218.475 200.451C219.453 198.935 220.002 197.179 220.054 195.371C220.114 193.05 220.079 191.071 220.011 189.367L220.131 187.919V187.645H220.148ZM95.084 200.974C91.2581 197.599 88.4101 192.982 87.0032 187.791L75.2766 149.167L88.1184 137.646C93.0252 133.354 95.8389 127.144 95.8389 120.617V109.464L102.144 103.939L112.224 95.3047L137.89 96.5982L148.09 105.335L153.117 109.738V118.647C153.117 125.174 155.93 131.376 160.811 135.65L174.176 147.634L167.168 179.25H167.091C167.091 179.328 167.108 179.396 167.117 179.465L166.387 182.737L166.37 182.822C165.126 189.213 161.815 194.857 157.054 198.712L139.134 213.206C130.864 219.904 119.661 220.041 111.254 213.54L96.285 201.976C95.9075 201.685 95.5558 201.368 95.2041 201.059V200.965H95.0926L95.084 200.974ZM41.9325 195.466V203.706C39.9166 201.042 38.0122 198.267 36.2451 195.406L35.6789 189.452C35.7218 186.377 37.0514 183.439 39.3504 181.383L64.7595 158.598L65.6688 161.682C66.5953 164.783 65.6345 168.2 63.2326 170.376L46.1702 185.872C43.4766 188.322 41.9239 191.817 41.9239 195.457L41.9325 195.466ZM67.8563 175.456C70.9102 172.68 72.6602 168.809 72.8575 164.8L77.2582 179.285L76.4518 179.345C76.4776 179.696 76.4432 180.013 76.3489 180.321L76.2116 180.21L74.3501 182.454C73.1749 183.122 71.6394 183.576 70.0181 183.705C67.0242 183.936 64.3907 181.777 64.0904 178.891L67.8649 175.464L67.8563 175.456ZM175.798 182.411C174.949 181.692 174.365 180.741 174.091 179.696L177.488 164.389C177.574 168.543 179.341 172.595 182.497 175.456L186.169 178.788C185.208 181.135 182.317 183.499 179.727 183.696C178.294 183.799 176.896 183.354 175.806 182.411H175.798ZM179.744 154.204L180.036 152.893L180.113 152.962L179.744 154.195V154.204ZM155.33 82.2246L152.585 79.8176L140.575 69.5299L109.83 67.9795L97.6404 78.4213L91.6527 83.6722C95.1441 70.1381 108.552 59.4051 123.556 59.4051C138.559 59.4051 151.684 69.1188 155.321 82.2246H155.33ZM40.0967 137.997L102.153 83.5951L112.232 74.9607L137.899 76.2542L148.098 84.9914L210.137 139.385C212.625 141.646 213.74 144.944 213.122 148.216L212.307 152.516L152.593 100.17L140.584 89.8825L109.839 88.3321L97.6489 98.7739L37.9693 151.094L37.1544 146.794C36.5367 143.531 37.6519 140.224 40.0967 138.006V137.997ZM48.7952 211.895V195.457C48.7952 193.744 49.5244 192.099 50.794 190.943L58.5488 183.893C60.3588 187.362 63.7816 189.821 67.7619 190.412C64.1676 195.089 62.023 200.828 61.7485 206.721L60.9765 223.091C56.6272 219.69 52.5611 215.938 48.7952 211.895ZM95.2041 240.736V209.814L107.059 218.97C112.455 223.134 118.726 225.215 124.988 225.215C131.25 225.215 137.967 222.988 143.457 218.542L155.15 209.085V240.325C145.482 243.323 135.196 244.951 124.482 244.951C113.768 244.951 104.46 243.477 95.1955 240.745L95.2041 240.736ZM188.648 222.568L187.79 203.92C187.559 198.918 185.671 194.044 182.463 190.198L182.412 190.138C185.886 189.204 189.317 186.746 191.393 183.533L199.56 190.951C200.829 192.108 201.559 193.753 201.559 195.466V210.353C197.604 214.782 193.289 218.868 188.648 222.568ZM204.184 185.88L187.121 170.385C184.719 168.209 183.767 164.791 184.694 161.69L185.774 158.041L209.622 179.43C211.921 181.486 213.259 184.433 213.294 187.517L212.65 195.526C211.321 197.676 209.914 199.774 208.43 201.822V195.466C208.43 191.825 206.886 188.33 204.184 185.88Z" fill="#010101"/>
<path d="M168.741 139.87L144.661 142.346C142.285 142.44 140.535 143.288 139.042 145.113L134.719 152.034C139.137 152.162 139.531 156.531 143.417 156.171C147.972 155.752 152.982 155.897 158.129 149.935L165.704 143.605L171.752 138.269L168.741 139.862V139.87ZM158.532 145.729L153.548 149.901C150.16 153.824 146.857 153.73 143.855 154.004C141.29 154.235 141.032 151.366 138.124 151.28L140.972 146.723C141.959 145.515 143.108 144.959 144.67 144.899L160.531 143.271L162.513 142.217L158.532 145.729Z" fill="#010101"/>
<path d="M106.979 142.345L82.8997 139.869L79.8887 138.276L85.9364 143.613L93.5111 149.943C98.6581 155.905 103.668 155.759 108.223 156.179C112.109 156.53 112.512 152.17 116.921 152.042L112.598 145.12C111.105 143.287 109.355 142.448 106.979 142.353V142.345ZM107.142 154.003C104.14 153.729 100.846 153.823 97.4486 149.9L92.4646 145.728L88.4842 142.216L90.4658 143.27L106.327 144.898C107.888 144.958 109.047 145.514 110.024 146.722L112.872 151.279C109.964 151.365 109.698 154.243 107.142 154.003Z" fill="#010101"/>
<g clip-path="url(#clip2_113_2169)">
<path d="M100.591 192.181V188.031H97.5312V188.721V188.741V188.761V188.781V188.811V188.831V188.851V188.871V188.891V188.911V188.931V188.951V188.971V188.991V189.041V189.061V189.091V189.111V189.131V189.151V189.171V189.221V189.241V189.261V189.281V189.301V189.331V189.351V189.371V189.391V189.411V189.431V189.451V189.471V189.491V189.511V189.531V189.551V189.571V189.591V189.611V189.631V189.651V189.671V189.691V189.741V189.761V189.781V189.801V189.821V189.851V189.871V189.891V189.911V189.931V189.951V189.971V189.991V190.011V190.031V190.051V190.071V190.091V190.111V190.131V190.151V190.171V190.191V190.241V190.261V190.281V190.301V190.321V190.371V190.391V190.411V190.431V190.451V190.471V190.491V190.511V190.531V190.551V190.571V190.591V190.611V190.631V190.651V190.671V190.691V190.711V190.761V190.781V190.801V190.821V190.841V190.871V190.891V190.911V190.931V190.951V190.981V191.001V191.021V191.041V191.061V191.081V191.101V191.121V191.141V191.161V191.181V191.201V191.221V191.261V191.281V191.301V191.321V191.391V191.411V191.501V191.521V191.591V191.611V191.651V191.821V191.901V191.981V192.031V192.111V192.241V192.311V192.421V192.451V192.531V192.661V192.741V192.851V192.871V192.951V192.971V193.081V193.161V193.291V193.371V193.391V193.501V193.581V193.601V193.791V193.811V193.901V194.001V194.021V194.211V194.231V194.341V194.421V194.441V194.571V194.591V194.611V194.631V194.651V194.671V194.711V194.731V194.751V194.771V194.791V194.811V194.831V194.851V194.871V194.891V194.911V194.931V194.951V194.971V194.991V195.011V195.031V195.051V195.071V195.091V195.111V195.131V195.151V195.171V195.191V195.211V195.231V195.251V195.271V195.291V195.311V195.331V195.351V195.371V195.391V195.411V195.431V195.451V195.471V195.491V195.511V195.531V195.551V195.571V195.591V195.611V195.631V195.651V195.671V195.691V195.711V195.731V195.751V195.771V195.791V195.811V195.831V195.851V195.871V195.891V195.911V195.931V195.951V195.971V195.991V196.011V196.031V196.051V196.071V196.091V196.111V196.131V196.151V196.171V196.191V196.211V196.231V196.251V196.271V196.291V196.311V196.331V196.351V196.371V196.391V196.411V196.431V196.451V196.471V196.491V196.511V196.531V196.551V196.571V196.591V196.611V196.631V196.651V196.671V196.691V196.711V196.731V196.751V196.771V196.791V196.811V196.831V196.851V196.871V196.891V196.911V196.931V196.951V196.971V196.991V197.011V197.031V197.051V197.071V197.091V197.111V197.131V197.151V197.171V197.191V197.211V197.231V197.971H98.7312V197.251V197.231V197.211V197.191V197.171V197.151V197.131V197.111V197.091V197.071V197.051V197.031V197.011V196.991V196.971V196.951V196.931V196.911V196.891V196.871V196.851V196.831V196.811V196.791V196.771V196.751V196.731V196.711V196.691V196.671V196.651V196.631V196.611V196.591V196.571V196.551V196.531V196.511V196.491V196.471V196.451V196.431V196.411V196.391V196.371V196.351V196.331V196.311V196.291V196.271V196.251V196.231V196.211V196.191V196.171V196.151V196.131V196.111V196.091V196.071V196.051V196.031V196.011V195.991V195.971V195.951V195.931V195.911V195.891V195.871V195.851V195.831V195.811V195.791V195.771V195.751V195.731V195.711V195.691V195.671V195.651V195.631V195.611V195.591V195.571V195.551V195.531V195.511V195.491V195.471V195.451V195.431V195.411V195.391V195.371V195.351V195.331V195.311V195.291V195.271V195.251V195.231V195.211V195.191V195.171V195.151V195.131V195.111V195.091V195.071V195.051V195.031V195.011V194.991V194.971V194.951V194.931V194.911V194.891V194.871V194.851V194.831V194.811V194.791V194.771V194.751V194.731V194.691V194.671V194.651V194.631V194.611V194.591V194.451V194.431V194.341V194.241V194.221V194.031V194.011V193.951C98.9112 194.191 99.1712 194.381 99.4812 194.461C99.6712 194.581 99.8913 194.661 100.131 194.661C100.841 194.661 101.421 194.081 101.421 193.371C101.421 192.831 101.081 192.371 100.601 192.181H100.591Z" fill="#010101"/>
<path d="M106.683 192.181H106.673V188.031H104.543V193.141C104.543 193.771 104.973 194.301 105.563 194.461C105.753 194.581 105.973 194.661 106.213 194.661C106.923 194.661 107.503 194.081 107.503 193.371C107.503 192.831 107.163 192.371 106.683 192.181Z" fill="#010101"/>
<path d="M103.182 191.344C102.942 191.344 102.722 191.424 102.532 191.544C101.942 191.704 101.512 192.234 101.512 192.864V197.974H103.642V193.824C104.122 193.634 104.462 193.174 104.462 192.634C104.462 191.924 103.882 191.344 103.172 191.344H103.182Z" fill="#010101"/>
<path d="M112.67 192.181V188.031H110.54V192.541C110.51 191.851 109.95 191.301 109.26 191.301C109.02 191.301 108.8 191.381 108.61 191.501C108.02 191.661 107.59 192.191 107.59 192.821V197.931H109.72V193.781C110.18 193.601 110.5 193.161 110.53 192.651V193.141C110.53 193.771 110.96 194.301 111.55 194.461C111.74 194.581 111.96 194.661 112.2 194.661C112.91 194.661 113.49 194.081 113.49 193.371C113.49 192.831 113.15 192.371 112.67 192.181Z" fill="#010101"/>
<path d="M118.771 192.181V188.031H116.641V193.141C116.641 193.771 117.071 194.301 117.661 194.461C117.851 194.581 118.071 194.661 118.311 194.661C119.021 194.661 119.601 194.081 119.601 193.371C119.601 192.831 119.261 192.371 118.781 192.181H118.771Z" fill="#010101"/>
<path d="M115.26 191.344C115.02 191.344 114.8 191.424 114.61 191.544C114.02 191.704 113.59 192.234 113.59 192.864V197.974H115.72V193.824C116.2 193.634 116.54 193.174 116.54 192.634C116.54 191.924 115.96 191.344 115.25 191.344H115.26Z" fill="#010101"/>
<path d="M124.75 192.181H124.74V188.031H122.61V192.541C122.58 191.851 122.02 191.301 121.33 191.301C121.09 191.301 120.87 191.381 120.68 191.501C120.09 191.661 119.66 192.191 119.66 192.821V197.931H121.79V193.781H121.8C122.26 193.601 122.58 193.161 122.61 192.651V193.141C122.61 193.771 123.04 194.301 123.63 194.461C123.82 194.581 124.04 194.661 124.28 194.661C124.99 194.661 125.57 194.081 125.57 193.371C125.57 192.831 125.23 192.371 124.75 192.181Z" fill="#010101"/>
<path d="M130.853 192.181V188.031H128.723V193.141C128.723 193.771 129.153 194.301 129.743 194.461C129.933 194.581 130.153 194.661 130.393 194.661C131.103 194.661 131.683 194.081 131.683 193.371C131.683 192.831 131.343 192.371 130.863 192.181H130.853Z" fill="#010101"/>
<path d="M127.35 191.344C127.11 191.344 126.89 191.424 126.7 191.544C126.11 191.704 125.68 192.234 125.68 192.864V197.974H127.81V193.824H127.82C128.3 193.634 128.64 193.174 128.64 192.634C128.64 191.924 128.06 191.344 127.35 191.344Z" fill="#010101"/>
<path d="M136.842 192.181V188.031H134.712V192.541C134.682 191.851 134.122 191.301 133.432 191.301C133.192 191.301 132.972 191.381 132.782 191.501C132.192 191.661 131.762 192.191 131.762 192.821V197.931H133.892V193.781H133.902C134.362 193.601 134.682 193.161 134.712 192.651V193.141C134.712 193.771 135.142 194.301 135.732 194.461C135.922 194.581 136.142 194.661 136.382 194.661C137.092 194.661 137.672 194.081 137.672 193.371C137.672 192.831 137.332 192.371 136.852 192.181H136.842Z" fill="#010101"/>
<path d="M142.941 192.181H142.931V188.031H140.801V193.141C140.801 193.771 141.231 194.301 141.821 194.461C142.011 194.581 142.231 194.661 142.471 194.661C143.181 194.661 143.761 194.081 143.761 193.371C143.761 192.831 143.421 192.371 142.941 192.181Z" fill="#010101"/>
<path d="M139.432 191.344C139.192 191.344 138.972 191.424 138.782 191.544C138.192 191.704 137.762 192.234 137.762 192.864V197.974H139.892V193.824C140.372 193.634 140.712 193.174 140.712 192.634C140.712 191.924 140.132 191.344 139.422 191.344H139.432Z" fill="#010101"/>
<path d="M145.502 191.305C145.262 191.305 145.042 191.385 144.852 191.505C144.262 191.665 143.832 192.195 143.832 192.825V197.935H145.962V193.785C146.442 193.595 146.782 193.135 146.782 192.595C146.782 191.885 146.202 191.305 145.492 191.305H145.502Z" fill="#010101"/>
<g clip-path="url(#clip3_113_2169)">
<path d="M151.921 188.297H147.512V189.497V189.534V189.572V189.6V189.619V189.638V189.666V189.703V189.741V189.778V189.816V189.853V189.891V189.938V189.975V190.013V190.05V190.088V190.125V190.2V190.238V190.275V190.313V190.341V190.378V190.416V190.453V190.472V190.491V190.519V190.556V190.594V190.631V190.669V190.706V191.822H148.236C148.236 191.822 148.199 191.906 148.181 191.953V192.534C148.529 193.003 148.612 193.584 148.658 194.156C148.676 194.109 148.694 194.053 148.713 194.006C148.731 193.978 148.74 193.95 148.758 193.922H148.768C148.768 193.922 148.786 193.894 148.804 193.875C148.841 193.819 148.878 193.772 148.923 193.725C148.887 193.772 148.841 193.819 148.804 193.875C148.804 193.894 148.777 193.913 148.768 193.931C148.749 193.959 148.74 193.988 148.722 194.016C148.703 194.063 148.685 194.109 148.667 194.166V194.184C148.612 194.325 148.575 194.484 148.557 194.681C148.529 194.944 148.493 195.328 148.465 195.769C148.419 196.378 148.373 197.119 148.337 197.841C148.3 198.478 148.263 199.116 148.236 199.641C148.208 200.222 148.181 200.681 148.172 200.888V201.159C148.172 201.159 148.172 201.244 148.19 201.291C148.227 201.534 148.328 201.891 148.557 202.181C148.786 202.472 149.143 202.697 149.712 202.697H149.73C150.289 202.697 150.656 202.481 150.885 202.2C151.068 201.975 151.178 201.713 151.233 201.488C151.27 201.338 151.288 201.197 151.298 201.112V200.972V200.878C151.288 200.672 151.261 200.222 151.233 199.631C151.206 199.106 151.169 198.469 151.133 197.831C151.087 197.109 151.041 196.369 151.004 195.759C150.968 195.319 150.94 194.934 150.913 194.672C150.894 194.466 150.848 194.306 150.793 194.166C150.793 194.269 150.784 194.372 150.793 194.475V194.166C150.793 193.922 150.821 193.678 150.876 193.434C151.041 192.684 151.398 192.544 151.206 191.822H151.948V188.297H151.921ZM150.179 192.919C150.179 193.144 150.005 193.322 149.785 193.322C149.565 193.322 149.391 193.144 149.391 192.919C149.391 193.134 149.565 193.313 149.785 193.313C150.005 193.313 150.179 193.134 150.179 192.909V192.919ZM150.033 193.453C149.932 193.434 149.822 193.425 149.721 193.425C149.831 193.425 149.932 193.425 150.033 193.453ZM149.079 193.594C149.217 193.5 149.354 193.463 149.464 193.444C149.345 193.463 149.208 193.509 149.079 193.594ZM150.784 201.45V201.609H150.766C150.537 201.966 150.152 202.2 149.721 202.2C149.327 202.2 148.969 202.003 148.74 201.703C148.969 201.994 149.318 202.191 149.712 202.191C150.143 202.191 150.537 201.956 150.757 201.609V201.478H150.775V201.441C150.775 201.338 150.766 201.15 150.748 200.916C150.757 201.159 150.766 201.356 150.775 201.45H150.784ZM150.528 194.531C150.528 194.981 150.17 195.347 149.73 195.347C149.73 195.347 149.73 195.347 149.721 195.347C150.161 195.347 150.509 194.981 150.509 194.531C150.509 194.513 150.5 194.494 150.5 194.475H148.933C148.96 194.053 149.299 193.716 149.721 193.716C150.143 193.716 150.482 194.053 150.509 194.475H150.518C150.518 194.475 150.528 194.513 150.528 194.531ZM150.418 193.641C150.418 193.641 150.463 193.669 150.482 193.688C150.482 193.688 150.436 193.659 150.418 193.641Z" fill="black"/>
</g>
</g>
</g>
</g>
<rect x="3.5" y="3.5" width="241" height="241" rx="120.5" stroke="black" stroke-width="7"/>
<defs>
<clipPath id="clip0_113_2169">
<rect width="248" height="248" rx="124" fill="white"/>
</clipPath>
<clipPath id="clip1_113_2169">
<rect width="196.444" height="221" fill="white" transform="translate(26 33)"/>
</clipPath>
<clipPath id="clip2_113_2169">
<rect width="59" height="18" fill="white" transform="translate(95 185)"/>
</clipPath>
<clipPath id="clip3_113_2169">
<rect width="11" height="15" fill="white" transform="translate(145 188)"/>
</clipPath>
</defs>
</svg>
