<svg width="248" height="248" viewBox="0 0 248 248" fill="none" xmlns="http://www.w3.org/2000/svg">
<g clip-path="url(#clip0_113_2239)">
<rect width="248" height="248" rx="124" fill="#AEFFD3"/>
<path d="M-134 236C-119.72 236 -119.72 251.889 -105.44 251.889C-91.1596 251.889 -91.1596 236 -76.8794 236C-62.5993 236 -62.5993 251.889 -48.3192 251.889C-34.039 251.889 -34.039 236 -19.7589 236C-5.47875 236 -5.47874 251.889 8.8014 251.889C23.0815 251.889 23.0815 236 37.3617 236C51.6418 236 51.6418 251.889 65.922 251.889C80.2021 251.889 80.2021 236 94.4822 236C108.762 236 108.762 251.889 123.043 251.889C137.323 251.889 137.323 236 151.603 236C165.883 236 165.883 251.889 180.173 251.889C194.463 251.889 194.453 236 208.743 236C223.033 236 223.023 251.889 237.313 251.889C251.603 251.889 251.594 236 265.884 236" stroke="#010101" stroke-width="7.94444" stroke-linecap="round" stroke-linejoin="round"/>
<path d="M-134 208C-119.72 208 -119.72 223.889 -105.44 223.889C-91.1596 223.889 -91.1596 208 -76.8794 208C-62.5993 208 -62.5993 223.889 -48.3192 223.889C-34.039 223.889 -34.039 208 -19.7589 208C-5.47875 208 -5.47874 223.889 8.8014 223.889C23.0815 223.889 23.0815 208 37.3617 208C51.6418 208 51.6418 223.889 65.922 223.889C80.2021 223.889 80.2021 208 94.4822 208C108.762 208 108.762 223.889 123.043 223.889C137.323 223.889 137.323 208 151.603 208C165.883 208 165.883 223.889 180.173 223.889C194.463 223.889 194.453 208 208.743 208C223.033 208 223.023 223.889 237.313 223.889C251.603 223.889 251.594 208 265.884 208" stroke="#010101" stroke-width="7.94444" stroke-linecap="round" stroke-linejoin="round"/>
<path d="M-134 180C-119.72 180 -119.72 195.889 -105.44 195.889C-91.1596 195.889 -91.1596 180 -76.8794 180C-62.5993 180 -62.5993 195.889 -48.3192 195.889C-34.039 195.889 -34.039 180 -19.7589 180C-5.47875 180 -5.47874 195.889 8.8014 195.889C23.0815 195.889 23.0815 180 37.3617 180C51.6418 180 51.6418 195.889 65.922 195.889C80.2021 195.889 80.2021 180 94.4822 180C108.762 180 108.762 195.889 123.043 195.889C137.323 195.889 137.323 180 151.603 180C165.883 180 165.883 195.889 180.173 195.889C194.463 195.889 194.453 180 208.743 180C223.033 180 223.023 195.889 237.313 195.889C251.603 195.889 251.594 180 265.884 180" stroke="#010101" stroke-width="7.94444" stroke-linecap="round" stroke-linejoin="round"/>
<path d="M79.9 196.659L74.05 171H173.05L169.9 196.659L187 225.469C180.1 232.672 157.84 247.257 124 247.977C90.16 248.698 67.9 232.072 61 223.669L79.9 196.659Z" fill="#AEFFD3"/>
<path d="M187.382 19.9046C184.815 26.6282 177.283 29.9956 170.56 27.428C163.836 24.8603 160.469 17.3288 163.036 10.6053" fill="#7DA7D8"/>
<path d="M187.382 19.9046C184.815 26.6282 177.283 29.9956 170.56 27.428C163.836 24.8603 160.469 17.3288 163.036 10.6053" stroke="#010101" stroke-width="6.30588" stroke-miterlimit="10"/>
<path d="M195.848 36.9252L189.641 31.4629" stroke="#010101" stroke-width="5.51765" stroke-miterlimit="10" stroke-linecap="round"/>
<path d="M179.976 45.1664L178.875 36.9714" stroke="#010101" stroke-width="5.51765" stroke-miterlimit="10" stroke-linecap="round"/>
<path d="M162.235 41.0042L165.123 33.2579" stroke="#010101" stroke-width="5.51765" stroke-miterlimit="10" stroke-linecap="round"/>
<path d="M144.498 28.7559L152.061 25.4116" stroke="#010101" stroke-width="5.51765" stroke-miterlimit="10" stroke-linecap="round"/>
<path d="M142.6 13.0415L150.841 13.6741" stroke="#010101" stroke-width="5.51765" stroke-miterlimit="10" stroke-linecap="round"/>
<g clip-path="url(#clip1_113_2239)">
<path d="M152.639 129.258L163.729 133.217L152.729 123.392C151.889 122.639 150.673 122.335 149.556 122.586C133.221 126.356 133.185 129.563 133.185 129.563L129.11 137.901L149.574 129.321C150.521 128.927 151.63 128.9 152.639 129.258Z" fill="#010101"/>
<path d="M98.718 128.434L118.395 138.976L115.035 130.163C115.035 130.163 115.268 126.912 99.2989 121.618C98.2176 121.26 96.9755 121.457 96.0729 122.147L84.2861 131.112L95.6708 128.094C96.7074 127.816 97.8066 127.942 98.718 128.425V128.434Z" fill="#010101"/>
<path d="M170.041 140.44L143.527 143.171C140.909 143.279 138.987 144.21 137.343 146.234L132.58 153.883C137.441 154.027 137.879 158.854 142.16 158.46C147.182 158.003 152.695 158.156 158.361 151.573L166.698 144.577L173.356 138.684L170.032 140.449L170.041 140.44ZM157.959 147.211L152.883 151.474C149.434 155.487 146.074 155.388 143.018 155.666C140.408 155.907 140.14 152.97 137.182 152.88L140.078 148.223C141.078 146.987 142.249 146.423 143.84 146.36L159.978 144.694L161.998 143.619L157.95 147.211H157.959Z" fill="#010101"/>
<path d="M111.069 146.237C109.424 144.212 107.494 143.281 104.885 143.173L78.3711 140.442L75.0469 138.677L81.7043 144.571L90.0418 151.566C95.7073 158.158 101.221 157.996 106.243 158.453C110.523 158.847 110.961 154.02 115.823 153.876L111.06 146.228L111.069 146.237ZM105.385 155.668C102.329 155.39 98.969 155.48 95.5196 151.476L90.4439 147.213L86.3958 143.621L88.4154 144.696L104.554 146.362C106.145 146.425 107.315 146.998 108.316 148.225L111.212 152.882C108.254 152.972 107.986 155.91 105.376 155.668H105.385Z" fill="#010101"/>
<path d="M125.814 185.569C130.675 185.569 134.634 181.601 134.634 176.729H127.485C127.485 177.651 126.735 178.403 125.814 178.403C124.894 178.403 124.143 177.651 124.143 176.729H116.994C116.994 181.601 120.953 185.569 125.814 185.569Z" fill="#010101"/>
<path d="M125.107 203.878C131.943 203.878 137.493 200.035 137.493 195.306H112.722C112.722 200.044 118.262 203.878 125.107 203.878Z" fill="#010101"/>
<path d="M203.488 135.085C203.417 135.004 203.336 134.933 203.256 134.861L200.494 132.452C204.239 128.099 205.293 120.36 201.084 116.348L184.901 100.925L185.455 100.952C186.411 82.5012 181.818 67.7767 171.791 57.199C158.003 42.6357 137.664 39.5815 123.027 39.5815C104.145 39.5815 87.7468 46.1108 76.8625 57.9693C66.7021 69.0395 61.948 84.391 63.0472 102.429L48.2221 116.554C44.0042 120.575 43.7093 126.863 47.5429 131.18C47.7395 131.395 47.954 131.592 48.1953 131.762L48.5795 132.031L45.3357 134.87C45.2553 134.942 45.1748 135.013 45.1033 135.094C43.5127 136.76 42.7889 139.017 43.1016 141.292C43.3965 143.432 44.5672 145.304 46.3455 146.487L49.5714 149.433C49.5089 149.496 49.4374 149.55 49.3748 149.621C47.7842 151.287 47.0604 153.544 47.3731 155.819C47.6859 158.094 48.9995 160.074 50.9833 161.247L56.6846 164.615C59.3744 171.018 62.7523 177.145 66.0676 179.017C69.9191 181.193 72.7608 181.936 74.8161 182.035L76.9697 189.979C73.6812 195.085 56.7561 222.456 54.7187 225.752L60.7953 229.522C66.7914 219.823 75.0485 206.495 79.731 199.008C80.2404 200.244 80.8034 201.453 81.4289 202.617V243.369H88.5778V212.012C89.0693 212.469 89.5697 212.917 90.0791 213.347L105.673 226.226C111.32 230.893 117.88 233.213 124.439 233.213C130.998 233.213 138.022 230.714 143.768 225.743L162.435 209.594C162.811 209.272 163.177 208.94 163.534 208.6V240.306H170.683V199.034C170.71 198.99 170.728 198.945 170.755 198.9C175.089 206.513 182.765 220.235 188.011 229.666L194.257 226.173C191.281 220.835 177.305 195.747 173.999 190.23C174.213 189.361 174.41 188.484 174.571 187.597L175.589 182.008C177.6 181.829 180.317 181.041 183.9 179.017C187.51 176.975 190.691 170.329 193.042 163.943L197.599 161.247C199.574 160.083 200.888 158.103 201.2 155.819C201.513 153.544 200.78 151.278 199.199 149.621C199.136 149.559 199.074 149.496 199.002 149.433L202.228 146.487C204.006 145.295 205.177 143.423 205.472 141.292C205.785 139.017 205.052 136.751 203.47 135.094L203.488 135.085ZM198.251 140.539C198.037 140.665 197.84 140.808 197.662 140.978L193.56 144.722L154.643 111.171C152.212 108.986 150.818 105.86 150.818 102.582V88.0721L157.771 88.0542V96.1061C157.771 101.417 160.031 106.496 164.008 110.06L198.368 140.101C198.394 140.145 198.421 140.217 198.403 140.307C198.385 140.459 198.287 140.522 198.251 140.539ZM55.0314 144.713L50.9297 140.969C50.751 140.808 50.5544 140.656 50.3399 140.53C50.3042 140.513 50.2059 140.45 50.188 140.298C50.1791 140.208 50.197 140.136 50.2238 140.092L55.4961 135.479C56.3987 135.309 57.2297 134.798 57.7838 133.983C57.9714 133.706 58.0965 133.41 58.2038 133.106L84.6102 110.016C88.551 106.478 90.8119 101.399 90.8119 96.0882V88.2244L97.7642 88.2065V102.564C97.7642 105.842 96.3702 108.968 93.9931 111.108L55.0225 144.713H55.0314ZM91.4999 81.0681C92.5455 77.2437 94.3685 73.885 96.9689 71.0189C102.76 64.6598 112.411 61.0145 123.447 61.0145C135.814 61.0145 145.805 64.3911 151.587 70.5174C154.259 73.3476 156.1 76.8228 157.1 80.889L91.5089 81.0681H91.4999ZM195.115 127.741L168.753 104.695C166.323 102.51 164.928 99.3842 164.928 96.1061V91.7622L169.271 95.927L196.16 121.552C197.099 122.447 196.697 125.887 195.115 127.75V127.741ZM82.117 62.8237C91.634 52.461 106.164 46.7468 123.018 46.7468C136.252 46.7468 154.554 49.4158 166.6 62.1341C174.168 70.1233 178.127 81.0771 178.404 94.7448L174.195 90.7412L164.946 81.8653C164.821 81.7399 164.678 81.6414 164.535 81.5339C163.445 75.2554 160.854 69.9173 156.779 65.5913C147.628 55.8824 133.598 53.8403 123.447 53.8403C110.409 53.8403 98.8365 58.3365 91.6876 66.1824C87.5948 70.6696 84.9765 76.2137 83.8863 82.5101L75.1021 90.9293L70.0353 95.7568C70.3123 82.34 74.3514 71.2787 82.117 62.8148V62.8237ZM52.6455 126.128C51.6446 124.749 51.8233 122.994 53.137 121.749L80.0348 96.1241L83.4395 92.8549C83.4574 93.1236 83.4753 93.3834 83.4931 93.6521L83.654 93.6342V96.0972C83.654 99.3753 82.2599 102.501 79.8651 104.66L54.1289 127.158L52.6276 126.128H52.6455ZM69.5795 172.774C67.1399 171.368 61.7693 159.545 59.2672 150.517L64.9238 145.636L72.7072 174.279C71.8761 173.965 70.8485 173.49 69.5795 172.774ZM157.771 204.176L139.103 220.324C130.533 227.74 118.934 227.892 110.23 220.7L94.6365 207.821C89.9808 203.979 86.5225 198.309 84.8782 191.807L70.9289 140.459L98.7114 116.5C102.652 112.962 104.913 107.884 104.913 102.573V88.1975L143.66 88.0901V102.573C143.66 107.884 145.921 112.953 149.916 116.545L176.134 139.151L167.547 186.307C166.233 193.508 162.757 199.85 157.762 204.176H157.771ZM180.397 172.774C178.985 173.571 177.868 174.064 176.992 174.377L182.425 144.57L189.682 150.83C187.251 160.486 182.658 171.484 180.397 172.774Z" fill="#010101"/>
</g>
<path d="M-23.3972 64.2137C-27.5853 64.2137 -31.5277 65.2805 -35.068 67.1362C-37.86 42.2679 -57.2033 23 -80.6788 23C-96.2919 23 -110.085 31.5339 -118.394 44.568C-121.286 41.8012 -125.072 40.1122 -129.216 40.1122C-138.318 40.1122 -145.7 48.1905 -145.7 58.1578C-145.7 60.3357 -145.331 62.4136 -144.684 64.3471C-145.398 64.2804 -146.124 64.2248 -146.861 64.2248C-161.849 64.2248 -174 77.5257 -174 93.9379C-174 110.35 -161.849 123.651 -146.861 123.651H-23.3972C-8.40956 123.651 3.74141 110.35 3.74141 93.9379C3.74141 77.5257 -8.40956 64.2248 -23.3972 64.2248V64.2137Z" fill="white" stroke="#010101" stroke-width="8.26667" stroke-miterlimit="10"/>
<path d="M382.099 154.913H259.884C225.414 154.913 296.492 156 312 156M308.209 75C300.279 75 293.233 79.919 289.669 87.2559C274.579 88.1105 262.333 101.211 260.687 117.833C258.644 118.938 256.893 120.574 255.611 122.565C247.253 124.68 241 132.872 241 142.637C241 153.996 249.462 163.24 259.874 163.24H382.089C394.782 163.24 405.11 151.829 405.11 137.812C405.11 123.794 395.387 113.05 383.204 112.414C380.473 103.951 373.105 97.8756 364.455 97.8756C363.497 97.8756 362.538 97.9486 361.589 98.1049C355.388 88.0375 345.186 81.8887 333.857 81.8887C330.647 81.8887 327.479 82.3994 324.436 83.379C320.559 78.189 314.692 75 308.209 75Z" fill="white"/>
<path d="M308.209 83.3373C314.181 83.3373 319.173 88.1417 320.517 94.6136C324.394 91.831 328.959 90.2261 333.857 90.2261C344.602 90.2261 353.773 97.9798 357.514 108.933C359.442 107.234 361.85 106.213 364.455 106.213C370.823 106.213 375.992 112.226 375.992 119.647C375.992 120.605 375.898 121.533 375.742 122.429C377.67 121.345 379.817 120.73 382.099 120.73C390.207 120.73 396.783 128.38 396.783 137.822C396.783 147.264 390.207 154.913 382.099 154.913H259.884C254.069 154.913 249.348 149.421 249.348 142.647C249.348 135.873 254.069 130.381 259.884 130.381C260.478 130.381 261.051 130.454 261.614 130.558C261.645 127.286 263.938 124.638 266.752 124.638C267.607 124.638 268.388 124.899 269.097 125.326C268.951 124.117 268.847 122.898 268.847 121.647C268.847 107.245 278.872 95.562 291.253 95.562C292.765 95.562 294.244 95.7392 295.683 96.0727C296.537 88.8921 301.821 83.3478 308.23 83.3478M308.209 75C300.279 75 293.233 79.919 289.669 87.2559C274.579 88.1105 262.333 101.211 260.687 117.833C258.644 118.938 256.893 120.574 255.611 122.565C247.253 124.68 241 132.872 241 142.637C241 153.996 249.462 163.24 259.874 163.24H382.089C394.782 163.24 405.11 151.829 405.11 137.812C405.11 123.794 395.387 113.05 383.204 112.414C380.473 103.951 373.105 97.8756 364.455 97.8756C363.497 97.8756 362.538 97.9486 361.589 98.1049C355.388 88.0375 345.186 81.8887 333.857 81.8887C330.647 81.8887 327.479 82.3994 324.436 83.379C320.559 78.189 314.692 75 308.209 75Z" fill="#010101"/>
</g>
<rect x="3.5" y="3.5" width="241" height="241" rx="120.5" stroke="black" stroke-width="7"/>
<defs>
<clipPath id="clip0_113_2239">
<rect width="248" height="248" rx="124" fill="white"/>
</clipPath>
<clipPath id="clip1_113_2239">
<rect width="168" height="206" fill="white" transform="translate(40 37)"/>
</clipPath>
</defs>
</svg>
