<svg width="96" height="96" viewBox="0 0 96 96" fill="none" xmlns="http://www.w3.org/2000/svg">
<g clip-path="url(#clip0_113_2434)">
<rect width="96" height="96" rx="48" fill="white"/>
<g clip-path="url(#clip1_113_2434)">
<path d="M51.3296 50.3429L59.0733 45.8014C59.4326 45.5925 59.8746 45.5241 60.2914 45.6177L64.9125 46.6513L60.0363 43.2299C59.6626 42.967 59.1631 42.9057 58.7319 43.0678C52.4004 45.4412 52.5406 46.745 52.5406 46.745" fill="#929292"/>
<path d="M45.0272 46.7508C45.0272 46.7508 45.171 45.4471 38.8359 43.0737C38.4046 42.9116 37.9052 42.9728 37.5315 43.2357L32.6553 46.6572L37.2763 45.6236C37.6968 45.5299 38.1387 45.5947 38.4945 45.8072L46.2382 50.3488" fill="#929292"/>
<path d="M48.5385 75.5771C51.2874 75.5771 53.5189 74.032 53.5189 72.1304H43.5581C43.5581 74.0356 45.786 75.5771 48.5385 75.5771Z" fill="#929292"/>
<path d="M48.5364 67.6963C50.4912 67.6963 52.083 66.1008 52.083 64.1416H49.2084C49.2084 64.5126 48.9065 64.8151 48.5364 64.8151C48.1663 64.8151 47.8644 64.5126 47.8644 64.1416H44.9897C44.9897 66.1008 46.5816 67.6963 48.5364 67.6963Z" fill="#929292"/>
<path d="M88.2955 70.4225C88.2955 69.1872 87.99 67.9807 87.4223 66.911L88.1697 62.9349C88.4751 61.325 88.202 59.7079 87.4259 58.3214L88.1697 54.3813C88.6189 52.0151 87.8175 49.6272 86.0101 47.9849L74.7952 38.1131H75.2372V32.1129C75.2372 25.288 72.3769 18.834 67.1809 13.9395C61.9849 9.04503 55.1179 6.35107 47.8378 6.35107C40.5576 6.35107 33.7302 9.17108 28.4768 14.2961C23.367 19.2806 20.4384 25.9723 20.4384 32.6568V38.7722H20.7654L10.9591 47.4015C9.19477 49.0078 8.37548 51.4496 8.81747 53.7798L9.56129 57.7343C8.7995 59.1209 8.51562 60.756 8.81747 62.3335L9.60082 66.4897L9.88829 66.4356C8.77075 67.779 8.14551 69.4825 8.14551 71.2509L8.33236 73.2678C8.32877 73.3038 8.31799 73.3398 8.31799 73.3794C8.28924 73.8908 8.34674 74.3987 8.48328 74.8849L8.50844 75.1694L8.56952 75.1622C8.68811 75.4971 8.84621 75.8177 9.04025 76.1166C17.402 88.9201 31.8401 97.3981 48.2151 97.3981C62.0819 97.3981 74.5544 91.3187 83.1318 81.6846H83.3797V81.4037C84.9177 79.6497 86.3263 77.7805 87.5947 75.8069C88.0044 75.1694 88.2344 74.4311 88.2559 73.6711C88.2811 72.6951 88.2667 71.8632 88.238 71.1465L88.2883 70.5378V70.4225H88.2955ZM35.9078 76.0265C34.3052 74.6075 33.1122 72.6663 32.5229 70.4838L27.6108 54.2444L32.99 49.4003C35.0454 47.596 36.224 44.9848 36.224 42.2405V37.5513L38.8652 35.2283L43.0874 31.5979L53.8387 32.1417L58.1112 35.8153L60.2169 37.6665V41.4121C60.2169 44.1565 61.3955 46.764 63.4402 48.5612L69.0386 53.5997L66.1028 66.893H66.0705C66.0705 66.9254 66.0777 66.9543 66.0813 66.9831L65.7758 68.3589L65.7687 68.3949C65.2476 71.0816 63.8606 73.455 61.8663 75.0757L54.3597 81.1695C50.8957 83.986 46.2028 84.0436 42.6813 81.31L36.4109 76.4479C36.2528 76.3255 36.1055 76.1922 35.9581 76.0626V76.0229H35.9114L35.9078 76.0265ZM13.6434 73.7108V77.1754C12.7989 76.0554 12.0012 74.8885 11.261 73.6855L11.0238 71.1825C11.0418 69.8895 11.5987 68.6542 12.5618 67.7898L23.2053 58.2097L23.5862 59.5063C23.9743 60.81 23.5718 62.247 22.5657 63.1618L15.4185 69.677C14.2902 70.7071 13.6398 72.1765 13.6398 73.7072L13.6434 73.7108ZM11.6418 61.7968C11.3831 60.4247 11.8503 59.0345 12.8744 58.1017L33.3529 40.0831V42.2441C33.3529 44.1565 32.5301 45.9789 31.0855 47.2466L12.1198 64.3215L11.6454 61.7968H11.6418ZM24.5025 65.2975C25.7817 64.1306 26.5148 62.5027 26.5974 60.8172L28.4408 66.9074L28.103 66.9326C28.1138 67.0803 28.0994 67.2136 28.0599 67.3432L28.0024 67.2964L27.2227 68.24C26.7304 68.5209 26.0872 68.7118 25.408 68.7658C24.1539 68.8631 23.0508 67.9555 22.925 66.7418L24.5061 65.3011L24.5025 65.2975ZM26.9532 73.0625L29.1523 70.4117C29.2493 70.3397 29.3392 70.2641 29.4326 70.1884L29.756 71.2545C30.374 73.5379 31.5311 75.6196 33.0834 77.2871V91.7797C30.0075 90.6236 27.1005 89.129 24.4055 87.3354L24.8187 78.58C24.9121 76.5704 25.6739 74.6111 26.9568 73.0625H26.9532ZM63.9432 77.089C65.8908 75.4179 67.3497 73.1813 68.1547 70.6494C68.1834 70.6711 68.2086 70.6927 68.2373 70.7107L68.169 70.7683L70.2999 73.3362C71.2449 74.4743 71.8019 75.9185 71.8702 77.3951L72.3194 87.1517C69.7142 88.9129 66.9114 90.3931 63.9432 91.5528V77.0854V77.089ZM69.7178 68.222C69.362 67.9195 69.1177 67.5197 69.0027 67.0803L70.4257 60.6444C70.4616 62.3911 71.2018 64.0946 72.5242 65.2975L74.0621 66.6985C73.6597 67.6854 72.4487 68.6794 71.3635 68.7622C70.7634 68.8055 70.1777 68.6182 69.7214 68.222H69.7178ZM71.3707 56.3621L71.4929 55.8111L71.5252 55.8399L71.3707 56.3585V56.3621ZM65.3482 46.4075C63.9145 45.1469 63.0916 43.3281 63.0916 41.4157V40.1984L84.0984 58.6851C85.1405 59.6359 85.6076 61.0225 85.3489 62.3983L85.0255 64.1234L65.3482 46.4075ZM23.3167 32.6532C23.3167 19.9577 34.5459 9.22871 47.8414 9.22871C61.1368 9.22871 72.3661 19.4931 72.3661 32.1093V35.9702L64.4427 28.9976C64.2846 20.4943 56.9002 13.619 47.8414 13.619C38.7825 13.619 31.2508 20.9157 31.2329 29.5594L23.3167 36.5248V32.6496V32.6532ZM61.144 26.0983L59.9941 25.0863L54.9634 20.7609L42.0848 20.109L36.9786 24.4993L34.4705 26.707C35.933 21.0166 41.5494 16.5038 47.8342 16.5038C54.119 16.5038 59.6168 20.588 61.1404 26.0983H61.144ZM12.8744 49.548L38.8688 26.6746L43.091 23.0442L53.8423 23.5881L58.1148 27.2616L84.102 50.1314C85.1441 51.0823 85.6112 52.4688 85.3525 53.8446L85.0111 55.6526L59.9977 33.6436L54.967 29.3181L42.0884 28.6662L36.9822 33.0565L11.9832 55.0548L11.6418 53.2468C11.3831 51.8746 11.8503 50.4844 12.8744 49.5516V49.548ZM16.518 80.6185V73.7072C16.518 72.9868 16.8235 72.2953 17.3553 71.8091L20.6037 68.8451C21.3619 70.3037 22.7956 71.3373 24.463 71.5858C22.9573 73.5523 22.059 75.9653 21.944 78.4432L21.6206 85.3257C19.7988 83.8959 18.0955 82.3184 16.518 80.6185ZM35.9581 92.7449V79.7433L40.9242 83.5934C43.1844 85.3437 45.8111 86.2189 48.4343 86.2189C51.0574 86.2189 53.871 85.2825 56.1708 83.4133L61.0685 79.4372V92.572C57.0188 93.8326 52.7104 94.5169 48.2223 94.5169C43.7342 94.5169 39.8354 93.8974 35.9545 92.7485L35.9581 92.7449ZM75.1006 85.106L74.7413 77.2655C74.6443 75.1622 73.8537 73.1129 72.5098 71.4958L72.4883 71.4706C73.9436 71.078 75.3809 70.0444 76.2505 68.6938L79.6714 71.8127C80.2032 72.299 80.5086 72.9904 80.5086 73.7108V79.9702C78.8521 81.8322 77.0446 83.5502 75.1006 85.106ZM81.6082 69.6806L74.461 63.1654C73.4549 62.2506 73.056 60.8136 73.4441 59.5099L73.8969 57.9756L83.8864 66.9687C84.8494 67.833 85.41 69.072 85.4243 70.3685L85.1548 73.736C84.5979 74.64 84.0086 75.5223 83.3869 76.3831V73.7108C83.3869 72.1801 82.7401 70.7107 81.6082 69.6806Z" fill="#929292"/>
<path d="M66.761 50.3366L56.6745 51.3774C55.6791 51.417 54.9461 51.7736 54.3208 52.5407L52.5098 55.4508C54.3603 55.5048 54.5256 57.3416 56.1534 57.1903C58.0615 57.0138 60.16 57.0751 62.316 54.5684L65.489 51.9068L68.0223 49.6631L66.761 50.333V50.3366Z" fill="#929292"/>
<path d="M40.8898 51.3767L30.8033 50.3359L29.542 49.666L32.0753 51.9098L35.2483 54.5713C37.4043 57.078 39.5028 57.0168 41.4109 57.1932C43.0387 57.3409 43.2076 55.5077 45.0545 55.4537L43.2435 52.5437C42.6182 51.7729 41.8852 51.42 40.8898 51.3804V51.3767Z" fill="#929292"/>
</g>
</g>
<rect x="1.35484" y="1.35484" width="93.2903" height="93.2903" rx="46.6452" stroke="#929292" stroke-width="2.70968"/>
<defs>
<clipPath id="clip0_113_2434">
<rect width="96" height="96" rx="48" fill="white"/>
</clipPath>
<clipPath id="clip1_113_2434">
<rect width="82.4516" height="92.129" fill="white" transform="translate(6.96777 6.19336)"/>
</clipPath>
</defs>
</svg>
