<svg width="96" height="96" viewBox="0 0 96 96" fill="none" xmlns="http://www.w3.org/2000/svg">
<g clip-path="url(#clip0_113_2490)">
<rect width="96" height="96" rx="48" fill="white"/>
<g clip-path="url(#clip1_113_2490)">
<path d="M51.9877 53.7963L57.3025 46.9113C57.5498 46.5934 57.9222 46.3716 58.3308 46.3042L62.8589 45.553L57.2363 44.2554C56.8052 44.1554 56.334 44.2818 56.0052 44.5838C51.1741 49.0116 51.7725 50.1299 51.7725 50.1299" fill="#929292"/>
<path d="M43.6399 50.1363C43.6399 50.1363 44.2415 49.0193 39.4073 44.5902C39.0784 44.2883 38.6073 44.1618 38.1761 44.2618L32.5535 45.5594L37.0816 46.3106C37.4934 46.3793 37.8672 46.5979 38.11 46.9177L43.4248 53.8027" fill="#929292"/>
<path d="M48.1301 67.448C50.0251 67.448 51.5683 65.9048 51.5683 64.0098H48.7815C48.7815 64.3686 48.4889 64.6612 48.1301 64.6612C47.7713 64.6612 47.4787 64.3686 47.4787 64.0098H44.6919C44.6919 65.9048 46.2351 67.448 48.1301 67.448Z" fill="#929292"/>
<path d="M48.1484 75.0735C50.8133 75.0735 52.9766 73.579 52.9766 71.7397H43.3203C43.3203 73.5825 45.4801 75.0735 48.1484 75.0735Z" fill="#929292"/>
<path d="M86.4392 36.2421C87.8745 34.7268 88.188 32.5008 87.115 30.5048C86.7876 29.923 85.9411 28.986 84.7149 28.7874C84.37 28.1639 83.8789 27.6204 83.2553 27.2129C83.217 27.1885 83.1752 27.1606 83.1369 27.1397C82.0326 26.4569 80.7402 26.2514 79.4966 26.558C78.7407 26.7461 78.0579 27.1084 77.4936 27.6169C76.3266 26.5684 74.6894 26.1156 73.1114 26.4709C72.1395 15.355 61.1351 6.48952 47.5181 5.98093V5.95654C47.3126 5.95654 47.107 5.96699 46.9015 5.97048C46.696 5.96699 46.4905 5.95654 46.2849 5.95654V5.98093C32.6819 6.48952 21.6844 15.3376 20.6951 26.4395C20.2074 26.6416 19.7581 26.9202 19.3679 27.2721C18.1661 26.1887 16.4557 25.7393 14.8324 26.1574C13.8919 26.4012 13.1011 26.969 12.6064 27.7598C12.4671 27.9792 12.3626 28.1987 12.2894 28.4147C11.1469 28.6794 10.1436 29.3552 9.4713 30.3585C9.44343 30.3968 9.41904 30.4386 9.39118 30.4804C8.67706 31.616 8.45411 32.9397 8.76763 34.2077C8.95574 34.9636 9.31802 35.6429 9.82661 36.2038C9.14733 36.9214 8.67009 37.8236 8.49243 38.7746C8.26949 39.9555 8.51682 41.1016 9.19262 42.0143C9.56535 42.596 10.5407 43.4982 12.1431 43.749C12.4845 44.5259 13.0419 45.2051 13.7874 45.6963C13.8222 45.7207 13.8605 45.7416 13.8953 45.766L11.8018 48.2567C11.0319 49.0474 10.593 50.1447 10.593 51.2838V57.4044C9.66986 58.8291 9.30409 60.5813 9.62457 62.2708L10.384 66.2908L10.6627 66.2385C9.57928 67.5379 8.97316 69.1856 8.97316 70.896L9.1543 72.8467C9.15081 72.8815 9.14036 72.9164 9.14036 72.9547C9.1125 73.4494 9.16823 73.9405 9.3006 74.4108L9.32499 74.686L9.38421 74.679C9.49916 75.003 9.65244 75.313 9.84055 75.6022C17.9467 87.986 31.9434 96.1862 47.8177 96.1862C63.692 96.1862 77.9151 87.8571 85.9899 75.3026C86.387 74.686 86.6099 73.9719 86.6308 73.2369C86.6552 72.2928 86.6413 71.4882 86.6134 70.7949L86.6622 70.2062V70.0947C86.6657 68.8999 86.3696 67.7329 85.8227 66.6983L86.5472 62.8525C86.8085 61.4766 86.6308 60.0936 86.0665 58.8639H86.3103V51.984C86.3103 50.8205 85.8505 49.7023 85.0528 48.9081L82.576 46.602C82.8164 46.508 83.0533 46.3965 83.2832 46.2641C83.9485 45.9158 84.9309 45.031 85.0389 43.655C85.7321 43.2997 86.3382 42.7702 86.7911 42.0944L86.8677 41.9759C87.5818 40.8403 87.8048 39.5166 87.4913 38.2486C87.3031 37.4962 86.9409 36.8169 86.4358 36.256L86.4392 36.2421ZM76.6123 29.7837C76.8004 30.0972 77.1418 30.2888 77.5075 30.2888H77.511C77.8803 30.2888 78.2182 30.0902 78.4063 29.7767C78.7616 29.1741 79.3294 28.7526 80.0017 28.5854C80.6949 28.4147 81.4195 28.5331 82.0465 28.9198L82.1127 28.9616C82.8269 29.4319 83.2344 30.2296 83.1961 31.0935C83.1613 31.933 82.7119 32.6645 81.9943 33.0512L77.8071 35.3225L75.4383 30.9367C74.8845 29.9126 73.9648 29.1741 72.8675 28.8397C73.0487 28.7003 73.2577 28.5888 73.4946 28.5296C74.6789 28.2231 75.9922 28.7526 76.6158 29.7907L76.6123 29.7837ZM79.2737 68.2206L72.345 61.919C71.3696 61.0342 70.983 59.6442 71.3592 58.3832L71.7215 57.1605L82.3984 66.7506C83.332 67.5866 83.8754 68.785 83.8893 70.039L83.6281 73.2961C82.8164 74.6059 81.942 75.8669 81.0015 77.0792V72.1256C81.0015 70.6451 80.3745 69.2239 79.2772 68.2276L79.2737 68.2206ZM35.8867 75.5081C34.333 74.1356 33.1765 72.258 32.6052 70.147L27.8433 54.4399L33.0581 49.7546C35.0506 48.0094 36.1932 45.4838 36.1932 42.8294V38.2172L38.4018 36.27C38.8163 37.1199 39.4573 37.855 40.2829 38.3984C40.3281 38.4297 40.3734 38.4576 40.4257 38.489C41.7529 39.3076 43.3065 39.5584 44.801 39.1891C45.7903 38.9453 46.6751 38.4471 47.3787 37.7504C48.483 38.8443 49.9635 39.4399 51.4614 39.4399C52.4403 39.4399 53.4261 39.1857 54.3179 38.6562C55.1226 38.2381 56.3279 37.1443 56.394 35.4409C56.4184 35.4304 56.4428 35.4165 56.4637 35.4061L59.4491 38.0674V42.0212C59.4491 44.6756 60.5917 47.1977 62.5738 48.936L68.0011 53.8094L65.1551 66.667H65.1237C65.1237 66.6983 65.1307 66.7262 65.1342 66.7541L64.8381 68.0848L64.8311 68.1196C64.326 70.7183 62.9813 73.0139 61.048 74.5815L53.771 80.4756C50.4129 83.1997 45.8634 83.2554 42.4496 80.6114L36.3709 75.9087C36.2176 75.7903 36.0748 75.6614 35.932 75.536V75.4977H35.8867V75.5081ZM14.3029 73.2682V76.6193C13.4843 75.536 12.711 74.4073 11.9934 73.2438L11.7634 70.8228C11.7809 69.5722 12.3208 68.3774 13.2544 67.5413L23.5725 58.2752L23.9418 59.5293C24.318 60.7903 23.9278 62.1802 22.9524 63.065L16.0238 69.3667C14.9299 70.363 14.2994 71.7842 14.2994 73.2647L14.3029 73.2682ZM12.3626 61.7448C12.1118 60.4176 12.5646 59.073 13.5574 58.1707L33.4064 40.6766V42.8329C33.4064 44.6826 32.6087 46.4453 31.2083 47.6715L12.8224 64.1867L12.3626 61.7448ZM36.35 32.7307C36.3291 32.6959 36.3047 32.6611 36.2803 32.6262C35.6777 31.8389 35.6846 30.9646 35.7996 30.3654C36.0121 29.2437 36.7506 28.2057 37.7747 27.5856C38.0917 27.394 38.2833 27.0491 38.2798 26.6799C38.2764 26.3106 38.0778 25.9693 37.7573 25.7846C36.9282 25.3039 36.3465 24.534 36.1166 23.6109C35.8762 22.6425 36.0504 21.6253 36.6043 20.7475L36.667 20.6499C37.3637 19.6119 38.5307 19.0301 39.7812 19.0859C40.9447 19.1416 41.9584 19.7582 42.4879 20.7405L45.6022 26.4987L40.6068 29.2054C39.0044 30.0728 37.9907 31.6787 37.8688 33.5215L37.6249 33.2428L37.3219 33.5075C36.6461 33.1696 36.3604 32.7412 36.3465 32.7238L36.35 32.7307ZM56.6936 19.9219C56.6971 19.8313 56.6936 19.7442 56.6936 19.6537C57.0176 19.9254 57.2022 20.2284 57.2022 20.2284C58.2368 22.1513 57.6586 24.2832 55.7984 25.4084C55.4814 25.6 55.2898 25.9449 55.2933 26.3141C55.2967 26.6834 55.4953 27.0248 55.8158 27.2094C56.6449 27.6901 57.2266 28.46 57.4565 29.3831C57.6969 30.3515 57.5227 31.3687 56.9653 32.25L56.9026 32.3441C56.2059 33.3821 55.039 33.9639 53.7884 33.9081C52.6249 33.8524 51.6112 33.2358 51.0817 32.2535L48.4308 27.3522L53.9417 24.3668C55.5789 23.4785 56.6065 21.8204 56.6867 19.9254L56.6936 19.9219ZM66.7714 33.6678C66.7888 33.9639 66.8271 34.2635 66.9003 34.5561C67.0884 35.312 67.4507 35.9913 67.9593 36.5521C67.28 37.2697 66.8062 38.172 66.6251 39.1195C66.5206 39.6733 66.5241 40.2202 66.6251 40.7393L58.5956 33.5737C58.613 33.5493 58.6305 33.525 58.6479 33.5006C58.6792 33.4518 58.7106 33.4065 58.7419 33.3578C59.6024 31.9922 59.8706 30.4003 59.4909 28.8745C59.247 27.8852 58.7489 27.0039 58.0487 26.3002C58.1114 26.2375 58.1706 26.1713 58.2299 26.1086L66.7749 33.6643L66.7714 33.6678ZM54.1472 35.9913C53.8894 36.5103 53.4157 36.7786 53.346 36.8134C53.3216 36.8273 53.2972 36.8413 53.2728 36.8552C51.5729 37.8828 49.3295 37.2906 48.2705 35.5349C48.0824 35.2214 47.741 35.0298 47.3753 35.0298H47.3683C46.999 35.0298 46.6611 35.2284 46.473 35.5454C45.9888 36.364 45.2155 36.9423 44.2959 37.1687C43.3518 37.4021 42.366 37.2419 41.523 36.7228L41.4254 36.6601C40.4466 36.0157 39.8892 34.9253 39.9415 33.7409C39.9902 32.5914 40.6103 31.5847 41.5961 31.0482L46.5915 28.3415L49.2389 33.2428C50.1203 34.8731 51.7819 35.9007 53.6839 35.9913C53.7779 35.9948 53.8685 35.9982 53.9626 35.9982C54.0218 35.9982 54.081 35.9948 54.1437 35.9913H54.1472ZM52.9523 22.5241L47.4415 25.5094L44.3307 19.7512C43.5957 18.3926 42.3172 17.4521 40.8089 17.1281C41.1154 16.7484 41.5439 16.4628 42.056 16.3304C43.6549 15.9124 45.435 16.6335 46.2849 18.0373C46.473 18.3508 46.8144 18.5529 47.1837 18.5424C47.5529 18.5424 47.8908 18.3439 48.0789 18.0269C48.5631 17.2082 49.3365 16.63 50.2561 16.4036C51.2001 16.1702 52.186 16.3304 53.0255 16.8494L53.1265 16.9122C54.1054 17.5566 54.6628 18.6469 54.6105 19.8313C54.5617 20.9809 53.9417 21.9876 52.9558 22.5241H52.9523ZM34.7127 25.6348C34.9427 26.0215 35.2178 26.3768 35.5348 26.6973C34.6187 27.5926 33.9777 28.7491 33.7443 29.9788C33.4761 31.4 33.7757 32.776 34.5943 33.8663C34.7127 34.044 35.0611 34.5073 35.6881 34.9567L29.2088 40.6661C29.5363 39.7744 29.5955 38.8164 29.3656 37.8898C29.1775 37.1339 28.8152 36.4581 28.3101 35.8972C29.599 34.5317 29.9787 32.5949 29.2645 30.7695L34.7093 25.6348H34.7127ZM27.1257 31.1179C27.1466 31.1457 27.1605 31.1666 27.1605 31.1666C27.9269 32.5914 27.4984 34.1659 26.1224 34.995C25.8054 35.1866 25.6138 35.5315 25.6173 35.9007C25.6208 36.27 25.8194 36.6113 26.1398 36.796C26.7495 37.1478 27.1744 37.7121 27.3417 38.3879C27.5158 39.0986 27.3904 39.851 26.9794 40.4989L26.9341 40.5721C26.422 41.335 25.5651 41.7634 24.6489 41.7182C23.785 41.6764 23.0674 41.2374 22.6772 40.5163L20.6742 36.8099L24.8649 34.5387C26.1503 33.842 26.9724 32.5774 27.1292 31.1213L27.1257 31.1179ZM24.83 65.1308C26.0702 64.0021 26.7808 62.4276 26.8609 60.7973L28.6445 66.6774L28.1951 66.7123C28.209 66.883 28.1777 67.0397 28.122 67.186L27.5716 67.8479C27.0281 68.2346 26.2374 68.4401 25.6417 68.4854C25.06 68.5272 24.4921 68.3425 24.0497 67.9628C23.6213 67.5936 23.3565 67.0885 23.3008 66.5276L24.8335 65.1342L24.83 65.1308ZM27.2058 72.6412L29.5119 69.8683C29.5397 69.8474 29.5606 69.8195 29.5885 69.7986L29.9194 70.896C30.5186 73.1045 31.6403 75.118 33.1452 76.7308V90.7484C30.1633 89.6302 27.3451 88.1846 24.7325 86.4498L25.1331 77.9814C25.2237 76.0376 25.9622 74.1426 27.2058 72.6447V72.6412ZM63.065 76.5357C64.953 74.9194 66.3673 72.7561 67.1476 70.3072C67.1755 70.3281 67.1999 70.349 67.2277 70.3665L67.1615 70.4222L69.2273 72.9059C70.1434 74.0067 70.6834 75.4036 70.7496 76.8318L71.185 86.2686C68.6595 87.9721 65.9423 89.4038 63.065 90.5255V76.5323V76.5357ZM69.4084 68.3809C69.1367 68.2938 68.8859 68.151 68.6629 67.9594C68.3181 67.6667 68.0812 67.2801 67.9697 66.8551L69.0357 62.0374C69.3771 62.762 69.8578 63.4273 70.4674 63.9812L72.9546 66.242C72.6829 67.2661 71.394 68.3948 70.2549 68.4819C69.9658 68.5028 69.6766 68.468 69.4084 68.3809ZM83.8162 62.3231L83.5027 63.9917L64.427 46.8563C63.0371 45.6371 62.2394 43.8779 62.2394 42.0282V40.5616L82.6039 58.7316C83.6141 59.6477 84.067 60.9924 83.8162 62.3231ZM69.917 41.8401C69.3353 41.5962 69.0984 41.2444 69.0914 41.2374C69.0705 41.2026 69.0461 41.1678 69.0217 41.1329C68.5898 40.5686 68.5968 39.9381 68.6804 39.5061C68.8371 38.6875 69.398 37.8968 70.1504 37.4404C70.4674 37.2488 70.659 36.904 70.6555 36.5347C70.652 36.1655 70.4535 35.8241 70.133 35.6394C69.5234 35.2876 69.0984 34.7233 68.9312 34.0475C68.757 33.3369 68.8824 32.5844 69.2934 31.9365L69.3387 31.8633C69.8508 31.1004 70.7043 30.6755 71.6239 30.7173C72.4878 30.7591 73.2054 31.198 73.5956 31.9191L75.9678 36.3048L72.1882 38.3531C70.8854 39.0568 70.0563 40.3491 69.917 41.8331V41.8401ZM30.3688 14.5573C34.8172 10.924 40.6695 8.8792 46.9085 8.75031C53.1474 8.8792 59.0032 10.924 63.4481 14.5573C67.9384 18.2254 70.4082 23.0222 70.4082 28.0663H70.7635C70.7635 28.0663 70.7461 28.0907 70.7356 28.1046C70.5998 28.3241 70.4918 28.5436 70.4186 28.7595C69.2865 29.0243 68.2832 29.6931 67.6109 30.6894L59.6128 23.6144C59.9786 22.2106 59.8114 20.6639 59.0345 19.2147C58.6374 18.5076 57.5959 17.3615 56.0875 17.1699C55.673 16.3722 55.0529 15.679 54.2691 15.1634L54.1263 15.0729C52.7991 14.2508 51.2454 14.0034 49.751 14.3727C48.7582 14.6165 47.8769 15.1147 47.1697 15.8148C45.7171 14.3901 43.5643 13.777 41.53 14.303C40.4152 14.5921 39.4782 15.2679 38.8895 16.205C38.6979 16.5081 38.562 16.8111 38.4784 17.1107C37.0467 17.3998 35.7787 18.2359 34.9392 19.4865C34.9078 19.5352 34.8765 19.584 34.8416 19.6362C34.232 20.6047 33.929 21.6845 33.9324 22.7749L33.8175 22.653L27.4044 28.6968C27.157 28.5784 26.8853 28.4913 26.5927 28.4425C26.2478 27.819 25.7567 27.2756 25.1296 26.8645L25.0182 26.7914C24.5479 26.5022 24.0428 26.3037 23.5237 26.1887C24.0602 21.8413 26.4429 17.7691 30.3688 14.5608V14.5573ZM15.3619 28.1743C16.5463 27.8678 17.8596 28.3973 18.4831 29.4353C18.6712 29.7488 19.0126 29.9404 19.3784 29.9404H19.3853C19.7546 29.9404 20.0925 29.7419 20.2806 29.4249C20.6359 28.8222 21.2002 28.4007 21.876 28.2335C22.5693 28.0628 23.2938 28.1813 23.9174 28.5645L23.987 28.6097C24.7012 29.08 25.1052 29.8777 25.0704 30.7416C25.0356 31.5812 24.5862 32.3127 23.8686 32.6994L19.678 34.9706L17.3092 30.5849C16.7553 29.5607 15.8357 28.8222 14.7383 28.4878C14.9195 28.3485 15.1285 28.237 15.3654 28.1778L15.3619 28.1743ZM10.9622 40.8891C10.9413 40.8542 10.9169 40.8194 10.8926 40.7846C10.4606 40.2203 10.4676 39.5897 10.5512 39.1613C10.7079 38.3426 11.2688 37.5519 12.0212 37.0956C12.3382 36.904 12.5298 36.5591 12.5263 36.1898C12.5228 35.8206 12.3243 35.4792 12.0038 35.2946C11.3942 34.9427 10.9692 34.3784 10.802 33.7026C10.6278 32.992 10.7532 32.2395 11.1643 31.5916L11.2096 31.5185C11.7216 30.7556 12.5681 30.3271 13.4947 30.3724C14.3586 30.4142 15.0762 30.8531 15.4664 31.5742L17.8387 35.9599L14.0591 38.0082C12.7562 38.7119 11.9272 40.0043 11.7878 41.4848C11.2061 41.2409 10.9692 40.8891 10.9622 40.8821V40.8891ZM15.0553 39.851L18.8349 37.8027L20.838 41.5057C21.566 42.8573 22.9385 43.7072 24.5096 43.7978C24.3633 43.9476 24.2204 44.0347 24.1926 44.0521C24.1682 44.066 24.1438 44.0765 24.1194 44.0939C22.8688 44.8463 21.2211 44.4109 20.4408 43.1185C20.2527 42.805 19.9113 42.6134 19.5456 42.6134H19.5386C19.1694 42.6134 18.8315 42.812 18.6434 43.129C18.288 43.7316 17.7237 44.1531 17.0479 44.3203C16.3547 44.491 15.6301 44.3726 15.0031 43.9859L14.9369 43.9441C14.2228 43.4738 13.8152 42.6761 13.8535 41.8122C13.8884 40.9727 14.3377 40.2411 15.0553 39.8545V39.851ZM13.8152 50.1796L16.7623 46.6856L16.5184 46.4801C16.8598 46.4731 17.2047 46.4313 17.5461 46.3477C18.302 46.1596 18.9813 45.7973 19.5421 45.2922C20.3816 46.0551 21.4476 46.4836 22.5449 46.5428L13.3833 54.6176V51.2804C13.3833 50.8554 13.54 50.4548 13.8187 50.1831L13.8152 50.1796ZM17.0897 79.9496V73.2647C17.0897 72.568 17.3858 71.8992 17.9014 71.4289L21.0435 68.569C21.3326 69.1333 21.7332 69.6454 22.2314 70.0704C22.9664 70.7009 23.8477 71.091 24.7848 71.2199C23.3287 73.1184 22.4613 75.4524 22.3498 77.8455L22.0363 84.5025C20.2701 83.1196 18.619 81.5938 17.0897 79.9496ZM35.9355 91.6785V79.1031L40.7496 82.8269C42.9408 84.5199 45.4872 85.3664 48.0302 85.3664C50.5731 85.3664 53.3007 84.4607 55.5301 82.6528L60.2782 78.807V91.5113C56.3522 92.7305 52.1755 93.3924 47.8246 93.3924C43.4737 93.3924 39.6941 92.7932 35.932 91.682L35.9355 91.6785ZM73.8812 84.29L73.5329 76.7064C73.4388 74.6721 72.6724 72.6899 71.3696 71.1259L71.3487 71.1015C72.8327 70.7009 74.2992 69.6175 75.1213 68.2137L77.3961 70.2829C77.9116 70.7531 78.2077 71.422 78.2077 72.1187V80.3188C76.8561 81.7401 75.4105 83.0708 73.8777 84.29H73.8812ZM83.5305 51.9736V55.8263L73.2403 46.6438C74.0275 46.8703 74.8601 46.8946 75.6752 46.6961C76.3859 46.5219 77.0268 46.184 77.5668 45.7242L83.109 50.8902C83.3772 51.1654 83.5305 51.559 83.5305 51.9771V51.9736ZM79.3573 43.5818L78.9776 43.9894C78.8243 43.8326 78.685 43.6619 78.5665 43.4634C78.3749 43.1499 78.044 42.9478 77.6678 42.9583C77.2985 42.9583 76.9606 43.1568 76.7725 43.4738C76.4172 44.0765 75.8494 44.498 75.1771 44.6652C74.4839 44.8359 73.7593 44.7174 73.1323 44.3308L73.0661 44.289C72.352 43.8187 71.9444 43.021 71.9827 42.1571C72.0175 41.3176 72.4669 40.586 73.1845 40.1994L76.9641 38.1511L78.9671 41.854C79.6952 43.2056 81.0677 44.0556 82.6387 44.1462C82.4924 44.2959 82.3496 44.383 82.3217 44.4004C82.2974 44.4144 82.273 44.4248 82.2486 44.4423C81.7574 44.7383 81.2035 44.8498 80.6636 44.7976L79.3608 43.5853L79.3573 43.5818ZM84.2655 37.1443C84.8751 37.4962 85.3001 38.0605 85.4673 38.7363C85.6415 39.4469 85.5161 40.1993 85.1051 40.8473L85.0598 40.9204C84.5477 41.6833 83.6942 42.1118 82.7746 42.0665C81.9107 42.0247 81.1931 41.5858 80.8029 40.8647L78.7999 37.1583L82.9906 34.887C84.276 34.1903 85.0981 32.9258 85.2548 31.4697C85.2757 31.4976 85.2897 31.5185 85.2897 31.5185C86.0561 32.9397 85.6276 34.5143 84.2516 35.3468C83.9346 35.5384 83.743 35.8833 83.7465 36.2525C83.75 36.6218 83.9485 36.9632 84.269 37.1478L84.2655 37.1443Z" fill="#929292"/>
<path d="M65.1373 50.4361L55.3592 51.4428C54.3942 51.4811 53.6836 51.826 53.0775 52.568L51.3218 55.3827C53.1158 55.4349 53.276 57.2115 54.854 57.0652C56.7038 56.8945 58.7381 56.9537 60.8282 54.5292L63.9042 51.9549L66.36 49.7847L65.1373 50.4326V50.4361ZM60.4223 52.9652L58.7228 53.7205C57.0234 54.5292 56.6458 54.7344 55.3592 54.8534C54.3803 54.944 53.9414 55.1632 52.8301 55.1284L54.191 54.9163C54.7575 54.6741 55.1352 54.8723 55.7016 54.6835L58.5471 53.7585L61.3926 52.4465L62.152 51.6553L60.9887 52.568L60.4223 52.9652Z" fill="#929292"/>
<path d="M40.0566 51.4423L30.2784 50.4355L29.0557 49.7876L31.5115 51.9578L34.5875 54.5321C36.6776 56.9566 38.7119 56.8974 40.5617 57.0681C42.1397 57.2109 42.3034 55.4378 44.0939 55.3856L42.3383 52.5709C41.7321 51.8254 41.0215 51.4841 40.0566 51.4457V51.4423ZM39.652 55.0079C38.5059 54.9034 38.3302 54.8534 36.4616 53.85L34.5561 53.0098L33.0338 51.6652L34.5561 52.958L36.4394 53.6644L39.0855 54.8723C39.6847 54.8967 40.2185 54.674 40.785 54.9192L42.3557 55.1383C41.2444 55.1696 41.0354 55.095 40.0566 55.0079H39.652Z" fill="#929292"/>
</g>
</g>
<rect x="1.35484" y="1.35484" width="93.2903" height="93.2903" rx="46.6452" stroke="#929292" stroke-width="2.70968"/>
<defs>
<clipPath id="clip0_113_2490">
<rect width="96" height="96" rx="48" fill="white"/>
</clipPath>
<clipPath id="clip1_113_2490">
<rect width="80.8172" height="90.9194" fill="white" transform="translate(7.7417 5.80664)"/>
</clipPath>
</defs>
</svg>
