<svg width="96" height="96" viewBox="0 0 96 96" fill="none" xmlns="http://www.w3.org/2000/svg">
<g clip-path="url(#clip0_2054_15246)">
<rect width="96" height="96" rx="48" fill="white"/>
<path d="M6.1936 91.355C11.7214 91.355 11.7214 97.5055 17.2492 97.5055C22.777 97.5055 22.777 91.355 28.3048 91.355C33.8326 91.355 33.8326 97.5055 39.3604 97.5055C44.8882 97.5055 44.8882 91.355 50.416 91.355C55.9438 91.355 55.9438 97.5055 61.4716 97.5055C66.9994 97.5055 66.9994 91.355 72.5272 91.355C78.055 91.355 78.0549 97.5055 83.5827 97.5055C89.1105 97.5055 89.1105 91.355 94.6383 91.355C100.166 91.355 100.166 97.5055 105.694 97.5055C111.222 97.5055 111.222 91.355 116.75 91.355C122.277 91.355 122.277 97.5055 127.809 97.5055C133.341 97.5055 133.337 91.355 138.868 91.355C144.4 91.355 144.396 97.5055 149.928 97.5055C155.459 97.5055 155.456 91.355 160.987 91.355" stroke="#929292" stroke-width="3.07527" stroke-linecap="round" stroke-linejoin="round"/>
<path d="M6.1936 80.5161C11.7214 80.5161 11.7214 86.6667 17.2492 86.6667C22.777 86.6667 22.777 80.5161 28.3048 80.5161C33.8326 80.5161 33.8326 86.6667 39.3604 86.6667C44.8882 86.6667 44.8882 80.5161 50.416 80.5161C55.9438 80.5161 55.9438 86.6667 61.4716 86.6667C66.9994 86.6667 66.9994 80.5161 72.5272 80.5161C78.055 80.5161 78.0549 86.6667 83.5827 86.6667C89.1105 86.6667 89.1105 80.5161 94.6383 80.5161C100.166 80.5161 100.166 86.6667 105.694 86.6667C111.222 86.6667 111.222 80.5161 116.75 80.5161C122.277 80.5161 122.277 86.6667 127.809 86.6667C133.341 86.6667 133.337 80.5161 138.868 80.5161C144.4 80.5161 144.396 86.6667 149.928 86.6667C155.459 86.6667 155.456 80.5161 160.987 80.5161" stroke="#929292" stroke-width="3.07527" stroke-linecap="round" stroke-linejoin="round"/>
<path d="M6.1936 69.6772C11.7214 69.6772 11.7214 75.8278 17.2492 75.8278C22.777 75.8278 22.777 69.6772 28.3048 69.6772C33.8326 69.6772 33.8326 75.8278 39.3604 75.8278C44.8882 75.8278 44.8882 69.6772 50.416 69.6772C55.9438 69.6772 55.9438 75.8278 61.4716 75.8278C66.9994 75.8278 66.9994 69.6772 72.5272 69.6772C78.055 69.6772 78.0549 75.8278 83.5827 75.8278C89.1105 75.8278 89.1105 69.6772 94.6383 69.6772C100.166 69.6772 100.166 75.8278 105.694 75.8278C111.222 75.8278 111.222 69.6772 116.75 69.6772C122.277 69.6772 122.277 75.8278 127.809 75.8278C133.341 75.8278 133.337 69.6772 138.868 69.6772C144.4 69.6772 144.396 75.8278 149.928 75.8278C155.459 75.8278 155.456 69.6772 160.987 69.6772" stroke="#929292" stroke-width="3.07527" stroke-linecap="round" stroke-linejoin="round"/>
<path d="M72.5352 -3.90782C71.5413 -1.30517 68.6259 -0.00163569 66.0233 -0.995561C63.4206 -1.98949 62.1171 -4.9049 63.111 -7.50755" fill="white"/>
<path d="M72.5352 -3.90782C71.5413 -1.30517 68.6259 -0.00163553 66.0233 -0.995561C63.4206 -1.98949 62.1171 -4.9049 63.111 -7.50755" stroke="#929292" stroke-width="2.44099" stroke-miterlimit="10"/>
<path d="M75.8125 2.68085L73.4094 0.566406" stroke="#929292" stroke-width="2.13586" stroke-miterlimit="10" stroke-linecap="round"/>
<path d="M69.6681 5.87098L69.2419 2.69873" stroke="#929292" stroke-width="2.13586" stroke-miterlimit="10" stroke-linecap="round"/>
<path d="M62.8008 4.25975L63.9188 1.2612" stroke="#929292" stroke-width="2.13586" stroke-miterlimit="10" stroke-linecap="round"/>
<path d="M55.9351 -0.481492L58.8629 -1.77609" stroke="#929292" stroke-width="2.13586" stroke-miterlimit="10" stroke-linecap="round"/>
<g clip-path="url(#clip1_2054_15246)">
<path d="M60.274 45.5466L65.0268 47.2353L60.3123 43.0442C59.9523 42.7233 59.4315 42.5934 58.9527 42.7004C51.9519 44.3088 51.9366 45.6765 51.9366 45.6765L50.1902 49.2334L58.9604 45.5734C59.3664 45.4053 59.8413 45.3938 60.274 45.5466Z" fill="#929292"/>
<path d="M29.6129 72.774L27.0968 61.7417H69.6774L68.3226 72.774L75.6774 85.1611C72.7097 88.2578 63.1355 94.5288 48.5807 94.8385C34.0258 95.1482 24.4516 87.9998 21.4839 84.3869L29.6129 72.774Z" fill="white"/>
<path d="M37.1651 45.1951L45.5983 49.6918L44.1583 45.9325C44.1583 45.9325 44.2579 44.5457 37.414 42.2878C36.9506 42.1349 36.4183 42.219 36.0315 42.5132L30.98 46.3375L35.8591 45.05C36.3034 44.9315 36.7744 44.985 37.1651 45.1913V45.1951Z" fill="#929292"/>
<path d="M67.7317 50.3162L56.3687 51.4814C55.2466 51.5273 54.4232 51.9246 53.7185 52.788L51.6772 56.0507C53.7607 56.1119 53.9483 58.1711 55.7828 58.003C57.9351 57.8082 60.2981 57.8731 62.7262 55.065L66.2994 52.0813L69.1526 49.5674L67.7279 50.32L67.7317 50.3162ZM62.7262 53.1005L60.774 54.775C59.8063 55.6228 57.6785 56.3985 56.3687 56.517C55.2504 56.6201 54.9172 55.661 53.6496 55.6228L56.1289 55.9363C56.7579 56.209 57.3826 55.6496 58.0643 55.6228L60.3869 54.3879L63.4194 52.1309L66.774 50.7105L62.55 53.2045L62.7262 53.1005Z" fill="#929292"/>
<path d="M42.4579 52.7889C41.7532 51.9255 40.926 51.5282 39.8077 51.4823L28.4447 50.3171L27.02 49.5645L29.8732 52.0783L33.4464 55.0621C35.8745 57.874 38.2375 57.8052 40.3898 58.0001C42.2243 58.1682 42.4119 56.1089 44.4953 56.0478L42.4541 52.7851L42.4579 52.7889ZM40.0183 56.5171C38.71 56.13 38.3229 56.3235 36.1939 54.7751L33.8713 53.2268L30.581 51.2913L32.7494 52.1318L38.71 55.6237C39.3917 55.6505 39.3529 55.9364 40.2584 55.9364L42.5192 55.6237C41.2515 55.6619 41.2262 56.5171 40.0183 56.5171Z" fill="#929292"/>
<path d="M48.7776 69.5662C50.861 69.5662 52.5576 67.8737 52.5576 65.7954H49.4937C49.4937 66.1889 49.172 66.5098 48.7776 66.5098C48.3831 66.5098 48.0614 66.1889 48.0614 65.7954H44.9976C44.9976 67.8737 46.6942 69.5662 48.7776 69.5662Z" fill="#929292"/>
<path d="M48.4746 77.3764C51.4044 77.3764 53.7827 75.7374 53.7827 73.7202H43.1665C43.1665 75.7412 45.541 77.3764 48.4746 77.3764Z" fill="#929292"/>
<path d="M82.0662 48.0322C82.0356 47.9978 82.0011 47.9672 81.9666 47.9367L80.7832 46.909C82.3879 45.0522 82.8398 41.7513 81.036 40.0397L74.1003 33.4609L74.3377 33.4723C74.7475 25.6022 72.779 19.3213 68.482 14.8093C62.5726 8.59722 53.856 7.29443 47.5828 7.29443C39.4905 7.29443 32.4628 10.0796 27.7981 15.1379C23.4436 19.86 21.4062 26.4083 21.8773 34.1027L15.5236 40.1276C13.716 41.843 13.5896 44.525 15.2326 46.3664C15.3168 46.4581 15.4087 46.5422 15.5121 46.6148L15.6768 46.7294L14.2866 47.9405C14.2522 47.9711 14.2177 48.0016 14.187 48.036C13.5053 48.7466 13.1951 49.7094 13.3292 50.6798C13.4556 51.5929 13.9573 52.3913 14.7194 52.8957L16.1019 54.1526C16.0751 54.1793 16.0445 54.2023 16.0177 54.2328C15.336 54.9434 15.0258 55.9062 15.1598 56.8766C15.2939 57.847 15.8568 58.6913 16.707 59.1918L19.1504 60.6283C20.3032 63.3599 21.7509 65.9731 23.1717 66.7716C24.8224 67.7 26.0402 68.0171 26.9211 68.0591L27.8441 71.4479C26.4347 73.6256 19.1811 85.3009 18.3079 86.7069L20.9122 88.3153C23.4819 84.1777 27.0207 78.4928 29.0275 75.2989C29.2458 75.8262 29.487 76.3419 29.7551 76.8386V94.2217H32.819V80.8463C33.0296 81.0411 33.2441 81.2321 33.4624 81.4155L40.1454 86.9094C42.5658 88.8998 45.3768 89.8893 48.1879 89.8893C50.999 89.8893 54.0092 88.8234 56.4717 86.703L64.4722 79.8147C64.633 79.6772 64.79 79.5358 64.9432 79.3907V92.9151H68.0071V75.3104C68.0185 75.2913 68.0262 75.2722 68.0377 75.2531C69.8951 78.5005 73.1849 84.3535 75.433 88.3764L78.11 86.8864C76.8347 84.6094 70.8449 73.9083 69.4279 71.5549C69.5198 71.1843 69.6041 70.8099 69.673 70.4316L70.1096 68.0477C70.9713 67.9712 72.1356 67.635 73.6713 66.7716C75.2185 65.9005 76.582 63.0658 77.5892 60.3418L79.5424 59.1918C80.3888 58.6951 80.9517 57.8508 81.0858 56.8766C81.2198 55.9062 80.9058 54.9396 80.2279 54.2328C80.2011 54.2061 80.1743 54.1793 80.1437 54.1526L81.5262 52.8957C82.2883 52.3875 82.79 51.589 82.9164 50.6798C83.0505 49.7094 82.7364 48.7428 82.0586 48.036L82.0662 48.0322ZM79.822 50.3589C79.73 50.4123 79.6458 50.4735 79.5692 50.5461L77.8113 52.143L61.1326 37.8315C60.0909 36.8993 59.4934 35.566 59.4934 34.1677V27.9785L62.473 27.9709V31.4055C62.473 33.671 63.442 35.8372 65.1462 37.3578L79.8717 50.1716C79.8832 50.1908 79.8947 50.2213 79.8871 50.2595C79.8794 50.3245 79.8373 50.3512 79.822 50.3589ZM18.4419 52.1392L16.6841 50.5422C16.6075 50.4735 16.5232 50.4085 16.4313 50.355C16.416 50.3474 16.3739 50.3206 16.3662 50.2557C16.3624 50.2175 16.37 50.1869 16.3815 50.1678L18.6411 48.2003C19.0279 48.1277 19.3841 47.9099 19.6215 47.5623C19.7019 47.4438 19.7556 47.3177 19.8015 47.1879L31.1185 37.3387C32.8075 35.8296 33.7764 33.6634 33.7764 31.3978V28.0434L36.756 28.0358V34.16C36.756 35.5583 36.1585 36.8917 35.1398 37.8048L18.4381 52.1392H18.4419ZM34.0713 24.9909C34.5194 23.3595 35.3007 21.9269 36.4151 20.7043C38.8968 17.9918 43.033 16.4368 47.7628 16.4368C53.0632 16.4368 57.3449 17.8772 59.8228 20.4904C60.9679 21.6976 61.7568 23.18 62.1858 24.9145L34.0751 24.9909H34.0713ZM78.4777 44.8994L67.1798 35.0693C66.1381 34.1371 65.5407 32.8038 65.5407 31.4055V29.5525L67.402 31.3291L78.9258 42.2594C79.3279 42.6415 79.1556 44.1086 78.4777 44.9032V44.8994ZM30.05 17.2086C34.1288 12.7883 40.356 10.3508 47.579 10.3508C53.2509 10.3508 61.0943 11.4893 66.2568 16.9144C69.5007 20.3223 71.1973 24.9947 71.316 30.8248L69.5122 29.117L65.5483 25.3309C65.4947 25.2774 65.4334 25.2354 65.3722 25.1895C64.9049 22.5114 63.7943 20.2344 62.0479 18.3891C58.1262 14.2477 52.1134 13.3766 47.7628 13.3766C42.1751 13.3766 37.2156 15.2945 34.1517 18.6413C32.3977 20.5553 31.2756 22.9202 30.8083 25.606L27.0436 29.1972L24.8722 31.2565C24.9909 25.5334 26.7219 20.8151 30.05 17.2048V17.2086ZM17.4194 44.2117C16.9904 43.6233 17.067 42.8745 17.63 42.3435L29.1577 31.4131L30.6168 30.0186C30.6245 30.1332 30.6322 30.244 30.6398 30.3587L30.7087 30.351V31.4016C30.7087 32.7999 30.1113 34.1333 29.0849 35.054L18.0551 44.6511L17.4117 44.2117H17.4194ZM24.6768 64.1087C23.6313 63.5089 21.3296 58.4659 20.2573 54.6149L22.6815 52.5327L26.0173 64.7506C25.6611 64.6169 25.2207 64.4144 24.6768 64.1087ZM62.473 77.5033L54.4726 84.3917C50.7998 87.555 45.8288 87.62 42.0985 84.5521L35.4156 79.0583C33.4202 77.4193 31.9381 75.0009 31.2334 72.2273L25.2551 50.3245L37.1619 40.1047C38.8509 38.5956 39.8198 36.4294 39.8198 34.1639V28.032L56.4258 27.9861V34.1639C56.4258 36.4294 57.3947 38.5918 59.1066 40.1238L70.3432 49.7667L66.6628 69.8815C66.0998 72.9531 64.61 75.658 62.4692 77.5033H62.473ZM72.17 64.1087C71.5649 64.4488 71.0862 64.6589 70.7109 64.7926L73.0394 52.0781L76.1492 54.7486C75.1075 58.8671 73.139 63.5586 72.17 64.1087Z" fill="#929292"/>
</g>
<path d="M67.5881 24.857C65.9669 24.857 64.4409 25.27 63.0704 25.9883C61.9896 16.3619 54.5019 8.90332 45.4146 8.90332C39.3709 8.90332 34.0317 12.2068 30.8153 17.2522C29.6956 16.1812 28.2301 15.5274 26.6262 15.5274C23.1028 15.5274 20.2452 18.6545 20.2452 22.5128C20.2452 23.3559 20.3878 24.1602 20.6386 24.9086C20.3619 24.8828 20.0809 24.8613 19.7956 24.8613C13.9939 24.8613 9.29028 30.01 9.29028 36.3631C9.29028 42.7162 13.9939 47.8649 19.7956 47.8649H67.5881C73.3898 47.8649 78.0934 42.7162 78.0934 36.3631C78.0934 30.01 73.3898 24.8613 67.5881 24.8613V24.857Z" fill="white" stroke="#929292" stroke-width="3.2" stroke-miterlimit="10"/>
<path d="M80.9416 59.9665H33.6325C20.289 59.9665 47.8033 60.3871 53.8064 60.3871M52.3391 29.0322C49.2691 29.0322 46.5419 30.9364 45.1622 33.7764C39.3207 34.1073 34.5805 39.1782 33.9431 45.6128C33.1524 46.0404 32.4747 46.6738 31.9785 47.4443C28.743 48.2633 26.3225 51.4341 26.3225 55.2142C26.3225 59.6115 29.5983 63.1898 33.6284 63.1898H80.9375C85.8512 63.1898 89.8491 58.7724 89.8491 53.3464C89.8491 47.9204 86.0852 43.7611 81.3692 43.515C80.3122 40.2392 77.4601 37.8873 74.1117 37.8873C73.7405 37.8873 73.3694 37.9155 73.0023 37.9761C70.6019 34.079 66.6524 31.6988 62.2673 31.6988C61.0247 31.6988 59.7983 31.8965 58.6203 32.2757C57.1196 30.2667 54.8484 29.0322 52.3391 29.0322Z" fill="white"/>
<path d="M52.3391 32.2596C54.6507 32.2596 56.5831 34.1194 57.1035 36.6246C58.6042 35.5475 60.3712 34.9262 62.2672 34.9262C66.4265 34.9262 69.9766 37.9276 71.4249 42.1676C72.1712 41.51 73.1031 41.1147 74.1117 41.1147C76.5766 41.1147 78.5775 43.4424 78.5775 46.3147C78.5775 46.6859 78.5412 47.0449 78.4807 47.3919C79.227 46.9723 80.0581 46.7343 80.9416 46.7343C84.0802 46.7343 86.6258 49.6954 86.6258 53.3504C86.6258 57.0054 84.0802 59.9665 80.9416 59.9665H33.6325C31.3814 59.9665 29.5539 57.8405 29.5539 55.2182C29.5539 52.596 31.3814 50.47 33.6325 50.47C33.8624 50.47 34.0843 50.4982 34.3022 50.5386C34.3143 49.2718 35.2018 48.2471 36.291 48.2471C36.6218 48.2471 36.9244 48.348 37.1987 48.5134C37.1422 48.0454 37.1019 47.5734 37.1019 47.0893C37.1019 41.514 40.9828 36.9917 45.7754 36.9917C46.3604 36.9917 46.9332 37.0603 47.49 37.1894C47.8208 34.4098 49.8661 32.2636 52.3471 32.2636M52.3391 29.0322C49.2691 29.0322 46.5419 30.9364 45.1622 33.7764C39.3207 34.1073 34.5805 39.1782 33.9431 45.6128C33.1524 46.0404 32.4747 46.6738 31.9785 47.4443C28.743 48.2633 26.3225 51.4341 26.3225 55.2142C26.3225 59.6115 29.5983 63.1898 33.6284 63.1898H80.9375C85.8512 63.1898 89.8491 58.7724 89.8491 53.3464C89.8491 47.9204 86.0852 43.7611 81.3692 43.515C80.3122 40.2392 77.4601 37.8873 74.1117 37.8873C73.7405 37.8873 73.3694 37.9155 73.0023 37.9761C70.6019 34.079 66.6524 31.6988 62.2672 31.6988C61.0247 31.6988 59.7983 31.8965 58.6203 32.2757C57.1196 30.2667 54.8484 29.0322 52.3391 29.0322Z" fill="#929292"/>
</g>
<rect x="1.35484" y="1.35484" width="93.2903" height="93.2903" rx="46.6452" stroke="#929292" stroke-width="2.70968"/>
<defs>
<clipPath id="clip0_2054_15246">
<rect width="96" height="96" rx="48" fill="white"/>
</clipPath>
<clipPath id="clip1_2054_15246">
<rect width="72" height="87.871" fill="white" transform="translate(12 6.19336)"/>
</clipPath>
</defs>
</svg>
