<svg width="96" height="96" viewBox="0 0 96 96" fill="none" xmlns="http://www.w3.org/2000/svg">
<g clip-path="url(#clip0_2334_10842)">
<rect width="96" height="96" rx="48" fill="white"/>
<path d="M23.9397 33.5869L28.5268 31.8442C31.671 32.2265 37.4798 30.8999 40.0394 32.8936C40.4142 33.1859 41.1674 34.2802 41.4372 34.3364C41.9956 34.4563 42.0556 33.6768 42.0968 33.2458C42.4566 29.4271 39.6834 28.7712 36.5729 28.7787C34.1931 28.7825 31.24 28.6513 28.9203 28.8349C27.2451 28.9661 25.1015 30.9223 24.0971 32.2078C23.7636 32.635 22.9391 33.4782 23.936 33.5906L23.9397 33.5869Z" fill="#929292"/>
<path d="M35.0854 37.165C35.7905 37.0824 38.6083 36.4451 39.0317 36.6475L39.0278 36.6514C39.7017 36.9777 38.3938 38.3604 38.0903 38.6377C35.0585 41.4069 30.2016 41.3469 27.3423 38.3564C27.2146 38.2212 26.2603 37.1168 26.3716 37.0146C26.6 37.0221 26.8326 36.9997 27.061 37.0146C29.898 37.2133 32.2036 37.5061 35.0854 37.165Z" fill="#929292"/>
<path d="M89.1804 75.6234L88.8094 68.0495C88.8019 66.869 88.3972 65.6511 87.6589 64.5155L88.341 60.8991C88.637 59.3364 88.3747 57.7699 87.6327 56.4207L88.341 52.6657C88.7794 50.3496 87.9962 48.0111 86.2198 46.4034L75.8615 37.308V31.2069C75.8615 24.4388 72.9871 18.1841 67.7704 13.597C62.4151 8.8863 54.875 6.29297 46.5366 6.29297V8.14053H46.5141V6.29297C30.2608 6.29297 17.8525 16.1641 16.8819 29.5168H16.8144V30.0265L13.3292 34.4823C12.1824 35.7228 11.5453 37.2368 11.5716 38.6572L11.4741 43.3229L11.9463 51.9723L11.9538 52.0548C12.1075 53.4676 12.7895 54.7343 13.8276 55.5326C14.4572 56.016 15.2629 56.2783 16.0612 56.2783C16.316 56.2783 16.5671 56.2483 16.8144 56.1921V66.8728C16.8144 68.7391 17.2229 70.5979 17.9987 72.2468C18.3285 72.9514 18.7407 73.7646 19.2466 74.6565L19.2166 84.048L18.5683 84.7862C18.7819 84.9736 18.9993 85.1573 19.2129 85.3409V85.3746H19.2504C26.2883 91.412 33.9372 95.2982 41.9945 96.921C44.8089 97.4868 47.6234 97.7717 50.4341 97.7717C55.7744 97.7717 61.0922 96.7486 66.3201 94.7099C72.8971 92.1465 78.7771 88.0916 83.6302 82.8263H83.7239V82.7288C85.3391 80.9675 86.8382 79.0712 88.206 77.0512L89.1767 75.6197L89.1804 75.6234ZM62.7824 72.4867L55.5383 78.3554L55.4221 78.4603C55.3884 78.494 52.113 81.6832 48.253 80.8962L48.2305 72.5354C49.0475 72.5241 49.8494 72.4267 50.4416 72.2393C51.6296 71.8683 52.3528 70.9876 53.1848 70.1294C53.211 70.047 53.1848 69.9271 53.0986 69.8933C52.9899 69.8484 52.6939 69.9121 52.559 69.9158C51.2585 69.9608 49.9881 69.7884 48.7177 70.1594C48.624 70.1856 48.5265 70.2418 48.4329 70.2681C48.3579 70.2868 48.2904 70.2981 48.223 70.3056V69.5898C48.4853 69.5485 48.7364 69.4249 49.0175 69.3612C50.2767 69.0838 51.5621 69.3012 52.8288 69.1925C52.9187 69.185 53.1024 69.1738 53.1773 69.1476C53.2747 69.1101 53.3085 68.9789 53.256 68.8927C53.2148 68.8215 52.7951 68.6116 52.6901 68.5479C51.6333 67.9034 50.6102 67.0489 49.2723 67.4237C48.9275 67.5211 48.5753 67.716 48.2155 67.746L48.133 39.0132C48.935 39.373 49.8007 39.5603 50.6739 39.5603C51.7232 39.5603 52.7801 39.2905 53.7394 38.7209C54.5939 38.2749 55.8381 37.1506 56.0217 35.4155C56.7525 35.0257 57.4008 34.4823 57.9293 33.8078L59.1585 34.8608L61.1522 36.611V40.1674C61.1522 40.8795 61.2384 41.584 61.3958 42.2661L58.6975 40.3773C58.3377 40.1262 57.8543 40.0663 57.4383 40.2199C51.326 42.5059 51.4647 43.7614 51.4647 43.7614L50.2917 47.2204L57.7644 42.847C58.1091 42.6446 58.5364 42.5809 58.9411 42.6708L61.6956 43.2854C62.1078 44.4397 62.7449 45.5078 63.5769 46.4184L54.8375 47.3178C53.8781 47.3553 53.1698 47.7001 52.5664 48.4384L50.8201 51.2378C52.6039 51.2903 52.7651 53.0591 54.3391 52.913C56.1829 52.7444 58.2066 52.8006 60.2865 50.3909L63.3483 47.8275L64.2252 47.0518C64.2514 47.0742 64.2777 47.1005 64.3039 47.123L69.6555 51.9311L66.8298 64.6992H66.8036C66.8036 64.7254 66.811 64.7479 66.811 64.7704L66.5225 66.0783L66.515 66.1158C66.0166 68.6754 64.6936 70.9389 62.7899 72.4792L62.7824 72.4867ZM19.8163 31.2107C19.8163 31.1545 19.82 31.102 19.82 31.0496L26.4907 22.5238C27.6487 21.2046 29.1702 16.6213 29.6837 13.953C29.8935 13.8181 30.0996 13.6795 30.317 13.5483C31.1902 14.7588 32.2508 15.542 33.4912 15.8793C35.5861 16.4489 37.4224 15.5233 38.1607 15.0623C38.483 15.0398 38.8053 15.1598 39.0264 15.3959C40.8702 17.3971 42.8639 18.4352 44.7865 18.4352C44.8839 18.4352 44.9776 18.4277 45.075 18.4239L45.1012 27.628L45.0825 27.6392L45.1012 27.673L45.18 54.7718L38.6254 55.2927C33.9072 55.7087 30.0247 59.0815 28.9454 63.6911L28.6906 64.583C24.8418 62.9753 21.2666 53.239 19.8163 47.048V31.2107ZM56.1979 20.6837C56.7712 22.2315 56.2166 23.8392 54.7438 24.7311L52.5739 26.0428L54.77 27.3132C55.4858 27.7254 55.988 28.3925 56.1866 29.187C56.3927 30.0302 56.2428 30.9146 55.7557 31.6829L55.6994 31.7691C55.0961 32.6685 54.0805 33.1669 53.0012 33.122C51.9893 33.0732 51.1461 32.5598 50.6889 31.7166L48.2118 27.1333L53.3534 24.4838C54.83 23.6818 55.8456 22.3027 56.1979 20.6837ZM45.1987 62.5518H42.4929C40.3943 62.5518 38.3181 63.0989 36.4893 64.137C36.3956 64.1895 36.3057 64.257 36.2232 64.3282L30.3657 69.6347L31.8348 64.4743C31.8423 64.4481 31.8498 64.4256 31.8535 64.3994C32.6255 61.0415 35.4512 58.5794 38.869 58.2795L45.18 57.7774L45.1949 62.5518H45.1987ZM48.1143 33.2381C48.9987 34.7971 50.5465 35.824 52.3416 36.0638L52.2367 36.12C50.8763 36.9408 49.1149 36.5623 48.1256 35.2993L48.1181 33.2344L48.1143 33.2381ZM51.9556 21.8342L48.0843 23.8279L48.0656 17.4983C48.4666 17.0598 48.9838 16.7487 49.5684 16.6063C50.3891 16.404 51.2436 16.5426 51.9781 16.9961L52.0605 17.0486C52.9 17.6032 53.3759 18.5363 53.331 19.5519C53.2897 20.5338 52.7651 21.392 51.9518 21.8342H51.9556ZM45.0638 15.4109C43.5572 15.587 42.0432 14.2416 41.23 13.3609C40.2181 12.2629 38.6816 11.8132 37.2163 12.1879L36.9278 12.2629L36.6879 12.4428C36.6879 12.4428 35.4624 13.3085 34.2782 12.9862C33.791 12.855 33.3713 12.5327 33.0153 12.1242C36.5455 10.4978 40.6191 9.50465 45.0488 9.32852L45.0675 15.4146L45.0638 15.4109ZM62.0479 47.3478L60.5676 48.6557L58.7125 50.211C57.4496 51.6725 56.6429 51.74 55.1073 51.74C54.1554 51.8262 54.058 50.7544 52.9749 50.7244L54.8375 51.2378C55.6994 51.2378 56.982 50.9043 57.4383 50.3909L58.9411 49.4872L61.3096 47.7413L62.0479 47.3478ZM72.0052 66.3818C71.4543 66.4231 70.9184 66.2469 70.4987 65.8872C70.1801 65.6136 69.959 65.2651 69.8541 64.8716L71.0571 59.4338C71.2594 60.8729 71.9527 62.2332 73.0583 63.2376L74.4786 64.5305C74.0739 65.4112 72.9646 66.3069 72.0015 66.3818H72.0052ZM66.2826 44.8894C64.9223 43.6977 64.1428 41.9775 64.1428 40.1674V39.2455L84.2261 56.8779C85.2042 57.7661 85.6427 59.0628 85.3991 60.3482L85.1218 61.8135L66.2826 44.8894ZM85.3991 52.111L85.1068 53.6588L61.1185 32.5973L59.1922 30.9446C59.3309 30.1276 59.3009 29.2882 59.0985 28.4675C58.8736 27.5493 58.4427 26.7173 57.8468 26.0203C57.933 25.9228 58.0154 25.8217 58.0979 25.7205L59.1547 26.6274L84.2298 48.6445C85.208 49.5327 85.6464 50.8293 85.3991 52.1148V52.111ZM72.8671 31.2107V34.681L61.1185 24.3639L59.3533 22.8498C59.5595 21.5157 59.3271 20.0878 58.6038 18.7425C58.1841 17.9967 57.116 16.8087 55.5608 16.5126C55.1148 15.7369 54.489 15.0623 53.7057 14.5489L53.5596 14.4552C52.1317 13.5745 50.4603 13.3085 48.8526 13.702C48.579 13.7694 48.3167 13.8631 48.0581 13.9643L48.0431 9.33226C62.5163 9.91689 72.8671 18.9373 72.8671 31.2182V31.2107ZM25.6962 17.1722C25.1716 18.72 24.5982 20.1328 24.2609 20.5113L20.8806 24.836C21.8699 21.9691 23.5151 19.3796 25.6962 17.1722ZM16.1923 53.269C15.9787 53.3215 15.7539 53.2315 15.6639 53.1603C15.2779 52.8605 15.0156 52.3546 14.9444 51.7662L14.4797 43.2742L14.5771 38.6534V38.6159C14.5584 37.9601 14.9294 37.1619 15.5702 36.4836L16.8219 34.8833V52.6582C16.6308 52.9992 16.4134 53.2128 16.1961 53.269H16.1923ZM29.7324 89.1372L29.7923 86.0604C33.7835 88.6388 38.8765 90.5163 45.2811 90.6737L45.2924 94.4625C39.9895 93.7692 34.7616 91.9891 29.7324 89.1372ZM48.2905 94.7361L48.2605 83.9355C48.6877 83.9955 49.1112 84.0255 49.5197 84.0255C53.7732 84.0255 56.9661 81.1323 57.4795 80.6452L61.9692 77.01V93.0497C57.4233 94.4213 52.84 94.9797 48.2942 94.7399L48.2905 94.7361ZM65.2371 91.9217C65.1471 91.9554 65.0572 91.9891 64.9672 92.0229V74.5666C66.7773 73.0076 68.1452 70.9464 68.9397 68.6116L70.9034 70.9726C71.7991 72.0519 72.3275 73.4161 72.3912 74.7989L72.8597 88.0204C70.4575 89.5682 67.9091 90.8798 65.2371 91.9217ZM75.7865 85.9555L75.3855 74.6753C75.2918 72.674 74.5498 70.7215 73.2906 69.1663C74.6248 68.7616 75.9252 67.8209 76.7534 66.5992L79.9576 69.5148C80.4485 69.9608 80.7296 70.5979 80.7296 71.2612V81.5371C79.1818 83.1411 77.5329 84.6176 75.7865 85.9555ZM85.7289 75.3723C85.0918 76.313 84.421 77.2236 83.7277 78.108V71.2612C83.7277 69.7547 83.0868 68.3118 81.9738 67.3L75.0782 61.0265C74.1413 60.1721 73.7666 58.8379 74.1263 57.62L74.5123 56.3121L84.02 64.8528C85.1443 65.8609 85.8151 67.0714 85.8151 68.0945L86.1411 74.7727L85.7326 75.3761L85.7289 75.3723Z" fill="#929292"/>
</g>
<rect x="1.35484" y="1.35484" width="93.2903" height="93.2903" rx="46.6452" stroke="#929292" stroke-width="2.70968"/>
<defs>
<clipPath id="clip0_2334_10842">
<rect width="96" height="96" rx="48" fill="white"/>
</clipPath>
</defs>
</svg>
