<svg width="96" height="96" viewBox="0 0 96 96" fill="none" xmlns="http://www.w3.org/2000/svg">
<g clip-path="url(#clip0_113_2427)">
<rect width="96" height="96" rx="48" fill="white"/>
<g clip-path="url(#clip1_113_2427)">
<path d="M48.3774 69.2571C50.3248 69.2571 51.9106 67.6716 51.9106 65.7246H49.0468C49.0468 66.0933 48.7461 66.3939 48.3774 66.3939C48.0087 66.3939 47.708 66.0933 47.708 65.7246H44.8442C44.8442 67.6716 46.43 69.2571 48.3774 69.2571Z" fill="#929292"/>
<path d="M87.9835 71.964C87.9835 70.7364 87.6792 69.5374 87.1172 68.4744L87.8618 64.5231C88.1911 62.7944 87.8439 61.0586 86.9275 59.6127L86.9955 59.627L87.7759 55.4932C88.1589 53.471 87.6112 51.4381 86.3046 49.8955C87.017 47.4582 86.9919 44.9564 86.2223 42.6408L86.1972 42.5692C85.7175 41.1591 84.8226 39.91 83.6127 38.9615L80.6737 36.653C80.2478 36.3202 79.9864 35.8012 79.9542 35.2322C79.07 19.2159 64.7512 6.18457 48.0412 6.18457C31.3311 6.18457 17.0123 19.2123 16.1281 35.2286C16.0959 35.7976 15.8345 36.3166 15.4086 36.6495L12.4696 38.9579C11.2597 39.9064 10.3648 41.1555 9.88508 42.5656L9.86002 42.6444C9.07607 44.9922 9.06175 47.5369 9.80991 50.0136C8.51047 51.5562 7.96994 53.582 8.34939 55.597L9.06891 60.4001C8.67872 61.5096 8.57849 62.7121 8.80401 63.9075L9.5808 68.3778C8.65366 69.6483 8.13818 71.1909 8.13818 72.7871L8.32433 74.7914C8.32075 74.8272 8.31001 74.863 8.31001 74.8988C8.28137 75.407 8.33865 75.9117 8.47468 76.3913L8.49973 76.674L8.56059 76.6668C8.67872 76.9997 8.83623 77.3182 9.02953 77.6153C17.3595 90.3388 31.7428 98.7639 48.0555 98.7639C64.3682 98.7639 78.9805 90.2064 87.2819 77.3111C87.69 76.6776 87.9227 75.9403 87.9406 75.1851C87.9656 74.2152 87.9513 73.3884 87.9226 72.6762L87.9692 72.0749V71.9604L87.9835 71.964ZM81.3217 71.2267L74.2016 64.7522C73.1993 63.8431 72.802 62.4151 73.185 61.1194L73.636 59.5948L83.5876 68.5317C84.547 69.3942 85.1054 70.6218 85.1197 71.9103L84.8513 75.2567C84.2964 76.155 83.7093 77.0319 83.0936 77.8873V75.2316C83.0936 73.7105 82.4493 72.2503 81.3217 71.2267ZM35.795 77.533C34.1984 76.1228 33.01 74.1937 32.4229 72.0248L27.5294 55.8869L31.0376 52.7373L31.9754 53.5676L35.1363 56.2126C37.2841 58.7036 39.3747 58.6427 41.2755 58.8181C42.8971 58.9648 43.0654 57.1431 44.9053 57.0894L43.1012 54.1976C42.4783 53.4316 41.748 53.0809 40.7565 53.0415L31.7356 52.1145L32.8883 51.0802C33.5648 50.4897 34.1412 49.8096 34.6137 49.0688L37.1553 48.4997C37.5741 48.4066 38.0144 48.4711 38.3688 48.6822L46.0831 53.1954L44.8731 49.6235C44.8731 49.6235 45.0163 48.3279 38.7053 45.9693C38.2757 45.8083 37.7781 45.8691 37.4059 46.1304L35.4084 47.5262C35.863 46.406 36.1064 45.1998 36.1064 43.965V39.3051L38.7375 36.9966L39.9009 35.9981C39.5394 38.7969 40.4737 41.6744 42.4139 43.5356C44.0784 45.1354 46.1654 45.9371 48.2559 45.9371C50.3465 45.9371 52.4335 45.1354 54.098 43.5356C55.938 41.7639 56.8508 39.094 56.5931 36.4526L57.9068 37.58L60.0045 39.4196V43.1419C60.0045 44.3981 60.2551 45.6257 60.7241 46.7567L59.8255 46.1268C59.4533 45.8655 58.9557 45.8047 58.5261 45.9657C52.2187 48.3243 52.3583 49.6199 52.3583 49.6199L51.1483 53.1918L58.8626 48.6787C59.2206 48.4711 59.6609 48.4031 60.0761 48.4961L61.9734 48.9184C62.3421 49.3945 62.7537 49.8383 63.2084 50.2391L65.3132 52.1289L56.4749 53.0379C55.4834 53.0773 54.7531 53.4316 54.1302 54.194L52.3261 57.0858C54.1696 57.1395 54.3343 58.9648 55.9559 58.8145C57.8567 58.6392 59.9473 58.7 62.0951 56.209L65.256 53.5641L66.09 52.8268L68.7855 55.2462L65.8609 68.4565H65.8287C65.8287 68.4887 65.8359 68.5173 65.8394 68.546L65.5352 69.9167L65.528 69.9525C65.009 72.6225 63.6272 74.9811 61.6405 76.5917L54.1624 82.6474C50.7116 85.4463 46.0365 85.5035 42.5284 82.787L36.2818 77.9553C36.1243 77.8336 35.9776 77.7012 35.8308 77.5723V77.533H35.7842H35.795ZM13.6151 75.2316V78.6747C12.7739 77.5616 11.9792 76.402 11.2418 75.2066L11.0055 72.7191C11.0234 71.4343 11.5783 70.2102 12.5376 69.3477L23.1407 59.8274L23.5202 61.1159C23.9068 62.4115 23.5059 63.8395 22.5035 64.7486L15.3835 71.2231C14.2559 72.2467 13.6116 73.707 13.6116 75.2281L13.6151 75.2316ZM12.2441 51.3486L42.4711 24.9782L40.9641 31.3095L36.8653 34.8277L11.385 57.1932L10.9876 55.0959C10.7227 53.6965 11.1988 52.2899 12.2405 51.345L12.2441 51.3486ZM48.0412 15.0141C48.0949 15.0141 48.145 15.0177 48.1987 15.0177L53.5825 35.7762C54.1231 37.8556 53.5467 40.0889 52.1149 41.4669C49.8811 43.6143 46.6379 43.6143 44.4006 41.4669C42.9723 40.0961 42.3637 37.8628 42.847 35.7654C42.8506 35.7511 42.8542 35.7368 42.8577 35.7225L47.7798 15.0212C47.8657 15.0212 47.9517 15.0141 48.0376 15.0141H48.0412ZM83.8812 51.2412C84.9229 52.1861 85.399 53.5927 85.1341 54.9921L84.7009 57.2791L59.7897 35.4111L55.4905 31.7211L53.7293 24.9388L83.8776 51.2377L83.8812 51.2412ZM85.0481 63.9898L84.726 65.7042L65.1235 48.1024C63.6952 46.8498 62.8755 45.0423 62.8755 43.1419V41.9321L83.8024 60.3034C84.8405 61.2447 85.3059 62.6262 85.0481 63.9934V63.9898ZM71.2448 57.4473L71.277 57.476L71.1231 57.9949L71.2448 57.4473ZM52.6053 20.3755C52.5838 20.3576 52.5587 20.3433 52.5337 20.3254L51.2164 15.2432C61.8946 16.7392 70.3177 25.6582 71.3951 36.7747L52.6053 20.3755ZM43.545 20.465C43.545 20.465 43.5271 20.4757 43.52 20.4865L24.7444 36.8714C26.026 25.8944 34.4347 16.8645 44.7836 15.2718L43.5486 20.465H43.545ZM30.991 48.9363L12.0651 65.9333L11.6248 63.3957C11.3671 62.0285 11.8324 60.6506 12.8527 59.7236L33.2534 41.8176V43.965C33.2534 45.8655 32.4336 47.6765 30.9946 48.9363H30.991ZM24.433 66.871C25.7074 65.7114 26.4376 64.0936 26.52 62.4186L28.3635 68.4994H28.3349C28.3599 68.8001 28.2776 69.0399 28.0664 69.2833C27.5939 69.8308 26.5844 70.2389 25.4962 70.314C24.1574 70.4071 22.994 69.5123 22.8615 68.3026L24.4366 66.871H24.433ZM26.8386 74.6339L29.4195 71.9926L29.663 72.7943C30.2787 75.067 31.4313 77.1357 32.9778 78.7928V93.1949C29.9135 92.046 27.0175 90.5607 24.3328 88.7784L24.7444 80.0777C24.8375 78.0985 25.5821 76.1693 26.8386 74.6375V74.6339ZM34.1591 53.5641L34.2557 53.6034L40.1458 55.8869C40.7758 55.9227 41.6144 56.0694 42.4139 56.2126L43.2801 56.6886C42.1096 56.6993 42.3065 56.5022 41.2755 56.3948C40.0656 56.2732 39.9911 56.1123 37.649 55.4932L36.4741 54.8064C35.7832 54.2731 34.7605 54.194 34.1591 53.5605V53.5641ZM63.348 53.5641C62.7466 54.1976 61.9818 54.4588 61.2945 54.9921L59.8255 55.3142C57.5981 55.81 57.9516 56.0909 56.7416 56.2126C55.7107 56.3163 55.3974 56.6993 54.2269 56.6922L55.4198 56.2126C56.4749 56.0694 57.2768 55.3464 57.9068 55.3142L60.2664 54.8064L63.2513 53.607L63.348 53.5676V53.5641ZM63.7238 78.5924C65.664 76.9317 67.1174 74.7091 67.9193 72.193C67.9479 72.2145 67.973 72.236 68.0016 72.2539L67.9336 72.3111L70.0563 74.863C70.9978 75.994 71.5527 77.4292 71.6207 78.9002L72.0681 88.5958C69.4729 90.346 66.6807 91.817 63.7238 92.9694V78.5924ZM70.4537 70.2675C70.0957 70.1888 69.7628 70.0241 69.4764 69.7772C69.1256 69.4729 68.8786 69.0793 68.7676 68.6426L70.1852 62.2468C70.221 63.9827 70.9584 65.6756 72.2758 66.871L73.8043 68.2596C73.6647 68.5997 73.4248 68.9504 73.1027 69.2761C72.512 69.8702 71.7531 70.2675 71.1195 70.314C70.894 70.3319 70.6721 70.314 70.4573 70.2675H70.4537ZM77.094 35.3861C77.1728 36.7783 77.8315 38.0596 78.9018 38.9007L81.8407 41.2092C82.614 41.8176 83.1795 42.605 83.4838 43.489L83.5053 43.5463C83.942 44.8526 84.0566 46.2485 83.8633 47.655L74.1694 39.1942H74.3735C74.3735 32.0575 71.6386 25.3003 66.6771 20.1643C62.2526 15.5867 56.5609 12.838 50.4431 12.2618L49.6198 9.0836C64.1498 9.86741 76.3208 21.3597 77.094 35.3789V35.3861ZM12.5734 43.557L12.5949 43.4926C12.8956 42.6086 13.4648 41.8176 14.238 41.2127L17.1769 38.9043C18.2509 38.0632 18.9095 36.7819 18.9847 35.3896C19.7579 21.4385 31.8108 9.99268 46.2477 9.10866L45.4924 12.2869C39.4606 12.9203 33.819 15.7979 29.3873 20.5437C24.5655 25.7083 21.7804 32.6087 21.7124 39.5163L12.2334 47.791C12.0114 46.3451 12.126 44.9027 12.5734 43.557ZM16.4789 82.0998V75.2316C16.4789 74.5158 16.7832 73.8287 17.313 73.3455L20.5598 70.3928C21.3151 71.8136 22.7398 72.8372 24.4044 73.1093C22.8973 75.067 21.9988 77.4721 21.8807 79.9417L21.5585 86.7812C19.7436 85.3604 18.0468 83.7927 16.4753 82.1034L16.4789 82.0998ZM35.8415 94.1469V81.2265L40.7887 85.0526C43.0403 86.792 45.6571 87.6617 48.2703 87.6617C50.8834 87.6617 53.6864 86.7311 55.9774 84.8736L60.8565 80.9223V93.9751C56.8258 95.2278 52.5337 95.9078 48.0591 95.9078C43.5844 95.9078 39.704 95.2922 35.8415 94.1505V94.1469ZM74.8388 86.5558L74.4809 78.7642C74.3842 76.674 73.5967 74.6375 72.2579 73.0305L72.24 73.009C73.2745 72.7335 74.2911 72.1393 75.1288 71.2947C75.4581 70.9618 75.7373 70.6075 75.9772 70.2389L79.3958 73.3455C79.9256 73.8287 80.2299 74.5158 80.2299 75.2316V81.452C78.5796 83.3024 76.779 85.0096 74.8424 86.5558H74.8388Z" fill="#929292"/>
<path d="M48.3951 77.0917C51.1335 77.0917 53.3565 75.5562 53.3565 73.6665H43.4336C43.4336 75.5598 45.653 77.0917 48.3951 77.0917Z" fill="#929292"/>
</g>
</g>
<rect x="1.35484" y="1.35484" width="93.2903" height="93.2903" rx="46.6452" stroke="#929292" stroke-width="2.70968"/>
<defs>
<clipPath id="clip0_113_2427">
<rect width="96" height="96" rx="48" fill="white"/>
</clipPath>
<clipPath id="clip1_113_2427">
<rect width="80.129" height="92.5161" fill="white" transform="translate(8.12891 6.19336)"/>
</clipPath>
</defs>
</svg>
