<svg width="96" height="97" viewBox="0 0 96 97" fill="none" xmlns="http://www.w3.org/2000/svg">
<g clip-path="url(#clip0_113_2501)">
<g clip-path="url(#clip1_113_2501)">
<rect x="-0.193359" y="0.193359" width="96" height="96" rx="48" fill="white"/>
<path d="M87.1995 71.7359L76.7019 46.6123L80.9263 40.7166C80.9675 40.6583 81.0053 40.5965 81.0361 40.5347C81.7191 39.1826 81.6367 37.6109 80.8165 36.3377C79.9963 35.0646 78.6099 34.337 77.0897 34.3954C77.0656 34.3954 77.0451 34.3954 77.021 34.3988L75.1988 34.5601L79.0114 29.2409C79.0526 29.1826 79.0904 29.1208 79.1212 29.059C79.8042 27.707 79.7218 26.1352 78.9016 24.8621C78.0814 23.5889 76.7019 22.8648 75.1748 22.9197L66.7533 23.2423L67.0691 22.7516C67.0862 22.7241 67.0999 22.7001 67.1171 22.6726C67.8515 21.3445 67.8275 19.7728 67.0588 18.4688C66.2901 17.1647 64.9242 16.3857 63.4074 16.3857C63.3937 16.3857 63.3765 16.3857 63.3628 16.3857L55.3944 16.65L48.5687 6.78377C48.3147 6.41658 47.8961 6.19695 47.4499 6.19352C47.0107 6.18665 46.5817 6.40628 46.3209 6.77004L39.2859 16.6294L32.3161 16.3891C32.3161 16.3891 32.2852 16.3891 32.268 16.3891C30.7512 16.3891 29.3888 17.1681 28.6167 18.4722C27.848 19.7763 27.8239 21.348 28.5583 22.6761C28.5721 22.7001 28.5823 22.7207 28.5961 22.7413L28.9324 23.2732L20.0511 22.9025C18.6201 22.8339 17.2886 23.534 16.489 24.7522C15.6448 26.0357 15.5453 27.628 16.2144 29.0179C16.2419 29.0728 16.2693 29.1243 16.3037 29.1757L19.8624 34.5875L17.7759 34.4022C17.7519 34.4022 17.7313 34.4022 17.7072 34.3988C16.187 34.3439 14.8006 35.068 13.9804 36.3412C13.1602 37.6143 13.0779 39.186 13.7608 40.5381C13.8019 40.6239 13.8534 40.7029 13.9152 40.7784L20.2193 48.6679L10.2776 72.4634C9.95156 72.6556 9.70791 72.9919 9.68045 73.4483C9.62554 74.368 9.8692 75.2843 10.3771 76.0564C18.4279 88.2562 32.3298 96.3344 48.0985 96.3344C63.8673 96.3344 77.9922 88.1292 86.0121 75.7647C86.4068 75.1573 86.6298 74.4504 86.6504 73.7263C86.6676 73.0777 86.6676 72.4977 86.6539 71.9727L87.2029 71.7427L87.1995 71.7359ZM84.4919 72.381C83.4898 74.1312 82.3676 75.8059 81.1391 77.3879L75.1404 78.1463L79.8488 68.2287C80.1164 67.6659 80.0787 67.0138 79.7424 66.4854C79.4061 65.9569 78.833 65.6412 78.2084 65.6412H77.3333L75.8886 58.2836C75.8748 57.6796 75.765 57.1065 75.5557 56.5951L74.2619 50.0097L74.8144 49.2375L84.485 72.381H84.4919ZM74.1487 73.8395H65.9435V71.0941H65.8988C66.3793 70.2465 66.7774 69.3371 67.0896 68.3865H76.7396L74.1487 73.8395ZM31.664 73.8395H23.4142L20.8404 68.3865H30.4664L30.5178 68.5924C30.7924 69.67 31.1767 70.7029 31.6606 71.6707V73.8395H31.664ZM27.9063 58.2938L28.5961 61.0083C28.1671 62.0344 26.5267 61.8354 25.583 61.4648C24.4746 61.0289 23.9289 59.7729 24.3648 58.6679L24.2652 58.6267L24.9035 54.5258L27.9132 58.2904L27.9063 58.2938ZM38.9599 39.2341C36.4753 40.044 34.2687 41.0769 32.4018 42.1236L25.7649 31.8113C25.4595 31.149 25.734 30.5999 25.8679 30.3906C26.0051 30.1744 26.4066 29.6733 27.2028 29.7076L33.0504 29.8312L38.9599 39.2375V39.2341ZM36.266 20.1606C36.3929 19.9478 36.7601 19.4571 37.4739 19.4262L38.7402 19.5703L46.0601 30.5004V36.5539L36.2145 21.6637C35.9708 21.1833 35.9914 20.6273 36.266 20.1606ZM56.4959 19.8552C56.5955 19.7179 56.6607 19.5669 56.7053 19.4125L58.1569 19.4228C58.9119 19.4228 59.2996 19.9375 59.43 20.1572C59.7046 20.617 59.7252 21.1695 59.4884 21.6465L48.8089 36.9692V30.5244L56.4959 19.8552ZM48.4657 40.3734C54.0697 40.3734 60.3875 42.1888 66.9421 47.4256C67.6593 47.9987 68.0025 48.9184 67.8378 49.8278L64.9242 65.7887C64.4198 68.5478 63.0848 70.9775 61.1665 72.635L53.9976 78.8224C50.7066 81.6638 46.2523 81.7222 42.9098 78.9665L36.9214 74.0317C35.1335 72.5595 33.8054 70.3872 33.1809 67.9198L28.5171 49.5567C28.325 48.7983 28.5995 47.9953 29.2206 47.5114C32.7279 44.7797 39.7354 40.3803 48.4657 40.3803V40.3734ZM62.5083 29.8278L68.1295 29.7042C68.9085 29.6699 69.3031 30.1744 69.4438 30.3906C69.5776 30.5999 69.8487 31.1421 69.557 31.7976L63.0025 41.3343C62.975 41.3721 62.9579 41.4132 62.9373 41.451C60.892 40.3357 58.8158 39.4674 56.7087 38.8429L62.5117 29.8278H62.5083ZM69.9037 56.0975L72.0725 53.0742L72.9167 57.381L72.8927 57.3982C72.9064 57.4188 72.9201 57.4428 72.9304 57.4634L73.1466 58.5581C73.1398 58.6988 73.1226 58.8429 73.0951 58.9939C72.9201 59.9617 72.3573 60.9157 71.6916 61.3721C70.6724 62.0722 69.3409 61.9521 68.5584 61.1422L69.4026 56.5231C69.5948 56.427 69.7664 56.2829 69.9002 56.0975H69.9037ZM68.0265 64.0797C68.7128 64.4057 69.4678 64.5773 70.2365 64.5773C71.2729 64.5773 72.3264 64.2719 73.2496 63.637C73.5207 63.4517 73.7746 63.2252 74.0148 62.9816L74.5365 65.6412H67.7417L68.0265 64.0797ZM23.5137 63.4346C23.8363 63.6679 24.1898 63.867 24.5741 64.018C25.384 64.3371 26.2556 64.5121 27.0964 64.5121C27.9372 64.5121 28.6784 64.3508 29.3511 64.0042L29.7663 65.6412H23.1671L23.5103 63.438L23.5137 63.4346ZM41.163 81.0839C43.3319 82.8718 45.8507 83.7606 48.3696 83.7606C50.8885 83.7606 53.5858 82.8032 55.7924 80.8986L61.6847 75.8128C60.5831 81.9796 55.185 86.6776 48.7059 86.6776C42.5666 86.6776 37.3916 82.46 35.9331 76.7702L41.163 81.0839ZM77.2235 37.1373C77.2235 37.1373 77.2475 37.1373 77.2578 37.1373C77.9853 37.1373 78.3731 37.6143 78.507 37.8237C78.6408 38.0296 78.9085 38.5683 78.6236 39.2204L70.4973 50.5622L70.542 50.322C70.8886 48.4174 70.1679 46.4887 68.6614 45.2808C68.4143 45.0852 68.1672 44.8896 67.9201 44.7008C67.9441 44.6734 67.9716 44.6528 67.9922 44.6219L73.0917 37.5045L77.2269 37.1373H77.2235ZM75.2777 25.6616C76.043 25.6273 76.4514 26.1318 76.5921 26.3446C76.7259 26.5505 76.9936 27.0892 76.7087 27.7413L65.7581 43.0227C65.7375 43.0536 65.7204 43.0879 65.7032 43.1188C65.566 43.0261 65.4287 42.9403 65.288 42.8511L71.8769 33.2629C71.9112 33.2114 71.9421 33.16 71.973 33.1016C72.6559 31.7495 72.5735 30.1778 71.7533 28.9046C70.9332 27.6315 69.5467 26.9108 68.0471 26.9588L64.3031 27.0412L64.938 26.0563L75.2777 25.6616ZM63.4211 19.1311C64.1761 19.1414 64.557 19.6458 64.6874 19.8655C64.8144 20.0817 65.0718 20.6513 64.7286 21.3102L53.881 38.1565C53.1123 38.0124 52.3401 37.8992 51.5611 37.8168L61.7876 23.1462C61.8151 23.105 61.8425 23.0638 61.8666 23.0192C62.5255 21.8113 62.5632 20.4043 62.0004 19.1757L63.4211 19.1277V19.1311ZM47.4156 9.95125L53.6991 19.035L47.4739 27.6726L41.3209 18.4859L47.4156 9.94781V9.95125ZM30.9811 19.8655C31.1115 19.6458 31.489 19.1414 32.2474 19.1311L33.6922 19.1826C33.1294 20.4111 33.1706 21.8147 33.8294 23.0227C33.8466 23.057 33.8672 23.0913 33.8912 23.1222L43.7711 38.0604C43.5481 38.0982 43.3216 38.1359 43.0985 38.1771C42.6318 38.2629 42.1754 38.359 41.7224 38.4654L34.9825 27.7378C34.9825 27.7378 34.9825 27.731 34.9791 27.731L30.9502 21.3205C30.6002 20.6582 30.8576 20.0851 30.988 19.8689L30.9811 19.8655ZM18.7814 26.2588C18.9083 26.0632 19.2755 25.6205 19.9344 25.6445L30.3257 26.0803C30.4458 26.0872 30.559 26.0735 30.6723 26.0494L31.3003 27.0481L27.2852 26.9623C25.7649 26.9074 24.3751 27.6315 23.5583 28.9046C22.7381 30.1778 22.6558 31.7495 23.3387 33.1016C23.3593 33.1428 23.3833 33.1874 23.4108 33.2286L30.0511 43.5478C29.8075 43.709 29.5707 43.8669 29.3442 44.0213L18.651 27.755C18.4416 27.2608 18.4862 26.7083 18.7814 26.2622V26.2588ZM16.2865 37.8237C16.4203 37.6143 16.8081 37.1373 17.5357 37.1373C17.5459 37.1373 17.5597 37.1373 17.57 37.1373L21.7841 37.5114L27.1513 45.6789C25.9468 46.8456 25.4389 48.5787 25.8576 50.2259L26.2694 51.8456L16.1561 39.1895C15.8919 38.5512 16.1561 38.0261 16.2865 37.8202V37.8237ZM22.5734 51.6157L20.3977 65.6377H19.3751C18.7505 65.6377 18.1774 65.9534 17.8445 66.4819C17.5116 67.0104 17.4704 67.6624 17.7381 68.2252L22.4327 78.1772L15.0099 77.3399C14.1657 76.2486 13.373 75.1127 12.6317 73.9425L22.1719 51.1147L22.5768 51.6226L22.5734 51.6157ZM17.6112 80.3975L24.279 81.1491C24.3407 81.1559 24.4059 81.1594 24.4677 81.1594C24.9447 81.1594 25.4011 80.9329 25.6894 80.5417C26.0257 80.0887 26.0841 79.495 25.8438 78.9837L24.7114 76.5815H31.664V90.2431C26.3071 87.9542 21.5405 84.5808 17.6112 80.3907V80.3975ZM34.4094 91.307V80.5142C37.0106 85.7853 42.4396 89.423 48.7059 89.423C54.9722 89.423 60.6792 85.5966 63.1946 80.1024V90.7819C58.5275 92.587 53.4417 93.5822 48.0917 93.5822C43.2804 93.5822 38.6819 92.7792 34.406 91.3035L34.4094 91.307ZM65.94 89.6048V76.5849H72.8412L71.7019 78.9871C71.4617 79.495 71.52 80.0921 71.8529 80.5451C72.1446 80.9398 72.6044 81.1662 73.0677 81.1662C73.1363 81.1662 73.205 81.1628 73.2736 81.1525L78.4761 80.4936C74.9174 84.2617 70.6792 87.3673 65.9366 89.6083L65.94 89.6048Z" fill="#929292"/>
<path d="M57.8605 46.5108C58.1831 46.2808 58.5983 46.1813 59.0067 46.2328L63.4885 46.8196L58.5605 43.9919C58.183 43.7757 57.7026 43.7585 57.3045 43.9507C51.4843 46.7476 51.7314 47.9693 51.7314 47.9693L50.8838 51.4833L57.8605 46.5108Z" fill="#929292"/>
<path d="M37.9474 46.5128L44.924 51.4854L44.0764 47.9713C44.0764 47.9713 44.3235 46.7462 38.5033 43.9528C38.1086 43.764 37.6282 43.7777 37.2473 43.9939L32.3193 46.8217L36.8012 46.2349C37.2095 46.1799 37.6213 46.2829 37.9474 46.5128Z" fill="#929292"/>
<path d="M48.7045 65.5038C50.5713 65.5038 52.0916 63.9836 52.0916 62.1167H49.3462C49.3462 62.4702 49.058 62.7584 48.7045 62.7584C48.351 62.7584 48.0628 62.4702 48.0628 62.1167H45.3174C45.3174 63.9836 46.8376 65.5038 48.7045 65.5038Z" fill="#929292"/>
<path d="M48.438 73.5512C51.0633 73.5512 53.1944 72.079 53.1944 70.2671H43.6816C43.6816 72.0825 45.8093 73.5512 48.438 73.5512Z" fill="#929292"/>
</g>
<rect x="1.15604" y="1.54276" width="93.3012" height="93.3012" rx="46.6506" stroke="#929292" stroke-width="2.6988"/>
<path d="M32.4956 50.9697C34.2535 50.4932 38.4891 49.6853 42.7173 51.4463C42.7724 51.4633 42.8882 51.4971 42.9741 51.5273H42.9751C43.2784 51.6307 43.5575 51.7789 43.8062 51.9639L43.9458 52.0742C44.6258 52.6458 45.0376 53.501 45.0376 54.4297C45.0376 54.7989 44.9714 55.1618 44.8442 55.5088L44.8433 55.5098C44.4131 56.6769 43.8759 57.7524 43.2407 58.7129L42.9624 59.1172C41.8743 60.6398 40.1136 61.5508 38.2446 61.5508H38.2427L37.3687 61.5469H37.3511C36.9716 61.5334 36.0298 61.4983 35.4458 61.4775L35.4097 61.5684L34.9634 61.4697L34.8745 61.4492L34.8101 61.4346L34.8081 61.4336C34.5905 61.3876 34.3697 61.3318 34.1509 61.252L34.1304 61.2441L34.1099 61.2344H34.1089L34.1069 61.2334C34.1056 61.2328 34.1041 61.2314 34.1021 61.2305C34.0976 61.2284 34.0912 61.2263 34.0835 61.2227C34.0679 61.2153 34.0459 61.2041 34.0181 61.1904C33.9624 61.1631 33.8831 61.1239 33.7876 61.0732C33.5972 60.9723 33.3375 60.8253 33.0601 60.6445C32.534 60.3019 31.8346 59.7663 31.521 59.1113L31.4995 59.0674C31.0249 58.2876 30.7417 57.3691 30.7417 56.3848V53.0166C30.7417 52.5868 30.7961 52.2203 30.9351 51.9199C31.0827 51.6012 31.3092 51.3915 31.5796 51.2607L31.5825 51.2598C31.5835 51.2593 31.5844 51.2583 31.5854 51.2578C31.588 51.2566 31.5911 51.2554 31.5942 51.2539C31.6005 51.251 31.6081 51.2478 31.6167 51.2441C31.6248 51.2407 31.6346 51.2374 31.645 51.2334C31.7103 51.206 31.7992 51.1722 31.9009 51.1455L32.4956 50.9697Z" fill="#929292" stroke="#929292" stroke-width="1.07836"/>
<g clip-path="url(#clip2_113_2501)">
<path d="M43.4907 52.3994C43.4907 52.3994 43.4907 52.3994 43.4873 52.3994C43.2816 52.2458 43.0519 52.123 42.8016 52.0377C42.7158 52.007 42.6267 51.9831 42.541 51.9558C37.8812 50.0007 33.1769 51.3007 32.066 51.659C31.9905 51.676 31.9185 51.7033 31.8534 51.7306C31.8328 51.7375 31.8191 51.7443 31.8191 51.7443C31.4831 51.9046 31.2808 52.2322 31.2808 53.017V56.3846C31.2808 57.299 31.5516 58.152 32.0077 58.8685C32.0077 58.8685 32.0077 58.8753 32.0077 58.8787C32.4946 59.8955 34.3358 60.7451 34.3358 60.7451C34.5416 60.8202 34.7541 60.8748 34.9736 60.9191C34.9736 60.9191 34.9839 60.9191 34.9907 60.9225C35.0216 60.9294 35.049 60.9362 35.0799 60.943L35.0867 60.9259C35.4982 60.9396 36.8903 60.9908 37.3703 61.0078L38.2447 61.0112C39.9385 61.0112 41.5363 60.1855 42.5238 58.8037C43.2507 57.7869 43.8611 56.6166 44.3377 55.3235C44.444 55.0334 44.4988 54.7332 44.4988 54.4295C44.4988 53.6106 44.1114 52.8634 43.4839 52.396L43.4907 52.3994Z" fill="#929292"/>
<rect x="32.1489" y="47.0596" width="2.87562" height="18.3321" transform="rotate(30 32.1489 47.0596)" fill="white"/>
<rect x="30.2798" y="45.98" width="1.43781" height="18.3321" transform="rotate(30 30.2798 45.98)" fill="white"/>
</g>
<path d="M63.875 50.7729C62.1171 50.2965 57.8815 49.4885 53.6533 51.2495C53.5982 51.2665 53.4824 51.3003 53.3965 51.3306H53.3955C53.0922 51.4339 52.8132 51.5821 52.5645 51.7671L52.4248 51.8774C51.7448 52.449 51.333 53.3043 51.333 54.2329C51.333 54.6021 51.3992 54.965 51.5264 55.312L51.5273 55.313C51.9575 56.4802 52.4947 57.5557 53.1299 58.5161L53.4082 58.9204C54.4963 60.443 56.257 61.354 58.126 61.354H58.1279L59.002 61.3501H59.0195C59.399 61.3366 60.3408 61.3015 60.9248 61.2808L60.9609 61.3716L61.4072 61.2729L61.4961 61.2524L61.5605 61.2378L61.5625 61.2368C61.7801 61.1908 62.0009 61.135 62.2197 61.0552L62.2402 61.0474L62.2607 61.0376H62.2617L62.2637 61.0366C62.265 61.036 62.2665 61.0347 62.2686 61.0337C62.273 61.0316 62.2794 61.0295 62.2871 61.0259C62.3027 61.0185 62.3247 61.0073 62.3525 60.9937C62.4082 60.9663 62.4875 60.9271 62.583 60.8765C62.7734 60.7755 63.0331 60.6285 63.3105 60.4478C63.8366 60.1051 64.536 59.5695 64.8496 58.9146L64.8711 58.8706C65.3457 58.0909 65.6289 57.1724 65.6289 56.188V52.8198C65.6289 52.39 65.5745 52.0235 65.4355 51.7231C65.2879 51.4044 65.0614 51.1947 64.791 51.064L64.7881 51.063C64.7871 51.0625 64.7863 51.0616 64.7852 51.061C64.7826 51.0598 64.7795 51.0586 64.7764 51.0571C64.7701 51.0542 64.7625 51.051 64.7539 51.0474C64.7458 51.0439 64.736 51.0406 64.7256 51.0366C64.6603 51.0093 64.5714 50.9754 64.4697 50.9487L63.875 50.7729Z" fill="#929292" stroke="#929292" stroke-width="1.07836"/>
<g clip-path="url(#clip3_113_2501)">
<path d="M52.8799 52.5927C52.8799 52.5927 52.8799 52.5927 52.8833 52.5927C53.089 52.4392 53.3187 52.3164 53.569 52.2311C53.6548 52.2004 53.7439 52.1765 53.8296 52.1492C58.4894 50.1941 63.1937 51.4941 64.3046 51.8523C64.3801 51.8694 64.4521 51.8967 64.5172 51.924C64.5378 51.9308 64.5515 51.9376 64.5515 51.9376C64.8875 52.098 65.0898 52.4256 65.0898 53.2103V56.5779C65.0898 57.4924 64.819 58.3454 64.3629 59.0619C64.3629 59.0619 64.3629 59.0687 64.3629 59.0721C63.876 60.0889 62.0348 60.9385 62.0348 60.9385C61.829 61.0135 61.6165 61.0681 61.397 61.1125C61.397 61.1125 61.3867 61.1125 61.3799 61.1159C61.349 61.1227 61.3216 61.1295 61.2907 61.1364L61.2839 61.1193C60.8724 61.133 59.4803 61.1841 59.0003 61.2012L58.1259 61.2046C56.4321 61.2046 54.8343 60.3789 53.8468 58.997C53.1199 57.9803 52.5095 56.81 52.0329 55.5168C51.9267 55.2268 51.8718 54.9265 51.8718 54.6229C51.8718 53.804 52.2592 53.0568 52.8867 52.5893L52.8799 52.5927Z" fill="#929292"/>
<rect width="2.87562" height="18.3321" transform="matrix(-0.866025 0.5 0.5 0.866025 64.2383 47.0596)" fill="white"/>
<rect width="1.43781" height="18.3321" transform="matrix(-0.866025 0.5 0.5 0.866025 66.1045 45.98)" fill="white"/>
</g>
<path d="M67.346 50.1543C66.5849 50.0787 65.8067 49.9 64.9804 49.711C63.4273 49.3571 61.6651 48.9585 59.1315 48.9585C55.9533 48.9585 53.8722 49.6835 52.0312 50.3261C50.6289 50.814 49.4187 51.2367 47.9993 51.2367C46.5799 51.2367 45.3697 50.814 43.9674 50.3261C42.1298 49.6835 40.0487 48.9585 36.8671 48.9585C34.3335 48.9585 32.5713 49.3605 31.0148 49.7145C30.1919 49.9 29.4137 50.0787 28.6526 50.1543C28.1554 50.2058 27.7817 50.625 27.7817 51.1302V52.3191C27.7817 52.728 28.0354 53.0957 28.416 53.24L28.9988 53.4599V56.3772C28.9988 60.0058 31.8993 62.9541 35.4649 62.9541H38.0945C40.4156 62.9541 42.6098 61.8133 43.9606 59.9027C44.9445 58.5145 45.7468 56.9064 46.3399 55.1196C46.5799 54.3945 47.2382 53.9066 47.9787 53.9032H48.0164C48.757 53.9066 49.4187 54.398 49.6587 55.1196C50.2518 56.9064 51.054 58.5145 52.038 59.9027C53.3923 61.8133 55.583 62.9541 57.9041 62.9541H60.5337C64.0993 62.9541 66.9998 60.0024 66.9998 56.3772V53.4599L67.5826 53.24C67.9597 53.0957 68.2134 52.728 68.2134 52.3191V51.1302C68.2134 50.625 67.8397 50.2024 67.3426 50.1543H67.346ZM65.5427 52.752V56.36C65.5427 59.2155 63.2628 61.5384 60.4617 61.5384H57.9178C56.0493 61.5384 54.2871 60.6209 53.1968 59.0849C52.4117 57.9785 51.7535 56.7071 51.2392 55.3051C51.1158 54.9684 51.054 54.6213 51.054 54.2708C51.054 53.0098 51.8392 51.893 53.0117 51.4944C55.127 50.7694 57.287 50.3742 59.1006 50.3742C61.4217 50.3742 63.057 50.7453 64.5039 51.0752C65.241 51.2436 65.5427 51.7315 65.5427 52.7589V52.752ZM44.9411 54.2708C44.9411 54.6213 44.8794 54.9718 44.756 55.3086C44.2417 56.7105 43.5835 57.9819 42.7983 59.0884C41.7081 60.6243 39.9459 61.5418 38.0774 61.5418H35.5335C32.7324 61.5418 30.4525 59.219 30.4525 56.3635V52.7555C30.4525 51.4841 30.9531 51.1955 31.4913 51.0717C32.9347 50.7419 34.5701 50.3708 36.8911 50.3708C38.7048 50.3708 40.8681 50.7694 42.98 51.491C44.1526 51.893 44.9377 53.0063 44.9377 54.2674L44.9411 54.2708Z" fill="#929292"/>
</g>
<defs>
<clipPath id="clip0_113_2501">
<rect width="96" height="96.3871" fill="white"/>
</clipPath>
<clipPath id="clip1_113_2501">
<rect x="-0.193359" y="0.193359" width="96" height="96" rx="48" fill="white"/>
</clipPath>
<clipPath id="clip2_113_2501">
<rect x="31.2808" y="51.2905" width="13.2181" height="10.1079" rx="3.59452" fill="white"/>
</clipPath>
<clipPath id="clip3_113_2501">
<rect width="13.2181" height="10.1079" rx="3.59452" transform="matrix(-1 0 0 1 65.1035 51.2905)" fill="white"/>
</clipPath>
</defs>
</svg>
