<svg width="20" height="20" viewBox="0 0 20 20" fill="none" xmlns="http://www.w3.org/2000/svg">
<path fill-rule="evenodd" clip-rule="evenodd" d="M10.0625 12.5002C10.2059 11.7938 10.5892 11.1587 11.1473 10.7025C11.7055 10.2463 12.4042 9.99707 13.125 9.99707C13.8458 9.99707 14.5445 10.2463 15.1027 10.7025C15.6608 11.1587 16.0441 11.7938 16.1875 12.5002H18.125C18.2908 12.5002 18.4497 12.5661 18.5669 12.6833C18.6842 12.8005 18.75 12.9594 18.75 13.1252C18.75 13.291 18.6842 13.4499 18.5669 13.5671C18.4497 13.6844 18.2908 13.7502 18.125 13.7502H16.1875C16.0441 14.4566 15.6608 15.0917 15.1027 15.5479C14.5445 16.0041 13.8458 16.2533 13.125 16.2533C12.4042 16.2533 11.7055 16.0041 11.1473 15.5479C10.5892 15.0917 10.2059 14.4566 10.0625 13.7502H1.875C1.70924 13.7502 1.55027 13.6844 1.43306 13.5671C1.31585 13.4499 1.25 13.291 1.25 13.1252C1.25 12.9594 1.31585 12.8005 1.43306 12.6833C1.55027 12.5661 1.70924 12.5002 1.875 12.5002H10.0625ZM9.9375 7.5002C9.79405 8.20663 9.41079 8.84175 8.85266 9.29794C8.29453 9.75413 7.59585 10.0033 6.875 10.0033C6.15415 10.0033 5.45547 9.75413 4.89734 9.29794C4.33921 8.84175 3.95595 8.20663 3.8125 7.5002H1.875C1.70924 7.5002 1.55027 7.43436 1.43306 7.31714C1.31585 7.19993 1.25 7.04096 1.25 6.8752C1.25 6.70944 1.31585 6.55047 1.43306 6.43326C1.55027 6.31605 1.70924 6.2502 1.875 6.2502H3.8125C3.95595 5.54377 4.33921 4.90866 4.89734 4.45247C5.45547 3.99628 6.15415 3.74707 6.875 3.74707C7.59585 3.74707 8.29453 3.99628 8.85266 4.45247C9.41079 4.90866 9.79405 5.54377 9.9375 6.2502H18.125C18.2908 6.2502 18.4497 6.31605 18.5669 6.43326C18.6842 6.55047 18.75 6.70944 18.75 6.8752C18.75 7.04096 18.6842 7.19993 18.5669 7.31714C18.4497 7.43436 18.2908 7.5002 18.125 7.5002H9.9375ZM5 6.8752C5 7.12143 5.0485 7.36525 5.14273 7.59273C5.23695 7.82022 5.37506 8.02692 5.54917 8.20103C5.72328 8.37514 5.92998 8.51325 6.15747 8.60748C6.38495 8.7017 6.62877 8.7502 6.875 8.7502C7.12123 8.7502 7.36505 8.7017 7.59253 8.60748C7.82002 8.51325 8.02672 8.37514 8.20083 8.20103C8.37494 8.02692 8.51305 7.82022 8.60727 7.59273C8.7015 7.36525 8.75 7.12143 8.75 6.8752C8.75 6.37792 8.55246 5.90101 8.20083 5.54938C7.84919 5.19775 7.37228 5.0002 6.875 5.0002C6.37772 5.0002 5.90081 5.19775 5.54917 5.54938C5.19754 5.90101 5 6.37792 5 6.8752ZM15 13.1252C15 12.6279 14.8025 12.151 14.4508 11.7994C14.0992 11.4477 13.6223 11.2502 13.125 11.2502C12.6277 11.2502 12.1508 11.4477 11.7992 11.7994C11.4475 12.151 11.25 12.6279 11.25 13.1252C11.25 13.6225 11.4475 14.0994 11.7992 14.451C12.1508 14.8027 12.6277 15.0002 13.125 15.0002C13.6223 15.0002 14.0992 14.8027 14.4508 14.451C14.8025 14.0994 15 13.6225 15 13.1252Z" fill="#00B2ED"/>
</svg>
