<svg width="20" height="20" viewBox="0 0 20 20" fill="none" xmlns="http://www.w3.org/2000/svg">
<path d="M15.8346 10.8333V11.6667C15.8346 14.3333 15.8346 15.6666 15.0465 16.5268C14.9875 16.5911 14.9258 16.6529 14.8614 16.7118C14.0013 17.5 12.6679 17.5 10.0013 17.5V17.5C7.33466 17.5 6.00133 17.5 5.1412 16.7118C5.07685 16.6529 5.0151 16.5911 4.95614 16.5268C4.16797 15.6666 4.16797 14.3333 4.16797 11.6667V8.33333C4.16797 5.66669 4.16797 4.33336 4.95614 3.47323C5.0151 3.40888 5.07685 3.34713 5.1412 3.28817C6.00133 2.5 7.33466 2.5 10.0013 2.5V2.5" stroke="#00B2ED" stroke-linecap="round"/>
<path d="M15 2.5L15 7.5" stroke="#00B2ED" stroke-linecap="round"/>
<path d="M17.5 5L12.5 5" stroke="#00B2ED" stroke-linecap="round"/>
<path d="M7.5 10.8335L12.5 10.8335" stroke="#00B2ED" stroke-linecap="round"/>
<path d="M7.5 7.5L10.8333 7.5" stroke="#00B2ED" stroke-linecap="round"/>
<path d="M7.5 14.1665L10.8333 14.1665" stroke="#00B2ED" stroke-linecap="round"/>
</svg>
