<svg width="20" height="20" viewBox="0 0 20 20" fill="none" xmlns="http://www.w3.org/2000/svg">
<path d="M10.0013 1.6665C14.6038 1.6665 18.3346 5.39734 18.3346 9.99984C18.3346 14.6023 14.6038 18.3332 10.0013 18.3332C8.6713 18.335 7.36033 18.0172 6.17881 17.4065L2.99048 18.2957C2.81259 18.3453 2.62471 18.3468 2.44608 18.2999C2.26745 18.253 2.10449 18.1595 1.9739 18.0289C1.84331 17.8983 1.74979 17.7354 1.70292 17.5567C1.65604 17.3781 1.6575 17.1902 1.70714 17.0123L2.59714 13.8265C1.98494 12.644 1.66624 11.3315 1.66798 9.99984C1.66798 5.39734 5.39881 1.6665 10.0013 1.6665ZM10.0013 2.9165C8.12269 2.9165 6.32102 3.66278 4.99264 4.99116C3.66425 6.31955 2.91798 8.12122 2.91798 9.99984C2.91798 11.2248 3.22881 12.4023 3.81214 13.4473L3.93714 13.6723L3.01048 16.9923L6.33298 16.0657L6.55798 16.1907C7.5033 16.7162 8.55642 17.0184 9.6366 17.0738C10.7168 17.1293 11.7953 16.9367 12.7895 16.5107C13.7837 16.0848 14.6671 15.4368 15.3721 14.6165C16.077 13.7962 16.5848 12.8253 16.8564 11.7784C17.1279 10.7314 17.1562 9.63621 16.9388 8.57666C16.7215 7.51712 16.2645 6.52141 15.6027 5.66589C14.9409 4.81037 14.092 4.11777 13.121 3.64119C12.1501 3.16461 11.0829 2.91671 10.0013 2.9165ZM10.0013 12.9165C10.2223 12.9165 10.4343 13.0043 10.5906 13.1606C10.7468 13.3169 10.8346 13.5288 10.8346 13.7498C10.8346 13.9709 10.7468 14.1828 10.5906 14.3391C10.4343 14.4954 10.2223 14.5832 10.0013 14.5832C9.7803 14.5832 9.56833 14.4954 9.41205 14.3391C9.25577 14.1828 9.16798 13.9709 9.16798 13.7498C9.16798 13.5288 9.25577 13.3169 9.41205 13.1606C9.56833 13.0043 9.7803 12.9165 10.0013 12.9165ZM10.0013 5.62484C10.6091 5.62484 11.192 5.86628 11.6218 6.29605C12.0515 6.72582 12.293 7.30872 12.293 7.9165C12.293 8.75817 12.0455 9.22817 11.4171 9.88234L11.2763 10.0248C10.758 10.5432 10.6263 10.7632 10.6263 11.2498C10.6263 11.4156 10.5605 11.5746 10.4433 11.6918C10.326 11.809 10.1671 11.8748 10.0013 11.8748C9.83555 11.8748 9.67658 11.809 9.55937 11.6918C9.44216 11.5746 9.37631 11.4156 9.37631 11.2498C9.37631 10.4082 9.62381 9.93817 10.2521 9.284L10.393 9.1415C10.9113 8.62317 11.043 8.40317 11.043 7.9165C11.0421 7.65007 10.9392 7.39409 10.7554 7.20121C10.5716 7.00834 10.3208 6.89324 10.0547 6.87957C9.78864 6.86591 9.52743 6.95473 9.32483 7.12777C9.12222 7.3008 8.99362 7.54489 8.96548 7.80984L8.95964 7.9165C8.95964 8.08226 8.89379 8.24123 8.77658 8.35845C8.65937 8.47566 8.5004 8.5415 8.33464 8.5415C8.16888 8.5415 8.00991 8.47566 7.8927 8.35845C7.77549 8.24123 7.70964 8.08226 7.70964 7.9165C7.70964 7.30872 7.95109 6.72582 8.38086 6.29605C8.81063 5.86628 9.39352 5.62484 10.0013 5.62484Z" fill="#00B2ED"/>
</svg>
