<svg width="20" height="20" viewBox="0 0 20 20" fill="none" xmlns="http://www.w3.org/2000/svg">
<path d="M3.4388 3.54167C3.24542 3.54167 3.05995 3.61849 2.9232 3.75523C2.78646 3.89198 2.70964 4.07745 2.70964 4.27083V14.8958C2.70964 15.3102 2.87426 15.7077 3.16728 16.0007C3.46031 16.2937 3.85773 16.4583 4.27214 16.4583H10.9396C10.87 16.2749 10.8344 16.0804 10.8346 15.8842V4.27083C10.8346 4.07745 10.7578 3.89198 10.6211 3.75523C10.4843 3.61849 10.2989 3.54167 10.1055 3.54167H3.4388ZM12.3451 17.4967V17.5H4.27214C3.58147 17.5 2.91909 17.2256 2.43071 16.7373C1.94234 16.2489 1.66797 15.5865 1.66797 14.8958V4.27083C1.66797 3.80118 1.85454 3.35076 2.18663 3.01867C2.51873 2.68657 2.96915 2.5 3.4388 2.5H10.1055C10.5751 2.5 11.0255 2.68657 11.3576 3.01867C11.6897 3.35076 11.8763 3.80118 11.8763 4.27083V5.83333H16.668V5.83458C17.5942 5.86833 18.3346 6.63 18.3346 7.56458V12.3958C18.3346 12.8655 18.1481 13.3159 17.816 13.648C17.4839 13.9801 17.0335 14.1667 16.5638 14.1667H14.4742L14.0301 16.225C13.9483 16.6038 13.7332 16.9406 13.4239 17.174C13.1146 17.4075 12.7317 17.522 12.3451 17.4967ZM11.8763 15.8842C11.8759 16.0262 11.9281 16.1634 12.023 16.2692C12.1178 16.3749 12.2485 16.4418 12.3897 16.4568C12.531 16.4718 12.6728 16.434 12.7878 16.3505C12.9027 16.2671 12.9827 16.144 13.0121 16.005L14.9113 7.19958C14.9355 7.08625 14.9705 6.97792 15.0155 6.875H11.8763V15.8842ZM15.9296 7.41917L14.6988 13.125H16.5638C16.7572 13.125 16.9427 13.0482 17.0794 12.9114C17.2161 12.7747 17.293 12.5892 17.293 12.3958V7.56458C17.2931 7.39428 17.2302 7.22997 17.1163 7.10329C17.0025 6.97661 16.8458 6.89653 16.6765 6.87847C16.5072 6.86041 16.3371 6.90566 16.1992 7.00549C16.0612 7.10532 15.9654 7.25267 15.9296 7.41917ZM4.79297 7.08333C4.95873 7.08333 5.1177 7.01749 5.23491 6.90027C5.35212 6.78306 5.41797 6.62409 5.41797 6.45833C5.41797 6.29257 5.35212 6.1336 5.23491 6.01639C5.1177 5.89918 4.95873 5.83333 4.79297 5.83333C4.62721 5.83333 4.46824 5.89918 4.35103 6.01639C4.23382 6.1336 4.16797 6.29257 4.16797 6.45833C4.16797 6.62409 4.23382 6.78306 4.35103 6.90027C4.46824 7.01749 4.62721 7.08333 4.79297 7.08333ZM4.16797 9.6875C4.16797 9.4 4.4013 9.16667 4.6888 9.16667H9.0638C9.20194 9.16667 9.33441 9.22154 9.43209 9.31922C9.52976 9.41689 9.58464 9.54937 9.58464 9.6875C9.58464 9.82563 9.52976 9.95811 9.43209 10.0558C9.33441 10.1535 9.20194 10.2083 9.0638 10.2083H4.6888C4.4013 10.2083 4.16797 9.975 4.16797 9.6875ZM4.6888 12.5C4.55067 12.5 4.41819 12.5549 4.32052 12.6525C4.22284 12.7502 4.16797 12.8827 4.16797 13.0208C4.16797 13.159 4.22284 13.2914 4.32052 13.3891C4.41819 13.4868 4.55067 13.5417 4.6888 13.5417H9.0638C9.20194 13.5417 9.33441 13.4868 9.43209 13.3891C9.52976 13.2914 9.58464 13.159 9.58464 13.0208C9.58464 12.8827 9.52976 12.7502 9.43209 12.6525C9.33441 12.5549 9.20194 12.5 9.0638 12.5H4.6888Z" fill="#00B2ED"/>
</svg>
