<svg width="24" height="24" viewBox="0 0 24 24" fill="none" xmlns="http://www.w3.org/2000/svg">
<path d="M3 11L12 8L21 11M12 2V21.5" stroke="#00B2ED" stroke-width="1.5"/>
<path d="M3.193 14C4.05 18.298 7.576 20.513 9.899 21.527C10.62 21.842 10.981 22 12 22C13.02 22 13.38 21.842 14.101 21.527C14.68 21.275 15.332 20.947 16 20.533M19 17.904C20.163 16.428 21 14.496 21 11.991V10.417C21 7.219 21 5.62 20.622 5.082C20.245 4.545 18.742 4.03 15.735 3.001L15.162 2.805C13.595 2.268 12.812 2 12 2C11.189 2 10.405 2.268 8.838 2.805L8.265 3C5.258 4.03 3.755 4.545 3.378 5.082C3 5.62 3 7.22 3 10.417V11" stroke="#00B2ED" stroke-width="1.5" stroke-linecap="round"/>
</svg>
