<svg width="16" height="16" viewBox="0 0 16 16" fill="none" xmlns="http://www.w3.org/2000/svg">
<path d="M11.1413 10.9336L9.63067 12.4436C9.56844 12.5059 9.49422 12.535 9.408 12.531C9.32133 12.5265 9.24689 12.4932 9.18467 12.431C9.12245 12.3687 9.09133 12.2916 9.09133 12.1996C9.09133 12.1076 9.12245 12.0319 9.18467 11.9723L10.682 10.475L9.172 8.9643C9.10978 8.90208 9.08067 8.82563 9.08467 8.73497C9.08911 8.6443 9.12245 8.56786 9.18467 8.50563C9.24689 8.44341 9.324 8.4123 9.416 8.4123C9.508 8.4123 9.58378 8.44341 9.64333 8.50563L11.1413 10.0156L12.6513 8.50563C12.7109 8.44341 12.7864 8.4123 12.878 8.4123C12.9696 8.4123 13.0469 8.44341 13.11 8.50563C13.1722 8.56786 13.2033 8.64497 13.2033 8.73697C13.2033 8.82897 13.1722 8.90475 13.11 8.9643L11.6 10.475L13.11 11.985C13.1722 12.0472 13.2033 12.1216 13.2033 12.2083C13.2033 12.2945 13.1722 12.3687 13.11 12.431C13.0478 12.4932 12.9707 12.5243 12.8787 12.5243C12.7867 12.5243 12.7109 12.4932 12.6513 12.431L11.1413 10.9336ZM10.7207 6.18097L13.318 3.58363C13.3829 3.51875 13.4616 3.48475 13.554 3.48163C13.646 3.47852 13.7247 3.51386 13.79 3.58763C13.8522 3.65563 13.8833 3.73497 13.8833 3.82563C13.8833 3.9163 13.8522 3.99408 13.79 4.05897L11.114 6.73897C11.0064 6.84652 10.8809 6.9003 10.7373 6.9003C10.5938 6.9003 10.468 6.84652 10.36 6.73897L9.068 5.4463C9.00578 5.38408 8.97689 5.30763 8.98133 5.21697C8.98533 5.1263 9.01867 5.04986 9.08133 4.98763C9.14356 4.92541 9.22067 4.8943 9.31267 4.8943C9.40467 4.8943 9.48022 4.92541 9.53933 4.98763L10.7207 6.18097ZM2.33333 10.077H7C7.09467 10.077 7.17378 10.109 7.23733 10.173C7.30089 10.237 7.33289 10.3163 7.33333 10.411C7.33333 10.5056 7.30133 10.5847 7.23733 10.6483C7.17333 10.7119 7.09422 10.7436 7 10.7436H2.33333C2.23867 10.7436 2.15956 10.7116 2.096 10.6476C2.03244 10.5836 2.00044 10.5045 2 10.4103C2 10.3156 2.032 10.2365 2.096 10.173C2.16 10.1094 2.23911 10.0774 2.33333 10.077ZM2.33333 5.25697H7C7.09467 5.25697 7.17378 5.28897 7.23733 5.35297C7.30089 5.41697 7.33289 5.49608 7.33333 5.5903C7.33333 5.68497 7.30133 5.76408 7.23733 5.82763C7.17333 5.89119 7.09422 5.92319 7 5.92363H2.33333C2.23867 5.92363 2.15956 5.89163 2.096 5.82763C2.03244 5.76363 2.00044 5.6843 2 5.58963C2 5.49497 2.032 5.41586 2.096 5.3523C2.16 5.28874 2.23911 5.25697 2.33333 5.25697Z" 
fill="#00B2ED"/>
</svg>
