<svg width="24" height="24" viewBox="0 0 24 24" fill="none" xmlns="http://www.w3.org/2000/svg">
<rect width="24" height="24" rx="12" fill="white"/>
<path fill-rule="evenodd" clip-rule="evenodd" d="M13.0954 12.0007L16.432 8.66398C16.5798 8.52398 16.6654 8.32954 16.6654 8.11176C16.6654 7.68398 16.3154 7.33398 15.8876 7.33398C15.6698 7.33398 15.4754 7.41954 15.3354 7.55954L11.9987 10.904L8.66203 7.55954C8.52203 7.41954 8.32759 7.33398 8.10981 7.33398C7.68203 7.33398 7.33203 7.68398 7.33203 8.11176C7.33203 8.32954 7.41759 8.52398 7.55759 8.66398L10.902 12.0007L7.56536 15.3373C7.41759 15.4773 7.33203 15.6718 7.33203 15.8895C7.33203 16.3173 7.68203 16.6673 8.10981 16.6673C8.32759 16.6673 8.52203 16.5818 8.66203 16.4418L11.9987 13.0973L15.3354 16.434C15.4754 16.5818 15.6698 16.6673 15.8876 16.6673C16.3154 16.6673 16.6654 16.3173 16.6654 15.8895C16.6654 15.6718 16.5798 15.4773 16.4398 15.3373L13.0954 12.0007Z" fill="#121212"/>
</svg>
