<svg width="20" height="20" viewBox="0 0 20 20" fill="none" xmlns="http://www.w3.org/2000/svg">
<path d="M11.4063 6.2501C11.4063 6.12577 11.4557 6.00655 11.5436 5.91864C11.6315 5.83073 11.7507 5.78135 11.875 5.78135H19.375C19.4994 5.78135 19.6186 5.83073 19.7065 5.91864C19.7944 6.00655 19.8438 6.12577 19.8438 6.2501C19.8438 6.37442 19.7944 6.49364 19.7065 6.58155C19.6186 6.66946 19.4994 6.71885 19.375 6.71885H11.875C11.7507 6.71885 11.6315 6.66946 11.5436 6.58155C11.4557 6.49364 11.4063 6.37442 11.4063 6.2501ZM19.375 9.53135H11.875C11.7507 9.53135 11.6315 9.58073 11.5436 9.66864C11.4557 9.75655 11.4063 9.87578 11.4063 10.0001C11.4063 10.1244 11.4557 10.2436 11.5436 10.3316C11.6315 10.4195 11.7507 10.4688 11.875 10.4688H19.375C19.4994 10.4688 19.6186 10.4195 19.7065 10.3316C19.7944 10.2436 19.8438 10.1244 19.8438 10.0001C19.8438 9.87578 19.7944 9.75655 19.7065 9.66864C19.6186 9.58073 19.4994 9.53135 19.375 9.53135ZM19.375 13.2813H13.75C13.6257 13.2813 13.5065 13.3307 13.4186 13.4186C13.3307 13.5065 13.2813 13.6258 13.2813 13.7501C13.2813 13.8744 13.3307 13.9936 13.4186 14.0816C13.5065 14.1695 13.6257 14.2188 13.75 14.2188H19.375C19.4994 14.2188 19.6186 14.1695 19.7065 14.0816C19.7944 13.9936 19.8438 13.8744 19.8438 13.7501C19.8438 13.6258 19.7944 13.5065 19.7065 13.4186C19.6186 13.3307 19.4994 13.2813 19.375 13.2813ZM11.7039 14.8829C11.7193 14.9425 11.7228 15.0046 11.7142 15.0655C11.7056 15.1265 11.6851 15.1852 11.6539 15.2382C11.6226 15.2912 11.5812 15.3376 11.532 15.3746C11.4828 15.4116 11.4268 15.4386 11.3672 15.454C11.3076 15.4694 11.2456 15.4729 11.1846 15.4643C11.1236 15.4557 11.065 15.4352 11.0119 15.4039C10.9589 15.3727 10.9126 15.3312 10.8755 15.2821C10.8385 15.2329 10.8115 15.1769 10.7961 15.1173C10.2891 13.1478 8.37738 11.7188 6.25004 11.7188C4.1227 11.7188 2.21098 13.1478 1.70395 15.1165C1.68856 15.1761 1.66158 15.2321 1.62455 15.2813C1.58752 15.3305 1.54117 15.3719 1.48814 15.4031C1.4351 15.4344 1.37643 15.4549 1.31548 15.4635C1.25452 15.4721 1.19246 15.4686 1.13285 15.4532C1.07324 15.4378 1.01725 15.4109 0.96807 15.3738C0.918889 15.3368 0.877483 15.2904 0.846215 15.2374C0.814948 15.1844 0.794432 15.1257 0.785839 15.0647C0.777246 15.0038 0.780744 14.9417 0.796133 14.8821C1.24457 13.1415 2.59301 11.7517 4.28598 11.1321C3.63753 10.7089 3.1431 10.0876 2.87632 9.36073C2.60954 8.63383 2.58468 7.84019 2.80543 7.09801C3.02618 6.35583 3.48074 5.70479 4.10143 5.24185C4.72211 4.7789 5.47572 4.52881 6.25004 4.52881C7.02436 4.52881 7.77797 4.7789 8.39865 5.24185C9.01934 5.70479 9.4739 6.35583 9.69465 7.09801C9.9154 7.84019 9.89054 8.63383 9.62376 9.36073C9.35698 10.0876 8.86255 10.7089 8.2141 11.1321C9.90551 11.7524 11.2563 13.1423 11.7039 14.8829ZM6.25004 10.7813C6.7754 10.7813 7.28896 10.6256 7.72577 10.3337C8.16259 10.0418 8.50305 9.62696 8.70409 9.1416C8.90514 8.65623 8.95774 8.12215 8.85525 7.60689C8.75276 7.09162 8.49978 6.61833 8.12829 6.24684C7.75681 5.87536 7.28351 5.62238 6.76825 5.51988C6.25299 5.41739 5.7189 5.46999 5.23354 5.67104C4.74817 5.87209 4.33332 6.21254 4.04145 6.64936C3.74958 7.08618 3.59379 7.59974 3.59379 8.1251C3.59379 8.82958 3.87364 9.5052 4.37179 10.0033C4.86993 10.5015 5.54556 10.7813 6.25004 10.7813Z" fill="#00B2ED"/>
</svg>
