<svg width="638" height="94" viewBox="0 0 638 94" fill="none" xmlns="http://www.w3.org/2000/svg">
<path d="M25.696 92L25.696 20.064L0.0960002 20.064L0.0960002 2.39999L69.792 2.39999V20.064L44.128 20.064L44.128 92L25.696 92ZM83.609 92L83.609 2.39999L126.233 2.39999C133.742 2.39999 139.694 3.72266 144.089 6.368C148.526 8.97066 151.684 12.448 153.561 16.8C155.481 21.1093 156.441 25.7813 156.441 30.816C156.441 34.1867 155.801 37.6 154.521 41.056C153.284 44.512 151.406 47.6693 148.889 50.528C146.372 53.344 143.257 55.4347 139.545 56.8L156.697 92H136.089L119.577 59.552H102.041V92H83.609ZM102.041 42.208L126.489 42.208C129.22 42.208 131.374 41.6747 132.953 40.608C134.574 39.5413 135.705 38.1547 136.345 36.448C137.028 34.6987 137.369 32.8427 137.369 30.88C137.369 29.088 137.049 27.3387 136.409 25.632C135.812 23.9253 134.702 22.5173 133.081 21.408C131.502 20.2987 129.305 19.744 126.489 19.744L102.041 19.744L102.041 42.208ZM172.984 92L172.984 2.39999L235.96 2.39999V19.872L191.416 19.872V37.024L216.824 37.024V54.496H191.416L191.416 74.4L238.584 74.4V92L172.984 92ZM253.609 92V2.39999H270.505L304.361 51.488C304.788 52.1707 305.406 53.1947 306.217 54.56C307.028 55.9253 307.646 57.12 308.073 58.144C307.945 57.248 307.838 56.096 307.753 54.688C307.71 53.2373 307.689 52.1493 307.689 51.424V2.39999L325.993 2.39999V92H309.801L275.241 42.528C274.772 41.8453 274.132 40.8 273.321 39.392C272.553 37.984 271.934 36.768 271.465 35.744C271.636 36.8533 271.721 38.048 271.721 39.328C271.764 40.5653 271.785 41.632 271.785 42.528V92H253.609ZM345.734 92V2.39999L377.862 2.39999C385.67 2.39999 392.326 3.65866 397.83 6.17599C403.334 8.69333 407.814 12.1067 411.27 16.416C414.726 20.6827 417.243 25.4827 418.822 30.816C420.401 36.1493 421.19 41.6107 421.19 47.2C421.19 52.2773 420.422 57.44 418.886 62.688C417.393 67.936 414.939 72.7787 411.526 77.216C408.155 81.6533 403.675 85.2373 398.086 87.968C392.497 90.656 385.585 92 377.35 92H345.734ZM364.166 74.464H379.142C383.366 74.464 386.929 73.6533 389.83 72.032C392.774 70.4107 395.142 68.256 396.934 65.568C398.726 62.88 400.027 59.936 400.838 56.736C401.691 53.536 402.118 50.3573 402.118 47.2C402.118 43.872 401.691 40.5867 400.838 37.344C399.985 34.1013 398.683 31.1573 396.934 28.512C395.227 25.8667 393.009 23.7547 390.278 22.176C387.547 20.5973 384.305 19.808 380.55 19.808L364.166 19.808V74.464ZM437.359 92V2.39999L455.791 2.39999V92H437.359ZM475.484 92V2.39999H492.38L526.236 51.488C526.663 52.1707 527.281 53.1947 528.092 54.56C528.903 55.9253 529.521 57.12 529.948 58.144C529.82 57.248 529.713 56.096 529.628 54.688C529.585 53.2373 529.564 52.1493 529.564 51.424V2.39999L547.868 2.39999V92H531.676L497.116 42.528C496.647 41.8453 496.007 40.8 495.196 39.392C494.428 37.984 493.809 36.768 493.34 35.744C493.511 36.8533 493.596 38.048 493.596 39.328C493.639 40.5653 493.66 41.632 493.66 42.528V92L475.484 92ZM603.891 93.536C596.979 93.536 591.027 92.256 586.035 89.696C581.086 87.0933 577.032 83.5947 573.875 79.2C570.718 74.7627 568.371 69.792 566.835 64.288C565.299 58.7413 564.531 53.0453 564.531 47.2C564.531 41.696 565.299 36.2347 566.835 30.816C568.414 25.3547 570.803 20.3627 574.003 15.84C577.246 11.3173 581.342 7.69067 586.291 4.96C591.24 2.22933 597.107 0.863998 603.891 0.863998C609.651 0.863998 614.558 1.824 618.611 3.744C622.664 5.62133 626.099 8.07466 628.915 11.104C631.731 14.1333 634.206 17.3333 636.339 20.704L620.211 29.856C618.248 26.784 615.966 24.1173 613.363 21.856C610.76 19.552 607.603 18.4 603.891 18.4C600.008 18.4 596.766 19.296 594.163 21.088C591.56 22.88 589.491 25.2053 587.955 28.064C586.419 30.9227 585.31 34.0373 584.627 37.408C583.944 40.7787 583.603 44.0427 583.603 47.2C583.603 50.8267 583.987 54.368 584.755 57.824C585.523 61.2373 586.696 64.3093 588.275 67.04C589.896 69.7707 591.987 71.9467 594.547 73.568C597.15 75.1467 600.264 75.936 603.891 75.936C606.494 75.936 608.883 75.36 611.059 74.208C613.278 73.0133 615.048 71.4347 616.371 69.472C617.694 67.4667 618.355 65.2907 618.355 62.944V61.92H603.507V44.384H637.235V58.016C637.235 65.6533 635.763 72.1173 632.819 77.408C629.875 82.6987 625.886 86.7093 620.851 89.44C615.816 92.1707 610.163 93.536 603.891 93.536Z" fill="url(#paint0_linear_45_49641)"/>
<defs>
<linearGradient id="paint0_linear_45_49641" x1="320.5" y1="-21" x2="320.5" y2="141" gradientUnits="userSpaceOnUse">
<stop stop-color="#DFDFDF"/>
<stop offset="1" stop-color="#DFDFDF" stop-opacity="0"/>
</linearGradient>
</defs>
</svg>
