<svg width="94" height="638" viewBox="0 0 94 638" fill="none" xmlns="http://www.w3.org/2000/svg">
<path d="M92 612.304L20.064 612.304L20.064 637.904L2.39999 637.904L2.39999 568.208L20.064 568.208L20.064 593.872L92 593.872L92 612.304ZM92 554.391L2.39999 554.391L2.39999 511.767C2.39999 504.258 3.72266 498.306 6.36799 493.911C8.97066 489.474 12.448 486.316 16.8 484.439C21.1093 482.519 25.7813 481.559 30.816 481.559C34.1867 481.559 37.6 482.199 41.056 483.479C44.512 484.716 47.6693 486.594 50.528 489.111C53.344 491.628 55.4347 494.743 56.8 498.455L92 481.303L92 501.911L59.552 518.423L59.552 535.959L92 535.959L92 554.391ZM42.208 535.959L42.208 511.511C42.208 508.78 41.6747 506.626 40.608 505.047C39.5413 503.426 38.1547 502.295 36.448 501.655C34.6987 500.972 32.8427 500.631 30.88 500.631C29.088 500.631 27.3387 500.951 25.632 501.591C23.9253 502.188 22.5173 503.298 21.408 504.919C20.2987 506.498 19.744 508.695 19.744 511.511L19.744 535.959L42.208 535.959ZM92 465.016L2.39999 465.016L2.39998 402.04L19.872 402.04L19.872 446.584L37.024 446.584L37.024 421.176L54.496 421.176L54.496 446.584L74.4 446.584L74.4 399.416L92 399.416L92 465.016ZM92 384.391L2.39998 384.391L2.39998 367.495L51.488 333.639C52.1707 333.212 53.1947 332.594 54.56 331.783C55.9253 330.972 57.12 330.354 58.144 329.927C57.248 330.055 56.096 330.162 54.688 330.247C53.2373 330.29 52.1493 330.311 51.424 330.311L2.39998 330.311L2.39998 312.007L92 312.007L92 328.199L42.528 362.759C41.8453 363.228 40.8 363.868 39.392 364.679C37.984 365.447 36.768 366.066 35.744 366.535C36.8533 366.364 38.048 366.279 39.328 366.279C40.5653 366.236 41.632 366.215 42.528 366.215L92 366.215L92 384.391ZM92 292.266L2.39998 292.266L2.39998 260.138C2.39998 252.33 3.65864 245.674 6.17598 240.17C8.69331 234.666 12.1066 230.186 16.416 226.73C20.6826 223.274 25.4826 220.757 30.816 219.178C36.1493 217.599 41.6106 216.81 47.2 216.81C52.2773 216.81 57.44 217.578 62.688 219.114C67.936 220.607 72.7786 223.061 77.216 226.474C81.6533 229.845 85.2373 234.325 87.968 239.914C90.656 245.503 92 252.415 92 260.65L92 292.266ZM74.464 273.834L74.464 258.858C74.464 254.634 73.6533 251.071 72.032 248.17C70.4106 245.226 68.256 242.858 65.568 241.066C62.88 239.274 59.936 237.973 56.736 237.162C53.536 236.309 50.3573 235.882 47.2 235.882C43.872 235.882 40.5866 236.309 37.344 237.162C34.1013 238.015 31.1573 239.317 28.512 241.066C25.8666 242.773 23.7546 244.991 22.176 247.722C20.5973 250.453 19.808 253.695 19.808 257.45L19.808 273.834L74.464 273.834ZM92 200.641L2.39997 200.641L2.39997 182.209L92 182.209L92 200.641ZM92 162.516L2.39997 162.516L2.39997 145.62L51.488 111.764C52.1706 111.337 53.1946 110.719 54.56 109.908C55.9253 109.097 57.12 108.479 58.144 108.052C57.248 108.18 56.096 108.287 54.688 108.372C53.2373 108.415 52.1493 108.436 51.424 108.436L2.39997 108.436L2.39997 90.132L92 90.132L92 106.324L42.528 140.884C41.8453 141.353 40.8 141.993 39.392 142.804C37.984 143.572 36.768 144.191 35.744 144.66C36.8533 144.489 38.048 144.404 39.328 144.404C40.5653 144.361 41.632 144.34 42.528 144.34L92 144.34L92 162.516ZM93.536 34.109C93.536 41.021 92.256 46.973 89.696 51.965C87.0933 56.9143 83.5946 60.9677 79.2 64.125C74.7626 67.2823 69.792 69.629 64.288 71.165C58.7413 72.701 53.0453 73.469 47.2 73.469C41.696 73.469 36.2346 72.701 30.816 71.165C25.3546 69.5863 20.3626 67.197 15.84 63.997C11.3173 60.7543 7.69064 56.6583 4.95997 51.709C2.22931 46.7597 0.863972 40.893 0.863972 34.109C0.863972 28.349 1.82397 23.4423 3.74397 19.389C5.6213 15.3357 8.07464 11.901 11.104 9.085C14.1333 6.269 17.3333 3.79433 20.704 1.66099L29.856 17.789C26.784 19.7517 24.1173 22.0343 21.856 24.637C19.552 27.2397 18.4 30.397 18.4 34.109C18.4 37.9917 19.296 41.2343 21.088 43.837C22.88 46.4397 25.2053 48.509 28.064 50.045C30.9226 51.581 34.0373 52.6903 37.408 53.373C40.7786 54.0557 44.0426 54.397 47.2 54.397C50.8266 54.397 54.368 54.013 57.824 53.245C61.2373 52.477 64.3093 51.3037 67.04 49.725C69.7706 48.1037 71.9466 46.013 73.568 43.453C75.1466 40.8503 75.936 37.7357 75.936 34.109C75.936 31.5063 75.36 29.117 74.208 26.941C73.0133 24.7223 71.4346 22.9517 69.472 21.629C67.4666 20.3063 65.2906 19.645 62.944 19.645L61.92 19.645L61.92 34.493L44.384 34.493L44.384 0.764997L58.016 0.764996C65.6533 0.764996 72.1173 2.237 77.408 5.181C82.6986 8.125 86.7093 12.1143 89.44 17.149C92.1706 22.1837 93.536 27.837 93.536 34.109Z" fill="#DFDFDF"/>
</svg>
