<svg id="Group_24892" data-name="Group 24892" xmlns="http://www.w3.org/2000/svg" xmlns:xlink="http://www.w3.org/1999/xlink" width="24.319" height="25.425" viewBox="0 0 24.319 25.425">
  <defs>
    <clipPath id="clip-path">
      <rect id="Rectangle_423" data-name="Rectangle 423" width="24.319" height="25.425" fill="#7d7d7d"/>
    </clipPath>
  </defs>
  <rect id="Rectangle_421" data-name="Rectangle 421" width="1.041" height="15.387" transform="translate(0 8.209)" fill="#7d7d7d"/>
  <g id="Group_24891" data-name="Group 24891" transform="translate(0 0)">
    <g id="Group_24890" data-name="Group 24890" transform="translate(0 0)" clip-path="url(#clip-path)">
      <path id="Path_8244" data-name="Path 8244" d="M55.261,84.738H45.532a3.515,3.515,0,0,0-2.066.639,2.135,2.135,0,0,0-.945,1.711h1.041a1.122,1.122,0,0,1,.518-.873,2.47,2.47,0,0,1,1.451-.435h9.729Z" transform="translate(-30.943 -61.663)" fill="#7d7d7d" fill-rule="evenodd"/>
      <path id="Path_8245" data-name="Path 8245" d="M8.164,22.5h2.044v1.041H8.684V37.459H14.6a3.444,3.444,0,0,1,2.644,1.311l.015.018V31.616H18.3V41.8H17.26a3.7,3.7,0,0,0-.812-2.366A2.42,2.42,0,0,0,14.6,38.5H7.643v-16Z" transform="translate(-5.562 -16.374)" fill="#7d7d7d" fill-rule="evenodd"/>
      <path id="Path_8246" data-name="Path 8246" d="M52.576,23.542H51.031V22.5h2.586v16H46.659a2.419,2.419,0,0,0-1.847.933A3.7,3.7,0,0,0,44,41.8H42.959V31.617H44v7.171l.014-.018a3.446,3.446,0,0,1,2.644-1.311h5.917Z" transform="translate(-31.261 -16.374)" fill="#7d7d7d" fill-rule="evenodd"/>
      <path id="Path_8247" data-name="Path 8247" d="M0,84.738H9.729a3.513,3.513,0,0,1,2.066.639,2.135,2.135,0,0,1,.945,1.711H11.7a1.122,1.122,0,0,0-.518-.873,2.471,2.471,0,0,0-1.452-.435H0Z" transform="translate(0 -61.663)" fill="#7d7d7d" fill-rule="evenodd"/>
      <rect id="Rectangle_422" data-name="Rectangle 422" width="1.041" height="15.387" transform="translate(23.277 8.209)" fill="#7d7d7d"/>
      <path id="Path_8248" data-name="Path 8248" d="M26.559,13.536h.719V12.4h.543v-.841h-1.8V12.4h.543Zm-.543-2.779h1.8v-.694l.267-.094a3.506,3.506,0,1,0-2.34,0l.268.094Zm-4.062.344,1.232-1.232.566.567-1.292,1.292-.566-.566Zm8.188-8.189L31.376,1.68l.566.566L30.65,3.538l-.566-.567ZM20.3,6.3h1.743v.8H20.215V6.3Zm11.581,0h1.743v.8H31.8V6.3ZM22.521,1.74l1.232,1.232-.566.567L21.9,2.247l.566-.566ZM30.71,9.929l1.232,1.232-.566.566-1.292-1.292.566-.566ZM27.319.084V1.826h-.8V0h.8ZM23.964,6.827A3.122,3.122,0,0,1,27.087,3.7h.084v.8h-.084a2.319,2.319,0,0,0-2.322,2.321v.085h-.8Zm3.715,7.51H25.758V13.2h-.542V10.618A4.316,4.316,0,1,1,30.44,9.143a4.329,4.329,0,0,1-1.818,1.475V13.2h-.543v1.136Z" transform="translate(-14.71 0)" fill="#7d7d7d" fill-rule="evenodd"/>
    </g>
  </g>
</svg>
