<svg xmlns="http://www.w3.org/2000/svg" xmlns:xlink="http://www.w3.org/1999/xlink" width="16.001" height="16.235" viewBox="0 0 16.001 16.235">
  <defs>
    <clipPath id="clip-path">
      <rect id="Rectangle_336" data-name="Rectangle 336" width="12.996" height="9.83" fill="#00B2ED"/>
    </clipPath>
  </defs>
  <g id="Group_24793" data-name="Group 24793" transform="translate(0 9.657) rotate(-48)">
    <g id="Group_24786" data-name="Group 24786" transform="translate(0 0)" clip-path="url(#clip-path)">
      <path id="Path_8048" data-name="Path 8048" d="M12.729,5.66c.012-.014.021-.029.032-.043s.025-.032.036-.049.022-.035.032-.053.019-.03.027-.045.018-.037.027-.056.016-.032.023-.049.014-.037.02-.056.013-.035.019-.052.01-.039.015-.058.009-.035.013-.053.007-.047.011-.07,0-.029.006-.044a1.167,1.167,0,0,0,0-.233c0-.015,0-.029-.006-.044s-.006-.047-.011-.07-.009-.035-.013-.053-.009-.039-.015-.058-.012-.035-.019-.052-.013-.037-.02-.056-.015-.032-.023-.049-.017-.037-.027-.056-.018-.03-.027-.045-.021-.036-.032-.053-.024-.033-.036-.049-.021-.029-.032-.043c-.025-.03-.051-.059-.078-.086L8.912.344A1.176,1.176,0,0,0,7.25,2.007L8.981,3.739H1.176a1.176,1.176,0,1,0,0,2.352H8.981L7.25,7.822A1.176,1.176,0,1,0,8.912,9.485l3.739-3.739q.041-.041.078-.086" transform="translate(0 0)" fill="#00B2ED"/>
    </g>
  </g>
</svg>
