<svg width="59" height="56" viewBox="0 0 59 56" fill="none" xmlns="http://www.w3.org/2000/svg">
<path d="M2.19732 48.5531C2.38232 46.3531 2.77032 43.8111 2.76732 41.2691C2.76732 37.5821 2.45332 33.8951 2.32532 30.2071C2.23332 27.5731 2.38632 24.9291 2.14332 22.3071C1.75232 18.0681 1.68132 13.8181 0.691325 9.61611C0.375631 8.57527 0.283704 7.47942 0.421582 6.40052C0.559459 5.32163 0.924022 4.28411 1.49132 3.35611C1.91182 2.70292 2.43525 2.12207 3.04132 1.63611C3.75641 1.12745 4.5853 0.801851 5.45542 0.687835C6.32553 0.57382 7.21032 0.674862 8.03232 0.982114C8.72271 1.20868 9.37679 1.5337 9.97433 1.94711C13.2069 4.14154 16.6781 5.96186 20.3213 7.37311C26.5093 10.0391 32.8433 12.5511 38.6633 15.6131C43.9563 18.3981 49.1413 21.2851 54.3633 24.1391C55.3853 24.6981 56.3333 25.3231 57.3403 25.8951C58.6893 26.6611 59.0673 27.6951 58.6193 28.7811C58.2086 29.7339 57.6049 30.5913 56.8463 31.2991C54.3282 33.5586 51.4928 35.4372 48.4303 36.8751C45.0953 38.5341 41.6723 40.1201 38.1473 41.5751C32.4977 43.8918 27.0103 46.5859 21.7223 49.6391C19.1223 51.1391 16.4303 52.5691 13.7373 53.9901C12.0315 54.9288 10.1274 55.4497 8.18132 55.5101C5.68132 55.5671 3.93932 54.7761 2.98132 53.1441C2.28241 51.7215 2.01012 50.127 2.19732 48.5531ZM33.9053 16.6641C33.6053 17.4851 32.8173 18.0791 33.0103 18.9121C33.0383 19.0331 32.7223 19.2621 32.5023 19.3191C32.3743 19.3521 31.9673 19.1531 31.9533 19.0411C31.9354 18.7769 32.0012 18.5138 32.1413 18.2891C32.5013 17.6591 32.9113 17.0441 33.3213 16.3891L31.2423 15.4161C30.7663 15.9161 30.3243 16.3661 29.9203 16.8271C29.6673 17.1161 29.4713 17.4271 30.2313 17.7181C29.8313 17.8481 29.4963 18.0391 29.3583 17.9841C29.1283 17.8931 28.8583 17.6221 28.9003 17.4651C29.0126 17.0431 29.2114 16.6491 29.4843 16.3081C29.8581 15.8999 30.259 15.5173 30.6843 15.1631L28.2723 14.0931C27.8233 15.0531 27.4333 15.9131 27.0093 16.7651C26.9423 16.9001 26.7203 16.9971 26.5693 17.1111C26.4353 16.9901 26.1593 16.8461 26.1913 16.7511C26.3414 16.2654 26.5464 15.7984 26.8023 15.3591C27.1023 14.8681 27.5023 14.4081 27.8713 13.9091L25.6523 12.9441L23.8613 15.7391C24.1383 15.8871 24.4853 16.0111 24.4613 16.0731C24.4231 16.1735 24.3651 16.2652 24.2907 16.3427C24.2163 16.4201 24.1271 16.4819 24.0283 16.5241C23.7693 16.626 23.4852 16.6462 23.2143 16.5821C23.0143 16.5021 22.8143 16.2191 22.8643 16.0661C23.0227 15.5394 23.2554 15.0381 23.5553 14.5771C23.9903 13.9361 24.5403 13.3341 25.0613 12.6921L22.5113 11.5921C22.0393 12.3511 21.6113 13.0371 21.1913 13.7281C21.1628 13.7729 21.1476 13.825 21.1476 13.8781C21.1476 13.9313 21.1628 13.9833 21.1913 14.0281C21.3913 14.2551 21.5123 14.4731 21.0263 14.5501C20.5403 14.6271 20.2323 14.4241 20.2113 14.0991C20.2057 13.8455 20.2837 13.597 20.4333 13.3921C20.9063 12.7191 21.4333 12.0631 21.9653 11.3581L20.2813 10.6321C19.9093 11.1751 19.5503 11.6321 19.2813 12.1231C19.1813 12.2971 19.3043 12.5311 19.3253 12.7371L19.5593 12.7731C19.3413 13.0491 19.3023 13.5011 18.5833 13.3371C17.9983 13.2041 17.9983 12.8631 18.1773 12.5111C18.2229 12.4276 18.2744 12.3474 18.3313 12.2711C18.7713 11.6491 19.2123 11.0271 19.6783 10.3711L17.5723 9.44611C17.2153 10.1151 16.8983 10.6951 16.6033 11.2801C16.5792 11.3268 16.5703 11.3798 16.5778 11.4318C16.5854 11.4838 16.609 11.5322 16.6453 11.5701C17.1063 11.8591 16.7673 12.0111 16.4453 12.1071C16.0153 12.2341 15.6693 12.0761 15.6083 11.7771C15.5583 11.5127 15.6078 11.2392 15.7473 11.0091C16.1183 10.4041 16.5633 9.82111 17.0033 9.19511L15.3483 8.44111C14.6293 9.19211 14.5483 9.58911 15.1903 10.0231L14.1643 10.4231C13.9727 10.2164 13.8127 9.98254 13.6893 9.72911C13.6373 9.56111 13.7753 9.35011 13.8803 9.17511C14.0993 8.81011 14.3533 8.45511 14.6073 8.07511L13.2483 7.41911C12.8543 8.01211 11.9263 8.41911 12.7633 9.28411C12.2933 9.28411 11.8573 9.37211 11.6993 9.26211C11.4833 9.11211 11.3163 8.76811 11.4143 8.58211C11.7456 8.03292 12.113 7.50642 12.5143 7.00611L11.2223 6.27411C10.8383 6.86211 10.0433 7.27411 10.5133 7.99311C10.5733 8.08511 10.2333 8.30711 10.0783 8.46911C9.86032 8.36111 9.46432 8.25711 9.45832 8.14311C9.43459 7.7897 9.50826 7.43655 9.67132 7.12211C9.91957 6.72909 10.1984 6.35627 10.5053 6.00711L9.15232 4.93011C8.60432 5.75311 8.09532 6.51011 7.60132 7.27111C7.56032 7.33311 7.61832 7.42811 7.63532 7.50811C7.66432 7.64611 7.78032 7.87511 7.71332 7.90811C7.46627 8.02931 7.1945 8.0916 6.91932 8.09011C6.83209 8.06104 6.7547 8.00819 6.69587 7.93753C6.63704 7.86686 6.5991 7.78117 6.58632 7.69011C6.61949 7.38383 6.72995 7.091 6.90732 6.83911C7.40732 6.15411 7.99732 5.49911 8.50733 4.81511C8.55508 4.73372 8.57882 4.64048 8.57581 4.54616C8.57281 4.45184 8.54317 4.3603 8.49032 4.28211C8.27417 4.05181 8.03225 3.84713 7.76932 3.67211C6.93632 4.71711 6.16932 5.67911 5.40732 6.64211C5.34832 6.71711 5.27432 6.82411 5.30732 6.89111C5.60733 7.48211 5.09832 7.61511 4.38832 7.62911L4.54532 9.26811L5.40932 8.44311L5.58732 8.52911C5.46432 9.53911 4.58733 10.4741 4.92432 11.5351C5.22433 11.2011 5.41432 10.8351 5.69332 10.5121C5.94832 10.2121 6.04033 9.74811 6.86632 9.76311C5.85133 11.5311 4.44232 13.1691 5.40732 15.1101C5.90732 14.4351 6.39332 13.7511 6.91632 13.0801C7.24076 12.6771 7.58519 12.2906 7.94832 11.9221C8.10573 11.7873 8.27509 11.6671 8.45432 11.5631C8.51986 11.738 8.57103 11.9179 8.60732 12.1011C8.61732 12.1771 8.51932 12.2621 8.46532 12.3411C7.52632 13.7161 6.53432 15.0741 5.66532 16.4711C5.17132 17.2711 5.55132 18.1181 5.68232 18.9471C5.78528 18.8996 5.87215 18.8232 5.93232 18.7271C6.62033 17.6561 7.29832 16.5821 8.00132 15.5161C8.07732 15.4011 8.29332 15.3311 8.44432 15.2401C8.50032 15.3761 8.63233 15.5241 8.59632 15.6471C8.5003 15.9446 8.37045 16.2302 8.20932 16.4981C7.54132 17.6711 6.84632 18.8361 6.18733 20.0111C5.67114 21.0015 5.5683 22.1561 5.90132 23.2221C6.53332 22.4291 7.05533 21.6041 7.64332 20.8031C8.23132 20.0021 8.88232 19.2031 9.54332 18.4191C9.62732 18.3191 9.94333 18.3191 10.1433 18.2681C10.1293 18.4061 10.1733 18.5681 10.0903 18.6801C9.73432 19.1621 9.29033 19.6151 8.96933 20.1071C8.01732 21.5561 7.13632 23.0281 6.16932 24.4731C5.77971 25.2565 5.70805 26.1601 5.96932 26.9951C6.28332 26.6711 6.47832 26.3181 6.74232 25.9951C7.94232 24.5181 9.14733 23.0451 10.3823 21.5841C10.4823 21.4681 10.8173 21.4531 11.0433 21.3911C11.0383 21.5461 11.1183 21.7411 11.0153 21.8511C9.10977 23.9182 7.49306 26.2339 6.20932 28.7351C5.95541 29.4401 5.90278 30.2019 6.05732 30.9351C6.17481 30.8873 6.27808 30.8102 6.35732 30.7111C7.65666 29.1111 8.95466 27.5111 10.2513 25.9111C10.3253 25.792 10.4214 25.6881 10.5343 25.6051C10.6661 25.5311 10.8189 25.5033 10.9683 25.5261C11.02 25.555 11.0609 25.5999 11.0851 25.6539C11.1092 25.708 11.1153 25.7683 11.1023 25.8261C10.9809 26.0244 10.842 26.2115 10.6873 26.3851C9.36632 28.1361 8.07732 29.8991 6.71032 31.6321C6.45668 31.9375 6.2718 32.294 6.16826 32.6772C6.06473 33.0605 6.04497 33.4615 6.11032 33.8531C6.21032 34.5371 6.23232 35.2261 6.28932 35.9131C6.41753 35.8888 6.53202 35.8175 6.61032 35.7131C7.71032 34.1611 8.80532 32.6071 9.91033 31.0591C10.2243 30.6201 10.5633 30.1891 10.9273 29.7701C11.0033 29.6831 11.2373 29.6641 11.3983 29.6141C11.4682 29.7246 11.5161 29.8475 11.5393 29.9761C11.5393 30.0711 11.4193 30.1651 11.3513 30.2591C10.0138 31.8435 8.83516 33.5553 7.83232 35.3701C7.62431 35.7919 7.2766 36.1287 6.84832 36.3231C6.39132 36.5231 6.34832 36.7061 6.34232 37.0171C6.32032 39.5091 6.27732 42.0011 6.24232 44.4931C6.25617 44.5992 6.27892 44.7039 6.31032 44.8061L6.72932 44.1281L7.00732 44.1651C5.99832 46.8161 5.23732 49.4731 6.47132 52.1801C6.7444 51.6265 6.97831 51.0544 7.17132 50.4681C7.51732 49.5161 7.86132 48.5681 8.24032 47.6191C8.28232 47.5191 8.54033 47.4551 8.70232 47.3751C8.73133 47.4951 8.81532 47.6241 8.78032 47.7331C8.50632 48.5711 8.18733 49.4011 7.92532 50.2411C7.66332 51.0811 7.44432 51.9501 7.18832 52.8691C7.64532 52.8841 7.96032 52.9101 8.27532 52.9031C8.89433 52.8881 9.20333 52.7611 9.35833 52.2241C9.80474 50.844 10.3245 49.4888 10.9153 48.1641C10.9663 48.0391 11.2233 47.9551 11.3843 47.8521C11.4083 47.9931 11.4933 48.1441 11.4473 48.2721C11.1923 48.9861 10.8693 49.6901 10.6413 50.4081C10.4343 51.0591 10.3193 51.7251 10.1273 52.5401C10.8163 52.2451 11.2693 52.0341 11.7443 51.8521C12.0041 51.7703 12.2406 51.6278 12.4345 51.4366C12.6283 51.2453 12.774 51.0107 12.8593 50.7521C13.4753 49.0341 14.1653 47.3281 14.8593 45.6251C14.9233 45.4691 15.2303 45.3611 15.4253 45.2311C15.4783 45.4131 15.6253 45.6101 15.5693 45.7731C15.2433 46.7281 14.8503 47.6731 14.5203 48.6271C14.2953 49.2781 14.1363 49.9391 13.9473 50.5961L14.1473 50.6731C14.6973 50.4098 15.2033 50.063 15.6473 49.6451C15.9785 49.0424 16.2427 48.4053 16.4353 47.7451C16.9793 46.4861 17.5443 45.2311 18.1163 43.9781C18.2253 43.7401 18.3113 43.3931 18.8163 43.5281C18.9433 43.5621 18.9863 43.9401 18.9163 44.1281C18.4513 45.3661 17.9423 46.5971 17.4513 47.8281C17.3143 48.1721 17.1873 48.5181 17.0513 48.8631C18.1068 48.381 19.132 47.8354 20.1213 47.2291C20.1737 47.1837 20.216 47.1279 20.2456 47.0652C20.2752 47.0025 20.2914 46.9344 20.2933 46.8651C20.2977 46.5333 20.342 46.2033 20.4253 45.8821C20.9873 44.5721 21.5873 43.2701 22.2133 41.9751C22.2953 41.8061 22.6063 41.6931 22.8133 41.5541C22.8903 41.7611 23.0933 41.9931 23.0223 42.1721C22.6743 43.0511 22.2353 43.9111 21.8643 44.7861C21.6413 45.3131 21.4823 45.8531 21.2943 46.3861L21.4943 46.4461C22.2763 45.9381 23.4543 45.6941 23.4213 44.6671C23.4929 44.1772 23.6808 43.7115 23.9693 43.3091C24.4833 42.3401 25.0193 41.3761 25.5893 40.4221C25.6893 40.2541 25.9893 40.1451 26.2033 40.0091C26.2613 40.2011 26.4293 40.4171 26.3583 40.5821C26.0213 41.3711 25.6153 42.1461 25.2433 42.9281C24.9713 43.4981 24.7143 44.0711 24.4503 44.6431L24.6243 44.7111C25.2853 44.3751 25.9593 44.0501 26.5973 43.6941C26.752 43.5879 26.8703 43.4367 26.9363 43.2611C27.6873 41.7011 28.4253 40.1381 29.1713 38.5771C29.2092 38.485 29.2745 38.4068 29.3583 38.3531C29.4718 38.2831 29.6042 38.2499 29.7373 38.2581C29.8683 38.3011 30.0153 38.4231 30.0253 38.5171C30.0393 38.6471 29.9353 38.7841 29.8723 38.9171C29.3283 40.0651 28.7783 41.2171 28.2393 42.3621C28.1675 42.5579 28.109 42.7584 28.0643 42.9621C28.7643 42.6401 29.2643 42.3761 29.8113 42.1721C30.3863 41.9561 30.6633 41.7091 30.6653 41.2011C30.7258 40.6956 30.9024 40.211 31.1813 39.7851C31.6963 38.8151 32.2583 37.8581 32.8323 36.9051C32.9193 36.7611 33.1773 36.6681 33.3563 36.5511C33.4073 36.7301 33.5613 36.9341 33.4903 37.0841C33.1343 37.8321 32.6903 38.5601 32.3323 39.3081C32.0323 39.9421 31.8093 40.5951 31.5523 41.2401C32.1168 41.1202 32.6662 40.9377 33.1903 40.6961C33.7333 40.4611 34.4783 40.3341 34.1643 39.6681C34.0913 39.5121 34.2403 39.2891 34.3403 39.1111C34.9883 37.9511 35.6493 36.7951 36.3093 35.6391C36.3539 35.5308 36.426 35.4361 36.5183 35.3641C36.6468 35.283 36.7977 35.2448 36.9493 35.2551C37.0124 35.2739 37.0697 35.3087 37.1156 35.3559C37.1614 35.4032 37.1944 35.4615 37.2113 35.5251C37.2183 35.6551 37.1113 35.7901 37.0433 35.9251C36.4793 37.0321 35.9103 38.1361 35.3533 39.2451C35.2759 39.4457 35.214 39.652 35.1683 39.8621C35.8253 39.5931 36.3203 39.3991 36.7993 39.1881C36.9044 39.1349 36.9904 39.0503 37.0453 38.9461C37.8073 37.5991 38.5453 36.2461 39.3353 34.9051C39.4093 34.7791 39.7403 34.7291 39.9523 34.6431C39.9953 34.8071 40.1353 34.9961 40.0643 35.1301C39.5453 36.1171 38.9823 37.0931 38.4363 38.0731C38.3603 38.2091 38.3023 38.3511 38.1773 38.6111C38.8773 38.3191 39.4093 38.0931 39.9463 37.8751C40.6093 37.6051 41.3233 37.3751 41.1523 36.6751C41.1223 36.5521 41.2413 36.4031 41.3223 36.2751C42.0413 35.1561 42.7523 34.0341 43.5063 32.9271C43.6163 32.7651 43.9433 32.6771 44.1693 32.5551C44.1983 32.7691 44.3383 33.0151 44.2373 33.1921C43.8003 33.9571 43.2763 34.6921 42.8173 35.4561C42.5693 35.8661 42.3883 36.2971 42.1773 36.7181L42.3543 36.7871C43.0963 36.3871 44.1433 36.2081 44.2843 35.3631C44.3113 35.1981 44.4843 35.0451 44.5983 34.8891C45.3073 33.8891 46.0063 32.8811 46.7433 31.8891C46.8433 31.7601 47.1363 31.7061 47.3433 31.6161C47.4093 31.7651 47.5813 31.9381 47.5253 32.0591C47.2681 32.6176 46.9748 33.1587 46.6473 33.6791C46.3473 34.1491 45.9773 34.5961 45.6383 35.0531L45.8093 35.1651C46.6582 34.7037 47.4724 34.1809 48.2453 33.6011C48.8553 32.9849 49.4116 32.3178 49.9083 31.6071C50.3353 31.0911 50.7583 30.5721 51.2383 30.0821C51.3473 29.9701 51.6863 29.9701 51.9183 29.9191C51.9539 30.0706 51.9586 30.2277 51.9323 30.3811C51.8783 30.5281 51.7083 30.6521 51.6003 30.7901C51.2463 31.2461 50.9003 31.7051 50.5463 32.1621L50.7643 32.2621C51.1434 31.9612 51.4994 31.6323 51.8293 31.2781C52.5133 30.4231 53.1393 29.5451 53.7723 28.6701C53.8783 28.5241 54.0183 28.3061 53.9383 28.1941C53.6383 27.7721 53.2453 27.3811 52.8633 26.9511C51.7933 27.7511 51.5433 28.8391 50.1503 29.4741C50.0503 28.7401 50.5323 28.3181 50.9063 27.8791C51.2803 27.4401 51.7063 27.0031 52.1583 26.5201L49.6183 25.0771C48.9713 25.9491 48.3923 26.7421 47.7943 27.5281C47.618 27.7341 47.4301 27.9297 47.2313 28.1141L46.9473 27.9971C46.7553 26.6681 48.4173 25.8881 49.0473 24.7521L46.9533 23.5941C46.0926 24.5514 45.4202 25.6625 44.9713 26.8691C44.9353 27.0231 44.7283 27.1561 44.6003 27.2991C44.4483 27.1271 44.1443 26.9421 44.1733 26.7871C44.254 26.3749 44.414 25.9823 44.6443 25.6311C45.1593 24.8311 45.7443 24.0621 46.3243 23.2391L44.2583 22.1321C43.3517 23.0124 42.6367 24.0705 42.1583 25.2401C42.0914 25.3908 42.0013 25.5302 41.8913 25.6531C41.7313 25.5011 41.4113 25.3321 41.4403 25.2011C41.5225 24.7728 41.6928 24.3662 41.9403 24.0071C42.4703 23.2761 43.0943 22.5801 43.7113 21.8311L41.6413 20.7221C41.0873 21.8721 40.5743 22.9271 40.0763 23.9861C40.0436 24.089 40.0522 24.2005 40.1003 24.2971C40.1833 24.5121 40.4163 24.7671 39.8763 24.8211C39.3973 24.8681 39.1593 24.6371 39.2013 24.3391C39.2399 23.8943 39.3592 23.4602 39.5533 23.0581C40.0283 22.1961 40.6003 21.3581 41.1533 20.4771L39.1933 19.4241C38.8706 19.8479 38.5772 20.2933 38.3153 20.7571C38.0343 21.3471 37.4553 21.9441 38.1913 22.5671C37.5153 22.8471 36.9683 22.6961 36.9403 22.2151C36.9308 21.892 37.0145 21.573 37.1813 21.2961C37.6043 20.5691 38.0953 19.8621 38.5933 19.0961L36.6413 18.0361C35.8743 18.6616 35.3739 19.5553 35.2413 20.5361C35.2133 20.6741 34.8933 20.7831 34.7093 20.9061C34.5463 20.7841 34.2213 20.6391 34.2473 20.5431C34.3741 20.0019 34.5733 19.4802 34.8393 18.9921C35.1703 18.5211 35.5381 18.077 35.9393 17.6641L33.9053 16.6641ZM4.40832 6.78311L7.41532 3.40611L6.49532 2.87111C5.98832 4.29011 4.29032 5.27411 4.40832 6.78311ZM6.23132 2.81611C5.95641 2.79716 5.68104 2.84591 5.42935 2.95811C5.17766 3.07031 4.95733 3.24253 4.78766 3.45967C4.61799 3.67681 4.50417 3.93225 4.45617 4.2036C4.40817 4.47496 4.42745 4.75394 4.51232 5.01611L6.23132 2.81611Z" fill="#FEF200"/>
</svg>
