 <svg width="14" height="13" viewBox="0 0 14 13" fill="none" xmlns="http://www.w3.org/2000/svg">
                        <g opacity="0.2">
                        <path fill-rule="evenodd" clip-rule="evenodd" d="M7.68117 2.3308C7.83253 2.20448 8.0073 2.10923 8.1955 2.05051C8.3837 1.99178 8.58163 1.97074 8.77797 1.98857C8.97431 2.0064 9.16521 2.06276 9.33975 2.15443C9.51428 2.2461 9.66904 2.37127 9.79517 2.5228L13.1282 6.5228C13.3716 6.82956 13.4854 7.21933 13.4452 7.60886C13.4051 7.99839 13.2142 8.35678 12.9134 8.60747C12.6126 8.85816 12.2256 8.98127 11.8353 8.9505C11.4449 8.91973 11.082 8.73752 10.8242 8.4428L7.49017 4.4428C7.23567 4.13722 7.11293 3.74309 7.14894 3.34705C7.18494 2.95101 7.37574 2.58547 7.68117 2.3308Z" fill="#15566B"/>
                        <path fill-rule="evenodd" clip-rule="evenodd" d="M7.68295 12.6349C7.37752 12.3802 7.18573 12.0146 7.14972 11.6186C7.11372 11.2226 7.23646 10.8284 7.49095 10.5229L10.825 6.52286C10.9493 6.36617 11.1037 6.23594 11.2791 6.13981C11.4545 6.04368 11.6473 5.9836 11.8463 5.9631C12.0452 5.9426 12.2463 5.9621 12.4376 6.02045C12.6289 6.0788 12.8066 6.17482 12.9603 6.30287C13.1139 6.43091 13.2404 6.5884 13.3323 6.76605C13.4242 6.9437 13.4796 7.13794 13.4954 7.33733C13.5111 7.53673 13.4868 7.73725 13.4238 7.92711C13.3609 8.11696 13.2606 8.29232 13.129 8.44286L9.79595 12.4429C9.66984 12.5942 9.51514 12.7193 9.34069 12.8109C9.16623 12.9024 8.97545 12.9588 8.77923 12.9766C8.58301 12.9944 8.3852 12.9734 8.1971 12.9148C8.00899 12.8561 7.83429 12.761 7.68295 12.6349Z" fill="#15566B"/>
                        <path fill-rule="evenodd" clip-rule="evenodd" d="M11.4766 7.48279C11.4766 7.88061 11.3185 8.26214 11.0372 8.54345C10.7559 8.82475 10.3744 8.98279 9.97656 8.98279L1.97656 8.98279C1.57874 8.98279 1.19721 8.82475 0.915903 8.54345C0.634599 8.26214 0.476562 7.88061 0.476562 7.48279C0.476562 7.08496 0.634599 6.70343 0.915903 6.42213C1.19721 6.14082 1.57874 5.98279 1.97656 5.98279L9.97656 5.98279C10.3744 5.98279 10.7559 6.14082 11.0372 6.42213C11.3185 6.70343 11.4766 7.08496 11.4766 7.48279Z" fill="#15566B"/>
                        </g>
                        <path fill-rule="evenodd" clip-rule="evenodd" d="M8.82369 1.09883C8.92555 1.014 9.05693 0.973086 9.18894 0.985087C9.32096 0.997088 9.4428 1.06102 9.52769 1.16283L12.8607 5.16283C12.9046 5.21301 12.938 5.27146 12.959 5.33475C12.98 5.39803 12.9881 5.46487 12.9828 5.53134C12.9776 5.5978 12.9591 5.66255 12.9285 5.72177C12.8978 5.78098 12.8557 5.83348 12.8045 5.87616C12.7532 5.91884 12.694 5.95085 12.6302 5.9703C12.5665 5.98975 12.4995 5.99625 12.4331 5.98942C12.3668 5.98258 12.3025 5.96256 12.2441 5.93051C12.1856 5.89847 12.1341 5.85506 12.0927 5.80283L8.75969 1.80283C8.67486 1.70097 8.63395 1.56959 8.64595 1.43758C8.65795 1.30557 8.72188 1.18372 8.82369 1.09883Z" fill="#00B2ED"/>
                        <path fill-rule="evenodd" clip-rule="evenodd" d="M8.82369 9.86685C8.72188 9.78196 8.65795 9.66011 8.64595 9.5281C8.63395 9.39609 8.67486 9.26471 8.75969 9.16285L12.0927 5.16285C12.1341 5.11062 12.1856 5.06721 12.2441 5.03517C12.3025 5.00312 12.3668 4.9831 12.4331 4.97627C12.4995 4.96943 12.5665 4.97593 12.6302 4.99538C12.694 5.01483 12.7532 5.04684 12.8045 5.08952C12.8557 5.1322 12.8978 5.1847 12.9285 5.24392C12.9591 5.30313 12.9776 5.36788 12.9828 5.43434C12.9881 5.50081 12.98 5.56765 12.959 5.63094C12.938 5.69422 12.9046 5.75267 12.8607 5.80285L9.52769 9.80285C9.4428 9.90466 9.32096 9.96859 9.18894 9.98059C9.05693 9.9926 8.92555 9.95168 8.82369 9.86685Z" fill="#00B2ED"/>
                        <path fill-rule="evenodd" clip-rule="evenodd" d="M12.4766 5.48279C12.4766 5.6154 12.4239 5.74257 12.3301 5.83634C12.2363 5.93011 12.1092 5.98279 11.9766 5.98279L2.47656 5.98279C2.34395 5.98279 2.21678 5.93011 2.12301 5.83634C2.02924 5.74257 1.97656 5.6154 1.97656 5.48279C1.97656 5.35018 2.02924 5.223 2.12301 5.12923C2.21678 5.03547 2.34395 4.98279 2.47656 4.98279L11.9766 4.98279C12.1092 4.98279 12.2363 5.03547 12.3301 5.12923C12.4239 5.223 12.4766 5.35018 12.4766 5.48279Z" fill="#00B2ED"/>
                        </svg>