<svg width="36" height="36" viewBox="0 0 36 36" fill="none" xmlns="http://www.w3.org/2000/svg">
<path d="M30 10.5V31.5C30 31.8978 29.842 32.2794 29.5607 32.5607C29.2794 32.842 28.8978 33 28.5 33H7.5C7.10218 33 6.72064 32.842 6.43934 32.5607C6.15804 32.2794 6 31.8978 6 31.5V4.5C6 4.10218 6.15804 3.72064 6.43934 3.43934C6.72064 3.15804 7.10218 3 7.5 3H22.5M30 10.5H22.5V3M30 10.5L22.5 3M18 14.25V21.75" stroke="white" stroke-width="3" stroke-linecap="round" stroke-linejoin="round"/>
<path fill-rule="evenodd" clip-rule="evenodd" d="M18 29.25C18.4973 29.25 18.9742 29.0525 19.3258 28.7008C19.6775 28.3492 19.875 27.8723 19.875 27.375C19.875 26.8777 19.6775 26.4008 19.3258 26.0492C18.9742 25.6975 18.4973 25.5 18 25.5C17.5027 25.5 17.0258 25.6975 16.6742 26.0492C16.3225 26.4008 16.125 26.8777 16.125 27.375C16.125 27.8723 16.3225 28.3492 16.6742 28.7008C17.0258 29.0525 17.5027 29.25 18 29.25Z" fill="white"/>
</svg>
