<svg width="32" height="32" viewBox="0 0 32 32" fill="none" xmlns="http://www.w3.org/2000/svg">
<path d="M12.2004 4.6074C12.2004 2.44735 13.9514 0.696289 16.1115 0.696289C18.2715 0.696289 20.0226 2.44735 20.0226 4.6074V28.0741C20.0226 30.2341 18.2715 31.9852 16.1115 31.9852C13.9514 31.9852 12.2004 30.2341 12.2004 28.0741V4.6074ZM16.1115 2.65184C15.0315 2.65184 14.1559 3.52738 14.1559 4.6074V28.0741C14.1559 29.1541 15.0315 30.0296 16.1115 30.0296C17.1915 30.0296 18.067 29.1541 18.067 28.0741V4.6074C18.067 3.52738 17.1915 2.65184 16.1115 2.65184ZM0.467041 20.2518C0.467041 18.0918 2.2181 16.3407 4.37815 16.3407C6.5382 16.3407 8.28926 18.0918 8.28926 20.2518V28.0741C8.28926 30.2341 6.5382 31.9852 4.37815 31.9852C2.21811 31.9852 0.467041 30.2341 0.467041 28.0741V20.2518ZM4.37815 18.2963C3.29813 18.2963 2.4226 19.1718 2.4226 20.2518V28.0741C2.4226 29.1541 3.29813 30.0296 4.37815 30.0296C5.45818 30.0296 6.33371 29.1541 6.33371 28.0741V20.2518C6.33371 19.1718 5.45818 18.2963 4.37815 18.2963ZM27.8448 8.51851C25.6848 8.51851 23.9337 10.2696 23.9337 12.4296V28.0741C23.9337 30.2341 25.6848 31.9852 27.8448 31.9852C30.0049 31.9852 31.7559 30.2341 31.7559 28.0741V12.4296C31.7559 10.2696 30.0049 8.51851 27.8448 8.51851ZM25.8893 12.4296C25.8893 11.3496 26.7648 10.4741 27.8448 10.4741C28.9248 10.4741 29.8004 11.3496 29.8004 12.4296V28.0741C29.8004 29.1541 28.9248 30.0296 27.8448 30.0296C26.7648 30.0296 25.8893 29.1541 25.8893 28.0741V12.4296Z" fill="#212121"/>
</svg>
