<svg width="118" height="119" viewBox="0 0 118 119" fill="none" xmlns="http://www.w3.org/2000/svg">
<path d="M45.1999 32.0716C48.1228 30.3639 51.3206 29.178 54.6502 28.567L53.5461 21.5579C52.6265 21.4074 51.7906 20.9344 51.1881 20.2236C50.5856 19.5128 50.2559 18.6106 50.2581 17.6788C50.2603 16.747 50.5943 15.8465 51.2002 15.1386C51.806 14.4306 52.6442 13.9616 53.5645 13.8155C54.4848 13.6694 55.427 13.8558 56.2223 14.3413C57.0177 14.8268 57.6141 15.5796 57.9048 16.465C58.1955 17.3503 58.1614 18.3101 57.8086 19.1726C57.4559 20.0351 56.8075 20.7437 55.9797 21.1716L57.0899 28.2211C60.5838 27.8804 64.1105 28.1801 67.4967 29.1056L69.3093 22.4523C68.8081 22.0245 68.4675 21.4387 68.3439 20.7914C68.2203 20.1442 68.3209 19.4741 68.6293 18.8917C68.9376 18.3093 69.4352 17.8494 70.04 17.5877C70.6449 17.3261 71.3208 17.2784 71.9563 17.4525C72.5919 17.6267 73.1492 18.0122 73.5362 18.5455C73.9233 19.0788 74.117 19.7281 74.0855 20.3864C74.054 21.0446 73.7991 21.6724 73.3628 22.1663C72.9266 22.6602 72.335 22.9907 71.6857 23.1033L69.8467 29.8493C72.1286 30.6851 74.2972 31.8024 76.3024 33.1752L80.3492 27.1036C79.9056 26.464 79.699 25.6896 79.765 24.914C79.8309 24.1384 80.1653 23.4101 80.7104 22.8545C81.2556 22.2989 81.9774 21.9508 82.7516 21.8701C83.5258 21.7894 84.3039 21.9813 84.9519 22.4126C85.5999 22.8439 86.0772 23.4876 86.3016 24.233C86.526 24.9783 86.4835 25.7786 86.1813 26.496C85.8792 27.2133 85.3363 27.8029 84.6463 28.1631C83.9562 28.5233 83.1622 28.6315 82.4009 28.4693L78.2722 34.6511C81.2022 37.0473 83.6329 39.9957 85.4262 43.329L90.9483 40.1818C90.9798 39.8812 91.0872 39.5935 91.2604 39.3459C91.4336 39.0982 91.6669 38.8987 91.9384 38.766C92.2319 38.5893 92.5649 38.4887 92.9071 38.4735C93.2493 38.4583 93.5899 38.5289 93.8978 38.6788C94.3567 38.9228 94.7039 39.3344 94.8669 39.8279C95.0299 40.3214 94.9963 40.8588 94.7731 41.3282C94.5499 41.7975 94.1542 42.1627 93.6685 42.3476C93.1828 42.5326 92.6444 42.523 92.1656 42.321L86.5048 45.5602C87.7818 48.5022 88.565 51.6345 88.8227 54.8313L99.912 53.7418C100.138 53.3285 100.491 52.9988 100.919 52.8011C101.347 52.6033 101.827 52.548 102.288 52.6432C102.75 52.7384 103.168 52.9791 103.483 53.3299C103.797 53.6808 103.991 54.1233 104.036 54.5924C104.08 55.0615 103.973 55.5324 103.73 55.9361C103.486 56.3397 103.12 56.6547 102.685 56.8348C102.249 57.0149 101.768 57.0506 101.311 56.9366C100.853 56.8226 100.445 56.565 100.145 56.2015L88.9246 57.3046C88.9006 61.6441 87.9003 65.9226 85.9978 69.8229L89.7713 71.6613C90.5609 70.7262 91.665 70.1118 92.8759 69.9336C94.0868 69.7555 95.3211 70.0258 96.3466 70.6938C97.3722 71.3618 98.1184 72.3814 98.4449 73.561C98.7715 74.7405 98.6558 75.9988 98.1197 77.099C97.5837 78.1993 96.6641 79.0659 95.534 79.5357C94.4038 80.0056 93.141 80.0464 91.9828 79.6505C90.8247 79.2546 89.8511 78.4492 89.2451 77.3858C88.6391 76.3224 88.4425 75.0743 88.6922 73.8761L84.8107 71.985C81.777 77.0961 77.2411 81.1475 71.8211 83.587L75.6541 93.2301C76.5019 93.2051 77.3314 93.4796 77.9969 94.0054C78.6624 94.5313 79.1212 95.2748 79.2929 96.1054C79.4646 96.936 79.338 97.8006 78.9355 98.5471C78.533 99.2937 77.8803 99.8746 77.092 100.188C76.3038 100.501 75.4304 100.526 74.6253 100.259C73.8203 99.992 73.1351 99.4499 72.6901 98.7279C72.2451 98.0058 72.0688 97.1501 72.1921 96.3109C72.3154 95.4718 72.7306 94.703 73.3645 94.1395L69.5335 84.502C65.371 85.9722 60.9281 86.4741 56.5425 85.9695L54.9695 93.908C55.0473 93.9459 55.1268 93.9705 55.2045 94.0084C56.4879 94.633 57.4975 95.707 58.0418 97.0266C58.586 98.3461 58.627 99.8195 58.1571 101.167C57.6872 102.515 56.739 103.644 55.4923 104.339C54.2456 105.034 52.7872 105.247 51.3936 104.939C50 104.63 48.7681 103.821 47.9316 102.664C47.0951 101.507 46.7122 100.084 46.8555 98.6638C46.9987 97.2436 47.6581 95.9254 48.7087 94.9591C49.7593 93.9928 51.128 93.4457 52.5552 93.4215L54.1018 85.5805C49.7655 84.6937 45.687 82.8342 42.1737 80.1421L36.7602 85.8692C37.0125 86.4939 37.0436 87.1861 36.8482 87.8309C36.6529 88.4757 36.243 89.0344 35.6865 89.4141C35.13 89.7939 34.4604 89.9719 33.7888 89.9187C33.1171 89.8655 32.4839 89.5842 31.9941 89.1215C31.5044 88.6589 31.1876 88.0426 31.0963 87.3751C31.0049 86.7076 31.1446 86.029 31.4921 85.4518C31.8396 84.8746 32.3741 84.4336 33.0067 84.2019C33.6394 83.9703 34.3322 83.9619 34.9703 84.1783L40.2896 78.5578C36.9303 75.4864 34.3412 71.6673 32.7318 67.4096L25.0726 69.41C25.1509 70.9046 24.6723 72.3752 23.7292 73.5373C22.786 74.6995 21.4455 75.4706 19.9667 75.7016C18.488 75.9325 16.9761 75.6069 15.7235 74.7877C14.471 73.9686 13.5667 72.714 13.1855 71.2667C12.8044 69.8193 12.9735 68.2821 13.6601 66.9522C14.3468 65.6224 15.5022 64.5944 16.9029 64.0671C18.3036 63.5398 19.8501 63.5506 21.2433 64.0975C22.6364 64.6444 23.7773 65.6885 24.4452 67.0279L31.9521 65.0658C30.5026 59.9936 30.4676 54.6215 31.8508 49.5308L23.546 46.4654C23.0623 46.9974 22.4177 47.3563 21.7106 47.4873C21.0036 47.6183 20.2732 47.514 19.631 47.1905C18.8784 46.8005 18.303 46.1378 18.0225 45.3379C17.742 44.538 17.7775 43.6611 18.1217 42.8864C18.4276 42.2086 18.9541 41.6545 19.6155 41.3144C20.2768 40.9744 21.0339 40.8686 21.7631 41.0142C22.4924 41.1599 23.1507 41.5484 23.6307 42.1164C24.1107 42.6843 24.384 43.3982 24.406 44.1415L32.5991 47.1666C33.5408 44.5929 34.8387 42.164 36.4549 39.9508C38.1679 37.63 39.1414 34.8467 39.2482 31.9641C39.355 29.0816 38.5903 26.2338 37.0537 23.7925" stroke="#6532B3" stroke-width="1.44026" stroke-linecap="round" stroke-linejoin="round"/>
<path d="M52.0198 49.6021C53.6296 47.865 53.5263 45.1518 51.7892 43.542C50.0521 41.9323 47.3389 42.0355 45.7292 43.7726C44.1194 45.5098 44.2227 48.2229 45.9598 49.8327C47.6969 51.4424 50.4101 51.3392 52.0198 49.6021Z" stroke="#6532B3" stroke-width="1.44026" stroke-linecap="round" stroke-linejoin="round"/>
<path d="M69.7486 71.3524C69.2369 72.4025 68.4254 73.2773 67.4166 73.8662C66.4078 74.4551 65.2471 74.7316 64.0811 74.6608C62.9151 74.59 61.7964 74.175 60.8663 73.4684C59.9362 72.7617 59.2365 71.7951 58.8557 70.6908C58.4749 69.5865 58.4302 68.3941 58.7271 67.2644C59.024 66.1347 59.6493 65.1184 60.5238 64.344C61.3984 63.5696 62.4829 63.0719 63.6402 62.9139C64.7976 62.7559 65.9758 62.9447 67.0259 63.4563C68.4341 64.1423 69.512 65.3597 70.0226 66.8405C70.5332 68.3213 70.4346 69.9443 69.7486 71.3524Z" stroke="#6532B3" stroke-width="1.44026" stroke-linecap="round" stroke-linejoin="round"/>
<path d="M70.7682 43.6396C70.5585 44.0719 70.2252 44.4323 69.8105 44.6751C69.3958 44.9179 68.9184 45.0322 68.4387 45.0035C67.959 44.9748 67.4987 44.8044 67.1159 44.5138C66.7332 44.2233 66.4452 43.8257 66.2886 43.3714C66.132 42.9171 66.1137 42.4266 66.236 41.9619C66.3583 41.4972 66.6158 41.0793 66.9759 40.761C67.3359 40.4428 67.7823 40.2385 68.2585 40.1741C68.7347 40.1097 69.2193 40.1881 69.6509 40.3993C70.2276 40.6821 70.6688 41.1817 70.8782 41.7889C71.0875 42.3961 71.048 43.0615 70.7682 43.6396Z" stroke="#6532B3" stroke-width="1.44026" stroke-linecap="round" stroke-linejoin="round"/>
</svg>
