<svg width="102" height="71" viewBox="0 0 102 71" fill="none" xmlns="http://www.w3.org/2000/svg">
<path d="M68.398 52.9065C68.398 52.9065 79.8678 55.5497 85.283 53.8508C85.283 53.8508 87.5021 50.1349 88.3186 50.8043C89.4603 51.7726 90.4243 52.9328 91.167 54.2327C91.937 55.643 101.102 57.663 100.184 58.3791C97.9443 59.4401 95.4848 59.9552 93.0075 59.8822C90.9598 59.3168 88.8809 58.8711 86.7814 58.5472C82.2224 57.7859 72.0156 58.863 69.6963 59.2305C67.3769 59.5979 36.8003 64.4427 29.6087 58.7368C22.417 53.0308 26.418 41.4177 33.1711 41.8248C39.9243 42.2318 43.4571 54.4149 27.9279 59.288C27.9279 59.288 25.2578 59.819 24.6663 59.011C24.363 58.5913 19.66 55.8571 15.0926 51.8234C10.8522 48.0843 6.71821 43.2318 6.29438 38.0715C6.29438 38.0715 3.51717 31.7751 14.2541 33.3779C14.2541 33.3779 24.805 36.7432 20.7665 43.2584C16.7281 49.7736 0.619294 37.3443 2.3751 33.9616C4.1309 30.579 15.4893 21.5563 14.0879 12.9999C14.4233 11.473 14.1053 9.64104 15.1736 9.15443C16.242 8.66782 16.9407 10.5842 17.2067 9.56107C17.4726 8.53796 14.7755 0.657743 13.4286 2.0286L13.6216 3.85811C13.6216 3.85811 9.17438 -1.76748 3.00802 4.60427C2.23877 5.62387 1.7644 6.83521 1.63671 8.10605C1.6701 9.40165 1.59916 10.6978 1.42456 11.982C1.34033 12.3648 0.654568 12.9337 1.18467 13.2517C1.57686 13.4472 2.01574 13.5296 2.45215 13.4898C2.45215 13.4898 2.11035 18.4992 2.84794 18.4213C3.58552 18.3435 17.4322 16.3857 18.6784 22.3452C18.8134 22.9575 18.8168 23.5915 18.6886 24.2052C18.5603 24.8189 18.3033 25.3984 17.9344 25.9054C16.667 28.0293 12.4946 39.1619 14.7977 55.0811C14.7977 55.0811 18.2298 66.4024 7.94099 69.046C7.94099 69.046 3.87121 70.8541 1.65986 69.8646C0.520024 69.3598 1.36935 66.3552 3.67056 64.8193" fill="#FFFB7B"/>
<path d="M68.398 52.9065C68.398 52.9065 79.8678 55.5497 85.283 53.8508C85.283 53.8508 87.5021 50.1349 88.3186 50.8043C89.4603 51.7726 90.4243 52.9328 91.167 54.2327C91.937 55.643 101.102 57.663 100.184 58.3791C97.9443 59.4401 95.4848 59.9552 93.0075 59.8822C90.9598 59.3168 88.8809 58.8711 86.7814 58.5472C82.2224 57.7859 72.0156 58.863 69.6963 59.2305C67.3769 59.5979 36.8003 64.4427 29.6087 58.7368C22.417 53.0308 26.418 41.4177 33.1711 41.8248C39.9243 42.2318 43.4571 54.4149 27.9279 59.288C27.9279 59.288 25.2578 59.819 24.6663 59.011C24.363 58.5913 19.66 55.8571 15.0926 51.8234C10.8522 48.0843 6.71821 43.2318 6.29438 38.0715C6.29438 38.0715 3.51717 31.7751 14.2541 33.3779C14.2541 33.3779 24.805 36.7432 20.7665 43.2584C16.7281 49.7736 0.619294 37.3443 2.3751 33.9616C4.1309 30.579 15.4893 21.5563 14.0879 12.9999C14.4233 11.473 14.1053 9.64104 15.1736 9.15443C16.242 8.66782 16.9407 10.5842 17.2067 9.56107C17.4726 8.53796 14.7755 0.657743 13.4286 2.0286L13.6216 3.85811C13.6216 3.85811 9.17437 -1.76748 3.00802 4.60427C2.23877 5.62387 1.7644 6.83521 1.63671 8.10605C1.6701 9.40165 1.59916 10.6978 1.42456 11.982C1.34033 12.3648 0.654568 12.9337 1.18467 13.2517C1.57686 13.4472 2.01574 13.5296 2.45215 13.4898C2.45215 13.4898 2.11035 18.4992 2.84794 18.4213C3.58552 18.3435 17.4322 16.3857 18.6784 22.3452C18.8134 22.9575 18.8168 23.5915 18.6886 24.2052C18.5603 24.8189 18.3033 25.3984 17.9344 25.9054C16.667 28.0293 12.4946 39.162 14.7977 55.0811C14.7977 55.0811 18.2298 66.4024 7.94099 69.046C7.94099 69.046 3.87121 70.8541 1.65986 69.8646C0.520023 69.3598 1.36935 66.3552 3.67056 64.8193" stroke="#6532B3" stroke-width="1.65248" stroke-linecap="round" stroke-linejoin="round"/>
</svg>
