<svg width="69" height="98" viewBox="0 0 69 98" fill="none" xmlns="http://www.w3.org/2000/svg">
<path d="M67.6813 93.0245L59.2688 86.9072C59.2688 86.9072 47.6534 77.0347 44.9463 71.82C39.9281 62.152 38.2685 62.2852 38.2685 62.2852C38.2685 62.2852 37.4662 58.9841 36.6619 55.9769C36.3076 54.3219 35.7806 52.7086 35.0896 51.1636C34.5061 50.7396 43.382 47.2664 43.4992 48.7989C43.6164 50.3315 43.5076 52.9305 37.6326 55.8029C37.6326 55.8029 33.5985 49.8547 33.6243 48.8159C33.6501 47.7771 32.3109 39.3346 31.7362 40.59C31.395 41.2935 31.2442 42.0743 31.299 42.8543C31.299 42.8543 29.0712 40.8825 29.4076 46.254C29.4243 46.5126 29.4405 46.7813 29.4597 47.0557C29.6734 50.1443 30.3614 57.3514 30.3614 57.3514L30.7729 61.407C30.7729 61.407 35.4479 62.3756 34.8619 61.9358C34.2759 61.4961 26.5015 60.5324 25.3544 62.2652C24.2073 63.998 18.9747 70.1462 19.8425 71.4829C20.7103 72.8196 23.0767 77.2257 23.4359 77.0392C23.7952 76.8527 23.7135 73.8951 24.5811 72.8525C25.4487 71.8099 24.3549 69.7882 27.3792 69.3092C30.4035 68.8301 37.6575 66.7761 35.3186 68.1813C32.9796 69.5865 27.8498 68.2019 27.4725 68.2617C25.878 71.5416 24.6445 74.9852 23.7938 78.5316C23.7619 79.9541 23.9089 82.5187 23.9089 82.5187C23.9089 82.5187 26.4248 87.8042 27.1813 87.6843C27.9379 87.5645 30.6828 85.3215 30.1972 83.0738C29.7116 80.8261 34.5019 80.0674 35.7553 80.6424C37.0087 81.2174 38.8299 87.0017 40.9997 90.9205C43.1695 94.8393 47.1513 99.0766 45.9801 95.7731C45.3183 93.9962 44.1907 92.43 42.7156 91.2386C41.2404 90.0472 39.472 89.2745 37.5956 89.0014C33.3448 88.2572 31.4041 87.1654 30.762 85.8213C30.1198 84.4772 27.3737 89.7173 26.7301 88.9141C26.0866 88.1108 25.275 82.1686 22.5673 80.53C19.8597 78.8914 16.6479 75.7836 17.5622 74.2173C18.4764 72.651 18.931 72.7086 19.9629 73.0615C20.9948 73.4144 18.3001 69.9655 19.0964 69.3291C19.8926 68.6927 8.60718 62.591 5.43526 53.9812C2.26334 45.3714 -6.96244 16.4891 16.738 3.82356C40.4385 -8.84194 21.2984 29.3565 21.3065 31.044C21.3146 32.7315 22.1625 35.6306 24.3708 34.6916C26.7916 33.6622 24.2194 32.7129 25.1471 32.0496C26.0747 31.3863 28.1401 35.4513 30.4811 33.9182C32.8221 32.3851 30.8735 30.8855 33.0614 30.6361C34.5075 30.4719 33.6131 32.841 35.1157 33.3785C36.6183 33.9161 38.5117 28.6875 36.2555 27.4958C33.9993 26.3041 33.5484 40.6148 32.9912 41.1749C32.4339 41.7349 32.5678 35.9447 31.8494 37.6096C31.131 39.2745 31.8717 42.2634 30.0266 42.0312C28.8496 41.9422 27.6706 42.1759 26.6166 42.7072C25.5625 43.2384 24.6733 44.0471 24.0446 45.0461C22.7265 47.3223 20.5851 50.1157 21.8187 50.5662C22.6552 50.6733 23.5052 50.5697 24.2915 50.2648C25.0778 49.9599 25.7754 49.4634 26.3211 48.8204C26.5006 48.3717 26.8004 47.9811 27.1876 47.6919C27.5748 47.4026 28.0344 47.2258 28.5156 47.1809C29.4559 47.0705 30.2614 51.6833 29.3141 52.2221C28.3667 52.7609 26.2278 50.6354 24.8458 50.9231C23.4638 51.2108 21.1905 50.6779 21.65 51.9557C22.1157 53.5614 23.0993 54.968 24.4477 55.9565C25.796 56.945 27.4334 57.4598 29.1047 57.4209" stroke="#6532B3" stroke-width="1.26667" stroke-miterlimit="10" stroke-linecap="square" stroke-linejoin="round"/>
</svg>
