<svg width="88" height="92" viewBox="0 0 88 92" fill="none" xmlns="http://www.w3.org/2000/svg">
<path d="M1.09187 26.2431C1.09187 26.2431 18.8239 54.6317 30.0271 44.1698C41.2304 33.7079 47.0304 14.0656 58.3946 13.6526C69.7587 13.2397 75.3626 11.3519 77.2137 14.7991C79.0647 18.2463 79.485 19.0514 78.5325 20.9416C77.5801 22.8318 79.6027 25.3781 77.1891 24.8062C74.7755 24.2343 65.4422 21.2671 60.2566 24.8917C55.071 28.5162 48.4023 34.3098 49.0356 31.8178C49.6689 29.3258 63.5776 22.8235 67.9289 24.4446C72.2803 26.0657 78.1548 23.8444 80.3991 26.2477C82.6433 28.651 86.9499 32.4804 86.7743 33.3798C86.5987 34.2792 78.608 45.2406 77.6427 40.2679C77.5755 39.9235 77.5356 39.5748 77.5234 39.2246C77.3698 34.7935 81.7611 31.6813 82.9217 32.2089C84.1705 32.7775 77.3717 36.7013 76.0748 41.3145C74.7778 45.9277 77.2414 36.4038 72.648 34.0503C68.0547 31.6968 61.9729 32.9526 63.0955 35.1669C64.218 37.3811 67.1145 34.5088 68.6331 38.6427C70.1516 42.7766 75.9913 58.541 56.2479 79.8626C56.2479 79.8626 44.0301 96.0844 37.6843 89.5122C31.3386 82.9401 1.4369 57.0485 12.0545 36.6835C22.6722 16.3185 27.0889 20.537 28.0319 20.6858C28.9748 20.8347 33.5697 21.1957 35.3007 30.1839C37.0317 39.172 42.1579 42.8517 41.1439 37.0454C40.13 31.239 31.9429 23.5351 29.5747 17.7812C27.2065 12.0273 25.2397 8.19337 26.5365 6.54609C27.8332 4.89882 38.578 -2.28855 37.5418 1.9945C36.5056 6.27756 31.3504 11.7656 28.9423 9.1506C26.5343 6.53555 36.224 1.78261 38.067 4.30422C39.9101 6.82583 39.3431 13.5907 39.0529 15.0272C38.8722 15.9294 38.6323 16.82 38.3346 17.6937C38.3346 17.6937 40.9191 7.54296 42.9766 6.93969C45.0341 6.33642 51.2089 6.57797 50.0809 9.36759C48.9528 12.1572 41.4335 12.8129 41.7502 11.1924C42.0669 9.57188 41.7321 6.39219 45.627 8.28807C49.522 10.184 48.9125 13.1391 48.4736 16.5307C48.0347 19.9223 48.922 21.2323 48.2194 22.7918C47.5168 24.3513 40.8316 24.768 44.4832 30.9095C48.1349 37.051 50.9025 35.8216 51.6937 38.7292C52.4848 41.6367 53.8991 44.2779 50.8813 47.7849C48.5392 50.2937 46.3513 52.9293 44.3286 55.6785C42.6036 58.2335 40.7654 64.6126 43.4396 67.8203C46.1138 71.028 47.6565 71.0867 47.5339 72.7417C47.4113 74.3966 49.3104 76.5479 46.6028 76.4858C43.8952 76.4238 44.7899 73.4673 43.7758 70.1036C42.7617 66.74 41.8077 66.2683 40.9021 65.9386C39.9965 65.609 40.7374 61.8345 40.7135 59.9778C40.6896 58.121 40.537 54.9439 38.7516 57.077C36.9662 59.2101 36.0185 58.1255 35.3277 60.6172C34.6368 63.109 34.2674 66.0095 32.3576 66.8185C30.4477 67.6275 28.5167 69.5432 29.6486 66.7577C30.5712 64.8006 31.6613 62.919 32.9077 61.1319C33.8268 59.4241 36.2538 60.9218 33.8268 59.4241C31.3997 57.9263 32.4611 58.4647 31.0686 58.6144C29.6761 58.7642 31.0459 59.7224 29.6788 58.7643C28.3116 57.8062 29.9264 54.5398 26.4872 56.2159C23.0481 57.8919 20.2778 56.1553 22.4454 60.9479C24.6129 65.7405 26.3774 65.6563 26.2391 69.3382C26.1008 73.0202 31.4845 82.7778 39.317 81.2387C47.1495 79.6996 49.8199 74.0131 51.9838 75.8357C54.1476 77.6582 56.6216 83.557 58.1925 87.7601" fill="#FFFB7B"/>
<path d="M1.09187 26.2431C1.09187 26.2431 18.8239 54.6317 30.0271 44.1698C41.2304 33.7079 47.0304 14.0656 58.3946 13.6526C69.7587 13.2397 75.3626 11.3519 77.2137 14.7991C79.0647 18.2463 79.485 19.0514 78.5325 20.9416C77.5801 22.8318 79.6027 25.3781 77.1891 24.8062C74.7755 24.2343 65.4422 21.2671 60.2566 24.8917C55.071 28.5162 48.4023 34.3098 49.0356 31.8178C49.6689 29.3258 63.5776 22.8235 67.9289 24.4446C72.2803 26.0657 78.1548 23.8444 80.3991 26.2477C82.6433 28.651 86.9499 32.4804 86.7743 33.3798C86.5987 34.2792 78.608 45.2407 77.6427 40.2679C77.5755 39.9235 77.5356 39.5748 77.5234 39.2246C77.3698 34.7935 81.7611 31.6813 82.9217 32.2089C84.1705 32.7775 77.3717 36.7013 76.0748 41.3145C74.7778 45.9277 77.2414 36.4038 72.648 34.0503C68.0547 31.6968 61.9729 32.9526 63.0955 35.1669C64.218 37.3811 67.1145 34.5088 68.6331 38.6427C70.1516 42.7766 75.9913 58.541 56.2479 79.8626C56.2479 79.8626 44.0301 96.0844 37.6843 89.5122C31.3386 82.9401 1.4369 57.0485 12.0545 36.6835C22.6722 16.3185 27.0889 20.537 28.0319 20.6858C28.9748 20.8347 33.5697 21.1957 35.3007 30.1839C37.0317 39.172 42.1579 42.8517 41.1439 37.0454C40.13 31.239 31.9429 23.5351 29.5747 17.7812C27.2065 12.0273 25.2397 8.19337 26.5365 6.54609C27.8332 4.89882 38.578 -2.28855 37.5418 1.9945C36.5056 6.27756 31.3504 11.7656 28.9423 9.1506C26.5343 6.53555 36.224 1.78261 38.067 4.30422C39.9101 6.82583 39.3431 13.5907 39.0529 15.0272C38.8722 15.9294 38.6323 16.82 38.3346 17.6937C38.3346 17.6937 40.9191 7.54296 42.9766 6.93969C45.0341 6.33642 51.2089 6.57797 50.0809 9.36759C48.9528 12.1572 41.4335 12.8129 41.7502 11.1924C42.0669 9.57188 41.7321 6.39219 45.627 8.28807C49.522 10.184 48.9125 13.1391 48.4736 16.5307C48.0347 19.9223 48.922 21.2323 48.2194 22.7918C47.5168 24.3513 40.8316 24.768 44.4832 30.9095C48.1349 37.051 50.9025 35.8216 51.6937 38.7292C52.4848 41.6367 53.8991 44.2779 50.8813 47.7849C48.5392 50.2937 46.3513 52.9293 44.3286 55.6785C42.6036 58.2335 40.7654 64.6126 43.4396 67.8203C46.1138 71.028 47.6565 71.0867 47.5339 72.7417C47.4113 74.3966 49.3104 76.5479 46.6028 76.4858C43.8952 76.4238 44.7899 73.4673 43.7758 70.1036C42.7617 66.74 41.8077 66.2683 40.9021 65.9386C39.9965 65.609 40.7374 61.8345 40.7135 59.9778C40.6896 58.121 40.537 54.9439 38.7516 57.077C36.9662 59.2101 36.0185 58.1255 35.3277 60.6172C34.6368 63.109 34.2674 66.0095 32.3576 66.8185C30.4477 67.6275 28.5167 69.5432 29.6486 66.7577C30.5712 64.8006 31.6613 62.919 32.9077 61.1319C33.8268 59.4241 36.2538 60.9218 33.8268 59.4241C31.3997 57.9263 32.4611 58.4647 31.0686 58.6144C29.676 58.7642 31.0459 59.7224 29.6788 58.7643C28.3116 57.8062 29.9264 54.5398 26.4872 56.2159C23.0481 57.8919 20.2778 56.1553 22.4454 60.9479C24.6129 65.7405 26.3774 65.6563 26.2391 69.3382C26.1009 73.0202 31.4845 82.7778 39.317 81.2387C47.1495 79.6996 49.8199 74.0131 51.9838 75.8357C54.1476 77.6582 56.6216 83.557 58.1925 87.7601" stroke="#6532B3" stroke-width="1.25169" stroke-linecap="round" stroke-linejoin="round"/>
</svg>
