<svg width="84" height="81" viewBox="0 0 84 81" fill="none" xmlns="http://www.w3.org/2000/svg">
<path d="M72.2974 18.7769C72.2974 18.7769 68.3914 22.4289 69.2294 22.4289C70.0674 22.4289 73.5714 21.9189 73.5714 23.0289C73.5714 24.1389 66.6093 29.2289 66.4393 28.9729C66.2693 28.7169 70.3453 24.5569 70.2593 23.9629C70.1733 23.3689 65.5034 24.3869 65.1654 23.9629C64.8274 23.5389 69.5394 19.3349 69.5394 19.3349C69.5394 19.3349 51.7633 19.4049 48.3673 19.2169C42.7433 18.9069 43.6794 13.0289 45.9154 10.9409C48.4694 8.55487 54.4394 12.3409 51.8994 12.8369C49.3594 13.3329 48.6774 6.49289 53.0294 4.26689C56.4294 2.53089 59.8654 3.35488 61.0294 6.75288C61.4674 8.01888 59.8294 8.45289 59.6114 6.78489C59.2414 3.83689 62.7933 1.00288 66.7753 1.00288C68.3376 0.954672 69.8578 1.51355 71.0168 2.56217C72.1758 3.6108 72.8835 5.06762 72.9913 6.62687C72.5233 8.88887 68.9113 6.92487 73.0753 4.85487C77.8953 2.45487 83.3593 10.6769 78.7153 13.4709C77.0733 14.4589 76.0414 12.8829 78.3854 12.3409C83.4594 11.1669 84.4674 20.6229 78.2514 20.6229H60.2794C60.2794 20.6229 56.4094 24.3689 57.2474 24.3689C58.0854 24.3689 61.5894 23.8589 61.5894 24.9689C61.5894 26.0789 54.6273 31.1689 54.4573 30.9129C54.2873 30.6569 58.3634 26.4969 58.2794 25.9129C58.1954 25.3289 53.5233 26.3369 53.1853 25.9129C52.8473 25.4889 57.5594 21.2849 57.5594 21.2849C52.8831 21.0297 48.1939 21.1427 43.5353 21.6229C39.9353 22.3669 35.3734 29.2229 52.1354 40.0889C82.5794 59.8269 71.2374 89.7549 60.7994 71.9829C54.9134 61.9629 61.4393 55.0989 57.6773 34.0409C53.9153 12.9829 42.1854 7.11689 31.0554 7.56889C19.9254 8.02089 12.4053 29.8289 17.6693 26.9689C22.9333 24.1089 29.7013 30.7289 32.9493 36.5949C36.1973 42.4609 39.1793 56.4489 43.9913 62.3149C48.8033 68.1809 56.3214 74.3549 54.5194 77.6569C52.7174 80.9589 45.1933 79.3109 43.3193 73.6709C41.7513 68.9689 42.6434 62.8409 42.1914 63.0709C41.7394 63.3009 36.1133 74.5949 28.9913 74.6909C27.269 74.7933 25.5542 74.3901 24.058 73.531C22.5617 72.6718 21.3491 71.394 20.5693 69.8549C18.4633 66.4789 19.7554 65.7029 22.0114 67.6089C22.6096 68.457 23.3865 69.1638 24.2873 69.6793C25.1881 70.1949 26.191 70.5067 27.2253 70.5929C28.3481 70.5432 29.4498 70.2701 30.4656 69.7893C31.4815 69.3085 32.3912 68.6297 33.1414 67.7929C33.7414 67.2289 35.3193 65.3229 34.4833 65.9389C33.551 66.78 32.456 67.4209 31.2661 67.822C30.0762 68.2231 28.8166 68.3759 27.5653 68.2709C23.6173 68.0449 22.6154 67.1469 22.2874 66.9169C21.5354 66.3909 19.8173 65.2749 21.1033 65.9169C22.6426 66.4486 24.2198 66.8638 25.8214 67.1589C26.2494 67.2689 26.5553 67.4469 26.6993 67.4469C26.8433 67.4469 27.3313 67.3129 27.6893 67.3089C28.5033 67.3089 29.4454 67.4129 29.9334 67.3349C31.5909 67.1299 33.1492 66.4333 34.4074 65.3349C35.4654 64.1349 35.5514 60.0509 30.6074 59.8449C28.8074 59.7689 32.1874 60.1449 30.6074 62.2449C29.0274 64.3449 27.2994 65.4789 26.0194 64.8769C24.7394 64.2749 22.3274 62.9089 23.0854 60.8149C24.0445 59.1228 24.6565 57.2564 24.8854 55.3249C25.0354 52.6169 24.3314 50.6329 22.7054 50.3609C20.4494 49.9849 19.5693 52.1609 19.8193 52.1369C20.0693 52.1129 19.8194 50.7369 19.4714 50.7609C19.0014 50.7829 18.1734 52.1169 18.3994 52.1169C18.6254 52.1169 18.5833 50.9349 18.2373 50.9169C17.8913 50.8989 16.8894 51.9569 17.1654 51.9949C17.4414 52.0329 17.7174 50.7669 17.3654 50.7669C17.0134 50.7669 15.6613 51.8449 15.9653 51.8689C16.2693 51.8929 16.9173 50.6689 16.4913 50.5409C16.0653 50.4129 14.9054 51.2669 15.0374 51.2869C15.1694 51.3069 15.9013 50.3849 15.6773 50.0269C15.4533 49.6689 13.8914 50.4969 14.1914 50.4789C14.4914 50.4609 15.3374 49.5209 15.2814 49.2389C15.2254 48.9569 13.4453 49.2889 13.5693 49.3889C13.6933 49.4889 15.0554 48.9569 14.9694 48.5249C14.645 47.9145 14.2739 47.33 13.8594 46.7769C13.7474 46.5129 11.8854 44.2769 12.6374 43.5609C13.3894 42.8449 16.4733 44.5009 17.3373 45.2149C18.8857 46.2136 20.5877 46.9507 22.3753 47.3969C23.2773 47.4729 25.7213 28.7089 18.0513 30.2869C10.3813 31.8649 11.3953 42.3189 11.0513 45.7029C10.7665 50.9847 12.0206 56.2357 14.6614 60.8189C17.7074 65.5569 19.7413 72.6189 16.6173 76.6189C13.0833 81.1309 -2.63465 80.0789 1.77335 64.2849C5.33335 51.5269 2.42936 33.8429 10.1494 20.6669C14.5114 13.2209 19.3493 9.93088 22.0473 9.18888C23.7873 8.70888 13.2933 18.6389 13.5353 25.8549C13.6473 29.2389 7.21736 40.1149 5.97736 49.7709C4.46336 61.5549 14.8074 70.4329 9.54936 77.8229" stroke="#6532B3" stroke-width="1.78667" stroke-linecap="round" stroke-linejoin="round"/>
</svg>
