
<svg width="101" height="98" viewBox="0 0 101 98" fill="none" xmlns="http://www.w3.org/2000/svg">
<path d="M33.4895 96.5106C33.4895 96.5106 31.3875 78.1926 29.3215 74.9546C28.9203 74.2867 28.4468 73.6649 27.9095 73.1006C27.9095 73.1006 28.6355 56.3006 29.7395 59.4826C30.8435 62.6646 17.8235 40.9946 14.8995 37.8526C11.9755 34.7106 7.25948 30.3086 9.08748 26.3726C10.9155 22.4366 13.5455 23.1126 12.4875 20.0326C12.2745 18.2837 11.9322 16.553 11.4635 14.8546C10.6415 13.5566 7.1755 12.4685 7.1755 12.4685C7.1755 12.4685 1.72947 12.0106 1.80147 16.4406C1.46475 21.3402 2.29691 26.2496 4.22945 30.7645C6.91945 37.0625 11.1714 50.9046 15.1574 55.3446C19.1434 59.7846 23.4055 64.7445 24.1975 68.1445C24.9895 71.5445 27.5974 57.3605 32.3974 59.4885C37.1974 61.6165 43.0895 65.2886 45.4615 62.9346C47.8335 60.5806 58.9935 60.8326 63.5095 61.3546C68.0255 61.8766 71.6154 62.3245 71.0174 59.4885C70.4194 56.6525 63.6315 40.4186 71.2755 34.6886C78.9195 28.9586 74.0915 30.2705 74.0915 30.2705C74.0915 30.2705 83.6055 29.2945 86.8435 26.1245C88.6514 24.304 90.7459 22.7925 93.0434 21.6505C93.0434 21.6505 88.8635 14.6346 91.1955 14.6166C93.5275 14.5986 93.0314 15.0426 95.0074 16.1266C96.9834 17.2106 98.3095 16.9706 99.1075 18.2666C99.7959 19.4619 100.163 20.8153 100.171 22.1946C100.171 23.2166 98.0455 29.4246 98.0455 33.3726C98.0455 37.3206 95.4875 42.2826 93.0455 48.8126C89.9508 56.3672 86.2938 63.6789 82.1054 70.6865C80.5054 72.8385 81.8075 60.2286 78.6335 59.4866C75.4595 58.7446 73.6455 64.5126 71.9835 62.9326C70.3215 61.3526 79.7074 54.7006 81.0374 52.6726C82.3674 50.6446 93.0195 32.7685 91.8735 24.7645C90.7275 16.7605 92.8495 16.5645 88.6875 18.7645C84.5255 20.9645 76.1635 27.1226 74.0875 25.0446C72.0115 22.9666 72.3234 21.8245 68.0474 22.3945C63.7714 22.9645 62.6714 21.1945 56.5794 21.4265C50.4874 21.6585 39.3275 22.9166 36.6695 22.9406C34.0115 22.9646 33.6695 24.7406 29.4575 22.9406C25.2455 21.1406 17.5374 17.4626 15.6774 17.4706C13.8174 17.4786 10.3635 20.0925 14.0775 22.7025C17.7915 25.3125 19.8474 27.2606 24.4014 28.6366C28.9554 30.0126 30.1055 33.2026 30.8595 30.0366C31.6135 26.8706 33.1275 20.7606 29.7135 20.0366C26.2995 19.3126 27.2874 21.2566 29.4494 24.0686C31.6114 26.8806 29.2035 31.3206 33.4635 34.1926C37.7235 37.0646 41.9755 35.0285 39.5835 43.4885C37.1915 51.9485 35.0654 69.8426 42.2414 70.6886C49.4174 71.5346 50.0414 71.4086 53.7094 70.6886C57.3774 69.9686 61.9914 73.6245 66.1994 69.4465C70.4074 65.2685 78.6215 54.0466 79.6955 73.1026C80.7695 92.1586 76.7234 84.0486 74.0794 91.6226" fill="#FFFB7B"/>
<path d="M33.4895 96.5106C33.4895 96.5106 31.3875 78.1926 29.3215 74.9546C28.9203 74.2867 28.4468 73.6649 27.9095 73.1006C27.9095 73.1006 28.6355 56.3006 29.7395 59.4826C30.8435 62.6646 17.8235 40.9946 14.8995 37.8526C11.9755 34.7106 7.25948 30.3086 9.08748 26.3726C10.9155 22.4366 13.5455 23.1126 12.4875 20.0326C12.2745 18.2837 11.9322 16.553 11.4635 14.8546C10.6415 13.5566 7.1755 12.4685 7.1755 12.4685C7.1755 12.4685 1.72947 12.0106 1.80147 16.4406C1.46475 21.3402 2.29691 26.2496 4.22945 30.7645C6.91945 37.0625 11.1714 50.9046 15.1574 55.3446C19.1434 59.7846 23.4055 64.7445 24.1975 68.1445C24.9895 71.5445 27.5974 57.3605 32.3974 59.4885C37.1974 61.6165 43.0895 65.2886 45.4615 62.9346C47.8335 60.5806 58.9935 60.8326 63.5095 61.3546C68.0255 61.8766 71.6154 62.3245 71.0174 59.4885C70.4194 56.6525 63.6315 40.4186 71.2755 34.6886C78.9195 28.9586 74.0915 30.2705 74.0915 30.2705C74.0915 30.2705 83.6055 29.2945 86.8435 26.1245C88.6514 24.304 90.7459 22.7925 93.0434 21.6505C93.0434 21.6505 88.8635 14.6346 91.1955 14.6166C93.5275 14.5986 93.0314 15.0426 95.0074 16.1266C96.9834 17.2106 98.3095 16.9706 99.1075 18.2666C99.7959 19.4619 100.163 20.8153 100.171 22.1946C100.171 23.2166 98.0455 29.4246 98.0455 33.3726C98.0455 37.3206 95.4875 42.2826 93.0455 48.8126C89.9508 56.3672 86.2938 63.6789 82.1054 70.6865C80.5054 72.8385 81.8075 60.2286 78.6335 59.4866C75.4595 58.7446 73.6455 64.5126 71.9835 62.9326C70.3215 61.3526 79.7074 54.7006 81.0374 52.6726C82.3674 50.6446 93.0195 32.7685 91.8735 24.7645C90.7275 16.7605 92.8495 16.5645 88.6875 18.7645C84.5255 20.9645 76.1635 27.1226 74.0875 25.0446C72.0115 22.9666 72.3234 21.8245 68.0474 22.3945C63.7714 22.9645 62.6714 21.1945 56.5794 21.4265C50.4874 21.6585 39.3275 22.9166 36.6695 22.9406C34.0115 22.9646 33.6695 24.7406 29.4575 22.9406C25.2455 21.1406 17.5374 17.4626 15.6774 17.4706C13.8174 17.4786 10.3635 20.0925 14.0775 22.7025C17.7915 25.3125 19.8474 27.2606 24.4014 28.6366C28.9554 30.0126 30.1055 33.2026 30.8595 30.0366C31.6135 26.8706 33.1275 20.7606 29.7135 20.0366C26.2995 19.3126 27.2874 21.2566 29.4494 24.0686C31.6114 26.8806 29.2035 31.3206 33.4635 34.1926C37.7235 37.0646 41.9755 35.0285 39.5835 43.4885C37.1915 51.9485 35.0654 69.8426 42.2414 70.6886C49.4174 71.5346 50.0414 71.4086 53.7094 70.6886C57.3774 69.9686 61.9914 73.6245 66.1994 69.4465C70.4074 65.2685 78.6215 54.0466 79.6955 73.1026C80.7695 92.1586 76.7234 84.0486 74.0794 91.6226" stroke="#6532B3" stroke-width="1.6" stroke-linecap="round" stroke-linejoin="round"/>
<path d="M46.5153 12.5782C46.5153 12.5782 44.3153 11.8162 45.0493 14.2662C45.7833 16.7162 47.5112 15.5022 47.5112 15.5022C47.5112 15.5022 47.6933 19.8382 48.9113 18.6402C50.1293 17.4422 50.9113 14.0402 51.8433 15.7382C52.7753 17.4362 55.1013 19.7562 56.1133 17.8742C57.1253 15.9922 57.1132 16.5262 58.2972 17.8742C59.4812 19.2222 60.2092 16.2442 60.2092 16.2442C60.2092 16.2442 62.6833 12.5462 61.2313 11.6142C59.7793 10.6822 58.6453 -0.683865 51.6073 1.98213C44.5693 4.64813 44.1233 6.5222 46.5153 12.5782Z" fill="#FFFB7B" stroke="#6532B3" stroke-width="1.6" stroke-linecap="round" stroke-linejoin="round"/>
</svg>
