<!-- <svg width="60" height="103" viewBox="0 0 60 103" fill="none" xmlns="http://www.w3.org/2000/svg">
<path d="M34.3605 99.1708L41.0809 101.695C44.9655 102.396 60.7293 104.086 58.3619 87.9639C57.5555 85.739 56.5871 83.5798 55.4649 81.5047C53.8524 78.6623 48.4952 71.5445 49.4252 70.1295C50.3551 68.7145 55.4212 66.4541 55.1763 64.0088C54.9314 61.5635 49.1943 52.0012 50.6576 45.8853C52.121 39.7694 44.2065 38.5074 42.9775 38.2482C41.7485 37.9891 37.0786 35.412 39.4742 32.1489C41.8697 28.8857 45.7509 12.5068 34.4173 5.78109C23.0837 -0.944638 12.8151 -0.141126 10.2692 10.5436C7.72332 21.2283 12.3031 26.6102 10.6087 26.9891C8.91432 27.3681 2.5093 26.9201 1.90284 31.4104C1.29639 35.9007 0.947445 52.6246 7.98887 58.6636C15.0303 64.7026 18.1084 65.6969 18.6963 68.3481C19.2842 70.9993 25.115 90.2868 32.8478 92.5985C36.4359 92.6367 39.8995 91.2466 42.5145 88.7188C38.7584 87.521 35.5498 84.9665 33.4807 81.5263C28.5306 73.5511 25.7041 64.378 25.2844 54.9256C24.929 47.2863 23.0935 39.797 19.8858 32.8975C19.608 32.3397 15.5335 20.7226 21.9927 16.2689C28.4518 11.8153 34.6511 15.9047 34.8166 22.1368C34.982 28.3689 31.6194 42.7745 36.1506 53.4774C40.6818 64.1803 43.7428 72.3175 46.8856 77.2334C50.0285 82.1494 49.6213 86.5703 45.8416 88.1811C42.0619 89.7919 37.2895 93.9971 33.3346 89.3745C28.374 82.4619 24.2873 74.9288 21.1729 66.9562C20.1796 63.3528 17.5109 58.4974 17.9949 54.8481C18.4788 51.1989 17.7972 38.8196 16.5858 35.4104C15.3745 32.0013 16.0535 23.7286 14.8579 21.4388C13.6622 19.1489 13.315 6.54183 24.7503 6.78026C36.1857 7.01868 37.9943 17.6102 38.3619 18.8007C38.6135 25.0566 38.443 31.3229 37.8516 37.5546C37.3422 39.6638 38.1656 56.5905 43.1106 63.4364C43.1106 63.4364 47.1978 74.0525 51.8014 78.6867C56.4051 83.3208 57.5265 95.5321 47.46 95.8496C37.3935 96.1671 35.8034 96.4583 34.3688 96.1326C32.9341 95.8069 31.2219 93.3328 28.6632 90.9264" stroke="#7700AA" stroke-width="1.55108" stroke-linecap="round" stroke-linejoin="round"/>
</svg> -->

<svg width="60px" height="103px" viewBox="0 0 60 103" version="1.1" xmlns="http://www.w3.org/2000/svg" xmlns:xlink="http://www.w3.org/1999/xlink">
    <!-- Generator: Sketch 63.1 (92452) - https://sketch.com -->
    <title>Path</title>
    <desc>Created with Sketch.</desc>
    <g id="Page-1" stroke="none" stroke-width="1" fill="none" fill-rule="evenodd" stroke-linecap="round" stroke-linejoin="round">
        <g id="reads" transform="translate(-27.000000, -6.000000)" stroke="#7700AA" stroke-width="1.55108">
            <path d="M61.3605,105.171 L68.0809,107.695 C71.9655,108.396 87.729,110.086 85.3619,93.9639 C84.5555,91.739 83.5871,89.5798 82.4649,87.5047 C80.8524,84.6623 75.4952,77.5445 76.4252,76.1295 C77.3551,74.7145 82.4212,72.4541 82.1763,70.0088 C81.9314,67.5635 76.1943,58.0012 77.6576,51.8853 C79.121,45.7694 71.2065,44.5074 69.9775,44.2482 C68.7485,43.9891 64.0786,41.412 66.4742,38.1489 C68.8697,34.8857 72.7509,18.5068 61.4173,11.7811 C50.0837,5.0554 39.8151,5.8589 37.2692,16.5436 C34.7233,27.2283 39.3031,32.6102 37.6087,32.9891 C35.9143,33.3681 29.5093,32.9201 28.9028,37.4104 C28.2964,41.9007 27.9474,58.6246 34.9889,64.6636 C42.0303,70.7026 45.1084,71.6969 45.6963,74.3481 C46.2842,76.9993 52.115,96.287 59.8478,98.599 C63.4359,98.637 66.8995,97.247 69.5145,94.719 C65.7584,93.521 62.5498,90.9665 60.4807,87.5263 C55.5306,79.5511 52.7041,70.378 52.2844,60.9256 C51.929,53.2863 50.0935,45.797 46.8858,38.8975 C46.608,38.3397 42.5335,26.7226 48.9927,22.2689 C55.4518,17.8153 61.6511,21.9047 61.8166,28.1368 C61.982,34.3689 58.6194,48.7745 63.1506,59.4774 C67.6818,70.1803 70.7428,78.3175 73.8856,83.2334 C77.0285,88.1494 76.6213,92.5703 72.8416,94.181 C69.0619,95.792 64.2895,99.997 60.3346,95.374 C55.374,88.4619 51.2873,80.9288 48.1729,72.9562 C47.1796,69.3528 44.5109,64.4974 44.9949,60.8481 C45.4788,57.1989 44.7972,44.8196 43.5858,41.4104 C42.3745,38.0013 43.0535,29.7286 41.8579,27.4388 C40.6622,25.1489 40.315,12.5418 51.7503,12.7803 C63.1857,13.0187 64.9943,23.6102 65.3619,24.8007 C65.6135,31.0566 65.443,37.3229 64.8516,43.5546 C64.3422,45.6638 65.1656,62.5905 70.1106,69.4364 C70.1106,69.4364 74.1978,80.0525 78.8014,84.6867 C83.4051,89.3208 84.5265,101.532 74.46,101.85 C64.3935,102.167 62.8034,102.458 61.3688,102.133 C59.9341,101.807 58.2219,99.333 55.6632,96.926" id="Path"></path>
        </g>
    </g>
</svg>


