<svg width="84" height="82" viewBox="0 0 84 82" fill="none" xmlns="http://www.w3.org/2000/svg">
<path d="M12.9675 59.5602C12.9675 59.5602 8.77124 54.7602 11.4906 42.7971C14.21 30.8341 19.6432 21.7307 31.0949 27.5424C42.5466 33.3541 54.5817 24.4039 57.6796 25.1959C60.7774 25.9879 73.1595 26.7559 71.3411 59.5602C71.3411 59.5602 71.5792 61.3067 67.25 60.7251C62.9208 60.1436 7.02849 62.9036 4.8888 60.8451C2.74911 58.7867 1.53616 55.9898 6.25493 55.3252C10.9737 54.6605 15.8679 54.0661 13.6728 55.3252C11.4777 56.5842 0.515222 56.4568 1.3423 59.7559C2.16938 63.055 0.788447 78.5867 2.35214 79.1664C3.91583 79.7461 31.8648 80.3313 31.8648 80.3313C31.8648 80.3313 79.1153 82.6612 79.85 80.3313C80.5848 78.0015 82.106 60.1455 80.4721 59.9516C78.0352 59.9365 75.5996 60.0659 73.178 60.3393C73.178 60.3393 78.4469 26.7393 60.3971 23.6396C42.3472 20.5399 56.1288 27.5368 40.4069 31.4174C40.2465 26.8612 41.6389 22.3857 44.356 18.7247C47.073 15.0638 50.9534 12.4346 55.3608 11.2685C55.3608 11.2685 54.7792 8.33315 53.4205 9.29684C52.0617 10.2605 43.6562 18.2064 41.2599 20.1541C38.8635 22.1018 44.1362 7.86979 26.6512 1.87718C26.6512 1.87718 23.1232 0.874718 23.3281 1.87718C23.5331 2.87964 21.8383 23.1522 38.4777 24.3781C55.1171 25.6039 43.9128 26.5935 43.9128 26.5935C43.9128 26.5935 26.6383 24.2304 33.8199 31.9953C41.0014 39.7602 77.45 29.6895 82.5583 39.1953" stroke="#6532B3" stroke-width="1.19385" stroke-linecap="round" stroke-linejoin="round"/>
</svg>
