<svg width="35" height="35" viewBox="0 0 35 35" fill="none" xmlns="http://www.w3.org/2000/svg">
<rect width="35" height="35" rx="6" fill="#170C42"/>
<path d="M28.4372 7.65604V14.2185C28.4372 14.5086 28.322 14.7868 28.1169 14.9919C27.9118 15.1971 27.6336 15.3123 27.3435 15.3123C27.0534 15.3123 26.7752 15.1971 26.5701 14.9919C26.365 14.7868 26.2497 14.5086 26.2497 14.2185V10.3029L21.5466 15.006C21.3403 15.2053 21.064 15.3155 20.7773 15.313C20.4905 15.3105 20.2162 15.1955 20.0134 14.9927C19.8106 14.7899 19.6955 14.5156 19.6931 14.2288C19.6906 13.942 19.8008 13.6658 20 13.4595L24.7032 8.75635H20.7875C20.4975 8.75635 20.2193 8.64111 20.0141 8.436C19.809 8.23088 19.6938 7.95268 19.6938 7.6626C19.6938 7.37252 19.809 7.09432 20.0141 6.8892C20.2193 6.68408 20.4975 6.56885 20.7875 6.56885H27.35C27.6374 6.5689 27.9132 6.68205 28.1178 6.88385L28.1266 6.8926C28.3268 7.09559 28.4398 7.36874 28.4416 7.65385V7.6626L28.4372 7.65604ZM7.65598 19.6873C7.94606 19.6873 8.22426 19.8025 8.42937 20.0076C8.63449 20.2128 8.74973 20.491 8.74973 20.781V24.6967L13.4529 19.9935C13.6591 19.7943 13.9354 19.6841 14.2222 19.6865C14.509 19.689 14.7833 19.8041 14.9861 20.0069C15.1889 20.2096 15.3039 20.484 15.3064 20.7708C15.3089 21.0575 15.1986 21.3338 14.9994 21.5401L10.2963 26.2432H14.2119C14.502 26.2432 14.7802 26.3585 14.9853 26.5636C15.1904 26.7687 15.3057 27.0469 15.3057 27.337C15.3057 27.6271 15.1904 27.9053 14.9853 28.1104C14.7802 28.3155 14.502 28.4307 14.2119 28.4307H7.64285C7.35429 28.429 7.0781 28.3133 6.87446 28.1088C6.67082 27.9044 6.55624 27.6277 6.55566 27.3392V20.7767C6.55566 20.4866 6.6709 20.2084 6.87602 20.0033C7.08113 19.7981 7.35933 19.6829 7.64941 19.6829L7.65598 19.6873Z" fill="#F1F1F1"/>
<path fill-rule="evenodd" clip-rule="evenodd" d="M1.09375 10.935C1.09375 7.48843 1.09375 5.76513 1.76461 4.45214C2.35676 3.29685 3.29685 2.35676 4.45214 1.76461C5.76923 1.09375 7.48843 1.09375 10.935 1.09375H24.065C27.5116 1.09375 29.2349 1.09375 30.5479 1.76461C31.7031 2.35676 32.6432 3.29685 33.2354 4.45214C33.9063 5.76923 33.9063 7.48843 33.9063 10.935V24.065C33.9063 27.5116 33.9063 29.2349 33.2354 30.5479C32.6455 31.7048 31.7048 32.6455 30.5479 33.2354C29.2308 33.9063 27.5116 33.9062 24.065 33.9062H10.935C7.48843 33.9062 5.76513 33.9063 4.45214 33.2354C3.29519 32.6455 2.35448 31.7048 1.76461 30.5479C1.09375 29.2308 1.09375 27.5116 1.09375 24.065V10.935ZM10.9412 3.13915H24.0711C25.8293 3.13915 27.0254 3.13915 27.9485 3.2171C28.8471 3.28891 29.3087 3.42226 29.6288 3.58638C30.4002 3.98028 31.0279 4.60806 31.4218 5.37944C31.5859 5.69948 31.7193 6.15903 31.7911 7.05966C31.867 7.98286 31.8691 9.17276 31.8691 10.9371V24.067C31.8691 25.8252 31.867 27.0212 31.7911 27.9444C31.7172 28.843 31.5839 29.3046 31.4218 29.6247C31.0285 30.3967 30.4008 31.0243 29.6288 31.4177C29.3087 31.5818 28.8471 31.7152 27.9485 31.787C27.0254 31.8609 25.8355 31.8629 24.0711 31.8629H10.9412C9.18301 31.8629 7.98696 31.8629 7.06376 31.787C6.16518 31.7131 5.70358 31.5798 5.38354 31.4177C4.61153 31.0243 3.98386 30.3967 3.59049 29.6247C3.42636 29.3046 3.29301 28.843 3.22121 27.9424C3.1453 27.0192 3.14325 25.8293 3.14325 24.065V10.935C3.14325 9.17891 3.1453 7.98081 3.22121 7.05761C3.29506 6.16108 3.42841 5.69948 3.59049 5.37944C3.98438 4.60806 4.61216 3.98028 5.38354 3.58638C5.70358 3.42226 6.16518 3.28891 7.06376 3.2171C7.98696 3.13915 9.17686 3.13915 10.9412 3.13915Z" fill="#F1F1F1"/>
</svg>
