<svg width="18" height="75" viewBox="0 0 18 75" fill="none" xmlns="http://www.w3.org/2000/svg">
<g clip-path="url(#clip0_6_78)">
<path d="M16.3376 7.36173C16.159 10.7629 15.9874 14.2456 15.7876 17.7273C15.6413 20.2827 15.4788 22.8382 15.283 25.3906C15.0701 28.1763 14.8087 30.958 14.5715 33.7417C14.3768 36.0261 14.2436 38.3177 13.9822 40.594C13.4978 44.8184 12.975 49.0398 12.3876 53.251C12.2312 54.3719 11.8003 55.457 11.4582 56.5463C11.2674 57.1546 10.8224 57.5244 10.1987 57.6905C8.96748 58.0186 7.74232 58.3722 6.51413 58.7094C5.87329 58.8857 5.68154 58.8083 5.32429 58.2203C4.68648 57.1698 4.38977 55.9869 4.19096 54.8019C3.67829 51.7553 3.14241 48.7066 2.80433 45.6366C2.30276 41.081 1.93037 36.5091 1.56504 31.9402C1.2643 28.1835 1.03521 24.4206 0.805114 20.6587C0.54676 16.4393 0.316664 12.22 0.0906043 8.00059C0.0300526 6.88691 0.0239975 5.77119 0.000785998 4.65546C-0.0325174 3.0099 0.539696 2.08472 2.10395 1.63028C4.74703 0.863026 7.40222 0.113098 10.1805 0.0112053C11.5742 -0.039741 12.9508 0.0743786 14.2769 0.532895C15.7119 1.02911 16.2751 1.79534 16.3386 3.31965C16.3659 3.97788 16.3386 4.63916 16.3386 5.29841C16.3386 5.95867 16.3386 6.61791 16.3386 7.36173H16.3376ZM5.96109 57.4144C6.02972 57.4123 6.09935 57.4103 6.16798 57.4093C6.30523 56.9548 6.49899 56.5096 6.56863 56.0449C6.94001 53.5944 7.33158 51.1439 7.61819 48.6822C7.99159 45.4705 8.2994 42.2497 8.58601 39.0279C8.91904 35.2894 9.22483 31.549 9.49428 27.8054C9.76071 24.1088 9.99282 20.4091 10.1916 16.7083C10.4066 12.6938 10.563 8.67512 10.7507 4.65852C10.7972 3.67628 10.6448 3.28399 9.45089 2.93246C9.22785 2.86725 8.99574 2.8 8.76665 2.79593C7.05809 2.76536 5.34952 2.72562 3.64196 2.74498C3.18883 2.75008 2.72359 2.90903 2.29065 3.069C1.5832 3.32984 1.35815 3.67526 1.38036 4.42417C1.44293 6.57512 1.48632 8.72709 1.6044 10.875C1.85367 15.4387 2.13624 20.0015 2.42084 24.5632C2.59543 27.3693 2.7569 30.1775 2.9991 32.9775C3.39067 37.4975 3.80242 42.0174 4.28785 46.5282C4.61886 49.6013 5.07905 52.6591 5.51099 55.7199C5.59173 56.2946 5.80769 56.8489 5.9621 57.4134L5.96109 57.4144ZM9.95548 1.6048C10.3087 1.76172 10.6851 1.88195 11.0111 2.0837C12.0112 2.70219 12.2231 3.68443 12.1808 4.78079C12.0859 7.27614 12.0122 9.77251 11.9133 12.2679C11.8356 14.2456 11.764 16.2243 11.6338 18.199C11.3835 21.9904 11.109 25.7819 10.8153 29.5702C10.5348 33.1864 10.2431 36.8025 9.90401 40.4136C9.62144 43.4143 9.31868 46.4161 8.91803 49.4016C8.60518 51.7308 8.12884 54.0377 7.72415 56.3547C7.69287 56.531 7.64846 56.7042 7.59296 56.9528C8.31756 56.7602 8.95335 56.5758 9.59722 56.427C9.99081 56.3364 10.233 56.1285 10.3168 55.7301C10.67 54.0428 11.106 52.3687 11.3583 50.6671C11.7478 48.0443 12.0405 45.4053 12.322 42.7673C12.6561 39.629 12.9558 36.4867 13.2313 33.3423C13.526 29.9788 13.7935 26.6133 14.0377 23.2457C14.2627 20.1441 14.4676 17.0405 14.6291 13.9348C14.7633 11.3467 14.8289 8.7546 14.9106 6.16347C14.9439 5.11296 14.9571 4.06143 14.948 3.01092C14.9439 2.52387 14.6472 2.18457 14.2163 2.00422C12.8418 1.42853 11.3966 1.52227 9.95447 1.6048H9.95548Z" fill="black"/>
<path d="M9.66809 61.1548C11.7642 61.2557 13.7806 61.5267 15.5557 62.7555C16.7234 63.5645 17.5963 64.5916 17.9021 66.0293C18.2069 67.4619 17.7649 68.7285 17.017 69.9135C16.0008 71.5244 14.4769 72.5199 12.8228 73.3309C11.1778 74.1379 9.44606 74.7167 7.63456 74.9531C5.1035 75.2832 2.47757 73.7854 1.19186 71.5397C-0.90222 67.8807 0.962772 62.6679 5.88361 61.6612C7.12693 61.4065 8.40458 61.3188 9.66708 61.1548H9.66809ZM6.94023 73.5582C9.80937 73.5897 12.1901 71.286 12.2173 68.4503C12.2466 65.3222 10.101 63.1284 7.0573 63.0092C4.20128 62.8971 1.73783 65.205 1.7338 68.2822C1.72976 71.2238 3.98531 73.5255 6.94023 73.5582ZM10.0808 62.2939C11.8732 63.375 13.0277 64.9054 13.495 66.9402C13.9713 69.0158 13.4223 70.8672 12.1891 72.5698C13.9249 72.1235 15.2459 71.1698 15.8686 69.4774C16.6184 67.4395 16.3379 65.4954 14.8987 63.8407C13.6251 62.3765 11.9357 62.0249 10.0808 62.2939Z" fill="black"/>
</g>
<defs>
<clipPath id="clip0_6_78">
<rect width="18" height="75" fill="white"/>
</clipPath>
</defs>
</svg>
