<svg width="43" height="69" viewBox="0 0 43 69" fill="none" xmlns="http://www.w3.org/2000/svg">
<path d="M21.3105 47.9517L10.1587 45.3546C11.0155 42.7862 11.8319 40.288 12.6837 37.8029C13.3664 35.811 14.6334 34.2428 16.3412 33.1996C18.7568 31.7239 21.2483 30.374 23.7643 29.0954C26.2263 27.8441 28.2898 26.2043 29.3366 23.4842C30.4949 20.4719 30.2907 17.4721 28.7335 14.6653C27.8725 13.1131 26.3695 12.2644 24.7884 11.672C22.9561 10.986 21.066 10.6421 19.1128 10.9241C17.6248 11.1396 16.3577 11.8091 15.3261 12.9487C13.6837 14.7605 12.4513 16.8038 11.9081 19.2846C11.3534 21.8202 8.28217 24.5441 4.54307 23.4222C1.40327 22.4798 -0.426094 19.2494 0.401874 15.9526C1.44126 11.8144 3.14756 8.03215 6.12508 5.03056C9.50689 1.61975 13.6478 0.0613026 18.3176 0.0481792C25.3327 0.0273817 31.6373 2.24425 37.0919 6.93259C40.0686 9.4915 42.0661 12.7235 42.6592 16.7502C43.0919 19.6883 42.8336 22.6015 42.0483 25.4623C41.3103 28.15 40.087 30.5369 38.1852 32.5159C36.6419 34.1219 34.753 35.2098 32.8547 36.2567C30.836 37.3695 28.7735 38.3958 26.7155 39.4279C23.5652 41.007 22.1319 43.8249 21.5137 47.2469C21.4805 47.4327 21.4562 47.6195 21.4187 47.8044C21.4103 47.8447 21.3677 47.877 21.3114 47.9531L21.3105 47.9517Z" fill="black"/>
<circle cx="14" cy="62" r="7" fill="black"/>
</svg>
