<svg width="46" height="68" viewBox="0 0 46 68" fill="none" xmlns="http://www.w3.org/2000/svg">
<g clip-path="url(#clip0_6_81)">
<path d="M45.9998 44.3117C45.9846 44.2174 45.9711 44.1248 45.9559 44.0304C45.6893 43.5134 45.8749 42.9678 45.853 42.4356C45.8597 42.3834 45.8682 42.3312 45.8749 42.2773C45.5847 40.1537 45.1173 38.0789 44.4002 36.0479C43.8114 34.3806 43.2765 32.6915 42.5189 31.0967C41.0291 27.9558 39.5122 24.8319 37.7676 21.8174C35.4813 17.8665 33.0804 13.9914 30.536 10.2039C29.9741 9.36691 29.4139 8.52824 28.8521 7.68957C28.7626 7.54642 28.6732 7.40327 28.5821 7.26181C26.9556 5.12639 25.3527 2.97413 23.8409 0.754502C23.7464 0.623143 23.6519 0.493468 23.5574 0.36211C23.4629 0.257697 23.3684 0.153283 23.274 0.0488699C22.9196 -0.0976455 22.6817 0.104445 22.4489 0.323376C22.0777 1.20078 21.391 1.85926 20.8325 2.60363C18.7015 5.44636 16.7088 8.38509 14.7195 11.3255C14.6537 11.4232 14.5626 11.5023 14.4833 11.5916C13.7088 12.7856 12.9344 13.9779 12.1599 15.172C11.9085 15.6384 11.6774 16.1167 11.3079 16.5074C11.3095 16.5529 11.2927 16.5883 11.2555 16.6152C10.7072 17.5381 10.2567 18.5199 9.59021 19.3721C9.4468 19.6112 9.30338 19.8487 9.15996 20.0878C8.33151 21.5765 7.50138 23.0636 6.67293 24.5523C6.63074 24.7948 6.51939 25.002 6.35235 25.1822C6.12288 25.5964 5.89341 26.0124 5.66225 26.4267C5.53065 26.8359 5.35517 27.2233 5.07846 27.5601C5.0464 27.5971 5.01603 27.6359 4.98397 27.6729C4.5689 28.973 3.83325 30.1317 3.32876 31.3914C2.77196 32.7824 2.19829 34.1668 1.63137 35.5528C1.61956 35.6993 1.61787 35.8492 1.48964 35.9553C1.45927 36.3156 1.33778 36.644 1.16231 36.9573C1.17243 37.0718 1.16231 37.1796 1.06276 37.2571C0.715182 38.8182 0.352419 40.376 0.0858306 41.954C-0.0154055 42.5535 0.109452 43.148 -0.00190735 43.7374C-0.00190735 44.2191 -0.00190735 44.699 -0.00022008 45.1807C0.139823 47.7018 0.851851 50.1066 1.50989 52.5216C1.64487 52.8618 1.77816 53.202 1.91314 53.5422C2.01944 53.6129 2.04644 53.7173 2.04306 53.8369C2.20167 54.0508 2.30459 54.2882 2.35689 54.5492C2.43451 54.6974 2.51381 54.844 2.59142 54.9922C2.65723 55.1319 2.72303 55.2734 2.79052 55.4132C3.6021 56.8026 4.45417 58.165 5.43953 59.4415C5.65719 59.6891 5.87485 59.9349 6.09251 60.1825C7.70385 61.875 9.46029 63.384 11.4631 64.6083C12.9833 65.5362 14.5727 66.3092 16.2279 66.9559C16.3224 66.9812 16.4169 67.0064 16.5114 67.0317C16.5586 67.0569 16.6059 67.0805 16.6531 67.1058C16.7021 67.094 16.7442 67.1058 16.783 67.1361C18.0856 67.414 19.3882 67.6935 20.6908 67.9714C21.1699 67.9815 21.6491 67.9899 22.1283 68C24.6373 68.0506 27.0922 67.7238 29.4932 66.9795C31.3813 66.3934 33.131 65.5227 34.825 64.5224C35.1135 64.3523 35.402 64.1822 35.6906 64.0104C35.8289 63.9077 35.9673 63.8067 36.1056 63.7039C37.4673 62.4897 38.8879 61.3428 40.0943 59.9568C41.4256 58.4277 42.4464 56.6981 43.5026 54.9871C43.7118 54.5055 43.9211 54.0238 44.1303 53.5422C44.1623 53.4849 44.1944 53.4276 44.2265 53.3687C44.2568 53.2778 44.2872 53.1868 44.3193 53.0976C44.3733 52.9544 44.4256 52.813 44.4779 52.6698C44.4779 52.6193 44.4947 52.5755 44.5319 52.5384C44.5217 52.4879 44.5335 52.4425 44.569 52.4037C44.6601 52.0652 44.7529 51.725 44.844 51.3848C45.0313 50.7112 45.2186 50.0393 45.4076 49.3656C45.4447 48.9682 45.5189 48.5775 45.6859 48.212C45.7416 47.3952 45.7956 46.5768 45.8513 45.76C45.8378 45.6017 45.7669 45.4316 45.9509 45.3171C45.966 45.2245 45.9812 45.1318 45.9981 45.0375C45.9981 44.7967 45.9981 44.5576 45.9981 44.3167L45.9998 44.3117ZM14.9692 28.4156C15.5142 28.675 16.3157 29.3402 16.3292 29.6231C16.3477 29.7646 16.2667 29.8471 16.1537 29.9043C16.2667 29.8454 16.3477 29.7646 16.3292 29.6214C16.3157 29.3385 15.5159 28.6733 14.9709 28.4139L14.9692 28.4156ZM41.348 43.2676C41.3041 47.8651 40.5398 51.5566 38.4358 54.8979C37.6849 56.0885 36.7569 57.1225 35.7159 58.0555C35.0865 58.6197 34.1197 58.591 33.6237 58.0555C33.0922 57.4829 33.104 56.5196 33.7333 55.9184C35.6433 54.0945 36.9948 51.9238 37.6343 49.3791C38.4121 46.2871 38.5151 43.1648 37.9363 39.992C37.5972 38.1328 37.1922 36.3039 36.654 34.4952C36.4009 33.6464 36.7147 32.8734 37.3255 32.646C38.3058 32.2823 39.0229 32.5416 39.3992 33.5218C40.1703 35.5342 40.7169 37.5989 40.9515 39.7613C41.1033 41.1658 41.375 42.5535 41.348 43.2659V43.2676Z" fill="black"/>
</g>
<defs>
<clipPath id="clip0_6_81">
<rect width="46" height="68" fill="white"/>
</clipPath>
</defs>
</svg>
