<svg width="49" height="43" viewBox="0 0 49 43" fill="none" xmlns="http://www.w3.org/2000/svg">
<path d="M24.4855 42.9997C24.3851 42.9022 24.306 42.8285 24.2302 42.7516C17.4141 35.8354 10.5979 28.9171 3.77963 22.002C1.93835 20.1348 0.707987 17.9219 0.241259 15.3221C-0.513836 11.1196 0.496517 7.37972 3.31077 4.18823C5.13282 2.12271 7.42374 0.839609 10.0959 0.267417C11.1447 0.0430921 12.2096 -0.045771 13.2787 0.0214182C16.5041 0.225153 19.2842 1.45948 21.5858 3.77426C22.4701 4.66397 23.348 5.56128 24.2291 6.45533C24.305 6.53227 24.384 6.60704 24.4823 6.70349C24.5709 6.61896 24.6499 6.54852 24.7247 6.47375C25.6485 5.53852 26.5649 4.5957 27.4984 3.66914C29.3525 1.82902 31.5611 0.662967 34.1116 0.208898C40.7953 -0.979918 47.039 3.253 48.5801 9.69124C49.693 14.3414 48.594 18.493 45.2682 21.9034C38.4521 28.8922 31.5761 35.8192 24.7236 42.7722C24.6542 42.8426 24.5816 42.9087 24.4855 42.9997Z" fill="black"/>
</svg>
