<svg version="1.0" xmlns="http://www.w3.org/2000/svg"
 width="96" height="146" viewBox="0 0 1280.000000 1947.000000"
 preserveAspectRatio="xMidYMid meet">
<metadata>
Created by potrace 1.16, written by Peter Selinger 2001-2019
</metadata>
<g transform="translate(0.000000,1947.000000) scale(0.100000,-0.100000)"
fill="#000000" stroke="none">
<path d="M5521 10058 c-24 -4 -51 -14 -61 -23 -9 -8 -21 -15 -26 -15 -5 0 -29
-18 -53 -38 l-44 -38 64 -48 c35 -27 75 -53 89 -58 34 -14 161 -17 1004 -22
616 -5 733 -3 762 9 38 15 144 95 144 107 0 15 -121 97 -158 108 -62 18 -1629
35 -1721 18z"/>
<path d="M5487 9685 c-28 -11 -146 -96 -146 -105 -1 -15 89 -90 108 -90 6 0
11 -4 11 -9 0 -10 55 -23 125 -27 28 -2 411 -6 852 -9 642 -4 806 -2 826 8 33
17 137 98 137 106 0 4 -19 22 -41 41 -23 19 -47 40 -55 47 -7 7 -19 13 -27 13
-9 0 -17 4 -19 10 -7 20 -1724 34 -1771 15z"/>
<path d="M5506 9323 c-2 -2 -24 -7 -47 -9 -24 -3 -48 -8 -54 -12 -5 -4 -12 -7
-15 -8 -42 -8 -139 -58 -172 -88 -43 -38 -102 -116 -122 -159 -15 -33 -64
-220 -64 -247 0 -30 -22 -166 -31 -197 -5 -17 -7 -34 -5 -36 3 -3 -6 -49 -19
-103 -13 -55 -24 -108 -25 -119 -1 -30 -60 -264 -77 -305 -8 -19 -24 -73 -36
-120 -11 -47 -24 -89 -29 -95 -4 -5 -13 -35 -20 -65 -7 -30 -16 -60 -21 -65
-4 -6 -13 -33 -20 -60 -7 -27 -18 -61 -26 -75 -7 -14 -13 -30 -13 -36 0 -6 -9
-33 -21 -60 -27 -65 -34 -81 -54 -134 -9 -25 -23 -60 -31 -78 -8 -18 -14 -39
-14 -47 0 -8 -4 -15 -10 -15 -5 0 -10 -8 -10 -17 0 -10 -7 -31 -15 -47 -8 -15
-15 -35 -15 -42 0 -8 -4 -14 -10 -14 -5 0 -10 -7 -10 -15 0 -14 -26 -75 -76
-180 -13 -28 -24 -56 -24 -63 0 -6 -4 -12 -10 -12 -5 0 -10 -6 -10 -13 0 -7
-11 -35 -24 -63 -84 -174 -106 -221 -106 -232 0 -7 -4 -12 -10 -12 -5 0 -10
-9 -10 -19 0 -11 -4 -21 -8 -23 -11 -4 -82 -154 -82 -173 0 -8 -4 -15 -10 -15
-5 0 -10 -9 -10 -19 0 -11 -4 -22 -9 -26 -5 -3 -12 -19 -16 -36 -4 -17 -13
-42 -21 -57 -8 -15 -14 -33 -14 -40 0 -8 -7 -28 -15 -45 -18 -39 -85 -308 -90
-360 -2 -20 -6 -45 -9 -55 -17 -59 -27 -382 -15 -487 23 -193 23 -194 48 -299
23 -96 79 -276 91 -291 5 -5 9 -14 9 -20 2 -20 14 -50 24 -64 6 -7 12 -18 13
-25 2 -11 37 -89 53 -116 5 -8 14 -26 20 -40 6 -14 20 -38 31 -55 11 -16 24
-39 30 -50 19 -36 80 -134 92 -150 5 -5 26 -35 48 -65 21 -30 46 -62 55 -71 8
-9 15 -21 15 -27 0 -6 6 -15 14 -19 7 -4 35 -35 61 -68 53 -66 211 -224 295
-295 29 -25 61 -52 70 -60 10 -8 26 -21 37 -27 10 -7 44 -31 75 -53 31 -22 61
-40 67 -40 6 0 11 -4 11 -8 0 -4 26 -21 58 -37 31 -17 59 -33 60 -37 2 -5 12
-8 23 -8 10 0 19 -4 19 -10 0 -5 9 -10 20 -10 11 0 20 -3 20 -8 0 -7 13 -13
100 -49 19 -8 49 -20 65 -27 17 -8 46 -17 65 -21 19 -4 40 -11 45 -15 6 -5 64
-22 130 -38 108 -27 148 -35 250 -48 205 -28 500 -23 710 11 17 3 48 7 70 11
105 15 393 95 480 133 11 5 38 17 60 26 51 22 194 92 219 108 11 7 44 27 72
44 29 18 56 33 59 33 4 0 26 16 49 35 24 19 48 35 54 35 7 0 17 9 24 20 7 11
18 20 23 20 6 0 28 16 49 35 21 19 41 35 44 35 3 0 64 60 136 132 128 129 226
245 226 267 0 6 5 11 10 11 6 0 14 8 17 18 4 9 17 28 30 42 13 14 23 30 23 37
0 7 4 13 9 13 5 0 11 8 14 18 6 18 48 94 58 102 12 11 119 239 119 254 0 9 4
16 9 16 5 0 12 18 16 40 4 22 10 40 14 40 4 0 14 26 21 58 7 31 16 62 20 67
11 13 62 216 56 222 -2 2 0 19 5 36 42 142 55 556 24 745 -3 17 -7 47 -10 65
-2 17 -7 43 -10 57 -2 14 -7 41 -10 60 -3 19 -10 49 -15 65 -9 27 -45 156 -54
195 -5 20 -52 143 -70 183 -8 17 -20 47 -27 65 -8 18 -35 75 -61 125 -84 166
-96 191 -147 300 -28 60 -51 112 -51 116 0 4 -5 12 -12 19 -6 6 -13 18 -14 25
-1 7 -13 38 -26 68 -14 30 -31 71 -37 91 -7 21 -17 40 -22 43 -5 4 -9 13 -9
22 0 8 -6 29 -14 46 -12 28 -26 62 -31 77 -1 3 -7 18 -13 33 -7 16 -12 34 -12
40 0 7 -8 24 -17 37 -10 14 -16 26 -15 28 2 1 -16 60 -39 130 -23 70 -48 150
-56 177 -32 114 -64 232 -69 255 -3 14 -8 34 -11 45 -8 24 -10 32 -17 65 -9
39 -15 68 -22 93 -3 12 -7 33 -10 47 -2 14 -9 48 -14 75 -12 63 -20 105 -25
130 -2 11 -6 31 -9 45 -2 14 -7 48 -11 75 -3 28 -8 59 -10 70 -6 26 -14 83
-20 143 -6 48 -15 109 -19 127 -31 125 -74 210 -137 276 -30 31 -70 65 -89 75
-19 11 -37 22 -40 25 -3 4 -25 12 -50 19 -25 7 -50 16 -57 22 -7 5 -18 8 -25
5 -7 -2 -26 0 -43 5 -16 5 -147 11 -290 14 -420 7 -1434 12 -1439 7z m494
-254 c0 -6 -4 -29 -9 -52 -5 -23 -15 -76 -21 -117 -6 -41 -15 -95 -20 -120 -5
-25 -13 -79 -20 -120 -12 -77 -23 -145 -40 -250 -5 -33 -14 -87 -20 -120 -5
-33 -15 -88 -22 -122 -7 -35 -11 -67 -10 -71 1 -5 -2 -25 -8 -46 -5 -21 -12
-58 -15 -82 -2 -24 -9 -59 -14 -78 -6 -19 -9 -37 -6 -41 2 -3 -2 -32 -9 -63
-7 -31 -11 -58 -9 -61 2 -2 -3 -30 -11 -62 -8 -31 -13 -60 -11 -64 2 -4 -2
-31 -10 -60 -8 -29 -12 -56 -10 -60 3 -4 0 -22 -6 -41 -5 -19 -12 -54 -14 -78
-3 -24 -10 -61 -15 -82 -6 -21 -9 -41 -8 -46 2 -7 -3 -34 -33 -191 -6 -30 -9
-56 -6 -59 3 -2 1 -19 -4 -36 -5 -18 -12 -52 -14 -76 -3 -24 -10 -61 -15 -82
-6 -21 -9 -41 -8 -46 1 -4 -3 -36 -10 -70 -7 -35 -16 -90 -22 -123 -5 -33 -14
-87 -20 -120 -11 -64 -22 -131 -40 -245 -18 -116 -29 -182 -42 -247 -7 -35
-11 -67 -10 -71 1 -5 -3 -27 -9 -49 -17 -65 -16 -109 2 -121 13 -8 21 -6 33 6
9 8 16 18 16 21 0 8 62 97 88 126 12 13 22 28 22 32 0 5 5 8 11 8 7 0 9 -10 4
-27 -8 -33 -14 -75 -21 -163 -7 -88 15 -129 76 -147 31 -9 186 -14 529 -19
267 -3 527 -6 576 -7 124 -3 153 4 195 51 60 66 64 80 67 182 1 52 2 97 2 98
1 2 24 -31 53 -73 56 -84 81 -103 104 -84 10 8 13 24 8 58 -3 25 -8 49 -10 52
-1 3 -6 32 -9 65 -4 32 -8 61 -10 64 -2 3 -6 28 -9 55 -9 67 -14 105 -20 135
-3 14 -8 52 -11 84 -3 33 -8 62 -10 65 -2 4 -6 31 -9 61 -3 30 -8 64 -10 75
-2 11 -7 40 -11 65 -3 25 -8 56 -10 70 -3 14 -9 54 -14 90 -5 36 -15 99 -21
140 -6 41 -13 89 -15 105 -4 30 -9 66 -19 135 -3 19 -8 46 -11 60 -3 14 -7 41
-9 60 -13 101 -18 136 -21 150 -2 8 -7 38 -10 65 -7 51 -12 84 -19 120 -2 11
-7 47 -11 80 -3 32 -8 62 -10 65 -2 4 -7 33 -10 66 -3 32 -8 70 -11 84 -3 14
-7 43 -10 65 -3 22 -7 51 -9 65 -3 14 -10 61 -16 105 -6 44 -12 82 -14 85 -2
3 -6 30 -9 60 -3 30 -8 66 -11 80 -7 33 -13 73 -21 135 -3 28 -7 59 -9 70 -5
30 -13 84 -20 140 -3 28 -8 57 -10 65 -2 8 -7 38 -10 65 -4 28 -8 59 -9 70 -7
43 -28 172 -35 210 -12 71 -9 75 77 76 345 6 409 -2 477 -54 94 -74 129 -143
149 -297 3 -19 8 -53 11 -75 3 -22 7 -51 9 -65 3 -24 9 -57 22 -125 3 -16 7
-43 10 -60 3 -16 14 -68 24 -115 11 -47 22 -96 24 -110 2 -14 7 -32 10 -40 3
-8 7 -28 10 -45 3 -16 7 -39 10 -50 3 -11 17 -65 31 -120 14 -55 29 -107 32
-115 3 -8 15 -44 25 -80 22 -75 23 -80 30 -100 3 -8 16 -46 28 -85 12 -38 24
-77 27 -85 8 -20 8 -21 18 -55 4 -16 10 -34 14 -40 3 -5 6 -12 7 -15 1 -7 7
-23 76 -205 61 -161 75 -197 108 -270 17 -38 32 -74 34 -85 1 -3 7 -15 14 -26
6 -12 9 -24 6 -26 -2 -3 2 -11 11 -18 8 -7 15 -18 15 -26 0 -7 13 -41 30 -76
16 -35 34 -75 39 -89 6 -13 15 -31 20 -39 22 -39 45 -94 41 -96 -3 -1 3 -10
12 -20 9 -11 19 -31 23 -46 4 -15 13 -32 21 -39 8 -6 14 -17 14 -23 0 -7 14
-40 30 -74 17 -34 30 -67 30 -72 0 -5 6 -24 14 -42 18 -41 28 -73 24 -74 -2 0
2 -7 8 -15 6 -8 15 -27 19 -44 5 -16 9 -32 10 -35 5 -17 17 -58 19 -71 1 -8 8
-32 14 -54 10 -38 15 -63 27 -137 3 -18 8 -43 11 -56 15 -71 22 -350 11 -457
-13 -124 -60 -349 -77 -370 -4 -5 -11 -26 -15 -45 -4 -19 -14 -51 -23 -70 -8
-19 -18 -44 -22 -55 -26 -67 -114 -235 -168 -320 -35 -55 -68 -109 -75 -120
-7 -11 -15 -22 -18 -25 -4 -3 -30 -36 -60 -75 -88 -116 -262 -296 -375 -388
-33 -26 -65 -52 -73 -59 -22 -18 -134 -94 -151 -101 -8 -4 -28 -16 -45 -27
-32 -21 -217 -113 -225 -112 -3 0 -13 -7 -22 -15 -10 -9 -18 -13 -18 -10 0 3
-17 -1 -37 -10 -39 -16 -188 -60 -233 -69 -14 -2 -50 -10 -80 -16 -178 -36
-414 -41 -630 -13 -14 1 -48 5 -77 9 -62 7 -386 86 -393 96 -3 4 -21 11 -40
15 -36 8 -84 27 -132 51 -14 8 -33 14 -42 14 -9 0 -16 5 -16 10 0 6 -9 10 -20
10 -11 0 -20 5 -20 10 0 6 -6 10 -13 10 -18 0 -67 24 -67 33 0 4 -9 7 -20 7
-11 0 -20 5 -20 10 0 6 -5 10 -11 10 -10 0 -163 95 -185 115 -6 5 -22 17 -34
25 -12 8 -30 22 -40 30 -10 8 -34 29 -55 45 -20 17 -74 68 -118 114 -111 114
-117 120 -117 129 0 4 -9 13 -20 20 -11 7 -20 19 -20 27 0 8 -4 15 -9 15 -6 0
-16 11 -23 23 -7 13 -33 55 -58 93 -25 39 -50 79 -57 90 -15 24 -108 207 -108
214 -1 3 -7 16 -15 30 -7 14 -13 26 -12 28 1 1 -5 19 -13 40 -20 47 -64 186
-80 252 0 3 -4 14 -8 25 -3 11 -8 31 -11 45 -3 14 -8 36 -11 50 -4 14 -11 48
-15 76 -4 29 -10 60 -13 70 -21 70 -30 430 -13 544 4 30 9 69 11 85 4 40 63
275 75 300 13 27 40 105 47 133 3 12 9 22 14 22 5 0 9 7 9 15 0 9 32 77 72
153 122 233 217 426 218 440 0 6 5 12 10 12 6 0 10 6 10 13 0 6 16 45 35 84
19 40 35 79 35 88 0 8 5 15 10 15 6 0 10 7 10 15 0 8 12 40 26 72 47 105 54
124 54 138 0 8 4 15 9 15 5 0 11 15 15 33 3 17 12 46 20 62 29 61 46 103 46
115 0 7 6 26 14 43 18 41 43 117 62 187 8 30 21 71 29 90 19 45 165 633 170
681 2 20 8 54 14 75 6 22 13 58 15 80 2 21 9 73 16 114 7 41 14 87 15 103 4
39 27 131 34 137 3 3 15 22 26 43 11 20 25 37 31 37 7 0 14 7 18 15 3 8 12 15
19 15 8 0 20 7 27 15 7 9 15 13 18 11 2 -3 13 -1 23 4 10 6 44 13 76 16 32 4
59 7 60 8 1 0 89 0 197 -2 124 -2 196 -7 196 -13z m304 -348 c-8 -1003 -16
-1917 -19 -2246 -2 -203 -4 -402 -4 -441 l-1 -72 -361 2 -361 1 7 55 c4 30 9
67 10 81 2 14 8 50 13 80 6 30 16 82 22 117 5 34 15 89 20 122 6 33 15 87 20
120 6 33 14 86 20 118 5 31 14 89 20 127 6 39 17 97 23 130 6 33 10 64 9 68
-1 5 2 25 8 46 5 21 12 58 15 82 2 24 9 59 14 78 6 19 9 37 6 41 -2 4 2 31 10
60 8 29 12 56 10 60 -2 4 3 33 11 64 8 32 13 60 11 63 -3 2 -1 19 4 36 5 18
12 51 14 74 3 23 9 62 15 87 5 25 9 49 8 53 -1 5 3 36 10 71 7 34 17 89 22
122 6 33 15 87 20 120 6 33 15 87 20 120 6 33 14 86 20 118 5 31 14 89 20 127
6 39 17 97 23 130 6 33 10 64 9 68 -1 5 2 25 8 46 5 21 12 58 15 82 2 24 9 59
14 78 6 19 8 37 6 41 -2 4 0 22 5 41 6 19 12 55 15 80 9 97 8 96 137 95 l115
0 -3 -345z m353 323 c2 -18 10 -72 18 -124 12 -74 15 -94 20 -133 3 -23 8 -53
10 -67 7 -39 13 -80 20 -140 4 -30 8 -57 10 -60 1 -3 6 -32 10 -65 3 -32 8
-62 10 -65 2 -3 6 -32 10 -64 3 -33 8 -62 10 -66 2 -3 6 -30 10 -60 8 -68 12
-98 19 -130 2 -14 7 -49 10 -78 3 -30 8 -57 10 -60 2 -4 7 -34 10 -67 3 -33 8
-71 12 -85 3 -14 7 -43 10 -65 3 -22 7 -51 10 -65 3 -14 7 -45 10 -70 3 -25 9
-67 14 -95 5 -27 12 -72 15 -98 4 -27 8 -59 11 -70 2 -12 7 -40 10 -62 5 -43
12 -85 19 -125 5 -27 13 -85 20 -146 3 -22 7 -50 10 -64 3 -14 7 -41 10 -60 2
-19 7 -52 10 -73 4 -20 8 -47 10 -60 2 -12 6 -38 9 -57 3 -19 8 -57 12 -85 3
-27 7 -52 9 -55 2 -3 6 -30 9 -60 4 -30 8 -68 11 -85 15 -89 16 -98 30 -202 3
-21 9 -60 15 -88 5 -27 11 -70 12 -95 l3 -45 -220 2 c-121 1 -284 2 -362 2
l-141 1 4 528 c7 1012 21 2524 23 2562 1 13 20 15 119 14 107 -1 117 -3 119
-20z"/>
<path d="M2527 7621 c-43 -11 -56 -19 -52 -31 2 -8 7 -37 11 -65 6 -55 26 -93
52 -102 9 -4 19 -9 22 -12 9 -10 44 -31 63 -37 9 -4 17 -10 17 -15 0 -5 4 -9
9 -9 6 0 53 -27 105 -60 53 -33 100 -60 106 -60 5 0 10 -4 10 -10 0 -5 4 -10
10 -10 5 0 34 -16 64 -35 30 -19 60 -35 66 -35 5 0 10 -4 10 -9 0 -5 8 -11 18
-14 17 -6 93 -48 102 -57 3 -3 16 -11 30 -19 111 -64 143 -81 151 -81 5 0 9
-4 9 -10 0 -5 7 -10 15 -10 9 0 21 -5 28 -10 7 -6 39 -27 72 -46 56 -33 64
-35 119 -29 33 3 64 9 70 13 13 8 22 10 64 18 19 4 32 12 32 21 0 31 -133 183
-160 183 -6 0 -19 8 -30 18 -10 9 -36 26 -57 37 -21 11 -40 22 -43 25 -9 9
-85 51 -102 57 -10 3 -18 9 -18 14 0 5 -4 9 -10 9 -5 0 -34 16 -64 35 -30 19
-60 35 -66 35 -5 0 -10 4 -10 9 0 5 -8 11 -17 14 -18 6 -94 48 -103 57 -5 5
-28 19 -100 59 -25 14 -46 29 -48 33 -2 4 -12 8 -23 8 -10 0 -19 5 -19 10 0 6
-5 10 -10 10 -6 0 -34 15 -63 33 -29 18 -65 39 -82 47 -16 8 -33 18 -36 23
-10 14 -84 13 -142 -2z"/>
<path d="M10023 7562 c-17 -9 -62 -35 -99 -57 -36 -22 -94 -55 -128 -73 -33
-18 -74 -41 -91 -52 -16 -11 -39 -24 -50 -30 -11 -5 -51 -28 -90 -50 -38 -22
-79 -44 -90 -50 -11 -5 -38 -21 -60 -35 -22 -14 -49 -29 -60 -35 -11 -6 -32
-18 -47 -28 -14 -9 -53 -32 -85 -51 -124 -72 -161 -101 -168 -131 -4 -17 -11
-32 -16 -35 -5 -4 -9 -26 -9 -49 0 -35 5 -47 26 -62 14 -10 32 -24 38 -30 16
-15 90 -2 115 20 9 9 20 16 24 16 3 0 28 13 54 28 26 16 84 48 128 72 44 23
87 48 95 55 8 7 22 15 30 19 8 3 29 15 45 25 17 11 57 33 90 50 33 17 69 37
79 44 47 29 122 74 136 81 16 7 33 17 95 57 22 14 56 33 75 43 81 40 135 75
138 90 2 9 7 16 12 16 12 0 23 75 15 108 -8 37 -42 54 -115 58 -37 1 -66 -3
-87 -14z"/>
<path d="M3095 4890 c-27 -5 -70 -11 -95 -14 -25 -3 -56 -8 -70 -11 -14 -2
-38 -7 -55 -10 -16 -3 -41 -7 -55 -9 -14 -3 -47 -7 -75 -11 -27 -3 -57 -8 -65
-10 -8 -3 -31 -7 -50 -9 -19 -3 -48 -8 -65 -11 -69 -12 -101 -18 -120 -21 -11
-2 -33 -5 -50 -8 -16 -3 -57 -11 -90 -16 -33 -6 -94 -17 -135 -25 -41 -8 -88
-17 -105 -20 -16 -3 -37 -8 -45 -10 -8 -2 -18 -4 -22 -4 -12 -2 -58 -55 -58
-68 0 -7 -4 -13 -10 -13 -22 0 -9 -58 19 -86 57 -56 84 -75 100 -69 9 4 30 8
46 11 51 6 99 14 125 19 14 3 39 7 55 10 17 2 39 6 50 8 11 3 43 8 70 12 28 5
57 9 65 11 43 8 104 18 165 28 45 7 111 19 128 22 9 2 27 6 40 9 12 3 37 7 56
10 18 2 41 7 50 9 9 3 38 8 65 11 27 3 53 8 58 11 5 3 24 8 41 10 18 3 43 6
57 8 44 7 75 23 95 51 11 15 25 32 31 39 33 34 34 53 6 82 -63 67 -82 75 -157
64z"/>
<path d="M9494 4830 c-6 -6 -31 -21 -55 -34 -60 -33 -69 -49 -41 -79 12 -13
22 -26 22 -30 0 -3 13 -20 29 -37 23 -25 46 -36 119 -55 50 -12 93 -21 95 -18
3 2 42 -6 88 -18 46 -11 100 -22 119 -23 19 -1 69 -10 110 -19 41 -9 111 -23
155 -31 144 -27 249 -47 320 -61 39 -7 92 -17 118 -20 50 -7 50 -7 160 86 9 7
-6 39 -33 70 -8 9 -24 27 -35 40 -28 32 -59 49 -91 49 -14 0 -70 11 -124 25
-55 14 -103 24 -107 23 -7 -3 -48 5 -251 48 -40 9 -76 14 -78 11 -3 -3 -36 3
-74 13 -38 10 -71 16 -73 13 -3 -2 -31 3 -63 11 -31 8 -61 13 -64 11 -4 -2
-24 1 -45 6 -21 6 -52 12 -69 14 -17 2 -51 6 -76 10 -29 4 -49 3 -56 -5z"/>
<path d="M4210 2950 c-55 -19 -95 -55 -220 -199 -25 -29 -54 -62 -65 -75 -43
-49 -111 -129 -125 -148 -8 -11 -26 -32 -40 -46 -14 -15 -45 -52 -70 -82 -68
-83 -83 -101 -105 -126 -11 -12 -27 -32 -35 -44 -16 -23 -35 -47 -74 -91 -28
-31 -44 -93 -47 -179 l-2 -65 34 1 c58 2 144 32 175 62 16 16 49 53 74 82 25
29 54 64 65 76 11 13 37 42 57 66 20 24 49 57 65 75 15 18 38 45 50 60 12 15
34 42 50 59 15 17 42 48 58 68 17 21 45 54 63 74 18 20 38 44 45 52 8 8 40 47
71 85 32 39 67 80 77 93 11 12 19 29 19 37 0 8 3 15 8 15 4 0 12 10 18 23 6
12 21 39 34 60 l23 38 -22 6 c-11 3 -21 9 -21 14 0 5 -9 9 -19 9 -11 0 -23 5
-26 10 -9 15 -54 11 -115 -10z"/>
<path d="M8291 2875 c-20 -80 -15 -117 23 -158 19 -21 37 -44 40 -52 3 -8 10
-15 16 -15 5 0 10 -7 10 -15 0 -8 9 -19 20 -25 11 -6 20 -16 20 -23 0 -7 8
-20 18 -29 9 -9 22 -23 29 -31 6 -8 41 -51 78 -97 81 -100 86 -106 105 -127 8
-9 25 -29 37 -46 12 -16 36 -45 55 -66 18 -20 51 -59 72 -86 22 -28 50 -61 63
-74 12 -13 39 -45 60 -72 20 -27 41 -49 45 -49 4 0 8 -5 8 -11 0 -36 103 -84
153 -71 25 6 56 36 76 75 13 24 13 33 1 65 -13 38 -167 242 -182 242 -4 0 -8
6 -8 13 0 7 -8 20 -19 28 -10 9 -47 53 -81 98 -35 44 -67 81 -72 81 -4 0 -8 6
-8 13 0 7 -8 20 -17 29 -21 19 -31 31 -93 108 -25 30 -56 68 -70 84 -55 64
-66 77 -100 117 -19 23 -45 53 -57 67 -13 14 -23 28 -23 32 0 15 -58 31 -122
35 l-66 3 -11 -43z"/>
<path d="M6260 2152 c-70 -75 -71 -77 -77 -261 -9 -291 -9 -854 0 -905 6 -36
21 -66 55 -108 25 -32 51 -57 58 -56 6 2 32 27 56 56 69 80 70 92 72 669 1
481 0 499 -19 532 -11 18 -24 42 -30 52 -5 11 -13 19 -18 19 -4 0 -12 11 -17
25 -14 36 -29 31 -80 -23z"/>
</g>
</svg>
