<svg width="882" height="408" viewBox="0 0 882 408" fill="none" xmlns="http://www.w3.org/2000/svg">
<path d="M731.763 1.2207C780.175 1.17391 819.577 3.13663 838.914 8.38086C844.061 9.77755 848.005 13.6276 849.433 18.4385L849.434 18.4395C855.49 38.8005 872.059 98.9141 878.331 166.392C884.561 233.414 880.596 307.369 846.437 356.947L845.624 358.113C844.213 360.115 841.954 361.492 839.379 361.893L839.377 361.894C810.482 366.435 644.979 391.661 469.938 402.177C382.415 407.435 292.543 409.012 216.189 402.496C178.013 399.238 143.244 393.959 113.853 386.116C84.4752 378.278 60.5574 367.9 43.9717 354.494C43.9476 354.47 43.9134 354.435 43.8701 354.39C43.7687 354.284 43.6159 354.122 43.415 353.902C43.013 353.464 42.4194 352.796 41.667 351.893C40.162 350.085 38.0198 347.334 35.498 343.586C30.4548 336.09 23.8902 324.601 17.8574 308.683C5.79434 276.853 -4.15795 227.273 4.47461 156.431L4.47656 156.415L4.47754 156.4L3.26367 156.283C4.41049 156.394 4.47396 156.4 4.47754 156.399C4.47764 156.398 4.47832 156.397 4.47852 156.395C4.47891 156.391 4.47968 156.384 4.48047 156.376C4.48211 156.359 4.48395 156.334 4.4873 156.301C4.49409 156.233 4.5046 156.131 4.51855 155.997C4.54646 155.729 4.58932 155.329 4.64746 154.808C4.7638 153.764 4.94256 152.231 5.19238 150.281C5.69211 146.381 6.47508 140.811 7.6084 134.142C9.87584 120.799 13.5411 103.078 19.1318 85.5293C24.7284 67.9623 32.2267 50.661 42.1172 38.0908C51.9948 25.5371 64.131 17.8451 79.0752 19.0732L79.1084 19.0752L79.1748 17.8564C79.1098 19.0381 79.1089 19.074 79.1104 19.0752C79.1118 19.0753 79.1143 19.075 79.1172 19.0752C79.1233 19.0755 79.1325 19.0765 79.1445 19.0771C79.1687 19.0785 79.205 19.0804 79.2529 19.083C79.3488 19.0882 79.4924 19.0963 79.6816 19.1064C80.06 19.1268 80.6224 19.1566 81.3594 19.1953C82.834 19.2728 85.0078 19.3853 87.8037 19.5244C93.3954 19.8026 101.478 20.1882 111.44 20.6182C131.366 21.4781 158.817 22.5149 188.917 23.2246C249.071 24.643 319.909 24.7549 362.376 19.5049C362.388 19.5039 362.406 19.5038 362.429 19.502C362.477 19.4981 362.549 19.4921 362.645 19.4844C362.836 19.469 363.123 19.4462 363.501 19.416C364.258 19.3556 365.382 19.2659 366.852 19.1504C369.791 18.9193 374.114 18.5835 379.643 18.1631C390.7 17.3223 406.584 16.1447 425.889 14.7979C464.499 12.1041 516.791 8.73262 571.521 6.02344C626.255 3.31411 683.414 1.26744 731.763 1.2207Z" stroke="#00B2ED" stroke-width="2.44025"/>
</svg>
