<svg width="14" height="17" viewBox="0 0 14 17" fill="none" xmlns="http://www.w3.org/2000/svg">
<path d="M7 0.753906C4.79086 0.753906 3 2.54477 3 4.75391C3 6.96305 4.79086 8.75391 7 8.75391C9.20914 8.75391 11 6.96305 11 4.75391C11 2.54477 9.20914 0.753906 7 0.753906ZM4 4.75391C4 3.09705 5.34315 1.75391 7 1.75391C8.65685 1.75391 10 3.09705 10 4.75391C10 6.41076 8.65685 7.75391 7 7.75391C5.34315 7.75391 4 6.41076 4 4.75391ZM2.00873 9.75391C0.903151 9.75391 0 10.6408 0 11.7539C0 13.4451 0.83281 14.7202 2.13499 15.5505C3.41697 16.3679 5.14526 16.7539 7 16.7539C8.85474 16.7539 10.583 16.3679 11.865 15.5505C13.1672 14.7202 14 13.4451 14 11.7539C14 10.6495 13.1045 9.75391 12 9.75391L2.00873 9.75391ZM1 11.7539C1 11.2006 1.44786 10.7539 2.00873 10.7539L12 10.7539C12.5522 10.7539 13 11.2017 13 11.7539C13 13.0627 12.3777 14.0376 11.3274 14.7073C10.2568 15.3899 8.73511 15.7539 7 15.7539C5.26489 15.7539 3.74318 15.3899 2.67262 14.7073C1.62226 14.0376 1 13.0627 1 11.7539Z" fill="#707070"/>
</svg>
