<svg width="121" height="120" viewBox="0 0 121 120" fill="none" xmlns="http://www.w3.org/2000/svg">
<g clip-path="url(#clip0_2423_17226)">
<path d="M68.2349 5.28167L65.7495 14.9857L65.5695 15.69L66.2909 15.6066L75.4714 14.5477L64.7393 31.3854L63.2649 31.745L65.75 22.04L65.9303 21.3366L65.2086 21.4191L56.0272 22.4782L66.7596 5.64147L68.2349 5.28167Z" fill="white" stroke="#00B2ED"/>
</g>
<g clip-path="url(#clip1_2423_17226)">
<path d="M113.944 85.5303L103.968 84.6189L103.244 84.5521L103.441 85.2521L105.945 94.1477L87.6163 86.2266L87.0271 84.8281L97.0028 85.7404L97.7267 85.8063L97.5293 85.1063L95.026 76.2094L113.354 84.1318L113.944 85.5303Z" fill="white" stroke="#00B2ED"/>
</g>
<path d="M104.674 31.8813L96.0063 41.4498L95.5185 41.9888L96.1956 42.2515L107.368 46.5901L85.1061 59.2788L82.9741 58.7434L91.6413 49.1749L92.1291 48.6358L91.452 48.3731L80.2781 44.0331L102.541 31.3455L104.674 31.8813Z" fill="white" stroke="#00B2ED"/>
<g clip-path="url(#clip2_2423_17226)">
<path d="M4.67165 78.3979C7.74647 73.2802 22.3492 66.8541 23.087 67.4166C23.8249 67.9791 31.5776 58.7032 32.1304 58.5047C32.6831 58.3062 32.1022 32.1564 45.091 34.1156C58.0798 36.0747 75.8298 48.3368 78.4981 65.616C81.1665 82.8952 80.0838 95.0332 69.5487 94.2322C59.0136 93.4312 53.0812 86.3791 48.7896 88.2762C44.4981 90.1733 33.8744 91.3052 33.2801 94.7216C32.6858 98.138 41.175 105.726 43.2061 108.666C45.2372 111.605 50.4411 111.837 48.791 114.313C47.1409 116.789 44.7409 119.957 42.2054 119.859C39.6698 119.761 27.1667 102.755 25.589 102.533C24.0113 102.311 21.4275 107.37 16.4437 104.935C11.4599 102.5 3.78355 95.4827 3.2845 89.6025C2.78544 83.7224 1.94564 82.9352 4.67299 78.3979H4.67165Z" fill="white"/>
<path d="M55.2099 68.2899C54.1675 67.1746 53.4431 65.8096 52.9119 64.3965C52.7656 66.1998 53.8348 68.2362 55.1335 69.4466C55.8136 70.0808 56.8184 70.6654 57.6649 70.3538C58.1841 70.1636 58.4712 69.6493 58.486 69.0441C57.6569 70.2104 56.1369 69.284 55.2086 68.2899H55.2099Z" fill="#00B2ED"/>
<path d="M58.6775 35.1292C51.7418 31.291 45.0958 30.876 39.967 33.9615C33.8469 37.644 30.3857 44.4547 30.2476 52.5504C30.2127 54.5564 30.32 56.6135 30.5722 58.698C28.9597 61.0211 26.9997 63.4987 24.7231 65.7611C23.8175 66.0548 22.9482 66.4491 22.1326 66.9399C21.871 67.0971 21.6067 67.2721 21.3035 67.49L6.79871 76.8086C-0.0149893 80.9074 -2.04877 90.3997 2.26295 97.9688C6.57467 105.538 15.6247 108.361 22.4049 104.282L23.8967 103.463L37.8568 118.509C39.1313 120.093 41.5514 120.472 43.388 119.368C43.4041 119.358 43.4202 119.348 43.4349 119.337L47.1389 116.788C47.5441 116.509 47.858 116.13 48.0619 115.695C48.1357 115.589 48.2041 115.477 48.2631 115.36C49.6463 112.638 49.7107 112.313 49.7442 112.138C49.9629 111.015 49.4987 109.892 48.5636 109.277L44.9294 106.885C43.337 105.837 41.9257 104.542 40.7344 103.035L35.8659 96.8838L37.2692 96.1117C37.7065 95.9076 38.0687 95.7174 38.4082 95.5133C39.2225 95.0225 39.9818 94.4338 40.6754 93.7596C44.0172 92.8855 47.4314 92.5354 50.5116 92.4568C51.6975 93.2923 52.9062 94.0492 54.1284 94.722C61.6276 98.847 67.906 99.2717 74.8056 95.1204C79.9356 92.0349 82.8361 85.8763 82.9742 77.7819C83.1071 70.0157 80.6614 61.3176 76.0881 53.2894C71.5148 45.2613 65.3316 38.8117 58.6775 35.1292ZM44.6946 77.6579L52.2837 71.9073L43.6684 75.9028L47.9278 72.4174L42.6166 74.4152C42.5696 74.3352 42.5227 74.2552 42.4771 74.1753L45.4419 71.7377L41.6869 72.7718C41.6346 72.6753 41.5823 72.5801 41.5313 72.4836L43.8951 70.5024L40.8256 71.1201C40.772 71.0125 40.7183 70.905 40.6646 70.7975L42.795 69.041L40.0422 69.4836C39.9885 69.3664 39.9375 69.2492 39.8839 69.132L41.9002 67.4693L39.3432 67.8801C39.2963 67.7671 39.2493 67.654 39.2037 67.541L50.3264 63.085C49.9709 64.8346 50.3841 67.0736 51.5969 69.2051C52.2489 70.3508 53.0431 71.3035 53.8936 72.0231L44.8395 77.8578C44.7912 77.7888 44.7429 77.7213 44.6946 77.6523V77.6579ZM58.3448 71.462C57.1723 72.1665 54.7683 71.0222 53.1893 68.2524C51.6116 65.4826 51.8169 62.7666 52.9894 62.0607C54.1619 61.3562 56.5673 62.5005 58.145 65.2703C59.7226 68.0401 59.5173 70.7561 58.3448 71.462ZM38.5141 53.8009C37.8783 54.7757 37.2316 55.7476 36.538 56.681C37.5201 54.3138 38.7154 52.0334 39.9187 49.771C41.4991 46.7985 43.2122 43.8826 45.0515 41.0632C45.6874 40.0884 46.334 39.1178 47.0289 38.1831C46.0483 40.5517 44.8516 42.8306 43.6496 45.0931C42.0706 48.0655 40.3521 50.9801 38.5141 53.7982V53.8009ZM36.4455 51.1442C36.9016 49.1837 37.6824 47.2824 38.5021 45.4584C39.3218 43.6358 40.2327 41.7911 41.3958 40.1711C40.9423 42.1316 40.1602 44.0329 39.3392 45.8569C38.5195 47.6795 37.6059 49.5228 36.4455 51.1442ZM53.8856 87.4769L59.6435 87.8023L51.6452 85.2186L64.9667 84.9829L49.8019 82.8087L61.5565 80.9309L50.6243 80.48L59.6488 72.8641C59.6971 72.8242 59.7387 72.7786 59.7776 72.7304C61.5806 71.1215 61.6075 67.5865 59.7414 64.3107C59.3148 63.5607 58.8278 62.8948 58.3033 62.3213L67.851 53.9691L56.079 60.562C55.6148 60.318 55.1466 60.1429 54.6851 60.0436L66.2103 49.4346C65.6012 48.6005 64.9694 47.7843 64.3161 46.9902L53.1477 57.9742L62.8793 45.3178C61.0494 43.2842 59.0451 41.4092 56.8289 39.7396C56.79 39.7107 56.7511 39.6831 56.7122 39.6541L46.4762 52.0196L55.5826 38.8696C54.6368 38.2534 53.6548 37.7005 52.6607 37.1656C59.6126 39.3163 67.1937 45.9341 72.5853 55.3988C80.9418 70.0681 80.923 86.1037 72.5437 91.1442C67.4687 94.1981 60.4725 92.5271 53.8882 87.4755L53.8856 87.4769ZM39.2681 117.283C39.252 117.262 39.2359 117.243 39.2185 117.225L25.5884 102.534L26.0069 102.303L29.0978 104.734L27.382 101.548L27.9307 101.246L30.9492 103.62L29.2736 100.508L29.8545 100.188L32.8005 102.506L31.1638 99.4688L31.581 99.24L38.0084 107.362C39.2091 108.88 40.6311 110.184 42.2342 111.239L46.1006 113.784C46.3407 113.942 46.4802 114.2 46.4829 114.494C46.4856 114.787 46.3514 115.048 46.1153 115.211L42.4355 117.742C41.5044 118.287 40.0194 118.234 39.2708 117.283H39.2681ZM35.2153 97.9054C36.7057 99.5736 38.1171 101.318 39.5257 103.059C40.4902 104.25 41.4655 105.394 42.6166 106.402C43.7113 107.36 44.9187 108.145 46.1113 108.963C47.2275 109.728 48.6307 110.438 48.789 111.965C48.3275 110.712 47.2208 110.202 46.169 109.551C44.9468 108.794 43.7113 108.037 42.5991 107.115C40.3521 105.254 38.6496 102.745 36.9445 100.379C36.3569 99.5626 35.7747 98.7422 35.2153 97.9054ZM11.7436 86.5573C11.1131 83.5945 11.1265 80.6069 12.122 77.7213C11.8362 78.1804 11.5692 78.6547 11.3385 79.162C10.1257 81.8325 9.83194 84.6602 10.1378 87.5652C9.50729 84.6023 9.5207 81.6147 10.5161 78.7291C10.2304 79.1882 9.96341 79.6625 9.73267 80.1698C8.51991 82.8404 8.22611 85.6681 8.53199 88.573C7.90146 85.6102 7.91487 82.6225 8.9103 79.7369C8.62455 80.196 8.35758 80.6703 8.12684 81.1777C6.91408 83.8482 6.62029 86.6759 6.92616 89.5808C6.29563 86.618 6.30905 83.6304 7.30447 80.7448C7.01872 81.2039 6.75176 81.6781 6.52101 82.1855C5.30826 84.856 5.01446 87.6837 5.32033 90.5886C4.6898 87.6258 4.70322 84.6382 5.69865 81.7526C5.4129 82.2117 5.14593 82.686 4.91518 83.1933C3.70243 85.8639 3.40863 88.6916 3.7145 91.5965C3.08398 88.6323 3.09739 85.6433 4.09416 82.7563C4.32759 82.0821 4.61199 81.4438 4.93128 80.8316C5.72816 79.9024 6.67126 79.0917 7.75657 78.4382L19.1932 71.0911C18.548 71.9211 16.549 75.2893 16.1587 76.1468C14.9446 78.8173 14.6521 81.645 14.958 84.55C14.3275 81.5871 14.3409 78.5995 15.3363 75.7139C15.0505 76.173 14.7836 76.6473 14.5528 77.1546C13.3401 79.8252 13.0463 82.6529 13.3522 85.5578C12.7216 82.595 12.735 79.6073 13.7305 76.7217C13.4447 77.1808 13.1778 77.6551 12.947 78.1625C11.7343 80.833 11.4405 83.6607 11.7463 86.5656L11.7436 86.5573ZM42.897 87.9553C43.5114 88.4062 44.1473 88.8087 44.802 89.17C43.5436 88.8529 42.3201 88.4034 41.1342 87.783C38.934 86.6318 37.0519 85.0325 35.3736 83.1864C36.9003 85.3537 38.6859 87.2467 40.8592 88.7384C41.4293 89.13 42.0183 89.4774 42.6206 89.789C41.4011 89.5284 40.2112 89.1369 39.0481 88.5799C36.8372 87.5224 34.9456 85.9769 33.266 84.1777C34.8075 86.3078 36.6239 88.1539 38.8348 89.5477C39.366 89.8827 39.9093 90.1805 40.4634 90.4466C39.3808 90.2591 38.3169 89.96 37.2705 89.5229C34.9255 88.544 32.9239 87.0123 31.1611 85.1676C32.7415 87.2949 34.617 89.1203 36.9083 90.4246C37.3725 90.6879 37.8434 90.9237 38.3196 91.136C37.237 90.994 36.1678 90.7306 35.116 90.3184C32.7911 89.4071 30.8083 87.9526 29.0549 86.1589C30.6661 88.2766 32.5953 90.084 34.9497 91.2945C35.3454 91.4972 35.7439 91.6806 36.1463 91.846C35.0999 91.7454 34.0629 91.5234 33.0366 91.158C30.697 90.3239 28.7101 88.9149 26.9474 87.1502C28.6082 89.2844 30.6111 91.0822 33.0594 92.2017C33.3573 92.3382 33.6564 92.4623 33.9556 92.5767C32.9816 92.5133 32.0103 92.3396 31.0417 92.0363C28.6538 91.2876 26.6294 89.8979 24.8398 88.1387C26.4885 90.2123 28.462 91.9301 30.8794 92.9848C31.1786 93.1158 31.4804 93.2344 31.7823 93.3419C30.8311 93.3102 29.8773 93.164 28.9261 92.8855C26.5382 92.1879 24.5286 90.8616 22.7336 89.1272C24.4024 91.1829 26.3584 92.778 28.7719 93.8148C29.1461 93.9761 29.5245 94.1126 29.9055 94.2325C25.9653 93.7776 22.2224 91.2863 19.9807 87.3515C17.0937 82.2848 17.5083 76.0103 20.8702 71.9776C24.9646 69.2533 28.3989 65.5364 31.0874 61.9655C32.0506 66.9289 33.8603 71.9914 36.64 76.8692C39.0521 81.1032 41.9324 84.8188 45.0917 87.9222C44.429 87.6479 43.7784 87.3322 43.1411 86.9654C40.9812 85.7246 39.1366 84.0729 37.4798 82.1965C38.9917 84.4052 40.7505 86.3795 42.897 87.9553ZM44.3297 82.4392C41.1583 78.5981 38.5906 74.2759 36.6507 69.6532C34.3326 64.1301 32.9789 57.9646 33.3358 51.9314C33.6671 46.327 35.6325 40.4855 40.3105 37.1973C40.6673 36.9464 41.0456 36.7327 41.4186 36.5093C39.5029 37.8853 37.9145 39.559 36.7755 41.6725C35.442 44.1459 34.7377 46.946 34.4613 49.7462C33.8818 55.6153 35.0516 61.5754 37.0774 67.0529C38.7503 71.5764 41.0845 75.8587 43.9246 79.7163C47.3858 84.4176 51.7149 88.6502 56.8276 91.3979C61.5592 93.9416 67.132 95.2293 72.2432 93.1061C72.6229 92.949 72.9864 92.7546 73.3554 92.5726C71.2116 93.8644 68.9444 94.6117 66.4464 94.7082C63.6453 94.8171 60.875 94.1925 58.2751 93.1461C52.8351 90.9567 48.0847 86.9875 44.3297 82.4392ZM81.3832 70.3976C81.7521 72.6242 81.9882 74.8812 81.9225 77.1436C81.8648 79.1027 81.6018 80.9874 81.1658 82.8914C81.8648 79.2227 81.8755 75.5829 81.3242 71.888C80.7218 67.8429 79.5023 63.875 77.9153 60.1277C74.658 52.4401 69.7453 45.3164 63.436 39.9657C60.3115 37.3159 56.8262 35.3126 52.9478 34.1145C56.4264 35.0451 59.5911 36.6389 62.4875 38.831C65.7596 41.3058 68.5808 44.2576 71.1137 47.5141C73.7136 50.8574 75.9056 54.5771 77.647 58.4609C79.3548 62.2661 80.6963 66.2602 81.3832 70.3976Z" fill="#00B2ED"/>
</g>
<defs>
<clipPath id="clip0_2423_17226">
<rect width="30.6387" height="30.6382" fill="white" transform="matrix(0.971526 -0.236932 0.236939 0.971524 47.2383 7.25977)"/>
</clipPath>
<clipPath id="clip1_2423_17226">
<rect width="30.6383" height="30.6386" fill="white" transform="matrix(0.388267 0.921547 -0.921551 0.388256 108.656 65.1143)"/>
</clipPath>
<clipPath id="clip2_2423_17226">
<rect width="82.9798" height="88.0848" fill="white" transform="translate(0 31.915)"/>
</clipPath>
</defs>
</svg>
