<svg width="12" height="17" viewBox="0 0 12 17" fill="none" xmlns="http://www.w3.org/2000/svg">
<path d="M0 2.88831C0 1.50759 1.11929 0.388306 2.5 0.388306H9.5C10.8807 0.388306 12 1.50759 12 2.88831V15.8883C12 16.0764 11.8945 16.2485 11.7269 16.3339C11.5593 16.4192 11.358 16.4033 11.2059 16.2927L6 12.5066L0.794086 16.2927C0.641993 16.4033 0.440696 16.4192 0.273111 16.3339C0.105526 16.2485 0 16.0764 0 15.8883V2.88831ZM2.5 1.38831C1.67157 1.38831 1 2.05988 1 2.88831V14.9064L5.70592 11.4839C5.88124 11.3564 6.11876 11.3564 6.29409 11.4839L11 14.9064V2.88831C11 2.05988 10.3284 1.38831 9.5 1.38831H2.5Z" fill="#272727"/>
</svg>
