<svg width="28" height="28" viewBox="0 0 28 28" fill="none" xmlns="http://www.w3.org/2000/svg">
<path d="M10.5 11.15C10.5 6.95 17.1 6.95 17.1 11.15C17.1 14.15 14.1 13.55 14.1 17.15M14.1 21.962L14.112 21.9488" stroke="#00B2ED" stroke-width="1.5" stroke-linecap="round" stroke-linejoin="round"/>
<path d="M14 25.583H13.9989C12.0245 25.586 10.0845 25.0668 8.37556 24.0782C8.2206 23.9886 8.03869 23.9573 7.86269 23.9901L3.53747 24.7955L4.34292 20.4703C4.37571 20.2942 4.34441 20.1122 4.25468 19.9572C3.29791 18.3045 2.75 16.383 2.75 14.333C2.75 8.11962 7.78661 3.08301 14 3.08301C20.2134 3.08301 25.25 8.11962 25.25 14.333C25.25 20.5464 20.2134 25.583 14 25.583Z" stroke="#00B2ED" stroke-width="1.5" stroke-linecap="round" stroke-linejoin="round"/>
</svg>
