<svg width="28" height="28" viewBox="0 0 28 28" fill="none" xmlns="http://www.w3.org/2000/svg">
<path d="M14 2.6C15.5532 2.6 16.7863 3.82385 16.7863 5.30187V22.6981C16.7863 24.1761 15.5532 25.4 14 25.4C12.4468 25.4 11.2137 24.1761 11.2137 22.6981V5.30187C11.2137 3.82385 12.4468 2.6 14 2.6ZM22.6137 8.59932C24.1669 8.59932 25.4 9.82317 25.4 11.3012V22.6981C25.4 24.1761 24.1669 25.4 22.6137 25.4C21.0606 25.4 19.8275 24.1761 19.8275 22.6981V11.3012C19.8275 9.82317 21.0606 8.59932 22.6137 8.59932ZM5.38627 14.5986C6.93945 14.5986 8.17254 15.8225 8.17254 17.3005V22.6981C8.17254 24.1761 6.93945 25.4 5.38627 25.4C3.83309 25.4 2.6 24.1761 2.6 22.6981V17.3005C2.6 15.8225 3.83309 14.5986 5.38627 14.5986Z" stroke="#00B2ED" stroke-width="1.2"/>
</svg>
