<svg width="102" height="132" viewBox="0 0 102 132" fill="none" xmlns="http://www.w3.org/2000/svg">
<g clip-path="url(#clip0_3697_54038)">
<path d="M91.167 0H23.3573C15.8055 0 9.68359 6.04871 9.68359 13.5102V13.651C9.68359 21.1125 15.8055 27.1612 23.3573 27.1612H91.167C98.7187 27.1612 104.841 21.1125 104.841 13.651V13.5102C104.841 6.04871 98.7187 0 91.167 0Z" fill="#00B2ED" fill-opacity="0.2"/>
<path d="M113.176 93.5583C113.176 124.22 87.9991 149.076 56.9416 149.076C25.8841 149.076 0.707031 124.22 0.707031 93.5583C0.707031 62.8964 25.8841 38.04 56.9416 38.04C87.9991 38.04 113.176 62.8964 113.176 93.5583ZM30.4483 93.5583C30.4483 108.004 42.3097 119.714 56.9416 119.714C71.5735 119.714 83.435 108.004 83.435 93.5583C83.435 79.1128 71.5735 67.4024 56.9416 67.4024C42.3097 67.4024 30.4483 79.1128 30.4483 93.5583Z" fill="#00B2ED" fill-opacity="0.2"/>
</g>
<defs>
<clipPath id="clip0_3697_54038">
<rect width="102" height="132" fill="white"/>
</clipPath>
</defs>
</svg>
