<svg width="143" height="133" viewBox="0 0 143 133" fill="none" xmlns="http://www.w3.org/2000/svg">
<g clip-path="url(#clip0_3697_53963)">
<path d="M115.037 -0.280273H29.5572C20.0375 -0.280273 12.3203 7.34464 12.3203 16.7505V16.928C12.3203 26.3338 20.0375 33.9587 29.5572 33.9587H115.037C124.557 33.9587 132.274 26.3338 132.274 16.928V16.7505C132.274 7.34464 124.557 -0.280273 115.037 -0.280273Z" fill="#00B2ED" fill-opacity="0.2"/>
<path d="M142.777 117.657C142.777 156.309 111.039 187.643 71.8885 187.643C32.7379 187.643 1 156.309 1 117.657C1 79.0054 32.7379 47.6719 71.8885 47.6719C111.039 47.6719 142.777 79.0054 142.777 117.657ZM38.4914 117.657C38.4914 135.867 53.4438 150.629 71.8885 150.629C90.3332 150.629 105.286 135.867 105.286 117.657C105.286 99.4476 90.3332 84.6856 71.8885 84.6856C53.4438 84.6856 38.4914 99.4476 38.4914 117.657Z" fill="#00B2ED" fill-opacity="0.2"/>
</g>
<defs>
<clipPath id="clip0_3697_53963">
<rect width="143" height="133" fill="white"/>
</clipPath>
</defs>
</svg>
