<svg width="218" height="152" viewBox="0 0 218 152" fill="none" xmlns="http://www.w3.org/2000/svg">
<g clip-path="url(#clip0_3697_53887)">
<path d="M175.227 0H43.9421C29.3213 0 17.4688 11.8619 17.4688 26.4943V26.7705C17.4688 41.4029 29.3213 53.2648 43.9421 53.2648H175.227C189.848 53.2648 201.701 41.4029 201.701 26.7705V26.4943C201.701 11.8619 189.848 0 175.227 0Z" fill="#00B2ED" fill-opacity="0.2"/>
<path d="M217.832 183.473C217.832 243.603 169.087 292.348 108.957 292.348C48.8269 292.348 0.0820312 243.603 0.0820312 183.473C0.0820312 123.344 48.8269 74.5986 108.957 74.5986C169.087 74.5986 217.832 123.344 217.832 183.473ZM57.6635 183.473C57.6635 211.802 80.6283 234.767 108.957 234.767C137.285 234.767 160.25 211.802 160.25 183.473C160.25 155.145 137.285 132.18 108.957 132.18C80.6283 132.18 57.6635 155.145 57.6635 183.473Z" fill="#00B2ED" fill-opacity="0.2"/>
</g>
<defs>
<clipPath id="clip0_3697_53887">
<rect width="218" height="152" fill="white"/>
</clipPath>
</defs>
</svg>
