<svg width="249" height="225" viewBox="0 0 249 225" fill="none" xmlns="http://www.w3.org/2000/svg">
<path d="M130.013 63.0397C58.2047 63.0397 0 120.596 0 191.595C0 262.594 58.2166 320.15 130.013 320.15C201.81 320.15 260.026 262.594 260.026 191.595C260.026 120.596 201.81 63.0397 130.013 63.0397ZM130.013 271.091C89.0279 271.091 55.8048 235.499 55.8048 191.595C55.8048 147.691 89.0279 112.103 130.013 112.103C170.998 112.103 204.221 147.695 204.221 191.595C204.221 235.495 170.983 271.091 130.013 271.091Z" fill="#00B2ED" fill-opacity="0.1"/>
<path d="M207.785 0H51.9629V34.6745H207.785V0Z" fill="#00B2ED" fill-opacity="0.1"/>
</svg>
