<svg width="28" height="28" viewBox="0 0 28 28" fill="none" xmlns="http://www.w3.org/2000/svg">
<path d="M17.2963 17.992C18.4558 17.992 19.3958 19.0361 19.3958 20.3241L19.3945 21.6063C19.5345 24.5236 17.5818 26 14.0772 26C10.5874 26 8.59841 24.5476 8.59841 21.6568V20.3241C8.59841 19.0361 9.53839 17.992 10.6979 17.992H17.2963ZM4.0995 11.3286L9.34943 11.3288C9.25075 11.7547 9.19827 12.2012 9.19827 12.6613C9.19827 14.1479 9.74611 15.4924 10.6298 16.4593L10.8242 16.6606L10.6979 16.6593C10.3364 16.6593 9.98844 16.7239 9.66291 16.8433C8.62547 17.2237 7.81579 18.1604 7.52014 19.3355L7.47883 19.3367C3.98896 19.3367 2 17.8843 2 14.9935V13.6608C2 12.3728 2.93998 11.3286 4.0995 11.3286ZM23.8947 11.3286C25.0543 11.3286 25.9942 12.3728 25.9942 13.6608L25.993 14.9429C26.1329 17.8602 24.1802 19.3367 20.6757 19.3367L20.4738 19.3343C20.1871 18.1964 19.4183 17.2821 18.4275 16.8804C18.1453 16.766 17.845 16.6931 17.5327 16.6686L17.2963 16.6593L17.17 16.6606C18.1671 15.6838 18.796 14.2541 18.796 12.6613C18.796 12.2012 18.7435 11.7547 18.6448 11.3288L23.8947 11.3286ZM13.9971 8.66332C15.9849 8.66332 17.5963 10.4533 17.5963 12.6613C17.5963 14.8693 15.9849 16.6593 13.9971 16.6593C12.0094 16.6593 10.398 14.8693 10.398 12.6613C10.398 10.4533 12.0094 8.66332 13.9971 8.66332ZM7.3987 2C9.38645 2 10.9978 3.78996 10.9978 5.99799C10.9978 8.20602 9.38645 9.99599 7.3987 9.99599C5.41096 9.99599 3.79957 8.20602 3.79957 5.99799C3.79957 3.78996 5.41096 2 7.3987 2ZM20.5955 2C22.5833 2 24.1947 3.78996 24.1947 5.99799C24.1947 8.20602 22.5833 9.99599 20.5955 9.99599C18.6078 9.99599 16.9964 8.20602 16.9964 5.99799C16.9964 3.78996 18.6078 2 20.5955 2Z" fill="#00B2ED"/>
</svg>
