<svg width="24" height="24" viewBox="0 0 24 24" fill="none" xmlns="http://www.w3.org/2000/svg">
<path d="M11.9996 21.2853L11.9981 21.2853C10.4802 21.2876 8.98682 20.9159 7.64935 20.2054C7.25569 19.9962 6.78531 19.9052 6.31 19.9937L3.47812 20.521L4.00544 17.6893C4.09399 17.2138 4.00284 16.7433 3.79351 16.3495C3.10465 15.0537 2.71387 13.5731 2.71387 11.9996C2.71387 6.87106 6.87106 2.71387 11.9996 2.71387C17.1281 2.71387 21.2853 6.87106 21.2853 11.9996C21.2853 17.1281 17.1281 21.2853 11.9996 21.2853Z" stroke="#0097DC" stroke-width="2" stroke-linecap="round" stroke-linejoin="round"/>
<path d="M10 9.8049C10 7.39837 14 7.39837 14 9.8049C14 11.5239 12.1818 11.1801 12.1818 13.2428M12.1818 16L12.1891 15.9924" stroke="#0097DC" stroke-width="2" stroke-linecap="round" stroke-linejoin="round"/>
</svg>
