<?xml version="1.0" encoding="UTF-8"?>
<svg width="108px" height="117px" viewBox="0 0 108 117" version="1.1" xmlns="http://www.w3.org/2000/svg" xmlns:xlink="http://www.w3.org/1999/xlink">
    <!-- Generator: Sketch 63.1 (92452) - https://sketch.com -->
    <title>Group</title>
    <desc>Created with Sketch.</desc>
    <g id="Page-1" stroke="none" stroke-width="1" fill="none" fill-rule="evenodd">
        <g id="Group" transform="translate(-416.000000, -56.000000)" fill="#00B2ED" fill-rule="nonzero">
            <path d="M487.38,155.382 C486.427,153.418 487.224,146.182 483.714,148.205 C478.608,153.159667 473.521,158.133667 468.453,163.127 C465.369,166.839 481.616,169.395 484.19,171.388 C493.644,176.129 489.814,169.483 488.958,163.449 C506.027,155.261 520.437,138.924 522.669,119.117 C529.421,79.395 487.164,44.526 449.784,61.217 C424.556,71.308 410.505,101.278 418.025,127.239 C420.325,133.087 427.286,128.552 424.66,123.381 C421.867244,111.405022 423.751508,98.8146489 429.928,88.181 C445.402,58.897 490.471,56.766 507.957,85.189 C524.242,108.674 513.961,144.549 487.38,155.382 Z" id="Path_7"></path>
        </g>
    </g>
</svg>