<svg width="25" height="24" viewBox="0 0 25 24" fill="none" xmlns="http://www.w3.org/2000/svg">
<path d="M12.043 21C13.823 21 15.5631 20.4722 17.0431 19.4832C18.5231 18.4943 19.6767 17.0887 20.3579 15.4442C21.0391 13.7996 21.2173 11.99 20.87 10.2442C20.5228 8.49836 19.6656 6.89472 18.4069 5.63604C17.1483 4.37737 15.5446 3.5202 13.7988 3.17294C12.053 2.82567 10.2434 3.0039 8.59882 3.68509C6.95428 4.36628 5.54868 5.51983 4.55974 6.99987C3.57081 8.47991 3.04297 10.22 3.04297 12C3.04297 13.488 3.40297 14.89 4.04297 16.127L3.04297 21L7.91597 20C9.15197 20.639 10.556 21 12.043 21Z" stroke="#00B2ED" stroke-width="1.5" stroke-linecap="round" stroke-linejoin="round"/>
</svg>
