<svg width="25" height="24" viewBox="0 0 25 24" fill="none" xmlns="http://www.w3.org/2000/svg">
<path d="M10.5 5.25V5.5H14.5V5.25C14.5 4.71957 14.2893 4.21086 13.9142 3.83579C13.5391 3.46071 13.0304 3.25 12.5 3.25C11.9696 3.25 11.4609 3.46071 11.0858 3.83579C10.7107 4.21086 10.5 4.71957 10.5 5.25ZM9.25 5.5V5.25C9.25 4.38805 9.59241 3.5614 10.2019 2.9519C10.8114 2.34241 11.638 2 12.5 2C13.362 2 14.1886 2.34241 14.7981 2.9519C15.4076 3.5614 15.75 4.38805 15.75 5.25V5.5H21.375C21.5408 5.5 21.6997 5.56585 21.8169 5.68306C21.9342 5.80027 22 5.95924 22 6.125C22 6.29076 21.9342 6.44973 21.8169 6.56694C21.6997 6.68415 21.5408 6.75 21.375 6.75H19.9165L18.9165 18.678C18.8405 19.5838 18.427 20.428 17.7579 21.0433C17.0888 21.6586 16.213 22 15.304 22H9.696C8.7871 21.9999 7.91139 21.6584 7.2424 21.0431C6.57341 20.4279 6.15997 19.5837 6.084 18.678L5.084 6.75H3.625C3.45924 6.75 3.30027 6.68415 3.18306 6.56694C3.06585 6.44973 3 6.29076 3 6.125C3 5.95924 3.06585 5.80027 3.18306 5.68306C3.30027 5.56585 3.45924 5.5 3.625 5.5H9.25ZM7.3295 18.5735C7.37927 19.1669 7.65015 19.72 8.08845 20.1231C8.52676 20.5262 9.10051 20.75 9.696 20.75H15.304C15.8996 20.7501 16.4735 20.5264 16.9119 20.1233C17.3503 19.7201 17.6212 19.167 17.671 18.5735L18.662 6.75H6.338L7.3295 18.5735ZM11.25 10.125C11.25 10.0429 11.2338 9.96165 11.2024 9.88582C11.171 9.80999 11.125 9.74109 11.0669 9.68306C11.0089 9.62502 10.94 9.57898 10.8642 9.54757C10.7883 9.51617 10.7071 9.5 10.625 9.5C10.5429 9.5 10.4617 9.51617 10.3858 9.54757C10.31 9.57898 10.2411 9.62502 10.1831 9.68306C10.125 9.74109 10.079 9.80999 10.0476 9.88582C10.0162 9.96165 10 10.0429 10 10.125V17.375C10 17.4571 10.0162 17.5383 10.0476 17.6142C10.079 17.69 10.125 17.7589 10.1831 17.8169C10.2411 17.875 10.31 17.921 10.3858 17.9524C10.4617 17.9838 10.5429 18 10.625 18C10.7071 18 10.7883 17.9838 10.8642 17.9524C10.94 17.921 11.0089 17.875 11.0669 17.8169C11.125 17.7589 11.171 17.69 11.2024 17.6142C11.2338 17.5383 11.25 17.4571 11.25 17.375V10.125ZM14.375 9.5C14.72 9.5 15 9.78 15 10.125V17.375C15 17.5408 14.9342 17.6997 14.8169 17.8169C14.6997 17.9342 14.5408 18 14.375 18C14.2092 18 14.0503 17.9342 13.9331 17.8169C13.8158 17.6997 13.75 17.5408 13.75 17.375V10.125C13.75 9.78 14.03 9.5 14.375 9.5Z" fill="#FF5959"/>
</svg>
