<svg width="20" height="20" viewBox="0 0 20 20" fill="none" xmlns="http://www.w3.org/2000/svg">
<path d="M8.75049 3.75H11.2505C11.2505 3.41848 11.1188 3.10054 10.8844 2.86612C10.65 2.6317 10.332 2.5 10.0005 2.5C9.66897 2.5 9.35103 2.6317 9.1166 2.86612C8.88218 3.10054 8.75049 3.41848 8.75049 3.75ZM7.50049 3.75C7.50049 3.08696 7.76388 2.45107 8.23272 1.98223C8.70156 1.51339 9.33745 1.25 10.0005 1.25C10.6635 1.25 11.2994 1.51339 11.7683 1.98223C12.2371 2.45107 12.5005 3.08696 12.5005 3.75H17.5005C17.6662 3.75 17.8252 3.81585 17.9424 3.93306C18.0596 4.05027 18.1255 4.20924 18.1255 4.375C18.1255 4.54076 18.0596 4.69973 17.9424 4.81694C17.8252 4.93415 17.6662 5 17.5005 5H16.7955L15.2892 16.0475C15.1871 16.7962 14.8171 17.4825 14.2479 17.9793C13.6786 18.4762 12.9486 18.75 12.193 18.75H7.80799C7.05238 18.75 6.32238 18.4762 5.75311 17.9793C5.18385 17.4825 4.8139 16.7962 4.71174 16.0475L3.20549 5H2.50049C2.33473 5 2.17576 4.93415 2.05855 4.81694C1.94134 4.69973 1.87549 4.54076 1.87549 4.375C1.87549 4.20924 1.94134 4.05027 2.05855 3.93306C2.17576 3.81585 2.33473 3.75 2.50049 3.75H7.50049ZM8.75049 8.125C8.75049 7.95924 8.68464 7.80027 8.56743 7.68306C8.45022 7.56585 8.29125 7.5 8.12549 7.5C7.95973 7.5 7.80076 7.56585 7.68355 7.68306C7.56634 7.80027 7.50049 7.95924 7.50049 8.125V14.375C7.50049 14.5408 7.56634 14.6997 7.68355 14.8169C7.80076 14.9342 7.95973 15 8.12549 15C8.29125 15 8.45022 14.9342 8.56743 14.8169C8.68464 14.6997 8.75049 14.5408 8.75049 14.375V8.125ZM11.8755 7.5C12.0412 7.5 12.2002 7.56585 12.3174 7.68306C12.4346 7.80027 12.5005 7.95924 12.5005 8.125V14.375C12.5005 14.5408 12.4346 14.6997 12.3174 14.8169C12.2002 14.9342 12.0412 15 11.8755 15C11.7097 15 11.5508 14.9342 11.4335 14.8169C11.3163 14.6997 11.2505 14.5408 11.2505 14.375V8.125C11.2505 7.95924 11.3163 7.80027 11.4335 7.68306C11.5508 7.56585 11.7097 7.5 11.8755 7.5ZM5.95049 15.8787C6.01183 16.3279 6.23379 16.7395 6.57529 17.0376C6.91679 17.3357 7.35471 17.4999 7.80799 17.5H12.193C12.6465 17.5002 13.0847 17.3361 13.4265 17.038C13.7682 16.7399 13.9904 16.3281 14.0517 15.8787L15.5342 5H4.46674L5.95049 15.8787Z" fill="#A8A8A8"/>
</svg>
