<svg width="23" height="24" viewBox="0 0 23 24" fill="none" xmlns="http://www.w3.org/2000/svg">
<path d="M16.1461 9.1577L11.8517 13.7684C11.7581 13.8696 11.6316 13.9263 11.4998 13.9263C11.368 13.9263 11.2415 13.8696 11.1478 13.7684L6.8534 9.1587C6.75912 9.05763 6.63223 9.001 6.50004 9.001C6.36786 9.001 6.24097 9.05763 6.14669 9.1587C6.10026 9.20808 6.06336 9.26709 6.03817 9.33226C6.01298 9.39743 6 9.46745 6 9.53818C6 9.60891 6.01298 9.67892 6.03817 9.7441C6.06336 9.80927 6.10026 9.86828 6.14669 9.91766L10.4401 14.5274C10.7229 14.8303 11.1034 15 11.4998 15C11.8961 15 12.2766 14.8303 12.5594 14.5274L16.8528 9.91766C16.8994 9.86827 16.9364 9.80919 16.9617 9.74393C16.987 9.67866 17 9.60853 17 9.53768C17 9.46683 16.987 9.3967 16.9617 9.33143C16.9364 9.26617 16.8994 9.20709 16.8528 9.1577C16.7586 9.05663 16.6317 9 16.4995 9C16.3673 9 16.2404 9.05663 16.1461 9.1577Z" fill="black"/>
</svg>
