<svg width="16" height="17" viewBox="0 0 16 17" fill="none" xmlns="http://www.w3.org/2000/svg">
<path d="M9.14332 15.5846C8.54422 16.2912 7.45422 16.2912 6.85512 15.5846L0.238703 7.78121C-0.312191 7.13149 0.149601 6.1345 1.00144 6.1345H4.00008V3.11787C4.00008 2.56559 4.4478 2.11787 5.00008 2.11787H11.0001C11.5524 2.11787 12.0001 2.56559 12.0001 3.11787V6.1345H14.997C15.8488 6.1345 16.3106 7.13149 15.7597 7.78121L9.14332 15.5846ZM7.61785 14.9379C7.81755 15.1734 8.18089 15.1734 8.38059 14.9379L14.997 7.1345H11.5001C11.2239 7.1345 11.0001 6.91064 11.0001 6.6345V3.11787H5.00008V6.6345C5.00008 6.91064 4.77622 7.1345 4.50008 7.1345H1.00144L7.61785 14.9379ZM4.50008 1.11456C4.22394 1.11456 4.00008 0.890706 4.00008 0.614564C4.00008 0.338422 4.22394 0.114564 4.50008 0.114564H11.5001C11.7762 0.114564 12.0001 0.338422 12.0001 0.614564C12.0001 0.890706 11.7762 1.11456 11.5001 1.11456H4.50008Z" fill="#FF0000"/>
</svg>
