<svg width="20" height="20" viewBox="0 0 20 20" fill="none" xmlns="http://www.w3.org/2000/svg">
<path d="M17.1829 2.92708C16.9094 2.63945 16.5811 2.40947 16.2173 2.25067C15.8535 2.09187 15.4617 2.00747 15.0648 2.00244C14.6679 1.9974 14.274 2.07184 13.9063 2.22137C13.5387 2.37089 13.2046 2.59248 12.9239 2.87308L3.54889 12.2481C3.2212 12.5757 2.99365 12.9898 2.89289 13.4421L2.01589 17.3921C1.99759 17.4742 2.00029 17.5595 2.02374 17.6403C2.04719 17.7211 2.09064 17.7946 2.15006 17.8541C2.20948 17.9137 2.28295 17.9572 2.36367 17.9808C2.4444 18.0044 2.52977 18.0072 2.61189 17.9891L6.53889 17.1161C7.00632 17.012 7.43439 16.7768 7.77289 16.4381L17.1309 7.08008C17.6794 6.53132 17.9918 5.78998 18.0015 5.01415C18.0113 4.23832 17.7175 3.4894 17.1829 2.92708ZM13.6309 3.58008C13.8138 3.39452 14.0316 3.24699 14.2718 3.14599C14.512 3.04499 14.7698 2.99251 15.0303 2.99158C15.2909 2.99064 15.549 3.04127 15.7899 3.14055C16.0308 3.23983 16.2497 3.38579 16.4339 3.57003C16.6182 3.75427 16.7641 3.97314 16.8634 4.21404C16.9627 4.45493 17.0133 4.71309 17.0124 4.97364C17.0115 5.23419 16.959 5.49199 16.858 5.73216C16.757 5.97234 16.6094 6.19016 16.4239 6.37308L15.7529 7.04408L12.9599 4.25208L13.6309 3.58008ZM12.2529 4.96008L15.0459 7.75208L7.06589 15.7321C6.86184 15.9364 6.60374 16.0783 6.32189 16.1411L3.16189 16.8431L3.86989 13.6601C3.92889 13.3931 4.06289 13.1491 4.25589 12.9561L12.2529 4.96008Z" fill="black"/>
</svg>
