<svg width="16" height="16" viewBox="0 0 16 16" fill="none" xmlns="http://www.w3.org/2000/svg">
<path d="M16 7.99976C16 3.58148 12.4183 -0.000244141 8 -0.000244141C3.58172 -0.000244141 0 3.58148 0 7.99976C0 12.418 3.58172 15.9998 8 15.9998C12.4183 15.9998 16 12.418 16 7.99976ZM7.50806 6.90987C7.55039 6.67662 7.75454 6.49975 8 6.49975C8.24546 6.49975 8.44961 6.67662 8.49194 6.90987L8.5 6.99975V11.5019L8.49194 11.5918C8.44961 11.825 8.24546 12.0019 8 12.0019C7.75454 12.0019 7.55039 11.825 7.50806 11.5918L7.5 11.5019V6.99975L7.50806 6.90987ZM7.25 4.74975C7.25 4.33553 7.58579 3.99975 8 3.99975C8.41421 3.99975 8.75 4.33553 8.75 4.74975C8.75 5.16396 8.41421 5.49975 8 5.49975C7.58579 5.49975 7.25 5.16396 7.25 4.74975Z" fill="#FF5428"/>
</svg>
