<svg width="16" height="16" viewBox="0 0 16 16" fill="none" xmlns="http://www.w3.org/2000/svg">
<path d="M9.14381 15.4701C8.54471 16.1766 7.45471 16.1766 6.85561 15.4701L0.239191 7.66667C-0.311703 7.01694 0.150089 6.01995 1.00192 6.01995H4.00057V3.00333C4.00057 2.45104 4.44828 2.00333 5.00057 2.00333H11.0006C11.5529 2.00333 12.0006 2.45104 12.0006 3.00333V6.01995H14.9975C15.8493 6.01995 16.3111 7.01694 15.7602 7.66667L9.14381 15.4701ZM4.5 1C4.22386 1 4 0.776142 4 0.5C4 0.223858 4.22386 0 4.5 0H11.5C11.7761 0 12 0.223858 12 0.5C12 0.776142 11.7761 1 11.5 1H4.5Z" fill="#FF0000"/>
</svg>
