<svg width="16" height="16" viewBox="0 0 16 16" fill="none" xmlns="http://www.w3.org/2000/svg">
<path d="M9.14381 0.52993C8.54471 -0.176644 7.45471 -0.176643 6.85561 0.529931L0.239191 8.33333C-0.311703 8.98306 0.150089 9.98005 1.00192 9.98005H4.00057V12.9967C4.00057 13.549 4.44828 13.9967 5.00057 13.9967H11.0006C11.5529 13.9967 12.0006 13.549 12.0006 12.9967V9.98005H14.9975C15.8493 9.98005 16.3111 8.98306 15.7602 8.33333L9.14381 0.52993ZM4.5 15C4.22386 15 4 15.2239 4 15.5C4 15.7761 4.22386 16 4.5 16H11.5C11.7761 16 12 15.7761 12 15.5C12 15.2239 11.7761 15 11.5 15H4.5Z" fill="#00B2ED"/>
</svg>
