<svg width="32" height="28" viewBox="0 0 32 28" fill="none" xmlns="http://www.w3.org/2000/svg">
<g clip-path="url(#clip0_765_69784)">
<path d="M7.27275 27.4662V13.5265L3.43838 9.57151L0 7.37677V25.0062C0 26.3673 0.978125 27.4662 2.18188 27.4662H7.27275Z" fill="#4285F4"/>
<path d="M24.7275 27.4661H29.8184C31.0258 27.4661 32.0003 26.3632 32.0003 25.0062V7.37689L28.1058 9.89071L24.7275 13.5265V27.4661Z" fill="#34A853"/>
<path d="M7.27273 13.5265L6.75098 8.07984L7.27273 2.86688L16 10.2467L24.7272 2.86688L25.3109 7.7984L24.7272 13.5265L16 20.9063L7.27273 13.5265Z" fill="#EA4335"/>
<path d="M24.7275 2.86693V13.5265L32.0003 7.37677V4.09685C32.0003 1.05482 28.9203 -0.679361 26.764 1.14501L24.7275 2.86693Z" fill="#FBBC04"/>
<path d="M0 7.37635L3.34488 10.2049L7.27275 13.5261V2.8665L5.23625 1.14459C3.07625 -0.679926 0 1.05439 0 4.09628V7.37621V7.37635Z" fill="#C5221F"/>
</g>
<defs>
<clipPath id="clip0_765_69784">
<rect width="32" height="27.2" fill="white" transform="translate(0 0.400024)"/>
</clipPath>
</defs>
</svg>