<svg width="819" height="281" viewBox="0 0 819 281" fill="none" xmlns="http://www.w3.org/2000/svg">
<path d="M31.8792 96.519H0.992188L1.07324 276.471H31.8792V243.346L49.8562 224.323C49.8562 224.323 50.3722 223.161 51.1232 224.282L87.6232 276.508H123.982L71.5942 203.085L125.644 143.41L89.0972 143.49L31.9972 206.498L31.8792 96.519Z" fill="#D6D6D6"/>
<path d="M208.593 140.415C169.663 140.415 138.109 171.615 138.109 210.105C138.109 248.595 169.669 279.795 208.593 279.795C247.517 279.795 279.073 248.595 279.073 210.105C279.073 171.615 247.508 140.415 208.593 140.415ZM208.593 253.2C186.373 253.2 168.362 233.906 168.362 210.105C168.362 186.304 186.369 167.012 208.593 167.012C230.817 167.012 248.816 186.306 248.816 210.106C248.816 233.906 230.798 253.2 208.593 253.2Z" fill="#D6D6D6"/>
<path d="M250.752 106.241H166.281V125.041H250.752V106.241Z" fill="#D6D6D6"/>
<path d="M371.967 121.434L380.912 101.494C374.38 95.8296 366.262 92.3139 357.662 91.4248C349.062 90.5358 340.396 92.3166 332.844 96.5251C327.737 99.9296 323.533 104.523 320.592 109.91C317.635 115.319 316.024 121.361 315.898 127.524V143.373H297.047V169.094H315.667L315.906 276.27H345.92L346.159 169.094H375.93L375.775 143.469L346.075 143.55V130.413C346.075 130.413 347.106 120.799 353.519 118.239C353.519 118.239 361.6 113.273 371.971 121.444" fill="#D6D6D6"/>
<path d="M430.14 143.302H400.258V230.454C400.258 230.454 401.316 253.31 412.615 264.098C412.615 264.098 430.457 285.777 462.348 278.088C462.348 278.088 482.512 272.535 490.013 259.397V276.697L521.159 276.263V143.302H490.222V223.086C490.222 223.086 490.322 238.569 478.607 246.263C478.607 246.263 467.942 253.844 457.28 252.884C457.28 252.884 445.136 254.484 435.529 240.923C435.529 240.923 430.461 235.262 430.562 221.698L430.14 143.302Z" fill="#D6D6D6"/>
<path d="M585.383 96.519H554.5L554.578 276.471H585.383V243.346L603.364 224.323C603.364 224.323 603.88 223.161 604.631 224.282L641.131 276.508H677.48L625.102 203.085L679.148 143.419L642.6 143.5L585.494 206.5L585.383 96.519Z" fill="#D6D6D6"/>
<path d="M727.981 143.678H698.102V230.821C698.102 230.821 699.16 253.677 710.459 264.465C710.459 264.465 728.302 286.144 760.192 278.454C760.192 278.454 780.356 272.901 787.857 259.763V277.075L819.003 276.641V143.678H788.062V223.462C788.062 223.462 788.162 238.945 776.447 246.639C776.447 246.639 765.782 254.22 755.117 253.26C755.117 253.26 742.976 254.86 733.369 241.299C733.369 241.299 728.298 235.638 728.402 222.074L727.981 143.678Z" fill="#D6D6D6"/>
<path d="M292.336 53.1492C292.471 53.7585 292.81 54.2325 293.352 54.571L293.504 56.2468C293.538 56.5177 293.572 56.8054 293.605 57.1101C293.639 57.3809 293.69 57.6518 293.758 57.9226V58.7859C293.758 59.0906 293.859 59.3445 294.062 59.5476C293.859 61.9851 293.538 63.9317 293.098 65.3875C292.861 66.1322 292.641 66.9278 292.438 67.7742C292.268 68.6205 292.099 69.5007 291.93 70.4148C291.896 70.6518 291.811 70.9734 291.676 71.3796C291.574 71.6843 291.523 72.0059 291.523 72.3445C291.456 72.683 291.439 72.92 291.473 73.0554C291.507 73.1908 291.49 73.4278 291.422 73.7664C291.253 74.2403 291.049 74.6804 290.812 75.0867C290.677 75.3236 290.542 75.5776 290.406 75.8484C290.271 76.0854 290.135 76.3393 290 76.6101C288.917 78.5736 287.715 80.4356 286.395 82.196C285.074 83.9565 283.432 85.3106 281.469 86.2585C280.656 86.6309 280.03 86.9526 279.59 87.2234C279.116 87.4942 278.49 87.7143 277.711 87.8835C277.237 88.1544 276.678 88.4421 276.035 88.7468C275.392 89.0515 274.766 89.2716 274.156 89.407C273.919 89.5424 273.648 89.6101 273.344 89.6101C273.141 89.6101 272.87 89.644 272.531 89.7117L271.668 90.0671C271.533 90.101 271.414 90.1518 271.312 90.2195C271.211 90.2533 271.109 90.2872 271.008 90.321C270.5 90.4565 270.094 90.5242 269.789 90.5242C269.315 90.4565 268.977 90.1687 268.773 89.6609C268.57 89.1531 268.469 88.6283 268.469 88.0867C268.164 87.782 267.859 87.545 267.555 87.3757C267.25 87.2065 267.013 86.8341 266.844 86.2585C266.641 85.5138 266.505 85.1075 266.438 85.0398C266.336 84.9382 266.268 84.8367 266.234 84.7351C265.896 83.7872 265.777 82.7208 265.879 81.5359C265.98 80.351 266.234 79.3861 266.641 78.6414C266.81 78.269 267.013 78.0151 267.25 77.8796C267.555 77.7104 267.724 77.4565 267.758 77.1179C268.266 76.8132 268.74 76.4578 269.18 76.0515C269.62 75.6453 270.094 75.2898 270.602 74.9851C271.211 73.9018 271.99 73.0216 272.938 72.3445C273.784 71.769 274.63 71.1257 275.477 70.4148C275.781 70.1778 276.001 69.9408 276.137 69.7039C276.34 69.3992 276.594 69.1283 276.898 68.8914C277.135 68.6544 277.372 68.4682 277.609 68.3328C277.948 68.1296 278.185 67.9773 278.32 67.8757L279.133 67.0632C279.37 66.9278 279.641 66.8601 279.945 66.8601C280.25 66.8601 280.521 66.7924 280.758 66.657C281.706 66.5216 282.18 66.5723 282.18 66.8093V67.571C281.57 67.9434 280.69 68.282 279.539 68.5867C279.37 69.1622 279.082 69.5684 278.676 69.8054C278.337 70.0085 277.948 70.3809 277.508 70.9226C277.372 71.0919 277.237 71.2611 277.102 71.4304C277 71.5658 276.915 71.7182 276.848 71.8875C276.712 72.1583 276.391 72.3783 275.883 72.5476C275.51 73.4278 275.087 74.1218 274.613 74.6296C274.072 75.2052 273.581 75.7976 273.141 76.407C273.141 77.1518 272.988 77.7781 272.684 78.2859C272.379 78.7937 272.057 79.3184 271.719 79.8601C271.583 80.1309 271.448 80.4018 271.312 80.6726C271.177 80.9434 271.109 81.1466 271.109 81.282C271.143 81.3497 271.177 81.4343 271.211 81.5359C271.279 81.6036 271.329 81.7052 271.363 81.8406C271.465 82.1114 271.583 82.3315 271.719 82.5007C271.82 82.6361 271.973 82.8054 272.176 83.0085C272.379 83.2117 272.497 83.3809 272.531 83.5164C274.156 82.5007 275.764 81.4851 277.355 80.4695C278.947 79.4539 280.318 78.2351 281.469 76.8132C281.807 76.2039 282.129 75.6114 282.434 75.0359C282.738 74.4604 283.06 73.8341 283.398 73.157C283.534 72.4799 283.737 71.8367 284.008 71.2273C284.279 70.6179 284.583 70.0085 284.922 69.3992C285.26 68.7221 285.565 68.045 285.836 67.3679C286.107 66.6908 286.276 65.9799 286.344 65.2351C286.378 64.9643 286.395 64.6934 286.395 64.4226C286.428 64.1179 286.428 63.7963 286.395 63.4578C286.361 62.8484 286.445 62.3575 286.648 61.9851C286.513 61.6127 286.513 61.1557 286.648 60.614C286.784 60.1401 286.818 59.5815 286.75 58.9382C286.276 57.9226 285.802 57.3302 285.328 57.1609C284.854 56.9916 284.346 56.8393 283.805 56.7039C283.263 57.0424 282.688 57.4148 282.078 57.821C281.469 58.2273 280.893 58.6674 280.352 59.1414C280.148 59.3445 279.945 59.5476 279.742 59.7507C279.539 59.9539 279.319 60.157 279.082 60.3601C278.608 60.7664 278.253 61.2403 278.016 61.782C277.135 62.7299 276.424 63.5593 275.883 64.2703C275.341 64.9812 274.799 65.7091 274.258 66.4539C273.208 67.1309 272.159 67.9434 271.109 68.8914C270.06 69.8393 269.01 70.6518 267.961 71.3289C267.081 72.0059 266.217 72.7 265.371 73.4109C264.525 74.1218 263.729 74.8497 262.984 75.5945C262.646 75.9669 262.29 76.3223 261.918 76.6609C261.579 76.9994 261.224 77.338 260.852 77.6765C260.073 78.3536 259.396 79.0476 258.82 79.7585C257.771 81.2143 256.586 82.7377 255.266 84.3289C254.893 84.7013 254.589 85.0736 254.352 85.446C254.115 85.8523 253.81 86.2585 253.438 86.6648C253.099 87.0033 252.777 87.3757 252.473 87.782C252.337 87.9851 252.185 88.1882 252.016 88.3914C251.88 88.5606 251.745 88.7299 251.609 88.8992C251.474 89.1361 251.305 89.4916 251.102 89.9656C250.898 90.4395 250.729 90.795 250.594 91.032C249.917 91.8445 249.257 92.6739 248.613 93.5203C247.97 94.3666 247.411 95.3315 246.938 96.4148C246.159 97.4304 245.533 98.4968 245.059 99.614C244.822 100.156 244.585 100.68 244.348 101.188C244.111 101.696 243.857 102.204 243.586 102.712C243.451 103.626 243.197 104.472 242.824 105.251C242.452 106.029 242.198 106.876 242.062 107.79C242.029 108.027 241.978 108.264 241.91 108.501C241.842 108.704 241.775 108.924 241.707 109.161C241.639 109.398 241.572 109.635 241.504 109.872C241.436 110.109 241.385 110.363 241.352 110.634C241.216 111.04 241.148 111.531 241.148 112.106C241.148 112.648 241.081 113.105 240.945 113.477C240.539 114.324 240.336 114.95 240.336 115.356C240.336 115.729 240.167 116.016 239.828 116.219C240.031 116.761 240.217 117.235 240.387 117.641C240.556 118.048 240.81 118.454 241.148 118.86C241.318 119.131 241.521 119.368 241.758 119.571C241.995 119.774 242.198 120.011 242.367 120.282C242.638 120.959 242.858 121.365 243.027 121.501C243.197 121.636 243.417 121.805 243.688 122.009C243.891 122.144 244.145 122.313 244.449 122.516C244.754 122.719 245.042 122.855 245.312 122.923C245.685 123.058 246.04 123.109 246.379 123.075C246.616 123.041 246.971 123.058 247.445 123.126C247.885 123.126 248.19 123.143 248.359 123.177C248.529 123.21 248.833 123.193 249.273 123.126C249.815 122.99 250.458 122.838 251.203 122.669C251.948 122.499 252.625 122.347 253.234 122.212C254.182 121.941 255.113 121.67 256.027 121.399C256.941 121.128 257.805 120.824 258.617 120.485C259.497 120.113 260.208 119.639 260.75 119.063C261.292 118.488 261.901 118.014 262.578 117.641C263.661 116.829 264.423 116.169 264.863 115.661C265.337 115.153 265.828 114.73 266.336 114.391C266.81 113.782 267.081 113.477 267.148 113.477C267.216 113.477 267.284 113.443 267.352 113.376C267.589 113.105 267.809 112.851 268.012 112.614C268.249 112.377 268.486 112.14 268.723 111.903C268.96 111.666 269.18 111.429 269.383 111.192C269.62 110.955 269.857 110.701 270.094 110.43C270.906 110.058 271.516 109.618 271.922 109.11C272.497 108.907 272.954 108.636 273.293 108.298C273.462 108.128 273.648 107.959 273.852 107.79C274.055 107.621 274.258 107.451 274.461 107.282C274.969 106.91 275.341 106.605 275.578 106.368C275.849 106.097 276.103 105.826 276.34 105.555C276.577 105.285 276.831 104.98 277.102 104.641C277.271 104.472 277.474 104.32 277.711 104.184C278.016 103.981 278.286 103.727 278.523 103.423C278.625 103.287 278.76 103.016 278.93 102.61C279.065 102.272 279.302 102.102 279.641 102.102C280.047 102.035 280.487 102.221 280.961 102.661C281.435 103.101 281.672 103.558 281.672 104.032C281.029 105.048 280.69 105.623 280.656 105.759C280.148 106.503 279.641 107.147 279.133 107.688C278.862 107.993 278.591 108.315 278.32 108.653C278.049 108.992 277.779 109.347 277.508 109.719C276.966 110.329 276.424 110.955 275.883 111.598C275.341 112.242 274.833 112.936 274.359 113.68C273.953 114.358 273.428 115.018 272.785 115.661C272.514 115.932 272.227 116.236 271.922 116.575C271.617 116.88 271.312 117.201 271.008 117.54C270.229 118.386 269.366 119.266 268.418 120.18C267.605 120.925 266.81 121.907 266.031 123.126C265.591 123.566 265.253 123.887 265.016 124.091C264.779 124.294 264.44 124.615 264 125.055C263.628 125.259 263.306 125.479 263.035 125.716C262.764 125.953 262.443 126.173 262.07 126.376C261.393 126.613 260.699 126.9 259.988 127.239C259.311 127.544 258.634 127.882 257.957 128.255C256.501 129.067 254.961 129.693 253.336 130.134C252.964 130.235 252.574 130.337 252.168 130.438C251.796 130.574 251.423 130.709 251.051 130.844C250.306 131.081 249.443 131.183 248.461 131.149C248.258 131.081 248.089 131.048 247.953 131.048C247.818 131.048 247.615 131.014 247.344 130.946C247.005 130.912 246.582 130.777 246.074 130.54C245.566 130.303 245.076 130.167 244.602 130.134C244.263 130.134 243.958 130.184 243.688 130.286C243.451 130.387 243.146 130.438 242.773 130.438C241.284 129.49 240.082 128.695 239.168 128.052C238.254 127.408 237.424 126.647 236.68 125.766C236.036 124.785 235.664 124.226 235.562 124.091C235.461 123.955 235.342 123.82 235.207 123.684C235.105 123.549 234.987 123.397 234.852 123.227C234.31 122.449 233.768 121.535 233.227 120.485C233.227 120.248 233.142 120.011 232.973 119.774C232.871 119.639 232.719 119.402 232.516 119.063C232.177 117.946 232.008 116.744 232.008 115.458C232.008 114.815 232.008 114.188 232.008 113.579C232.042 112.969 232.076 112.36 232.109 111.751C232.143 111.412 232.143 111.091 232.109 110.786C232.042 110.38 232.008 110.058 232.008 109.821C232.008 109.279 232.109 108.704 232.312 108.094C232.414 107.79 232.499 107.502 232.566 107.231C232.668 106.927 232.753 106.639 232.82 106.368C233.227 104.878 233.684 103.473 234.191 102.153C234.699 100.833 235.292 99.5971 235.969 98.446C236.578 97.5997 237.035 96.821 237.34 96.1101C237.509 95.7377 237.661 95.3653 237.797 94.9929C237.966 94.5867 238.135 94.1804 238.305 93.7742C238.643 93.0294 238.982 92.3015 239.32 91.5906C239.659 90.8796 240.031 90.1518 240.438 89.407C240.776 88.7299 241.132 88.0528 241.504 87.3757C241.876 86.6986 242.367 86.0893 242.977 85.5476C243.18 84.8028 243.484 84.1765 243.891 83.6687C244.094 83.3979 244.297 83.144 244.5 82.907C244.703 82.6361 244.906 82.3653 245.109 82.0945C245.448 81.6205 245.786 81.1635 246.125 80.7234C246.497 80.2833 246.853 79.8601 247.191 79.4539C247.868 78.7091 248.495 77.795 249.07 76.7117C249.612 76.3054 250.103 75.8653 250.543 75.3914C250.983 74.9174 251.406 74.4434 251.812 73.9695C252.049 73.6986 252.27 73.4447 252.473 73.2078C252.71 72.9708 252.947 72.7338 253.184 72.4968C253.421 72.2598 253.641 72.0229 253.844 71.7859C254.081 71.5489 254.318 71.295 254.555 71.0242C254.826 70.821 255.079 70.601 255.316 70.364C255.553 70.127 255.773 69.907 255.977 69.7039C256.451 69.1622 256.924 68.6882 257.398 68.282C257.872 67.8757 258.38 67.4695 258.922 67.0632C259.396 66.8601 259.971 66.4877 260.648 65.946C260.953 65.6414 261.258 65.3367 261.562 65.032C261.867 64.7273 262.155 64.4057 262.426 64.0671C262.697 63.7286 262.984 63.4239 263.289 63.1531C263.594 62.8484 263.898 62.5606 264.203 62.2898C265.151 61.3419 266.133 60.4109 267.148 59.4968C268.164 58.5828 269.247 57.7533 270.398 57.0085C271.076 56.2638 271.888 55.6375 272.836 55.1296C273.784 54.6218 274.732 54.1309 275.68 53.657C276.221 53.4539 276.678 53.2677 277.051 53.0984C277.423 52.9291 277.846 52.7091 278.32 52.4382C279.099 51.9643 279.641 51.7104 279.945 51.6765C280.284 51.6427 280.555 51.4903 280.758 51.2195C281.604 51.2195 282.315 51.101 282.891 50.864C283.466 50.627 284.143 50.6101 284.922 50.8132C285.159 50.8471 285.396 50.9317 285.633 51.0671C285.904 51.2026 286.107 51.2872 286.242 51.321C287.529 51.4565 288.443 51.6596 288.984 51.9304C289.526 52.2013 290.051 52.4552 290.559 52.6921C291.066 52.9291 291.659 53.0815 292.336 53.1492ZM310.109 126.985L309.5 124.751C309.094 123.904 309.026 122.584 309.297 120.79L309.652 119.012C309.72 118.775 309.771 118.471 309.805 118.098C309.872 117.726 309.94 117.269 310.008 116.727C310.076 116.219 310.143 115.712 310.211 115.204C310.312 114.662 310.431 114.121 310.566 113.579C310.702 113.037 310.803 112.496 310.871 111.954C310.973 111.412 311.057 110.871 311.125 110.329C310.617 111.108 310.126 111.903 309.652 112.716C309.178 113.528 308.721 114.374 308.281 115.255C307.435 116.913 306.385 118.352 305.133 119.571C304.862 120.384 304.523 120.908 304.117 121.145C303.711 121.348 303.305 121.552 302.898 121.755C302.492 121.958 302.154 122.449 301.883 123.227C301.544 123.566 301.223 123.921 300.918 124.294C300.613 124.666 300.393 125.123 300.258 125.665C299.919 125.8 299.581 126.071 299.242 126.477C298.599 127.121 298.193 127.459 298.023 127.493C297.854 127.527 297.685 127.628 297.516 127.798C296.839 128.339 296.246 128.746 295.738 129.016C295.23 129.287 294.638 129.456 293.961 129.524C293.216 129.66 292.251 129.761 291.066 129.829C290.491 129.863 289.966 129.897 289.492 129.93C289.018 129.964 288.612 129.998 288.273 130.032C287.833 129.693 287.495 129.49 287.258 129.423C287.156 129.389 287.004 129.338 286.801 129.27C286.632 129.203 286.411 129.118 286.141 129.016C285.159 128.61 284.685 128.424 284.719 128.458C284.685 128.424 284.634 128.39 284.566 128.356C284.465 128.322 284.346 128.272 284.211 128.204C283.669 127.798 283.297 127.476 283.094 127.239C282.958 127.07 282.721 126.816 282.383 126.477C281.266 124.751 280.622 122.516 280.453 119.774C280.385 118.826 280.555 117.878 280.961 116.93C281.367 115.983 281.74 115.136 282.078 114.391C282.484 113.545 282.924 112.766 283.398 112.055C283.669 111.649 283.923 111.26 284.16 110.887C284.363 110.515 284.549 110.16 284.719 109.821C285.125 109.009 285.193 108.484 284.922 108.247C284.685 107.976 284.753 107.451 285.125 106.673C285.294 106.131 285.497 105.657 285.734 105.251L286.648 103.626C287.258 102.542 287.901 101.578 288.578 100.731C289.188 99.9864 289.695 98.9877 290.102 97.7351C290.44 96.7872 290.897 96.0593 291.473 95.5515C292.048 95.0437 292.742 94.5867 293.555 94.1804C293.893 94.3158 294.384 94.2651 295.027 94.0281C295.671 93.7911 296.161 93.5372 296.5 93.2664C296.974 93.2664 297.346 93.1309 297.617 92.8601C298.362 92.7247 298.751 92.7247 298.785 92.8601C298.819 92.9955 298.904 93.0632 299.039 93.0632C299.174 93.0971 299.361 93.0971 299.598 93.0632C299.835 93.0294 300.021 93.0294 300.156 93.0632C300.393 93.7742 300.562 94.2143 300.664 94.3835C300.799 94.5528 300.867 94.7221 300.867 94.8914C300.867 95.0945 300.85 95.3653 300.816 95.7039C300.783 96.0424 300.732 96.2794 300.664 96.4148C300.292 96.9226 300.072 97.2442 300.004 97.3796L299.852 97.7351C299.648 98.0059 299.411 98.3276 299.141 98.7C298.904 99.0385 298.633 99.4447 298.328 99.9187L296.703 102.305C296.331 102.881 295.992 103.253 295.688 103.423C295.315 103.626 295.01 103.998 294.773 104.54C294.638 104.777 294.536 105.031 294.469 105.302C294.435 105.538 294.333 105.792 294.164 106.063C293.385 107.688 292.505 109.33 291.523 110.989C291.016 111.835 290.525 112.682 290.051 113.528C289.611 114.341 289.188 115.136 288.781 115.915C288.747 116.186 288.697 116.456 288.629 116.727C288.561 116.964 288.493 117.218 288.426 117.489C288.257 118.065 288.172 118.555 288.172 118.962C288.172 119.063 288.138 119.588 288.07 120.536C288.003 121.484 288.036 122.042 288.172 122.212C288.578 122.787 288.815 123.041 288.883 122.973C288.951 122.906 289.018 122.923 289.086 123.024C289.357 123.701 289.543 124.091 289.645 124.192C289.746 124.294 289.966 124.412 290.305 124.548C290.576 124.615 290.965 124.565 291.473 124.395C291.98 124.226 292.37 124.074 292.641 123.938C293.453 123.532 294.062 123.109 294.469 122.669C294.875 122.229 295.281 121.772 295.688 121.298C296.703 120.079 297.786 118.657 298.938 117.032C300.089 115.407 301.172 113.985 302.188 112.766C302.56 111.954 303.051 111.141 303.66 110.329C304.303 109.449 304.794 108.67 305.133 107.993L306.555 105.251C306.758 104.878 306.978 104.472 307.215 104.032C307.452 103.592 307.706 103.118 307.977 102.61C308.383 102.035 308.806 101.51 309.246 101.036C309.686 100.562 310.008 99.8679 310.211 98.9539C310.38 98.4799 310.634 98.0229 310.973 97.5828C311.142 97.3458 311.294 97.1427 311.43 96.9734C311.599 96.7703 311.734 96.5841 311.836 96.4148C312.344 95.9408 312.665 95.5684 312.801 95.2976C312.936 95.0268 313.156 94.7898 313.461 94.5867C314.206 94.3835 314.781 94.2312 315.188 94.1296C315.594 94.0281 316.102 94.045 316.711 94.1804C317.253 93.8419 317.828 93.6726 318.438 93.6726C318.742 93.6726 319.03 93.6895 319.301 93.7234C319.605 93.7234 319.893 93.7403 320.164 93.7742C320.164 94.1127 320.249 94.3328 320.418 94.4343C320.587 94.5359 320.672 94.7221 320.672 94.9929C320.943 95.6023 320.943 96.3471 320.672 97.2273C320.367 98.2091 320.198 99.0893 320.164 99.8679C319.995 100.579 319.741 101.205 319.402 101.747C319.03 102.356 318.742 103.016 318.539 103.727C318.404 104.235 318.285 104.641 318.184 104.946C318.116 105.251 318.065 105.454 318.031 105.555L317.727 106.673C317.591 107.282 317.456 107.874 317.32 108.45C317.185 108.992 317.049 109.533 316.914 110.075C316.643 111.158 316.44 112.36 316.305 113.68C316.305 114.019 316.254 114.374 316.152 114.747C316.051 115.085 316 115.407 316 115.712C316 116.05 316.017 116.456 316.051 116.93C316.085 117.404 316.271 117.709 316.609 117.844C316.982 117.98 317.303 117.946 317.574 117.743C317.913 117.472 318.268 117.235 318.641 117.032C318.878 116.863 319.216 116.558 319.656 116.118C320.096 115.678 320.435 115.373 320.672 115.204C321.01 114.865 321.383 114.594 321.789 114.391C322.195 114.188 322.568 113.917 322.906 113.579C323.448 113.105 323.973 112.631 324.48 112.157C325.022 111.649 325.53 111.141 326.004 110.634C327.02 109.584 328.086 108.738 329.203 108.094C330.286 106.943 331.387 105.877 332.504 104.895C333.621 103.913 334.891 103.084 336.312 102.407C336.854 103.287 336.99 104.015 336.719 104.591C336.448 105.166 336.109 105.725 335.703 106.266C335.534 106.436 335.297 106.605 334.992 106.774C334.62 106.977 334.349 107.147 334.18 107.282L333.672 107.79C333.469 107.993 333.299 108.094 333.164 108.094C333.164 108.365 333.079 108.585 332.91 108.755L332.453 109.212C332.013 109.889 331.539 110.532 331.031 111.141C330.557 111.717 330.049 112.275 329.508 112.817C328.966 113.359 328.424 113.9 327.883 114.442C327.375 114.95 326.867 115.475 326.359 116.016C325.885 116.186 325.598 116.406 325.496 116.677C325.395 117.015 325.174 117.303 324.836 117.54C324.701 117.709 324.565 117.861 324.43 117.997C324.294 118.132 324.159 118.268 324.023 118.403C323.888 118.538 323.753 118.674 323.617 118.809C323.482 118.945 323.346 119.097 323.211 119.266C322.805 119.706 322.449 120.163 322.145 120.637C321.84 121.078 321.417 121.501 320.875 121.907C320.536 122.246 320.283 122.601 320.113 122.973C319.978 123.312 319.724 123.667 319.352 124.04C318.81 124.581 318.421 124.835 318.184 124.802C317.98 124.768 317.794 125.089 317.625 125.766C317.083 126.173 316.779 126.46 316.711 126.63C316.677 126.765 316.576 126.816 316.406 126.782C316.237 126.85 316 126.9 315.695 126.934C315.357 126.968 315.188 127.053 315.188 127.188C314.747 127.391 314.392 127.594 314.121 127.798C313.85 128.035 313.529 128.17 313.156 128.204C312.276 128.339 311.65 128.288 311.277 128.052C310.905 127.815 310.516 127.459 310.109 126.985ZM362.312 103.727C362.99 103.897 363.48 104.134 363.785 104.438C364.022 104.675 364.141 104.946 364.141 105.251C363.599 105.996 363.277 106.486 363.176 106.723C363.074 106.96 362.854 107.147 362.516 107.282C362.076 107.959 361.602 108.602 361.094 109.212C360.62 109.787 360.095 110.346 359.52 110.887C358.47 111.903 357.438 113.071 356.422 114.391C355.982 114.831 355.677 115.17 355.508 115.407C355.339 115.644 355.034 115.983 354.594 116.423C353.781 116.998 353.104 117.591 352.562 118.2C352.258 118.538 351.936 118.86 351.598 119.165C351.293 119.436 350.971 119.706 350.633 119.977C350.464 120.113 350.294 120.248 350.125 120.384C349.99 120.485 349.837 120.604 349.668 120.739C349.533 120.874 349.38 121.01 349.211 121.145C349.042 121.281 348.872 121.433 348.703 121.602C348.432 121.873 348.128 122.144 347.789 122.415C347.654 122.516 347.501 122.635 347.332 122.77C347.197 122.872 347.044 122.99 346.875 123.126C346.469 123.6 346.062 124.074 345.656 124.548C345.25 125.022 344.844 125.529 344.438 126.071C343.727 126.41 343.049 126.816 342.406 127.29C341.797 127.73 341.086 128.136 340.273 128.509C339.935 128.712 339.613 129.033 339.309 129.473C339.038 129.88 338.648 130.167 338.141 130.337C337.599 130.54 337.023 130.591 336.414 130.489C335.805 130.387 335.297 130.235 334.891 130.032C334.451 129.727 334.18 129.558 334.078 129.524C333.807 129.456 333.638 129.423 333.57 129.423C332.927 128.509 332.487 127.544 332.25 126.528C332.115 125.986 331.962 125.445 331.793 124.903C331.658 124.361 331.505 123.803 331.336 123.227C331.201 122.889 331.099 122.533 331.031 122.161C330.964 121.788 330.896 121.365 330.828 120.891L330.676 120.079C330.642 119.943 330.608 119.808 330.574 119.673C330.54 119.503 330.49 119.334 330.422 119.165C330.286 118.826 330.151 118.471 330.016 118.098C329.88 117.726 329.779 117.337 329.711 116.93C329.576 116.118 329.525 115.322 329.559 114.544C329.592 113.765 329.677 113.003 329.812 112.259C330.219 110.024 330.811 107.891 331.59 105.86C332.368 103.829 333.164 101.899 333.977 100.071C334.146 99.2247 334.332 98.5815 334.535 98.1414C334.738 97.7013 334.958 97.0919 335.195 96.3132C335.5 95.9408 335.737 95.3992 335.906 94.6882C335.974 94.3835 336.042 94.0789 336.109 93.7742C336.211 93.4695 336.312 93.1648 336.414 92.8601C336.516 92.5893 336.634 92.3184 336.77 92.0476C336.905 91.7429 337.04 91.4213 337.176 91.0828C337.447 90.4734 337.667 89.8471 337.836 89.2039C338.073 88.4252 338.259 87.7481 338.395 87.1726C338.462 86.8341 338.547 86.5125 338.648 86.2078C338.784 85.9031 338.919 85.6153 339.055 85.3445C339.326 84.6335 339.579 83.9395 339.816 83.2625C340.087 82.5854 340.341 81.9252 340.578 81.282C340.815 80.6388 341.052 79.9955 341.289 79.3523C341.56 78.7091 341.831 78.0658 342.102 77.4226C342.169 77.2195 342.237 77.0164 342.305 76.8132C342.372 76.6101 342.44 76.407 342.508 76.2039C342.643 75.8315 342.846 75.4591 343.117 75.0867C343.286 74.6127 343.456 74.2572 343.625 74.0203C343.896 73.614 344.099 73.2924 344.234 73.0554C344.234 72.683 344.353 72.4291 344.59 72.2937C344.759 72.1921 344.945 71.9721 345.148 71.6335C345.521 71.058 345.775 70.5164 345.91 70.0085C346.046 69.5007 346.299 68.9591 346.672 68.3835L347.891 66.8601C347.958 66.7247 348.026 66.5893 348.094 66.4539C348.161 66.3184 348.229 66.183 348.297 66.0476C348.466 65.7768 348.669 65.5398 348.906 65.3367C349.685 64.1179 350.497 62.8992 351.344 61.6804L354.086 57.821C354.695 56.8731 355.372 55.976 356.117 55.1296C356.862 54.2833 357.641 53.4539 358.453 52.6414C358.724 52.3028 359.046 51.9304 359.418 51.5242C359.79 51.1179 360.18 50.8809 360.586 50.8132C361.229 50.7455 361.906 50.8132 362.617 51.0164C362.82 51.3549 363.007 51.7104 363.176 52.0828C363.345 52.4552 363.497 52.8783 363.633 53.3523C363.768 55.4513 363.701 57.4825 363.43 59.446C363.159 61.4096 362.854 63.3393 362.516 65.2351C362.448 65.6752 362.431 65.9968 362.465 66.2C362.499 66.4031 362.482 66.7247 362.414 67.1648C362.279 67.571 362.109 68.0958 361.906 68.739C361.703 69.3822 361.534 69.9747 361.398 70.5164C361.398 71.4304 361.195 72.2768 360.789 73.0554C360.383 73.8002 360.112 74.545 359.977 75.2898C359.773 75.4252 359.655 75.6453 359.621 75.95C359.587 76.2546 359.469 76.4747 359.266 76.6101C359.096 77.3888 358.876 78.0658 358.605 78.6414C358.301 79.2507 358.047 79.8601 357.844 80.4695C357.336 81.1804 356.828 81.8744 356.32 82.5515C355.812 83.2286 355.288 83.9057 354.746 84.5828C354.204 85.226 353.68 85.9031 353.172 86.614C352.698 87.2911 352.224 87.9851 351.75 88.696C350.565 90.4903 349.329 92.183 348.043 93.7742C346.757 95.3653 345.521 97.058 344.336 98.8523C343.388 99.6986 342.643 100.545 342.102 101.391C341.526 102.305 340.747 103.152 339.766 103.93C339.596 104.608 339.427 105.318 339.258 106.063C339.122 106.808 338.97 107.57 338.801 108.348C338.665 109.127 338.513 109.923 338.344 110.735C338.174 111.548 338.005 112.36 337.836 113.173C337.802 113.613 337.701 114.07 337.531 114.544C337.464 114.781 337.396 115.018 337.328 115.255C337.26 115.458 337.193 115.678 337.125 115.915C336.99 116.389 336.956 116.964 337.023 117.641C337.057 118.251 336.956 118.826 336.719 119.368C336.82 119.639 336.905 120.028 336.973 120.536C337.007 120.976 337.125 121.365 337.328 121.704C337.701 122.313 338.107 122.618 338.547 122.618C339.055 122.347 339.326 122.229 339.359 122.262C339.393 122.296 339.495 122.279 339.664 122.212C340.003 122.009 340.341 121.738 340.68 121.399C341.018 121.061 341.323 120.756 341.594 120.485C341.966 120.316 342.22 120.163 342.355 120.028C342.457 119.927 342.643 119.774 342.914 119.571C343.117 119.436 343.303 119.334 343.473 119.266C343.642 119.199 343.794 119.097 343.93 118.962C344.911 117.946 345.826 117.184 346.672 116.677C347.552 116.169 348.263 115.542 348.805 114.798L350.633 113.68C351.005 113.477 351.361 113.19 351.699 112.817C352.004 112.445 352.393 112.157 352.867 111.954C353.07 111.683 353.206 111.514 353.273 111.446C353.341 111.378 353.477 111.209 353.68 110.938C354.086 110.667 354.492 110.397 354.898 110.126C355.305 109.855 355.694 109.584 356.066 109.313C356.439 109.042 356.828 108.772 357.234 108.501C357.674 108.23 358.115 107.959 358.555 107.688C358.69 107.35 358.91 107.079 359.215 106.876C359.52 106.673 359.773 106.469 359.977 106.266C360.18 106.063 360.349 105.843 360.484 105.606C360.654 105.335 360.891 105.183 361.195 105.149C361.229 104.844 361.382 104.608 361.652 104.438C361.923 104.269 362.143 104.032 362.312 103.727ZM356.828 65.8445H356.727C356.117 65.9799 355.694 66.2846 355.457 66.7585C355.22 67.2325 355 67.7742 354.797 68.3835C354.661 68.6544 354.526 68.8914 354.391 69.0945C354.289 69.2976 354.204 69.4669 354.137 69.6023C354.001 69.8393 353.951 70.2455 353.984 70.821C352.935 72.5476 351.936 74.325 350.988 76.1531C350.04 77.9473 349.126 79.7924 348.246 81.6882C347.4 83.5841 346.536 85.4968 345.656 87.4265C344.776 89.3223 343.896 91.2351 343.016 93.1648C344.404 91.7768 345.673 90.1518 346.824 88.2898C347.4 87.3419 347.992 86.4617 348.602 85.6492C349.245 84.8367 349.888 84.0919 350.531 83.4148C351.005 82.2638 351.496 81.1466 352.004 80.0632C352.546 78.9799 353.104 77.9473 353.68 76.9656C354.797 75.0697 355.677 72.8184 356.32 70.2117C356.049 69.3653 356.083 68.6375 356.422 68.0281C356.76 67.4187 356.896 66.6908 356.828 65.8445ZM387.805 71.6335C389.294 71.8705 390.581 72.0229 391.664 72.0906C392.781 72.1583 394 72.0736 395.32 71.8367L399.332 71.2781C400.415 71.1427 401.719 70.9903 403.242 70.821C403.648 70.7872 404.072 70.7872 404.512 70.821C404.749 70.8549 404.969 70.8888 405.172 70.9226C405.375 70.9226 405.578 70.9226 405.781 70.9226C406.661 70.9226 407.525 70.8888 408.371 70.821C409.217 70.7533 410.013 70.6856 410.758 70.6179C410.893 70.5841 411.012 70.5502 411.113 70.5164C411.249 70.4825 411.367 70.4486 411.469 70.4148C411.672 70.3471 411.875 70.3471 412.078 70.4148C412.383 70.4148 412.688 70.4148 412.992 70.4148C413.297 70.4148 413.602 70.3979 413.906 70.364C414.516 70.3302 415.057 70.5502 415.531 71.0242C415.734 71.7013 415.802 72.0736 415.734 72.1414C415.633 72.2429 415.565 72.3445 415.531 72.446C415.464 73.3263 415.345 73.7664 415.176 73.7664C415.007 73.7664 414.922 73.8341 414.922 73.9695C414.38 74.1049 413.923 74.2234 413.551 74.325C413.178 74.4265 412.891 74.6466 412.688 74.9851C411.536 75.2221 410.47 75.2729 409.488 75.1375C408.507 74.9682 407.508 75.1205 406.492 75.5945C405.984 75.8315 405.493 76.0854 405.02 76.3562C404.546 76.6609 403.919 76.6778 403.141 76.407C402.464 76.407 401.685 76.4408 400.805 76.5085C399.924 76.5763 399.078 76.644 398.266 76.7117C397.115 76.8132 395.811 76.9317 394.355 77.0671C392.934 77.1687 391.833 77.2364 391.055 77.2703C390.31 77.3041 389.243 77.3549 387.855 77.4226C386.467 77.4903 385.232 77.5242 384.148 77.5242C383.607 77.9643 383.251 78.5398 383.082 79.2507C382.913 79.9278 382.557 80.4695 382.016 80.8757C381.406 82.2299 380.966 83.0932 380.695 83.4656C380.391 83.8718 380.154 84.3966 379.984 85.0398C379.036 86.2585 378.173 87.5281 377.395 88.8484C376.684 90.0671 375.786 91.3028 374.703 92.5554C374.568 93.3002 374.314 93.9604 373.941 94.5359C373.603 95.0776 373.349 95.8393 373.18 96.821C372.469 97.769 371.927 98.8861 371.555 100.173C371.385 100.782 371.182 101.408 370.945 102.052C370.742 102.695 370.505 103.355 370.234 104.032C370.099 104.574 369.947 105.098 369.777 105.606C369.608 106.114 369.422 106.639 369.219 107.18C368.982 107.79 368.66 108.416 368.254 109.059C368.085 109.33 367.898 109.635 367.695 109.973C367.526 110.278 367.357 110.6 367.188 110.938C367.052 111.074 366.984 111.26 366.984 111.497C366.984 111.666 366.951 111.852 366.883 112.055C366.781 112.292 366.68 112.529 366.578 112.766C366.477 112.969 366.375 113.156 366.273 113.325C366.138 113.562 365.969 113.917 365.766 114.391C365.664 114.628 365.579 114.984 365.512 115.458C365.444 115.932 365.359 116.287 365.258 116.524C365.224 116.626 365.19 116.727 365.156 116.829C365.122 116.93 365.089 117.015 365.055 117.083C365.021 117.15 364.987 117.235 364.953 117.337C364.919 117.438 364.885 117.54 364.852 117.641C364.648 118.589 364.648 119.233 364.852 119.571C365.055 119.91 365.224 120.248 365.359 120.587C365.427 120.79 365.495 120.976 365.562 121.145C365.63 121.315 365.698 121.484 365.766 121.653C365.935 121.958 366.036 122.279 366.07 122.618C366.24 122.686 366.409 122.753 366.578 122.821C366.747 122.889 366.9 122.956 367.035 123.024C367.306 123.16 367.628 123.227 368 123.227C368.44 123.295 368.88 123.109 369.32 122.669C369.794 122.195 370.201 121.941 370.539 121.907C370.945 121.772 371.402 121.704 371.91 121.704C372.35 121.704 372.74 121.602 373.078 121.399C373.281 121.23 373.467 121.061 373.637 120.891C373.806 120.722 373.958 120.553 374.094 120.384C374.297 120.079 374.669 119.842 375.211 119.673C376.294 119.402 376.87 119.182 376.938 119.012C376.971 118.877 377.208 118.623 377.648 118.251C377.885 118.081 378.105 117.912 378.309 117.743C378.546 117.574 378.749 117.421 378.918 117.286C379.189 117.049 379.646 116.727 380.289 116.321C380.966 115.983 381.355 115.779 381.457 115.712C381.559 115.644 381.846 115.407 382.32 115.001C382.659 114.831 382.964 114.662 383.234 114.493C383.539 114.29 383.81 114.087 384.047 113.884C384.419 113.545 384.961 113.173 385.672 112.766C386.484 112.428 386.924 112.225 386.992 112.157C387.094 112.055 387.161 111.937 387.195 111.802C387.229 111.666 387.602 111.378 388.312 110.938C388.549 110.43 388.854 109.99 389.227 109.618C389.396 109.449 389.582 109.262 389.785 109.059C389.988 108.822 390.208 108.568 390.445 108.298C390.885 107.79 391.309 107.384 391.715 107.079C392.189 106.706 392.578 106.368 392.883 106.063C393.018 105.962 393.188 105.809 393.391 105.606C393.594 105.403 393.831 105.285 394.102 105.251C394.305 105.081 394.474 104.929 394.609 104.794C394.779 104.658 394.931 104.523 395.066 104.387C395.202 104.252 395.354 104.1 395.523 103.93C395.727 103.761 395.964 103.558 396.234 103.321L396.742 102.813C396.979 102.576 397.148 102.441 397.25 102.407C397.555 102.407 397.775 102.509 397.91 102.712C398.079 102.915 398.299 103.016 398.57 103.016C398.536 103.456 398.503 103.812 398.469 104.083C398.469 104.354 398.469 104.557 398.469 104.692C398.469 104.963 398.401 105.217 398.266 105.454C397.859 106.097 397.402 106.436 396.895 106.469C396.387 106.537 395.997 106.91 395.727 107.587C395.523 107.451 395.27 107.417 394.965 107.485C394.66 107.553 394.44 107.654 394.305 107.79C394.44 108.027 394.508 108.264 394.508 108.501C394.508 108.636 394.542 108.873 394.609 109.212C393.357 110.464 392.544 111.446 392.172 112.157C391.326 113.037 390.885 113.528 390.852 113.63L390.75 113.782L389.938 114.594C388.99 115.339 388.279 116.05 387.805 116.727C387.365 117.371 386.654 117.98 385.672 118.555C384.927 119.097 384.419 119.503 384.148 119.774C384.013 119.91 383.844 120.079 383.641 120.282C383.438 120.451 383.201 120.654 382.93 120.891C382.76 121.061 382.507 121.348 382.168 121.755C381.829 122.161 381.542 122.449 381.305 122.618C380.865 122.956 380.408 123.261 379.934 123.532C379.561 123.735 379.172 124.074 378.766 124.548C377.784 124.988 377.056 125.529 376.582 126.173C376.142 126.748 375.482 127.324 374.602 127.899C373.992 128.305 373.163 128.813 372.113 129.423C371.064 130.032 370.167 130.472 369.422 130.743C369.32 130.777 369.219 130.811 369.117 130.844C369.016 130.878 368.931 130.912 368.863 130.946C368.796 130.98 368.711 131.014 368.609 131.048C368.508 131.081 368.406 131.115 368.305 131.149C367.763 130.811 367.238 130.472 366.73 130.134C366.223 129.795 365.799 129.321 365.461 128.712C364.818 128.238 364.327 127.899 363.988 127.696C363.582 127.459 363.227 127.188 362.922 126.884C362.583 126.308 362.228 125.733 361.855 125.157C361.483 124.581 361.077 124.006 360.637 123.43C359.757 122.246 359.096 120.959 358.656 119.571C358.555 119.402 358.47 119.114 358.402 118.708L358.25 117.743C358.182 117.472 358.115 117.218 358.047 116.981C357.979 116.744 357.911 116.524 357.844 116.321C357.708 115.983 357.674 115.475 357.742 114.798C357.742 114.324 357.81 113.884 357.945 113.477C358.013 113.24 358.081 113.003 358.148 112.766C358.216 112.496 358.284 112.225 358.352 111.954C358.487 111.514 358.639 111.091 358.809 110.684C358.978 110.244 359.147 109.821 359.316 109.415C359.723 108.501 360.01 107.621 360.18 106.774C360.586 105.352 361.026 103.998 361.5 102.712C361.602 102.475 361.686 102.153 361.754 101.747C361.788 101.442 361.974 101.222 362.312 101.087C362.583 99.7325 363.023 98.4291 363.633 97.1765C364.242 95.9239 364.852 94.7221 365.461 93.571C365.833 92.8601 366.189 92.1492 366.527 91.4382C366.866 90.6934 367.204 89.9486 367.543 89.2039C367.882 88.4591 368.22 87.7312 368.559 87.0203C368.897 86.2755 369.253 85.5476 369.625 84.8367C369.659 84.0919 369.93 83.4148 370.438 82.8054C370.471 82.1283 370.742 81.4005 371.25 80.6218C371.758 79.8432 372.096 79.1153 372.266 78.4382C371.521 78.2351 370.691 78.2182 369.777 78.3875C368.863 78.5567 368.068 78.7091 367.391 78.8445C366.172 78.8783 364.885 78.8783 363.531 78.8445C363.294 78.8106 363.057 78.7768 362.82 78.7429C362.617 78.6752 362.397 78.6244 362.16 78.5906C361.72 78.489 361.297 78.4382 360.891 78.4382C360.281 78.4721 359.824 78.4213 359.52 78.2859C359.181 78.1166 358.859 78.0997 358.555 78.2351C357.607 77.4226 356.642 76.7117 355.66 76.1023C354.645 75.4929 353.984 74.7143 353.68 73.7664C353.68 73.5632 353.781 73.394 353.984 73.2585C354.255 73.0554 354.424 72.92 354.492 72.8523C355.068 72.683 355.677 72.6322 356.32 72.7C356.964 72.7338 357.505 72.6153 357.945 72.3445C358.927 72.4799 359.926 72.4122 360.941 72.1414C361.855 71.8705 362.82 71.769 363.836 71.8367C363.971 71.8367 364.174 71.8705 364.445 71.9382C364.716 72.0059 364.919 72.0398 365.055 72.0398C365.393 72.0736 365.681 72.0736 365.918 72.0398C366.053 72.0059 366.189 71.9721 366.324 71.9382C366.46 71.9044 366.612 71.8705 366.781 71.8367C367.188 71.769 367.628 71.769 368.102 71.8367C368.576 71.9044 369.049 71.9044 369.523 71.8367C370.505 71.769 371.572 71.8536 372.723 72.0906C373.975 72.3276 375.076 72.2768 376.023 71.9382C376.193 71.4643 376.362 70.9903 376.531 70.5164C376.734 70.0085 376.954 69.5177 377.191 69.0437C377.665 68.0619 378.021 67.0971 378.258 66.1492C378.529 65.7429 378.799 65.2859 379.07 64.7781C379.341 64.2703 379.544 63.7794 379.68 63.3054L380.645 61.6804C380.78 61.4773 380.915 61.2742 381.051 61.071C381.186 60.8679 381.339 60.6648 381.508 60.4617C381.982 59.4799 382.337 58.5489 382.574 57.6687C382.71 57.1947 382.845 56.7208 382.98 56.2468C383.15 55.739 383.336 55.2143 383.539 54.6726C383.979 54.1986 384.419 53.6739 384.859 53.0984C385.299 52.5229 385.74 51.8966 386.18 51.2195C386.688 51.2872 387.077 51.1518 387.348 50.8132C387.652 50.4747 388.109 50.5085 388.719 50.9148C388.719 51.1179 388.803 51.3041 388.973 51.4734C389.142 51.6427 389.159 51.8966 389.023 52.2351C389.701 52.9122 390.141 53.5216 390.344 54.0632C390.479 54.6049 390.428 55.2312 390.191 55.9421C389.954 56.6531 390.005 57.3132 390.344 57.9226C390.479 58.2273 390.513 58.5489 390.445 58.8875C390.378 59.2598 390.411 59.5476 390.547 59.7507C390.716 60.1231 390.902 60.4617 391.105 60.7664C391.342 61.1049 391.461 61.545 391.461 62.0867C391.461 62.2898 391.41 62.5437 391.309 62.8484C391.207 63.1531 391.089 63.4747 390.953 63.8132C390.716 64.8289 390.513 65.5398 390.344 65.946C390.276 66.1492 390.208 66.3692 390.141 66.6062C390.073 66.8093 390.005 67.0294 389.938 67.2664C389.464 67.8419 389.227 68.1973 389.227 68.3328C389.227 68.4343 389.193 68.5867 389.125 68.7898C389.023 68.9929 388.922 69.2299 388.82 69.5007C388.719 69.7377 388.6 69.9916 388.465 70.2625C388.329 70.5333 388.211 70.7872 388.109 71.0242C388.008 71.2611 387.906 71.4643 387.805 71.6335ZM413.195 126.985L412.586 124.751C412.18 123.904 412.112 122.584 412.383 120.79L412.738 119.012C412.806 118.775 412.857 118.471 412.891 118.098C412.958 117.726 413.026 117.269 413.094 116.727C413.161 116.219 413.229 115.712 413.297 115.204C413.398 114.662 413.517 114.121 413.652 113.579C413.788 113.037 413.889 112.496 413.957 111.954C414.059 111.412 414.143 110.871 414.211 110.329C413.703 111.108 413.212 111.903 412.738 112.716C412.264 113.528 411.807 114.374 411.367 115.255C410.521 116.913 409.471 118.352 408.219 119.571C407.948 120.384 407.609 120.908 407.203 121.145C406.797 121.348 406.391 121.552 405.984 121.755C405.578 121.958 405.24 122.449 404.969 123.227C404.63 123.566 404.309 123.921 404.004 124.294C403.699 124.666 403.479 125.123 403.344 125.665C403.005 125.8 402.667 126.071 402.328 126.477C401.685 127.121 401.279 127.459 401.109 127.493C400.94 127.527 400.771 127.628 400.602 127.798C399.924 128.339 399.332 128.746 398.824 129.016C398.316 129.287 397.724 129.456 397.047 129.524C396.302 129.66 395.337 129.761 394.152 129.829C393.577 129.863 393.052 129.897 392.578 129.93C392.104 129.964 391.698 129.998 391.359 130.032C390.919 129.693 390.581 129.49 390.344 129.423C390.242 129.389 390.09 129.338 389.887 129.27C389.717 129.203 389.497 129.118 389.227 129.016C388.245 128.61 387.771 128.424 387.805 128.458C387.771 128.424 387.72 128.39 387.652 128.356C387.551 128.322 387.432 128.272 387.297 128.204C386.755 127.798 386.383 127.476 386.18 127.239C386.044 127.07 385.807 126.816 385.469 126.477C384.352 124.751 383.708 122.516 383.539 119.774C383.471 118.826 383.641 117.878 384.047 116.93C384.453 115.983 384.826 115.136 385.164 114.391C385.57 113.545 386.01 112.766 386.484 112.055C386.755 111.649 387.009 111.26 387.246 110.887C387.449 110.515 387.635 110.16 387.805 109.821C388.211 109.009 388.279 108.484 388.008 108.247C387.771 107.976 387.839 107.451 388.211 106.673C388.38 106.131 388.583 105.657 388.82 105.251L389.734 103.626C390.344 102.542 390.987 101.578 391.664 100.731C392.273 99.9864 392.781 98.9877 393.188 97.7351C393.526 96.7872 393.983 96.0593 394.559 95.5515C395.134 95.0437 395.828 94.5867 396.641 94.1804C396.979 94.3158 397.47 94.2651 398.113 94.0281C398.757 93.7911 399.247 93.5372 399.586 93.2664C400.06 93.2664 400.432 93.1309 400.703 92.8601C401.448 92.7247 401.837 92.7247 401.871 92.8601C401.905 92.9955 401.99 93.0632 402.125 93.0632C402.26 93.0971 402.447 93.0971 402.684 93.0632C402.921 93.0294 403.107 93.0294 403.242 93.0632C403.479 93.7742 403.648 94.2143 403.75 94.3835C403.885 94.5528 403.953 94.7221 403.953 94.8914C403.953 95.0945 403.936 95.3653 403.902 95.7039C403.868 96.0424 403.818 96.2794 403.75 96.4148C403.378 96.9226 403.158 97.2442 403.09 97.3796L402.938 97.7351C402.734 98.0059 402.497 98.3276 402.227 98.7C401.99 99.0385 401.719 99.4447 401.414 99.9187L399.789 102.305C399.417 102.881 399.078 103.253 398.773 103.423C398.401 103.626 398.096 103.998 397.859 104.54C397.724 104.777 397.622 105.031 397.555 105.302C397.521 105.538 397.419 105.792 397.25 106.063C396.471 107.688 395.591 109.33 394.609 110.989C394.102 111.835 393.611 112.682 393.137 113.528C392.697 114.341 392.273 115.136 391.867 115.915C391.833 116.186 391.783 116.456 391.715 116.727C391.647 116.964 391.579 117.218 391.512 117.489C391.342 118.065 391.258 118.555 391.258 118.962C391.258 119.063 391.224 119.588 391.156 120.536C391.089 121.484 391.122 122.042 391.258 122.212C391.664 122.787 391.901 123.041 391.969 122.973C392.036 122.906 392.104 122.923 392.172 123.024C392.443 123.701 392.629 124.091 392.73 124.192C392.832 124.294 393.052 124.412 393.391 124.548C393.661 124.615 394.051 124.565 394.559 124.395C395.066 124.226 395.456 124.074 395.727 123.938C396.539 123.532 397.148 123.109 397.555 122.669C397.961 122.229 398.367 121.772 398.773 121.298C399.789 120.079 400.872 118.657 402.023 117.032C403.174 115.407 404.258 113.985 405.273 112.766C405.646 111.954 406.137 111.141 406.746 110.329C407.389 109.449 407.88 108.67 408.219 107.993L409.641 105.251C409.844 104.878 410.064 104.472 410.301 104.032C410.538 103.592 410.792 103.118 411.062 102.61C411.469 102.035 411.892 101.51 412.332 101.036C412.772 100.562 413.094 99.8679 413.297 98.9539C413.466 98.4799 413.72 98.0229 414.059 97.5828C414.228 97.3458 414.38 97.1427 414.516 96.9734C414.685 96.7703 414.82 96.5841 414.922 96.4148C415.43 95.9408 415.751 95.5684 415.887 95.2976C416.022 95.0268 416.242 94.7898 416.547 94.5867C417.292 94.3835 417.867 94.2312 418.273 94.1296C418.68 94.0281 419.188 94.045 419.797 94.1804C420.339 93.8419 420.914 93.6726 421.523 93.6726C421.828 93.6726 422.116 93.6895 422.387 93.7234C422.691 93.7234 422.979 93.7403 423.25 93.7742C423.25 94.1127 423.335 94.3328 423.504 94.4343C423.673 94.5359 423.758 94.7221 423.758 94.9929C424.029 95.6023 424.029 96.3471 423.758 97.2273C423.453 98.2091 423.284 99.0893 423.25 99.8679C423.081 100.579 422.827 101.205 422.488 101.747C422.116 102.356 421.828 103.016 421.625 103.727C421.49 104.235 421.371 104.641 421.27 104.946C421.202 105.251 421.151 105.454 421.117 105.555L420.812 106.673C420.677 107.282 420.542 107.874 420.406 108.45C420.271 108.992 420.135 109.533 420 110.075C419.729 111.158 419.526 112.36 419.391 113.68C419.391 114.019 419.34 114.374 419.238 114.747C419.137 115.085 419.086 115.407 419.086 115.712C419.086 116.05 419.103 116.456 419.137 116.93C419.171 117.404 419.357 117.709 419.695 117.844C420.068 117.98 420.389 117.946 420.66 117.743C420.999 117.472 421.354 117.235 421.727 117.032C421.964 116.863 422.302 116.558 422.742 116.118C423.182 115.678 423.521 115.373 423.758 115.204C424.096 114.865 424.469 114.594 424.875 114.391C425.281 114.188 425.654 113.917 425.992 113.579C426.534 113.105 427.059 112.631 427.566 112.157C428.108 111.649 428.616 111.141 429.09 110.634C430.105 109.584 431.172 108.738 432.289 108.094C433.372 106.943 434.473 105.877 435.59 104.895C436.707 103.913 437.977 103.084 439.398 102.407C439.94 103.287 440.076 104.015 439.805 104.591C439.534 105.166 439.195 105.725 438.789 106.266C438.62 106.436 438.383 106.605 438.078 106.774C437.706 106.977 437.435 107.147 437.266 107.282L436.758 107.79C436.555 107.993 436.385 108.094 436.25 108.094C436.25 108.365 436.165 108.585 435.996 108.755L435.539 109.212C435.099 109.889 434.625 110.532 434.117 111.141C433.643 111.717 433.135 112.275 432.594 112.817C432.052 113.359 431.51 113.9 430.969 114.442C430.461 114.95 429.953 115.475 429.445 116.016C428.971 116.186 428.684 116.406 428.582 116.677C428.48 117.015 428.26 117.303 427.922 117.54C427.786 117.709 427.651 117.861 427.516 117.997C427.38 118.132 427.245 118.268 427.109 118.403C426.974 118.538 426.839 118.674 426.703 118.809C426.568 118.945 426.432 119.097 426.297 119.266C425.891 119.706 425.535 120.163 425.23 120.637C424.926 121.078 424.503 121.501 423.961 121.907C423.622 122.246 423.368 122.601 423.199 122.973C423.064 123.312 422.81 123.667 422.438 124.04C421.896 124.581 421.507 124.835 421.27 124.802C421.066 124.768 420.88 125.089 420.711 125.766C420.169 126.173 419.865 126.46 419.797 126.63C419.763 126.765 419.661 126.816 419.492 126.782C419.323 126.85 419.086 126.9 418.781 126.934C418.443 126.968 418.273 127.053 418.273 127.188C417.833 127.391 417.478 127.594 417.207 127.798C416.936 128.035 416.615 128.17 416.242 128.204C415.362 128.339 414.736 128.288 414.363 128.052C413.991 127.815 413.602 127.459 413.195 126.985ZM462.25 119.673C462.521 119.3 462.724 119.046 462.859 118.911C463.029 118.742 463.232 118.589 463.469 118.454C464.315 116.66 465.415 115.238 466.77 114.188C468.158 113.139 469.63 111.954 471.188 110.634C471.526 110.634 471.814 110.515 472.051 110.278C472.288 110.041 472.576 109.855 472.914 109.719C473.32 109.347 473.71 109.042 474.082 108.805C474.387 108.602 474.641 108.331 474.844 107.993C475.622 107.621 476.35 107.113 477.027 106.469C477.738 105.826 478.432 105.251 479.109 104.743C479.651 104.608 480.227 104.675 480.836 104.946C481.107 105.488 481.208 106.063 481.141 106.673C481.073 107.282 480.734 107.621 480.125 107.688C479.922 107.891 479.702 108.094 479.465 108.298C479.228 108.501 478.94 108.636 478.602 108.704C477.924 108.839 477.484 109.11 477.281 109.516C477.247 110.16 477.163 110.549 477.027 110.684C476.892 110.82 476.807 110.938 476.773 111.04C476.029 112.292 475.199 113.376 474.285 114.29C473.371 115.17 472.508 116.253 471.695 117.54C471.323 117.777 471.018 118.149 470.781 118.657C469.562 119.334 468.665 119.859 468.09 120.231C467.514 120.604 466.99 121.061 466.516 121.602C466.109 121.839 465.906 122.042 465.906 122.212C465.906 122.347 465.839 122.483 465.703 122.618C465.026 123.193 464.637 123.617 464.535 123.887C464.434 124.158 464.281 124.378 464.078 124.548C463.74 124.785 463.435 125.022 463.164 125.259C462.927 125.462 462.724 125.648 462.555 125.817C462.148 126.223 461.708 126.511 461.234 126.68C460.659 127.154 459.812 127.713 458.695 128.356C457.578 129.033 456.427 129.541 455.242 129.88C454.057 130.252 453.076 130.269 452.297 129.93L451.586 129.372C451.451 129.27 451.214 129.118 450.875 128.915C450.435 128.373 449.944 127.916 449.402 127.544C448.928 127.205 448.471 126.714 448.031 126.071C447.523 125.36 447.202 124.632 447.066 123.887C446.931 123.109 446.677 122.347 446.305 121.602C446.135 119.842 446.271 118.386 446.711 117.235C447.083 116.084 447.49 115.018 447.93 114.036C448.37 113.02 448.861 112.089 449.402 111.243C450.452 109.618 451.18 107.688 451.586 105.454C450.841 104.709 450.418 104.015 450.316 103.372C450.283 103.033 450.215 102.644 450.113 102.204C450.012 101.764 449.893 101.256 449.758 100.68C447.997 101.831 446.372 103.287 444.883 105.048C443.393 106.808 442.073 108.602 440.922 110.43L439.703 112.665C439.365 113.308 438.958 113.917 438.484 114.493C438.146 114.831 437.977 115.052 437.977 115.153C437.977 115.255 437.909 115.373 437.773 115.509C437.503 115.847 437.283 116.135 437.113 116.372C436.944 116.609 436.826 116.795 436.758 116.93C436.69 117.066 436.622 117.201 436.555 117.337C436.487 117.438 436.419 117.54 436.352 117.641C436.148 117.912 435.979 118.115 435.844 118.251C435.708 118.386 435.539 118.589 435.336 118.86C434.388 120.214 433.525 121.484 432.746 122.669L430.359 126.274C429.987 126.85 429.682 127.425 429.445 128.001C429.208 128.61 428.87 129.152 428.43 129.626C427.753 129.693 427.363 129.592 427.262 129.321C427.16 129.05 427.177 128.813 427.312 128.61C426.5 128.068 426.043 127.019 425.941 125.462C425.84 123.904 425.992 122.652 426.398 121.704C426.195 121.094 426.128 120.756 426.195 120.688C426.263 120.621 426.297 120.519 426.297 120.384C427.177 119.165 428.074 117.946 428.988 116.727C429.902 115.509 430.867 114.358 431.883 113.274C432.052 113.037 432.221 112.8 432.391 112.563C432.56 112.326 432.712 112.089 432.848 111.852C433.186 111.344 433.542 110.904 433.914 110.532C434.49 109.55 435.184 108.535 435.996 107.485C436.809 106.469 437.469 105.42 437.977 104.337C438.349 103.964 438.603 103.592 438.738 103.219C438.908 102.813 439.195 102.475 439.602 102.204C439.839 101.798 440.042 101.408 440.211 101.036C440.414 100.63 440.583 100.24 440.719 99.8679C440.922 99.2247 441.294 98.5815 441.836 97.9382C441.971 97.4643 442.141 97.0919 442.344 96.821C442.547 96.5502 442.818 96.2455 443.156 95.907C443.19 95.6023 443.376 95.3145 443.715 95.0437C444.053 94.7729 444.307 94.4851 444.477 94.1804C444.646 93.7065 444.815 93.4018 444.984 93.2664C445.188 93.0971 445.289 92.8601 445.289 92.5554C445.628 92.2169 445.966 91.8614 446.305 91.489C446.643 91.1166 446.948 90.6596 447.219 90.1179C448.167 89.5763 448.827 89.3054 449.199 89.3054C449.572 89.3054 449.859 89.1361 450.062 88.7976C450.333 88.7976 450.621 88.7976 450.926 88.7976C451.264 88.7976 451.62 88.7807 451.992 88.7468C452.771 88.6791 453.177 88.933 453.211 89.5085C453.245 89.644 453.245 89.8132 453.211 90.0164C453.177 90.1179 453.143 90.2195 453.109 90.321C453.076 90.4226 453.042 90.5242 453.008 90.6257C453.042 91.2351 453.042 91.5567 453.008 91.5906C452.94 91.6583 452.906 91.7091 452.906 91.7429C452.839 92.0138 452.822 92.2507 452.855 92.4539C452.889 92.6231 452.906 92.9278 452.906 93.3679C452.872 93.6388 452.839 93.8757 452.805 94.0789C452.771 94.282 452.737 94.4682 452.703 94.6375C452.635 94.976 452.771 95.3653 453.109 95.8054C453.279 96.0424 453.482 96.2286 453.719 96.364C453.956 96.4994 454.193 96.7195 454.43 97.0242C454.599 97.1934 454.717 97.3966 454.785 97.6335C454.853 97.8705 454.971 98.0736 455.141 98.2429C455.276 98.4122 455.479 98.5815 455.75 98.7507C456.021 98.92 456.224 99.157 456.359 99.4617C456.732 99.7325 456.85 99.9018 456.715 99.9695C456.613 100.037 456.766 100.173 457.172 100.376C457.951 101.358 458.526 102.407 458.898 103.524C459.339 104.371 459.711 105.048 460.016 105.555C460.354 106.097 460.354 106.639 460.016 107.18C459.812 107.384 459.576 107.79 459.305 108.399C459 108.704 458.729 109.042 458.492 109.415C458.357 109.652 458.255 109.906 458.188 110.177C458.154 110.413 458.052 110.634 457.883 110.837C457.273 111.818 456.647 112.699 456.004 113.477C455.361 114.256 454.802 115.102 454.328 116.016C454.362 117.946 454.734 119.368 455.445 120.282C456.258 121.23 456.766 121.704 456.969 121.704C457.409 121.772 457.883 121.636 458.391 121.298L459.711 120.485C459.846 120.417 459.965 120.35 460.066 120.282C460.202 120.214 460.32 120.147 460.422 120.079C460.625 119.943 460.862 119.842 461.133 119.774C461.844 119.537 462.182 119.453 462.148 119.52C462.115 119.622 462.148 119.673 462.25 119.673ZM473.117 105.251C473.557 105.014 474.099 104.506 474.742 103.727C475.385 102.915 476.012 102.136 476.621 101.391C477.23 100.613 477.688 100.173 477.992 100.071C478.195 99.7325 478.382 99.4447 478.551 99.2078C478.72 98.9708 478.974 98.7507 479.312 98.5476C479.854 97.5658 480.565 96.7364 481.445 96.0593C482.359 95.3484 483.206 94.5867 483.984 93.7742C484.628 93.5033 485.271 93.1986 485.914 92.8601C486.591 92.5216 487.251 92.1322 487.895 91.6921C489.215 90.8119 490.688 90.3549 492.312 90.321C493.057 90.6596 493.785 90.7611 494.496 90.6257C495.173 90.4903 495.833 90.6596 496.477 91.1335C496.849 91.7768 497.154 92.1661 497.391 92.3015C497.628 92.4369 497.831 92.6231 498 92.8601C498.271 93.7065 498.474 94.2651 498.609 94.5359C498.779 94.8067 498.88 95.0945 498.914 95.3992C498.948 95.907 498.982 96.3471 499.016 96.7195C499.049 97.058 499.083 97.3458 499.117 97.5828C499.151 98.0229 499.151 98.446 499.117 98.8523C498.914 100.579 498.576 102.305 498.102 104.032C498.034 104.235 497.966 104.438 497.898 104.641C497.831 104.844 497.763 105.065 497.695 105.302C497.56 105.742 497.391 106.131 497.188 106.469C496.68 107.113 496.324 107.637 496.121 108.044C495.816 108.585 495.596 108.941 495.461 109.11C495.055 109.516 494.665 109.889 494.293 110.227C493.954 110.566 493.633 110.871 493.328 111.141C493.023 111.311 492.719 111.497 492.414 111.7C492.109 111.869 491.805 112.055 491.5 112.259C490.924 112.631 490.247 112.902 489.469 113.071L488.555 113.63C488.25 113.833 487.911 113.951 487.539 113.985C486.93 114.425 486.253 114.781 485.508 115.052C485.169 115.187 484.814 115.322 484.441 115.458C484.103 115.593 483.747 115.746 483.375 115.915C482.867 116.118 482.427 116.355 482.055 116.626C481.682 116.897 481.208 117.167 480.633 117.438C480.328 117.54 479.837 117.658 479.16 117.794C478.517 117.895 478.06 118.014 477.789 118.149C478.128 118.826 478.263 119.673 478.195 120.688C478.161 121.636 478.331 122.483 478.703 123.227C479.583 123.43 480.548 123.583 481.598 123.684C482.647 123.786 483.646 123.769 484.594 123.634C484.763 123.6 484.932 123.549 485.102 123.481C485.305 123.413 485.508 123.346 485.711 123.278C485.914 123.21 486.117 123.143 486.32 123.075C486.523 123.007 486.727 122.956 486.93 122.923C487.674 122.787 488.402 122.618 489.113 122.415C489.824 122.212 490.451 121.941 490.992 121.602C492.956 120.925 494.852 120.011 496.68 118.86C498.508 117.709 500.099 116.456 501.453 115.102C502.266 114.561 503.163 113.816 504.145 112.868C505.126 111.92 505.888 111.04 506.43 110.227C507.445 109.144 508.342 108.298 509.121 107.688C509.9 107.079 510.628 106.808 511.305 106.876C511.846 106.876 512.371 107.197 512.879 107.841C513.387 108.484 513.336 109.178 512.727 109.923C512.083 110.329 511.372 110.938 510.594 111.751C509.849 112.563 509.07 113.139 508.258 113.477C507.682 113.85 506.921 114.594 505.973 115.712C505.059 116.761 504.297 117.574 503.688 118.149C503.552 118.285 503.4 118.437 503.23 118.606C503.061 118.775 502.858 118.945 502.621 119.114C502.181 119.453 501.826 119.808 501.555 120.18C500.505 121.061 499.49 121.805 498.508 122.415C498.135 122.279 497.831 122.347 497.594 122.618C497.289 122.99 497.018 123.261 496.781 123.43C496.68 123.498 496.578 123.566 496.477 123.634C496.375 123.701 496.257 123.769 496.121 123.837C495.986 123.904 495.867 123.972 495.766 124.04C495.664 124.108 495.562 124.175 495.461 124.243C494.919 124.717 494.327 125.191 493.684 125.665C493.04 126.139 492.38 126.545 491.703 126.884C491.026 127.29 490.349 127.662 489.672 128.001C488.995 128.373 488.318 128.695 487.641 128.966C486.964 129.236 486.286 129.558 485.609 129.93C484.966 130.303 484.323 130.709 483.68 131.149L482.562 131.302C482.393 131.335 482.224 131.352 482.055 131.352C481.885 131.386 481.716 131.42 481.547 131.454C481.174 131.589 480.819 131.657 480.48 131.657C480.142 131.657 479.719 131.589 479.211 131.454C476.977 130.844 475.148 129.761 473.727 128.204C473.523 128.001 473.303 127.815 473.066 127.645C472.863 127.442 472.643 127.256 472.406 127.087C471.865 126.68 471.492 126.308 471.289 125.969C470.984 125.462 470.68 124.666 470.375 123.583C470.036 122.499 469.749 121.399 469.512 120.282C469.275 119.131 469.156 118.251 469.156 117.641C469.359 117.235 469.579 116.541 469.816 115.559C470.053 114.544 470.257 113.545 470.426 112.563C470.595 111.548 470.68 110.837 470.68 110.43C470.815 110.295 471.086 109.855 471.492 109.11C471.865 108.331 472.22 107.553 472.559 106.774C472.931 105.962 473.117 105.454 473.117 105.251ZM489.469 98.7507C488.995 99.3601 488.521 99.9356 488.047 100.477C487.573 101.019 487.031 101.527 486.422 102.001C486.016 102.746 485.542 103.423 485 104.032C484.458 104.641 483.917 105.217 483.375 105.759C483.104 106.3 482.799 106.723 482.461 107.028C482.122 107.333 481.75 107.654 481.344 107.993C480.904 108.738 480.362 109.449 479.719 110.126C479.076 110.803 478.94 111.581 479.312 112.462C480.057 112.597 480.802 112.496 481.547 112.157C482.292 111.818 482.935 111.514 483.477 111.243C483.747 111.074 484.018 110.921 484.289 110.786C484.594 110.65 484.882 110.515 485.152 110.38C485.423 110.244 485.694 110.109 485.965 109.973C486.236 109.838 486.49 109.686 486.727 109.516L489.367 106.876C489.773 106.503 490.18 106.063 490.586 105.555C490.755 105.318 490.924 105.081 491.094 104.844C491.297 104.574 491.5 104.303 491.703 104.032C491.872 103.287 492.143 102.593 492.516 101.95C492.922 101.273 493.091 100.579 493.023 99.8679C492.99 99.5632 492.871 99.2078 492.668 98.8015C492.465 98.3953 492.346 98.0736 492.312 97.8367C491.602 97.8367 491.077 97.9552 490.738 98.1921C490.569 98.3276 490.366 98.446 490.129 98.5476C489.926 98.6153 489.706 98.683 489.469 98.7507ZM573.461 99.4617L573.359 100.274C573.427 100.511 573.359 100.917 573.156 101.493C572.818 101.899 572.615 102.339 572.547 102.813C572.411 103.084 572.293 103.321 572.191 103.524C572.09 103.727 572.005 103.998 571.938 104.337C571.802 104.743 571.751 105.217 571.785 105.759C571.819 106.029 571.819 106.3 571.785 106.571C571.785 106.808 571.768 107.045 571.734 107.282C571.599 108.027 571.497 108.755 571.43 109.466C571.362 110.177 571.294 110.904 571.227 111.649C571.227 112.394 571.159 113.24 571.023 114.188C570.888 115.136 570.753 115.983 570.617 116.727C570.922 117.269 571.091 117.777 571.125 118.251C571.159 118.759 571.396 119.199 571.836 119.571C573.19 119.368 574.273 119.046 575.086 118.606C575.898 118.166 576.677 117.54 577.422 116.727C577.964 116.49 578.387 116.253 578.691 116.016C578.962 115.779 579.352 115.509 579.859 115.204L580.672 114.391C581.484 113.951 581.941 113.68 582.043 113.579C582.111 113.511 582.195 113.443 582.297 113.376C582.432 113.308 582.568 113.24 582.703 113.173C583.854 112.428 584.734 111.649 585.344 110.837C585.852 110.43 586.275 110.007 586.613 109.567C586.884 109.195 587.409 108.839 588.188 108.501C588.628 107.959 589.118 107.502 589.66 107.13C590.202 106.757 590.693 106.3 591.133 105.759C591.505 105.759 591.776 105.826 591.945 105.962C592.047 106.029 592.148 106.097 592.25 106.165C592.385 106.233 592.521 106.3 592.656 106.368C592.859 106.91 592.893 107.468 592.758 108.044C592.622 108.619 592.385 109.144 592.047 109.618C591.708 110.058 591.539 110.329 591.539 110.43C591.539 110.498 591.505 110.566 591.438 110.634C591.234 110.871 590.98 111.124 590.676 111.395C590.371 111.632 590.117 111.886 589.914 112.157C589.576 112.766 589.305 113.071 589.102 113.071C588.898 113.071 588.729 113.139 588.594 113.274C587.984 113.647 587.561 113.917 587.324 114.087C587.053 114.324 586.664 114.594 586.156 114.899C585.445 115.272 585.005 115.542 584.836 115.712C584.667 115.881 584.531 115.983 584.43 116.016C583.617 116.93 582.822 117.692 582.043 118.302C581.332 118.843 580.57 119.605 579.758 120.587C579.487 120.79 579.216 120.993 578.945 121.196C578.674 121.399 578.438 121.67 578.234 122.009C577.625 122.415 577.134 122.821 576.762 123.227C576.389 123.634 575.966 124.108 575.492 124.649C575.086 124.852 574.646 125.14 574.172 125.512C573.596 125.953 573.089 126.274 572.648 126.477C572.479 126.579 572.191 126.731 571.785 126.934C571.447 127.104 571.125 127.188 570.82 127.188C570.042 127.324 569.297 127.256 568.586 126.985C567.943 126.748 567.299 126.545 566.656 126.376C566.385 125.969 566.047 125.631 565.641 125.36C565.031 124.615 564.591 123.735 564.32 122.719C564.049 121.704 563.779 120.621 563.508 119.469C562.898 119.876 562.391 120.316 561.984 120.79C561.578 121.298 560.969 121.738 560.156 122.11C559.479 122.753 558.785 123.397 558.074 124.04C557.363 124.649 556.618 125.242 555.84 125.817C555.095 126.393 554.333 127.002 553.555 127.645C552.776 128.255 551.997 128.881 551.219 129.524C550.677 130.066 550.305 130.269 550.102 130.134C549.492 130.878 548.409 131.115 546.852 130.844C546.31 130.574 545.701 130.337 545.023 130.134C544.549 129.998 544.008 129.795 543.398 129.524C542.247 129.321 541.283 128.813 540.504 128.001C539.725 127.188 539.065 126.24 538.523 125.157C538.32 124.581 538.168 124.074 538.066 123.634C538.033 123.397 537.982 123.143 537.914 122.872C537.846 122.601 537.779 122.313 537.711 122.009C537.677 121.433 537.576 120.976 537.406 120.637C537.271 120.265 537.271 119.91 537.406 119.571C537.271 119.402 537.237 119.182 537.305 118.911C537.372 118.572 537.406 118.318 537.406 118.149C537.339 117.201 537.423 116.186 537.66 115.102C537.897 114.019 538.219 113.037 538.625 112.157C538.828 111.818 539.099 111.48 539.438 111.141C539.607 110.938 539.708 110.735 539.742 110.532C539.776 110.363 539.878 110.193 540.047 110.024C540.216 109.821 540.419 109.618 540.656 109.415C540.995 109.144 541.232 108.941 541.367 108.805C541.536 108.568 541.706 108.348 541.875 108.145C542.078 107.908 542.298 107.705 542.535 107.536C542.772 107.367 542.992 107.18 543.195 106.977C543.398 106.774 543.602 106.571 543.805 106.368C544.042 106.131 544.228 105.894 544.363 105.657C544.533 105.386 544.786 105.183 545.125 105.048C545.396 104.574 545.701 104.184 546.039 103.88C546.378 103.575 546.75 103.253 547.156 102.915C548.307 101.527 549.729 100.342 551.422 99.3601C553.148 98.3783 554.672 97.295 555.992 96.1101C556.466 95.907 556.872 95.67 557.211 95.3992C557.549 95.1283 557.888 94.8575 558.227 94.5867C559.073 93.8419 559.987 93.6049 560.969 93.8757L563.609 94.5867C564.286 95.196 564.947 95.8054 565.59 96.4148C566.233 97.0242 566.792 97.7013 567.266 98.446C567.503 98.4122 567.757 98.3953 568.027 98.3953C568.298 98.3614 568.586 98.3614 568.891 98.3953C569.5 98.463 570.143 98.4122 570.82 98.2429C571.023 98.2429 571.227 98.1921 571.43 98.0906C571.633 97.989 571.802 97.9382 571.938 97.9382C572.953 98.2768 573.461 98.7846 573.461 99.4617ZM560.055 100.985C558.227 101.865 556.568 102.898 555.078 104.083C553.589 105.268 552.167 106.537 550.812 107.891C550.643 108.061 550.457 108.23 550.254 108.399C550.085 108.535 549.915 108.687 549.746 108.856C549.577 108.992 549.408 109.144 549.238 109.313C549.069 109.483 548.917 109.652 548.781 109.821C548.51 110.16 548.257 110.566 548.02 111.04C547.783 111.514 547.562 111.954 547.359 112.36C547.292 112.496 547.224 112.631 547.156 112.766C547.089 112.868 547.021 112.953 546.953 113.02C546.885 113.088 546.818 113.173 546.75 113.274C546.682 113.376 546.615 113.477 546.547 113.579C546.411 113.917 546.361 114.256 546.395 114.594C546.428 114.831 546.445 115.204 546.445 115.712V116.727C546.445 116.93 546.479 117.269 546.547 117.743C546.75 118.488 546.852 119.233 546.852 119.977C546.852 120.519 546.902 121.179 547.004 121.958C547.105 122.736 547.359 123.261 547.766 123.532C548.206 123.803 548.629 123.871 549.035 123.735C549.509 123.566 549.898 123.464 550.203 123.43C552.573 121.602 554.807 119.69 556.906 117.692C559.005 115.695 560.867 113.443 562.492 110.938C562.357 109.279 562.34 107.57 562.441 105.809C562.543 104.15 562.391 102.61 561.984 101.188C561.714 101.019 561.392 100.968 561.02 101.036C560.749 101.07 560.427 101.053 560.055 100.985ZM615.508 71.6335C616.997 71.8705 618.284 72.0229 619.367 72.0906C620.484 72.1583 621.703 72.0736 623.023 71.8367L627.035 71.2781C628.118 71.1427 629.422 70.9903 630.945 70.821C631.352 70.7872 631.775 70.7872 632.215 70.821C632.452 70.8549 632.672 70.8888 632.875 70.9226C633.078 70.9226 633.281 70.9226 633.484 70.9226C634.365 70.9226 635.228 70.8888 636.074 70.821C636.921 70.7533 637.716 70.6856 638.461 70.6179C638.596 70.5841 638.715 70.5502 638.816 70.5164C638.952 70.4825 639.07 70.4486 639.172 70.4148C639.375 70.3471 639.578 70.3471 639.781 70.4148C640.086 70.4148 640.391 70.4148 640.695 70.4148C641 70.4148 641.305 70.3979 641.609 70.364C642.219 70.3302 642.76 70.5502 643.234 71.0242C643.438 71.7013 643.505 72.0736 643.438 72.1414C643.336 72.2429 643.268 72.3445 643.234 72.446C643.167 73.3263 643.048 73.7664 642.879 73.7664C642.71 73.7664 642.625 73.8341 642.625 73.9695C642.083 74.1049 641.626 74.2234 641.254 74.325C640.882 74.4265 640.594 74.6466 640.391 74.9851C639.24 75.2221 638.173 75.2729 637.191 75.1375C636.21 74.9682 635.211 75.1205 634.195 75.5945C633.688 75.8315 633.197 76.0854 632.723 76.3562C632.249 76.6609 631.622 76.6778 630.844 76.407C630.167 76.407 629.388 76.4408 628.508 76.5085C627.628 76.5763 626.781 76.644 625.969 76.7117C624.818 76.8132 623.514 76.9317 622.059 77.0671C620.637 77.1687 619.536 77.2364 618.758 77.2703C618.013 77.3041 616.947 77.3549 615.559 77.4226C614.171 77.4903 612.935 77.5242 611.852 77.5242C611.31 77.9643 610.954 78.5398 610.785 79.2507C610.616 79.9278 610.26 80.4695 609.719 80.8757C609.109 82.2299 608.669 83.0932 608.398 83.4656C608.094 83.8718 607.857 84.3966 607.688 85.0398C606.74 86.2585 605.876 87.5281 605.098 88.8484C604.387 90.0671 603.49 91.3028 602.406 92.5554C602.271 93.3002 602.017 93.9604 601.645 94.5359C601.306 95.0776 601.052 95.8393 600.883 96.821C600.172 97.769 599.63 98.8861 599.258 100.173C599.089 100.782 598.885 101.408 598.648 102.052C598.445 102.695 598.208 103.355 597.938 104.032C597.802 104.574 597.65 105.098 597.48 105.606C597.311 106.114 597.125 106.639 596.922 107.18C596.685 107.79 596.363 108.416 595.957 109.059C595.788 109.33 595.602 109.635 595.398 109.973C595.229 110.278 595.06 110.6 594.891 110.938C594.755 111.074 594.688 111.26 594.688 111.497C594.688 111.666 594.654 111.852 594.586 112.055C594.484 112.292 594.383 112.529 594.281 112.766C594.18 112.969 594.078 113.156 593.977 113.325C593.841 113.562 593.672 113.917 593.469 114.391C593.367 114.628 593.283 114.984 593.215 115.458C593.147 115.932 593.062 116.287 592.961 116.524C592.927 116.626 592.893 116.727 592.859 116.829C592.826 116.93 592.792 117.015 592.758 117.083C592.724 117.15 592.69 117.235 592.656 117.337C592.622 117.438 592.589 117.54 592.555 117.641C592.352 118.589 592.352 119.233 592.555 119.571C592.758 119.91 592.927 120.248 593.062 120.587C593.13 120.79 593.198 120.976 593.266 121.145C593.333 121.315 593.401 121.484 593.469 121.653C593.638 121.958 593.74 122.279 593.773 122.618C593.943 122.686 594.112 122.753 594.281 122.821C594.451 122.889 594.603 122.956 594.738 123.024C595.009 123.16 595.331 123.227 595.703 123.227C596.143 123.295 596.583 123.109 597.023 122.669C597.497 122.195 597.904 121.941 598.242 121.907C598.648 121.772 599.105 121.704 599.613 121.704C600.053 121.704 600.443 121.602 600.781 121.399C600.984 121.23 601.171 121.061 601.34 120.891C601.509 120.722 601.661 120.553 601.797 120.384C602 120.079 602.372 119.842 602.914 119.673C603.997 119.402 604.573 119.182 604.641 119.012C604.674 118.877 604.911 118.623 605.352 118.251C605.589 118.081 605.809 117.912 606.012 117.743C606.249 117.574 606.452 117.421 606.621 117.286C606.892 117.049 607.349 116.727 607.992 116.321C608.669 115.983 609.059 115.779 609.16 115.712C609.262 115.644 609.549 115.407 610.023 115.001C610.362 114.831 610.667 114.662 610.938 114.493C611.242 114.29 611.513 114.087 611.75 113.884C612.122 113.545 612.664 113.173 613.375 112.766C614.188 112.428 614.628 112.225 614.695 112.157C614.797 112.055 614.865 111.937 614.898 111.802C614.932 111.666 615.305 111.378 616.016 110.938C616.253 110.43 616.557 109.99 616.93 109.618C617.099 109.449 617.285 109.262 617.488 109.059C617.691 108.822 617.911 108.568 618.148 108.298C618.589 107.79 619.012 107.384 619.418 107.079C619.892 106.706 620.281 106.368 620.586 106.063C620.721 105.962 620.891 105.809 621.094 105.606C621.297 105.403 621.534 105.285 621.805 105.251C622.008 105.081 622.177 104.929 622.312 104.794C622.482 104.658 622.634 104.523 622.77 104.387C622.905 104.252 623.057 104.1 623.227 103.93C623.43 103.761 623.667 103.558 623.938 103.321L624.445 102.813C624.682 102.576 624.852 102.441 624.953 102.407C625.258 102.407 625.478 102.509 625.613 102.712C625.783 102.915 626.003 103.016 626.273 103.016C626.24 103.456 626.206 103.812 626.172 104.083C626.172 104.354 626.172 104.557 626.172 104.692C626.172 104.963 626.104 105.217 625.969 105.454C625.562 106.097 625.105 106.436 624.598 106.469C624.09 106.537 623.701 106.91 623.43 107.587C623.227 107.451 622.973 107.417 622.668 107.485C622.363 107.553 622.143 107.654 622.008 107.79C622.143 108.027 622.211 108.264 622.211 108.501C622.211 108.636 622.245 108.873 622.312 109.212C621.06 110.464 620.247 111.446 619.875 112.157C619.029 113.037 618.589 113.528 618.555 113.63L618.453 113.782L617.641 114.594C616.693 115.339 615.982 116.05 615.508 116.727C615.068 117.371 614.357 117.98 613.375 118.555C612.63 119.097 612.122 119.503 611.852 119.774C611.716 119.91 611.547 120.079 611.344 120.282C611.141 120.451 610.904 120.654 610.633 120.891C610.464 121.061 610.21 121.348 609.871 121.755C609.533 122.161 609.245 122.449 609.008 122.618C608.568 122.956 608.111 123.261 607.637 123.532C607.264 123.735 606.875 124.074 606.469 124.548C605.487 124.988 604.759 125.529 604.285 126.173C603.845 126.748 603.185 127.324 602.305 127.899C601.695 128.305 600.866 128.813 599.816 129.423C598.767 130.032 597.87 130.472 597.125 130.743C597.023 130.777 596.922 130.811 596.82 130.844C596.719 130.878 596.634 130.912 596.566 130.946C596.499 130.98 596.414 131.014 596.312 131.048C596.211 131.081 596.109 131.115 596.008 131.149C595.466 130.811 594.941 130.472 594.434 130.134C593.926 129.795 593.503 129.321 593.164 128.712C592.521 128.238 592.03 127.899 591.691 127.696C591.285 127.459 590.93 127.188 590.625 126.884C590.286 126.308 589.931 125.733 589.559 125.157C589.186 124.581 588.78 124.006 588.34 123.43C587.46 122.246 586.799 120.959 586.359 119.571C586.258 119.402 586.173 119.114 586.105 118.708L585.953 117.743C585.885 117.472 585.818 117.218 585.75 116.981C585.682 116.744 585.615 116.524 585.547 116.321C585.411 115.983 585.378 115.475 585.445 114.798C585.445 114.324 585.513 113.884 585.648 113.477C585.716 113.24 585.784 113.003 585.852 112.766C585.919 112.496 585.987 112.225 586.055 111.954C586.19 111.514 586.342 111.091 586.512 110.684C586.681 110.244 586.85 109.821 587.02 109.415C587.426 108.501 587.714 107.621 587.883 106.774C588.289 105.352 588.729 103.998 589.203 102.712C589.305 102.475 589.389 102.153 589.457 101.747C589.491 101.442 589.677 101.222 590.016 101.087C590.286 99.7325 590.727 98.4291 591.336 97.1765C591.945 95.9239 592.555 94.7221 593.164 93.571C593.536 92.8601 593.892 92.1492 594.23 91.4382C594.569 90.6934 594.908 89.9486 595.246 89.2039C595.585 88.4591 595.923 87.7312 596.262 87.0203C596.6 86.2755 596.956 85.5476 597.328 84.8367C597.362 84.0919 597.633 83.4148 598.141 82.8054C598.174 82.1283 598.445 81.4005 598.953 80.6218C599.461 79.8432 599.799 79.1153 599.969 78.4382C599.224 78.2351 598.395 78.2182 597.48 78.3875C596.566 78.5567 595.771 78.7091 595.094 78.8445C593.875 78.8783 592.589 78.8783 591.234 78.8445C590.997 78.8106 590.76 78.7768 590.523 78.7429C590.32 78.6752 590.1 78.6244 589.863 78.5906C589.423 78.489 589 78.4382 588.594 78.4382C587.984 78.4721 587.527 78.4213 587.223 78.2859C586.884 78.1166 586.562 78.0997 586.258 78.2351C585.31 77.4226 584.345 76.7117 583.363 76.1023C582.348 75.4929 581.688 74.7143 581.383 73.7664C581.383 73.5632 581.484 73.394 581.688 73.2585C581.958 73.0554 582.128 72.92 582.195 72.8523C582.771 72.683 583.38 72.6322 584.023 72.7C584.667 72.7338 585.208 72.6153 585.648 72.3445C586.63 72.4799 587.629 72.4122 588.645 72.1414C589.559 71.8705 590.523 71.769 591.539 71.8367C591.674 71.8367 591.878 71.8705 592.148 71.9382C592.419 72.0059 592.622 72.0398 592.758 72.0398C593.096 72.0736 593.384 72.0736 593.621 72.0398C593.757 72.0059 593.892 71.9721 594.027 71.9382C594.163 71.9044 594.315 71.8705 594.484 71.8367C594.891 71.769 595.331 71.769 595.805 71.8367C596.279 71.9044 596.753 71.9044 597.227 71.8367C598.208 71.769 599.275 71.8536 600.426 72.0906C601.678 72.3276 602.779 72.2768 603.727 71.9382C603.896 71.4643 604.065 70.9903 604.234 70.5164C604.438 70.0085 604.658 69.5177 604.895 69.0437C605.368 68.0619 605.724 67.0971 605.961 66.1492C606.232 65.7429 606.503 65.2859 606.773 64.7781C607.044 64.2703 607.247 63.7794 607.383 63.3054L608.348 61.6804C608.483 61.4773 608.618 61.2742 608.754 61.071C608.889 60.8679 609.042 60.6648 609.211 60.4617C609.685 59.4799 610.04 58.5489 610.277 57.6687C610.413 57.1947 610.548 56.7208 610.684 56.2468C610.853 55.739 611.039 55.2143 611.242 54.6726C611.682 54.1986 612.122 53.6739 612.562 53.0984C613.003 52.5229 613.443 51.8966 613.883 51.2195C614.391 51.2872 614.78 51.1518 615.051 50.8132C615.355 50.4747 615.812 50.5085 616.422 50.9148C616.422 51.1179 616.507 51.3041 616.676 51.4734C616.845 51.6427 616.862 51.8966 616.727 52.2351C617.404 52.9122 617.844 53.5216 618.047 54.0632C618.182 54.6049 618.132 55.2312 617.895 55.9421C617.658 56.6531 617.708 57.3132 618.047 57.9226C618.182 58.2273 618.216 58.5489 618.148 58.8875C618.081 59.2598 618.115 59.5476 618.25 59.7507C618.419 60.1231 618.605 60.4617 618.809 60.7664C619.046 61.1049 619.164 61.545 619.164 62.0867C619.164 62.2898 619.113 62.5437 619.012 62.8484C618.91 63.1531 618.792 63.4747 618.656 63.8132C618.419 64.8289 618.216 65.5398 618.047 65.946C617.979 66.1492 617.911 66.3692 617.844 66.6062C617.776 66.8093 617.708 67.0294 617.641 67.2664C617.167 67.8419 616.93 68.1973 616.93 68.3328C616.93 68.4343 616.896 68.5867 616.828 68.7898C616.727 68.9929 616.625 69.2299 616.523 69.5007C616.422 69.7377 616.303 69.9916 616.168 70.2625C616.033 70.5333 615.914 70.7872 615.812 71.0242C615.711 71.2611 615.609 71.4643 615.508 71.6335Z" fill="#040000"/>
</svg>
