<svg width="24" height="24" viewBox="0 0 24 24" fill="none" xmlns="http://www.w3.org/2000/svg">
<path d="M5.50097 18.7699C5.35897 18.7699 5.23997 18.7219 5.14397 18.6259C5.04864 18.5306 5.00097 18.4116 5.00097 18.2689C5.00097 18.1269 5.04864 18.0083 5.14397 17.9129C5.23997 17.8169 5.35897 17.7689 5.50097 17.7689H6.61597V9.84592C6.61597 8.53925 7.02931 7.39025 7.85597 6.39892C8.68397 5.40759 9.73231 4.78992 11.001 4.54592V3.99992C11.001 3.72459 11.0986 3.48892 11.294 3.29292C11.49 3.09759 11.7256 2.99992 12.001 2.99992C12.2763 2.99992 12.512 3.09759 12.708 3.29292C12.9033 3.48892 13.001 3.72459 13.001 3.99992V4.54592C14.2703 4.78992 15.3183 5.40759 16.145 6.39892C16.9716 7.39092 17.385 8.53992 17.385 9.84592V17.7689H18.501C18.643 17.7689 18.762 17.8169 18.858 17.9129C18.9533 18.0083 19.001 18.1269 19.001 18.2689C19.001 18.4116 18.9533 18.5306 18.858 18.6259C18.762 18.7213 18.643 18.7689 18.501 18.7689L5.50097 18.7699ZM12.001 21.3849C11.5536 21.3849 11.1726 21.2276 10.858 20.9129C10.5433 20.5976 10.386 20.2163 10.386 19.7689H13.616C13.616 20.2163 13.4586 20.5976 13.144 20.9129C12.8293 21.2276 12.4483 21.3849 12.001 21.3849ZM3.73097 9.82692C3.58897 9.82692 3.47031 9.77292 3.37497 9.66492C3.27964 9.55759 3.23564 9.42625 3.24297 9.27092C3.32497 8.03359 3.64297 6.88692 4.19697 5.83092C4.75031 4.77559 5.47531 3.87359 6.37197 3.12492C6.48597 3.01825 6.61631 2.96692 6.76297 2.97092C6.90964 2.97492 7.02797 3.03592 7.11797 3.15392C7.20797 3.27192 7.23631 3.39992 7.20297 3.53792C7.16964 3.67659 7.09597 3.79459 6.98197 3.89192C6.20331 4.54725 5.57664 5.33459 5.10197 6.25392C4.62864 7.17325 4.35064 8.17192 4.26797 9.24992C4.24797 9.40525 4.19231 9.54025 4.10097 9.65492C4.00964 9.76959 3.88631 9.82692 3.73097 9.82692ZM20.271 9.82692C20.1156 9.82692 19.9923 9.76959 19.901 9.65492C19.8096 9.54025 19.754 9.40525 19.734 9.24992C19.652 8.17192 19.3736 7.17325 18.899 6.25392C18.425 5.33459 17.7986 4.54725 17.02 3.89192C16.9066 3.79459 16.8333 3.67659 16.8 3.53792C16.7666 3.39992 16.7946 3.27192 16.884 3.15392C16.9733 3.03592 17.0916 2.97492 17.239 2.97092C17.3856 2.96692 17.5156 3.01825 17.629 3.12492C18.5256 3.87359 19.251 4.77592 19.805 5.83192C20.3583 6.88725 20.6763 8.03392 20.759 9.27192C20.7663 9.42659 20.7223 9.55759 20.627 9.66492C20.5316 9.77292 20.4126 9.82692 20.27 9.82692" fill="black"/>
</svg>
