<svg width="100" height="100" viewBox="0 0 100 100" fill="none" xmlns="http://www.w3.org/2000/svg">
<path d="M76.6 12H23.4C17.104 12 12 17.104 12 23.4V76.6C12 82.896 17.104 88 23.4 88H76.6C82.896 88 88 82.896 88 76.6V23.4C88 17.104 82.896 12 76.6 12Z" fill="#1877F2"/>
<path d="M64.8301 61.0534L66.5479 50.0971H55.8493V42.9903C55.8493 39.9995 57.3411 37.068 62.1329 37.068H67V27.7403C67 27.7403 62.5849 27 58.3658 27C49.5507 27 43.7945 32.2413 43.7945 41.7466V50.0971H34V61.0534H43.7945V88H55.8493V61.0534H64.8301Z" fill="white"/>
</svg>
