<svg width="161" height="161" viewBox="0 0 161 161" fill="none" xmlns="http://www.w3.org/2000/svg">
<path d="M80.4971 5.03125C100.506 5.05532 119.688 13.0146 133.837 27.1631C147.765 41.0912 155.695 59.8975 155.962 79.5684L155.969 80.5059C155.968 95.43 151.541 110.019 143.25 122.428C134.957 134.838 123.171 144.512 109.381 150.224C95.5908 155.936 80.4159 157.431 65.7764 154.519C51.137 151.607 37.6901 144.419 27.1357 133.864C16.5814 123.31 9.39348 109.863 6.48145 95.2236C3.56947 80.5841 5.06432 65.4092 10.7764 51.6191C16.4884 37.8292 26.1616 26.0425 38.5723 17.75C50.9821 9.45807 65.5719 5.03183 80.4971 5.03125ZM124.422 39.3604C122.973 39.0218 121.473 38.9625 120.004 39.1836L119.711 39.2314C118.148 39.5072 116.657 40.0969 115.329 40.9648C114.043 41.8052 112.935 42.89 112.067 44.1562L73.4502 96.5654L50.1953 77.96H50.1963C47.7649 76.0142 44.6595 75.1146 41.5645 75.458C38.4697 75.8015 35.638 77.36 33.6924 79.791C31.7467 82.2224 30.8461 85.3278 31.1895 88.4229C31.3595 89.9553 31.8297 91.4393 32.5732 92.79C33.3168 94.1408 34.3196 95.3315 35.5234 96.2949L35.5254 96.2969L68.3154 122.513L68.3369 122.53L68.3584 122.547C69.5944 123.513 71.0109 124.224 72.5244 124.637C74.0379 125.05 75.6184 125.157 77.1738 124.952C78.7293 124.748 80.2286 124.235 81.584 123.445C82.9393 122.655 84.1241 121.603 85.0684 120.351L85.084 120.328L85.1006 120.307L130.984 58.04C131.93 56.8359 132.631 55.4584 133.048 53.9844C133.479 52.4574 133.596 50.8588 133.393 49.2852C133.189 47.7114 132.669 46.1949 131.862 44.8281C131.056 43.4613 129.981 42.2717 128.702 41.332C127.423 40.3924 125.967 39.7214 124.422 39.3604Z" fill="#00B2ED" stroke="#00B2ED" stroke-width="10.0625"/>
</svg>
