<svg width="30" height="30" viewBox="0 0 30 30" fill="none" xmlns="http://www.w3.org/2000/svg">
<g clip-path="url(#clip0_1039_22475)">
<path d="M0 22.4997C0 23.3837 0.35119 24.2316 0.976311 24.8567C1.60143 25.4818 2.44928 25.833 3.33333 25.833H26.6667C27.5507 25.833 28.3986 25.4818 29.0237 24.8567C29.6488 24.2316 30 23.3837 30 22.4997V18.333H0V22.4997Z" fill="#138808"/>
<path d="M30 11.667V7.50033C30 6.61627 29.6488 5.76842 29.0237 5.1433C28.3986 4.51818 27.5507 4.16699 26.6667 4.16699H3.33333C2.44928 4.16699 1.60143 4.51818 0.976311 5.1433C0.35119 5.76842 0 6.61627 0 7.50033L0 11.667H30Z" fill="#FF9933"/>
<path d="M0 11.3896H30V18.6121H0V11.3896Z" fill="#F7F7F7"/>
<path d="M15 18.3337C16.8409 18.3337 18.3333 16.8413 18.3333 15.0003C18.3333 13.1594 16.8409 11.667 15 11.667C13.159 11.667 11.6666 13.1594 11.6666 15.0003C11.6666 16.8413 13.159 18.3337 15 18.3337Z" fill="#000080"/>
<path d="M15 17.8125C16.5533 17.8125 17.8125 16.5533 17.8125 15C17.8125 13.4467 16.5533 12.1875 15 12.1875C13.4467 12.1875 12.1875 13.4467 12.1875 15C12.1875 16.5533 13.4467 17.8125 15 17.8125Z" fill="#F7F7F7"/>
<path d="M15.0834 13.958L15 14.4997L14.9167 13.958L15 12.333L15.0834 13.958ZM14.31 12.4238L14.65 14.0147L14.8709 14.5163L14.8109 13.9722L14.31 12.4238ZM13.6667 12.6905L14.4067 14.1388L14.75 14.5663L14.5517 14.0555L13.6667 12.6905ZM13.1142 13.1138L14.2042 14.3222L14.6467 14.6463L14.3225 14.2038L13.1142 13.1138ZM12.6909 13.6663L14.0559 14.5513L14.5667 14.7497L14.1392 14.4063L12.6909 13.6663ZM12.4242 14.3097L13.9725 14.8105L14.5167 14.8705L14.015 14.6497L12.4242 14.3097ZM12.3334 14.9997L13.9584 15.083L14.5 14.9997L13.9584 14.9163L12.3334 14.9997ZM12.4242 15.6897L14.015 15.3497L14.5167 15.1288L13.9725 15.1888L12.4242 15.6897ZM12.6909 16.333L14.1392 15.593L14.5667 15.2497L14.0559 15.448L12.6909 16.333ZM13.1142 16.8855L14.3225 15.7955L14.6467 15.353L14.2042 15.6772L13.1142 16.8855ZM13.6667 17.3088L14.5517 15.9438L14.75 15.433L14.4067 15.8605L13.6667 17.3088ZM14.31 17.5755L14.8109 16.0272L14.8709 15.483L14.65 15.9847L14.31 17.5755ZM15 17.6663L15.0834 16.0413L15 15.4997L14.9167 16.0413L15 17.6663ZM15.69 17.5755L15.35 15.9847L15.1292 15.483L15.1892 16.0272L15.69 17.5755ZM16.3334 17.3088L15.5934 15.8605L15.25 15.433L15.4484 15.9438L16.3334 17.3088ZM16.8859 16.8855L15.7959 15.6772L15.3534 15.353L15.6775 15.7955L16.8859 16.8855ZM17.3092 16.333L15.9442 15.448L15.4334 15.2497L15.8609 15.593L17.3092 16.333ZM17.5759 15.6897L16.0275 15.1888L15.4834 15.1288L15.985 15.3497L17.5759 15.6897ZM17.6667 14.9997L16.0417 14.9163L15.5 14.9997L16.0417 15.083L17.6667 14.9997ZM17.5759 14.3097L15.985 14.6497L15.4834 14.8705L16.0275 14.8105L17.5759 14.3097ZM17.3092 13.6663L15.8609 14.4063L15.4334 14.7497L15.9442 14.5513L17.3092 13.6663ZM16.8859 13.1138L15.6775 14.2038L15.3534 14.6463L15.7959 14.3222L16.8859 13.1138ZM16.3334 12.6905L15.4484 14.0555L15.25 14.5663L15.5934 14.1388L16.3334 12.6905ZM15.69 12.4238L15.1892 13.9722L15.1292 14.5163L15.35 14.0147L15.69 12.4238Z" fill="#6666B3"/>
<path d="M14.6333 12.3822C14.7254 12.3822 14.8 12.3075 14.8 12.2155C14.8 12.1234 14.7254 12.0488 14.6333 12.0488C14.5413 12.0488 14.4667 12.1234 14.4667 12.2155C14.4667 12.3075 14.5413 12.3822 14.6333 12.3822Z" fill="#000080"/>
<path d="M13.925 12.5726C14.017 12.5726 14.0916 12.498 14.0916 12.4059C14.0916 12.3139 14.017 12.2393 13.925 12.2393C13.8329 12.2393 13.7583 12.3139 13.7583 12.4059C13.7583 12.498 13.8329 12.5726 13.925 12.5726Z" fill="#000080"/>
<path d="M13.2901 12.9378C13.3821 12.9378 13.4567 12.8632 13.4567 12.7712C13.4567 12.6791 13.3821 12.6045 13.2901 12.6045C13.198 12.6045 13.1234 12.6791 13.1234 12.7712C13.1234 12.8632 13.198 12.9378 13.2901 12.9378Z" fill="#000080"/>
<path d="M12.7716 13.4564C12.8637 13.4564 12.9383 13.3818 12.9383 13.2897C12.9383 13.1977 12.8637 13.123 12.7716 13.123C12.6796 13.123 12.605 13.1977 12.605 13.2897C12.605 13.3818 12.6796 13.4564 12.7716 13.4564Z" fill="#000080"/>
<path d="M12.4058 14.0911C12.4978 14.0911 12.5725 14.0165 12.5725 13.9245C12.5725 13.8324 12.4978 13.7578 12.4058 13.7578C12.3138 13.7578 12.2391 13.8324 12.2391 13.9245C12.2391 14.0165 12.3138 14.0911 12.4058 14.0911Z" fill="#000080"/>
<path d="M12.2159 14.8001C12.3079 14.8001 12.3825 14.7255 12.3825 14.6335C12.3825 14.5414 12.3079 14.4668 12.2159 14.4668C12.1238 14.4668 12.0492 14.5414 12.0492 14.6335C12.0492 14.7255 12.1238 14.8001 12.2159 14.8001Z" fill="#000080"/>
<path d="M12.2159 15.5326C12.3079 15.5326 12.3825 15.4579 12.3825 15.3659C12.3825 15.2738 12.3079 15.1992 12.2159 15.1992C12.1238 15.1992 12.0492 15.2738 12.0492 15.3659C12.0492 15.4579 12.1238 15.5326 12.2159 15.5326Z" fill="#000080"/>
<path d="M12.4058 16.2415C12.4978 16.2415 12.5725 16.1669 12.5725 16.0749C12.5725 15.9828 12.4978 15.9082 12.4058 15.9082C12.3138 15.9082 12.2391 15.9828 12.2391 16.0749C12.2391 16.1669 12.3138 16.2415 12.4058 16.2415Z" fill="#000080"/>
<path d="M12.7716 16.8763C12.8637 16.8763 12.9383 16.8017 12.9383 16.7096C12.9383 16.6176 12.8637 16.543 12.7716 16.543C12.6796 16.543 12.605 16.6176 12.605 16.7096C12.605 16.8017 12.6796 16.8763 12.7716 16.8763Z" fill="#000080"/>
<path d="M13.2901 17.3949C13.3821 17.3949 13.4567 17.3202 13.4567 17.2282C13.4567 17.1361 13.3821 17.0615 13.2901 17.0615C13.198 17.0615 13.1234 17.1361 13.1234 17.2282C13.1234 17.3202 13.198 17.3949 13.2901 17.3949Z" fill="#000080"/>
<path d="M13.925 17.7601C14.017 17.7601 14.0916 17.6855 14.0916 17.5934C14.0916 17.5014 14.017 17.4268 13.925 17.4268C13.8329 17.4268 13.7583 17.5014 13.7583 17.5934C13.7583 17.6855 13.8329 17.7601 13.925 17.7601Z" fill="#000080"/>
<path d="M14.6333 17.9505C14.7254 17.9505 14.8 17.8759 14.8 17.7839C14.8 17.6918 14.7254 17.6172 14.6333 17.6172C14.5413 17.6172 14.4667 17.6918 14.4667 17.7839C14.4667 17.8759 14.5413 17.9505 14.6333 17.9505Z" fill="#000080"/>
<path d="M15.3667 17.9505C15.4588 17.9505 15.5334 17.8759 15.5334 17.7839C15.5334 17.6918 15.4588 17.6172 15.3667 17.6172C15.2747 17.6172 15.2001 17.6918 15.2001 17.7839C15.2001 17.8759 15.2747 17.9505 15.3667 17.9505Z" fill="#000080"/>
<path d="M16.075 17.7601C16.167 17.7601 16.2417 17.6855 16.2417 17.5934C16.2417 17.5014 16.167 17.4268 16.075 17.4268C15.9829 17.4268 15.9083 17.5014 15.9083 17.5934C15.9083 17.6855 15.9829 17.7601 16.075 17.7601Z" fill="#000080"/>
<path d="M16.71 17.3949C16.802 17.3949 16.8767 17.3202 16.8767 17.2282C16.8767 17.1361 16.802 17.0615 16.71 17.0615C16.618 17.0615 16.5433 17.1361 16.5433 17.2282C16.5433 17.3202 16.618 17.3949 16.71 17.3949Z" fill="#000080"/>
<path d="M17.2283 16.8763C17.3204 16.8763 17.395 16.8017 17.395 16.7096C17.395 16.6176 17.3204 16.543 17.2283 16.543C17.1363 16.543 17.0616 16.6176 17.0616 16.7096C17.0616 16.8017 17.1363 16.8763 17.2283 16.8763Z" fill="#000080"/>
<path d="M17.5942 16.2415C17.6862 16.2415 17.7608 16.1669 17.7608 16.0749C17.7608 15.9828 17.6862 15.9082 17.5942 15.9082C17.5021 15.9082 17.4275 15.9828 17.4275 16.0749C17.4275 16.1669 17.5021 16.2415 17.5942 16.2415Z" fill="#000080"/>
<path d="M17.7842 15.5326C17.8763 15.5326 17.9509 15.4579 17.9509 15.3659C17.9509 15.2738 17.8763 15.1992 17.7842 15.1992C17.6922 15.1992 17.6176 15.2738 17.6176 15.3659C17.6176 15.4579 17.6922 15.5326 17.7842 15.5326Z" fill="#000080"/>
<path d="M17.7842 14.8001C17.8763 14.8001 17.9509 14.7255 17.9509 14.6335C17.9509 14.5414 17.8763 14.4668 17.7842 14.4668C17.6922 14.4668 17.6176 14.5414 17.6176 14.6335C17.6176 14.7255 17.6922 14.8001 17.7842 14.8001Z" fill="#000080"/>
<path d="M17.5942 14.0911C17.6862 14.0911 17.7608 14.0165 17.7608 13.9245C17.7608 13.8324 17.6862 13.7578 17.5942 13.7578C17.5021 13.7578 17.4275 13.8324 17.4275 13.9245C17.4275 14.0165 17.5021 14.0911 17.5942 14.0911Z" fill="#000080"/>
<path d="M17.2283 13.4564C17.3204 13.4564 17.395 13.3818 17.395 13.2897C17.395 13.1977 17.3204 13.123 17.2283 13.123C17.1363 13.123 17.0616 13.1977 17.0616 13.2897C17.0616 13.3818 17.1363 13.4564 17.2283 13.4564Z" fill="#000080"/>
<path d="M16.71 12.9378C16.802 12.9378 16.8767 12.8632 16.8767 12.7712C16.8767 12.6791 16.802 12.6045 16.71 12.6045C16.618 12.6045 16.5433 12.6791 16.5433 12.7712C16.5433 12.8632 16.618 12.9378 16.71 12.9378Z" fill="#000080"/>
<path d="M16.075 12.5726C16.167 12.5726 16.2417 12.498 16.2417 12.4059C16.2417 12.3139 16.167 12.2393 16.075 12.2393C15.9829 12.2393 15.9083 12.3139 15.9083 12.4059C15.9083 12.498 15.9829 12.5726 16.075 12.5726Z" fill="#000080"/>
<path d="M15.3667 12.3822C15.4588 12.3822 15.5334 12.3075 15.5334 12.2155C15.5334 12.1234 15.4588 12.0488 15.3667 12.0488C15.2747 12.0488 15.2001 12.1234 15.2001 12.2155C15.2001 12.3075 15.2747 12.3822 15.3667 12.3822Z" fill="#000080"/>
<path d="M15 15.75C15.4142 15.75 15.75 15.4142 15.75 15C15.75 14.5858 15.4142 14.25 15 14.25C14.5858 14.25 14.25 14.5858 14.25 15C14.25 15.4142 14.5858 15.75 15 15.75Z" fill="#000080"/>
</g>
<defs>
<clipPath id="clip0_1039_22475">
<rect width="30" height="30" fill="white"/>
</clipPath>
</defs>
</svg>
