<svg width="20" height="20" viewBox="0 0 20 20" fill="none" xmlns="http://www.w3.org/2000/svg">
<path d="M10.3342 10.333C11.6349 10.333 12.8134 10.7636 13.678 11.3656C14.4995 11.9386 15.1953 12.79 15.1953 13.7059C15.1953 14.2087 14.9807 14.6254 14.6425 14.9351C14.3245 15.2275 13.9092 15.417 13.4814 15.5462C12.6266 15.8052 11.5009 15.8886 10.3342 15.8886C9.16754 15.8886 8.04184 15.8052 7.18698 15.5462C6.7592 15.417 6.34392 15.2275 6.02517 14.9351C5.68837 14.6261 5.47309 14.2094 5.47309 13.7066C5.47309 12.7906 6.16892 11.9393 6.99045 11.3663C7.85504 10.7636 9.03351 10.333 10.3342 10.333ZM15.1953 11.0275C15.9203 11.0275 16.5786 11.267 17.0655 11.6059C17.5099 11.9163 17.9731 12.4323 17.9731 13.0615C17.9731 13.4205 17.8168 13.7184 17.5842 13.9316C17.3717 14.1268 17.1092 14.2413 16.8696 14.3136C16.5432 14.4122 16.1578 14.4629 15.7578 14.4851C15.8425 14.2455 15.8898 13.9851 15.8898 13.7059C15.8898 12.64 15.2238 11.7344 14.4786 11.1059C14.714 11.0538 14.9543 11.0275 15.1953 11.0275ZM5.47309 11.0275C5.72101 11.0275 5.96129 11.0552 6.18976 11.1059C5.44531 11.7344 4.77865 12.64 4.77865 13.7059C4.77865 13.9851 4.82587 14.2455 4.91059 14.4851C4.51059 14.4629 4.12587 14.4122 3.79879 14.3136C3.5592 14.2413 3.2967 14.1268 3.08351 13.9316C2.9612 13.8222 2.86339 13.6882 2.79649 13.5384C2.72959 13.3885 2.69511 13.2263 2.69531 13.0622C2.69531 12.4337 3.15781 11.917 3.60295 11.6066C4.15347 11.229 4.8055 11.0271 5.47309 11.0275ZM14.8481 6.86079C15.3085 6.86079 15.7501 7.0437 16.0757 7.36928C16.4013 7.69486 16.5842 8.13645 16.5842 8.5969C16.5842 9.05734 16.4013 9.49893 16.0757 9.82451C15.7501 10.1501 15.3085 10.333 14.8481 10.333C14.3876 10.333 13.9461 10.1501 13.6205 9.82451C13.2949 9.49893 13.112 9.05734 13.112 8.5969C13.112 8.13645 13.2949 7.69486 13.6205 7.36928C13.9461 7.0437 14.3876 6.86079 14.8481 6.86079ZM5.82031 6.86079C6.28076 6.86079 6.72235 7.0437 7.04793 7.36928C7.37351 7.69486 7.55642 8.13645 7.55642 8.5969C7.55642 9.05734 7.37351 9.49893 7.04793 9.82451C6.72235 10.1501 6.28076 10.333 5.82031 10.333C5.35987 10.333 4.91828 10.1501 4.5927 9.82451C4.26711 9.49893 4.0842 9.05734 4.0842 8.5969C4.0842 8.13645 4.26711 7.69486 4.5927 7.36928C4.91828 7.0437 5.35987 6.86079 5.82031 6.86079ZM10.3342 4.08301C11.0709 4.08301 11.7775 4.37567 12.2984 4.8966C12.8193 5.41753 13.112 6.12407 13.112 6.86079C13.112 7.5975 12.8193 8.30404 12.2984 8.82497C11.7775 9.34591 11.0709 9.63856 10.3342 9.63856C9.59749 9.63856 8.89095 9.34591 8.37002 8.82497C7.84908 8.30404 7.55642 7.5975 7.55642 6.86079C7.55642 6.12407 7.84908 5.41753 8.37002 4.8966C8.89095 4.37567 9.59749 4.08301 10.3342 4.08301Z" fill="black" fill-opacity="0.4"/>
</svg>
