<svg width="16" height="16" viewBox="0 0 16 16" fill="none" xmlns="http://www.w3.org/2000/svg">
<g clip-path="url(#clip0_20_37902)">
<path d="M10.4108 11.8011C11.1383 11.8011 11.8359 11.5122 12.3503 10.9978C12.8647 10.4834 13.1537 9.78574 13.1537 9.05829C13.1537 8.33084 12.8647 7.63318 12.3503 7.11879C11.8359 6.60441 11.1383 6.31543 10.4108 6.31543C9.68337 6.31543 8.98572 6.60441 8.47133 7.11879C7.95695 7.63318 7.66797 8.33084 7.66797 9.05829C7.66797 9.78574 7.95695 10.4834 8.47133 10.9978C8.98572 11.5122 9.68337 11.8011 10.4108 11.8011Z" stroke="#858585" stroke-linecap="round" stroke-linejoin="round"/>
<path d="M10.411 9.42629C10.3134 9.42629 10.2198 9.38752 10.1508 9.31851C10.0817 9.24949 10.043 9.15589 10.043 9.05829C10.043 8.96069 10.0817 8.86709 10.1508 8.79808C10.2198 8.72906 10.3134 8.69029 10.411 8.69029" stroke="#858585" stroke-linecap="round" stroke-linejoin="round"/>
<path d="M10.4102 9.42629C10.5078 9.42629 10.6014 9.38752 10.6704 9.31851C10.7394 9.24949 10.7782 9.15589 10.7782 9.05829C10.7782 8.96069 10.7394 8.86709 10.6704 8.79808C10.6014 8.72906 10.5078 8.69029 10.4102 8.69029" stroke="#858585" stroke-linecap="round" stroke-linejoin="round"/>
<path d="M4 3.85486H11" stroke="#858585" stroke-linecap="round" stroke-linejoin="round"/>
<path d="M4 6.18857H6" stroke="#858585" stroke-linecap="round" stroke-linejoin="round"/>
<path d="M6.41113 11.752C5.01685 11.7337 3.63742 11.6686 2.43742 11.4297C2.09268 11.358 1.77553 11.1895 1.52313 10.9439C1.27072 10.6984 1.09352 10.3861 1.01228 10.0434C0.726562 8.88914 0.726562 8.05486 0.726562 6.18857C0.726562 4.32229 0.726562 3.48686 1.01228 2.33371C1.09371 1.99107 1.27095 1.67866 1.52331 1.43298C1.77566 1.18731 2.09271 1.0185 2.43742 0.946286C4.09456 0.618286 6.09113 0.618286 7.99971 0.618286C9.90828 0.618286 11.9048 0.618286 13.562 0.946286C13.9067 1.01831 14.2237 1.18707 14.4759 1.4328C14.7281 1.67852 14.905 1.99103 14.986 2.33371C15.2717 3.48686 15.2717 4.32229 15.2717 6.18857C15.2717 8.05486 15.2717 8.89029 14.986 10.0434C14.9128 10.3429 14.7688 10.6149 14.5746 10.8389" stroke="#858585" stroke-linecap="round" stroke-linejoin="round"/>
<path d="M8.64045 11.2549C8.51696 12.499 8.50625 13.7517 8.60845 14.9977C8.61135 15.0347 8.62434 15.0703 8.64599 15.1004C8.66764 15.1306 8.69714 15.1543 8.73128 15.1689C8.76543 15.1835 8.80292 15.1884 8.83969 15.1833C8.87646 15.1781 8.91111 15.1629 8.93988 15.1394L10.0976 14.2057C10.1859 14.1343 10.296 14.0953 10.4096 14.0953C10.5232 14.0953 10.6333 14.1343 10.7216 14.2057L11.8782 15.1394C12.005 15.2423 12.1959 15.1611 12.2096 14.9977C12.3121 13.7517 12.3014 12.4989 12.1776 11.2549" stroke="#858585" stroke-linecap="round" stroke-linejoin="round"/>
</g>
<defs>
<clipPath id="clip0_20_37902">
<rect width="16" height="16" fill="white"/>
</clipPath>
</defs>
</svg>
