<svg width="444" height="122" viewBox="0 0 444 122" fill="none" xmlns="http://www.w3.org/2000/svg">
<g clip-path="url(#clip0_2001_610)">
<path d="M431.533 47.1483H431.417C426.322 47.1483 422.191 51.2772 422.191 56.3691V87.0321C421.2 95.8523 413.585 102.72 404.332 102.72C394.619 102.72 386.715 95.1513 386.38 85.6994V84.4592C386.38 84.4592 386.38 84.4207 386.38 84.4014V79.8295C386.426 79.4559 386.453 79.0784 386.453 78.6971V55.7567C386.453 50.6918 382.344 46.5859 377.276 46.5859H377.169C372.101 46.5859 367.992 50.6918 367.992 55.7567V78.6971C367.992 79.0861 368.019 79.4713 368.065 79.8487V84.4052H368.054C368.05 84.6325 368.046 84.8559 368.046 85.0831C368.046 104.696 384.322 120.591 404.401 120.591C411.303 120.591 417.755 118.716 423.251 115.453C424.738 118.504 427.868 120.607 431.491 120.607H431.568C436.628 120.607 440.729 116.509 440.729 111.451V92.2549H440.756V56.373C440.756 51.2811 436.624 47.1521 431.529 47.1521L431.533 47.1483Z" fill="#FFD873"/>
<path d="M279.299 47.1483H279.183C274.088 47.1483 269.957 51.2772 269.957 56.3691V87.0321C268.966 95.8523 261.351 102.72 252.097 102.72C242.385 102.72 234.481 95.1513 234.145 85.6994V84.4592C234.145 84.4592 234.145 84.4207 234.145 84.4014V79.8295C234.191 79.4559 234.218 79.0784 234.218 78.6971V55.7567C234.218 50.6918 230.11 46.5859 225.042 46.5859H224.934C219.866 46.5859 215.758 50.6918 215.758 55.7567V78.6971C215.758 79.0861 215.785 79.4713 215.831 79.8487V84.4052H215.819C215.816 84.6325 215.812 84.8559 215.812 85.0831C215.812 104.696 232.087 120.591 252.167 120.591C259.069 120.591 265.521 118.716 271.016 115.453C272.504 118.504 275.634 120.607 279.256 120.607H279.333C284.394 120.607 288.494 116.509 288.494 111.451V92.2549H288.521V56.373C288.521 51.2811 284.39 47.1521 279.295 47.1521L279.299 47.1483Z" fill="#FFD873"/>
<path d="M204.119 22.0931L206.844 21.939C211.939 21.654 215.839 17.2939 215.554 12.2021L215.535 11.84C215.249 6.74814 210.887 2.85027 205.792 3.13529L204.111 3.22773C201.602 3.14685 198.677 3.58979 198.677 3.58979C168.192 8.04999 168.458 36.9412 168.181 37.8694H168.15V43.4351H156.306C151.2 43.4351 147.064 47.5717 147.064 52.6713V52.7637C147.064 57.8672 151.204 62 156.306 62H168.15V112.102C168.15 116.786 171.95 120.584 176.636 120.584H178.012C182.699 120.584 186.499 116.786 186.499 112.102V62H202.13C207.237 62 211.376 57.8633 211.376 52.7637V52.6713C211.376 47.5679 207.237 43.4351 202.13 43.4351H186.499V37.8694C187.37 25.8947 198.831 22.8557 204.115 22.0854L204.119 22.0931Z" fill="#FFD873"/>
<path d="M133.861 19.4702H88.0367C82.9305 19.4702 78.791 23.6071 78.791 28.7103V28.7989C78.791 33.9021 82.9305 38.039 88.0367 38.039H133.861C138.967 38.039 143.107 33.9021 143.107 28.7989V28.7103C143.107 23.6071 138.967 19.4702 133.861 19.4702Z" fill="#FFD873"/>
<path d="M111.226 45.5264C90.3605 45.5264 73.4414 62.4312 73.4414 83.2879C73.4414 104.145 90.3566 121.049 111.226 121.049C132.095 121.049 149.011 104.145 149.011 83.2879C149.011 62.4312 132.095 45.5264 111.226 45.5264ZM111.226 100.928C101.302 100.928 93.2587 93.0287 93.2587 83.2879C93.2587 73.5471 101.302 65.6435 111.226 65.6435C121.15 65.6435 129.197 73.5432 129.197 83.2879C129.197 93.0326 121.15 100.928 111.226 100.928Z" fill="#FFD873"/>
<path d="M67.076 105.096L36.5562 75.7467C36.5177 75.7082 36.3134 75.5079 36.271 75.4694L57.653 53.646C61.1987 50.0254 61.137 44.221 57.5143 40.6775L57.4719 40.6389C53.8491 37.0954 48.0411 37.1571 44.4955 40.7776L22.3234 63.4137V18.9003C22.3234 13.8353 18.2151 9.72949 13.1471 9.72949C8.07906 9.72949 3.9707 13.8353 3.9707 18.9003V111.421C3.9707 116.486 8.07906 120.591 13.1471 120.591C18.2151 120.591 22.3234 116.486 22.3234 111.421V89.4509C22.3735 89.4162 22.4236 89.3738 22.4737 89.3353V87.4287L50.3844 114.81L54.0457 118.392C57.6684 121.936 63.4764 121.874 67.0221 118.253L67.2109 118.061C70.7566 114.44 70.6949 108.636 67.0722 105.092L67.076 105.096Z" fill="#FFD873"/>
<path d="M363.447 105.481L332.927 76.1315C332.889 76.0929 332.685 75.8927 332.642 75.8541L354.024 54.0307C357.57 50.4102 357.508 44.6057 353.885 41.0622L353.843 41.0237C350.22 37.4802 344.412 37.5418 340.867 41.1624L318.695 63.7985V19.285C318.695 14.2201 314.586 10.1143 309.518 10.1143C304.45 10.1143 300.342 14.2201 300.342 19.285V111.805C300.342 116.87 304.45 120.976 309.518 120.976C314.586 120.976 318.695 116.87 318.695 111.805V89.8356C318.745 89.8009 318.795 89.7586 318.845 89.7201V87.8135L346.755 115.195L350.417 118.777C354.04 122.32 359.848 122.259 363.393 118.638L363.582 118.446C367.128 114.825 367.066 109.021 363.443 105.477L363.447 105.481Z" fill="#FFD873"/>
</g>
<path d="M139.664 33.0384C139.749 33.4225 139.963 33.7212 140.304 33.9346L140.4 34.9908C140.421 35.1615 140.443 35.3429 140.464 35.5349C140.485 35.7056 140.517 35.8763 140.56 36.047V36.5911C140.56 36.7832 140.624 36.9432 140.752 37.0712C140.624 38.6075 140.421 39.8344 140.144 40.752C139.995 41.2214 139.856 41.7228 139.728 42.2563C139.621 42.7897 139.514 43.3445 139.408 43.9206C139.386 44.07 139.333 44.2727 139.248 44.5287C139.184 44.7208 139.152 44.9235 139.152 45.1369C139.109 45.3502 139.098 45.4996 139.12 45.5849C139.141 45.6703 139.13 45.8197 139.088 46.033C138.981 46.3318 138.853 46.6091 138.704 46.8652C138.618 47.0146 138.533 47.1746 138.448 47.3453C138.362 47.4947 138.277 47.6547 138.192 47.8254C137.509 49.063 136.751 50.2366 135.919 51.3461C135.087 52.4557 134.052 53.3092 132.814 53.9066C132.302 54.1413 131.908 54.3441 131.63 54.5148C131.331 54.6855 130.937 54.8241 130.446 54.9308C130.147 55.1015 129.795 55.2829 129.39 55.4749C128.984 55.667 128.59 55.8057 128.206 55.891C128.056 55.9764 127.885 56.0191 127.693 56.0191C127.565 56.0191 127.395 56.0404 127.181 56.0831L126.637 56.3071C126.552 56.3285 126.477 56.3605 126.413 56.4031C126.349 56.4245 126.285 56.4458 126.221 56.4671C125.901 56.5525 125.645 56.5952 125.453 56.5952C125.154 56.5525 124.941 56.3711 124.813 56.0511C124.685 55.731 124.621 55.4003 124.621 55.0589C124.429 54.8668 124.237 54.7175 124.045 54.6108C123.853 54.5041 123.703 54.2694 123.597 53.9066C123.469 53.4372 123.383 53.1811 123.341 53.1385C123.277 53.0745 123.234 53.0104 123.213 52.9464C122.999 52.349 122.924 51.6768 122.988 50.93C123.052 50.1832 123.213 49.5751 123.469 49.1057C123.575 48.8709 123.703 48.7109 123.853 48.6256C124.045 48.5189 124.151 48.3588 124.173 48.1455C124.493 47.9534 124.791 47.7294 125.069 47.4733C125.346 47.2173 125.645 46.9932 125.965 46.8012C126.349 46.1184 126.84 45.5636 127.437 45.1369C127.971 44.7741 128.504 44.3687 129.038 43.9206C129.23 43.7712 129.368 43.6219 129.454 43.4725C129.582 43.2805 129.742 43.1098 129.934 42.9604C130.083 42.811 130.233 42.6937 130.382 42.6083C130.595 42.4803 130.745 42.3843 130.83 42.3203L131.342 41.8082C131.492 41.7228 131.662 41.6801 131.854 41.6801C132.046 41.6801 132.217 41.6375 132.366 41.5521C132.964 41.4668 133.263 41.4988 133.263 41.6481V42.1282C132.878 42.363 132.324 42.5763 131.598 42.7684C131.492 43.1311 131.31 43.3872 131.054 43.5365C130.841 43.6646 130.595 43.8993 130.318 44.2407C130.233 44.3474 130.147 44.454 130.062 44.5607C129.998 44.6461 129.945 44.7421 129.902 44.8488C129.817 45.0195 129.614 45.1582 129.294 45.2649C129.059 45.8197 128.792 46.2571 128.494 46.5771C128.152 46.9399 127.843 47.3133 127.565 47.6974C127.565 48.1668 127.469 48.5615 127.277 48.8816C127.085 49.2017 126.883 49.5324 126.669 49.8738C126.584 50.0445 126.499 50.2152 126.413 50.3859C126.328 50.5566 126.285 50.6846 126.285 50.77C126.306 50.8127 126.328 50.866 126.349 50.93C126.392 50.9727 126.424 51.0367 126.445 51.1221C126.509 51.2928 126.584 51.4315 126.669 51.5381C126.733 51.6235 126.829 51.7302 126.957 51.8582C127.085 51.9862 127.16 52.0929 127.181 52.1783C128.206 51.5381 129.219 50.898 130.222 50.2579C131.225 49.6178 132.089 48.8496 132.814 47.9534C133.028 47.5693 133.231 47.1959 133.423 46.8332C133.615 46.4705 133.817 46.0757 134.031 45.649C134.116 45.2222 134.244 44.8168 134.415 44.4327C134.585 44.0486 134.778 43.6646 134.991 43.2805C135.204 42.8537 135.396 42.427 135.567 42.0002C135.738 41.5735 135.844 41.1254 135.887 40.6559C135.908 40.4852 135.919 40.3145 135.919 40.1438C135.94 39.9518 135.94 39.7491 135.919 39.5357C135.898 39.1516 135.951 38.8422 136.079 38.6075C135.994 38.3728 135.994 38.0848 136.079 37.7434C136.164 37.4446 136.186 37.0926 136.143 36.6871C135.844 36.047 135.546 35.6736 135.247 35.5669C134.948 35.4602 134.628 35.3642 134.287 35.2789C133.945 35.4922 133.583 35.7269 133.199 35.983C132.814 36.239 132.452 36.5164 132.11 36.8152C131.982 36.9432 131.854 37.0712 131.726 37.1992C131.598 37.3273 131.46 37.4553 131.31 37.5833C131.011 37.8394 130.787 38.1381 130.638 38.4795C130.083 39.077 129.635 39.5997 129.294 40.0478C128.952 40.4959 128.611 40.9547 128.27 41.4241C127.608 41.8509 126.947 42.363 126.285 42.9604C125.624 43.5579 124.962 44.07 124.301 44.4967C123.746 44.9235 123.202 45.3609 122.668 45.809C122.135 46.2571 121.634 46.7158 121.164 47.1853C120.951 47.42 120.727 47.644 120.492 47.8574C120.279 48.0708 120.055 48.2842 119.82 48.4975C119.329 48.9243 118.902 49.3617 118.54 49.8098C117.878 50.7273 117.131 51.6875 116.299 52.6904C116.064 52.9251 115.872 53.1598 115.723 53.3945C115.574 53.6506 115.382 53.9066 115.147 54.1627C114.933 54.3761 114.731 54.6108 114.539 54.8668C114.453 54.9948 114.357 55.1229 114.251 55.2509C114.165 55.3576 114.08 55.4643 113.995 55.571C113.909 55.7203 113.803 55.9444 113.675 56.2431C113.547 56.5418 113.44 56.7659 113.355 56.9152C112.928 57.4273 112.512 57.9501 112.106 58.4836C111.701 59.017 111.349 59.6251 111.05 60.3079C110.559 60.9481 110.165 61.6202 109.866 62.3243C109.716 62.6657 109.567 62.9965 109.418 63.3165C109.268 63.6366 109.108 63.9567 108.938 64.2767C108.852 64.8528 108.692 65.3863 108.458 65.8771C108.223 66.3678 108.063 66.9013 107.977 67.4774C107.956 67.6267 107.924 67.7761 107.881 67.9255C107.839 68.0535 107.796 68.1922 107.753 68.3416C107.711 68.4909 107.668 68.6403 107.625 68.7896C107.583 68.939 107.551 69.099 107.529 69.2697C107.444 69.5258 107.401 69.8352 107.401 70.1979C107.401 70.5393 107.359 70.8274 107.273 71.0621C107.017 71.5955 106.889 71.9903 106.889 72.2463C106.889 72.4811 106.783 72.6624 106.569 72.7905C106.697 73.1319 106.815 73.4306 106.921 73.6866C107.028 73.9427 107.188 74.1987 107.401 74.4548C107.508 74.6255 107.636 74.7749 107.785 74.9029C107.935 75.0309 108.063 75.1803 108.169 75.351C108.34 75.7777 108.479 76.0338 108.586 76.1191C108.692 76.2045 108.831 76.3112 109.002 76.4392C109.13 76.5245 109.29 76.6312 109.482 76.7593C109.674 76.8873 109.855 76.9726 110.026 77.0153C110.261 77.1007 110.485 77.1327 110.698 77.1113C110.847 77.09 111.071 77.1007 111.37 77.1433C111.647 77.1433 111.84 77.154 111.946 77.1753C112.053 77.1967 112.245 77.186 112.522 77.1433C112.864 77.058 113.269 76.962 113.739 76.8553C114.208 76.7486 114.635 76.6526 115.019 76.5672C115.616 76.3965 116.203 76.2258 116.779 76.0551C117.355 75.8844 117.899 75.6924 118.412 75.479C118.966 75.2443 119.414 74.9456 119.756 74.5828C120.097 74.2201 120.481 73.9214 120.908 73.6866C121.591 73.1745 122.071 72.7585 122.348 72.4384C122.647 72.1183 122.956 71.8516 123.277 71.6382C123.575 71.2541 123.746 71.0621 123.789 71.0621C123.831 71.0621 123.874 71.0408 123.917 70.9981C124.066 70.8274 124.205 70.6674 124.333 70.518C124.482 70.3686 124.631 70.2193 124.781 70.0699C124.93 69.9205 125.069 69.7712 125.197 69.6218C125.346 69.4725 125.496 69.3124 125.645 69.1417C126.157 68.907 126.541 68.6296 126.797 68.3096C127.16 68.1815 127.448 68.0108 127.661 67.7974C127.768 67.6908 127.885 67.5841 128.013 67.4774C128.142 67.3707 128.27 67.264 128.398 67.1573C128.718 66.9226 128.952 66.7306 129.102 66.5812C129.272 66.4105 129.432 66.2398 129.582 66.0691C129.731 65.8984 129.891 65.7064 130.062 65.493C130.169 65.3863 130.297 65.2903 130.446 65.2049C130.638 65.0769 130.809 64.9169 130.958 64.7248C131.022 64.6395 131.107 64.4688 131.214 64.2127C131.299 63.9993 131.449 63.8927 131.662 63.8927C131.918 63.85 132.196 63.9673 132.494 64.2447C132.793 64.5221 132.942 64.8102 132.942 65.1089C132.537 65.749 132.324 66.1118 132.302 66.1971C131.982 66.6666 131.662 67.072 131.342 67.4134C131.171 67.6054 131.001 67.8081 130.83 68.0215C130.659 68.2349 130.489 68.4589 130.318 68.6936C129.977 69.0777 129.635 69.4725 129.294 69.8779C128.952 70.2833 128.632 70.7207 128.334 71.1901C128.077 71.6169 127.747 72.033 127.341 72.4384C127.171 72.6091 126.989 72.8011 126.797 73.0145C126.605 73.2065 126.413 73.4093 126.221 73.6226C125.73 74.1561 125.186 74.7108 124.589 75.287C124.077 75.7564 123.575 76.3752 123.084 77.1433C122.807 77.4207 122.594 77.6234 122.444 77.7515C122.295 77.8795 122.082 78.0822 121.804 78.3596C121.57 78.4876 121.367 78.6263 121.196 78.7757C121.025 78.925 120.823 79.0637 120.588 79.1918C120.161 79.3411 119.724 79.5225 119.276 79.7359C118.849 79.9279 118.422 80.1413 117.995 80.376C117.078 80.8881 116.107 81.2828 115.083 81.5602C114.848 81.6243 114.603 81.6883 114.347 81.7523C114.112 81.8376 113.877 81.923 113.643 82.0083C113.173 82.1577 112.629 82.2217 112.01 82.2004C111.882 82.1577 111.776 82.1364 111.69 82.1364C111.605 82.1364 111.477 82.115 111.306 82.0723C111.093 82.051 110.826 81.9657 110.506 81.8163C110.186 81.6669 109.876 81.5816 109.578 81.5602C109.364 81.5602 109.172 81.5922 109.002 81.6563C108.852 81.7203 108.66 81.7523 108.426 81.7523C107.487 81.1548 106.729 80.6534 106.153 80.248C105.577 79.8426 105.054 79.3625 104.585 78.8077C104.179 78.1889 103.945 77.8368 103.881 77.7515C103.817 77.6661 103.742 77.5808 103.657 77.4954C103.593 77.4101 103.518 77.314 103.432 77.2074C103.091 76.7166 102.75 76.1405 102.408 75.479C102.408 75.3296 102.355 75.1803 102.248 75.0309C102.184 74.9456 102.088 74.7962 101.96 74.5828C101.747 73.8787 101.64 73.1212 101.64 72.3104C101.64 71.9049 101.64 71.5102 101.64 71.1261C101.661 70.742 101.683 70.358 101.704 69.9739C101.725 69.7605 101.725 69.5578 101.704 69.3658C101.661 69.1097 101.64 68.907 101.64 68.7576C101.64 68.4162 101.704 68.0535 101.832 67.6694C101.896 67.4774 101.95 67.296 101.992 67.1253C102.056 66.9333 102.11 66.7519 102.152 66.5812C102.408 65.6423 102.696 64.7568 103.016 63.9247C103.336 63.0925 103.71 62.3137 104.137 61.5882C104.521 61.0547 104.809 60.564 105.001 60.1159C105.107 59.8812 105.204 59.6465 105.289 59.4117C105.396 59.1557 105.502 58.8996 105.609 58.6436C105.822 58.1742 106.036 57.7154 106.249 57.2673C106.462 56.8192 106.697 56.3605 106.953 55.891C107.167 55.4643 107.391 55.0375 107.625 54.6108C107.86 54.184 108.169 53.7999 108.554 53.4585C108.682 52.9891 108.874 52.5944 109.13 52.2743C109.258 52.1036 109.386 51.9436 109.514 51.7942C109.642 51.6235 109.77 51.4528 109.898 51.2821C110.111 50.9834 110.325 50.6953 110.538 50.4179C110.773 50.1405 110.997 49.8738 111.21 49.6178C111.637 49.1483 112.032 48.5722 112.394 47.8894C112.736 47.6334 113.045 47.356 113.322 47.0572C113.6 46.7585 113.867 46.4598 114.123 46.1611C114.272 45.9904 114.411 45.8303 114.539 45.681C114.688 45.5316 114.837 45.3822 114.987 45.2329C115.136 45.0835 115.275 44.9341 115.403 44.7848C115.552 44.6354 115.702 44.4754 115.851 44.3047C116.022 44.1767 116.182 44.038 116.331 43.8886C116.48 43.7392 116.619 43.6005 116.747 43.4725C117.046 43.1311 117.345 42.8324 117.643 42.5763C117.942 42.3203 118.262 42.0642 118.604 41.8082C118.902 41.6801 119.265 41.4454 119.692 41.104C119.884 40.912 120.076 40.72 120.268 40.5279C120.46 40.3359 120.641 40.1332 120.812 39.9198C120.983 39.7064 121.164 39.5144 121.356 39.3437C121.548 39.1516 121.74 38.9703 121.932 38.7996C122.53 38.2021 123.148 37.6153 123.789 37.0392C124.429 36.4631 125.112 35.9403 125.837 35.4709C126.264 35.0015 126.776 34.6067 127.373 34.2867C127.971 33.9666 128.568 33.6572 129.166 33.3585C129.507 33.2304 129.795 33.1131 130.03 33.0064C130.265 32.8997 130.531 32.761 130.83 32.5903C131.321 32.2916 131.662 32.1315 131.854 32.1102C132.068 32.0889 132.238 31.9929 132.366 31.8222C132.9 31.8222 133.348 31.7475 133.711 31.5981C134.073 31.4487 134.5 31.4381 134.991 31.5661C135.14 31.5874 135.29 31.6408 135.439 31.7261C135.61 31.8115 135.738 31.8648 135.823 31.8862C136.634 31.9715 137.21 32.0995 137.551 32.2702C137.893 32.4409 138.224 32.601 138.544 32.7503C138.864 32.8997 139.237 32.9957 139.664 33.0384ZM150.866 79.5758L150.482 78.1675C150.226 77.6341 150.183 76.8019 150.354 75.671L150.578 74.5508C150.621 74.4015 150.653 74.2094 150.674 73.9747C150.717 73.74 150.759 73.4519 150.802 73.1105C150.845 72.7905 150.887 72.4704 150.93 72.1503C150.994 71.8089 151.069 71.4675 151.154 71.1261C151.24 70.7847 151.304 70.4433 151.346 70.1019C151.41 69.7605 151.464 69.4191 151.506 69.0777C151.186 69.5685 150.877 70.0699 150.578 70.582C150.279 71.0941 149.991 71.6276 149.714 72.1823C149.18 73.2279 148.519 74.1347 147.729 74.9029C147.559 75.415 147.345 75.7457 147.089 75.8951C146.833 76.0231 146.577 76.1511 146.321 76.2792C146.065 76.4072 145.852 76.7166 145.681 77.2074C145.468 77.4207 145.265 77.6448 145.073 77.8795C144.881 78.1142 144.742 78.4023 144.657 78.7437C144.443 78.829 144.23 78.9997 144.017 79.2558C143.611 79.6612 143.355 79.8746 143.249 79.8959C143.142 79.9172 143.035 79.9813 142.929 80.0879C142.502 80.4293 142.128 80.6854 141.808 80.8561C141.488 81.0268 141.115 81.1335 140.688 81.1762C140.219 81.2615 139.61 81.3255 138.864 81.3682C138.501 81.3895 138.17 81.4109 137.871 81.4322C137.573 81.4535 137.317 81.4749 137.103 81.4962C136.826 81.2828 136.613 81.1548 136.463 81.1121C136.399 81.0908 136.303 81.0588 136.175 81.0161C136.068 80.9735 135.93 80.9201 135.759 80.8561C135.14 80.6 134.842 80.4827 134.863 80.504C134.842 80.4827 134.81 80.4613 134.767 80.44C134.703 80.4187 134.628 80.3867 134.543 80.344C134.201 80.0879 133.967 79.8852 133.839 79.7359C133.753 79.6292 133.604 79.4691 133.391 79.2558C132.686 78.1675 132.281 76.7593 132.174 75.0309C132.132 74.4335 132.238 73.836 132.494 73.2385C132.75 72.6411 132.985 72.1077 133.199 71.6382C133.455 71.1048 133.732 70.614 134.031 70.1659C134.201 69.9099 134.361 69.6645 134.511 69.4298C134.639 69.1951 134.756 68.971 134.863 68.7576C135.119 68.2455 135.162 67.9148 134.991 67.7654C134.842 67.5947 134.884 67.264 135.119 66.7732C135.226 66.4318 135.354 66.1331 135.503 65.8771L136.079 64.8528C136.463 64.17 136.869 63.5619 137.295 63.0285C137.679 62.5591 138 61.9296 138.256 61.1401C138.469 60.5426 138.757 60.0839 139.12 59.7638C139.482 59.4438 139.92 59.1557 140.432 58.8996C140.645 58.985 140.955 58.953 141.36 58.8036C141.766 58.6543 142.075 58.4942 142.288 58.3235C142.587 58.3235 142.822 58.2382 142.993 58.0675C143.462 57.9821 143.707 57.9821 143.729 58.0675C143.75 58.1528 143.803 58.1955 143.889 58.1955C143.974 58.2168 144.091 58.2168 144.241 58.1955C144.39 58.1742 144.507 58.1742 144.593 58.1955C144.742 58.6436 144.849 58.921 144.913 59.0277C144.998 59.1344 145.041 59.241 145.041 59.3477C145.041 59.4758 145.03 59.6465 145.009 59.8598C144.988 60.0732 144.956 60.2226 144.913 60.3079C144.678 60.628 144.539 60.8307 144.497 60.9161L144.401 61.1401C144.273 61.3108 144.123 61.5135 143.953 61.7482C143.803 61.9616 143.633 62.2176 143.441 62.5164L142.416 64.0207C142.182 64.3834 141.968 64.6181 141.776 64.7248C141.542 64.8528 141.35 65.0876 141.2 65.429C141.115 65.5783 141.051 65.7384 141.008 65.9091C140.987 66.0584 140.923 66.2185 140.816 66.3892C140.325 67.4134 139.771 68.4482 139.152 69.4938C138.832 70.0272 138.522 70.5607 138.224 71.0941C137.946 71.6062 137.679 72.1077 137.423 72.5984C137.402 72.7691 137.37 72.9398 137.327 73.1105C137.285 73.2599 137.242 73.4199 137.199 73.5906C137.093 73.9534 137.039 74.2628 137.039 74.5188C137.039 74.5828 137.018 74.9136 136.975 75.511C136.933 76.1085 136.954 76.4605 137.039 76.5672C137.295 76.93 137.445 77.09 137.487 77.0473C137.53 77.0046 137.573 77.0153 137.615 77.0793C137.786 77.5061 137.903 77.7515 137.967 77.8155C138.032 77.8795 138.17 77.9542 138.384 78.0395C138.554 78.0822 138.8 78.0502 139.12 77.9435C139.44 77.8368 139.685 77.7408 139.856 77.6554C140.368 77.3994 140.752 77.1327 141.008 76.8553C141.264 76.5779 141.52 76.2898 141.776 75.9911C142.416 75.223 143.099 74.3268 143.825 73.3026C144.55 72.2784 145.233 71.3822 145.873 70.614C146.108 70.1019 146.417 69.5898 146.801 69.0777C147.207 68.5229 147.516 68.0322 147.729 67.6054L148.626 65.8771C148.754 65.6423 148.892 65.3863 149.042 65.1089C149.191 64.8315 149.351 64.5328 149.522 64.2127C149.778 63.85 150.045 63.5192 150.322 63.2205C150.599 62.9218 150.802 62.4844 150.93 61.9083C151.037 61.6095 151.197 61.3215 151.41 61.0441C151.517 60.8947 151.613 60.7667 151.698 60.66C151.805 60.532 151.89 60.4146 151.954 60.3079C152.274 60.0092 152.477 59.7745 152.562 59.6038C152.648 59.4331 152.787 59.2837 152.979 59.1557C153.448 59.0277 153.811 58.9316 154.067 58.8676C154.323 58.8036 154.643 58.8143 155.027 58.8996C155.368 58.6863 155.731 58.5796 156.115 58.5796C156.307 58.5796 156.489 58.5902 156.659 58.6116C156.851 58.6116 157.033 58.6223 157.203 58.6436C157.203 58.857 157.257 58.9957 157.363 59.0597C157.47 59.1237 157.523 59.241 157.523 59.4117C157.694 59.7958 157.694 60.2653 157.523 60.82C157.331 61.4388 157.225 61.9936 157.203 62.4844C157.097 62.9325 156.937 63.3272 156.723 63.6686C156.489 64.0527 156.307 64.4688 156.179 64.9169C156.094 65.2369 156.019 65.493 155.955 65.685C155.912 65.8771 155.88 66.0051 155.859 66.0691L155.667 66.7732C155.582 67.1573 155.496 67.5307 155.411 67.8935C155.326 68.2349 155.24 68.5763 155.155 68.9177C154.984 69.6005 154.856 70.358 154.771 71.1901C154.771 71.4035 154.739 71.6276 154.675 71.8623C154.611 72.0756 154.579 72.2784 154.579 72.4704C154.579 72.6838 154.59 72.9398 154.611 73.2385C154.632 73.5373 154.75 73.7293 154.963 73.8147C155.198 73.9 155.4 73.8787 155.571 73.7507C155.784 73.58 156.008 73.4306 156.243 73.3026C156.393 73.1959 156.606 73.0038 156.883 72.7264C157.161 72.4491 157.374 72.257 157.523 72.1503C157.737 71.937 157.972 71.7663 158.228 71.6382C158.484 71.5102 158.718 71.3395 158.932 71.1261C159.273 70.8274 159.604 70.5287 159.924 70.2299C160.265 69.9099 160.585 69.5898 160.884 69.2697C161.524 68.6083 162.196 68.0748 162.901 67.6694C163.583 66.9439 164.277 66.2718 164.981 65.653C165.685 65.0342 166.485 64.5114 167.381 64.0847C167.723 64.6395 167.808 65.0982 167.638 65.461C167.467 65.8237 167.253 66.1758 166.997 66.5172C166.891 66.6239 166.741 66.7306 166.549 66.8373C166.315 66.9653 166.144 67.072 166.037 67.1573L165.717 67.4774C165.589 67.6054 165.482 67.6694 165.397 67.6694C165.397 67.8401 165.344 67.9788 165.237 68.0855L164.949 68.3736C164.672 68.8003 164.373 69.2057 164.053 69.5898C163.754 69.9525 163.434 70.3046 163.093 70.646C162.751 70.9874 162.41 71.3288 162.068 71.6702C161.748 71.9903 161.428 72.321 161.108 72.6624C160.809 72.7691 160.628 72.9078 160.564 73.0785C160.5 73.2919 160.361 73.4733 160.148 73.6226C160.063 73.7293 159.977 73.8253 159.892 73.9107C159.807 73.996 159.721 74.0814 159.636 74.1667C159.551 74.2521 159.465 74.3374 159.38 74.4228C159.294 74.5081 159.209 74.6042 159.124 74.7108C158.868 74.9882 158.644 75.2763 158.452 75.575C158.26 75.8524 157.993 76.1191 157.651 76.3752C157.438 76.5886 157.278 76.8126 157.171 77.0473C157.086 77.2607 156.926 77.4847 156.691 77.7195C156.35 78.0609 156.105 78.2209 155.955 78.1996C155.827 78.1782 155.71 78.3809 155.603 78.8077C155.262 79.0637 155.07 79.2451 155.027 79.3518C155.006 79.4371 154.942 79.4691 154.835 79.4478C154.728 79.4905 154.579 79.5225 154.387 79.5438C154.173 79.5652 154.067 79.6185 154.067 79.7039C153.789 79.8319 153.565 79.9599 153.395 80.0879C153.224 80.2373 153.021 80.3227 152.787 80.344C152.232 80.4293 151.837 80.3973 151.602 80.248C151.368 80.0986 151.122 79.8746 150.866 79.5758ZM183.769 64.9169C184.196 65.0236 184.505 65.1729 184.697 65.365C184.846 65.5143 184.921 65.685 184.921 65.8771C184.58 66.3465 184.377 66.6559 184.313 66.8052C184.249 66.9546 184.11 67.072 183.897 67.1573C183.619 67.5841 183.321 67.9895 183.001 68.3736C182.702 68.7363 182.371 69.0884 182.008 69.4298C181.347 70.0699 180.696 70.8061 180.056 71.6382C179.779 71.9156 179.587 72.129 179.48 72.2784C179.373 72.4277 179.181 72.6411 178.904 72.9185C178.392 73.2812 177.965 73.6546 177.624 74.0387C177.432 74.2521 177.229 74.4548 177.015 74.6468C176.823 74.8175 176.621 74.9882 176.407 75.1589C176.301 75.2443 176.194 75.3296 176.087 75.415C176.002 75.479 175.906 75.5537 175.799 75.639C175.714 75.7244 175.618 75.8097 175.511 75.8951C175.404 75.9804 175.298 76.0765 175.191 76.1831C175.02 76.3538 174.828 76.5245 174.615 76.6953C174.53 76.7593 174.434 76.8339 174.327 76.9193C174.242 76.9833 174.146 77.058 174.039 77.1433C173.783 77.4421 173.527 77.7408 173.271 78.0395C173.015 78.3383 172.759 78.6583 172.503 78.9997C172.054 79.2131 171.628 79.4691 171.222 79.7679C170.838 80.0453 170.39 80.3013 169.878 80.536C169.665 80.6641 169.462 80.8668 169.27 81.1442C169.099 81.4002 168.854 81.5816 168.534 81.6883C168.192 81.8163 167.83 81.8483 167.445 81.7843C167.061 81.7203 166.741 81.6243 166.485 81.4962C166.208 81.3042 166.037 81.1975 165.973 81.1762C165.802 81.1335 165.696 81.1121 165.653 81.1121C165.248 80.536 164.97 79.9279 164.821 79.2878C164.736 78.9464 164.64 78.605 164.533 78.2636C164.448 77.9222 164.352 77.5701 164.245 77.2074C164.159 76.994 164.095 76.7699 164.053 76.5352C164.01 76.3005 163.967 76.0338 163.925 75.7351L163.829 75.223C163.807 75.1376 163.786 75.0523 163.765 74.9669C163.743 74.8602 163.711 74.7535 163.669 74.6468C163.583 74.4335 163.498 74.2094 163.413 73.9747C163.327 73.74 163.263 73.4946 163.221 73.2385C163.135 72.7264 163.103 72.225 163.125 71.7342C163.146 71.2435 163.199 70.7634 163.285 70.294C163.541 68.8857 163.914 67.5414 164.405 66.2611C164.896 64.9809 165.397 63.7646 165.909 62.6124C166.016 62.079 166.133 61.6735 166.261 61.3961C166.389 61.1188 166.528 60.7347 166.677 60.2439C166.869 60.0092 167.019 59.6678 167.125 59.2197C167.168 59.0277 167.211 58.8356 167.253 58.6436C167.317 58.4516 167.381 58.2595 167.445 58.0675C167.509 57.8968 167.584 57.7261 167.67 57.5554C167.755 57.3633 167.84 57.1606 167.926 56.9472C168.096 56.5632 168.235 56.1684 168.342 55.763C168.491 55.2722 168.608 54.8455 168.694 54.4827C168.736 54.2694 168.79 54.0667 168.854 53.8746C168.939 53.6826 169.024 53.5012 169.11 53.3305C169.281 52.8824 169.441 52.445 169.59 52.0182C169.761 51.5915 169.921 51.1754 170.07 50.77C170.219 50.3646 170.369 49.9592 170.518 49.5537C170.689 49.1483 170.86 48.7429 171.03 48.3375C171.073 48.2095 171.116 48.0814 171.158 47.9534C171.201 47.8254 171.244 47.6974 171.286 47.5693C171.372 47.3346 171.5 47.0999 171.67 46.8652C171.777 46.5665 171.884 46.3424 171.99 46.1931C172.161 45.937 172.289 45.7343 172.374 45.5849C172.374 45.3502 172.449 45.1902 172.599 45.1048C172.705 45.0408 172.823 44.9021 172.951 44.6888C173.185 44.326 173.345 43.9846 173.431 43.6646C173.516 43.3445 173.676 43.0031 173.911 42.6403L174.679 41.6801C174.722 41.5948 174.764 41.5094 174.807 41.4241C174.85 41.3387 174.892 41.2534 174.935 41.168C175.042 40.9973 175.17 40.848 175.319 40.72C175.81 39.9518 176.322 39.1836 176.855 38.4155L178.584 35.983C178.968 35.3855 179.395 34.8201 179.864 34.2867C180.333 33.7532 180.824 33.2304 181.336 32.7183C181.507 32.505 181.71 32.2702 181.944 32.0142C182.179 31.7581 182.425 31.6088 182.681 31.5661C183.086 31.5234 183.513 31.5661 183.961 31.6941C184.089 31.9075 184.206 32.1315 184.313 32.3663C184.42 32.601 184.516 32.8677 184.601 33.1664C184.686 34.4894 184.644 35.7696 184.473 37.0072C184.302 38.2448 184.11 39.461 183.897 40.6559C183.854 40.9333 183.843 41.136 183.865 41.2641C183.886 41.3921 183.875 41.5948 183.833 41.8722C183.747 42.1282 183.641 42.459 183.513 42.8644C183.385 43.2698 183.278 43.6432 183.193 43.9846C183.193 44.5607 183.065 45.0942 182.809 45.5849C182.553 46.0544 182.382 46.5238 182.296 46.9932C182.168 47.0786 182.094 47.2173 182.072 47.4093C182.051 47.6014 181.976 47.74 181.848 47.8254C181.742 48.3162 181.603 48.7429 181.432 49.1057C181.24 49.4897 181.08 49.8738 180.952 50.2579C180.632 50.706 180.312 51.1434 179.992 51.5702C179.672 51.9969 179.341 52.4237 179 52.8504C178.658 53.2558 178.328 53.6826 178.008 54.1307C177.709 54.5574 177.41 54.9948 177.111 55.4429C176.365 56.5738 175.586 57.6407 174.775 58.6436C173.964 59.6465 173.185 60.7133 172.438 61.8442C171.841 62.3777 171.372 62.9111 171.03 63.4446C170.667 64.0207 170.177 64.5541 169.558 65.0449C169.451 65.4716 169.345 65.9197 169.238 66.3892C169.152 66.8586 169.056 67.3387 168.95 67.8295C168.864 68.3202 168.768 68.8217 168.662 69.3338C168.555 69.8459 168.448 70.358 168.342 70.8701C168.32 71.1475 168.256 71.4355 168.15 71.7342C168.107 71.8836 168.064 72.033 168.022 72.1823C167.979 72.3104 167.936 72.4491 167.894 72.5984C167.808 72.8971 167.787 73.2599 167.83 73.6866C167.851 74.0707 167.787 74.4335 167.638 74.7749C167.702 74.9456 167.755 75.1909 167.798 75.511C167.819 75.7884 167.894 76.0338 168.022 76.2472C168.256 76.6312 168.512 76.8233 168.79 76.8233C169.11 76.6526 169.281 76.5779 169.302 76.5992C169.323 76.6206 169.387 76.6099 169.494 76.5672C169.707 76.4392 169.921 76.2685 170.134 76.0551C170.347 75.8417 170.539 75.6497 170.71 75.479C170.945 75.3723 171.105 75.2763 171.19 75.1909C171.254 75.1269 171.372 75.0309 171.542 74.9029C171.67 74.8175 171.788 74.7535 171.894 74.7108C172.001 74.6682 172.097 74.6042 172.182 74.5188C172.801 73.8787 173.377 73.3986 173.911 73.0785C174.466 72.7585 174.914 72.3637 175.255 71.8943L176.407 71.1901C176.642 71.0621 176.866 70.8807 177.079 70.646C177.271 70.4113 177.517 70.2299 177.816 70.1019C177.944 69.9312 178.029 69.8245 178.072 69.7818C178.114 69.7392 178.2 69.6325 178.328 69.4618C178.584 69.2911 178.84 69.1204 179.096 68.9497C179.352 68.779 179.597 68.6083 179.832 68.4376C180.067 68.2669 180.312 68.0962 180.568 67.9255C180.846 67.7548 181.123 67.5841 181.4 67.4134C181.486 67.2 181.624 67.0293 181.816 66.9013C182.008 66.7732 182.168 66.6452 182.296 66.5172C182.425 66.3892 182.531 66.2505 182.617 66.1011C182.723 65.9304 182.873 65.8344 183.065 65.813C183.086 65.621 183.182 65.4716 183.353 65.365C183.523 65.2583 183.662 65.1089 183.769 64.9169ZM180.312 41.04H180.248C179.864 41.1254 179.597 41.3174 179.448 41.6161C179.299 41.9149 179.16 42.2563 179.032 42.6403C178.946 42.811 178.861 42.9604 178.776 43.0884C178.712 43.2165 178.658 43.3231 178.616 43.4085C178.53 43.5579 178.498 43.8139 178.52 44.1767C177.858 45.2649 177.229 46.3851 176.631 47.5373C176.034 48.6682 175.458 49.8311 174.903 51.026C174.37 52.221 173.825 53.4265 173.271 54.6428C172.716 55.8377 172.161 57.0433 171.606 58.2595C172.481 57.3847 173.281 56.3605 174.007 55.1869C174.37 54.5894 174.743 54.0347 175.127 53.5226C175.532 53.0104 175.938 52.541 176.343 52.1143C176.642 51.3888 176.951 50.6846 177.271 50.0018C177.613 49.319 177.965 48.6682 178.328 48.0494C179.032 46.8545 179.587 45.4356 179.992 43.7926C179.821 43.2591 179.843 42.8004 180.056 42.4163C180.269 42.0322 180.355 41.5735 180.312 41.04ZM199.836 44.6888C200.775 44.8381 201.586 44.9341 202.269 44.9768C202.973 45.0195 203.741 44.9661 204.573 44.8168L207.102 44.4647C207.784 44.3794 208.606 44.2833 209.566 44.1767C209.822 44.1553 210.089 44.1553 210.366 44.1767C210.516 44.198 210.654 44.2193 210.782 44.2407C210.91 44.2407 211.038 44.2407 211.166 44.2407C211.721 44.2407 212.265 44.2193 212.799 44.1767C213.332 44.134 213.834 44.0913 214.303 44.0486C214.388 44.0273 214.463 44.006 214.527 43.9846C214.612 43.9633 214.687 43.9419 214.751 43.9206C214.879 43.8779 215.007 43.8779 215.135 43.9206C215.327 43.9206 215.519 43.9206 215.711 43.9206C215.903 43.9206 216.095 43.9099 216.287 43.8886C216.671 43.8673 217.013 44.006 217.312 44.3047C217.44 44.7314 217.482 44.9661 217.44 45.0088C217.376 45.0728 217.333 45.1369 217.312 45.2009C217.269 45.7556 217.194 46.033 217.088 46.033C216.981 46.033 216.928 46.0757 216.928 46.1611C216.586 46.2464 216.298 46.3211 216.063 46.3851C215.829 46.4491 215.647 46.5878 215.519 46.8012C214.794 46.9506 214.122 46.9826 213.503 46.8972C212.884 46.7905 212.255 46.8865 211.614 47.1853C211.294 47.3346 210.985 47.4947 210.686 47.6654C210.388 47.8574 209.993 47.8681 209.502 47.6974C209.075 47.6974 208.584 47.7187 208.03 47.7614C207.475 47.8041 206.941 47.8467 206.429 47.8894C205.704 47.9534 204.882 48.0281 203.965 48.1135C203.069 48.1775 202.375 48.2201 201.884 48.2415C201.415 48.2628 200.743 48.2948 199.868 48.3375C198.993 48.3802 198.214 48.4015 197.532 48.4015C197.19 48.6789 196.966 49.0416 196.859 49.4897C196.753 49.9165 196.529 50.2579 196.187 50.5139C195.803 51.3674 195.526 51.9116 195.355 52.1463C195.163 52.4023 195.014 52.7331 194.907 53.1385C194.31 53.9066 193.765 54.7068 193.275 55.539C192.827 56.3071 192.261 57.0859 191.578 57.8754C191.493 58.3449 191.333 58.7609 191.098 59.1237C190.885 59.4651 190.725 59.9452 190.618 60.564C190.17 61.1614 189.829 61.8656 189.594 62.6764C189.487 63.0605 189.359 63.4552 189.21 63.8606C189.082 64.2661 188.933 64.6821 188.762 65.1089C188.676 65.4503 188.58 65.781 188.474 66.1011C188.367 66.4212 188.25 66.7519 188.122 67.0933C187.972 67.4774 187.77 67.8721 187.514 68.2775C187.407 68.4482 187.29 68.6403 187.161 68.8537C187.055 69.0457 186.948 69.2484 186.841 69.4618C186.756 69.5471 186.713 69.6645 186.713 69.8139C186.713 69.9205 186.692 70.0379 186.649 70.1659C186.585 70.3153 186.521 70.4647 186.457 70.614C186.393 70.742 186.329 70.8594 186.265 70.9661C186.18 71.1155 186.073 71.3395 185.945 71.6382C185.881 71.7876 185.828 72.0116 185.785 72.3104C185.743 72.6091 185.689 72.8331 185.625 72.9825C185.604 73.0465 185.582 73.1105 185.561 73.1745C185.54 73.2385 185.518 73.2919 185.497 73.3346C185.476 73.3772 185.454 73.4306 185.433 73.4946C185.412 73.5586 185.39 73.6226 185.369 73.6866C185.241 74.2841 185.241 74.6895 185.369 74.9029C185.497 75.1163 185.604 75.3296 185.689 75.543C185.732 75.671 185.775 75.7884 185.817 75.8951C185.86 76.0018 185.903 76.1085 185.945 76.2152C186.052 76.4072 186.116 76.6099 186.137 76.8233C186.244 76.866 186.351 76.9086 186.457 76.9513C186.564 76.994 186.66 77.0367 186.745 77.0793C186.916 77.1647 187.119 77.2074 187.354 77.2074C187.631 77.25 187.908 77.1327 188.186 76.8553C188.484 76.5566 188.74 76.3965 188.954 76.3752C189.21 76.2898 189.498 76.2472 189.818 76.2472C190.095 76.2472 190.341 76.1831 190.554 76.0551C190.682 75.9484 190.8 75.8417 190.906 75.7351C191.013 75.6284 191.109 75.5217 191.194 75.415C191.322 75.223 191.557 75.0736 191.898 74.9669C192.581 74.7962 192.944 74.6575 192.987 74.5508C193.008 74.4655 193.157 74.3054 193.435 74.0707C193.584 73.964 193.723 73.8573 193.851 73.7507C194 73.644 194.128 73.5479 194.235 73.4626C194.406 73.3132 194.694 73.1105 195.099 72.8545C195.526 72.6411 195.771 72.5131 195.835 72.4704C195.899 72.4277 196.081 72.2784 196.379 72.0223C196.593 71.9156 196.785 71.8089 196.955 71.7022C197.148 71.5742 197.318 71.4462 197.468 71.3182C197.702 71.1048 198.044 70.8701 198.492 70.614C199.004 70.4006 199.281 70.2726 199.324 70.2299C199.388 70.1659 199.431 70.0912 199.452 70.0059C199.473 69.9205 199.708 69.7392 200.156 69.4618C200.305 69.1417 200.498 68.8643 200.732 68.6296C200.839 68.5229 200.956 68.4056 201.084 68.2775C201.212 68.1282 201.351 67.9681 201.5 67.7974C201.778 67.4774 202.044 67.2213 202.301 67.0293C202.599 66.7946 202.845 66.5812 203.037 66.3892C203.122 66.3251 203.229 66.2291 203.357 66.1011C203.485 65.9731 203.634 65.8984 203.805 65.8771C203.933 65.7704 204.04 65.6743 204.125 65.589C204.232 65.5036 204.328 65.4183 204.413 65.3329C204.498 65.2476 204.594 65.1516 204.701 65.0449C204.829 64.9382 204.978 64.8102 205.149 64.6608L205.469 64.3407C205.619 64.1914 205.725 64.106 205.789 64.0847C205.981 64.0847 206.12 64.1487 206.205 64.2767C206.312 64.4048 206.451 64.4688 206.621 64.4688C206.6 64.7462 206.579 64.9702 206.557 65.1409C206.557 65.3116 206.557 65.4396 206.557 65.525C206.557 65.6957 206.515 65.8557 206.429 66.0051C206.173 66.4105 205.885 66.6239 205.565 66.6452C205.245 66.6879 205 66.9226 204.829 67.3494C204.701 67.264 204.541 67.2427 204.349 67.2853C204.157 67.328 204.018 67.392 203.933 67.4774C204.018 67.6267 204.061 67.7761 204.061 67.9255C204.061 68.0108 204.082 68.1602 204.125 68.3736C203.335 69.1631 202.823 69.7818 202.589 70.2299C202.055 70.7847 201.778 71.0941 201.756 71.1581L201.692 71.2541L201.18 71.7663C200.583 72.2357 200.135 72.6838 199.836 73.1105C199.559 73.5159 199.111 73.9 198.492 74.2628C198.022 74.6042 197.702 74.8602 197.532 75.0309C197.446 75.1163 197.34 75.223 197.212 75.351C197.083 75.4577 196.934 75.5857 196.763 75.7351C196.657 75.8417 196.497 76.0231 196.283 76.2792C196.07 76.5352 195.889 76.7166 195.739 76.8233C195.462 77.0367 195.174 77.2287 194.875 77.3994C194.64 77.5274 194.395 77.7408 194.139 78.0395C193.52 78.3169 193.061 78.6583 192.763 79.0637C192.485 79.4265 192.069 79.7892 191.514 80.152C191.13 80.408 190.608 80.7281 189.946 81.1121C189.285 81.4962 188.719 81.7736 188.25 81.9443C188.186 81.9657 188.122 81.987 188.058 82.0083C187.994 82.0297 187.94 82.051 187.898 82.0723C187.855 82.0937 187.802 82.115 187.738 82.1364C187.674 82.1577 187.61 82.179 187.546 82.2004C187.204 81.987 186.873 81.7736 186.553 81.5602C186.233 81.3469 185.967 81.0481 185.753 80.6641C185.348 80.3653 185.038 80.152 184.825 80.0239C184.569 79.8746 184.345 79.7039 184.153 79.5118C183.939 79.1491 183.715 78.7863 183.481 78.4236C183.246 78.0609 182.99 77.6981 182.713 77.3354C182.158 76.5886 181.742 75.7777 181.464 74.9029C181.4 74.7962 181.347 74.6148 181.304 74.3588L181.208 73.7507C181.166 73.58 181.123 73.4199 181.08 73.2706C181.038 73.1212 180.995 72.9825 180.952 72.8545C180.867 72.6411 180.846 72.321 180.888 71.8943C180.888 71.5955 180.931 71.3182 181.016 71.0621C181.059 70.9127 181.102 70.7634 181.144 70.614C181.187 70.4433 181.23 70.2726 181.272 70.1019C181.358 69.8245 181.454 69.5578 181.56 69.3018C181.667 69.0244 181.774 68.7576 181.88 68.5016C182.136 67.9255 182.318 67.3707 182.425 66.8373C182.681 65.9411 182.958 65.0876 183.257 64.2767C183.321 64.1274 183.374 63.9247 183.417 63.6686C183.438 63.4766 183.555 63.3379 183.769 63.2525C183.939 62.399 184.217 61.5775 184.601 60.788C184.985 59.9985 185.369 59.241 185.753 58.5156C185.988 58.0675 186.212 57.6194 186.425 57.1713C186.639 56.7019 186.852 56.2324 187.065 55.763C187.279 55.2936 187.492 54.8348 187.706 54.3867C187.919 53.9173 188.143 53.4585 188.378 53.0104C188.399 52.541 188.57 52.1143 188.89 51.7302C188.911 51.3034 189.082 50.8447 189.402 50.3539C189.722 49.8631 189.935 49.4044 190.042 48.9776C189.573 48.8496 189.05 48.8389 188.474 48.9456C187.898 49.0523 187.396 49.1483 186.969 49.2337C186.201 49.255 185.39 49.255 184.537 49.2337C184.388 49.2123 184.238 49.191 184.089 49.1697C183.961 49.127 183.822 49.095 183.673 49.0736C183.395 49.0096 183.129 48.9776 182.873 48.9776C182.489 48.999 182.2 48.967 182.008 48.8816C181.795 48.7749 181.592 48.7643 181.4 48.8496C180.803 48.3375 180.195 47.8894 179.576 47.5053C178.936 47.1213 178.52 46.6305 178.328 46.033C178.328 45.905 178.392 45.7983 178.52 45.713C178.69 45.5849 178.797 45.4996 178.84 45.4569C179.203 45.3502 179.587 45.3182 179.992 45.3609C180.397 45.3822 180.739 45.3076 181.016 45.1369C181.635 45.2222 182.264 45.1795 182.905 45.0088C183.481 44.8381 184.089 44.7741 184.729 44.8168C184.814 44.8168 184.942 44.8381 185.113 44.8808C185.284 44.9235 185.412 44.9448 185.497 44.9448C185.711 44.9661 185.892 44.9661 186.041 44.9448C186.127 44.9235 186.212 44.9021 186.297 44.8808C186.383 44.8595 186.479 44.8381 186.585 44.8168C186.841 44.7741 187.119 44.7741 187.418 44.8168C187.716 44.8595 188.015 44.8595 188.314 44.8168C188.933 44.7741 189.605 44.8275 190.33 44.9768C191.12 45.1262 191.813 45.0942 192.411 44.8808C192.517 44.5821 192.624 44.2833 192.731 43.9846C192.859 43.6646 192.997 43.3552 193.147 43.0564C193.445 42.4376 193.669 41.8295 193.819 41.2321C193.99 40.976 194.16 40.6879 194.331 40.3679C194.502 40.0478 194.63 39.7384 194.715 39.4397L195.323 38.4155C195.408 38.2875 195.494 38.1594 195.579 38.0314C195.665 37.9034 195.761 37.7754 195.867 37.6473C196.166 37.0285 196.39 36.4418 196.539 35.887C196.625 35.5882 196.71 35.2895 196.795 34.9908C196.902 34.6707 197.019 34.34 197.148 33.9986C197.425 33.6999 197.702 33.3691 197.98 33.0064C198.257 32.6437 198.534 32.2489 198.812 31.8222C199.132 31.8648 199.377 31.7795 199.548 31.5661C199.74 31.3527 200.028 31.3741 200.412 31.6301C200.412 31.7581 200.466 31.8755 200.572 31.9822C200.679 32.0889 200.69 32.2489 200.604 32.4623C201.031 32.889 201.308 33.2731 201.436 33.6145C201.522 33.9559 201.49 34.3507 201.34 34.7988C201.191 35.2468 201.223 35.6629 201.436 36.047C201.522 36.239 201.543 36.4418 201.5 36.6551C201.458 36.8898 201.479 37.0712 201.564 37.1992C201.671 37.434 201.788 37.6473 201.916 37.8394C202.066 38.0527 202.141 38.3301 202.141 38.6715C202.141 38.7996 202.109 38.9596 202.044 39.1516C201.98 39.3437 201.906 39.5464 201.82 39.7598C201.671 40.3999 201.543 40.848 201.436 41.104C201.394 41.2321 201.351 41.3708 201.308 41.5201C201.266 41.6481 201.223 41.7868 201.18 41.9362C200.882 42.2989 200.732 42.523 200.732 42.6083C200.732 42.6724 200.711 42.7684 200.668 42.8964C200.604 43.0244 200.54 43.1738 200.476 43.3445C200.412 43.4939 200.337 43.6539 200.252 43.8246C200.167 43.9953 200.092 44.1553 200.028 44.3047C199.964 44.454 199.9 44.5821 199.836 44.6888ZM215.839 79.5758L215.455 78.1675C215.199 77.6341 215.156 76.8019 215.327 75.671L215.551 74.5508C215.594 74.4015 215.626 74.2094 215.647 73.9747C215.69 73.74 215.733 73.4519 215.775 73.1105C215.818 72.7905 215.861 72.4704 215.903 72.1503C215.967 71.8089 216.042 71.4675 216.127 71.1261C216.213 70.7847 216.277 70.4433 216.319 70.1019C216.383 69.7605 216.437 69.4191 216.479 69.0777C216.159 69.5685 215.85 70.0699 215.551 70.582C215.253 71.0941 214.964 71.6276 214.687 72.1823C214.154 73.2279 213.492 74.1347 212.703 74.9029C212.532 75.415 212.319 75.7457 212.063 75.8951C211.806 76.0231 211.55 76.1511 211.294 76.2792C211.038 76.4072 210.825 76.7166 210.654 77.2074C210.441 77.4207 210.238 77.6448 210.046 77.8795C209.854 78.1142 209.715 78.4023 209.63 78.7437C209.417 78.829 209.203 78.9997 208.99 79.2558C208.584 79.6612 208.328 79.8746 208.222 79.8959C208.115 79.9172 208.008 79.9813 207.902 80.0879C207.475 80.4293 207.102 80.6854 206.781 80.8561C206.461 81.0268 206.088 81.1335 205.661 81.1762C205.192 81.2615 204.584 81.3255 203.837 81.3682C203.474 81.3895 203.143 81.4109 202.845 81.4322C202.546 81.4535 202.29 81.4749 202.077 81.4962C201.799 81.2828 201.586 81.1548 201.436 81.1121C201.372 81.0908 201.276 81.0588 201.148 81.0161C201.042 80.9735 200.903 80.9201 200.732 80.8561C200.113 80.6 199.815 80.4827 199.836 80.504C199.815 80.4827 199.783 80.4613 199.74 80.44C199.676 80.4187 199.601 80.3867 199.516 80.344C199.175 80.0879 198.94 79.8852 198.812 79.7359C198.726 79.6292 198.577 79.4691 198.364 79.2558C197.66 78.1675 197.254 76.7593 197.148 75.0309C197.105 74.4335 197.212 73.836 197.468 73.2385C197.724 72.6411 197.958 72.1077 198.172 71.6382C198.428 71.1048 198.705 70.614 199.004 70.1659C199.175 69.9099 199.335 69.6645 199.484 69.4298C199.612 69.1951 199.729 68.971 199.836 68.7576C200.092 68.2455 200.135 67.9148 199.964 67.7654C199.815 67.5947 199.857 67.264 200.092 66.7732C200.199 66.4318 200.327 66.1331 200.476 65.8771L201.052 64.8528C201.436 64.17 201.842 63.5619 202.269 63.0285C202.653 62.5591 202.973 61.9296 203.229 61.1401C203.442 60.5426 203.73 60.0839 204.093 59.7638C204.456 59.4438 204.893 59.1557 205.405 58.8996C205.619 58.985 205.928 58.953 206.333 58.8036C206.739 58.6543 207.048 58.4942 207.262 58.3235C207.56 58.3235 207.795 58.2382 207.966 58.0675C208.435 57.9821 208.681 57.9821 208.702 58.0675C208.723 58.1528 208.777 58.1955 208.862 58.1955C208.947 58.2168 209.065 58.2168 209.214 58.1955C209.363 58.1742 209.481 58.1742 209.566 58.1955C209.715 58.6436 209.822 58.921 209.886 59.0277C209.971 59.1344 210.014 59.241 210.014 59.3477C210.014 59.4758 210.003 59.6465 209.982 59.8598C209.961 60.0732 209.929 60.2226 209.886 60.3079C209.651 60.628 209.513 60.8307 209.47 60.9161L209.374 61.1401C209.246 61.3108 209.097 61.5135 208.926 61.7482C208.777 61.9616 208.606 62.2176 208.414 62.5164L207.39 64.0207C207.155 64.3834 206.941 64.6181 206.749 64.7248C206.515 64.8528 206.323 65.0876 206.173 65.429C206.088 65.5783 206.024 65.7384 205.981 65.9091C205.96 66.0584 205.896 66.2185 205.789 66.3892C205.298 67.4134 204.744 68.4482 204.125 69.4938C203.805 70.0272 203.495 70.5607 203.197 71.0941C202.919 71.6062 202.653 72.1077 202.397 72.5984C202.375 72.7691 202.343 72.9398 202.301 73.1105C202.258 73.2599 202.215 73.4199 202.173 73.5906C202.066 73.9534 202.012 74.2628 202.012 74.5188C202.012 74.5828 201.991 74.9136 201.948 75.511C201.906 76.1085 201.927 76.4605 202.012 76.5672C202.269 76.93 202.418 77.09 202.461 77.0473C202.503 77.0046 202.546 77.0153 202.589 77.0793C202.759 77.5061 202.877 77.7515 202.941 77.8155C203.005 77.8795 203.143 77.9542 203.357 78.0395C203.527 78.0822 203.773 78.0502 204.093 77.9435C204.413 77.8368 204.658 77.7408 204.829 77.6554C205.341 77.3994 205.725 77.1327 205.981 76.8553C206.237 76.5779 206.493 76.2898 206.749 75.9911C207.39 75.223 208.072 74.3268 208.798 73.3026C209.523 72.2784 210.206 71.3822 210.846 70.614C211.081 70.1019 211.39 69.5898 211.774 69.0777C212.18 68.5229 212.489 68.0322 212.703 67.6054L213.599 65.8771C213.727 65.6423 213.866 65.3863 214.015 65.1089C214.164 64.8315 214.324 64.5328 214.495 64.2127C214.751 63.85 215.018 63.5192 215.295 63.2205C215.573 62.9218 215.775 62.4844 215.903 61.9083C216.01 61.6095 216.17 61.3215 216.383 61.0441C216.49 60.8947 216.586 60.7667 216.671 60.66C216.778 60.532 216.863 60.4146 216.928 60.3079C217.248 60.0092 217.45 59.7745 217.536 59.6038C217.621 59.4331 217.76 59.2837 217.952 59.1557C218.421 59.0277 218.784 58.9316 219.04 58.8676C219.296 58.8036 219.616 58.8143 220 58.8996C220.342 58.6863 220.704 58.5796 221.088 58.5796C221.28 58.5796 221.462 58.5902 221.632 58.6116C221.825 58.6116 222.006 58.6223 222.177 58.6436C222.177 58.857 222.23 58.9957 222.337 59.0597C222.443 59.1237 222.497 59.241 222.497 59.4117C222.667 59.7958 222.667 60.2653 222.497 60.82C222.305 61.4388 222.198 61.9936 222.177 62.4844C222.07 62.9325 221.91 63.3272 221.696 63.6686C221.462 64.0527 221.28 64.4688 221.152 64.9169C221.067 65.2369 220.992 65.493 220.928 65.685C220.886 65.8771 220.854 66.0051 220.832 66.0691L220.64 66.7732C220.555 67.1573 220.47 67.5307 220.384 67.8935C220.299 68.2349 220.214 68.5763 220.128 68.9177C219.957 69.6005 219.829 70.358 219.744 71.1901C219.744 71.4035 219.712 71.6276 219.648 71.8623C219.584 72.0756 219.552 72.2784 219.552 72.4704C219.552 72.6838 219.563 72.9398 219.584 73.2385C219.605 73.5373 219.723 73.7293 219.936 73.8147C220.171 73.9 220.374 73.8787 220.544 73.7507C220.758 73.58 220.982 73.4306 221.216 73.3026C221.366 73.1959 221.579 73.0038 221.857 72.7264C222.134 72.4491 222.347 72.257 222.497 72.1503C222.71 71.937 222.945 71.7663 223.201 71.6382C223.457 71.5102 223.692 71.3395 223.905 71.1261C224.246 70.8274 224.577 70.5287 224.897 70.2299C225.239 69.9099 225.559 69.5898 225.857 69.2697C226.497 68.6083 227.17 68.0748 227.874 67.6694C228.557 66.9439 229.25 66.2718 229.954 65.653C230.658 65.0342 231.458 64.5114 232.355 64.0847C232.696 64.6395 232.781 65.0982 232.611 65.461C232.44 65.8237 232.227 66.1758 231.971 66.5172C231.864 66.6239 231.715 66.7306 231.522 66.8373C231.288 66.9653 231.117 67.072 231.01 67.1573L230.69 67.4774C230.562 67.6054 230.456 67.6694 230.37 67.6694C230.37 67.8401 230.317 67.9788 230.21 68.0855L229.922 68.3736C229.645 68.8003 229.346 69.2057 229.026 69.5898C228.727 69.9525 228.407 70.3046 228.066 70.646C227.724 70.9874 227.383 71.3288 227.042 71.6702C226.721 71.9903 226.401 72.321 226.081 72.6624C225.783 72.7691 225.601 72.9078 225.537 73.0785C225.473 73.2919 225.335 73.4733 225.121 73.6226C225.036 73.7293 224.95 73.8253 224.865 73.9107C224.78 73.996 224.694 74.0814 224.609 74.1667C224.524 74.2521 224.438 74.3374 224.353 74.4228C224.268 74.5081 224.182 74.6042 224.097 74.7108C223.841 74.9882 223.617 75.2763 223.425 75.575C223.233 75.8524 222.966 76.1191 222.625 76.3752C222.411 76.5886 222.251 76.8126 222.145 77.0473C222.059 77.2607 221.899 77.4847 221.664 77.7195C221.323 78.0609 221.078 78.2209 220.928 78.1996C220.8 78.1782 220.683 78.3809 220.576 78.8077C220.235 79.0637 220.043 79.2451 220 79.3518C219.979 79.4371 219.915 79.4691 219.808 79.4478C219.701 79.4905 219.552 79.5225 219.36 79.5438C219.147 79.5652 219.04 79.6185 219.04 79.7039C218.763 79.8319 218.539 79.9599 218.368 80.0879C218.197 80.2373 217.994 80.3227 217.76 80.344C217.205 80.4293 216.81 80.3973 216.575 80.248C216.341 80.0986 216.095 79.8746 215.839 79.5758ZM246.758 74.9669C246.928 74.7322 247.056 74.5722 247.142 74.4868C247.248 74.3801 247.376 74.2841 247.526 74.1987C248.059 73.0678 248.753 72.1717 249.606 71.5102C250.481 70.8487 251.409 70.1019 252.391 69.2697C252.604 69.2697 252.785 69.1951 252.935 69.0457C253.084 68.8963 253.266 68.779 253.479 68.6936C253.735 68.4589 253.98 68.2669 254.215 68.1175C254.407 67.9895 254.567 67.8188 254.695 67.6054C255.186 67.3707 255.645 67.0506 256.071 66.6452C256.52 66.2398 256.957 65.8771 257.384 65.557C257.725 65.4716 258.088 65.5143 258.472 65.685C258.643 66.0264 258.707 66.3892 258.664 66.7732C258.621 67.1573 258.408 67.3707 258.024 67.4134C257.896 67.5414 257.757 67.6694 257.608 67.7974C257.458 67.9255 257.277 68.0108 257.064 68.0535C256.637 68.1388 256.36 68.3096 256.231 68.5656C256.21 68.971 256.157 69.2164 256.071 69.3018C255.986 69.3871 255.933 69.4618 255.911 69.5258C255.442 70.3153 254.919 70.9981 254.343 71.5742C253.767 72.129 253.223 72.8118 252.711 73.6226C252.476 73.772 252.284 74.0067 252.135 74.3268C251.366 74.7535 250.801 75.0843 250.438 75.319C250.076 75.5537 249.745 75.8417 249.446 76.1831C249.19 76.3325 249.062 76.4605 249.062 76.5672C249.062 76.6526 249.019 76.7379 248.934 76.8233C248.507 77.186 248.262 77.4527 248.198 77.6234C248.134 77.7941 248.038 77.9328 247.91 78.0395C247.696 78.1889 247.504 78.3383 247.334 78.4876C247.184 78.6156 247.056 78.733 246.95 78.8397C246.694 79.0957 246.416 79.2771 246.117 79.3838C245.755 79.6825 245.221 80.0346 244.517 80.44C243.813 80.8668 243.087 81.1868 242.341 81.4002C241.594 81.6349 240.975 81.6456 240.484 81.4322L240.036 81.0801C239.951 81.0161 239.801 80.9201 239.588 80.7921C239.311 80.4507 239.001 80.1626 238.66 79.9279C238.361 79.7145 238.073 79.4051 237.796 78.9997C237.476 78.5516 237.273 78.0929 237.188 77.6234C237.102 77.1327 236.942 76.6526 236.708 76.1831C236.601 75.0736 236.686 74.1561 236.964 73.4306C237.198 72.7051 237.454 72.033 237.732 71.4142C238.009 70.774 238.319 70.1873 238.66 69.6538C239.321 68.6296 239.78 67.4134 240.036 66.0051C239.567 65.5357 239.3 65.0982 239.236 64.6928C239.215 64.4794 239.172 64.2341 239.108 63.9567C239.044 63.6793 238.969 63.3592 238.884 62.9965C237.774 63.722 236.75 64.6395 235.811 65.749C234.872 66.8586 234.04 67.9895 233.315 69.1417L232.547 70.55C232.333 70.9554 232.077 71.3395 231.779 71.7022C231.565 71.9156 231.458 72.0543 231.458 72.1183C231.458 72.1823 231.416 72.257 231.33 72.3424C231.16 72.5557 231.021 72.7371 230.914 72.8865C230.808 73.0358 230.733 73.1532 230.69 73.2385C230.648 73.3239 230.605 73.4093 230.562 73.4946C230.52 73.5586 230.477 73.6226 230.434 73.6866C230.306 73.8573 230.2 73.9854 230.114 74.0707C230.029 74.1561 229.922 74.2841 229.794 74.4548C229.197 75.3083 228.653 76.1085 228.162 76.8553L226.657 79.1277C226.423 79.4905 226.231 79.8532 226.081 80.216C225.932 80.6 225.719 80.9414 225.441 81.2402C225.014 81.2828 224.769 81.2188 224.705 81.0481C224.641 80.8774 224.652 80.7281 224.737 80.6C224.225 80.2586 223.937 79.5972 223.873 78.6156C223.809 77.6341 223.905 76.8446 224.161 76.2472C224.033 75.8631 223.99 75.6497 224.033 75.607C224.076 75.5644 224.097 75.5003 224.097 75.415C224.652 74.6468 225.217 73.8787 225.793 73.1105C226.369 72.3424 226.978 71.6169 227.618 70.9341C227.724 70.7847 227.831 70.6354 227.938 70.486C228.044 70.3366 228.14 70.1873 228.226 70.0379C228.439 69.7178 228.663 69.4404 228.898 69.2057C229.261 68.5869 229.698 67.9468 230.21 67.2853C230.722 66.6452 231.138 65.9837 231.458 65.3009C231.693 65.0662 231.853 64.8315 231.939 64.5968C232.045 64.3407 232.227 64.1274 232.483 63.9567C232.632 63.7006 232.76 63.4552 232.867 63.2205C232.995 62.9645 233.101 62.7191 233.187 62.4844C233.315 62.079 233.55 61.6735 233.891 61.2681C233.976 60.9694 234.083 60.7347 234.211 60.564C234.339 60.3933 234.51 60.2012 234.723 59.9879C234.744 59.7958 234.862 59.6145 235.075 59.4438C235.289 59.2731 235.449 59.0917 235.555 58.8996C235.662 58.6009 235.769 58.4089 235.875 58.3235C236.003 58.2168 236.067 58.0675 236.067 57.8754C236.281 57.6621 236.494 57.438 236.708 57.2033C236.921 56.9686 237.113 56.6805 237.284 56.3391C237.881 55.9977 238.297 55.827 238.532 55.827C238.767 55.827 238.948 55.7203 239.076 55.507C239.247 55.507 239.428 55.507 239.62 55.507C239.833 55.507 240.058 55.4963 240.292 55.4749C240.783 55.4323 241.039 55.5923 241.06 55.955C241.082 56.0404 241.082 56.1471 241.06 56.2751C241.039 56.3391 241.018 56.4031 240.996 56.4671C240.975 56.5312 240.954 56.5952 240.932 56.6592C240.954 57.0433 240.954 57.246 240.932 57.2673C240.89 57.31 240.868 57.342 240.868 57.3633C240.826 57.534 240.815 57.6834 240.836 57.8114C240.858 57.9181 240.868 58.1101 240.868 58.3875C240.847 58.5582 240.826 58.7076 240.804 58.8356C240.783 58.9637 240.762 59.081 240.74 59.1877C240.698 59.4011 240.783 59.6465 240.996 59.9238C241.103 60.0732 241.231 60.1906 241.38 60.2759C241.53 60.3613 241.679 60.5 241.829 60.692C241.935 60.7987 242.01 60.9267 242.053 61.0761C242.095 61.2254 242.17 61.3535 242.277 61.4602C242.362 61.5668 242.49 61.6735 242.661 61.7802C242.831 61.8869 242.959 62.0363 243.045 62.2283C243.28 62.399 243.354 62.5057 243.269 62.5484C243.205 62.5911 243.301 62.6764 243.557 62.8044C244.048 63.4232 244.41 64.0847 244.645 64.7888C244.923 65.3223 245.157 65.749 245.349 66.0691C245.563 66.4105 245.563 66.7519 245.349 67.0933C245.221 67.2213 245.072 67.4774 244.901 67.8615C244.709 68.0535 244.538 68.2669 244.389 68.5016C244.304 68.651 244.24 68.811 244.197 68.9817C244.176 69.1311 244.112 69.2697 244.005 69.3978C243.621 70.0166 243.226 70.5713 242.821 71.0621C242.415 71.5529 242.063 72.0863 241.765 72.6624C241.786 73.8787 242.021 74.7749 242.469 75.351C242.981 75.9484 243.301 76.2472 243.429 76.2472C243.706 76.2898 244.005 76.2045 244.325 75.9911L245.157 75.479C245.243 75.4363 245.317 75.3937 245.381 75.351C245.467 75.3083 245.541 75.2656 245.605 75.223C245.733 75.1376 245.883 75.0736 246.053 75.0309C246.502 74.8815 246.715 74.8282 246.694 74.8709C246.672 74.9349 246.694 74.9669 246.758 74.9669ZM253.607 65.8771C253.884 65.7277 254.226 65.4076 254.631 64.9169C255.037 64.4048 255.431 63.914 255.815 63.4446C256.199 62.9538 256.488 62.6764 256.68 62.6124C256.808 62.399 256.925 62.2176 257.032 62.0683C257.138 61.9189 257.298 61.7802 257.512 61.6522C257.853 61.0334 258.301 60.5106 258.856 60.0839C259.432 59.6358 259.966 59.1557 260.456 58.6436C260.862 58.4729 261.267 58.2808 261.673 58.0675C262.099 57.8541 262.515 57.6087 262.921 57.3313C263.753 56.7765 264.681 56.4885 265.705 56.4671C266.175 56.6805 266.634 56.7445 267.082 56.6592C267.508 56.5738 267.925 56.6805 268.33 56.9793C268.565 57.3847 268.757 57.6301 268.906 57.7154C269.055 57.8008 269.183 57.9181 269.29 58.0675C269.461 58.6009 269.589 58.953 269.674 59.1237C269.781 59.2944 269.845 59.4758 269.866 59.6678C269.888 59.9879 269.909 60.2653 269.93 60.5C269.952 60.7133 269.973 60.8947 269.994 61.0441C270.016 61.3215 270.016 61.5882 269.994 61.8442C269.866 62.9325 269.653 64.0207 269.354 65.1089C269.311 65.2369 269.269 65.365 269.226 65.493C269.183 65.621 269.141 65.7597 269.098 65.9091C269.013 66.1865 268.906 66.4318 268.778 66.6452C268.458 67.0506 268.234 67.3814 268.106 67.6374C267.914 67.9788 267.775 68.2029 267.69 68.3096C267.434 68.5656 267.188 68.8003 266.954 69.0137C266.74 69.2271 266.538 69.4191 266.346 69.5898C266.153 69.6965 265.961 69.8139 265.769 69.9419C265.577 70.0486 265.385 70.1659 265.193 70.294C264.831 70.5287 264.404 70.6994 263.913 70.8061L263.337 71.1581C263.145 71.2862 262.932 71.3608 262.697 71.3822C262.313 71.6596 261.886 71.8836 261.417 72.0543C261.203 72.1397 260.979 72.225 260.744 72.3104C260.531 72.3957 260.307 72.4917 260.072 72.5984C259.752 72.7264 259.475 72.8758 259.24 73.0465C259.005 73.2172 258.707 73.3879 258.344 73.5586C258.152 73.6226 257.842 73.6973 257.416 73.7827C257.01 73.8467 256.722 73.9214 256.552 74.0067C256.765 74.4335 256.85 74.9669 256.808 75.607C256.786 76.2045 256.893 76.7379 257.128 77.2074C257.682 77.3354 258.291 77.4314 258.952 77.4954C259.614 77.5594 260.243 77.5488 260.84 77.4634C260.947 77.4421 261.054 77.4101 261.16 77.3674C261.289 77.3247 261.417 77.282 261.545 77.2394C261.673 77.1967 261.801 77.154 261.929 77.1113C262.057 77.0687 262.185 77.0367 262.313 77.0153C262.782 76.93 263.241 76.8233 263.689 76.6953C264.137 76.5672 264.532 76.3965 264.873 76.1831C266.111 75.7564 267.306 75.1803 268.458 74.4548C269.61 73.7293 270.613 72.9398 271.467 72.0863C271.979 71.7449 272.544 71.2755 273.163 70.678C273.782 70.0806 274.262 69.5258 274.603 69.0137C275.243 68.3309 275.809 67.7974 276.3 67.4134C276.79 67.0293 277.249 66.8586 277.676 66.9013C278.017 66.9013 278.348 67.104 278.668 67.5094C278.988 67.9148 278.956 68.3522 278.572 68.8217C278.167 69.0777 277.719 69.4618 277.228 69.9739C276.758 70.486 276.268 70.8487 275.755 71.0621C275.393 71.2968 274.913 71.7663 274.315 72.4704C273.739 73.1319 273.259 73.644 272.875 74.0067C272.79 74.0921 272.693 74.1881 272.587 74.2948C272.48 74.4015 272.352 74.5081 272.203 74.6148C271.925 74.8282 271.701 75.0523 271.531 75.287C270.869 75.8417 270.229 76.3112 269.61 76.6953C269.375 76.6099 269.183 76.6526 269.034 76.8233C268.842 77.058 268.671 77.2287 268.522 77.3354C268.458 77.3781 268.394 77.4207 268.33 77.4634C268.266 77.5061 268.191 77.5488 268.106 77.5914C268.021 77.6341 267.946 77.6768 267.882 77.7195C267.818 77.7621 267.754 77.8048 267.69 77.8475C267.348 78.1462 266.975 78.4449 266.57 78.7437C266.164 79.0424 265.748 79.2984 265.321 79.5118C264.895 79.7679 264.468 80.0026 264.041 80.216C263.614 80.4507 263.188 80.6534 262.761 80.8241C262.334 80.9948 261.907 81.1975 261.481 81.4322C261.075 81.6669 260.67 81.923 260.264 82.2004L259.56 82.2964C259.453 82.3177 259.347 82.3284 259.24 82.3284C259.133 82.3497 259.027 82.3711 258.92 82.3924C258.685 82.4778 258.461 82.5204 258.248 82.5204C258.035 82.5204 257.768 82.4778 257.448 82.3924C256.039 82.0083 254.887 81.3255 253.991 80.344C253.863 80.216 253.724 80.0986 253.575 79.9919C253.447 79.8639 253.308 79.7465 253.159 79.6398C252.817 79.3838 252.583 79.1491 252.455 78.9357C252.263 78.6156 252.071 78.1142 251.879 77.4314C251.665 76.7486 251.484 76.0551 251.334 75.351C251.185 74.6255 251.11 74.0707 251.11 73.6866C251.238 73.4306 251.377 72.9932 251.527 72.3744C251.676 71.7342 251.804 71.1048 251.911 70.486C252.017 69.8459 252.071 69.3978 252.071 69.1417C252.156 69.0564 252.327 68.779 252.583 68.3096C252.817 67.8188 253.042 67.328 253.255 66.8373C253.49 66.3251 253.607 66.0051 253.607 65.8771ZM263.913 61.7802C263.614 62.1643 263.316 62.527 263.017 62.8684C262.718 63.2098 262.377 63.5299 261.993 63.8286C261.737 64.2981 261.438 64.7248 261.096 65.1089C260.755 65.493 260.414 65.8557 260.072 66.1971C259.902 66.5385 259.71 66.8052 259.496 66.9973C259.283 67.1893 259.048 67.392 258.792 67.6054C258.515 68.0748 258.173 68.5229 257.768 68.9497C257.362 69.3764 257.277 69.8672 257.512 70.422C257.981 70.5073 258.451 70.4433 258.92 70.2299C259.389 70.0166 259.795 69.8245 260.136 69.6538C260.307 69.5471 260.478 69.4511 260.648 69.3658C260.84 69.2804 261.022 69.1951 261.192 69.1097C261.363 69.0244 261.534 68.939 261.705 68.8537C261.875 68.7683 262.035 68.6723 262.185 68.5656L263.849 66.9013C264.105 66.6666 264.361 66.3892 264.617 66.0691C264.724 65.9197 264.831 65.7704 264.937 65.621C265.065 65.4503 265.193 65.2796 265.321 65.1089C265.428 64.6395 265.599 64.2021 265.833 63.7966C266.089 63.3699 266.196 62.9325 266.153 62.4844C266.132 62.2923 266.057 62.0683 265.929 61.8122C265.801 61.5562 265.727 61.3535 265.705 61.2041C265.257 61.2041 264.927 61.2788 264.713 61.4282C264.607 61.5135 264.478 61.5882 264.329 61.6522C264.201 61.6949 264.062 61.7376 263.913 61.7802ZM316.852 62.2283L316.788 62.7404C316.83 62.8898 316.788 63.1458 316.66 63.5086C316.446 63.7646 316.318 64.042 316.276 64.3407C316.19 64.5114 316.116 64.6608 316.052 64.7888C315.988 64.9169 315.934 65.0876 315.892 65.3009C315.806 65.557 315.774 65.8557 315.796 66.1971C315.817 66.3678 315.817 66.5385 315.796 66.7092C315.796 66.8586 315.785 67.008 315.764 67.1573C315.678 67.6267 315.614 68.0855 315.572 68.5336C315.529 68.9817 315.486 69.4404 315.443 69.9099C315.443 70.3793 315.401 70.9127 315.315 71.5102C315.23 72.1077 315.145 72.6411 315.059 73.1105C315.251 73.4519 315.358 73.772 315.379 74.0707C315.401 74.3908 315.55 74.6682 315.828 74.9029C316.681 74.7749 317.364 74.5722 317.876 74.2948C318.388 74.0174 318.879 73.6226 319.348 73.1105C319.69 72.9612 319.956 72.8118 320.148 72.6624C320.319 72.5131 320.565 72.3424 320.885 72.1503L321.397 71.6382C321.909 71.3608 322.197 71.1901 322.261 71.1261C322.304 71.0834 322.357 71.0408 322.421 70.9981C322.506 70.9554 322.592 70.9127 322.677 70.8701C323.402 70.4006 323.957 69.9099 324.341 69.3978C324.661 69.1417 324.928 68.875 325.141 68.5976C325.312 68.3629 325.643 68.1388 326.134 67.9255C326.411 67.5841 326.72 67.296 327.062 67.0613C327.403 66.8266 327.713 66.5385 327.99 66.1971C328.225 66.1971 328.395 66.2398 328.502 66.3251C328.566 66.3678 328.63 66.4105 328.694 66.4532C328.78 66.4958 328.865 66.5385 328.95 66.5812C329.078 66.9226 329.1 67.2747 329.014 67.6374C328.929 68.0002 328.78 68.3309 328.566 68.6296C328.353 68.907 328.246 69.0777 328.246 69.1417C328.246 69.1844 328.225 69.2271 328.182 69.2697C328.054 69.4191 327.894 69.5791 327.702 69.7498C327.51 69.8992 327.35 70.0592 327.222 70.2299C327.008 70.614 326.838 70.8061 326.71 70.8061C326.582 70.8061 326.475 70.8487 326.39 70.9341C326.006 71.1688 325.739 71.3395 325.59 71.4462C325.419 71.5955 325.173 71.7663 324.853 71.9583C324.405 72.193 324.128 72.3637 324.021 72.4704C323.915 72.5771 323.829 72.6411 323.765 72.6624C323.253 73.2385 322.752 73.7186 322.261 74.1027C321.813 74.4441 321.333 74.9242 320.821 75.543C320.65 75.671 320.479 75.7991 320.308 75.9271C320.138 76.0551 319.988 76.2258 319.86 76.4392C319.476 76.6953 319.167 76.9513 318.932 77.2074C318.697 77.4634 318.431 77.7621 318.132 78.1035C317.876 78.2316 317.599 78.4129 317.3 78.6476C316.937 78.925 316.617 79.1277 316.34 79.2558C316.233 79.3198 316.052 79.4158 315.796 79.5438C315.582 79.6505 315.379 79.7039 315.187 79.7039C314.697 79.7892 314.227 79.7465 313.779 79.5758C313.374 79.4265 312.968 79.2984 312.563 79.1918C312.392 78.9357 312.179 78.7223 311.923 78.5516C311.539 78.0822 311.261 77.5274 311.091 76.8873C310.92 76.2472 310.749 75.5644 310.579 74.8389C310.194 75.0949 309.874 75.3723 309.618 75.671C309.362 75.9911 308.978 76.2685 308.466 76.5032C308.039 76.9086 307.602 77.314 307.154 77.7195C306.706 78.1035 306.236 78.4769 305.746 78.8397C305.276 79.2024 304.796 79.5865 304.305 79.9919C303.814 80.376 303.324 80.7707 302.833 81.1762C302.492 81.5176 302.257 81.6456 302.129 81.5602C301.745 82.0297 301.062 82.179 300.08 82.0083C299.739 81.8376 299.355 81.6883 298.928 81.5602C298.629 81.4749 298.288 81.3469 297.904 81.1762C297.178 81.0481 296.57 80.7281 296.08 80.216C295.589 79.7039 295.173 79.1064 294.831 78.4236C294.703 78.0609 294.607 77.7408 294.543 77.4634C294.522 77.314 294.49 77.154 294.447 76.9833C294.405 76.8126 294.362 76.6312 294.319 76.4392C294.298 76.0765 294.234 75.7884 294.127 75.575C294.042 75.3403 294.042 75.1163 294.127 74.9029C294.042 74.7962 294.02 74.6575 294.063 74.4868C294.106 74.2734 294.127 74.1134 294.127 74.0067C294.084 73.4093 294.138 72.7691 294.287 72.0863C294.437 71.4035 294.639 70.7847 294.895 70.2299C295.023 70.0166 295.194 69.8032 295.407 69.5898C295.514 69.4618 295.578 69.3338 295.599 69.2057C295.621 69.099 295.685 68.9924 295.792 68.8857C295.898 68.7576 296.026 68.6296 296.176 68.5016C296.389 68.3309 296.538 68.2029 296.624 68.1175C296.73 67.9681 296.837 67.8295 296.944 67.7014C297.072 67.5521 297.21 67.424 297.36 67.3173C297.509 67.2107 297.648 67.0933 297.776 66.9653C297.904 66.8373 298.032 66.7092 298.16 66.5812C298.309 66.4318 298.427 66.2825 298.512 66.1331C298.619 65.9624 298.779 65.8344 298.992 65.749C299.163 65.4503 299.355 65.2049 299.568 65.0129C299.782 64.8208 300.016 64.6181 300.272 64.4048C300.998 63.5299 301.894 62.7831 302.961 62.1643C304.049 61.5455 305.009 60.8627 305.842 60.1159C306.14 59.9879 306.396 59.8385 306.61 59.6678C306.823 59.4971 307.036 59.3264 307.25 59.1557C307.783 58.6863 308.359 58.5369 308.978 58.7076L310.643 59.1557C311.069 59.5398 311.485 59.9238 311.891 60.3079C312.296 60.692 312.648 61.1188 312.947 61.5882C313.096 61.5668 313.256 61.5562 313.427 61.5562C313.598 61.5348 313.779 61.5348 313.971 61.5562C314.355 61.5989 314.761 61.5668 315.187 61.4602C315.315 61.4602 315.443 61.4282 315.572 61.3641C315.7 61.3001 315.806 61.2681 315.892 61.2681C316.532 61.4815 316.852 61.8016 316.852 62.2283ZM308.402 63.1885C307.25 63.7433 306.204 64.3941 305.265 65.1409C304.327 65.8877 303.43 66.6879 302.577 67.5414C302.47 67.6481 302.353 67.7548 302.225 67.8615C302.118 67.9468 302.011 68.0428 301.905 68.1495C301.798 68.2349 301.691 68.3309 301.585 68.4376C301.478 68.5443 301.382 68.651 301.297 68.7576C301.126 68.971 300.966 69.2271 300.817 69.5258C300.667 69.8245 300.528 70.1019 300.4 70.358C300.358 70.4433 300.315 70.5287 300.272 70.614C300.23 70.678 300.187 70.7314 300.144 70.774C300.102 70.8167 300.059 70.8701 300.016 70.9341C299.974 70.9981 299.931 71.0621 299.888 71.1261C299.803 71.3395 299.771 71.5529 299.792 71.7663C299.814 71.9156 299.824 72.1503 299.824 72.4704V73.1105C299.824 73.2385 299.846 73.4519 299.888 73.7507C300.016 74.2201 300.08 74.6895 300.08 75.1589C300.08 75.5003 300.112 75.9164 300.176 76.4072C300.24 76.898 300.4 77.2287 300.656 77.3994C300.934 77.5701 301.201 77.6128 301.457 77.5274C301.755 77.4207 302.001 77.3567 302.193 77.3354C303.686 76.1831 305.095 74.9776 306.418 73.7186C307.741 72.4597 308.914 71.0408 309.938 69.4618C309.853 68.4162 309.842 67.3387 309.906 66.2291C309.97 65.1836 309.874 64.2127 309.618 63.3165C309.448 63.2098 309.245 63.1778 309.01 63.2205C308.839 63.2419 308.637 63.2312 308.402 63.1885ZM343.353 44.6888C344.292 44.8381 345.103 44.9341 345.786 44.9768C346.49 45.0195 347.258 44.9661 348.09 44.8168L350.619 44.4647C351.301 44.3794 352.123 44.2833 353.083 44.1767C353.339 44.1553 353.606 44.1553 353.883 44.1767C354.033 44.198 354.171 44.2193 354.299 44.2407C354.427 44.2407 354.555 44.2407 354.683 44.2407C355.238 44.2407 355.782 44.2193 356.316 44.1767C356.849 44.134 357.351 44.0913 357.82 44.0486C357.905 44.0273 357.98 44.006 358.044 43.9846C358.129 43.9633 358.204 43.9419 358.268 43.9206C358.396 43.8779 358.524 43.8779 358.652 43.9206C358.844 43.9206 359.036 43.9206 359.228 43.9206C359.42 43.9206 359.612 43.9099 359.804 43.8886C360.189 43.8673 360.53 44.006 360.829 44.3047C360.957 44.7314 360.999 44.9661 360.957 45.0088C360.893 45.0728 360.85 45.1369 360.829 45.2009C360.786 45.7556 360.711 46.033 360.605 46.033C360.498 46.033 360.445 46.0757 360.445 46.1611C360.103 46.2464 359.815 46.3211 359.58 46.3851C359.346 46.4491 359.164 46.5878 359.036 46.8012C358.311 46.9506 357.639 46.9826 357.02 46.8972C356.401 46.7905 355.772 46.8865 355.132 47.1853C354.811 47.3346 354.502 47.4947 354.203 47.6654C353.905 47.8574 353.51 47.8681 353.019 47.6974C352.592 47.6974 352.102 47.7187 351.547 47.7614C350.992 47.8041 350.459 47.8467 349.946 47.8894C349.221 47.9534 348.4 48.0281 347.482 48.1135C346.586 48.1775 345.892 48.2201 345.402 48.2415C344.932 48.2628 344.26 48.2948 343.385 48.3375C342.51 48.3802 341.731 48.4015 341.049 48.4015C340.707 48.6789 340.483 49.0416 340.377 49.4897C340.27 49.9165 340.046 50.2579 339.704 50.5139C339.32 51.3674 339.043 51.9116 338.872 52.1463C338.68 52.4023 338.531 52.7331 338.424 53.1385C337.827 53.9066 337.283 54.7068 336.792 55.539C336.344 56.3071 335.778 57.0859 335.095 57.8754C335.01 58.3449 334.85 58.7609 334.615 59.1237C334.402 59.4651 334.242 59.9452 334.135 60.564C333.687 61.1614 333.346 61.8656 333.111 62.6764C333.004 63.0605 332.876 63.4552 332.727 63.8606C332.599 64.2661 332.45 64.6821 332.279 65.1089C332.194 65.4503 332.098 65.781 331.991 66.1011C331.884 66.4212 331.767 66.7519 331.639 67.0933C331.489 67.4774 331.287 67.8721 331.031 68.2775C330.924 68.4482 330.807 68.6403 330.679 68.8537C330.572 69.0457 330.465 69.2484 330.359 69.4618C330.273 69.5471 330.23 69.6645 330.23 69.8139C330.23 69.9205 330.209 70.0379 330.166 70.1659C330.102 70.3153 330.038 70.4647 329.974 70.614C329.91 70.742 329.846 70.8594 329.782 70.9661C329.697 71.1155 329.59 71.3395 329.462 71.6382C329.398 71.7876 329.345 72.0116 329.302 72.3104C329.26 72.6091 329.206 72.8331 329.142 72.9825C329.121 73.0465 329.1 73.1105 329.078 73.1745C329.057 73.2385 329.036 73.2919 329.014 73.3346C328.993 73.3772 328.972 73.4306 328.95 73.4946C328.929 73.5586 328.908 73.6226 328.886 73.6866C328.758 74.2841 328.758 74.6895 328.886 74.9029C329.014 75.1163 329.121 75.3296 329.206 75.543C329.249 75.671 329.292 75.7884 329.334 75.8951C329.377 76.0018 329.42 76.1085 329.462 76.2152C329.569 76.4072 329.633 76.6099 329.654 76.8233C329.761 76.866 329.868 76.9086 329.974 76.9513C330.081 76.994 330.177 77.0367 330.262 77.0793C330.433 77.1647 330.636 77.2074 330.871 77.2074C331.148 77.25 331.425 77.1327 331.703 76.8553C332.002 76.5566 332.258 76.3965 332.471 76.3752C332.727 76.2898 333.015 76.2472 333.335 76.2472C333.613 76.2472 333.858 76.1831 334.071 76.0551C334.199 75.9484 334.317 75.8417 334.423 75.7351C334.53 75.6284 334.626 75.5217 334.711 75.415C334.839 75.223 335.074 75.0736 335.416 74.9669C336.098 74.7962 336.461 74.6575 336.504 74.5508C336.525 74.4655 336.674 74.3054 336.952 74.0707C337.101 73.964 337.24 73.8573 337.368 73.7507C337.517 73.644 337.645 73.5479 337.752 73.4626C337.923 73.3132 338.211 73.1105 338.616 72.8545C339.043 72.6411 339.288 72.5131 339.352 72.4704C339.416 72.4277 339.598 72.2784 339.896 72.0223C340.11 71.9156 340.302 71.8089 340.473 71.7022C340.665 71.5742 340.835 71.4462 340.985 71.3182C341.219 71.1048 341.561 70.8701 342.009 70.614C342.521 70.4006 342.798 70.2726 342.841 70.2299C342.905 70.1659 342.948 70.0912 342.969 70.0059C342.99 69.9205 343.225 69.7392 343.673 69.4618C343.823 69.1417 344.015 68.8643 344.249 68.6296C344.356 68.5229 344.473 68.4056 344.601 68.2775C344.729 68.1282 344.868 67.9681 345.017 67.7974C345.295 67.4774 345.562 67.2213 345.818 67.0293C346.116 66.7946 346.362 66.5812 346.554 66.3892C346.639 66.3251 346.746 66.2291 346.874 66.1011C347.002 65.9731 347.151 65.8984 347.322 65.8771C347.45 65.7704 347.557 65.6743 347.642 65.589C347.749 65.5036 347.845 65.4183 347.93 65.3329C348.015 65.2476 348.111 65.1516 348.218 65.0449C348.346 64.9382 348.496 64.8102 348.666 64.6608L348.986 64.3407C349.136 64.1914 349.242 64.106 349.306 64.0847C349.498 64.0847 349.637 64.1487 349.722 64.2767C349.829 64.4048 349.968 64.4688 350.139 64.4688C350.117 64.7462 350.096 64.9702 350.075 65.1409C350.075 65.3116 350.075 65.4396 350.075 65.525C350.075 65.6957 350.032 65.8557 349.946 66.0051C349.69 66.4105 349.402 66.6239 349.082 66.6452C348.762 66.6879 348.517 66.9226 348.346 67.3494C348.218 67.264 348.058 67.2427 347.866 67.2853C347.674 67.328 347.535 67.392 347.45 67.4774C347.535 67.6267 347.578 67.7761 347.578 67.9255C347.578 68.0108 347.599 68.1602 347.642 68.3736C346.853 69.1631 346.34 69.7818 346.106 70.2299C345.572 70.7847 345.295 71.0941 345.274 71.1581L345.21 71.2541L344.697 71.7663C344.1 72.2357 343.652 72.6838 343.353 73.1105C343.076 73.5159 342.628 73.9 342.009 74.2628C341.539 74.6042 341.219 74.8602 341.049 75.0309C340.963 75.1163 340.857 75.223 340.729 75.351C340.601 75.4577 340.451 75.5857 340.281 75.7351C340.174 75.8417 340.014 76.0231 339.8 76.2792C339.587 76.5352 339.406 76.7166 339.256 76.8233C338.979 77.0367 338.691 77.2287 338.392 77.3994C338.157 77.5274 337.912 77.7408 337.656 78.0395C337.037 78.3169 336.578 78.6583 336.28 79.0637C336.002 79.4265 335.586 79.7892 335.031 80.152C334.647 80.408 334.125 80.7281 333.463 81.1121C332.802 81.4962 332.236 81.7736 331.767 81.9443C331.703 81.9657 331.639 81.987 331.575 82.0083C331.511 82.0297 331.457 82.051 331.415 82.0723C331.372 82.0937 331.319 82.115 331.255 82.1364C331.191 82.1577 331.127 82.179 331.063 82.2004C330.721 81.987 330.391 81.7736 330.07 81.5602C329.75 81.3469 329.484 81.0481 329.27 80.6641C328.865 80.3653 328.555 80.152 328.342 80.0239C328.086 79.8746 327.862 79.7039 327.67 79.5118C327.457 79.1491 327.233 78.7863 326.998 78.4236C326.763 78.0609 326.507 77.6981 326.23 77.3354C325.675 76.5886 325.259 75.7777 324.981 74.9029C324.917 74.7962 324.864 74.6148 324.821 74.3588L324.725 73.7507C324.683 73.58 324.64 73.4199 324.597 73.2706C324.555 73.1212 324.512 72.9825 324.469 72.8545C324.384 72.6411 324.363 72.321 324.405 71.8943C324.405 71.5955 324.448 71.3182 324.533 71.0621C324.576 70.9127 324.619 70.7634 324.661 70.614C324.704 70.4433 324.747 70.2726 324.789 70.1019C324.875 69.8245 324.971 69.5578 325.077 69.3018C325.184 69.0244 325.291 68.7576 325.398 68.5016C325.654 67.9255 325.835 67.3707 325.942 66.8373C326.198 65.9411 326.475 65.0876 326.774 64.2767C326.838 64.1274 326.891 63.9247 326.934 63.6686C326.955 63.4766 327.073 63.3379 327.286 63.2525C327.457 62.399 327.734 61.5775 328.118 60.788C328.502 59.9985 328.886 59.241 329.27 58.5156C329.505 58.0675 329.729 57.6194 329.942 57.1713C330.156 56.7019 330.369 56.2324 330.583 55.763C330.796 55.2936 331.009 54.8348 331.223 54.3867C331.436 53.9173 331.66 53.4585 331.895 53.0104C331.916 52.541 332.087 52.1143 332.407 51.7302C332.428 51.3034 332.599 50.8447 332.919 50.3539C333.239 49.8631 333.452 49.4044 333.559 48.9776C333.09 48.8496 332.567 48.8389 331.991 48.9456C331.415 49.0523 330.913 49.1483 330.487 49.2337C329.718 49.255 328.908 49.255 328.054 49.2337C327.905 49.2123 327.755 49.191 327.606 49.1697C327.478 49.127 327.339 49.095 327.19 49.0736C326.912 49.0096 326.646 48.9776 326.39 48.9776C326.006 48.999 325.718 48.967 325.526 48.8816C325.312 48.7749 325.109 48.7643 324.917 48.8496C324.32 48.3375 323.712 47.8894 323.093 47.5053C322.453 47.1213 322.037 46.6305 321.845 46.033C321.845 45.905 321.909 45.7983 322.037 45.713C322.208 45.5849 322.314 45.4996 322.357 45.4569C322.72 45.3502 323.104 45.3182 323.509 45.3609C323.915 45.3822 324.256 45.3076 324.533 45.1369C325.152 45.2222 325.782 45.1795 326.422 45.0088C326.998 44.8381 327.606 44.7741 328.246 44.8168C328.331 44.8168 328.459 44.8381 328.63 44.8808C328.801 44.9235 328.929 44.9448 329.014 44.9448C329.228 44.9661 329.409 44.9661 329.558 44.9448C329.644 44.9235 329.729 44.9021 329.814 44.8808C329.9 44.8595 329.996 44.8381 330.102 44.8168C330.359 44.7741 330.636 44.7741 330.935 44.8168C331.233 44.8595 331.532 44.8595 331.831 44.8168C332.45 44.7741 333.122 44.8275 333.847 44.9768C334.637 45.1262 335.33 45.0942 335.928 44.8808C336.034 44.5821 336.141 44.2833 336.248 43.9846C336.376 43.6646 336.514 43.3552 336.664 43.0564C336.963 42.4376 337.187 41.8295 337.336 41.2321C337.507 40.976 337.677 40.6879 337.848 40.3679C338.019 40.0478 338.147 39.7384 338.232 39.4397L338.84 38.4155C338.926 38.2875 339.011 38.1594 339.096 38.0314C339.182 37.9034 339.278 37.7754 339.384 37.6473C339.683 37.0285 339.907 36.4418 340.056 35.887C340.142 35.5882 340.227 35.2895 340.313 34.9908C340.419 34.6707 340.537 34.34 340.665 33.9986C340.942 33.6999 341.219 33.3691 341.497 33.0064C341.774 32.6437 342.052 32.2489 342.329 31.8222C342.649 31.8648 342.894 31.7795 343.065 31.5661C343.257 31.3527 343.545 31.3741 343.929 31.6301C343.929 31.7581 343.983 31.8755 344.089 31.9822C344.196 32.0889 344.207 32.2489 344.121 32.4623C344.548 32.889 344.825 33.2731 344.953 33.6145C345.039 33.9559 345.007 34.3507 344.857 34.7988C344.708 35.2468 344.74 35.6629 344.953 36.047C345.039 36.239 345.06 36.4418 345.017 36.6551C344.975 36.8898 344.996 37.0712 345.082 37.1992C345.188 37.434 345.306 37.6473 345.434 37.8394C345.583 38.0527 345.658 38.3301 345.658 38.6715C345.658 38.7996 345.626 38.9596 345.562 39.1516C345.498 39.3437 345.423 39.5464 345.338 39.7598C345.188 40.3999 345.06 40.848 344.953 41.104C344.911 41.2321 344.868 41.3708 344.825 41.5201C344.783 41.6481 344.74 41.7868 344.697 41.9362C344.399 42.2989 344.249 42.523 344.249 42.6083C344.249 42.6724 344.228 42.7684 344.185 42.8964C344.121 43.0244 344.057 43.1738 343.993 43.3445C343.929 43.4939 343.855 43.6539 343.769 43.8246C343.684 43.9953 343.609 44.1553 343.545 44.3047C343.481 44.454 343.417 44.5821 343.353 44.6888Z" fill="#040000"/>
<defs>
<clipPath id="clip0_2001_610">
<rect width="444" height="121" fill="white"/>
</clipPath>
</defs>
</svg>
