<svg width="24" height="24" viewBox="0 0 24 24" fill="none" xmlns="http://www.w3.org/2000/svg">
<path d="M17 10V22" stroke="#979797" stroke-width="0.833333" stroke-linecap="round" stroke-linejoin="round"/>
<path d="M9 5.88L10 10H4.17C3.85951 10 3.55328 10.0723 3.27557 10.2111C2.99786 10.35 2.75629 10.5516 2.57 10.8C2.38371 11.0484 2.2578 11.3367 2.20226 11.6422C2.14672 11.9477 2.16306 12.2619 2.25 12.56L4.58 20.56C4.70117 20.9754 4.95381 21.3404 5.3 21.6C5.64619 21.8596 6.06726 22 6.5 22H20C20.5304 22 21.0391 21.7893 21.4142 21.4142C21.7893 21.0391 22 20.5304 22 20V12C22 11.4696 21.7893 10.9609 21.4142 10.5858C21.0391 10.2107 20.5304 10 20 10H17.24C16.8679 9.9998 16.5033 9.89581 16.187 9.69972C15.8708 9.50363 15.6156 9.22321 15.45 8.89L12 2C11.5284 2.00584 11.0643 2.11817 10.6422 2.3286C10.2201 2.53902 9.85107 2.84211 9.5626 3.2152C9.27412 3.5883 9.07368 4.02176 8.97626 4.4832C8.87884 4.94464 8.88696 5.42213 9 5.88Z" stroke="#979797" stroke-linecap="round" stroke-linejoin="round"/>
</svg>

