<svg width="20" height="20" viewBox="0 0 20 20" fill="none" xmlns="http://www.w3.org/2000/svg">
<path fill-rule="evenodd" clip-rule="evenodd" d="M10 8.5C10.5304 8.5 11.0391 8.28929 11.4142 7.91421C11.7893 7.53914 12 7.03043 12 6.5C12 5.96957 11.7893 5.46086 11.4142 5.08579C11.0391 4.71071 10.5304 4.5 10 4.5C9.46957 4.5 8.96086 4.71071 8.58579 5.08579C8.21071 5.46086 8 5.96957 8 6.5C8 7.03043 8.21071 7.53914 8.58579 7.91421C8.96086 8.28929 9.46957 8.5 10 8.5ZM10 5.5C10.2652 5.5 10.5196 5.60536 10.7071 5.79289C10.8946 5.98043 11 6.23478 11 6.5C11 6.76522 10.8946 7.01957 10.7071 7.20711C10.5196 7.39464 10.2652 7.5 10 7.5C9.73478 7.5 9.48043 7.39464 9.29289 7.20711C9.10536 7.01957 9 6.76522 9 6.5C9 6.23478 9.10536 5.98043 9.29289 5.79289C9.48043 5.60536 9.73478 5.5 10 5.5Z" fill="#505050"/>
<path fill-rule="evenodd" clip-rule="evenodd" d="M5.5 6.286C5.5 8.959 8.153 13.5 10 13.5C11.848 13.5 14.5 8.959 14.5 6.286C14.5 3.65 12.493 1.5 10 1.5C7.507 1.5 5.5 3.65 5.5 6.286ZM13.5 6.286C13.5 8.479 11.152 12.5 10 12.5C8.849 12.5 6.5 8.48 6.5 6.286C6.5 4.187 8.075 2.5 10 2.5C11.925 2.5 13.5 4.187 13.5 6.286Z" fill="#505050"/>
<path d="M13.4338 9.13994C13.3142 9.08849 13.2195 8.99245 13.1696 8.87222C13.1197 8.75199 13.1187 8.61705 13.1667 8.49608C13.2148 8.37511 13.3081 8.27765 13.4269 8.2244C13.5457 8.17116 13.6805 8.16633 13.8028 8.21094C14.2094 8.37223 14.5759 8.62049 14.8765 8.93834C15.177 9.25619 15.4045 9.63593 15.5428 10.0509L16.8768 14.0509C17.0272 14.5021 17.0683 14.9825 16.9965 15.4526C16.9248 15.9227 16.7423 16.3691 16.4641 16.7548C16.1859 17.1405 15.82 17.4545 15.3966 17.671C14.9732 17.8875 14.5044 18.0003 14.0288 17.9999H5.96881C5.49342 17.9999 5.02483 17.887 4.60167 17.6703C4.17851 17.4537 3.81289 17.1396 3.53494 16.754C3.257 16.3683 3.07468 15.9221 3.00303 15.4521C2.93137 14.9822 2.97242 14.5019 3.12281 14.0509L4.45581 10.0509C4.59656 9.62848 4.82959 9.24266 5.13799 8.92146C5.44639 8.60026 5.82242 8.35175 6.23881 8.19394C6.3002 8.17063 6.36558 8.15964 6.43122 8.1616C6.49686 8.16356 6.56147 8.17843 6.62137 8.20535C6.68126 8.23228 6.73526 8.27075 6.78029 8.31855C6.82532 8.36635 6.8605 8.42255 6.88381 8.48394C6.90712 8.54533 6.9181 8.61071 6.91615 8.67635C6.91419 8.74199 6.89932 8.80661 6.87239 8.8665C6.84546 8.92639 6.807 8.9804 6.7592 9.02543C6.7114 9.07046 6.6552 9.10563 6.59381 9.12894C6.31586 9.23408 6.06485 9.39984 5.859 9.61416C5.65315 9.82848 5.49765 10.086 5.40381 10.3679L4.07081 14.3679C3.97066 14.6686 3.9434 14.9888 3.99127 15.302C4.03914 15.6153 4.16076 15.9127 4.34612 16.1698C4.53148 16.4268 4.77527 16.6361 5.05739 16.7804C5.33952 16.9248 5.6519 17 5.96881 16.9999H14.0308C14.3477 16.9999 14.6601 16.9246 14.9422 16.7801C15.2243 16.6356 15.4681 16.4262 15.6533 16.1691C15.8386 15.9119 15.9601 15.6144 16.0078 15.3011C16.0555 14.9878 16.0281 14.6676 15.9278 14.3669L14.5958 10.3669C14.5035 10.0904 14.3518 9.83736 14.1515 9.62558C13.9511 9.4138 13.7068 9.24839 13.4358 9.14094" fill="#505050"/>
</svg>
