<?xml version="1.0" encoding="UTF-8"?>
<svg width="210px" height="46px" viewBox="0 0 210 46" version="1.1" xmlns="http://www.w3.org/2000/svg" xmlns:xlink="http://www.w3.org/1999/xlink">
    <!-- Generator: Sketch 63.1 (92452) - https://sketch.com -->
    <title>logo</title>
    <desc>Created with Sketch.</desc>
    <defs>
        <rect id="path-1" x="0" y="0" width="209.459607" height="46"></rect>
    </defs>
    <g id="Page-1" stroke="none" stroke-width="1" fill="none" fill-rule="evenodd">
        <g id="logo">
            <mask id="mask-2" fill="white">
                <use xlink:href="#path-1"></use>
            </mask>
            <g id="Rectangle_3"></g>
            <g id="Group_1" mask="url(#mask-2)" fill="#00B2ED" fill-rule="nonzero">
                <path d="M7.90853403,1.29804598 L0,1.29804598 L0.0203403141,45.1127816 L7.90853403,45.1127816 L7.90853403,37.0474483 L12.5120419,32.4157241 C12.5120419,32.4157241 12.6439791,32.1328506 12.8363874,32.4056782 L22.1819372,45.1217701 L31.4917539,45.1217701 L18.0775916,27.2446897 L31.9172513,12.7150345 L22.5590576,12.7345977 L7.9382199,28.0758621 L7.90853403,1.29804598 Z" id="Path_1"></path>
                <path d="M53.1591361,11.985908 C43.1912827,11.985908 35.1117801,19.5827816 35.1117801,28.954092 C35.1117801,38.3254023 43.1929319,45.9222759 53.1591361,45.9222759 C63.1253403,45.9222759 71.2064921,38.3254023 71.2064921,28.954092 C71.2064921,19.5827816 63.1253403,11.985908 53.1591361,11.985908 M53.1591361,39.4468506 C47.4698953,39.4468506 42.8581414,34.7490345 42.8581414,28.954092 C42.8581414,23.1591494 47.4698953,18.4618621 53.1591361,18.4618621 C58.848377,18.4618621 63.4601309,23.1596782 63.4601309,28.954092 C63.4601309,34.7485057 58.846178,39.4468506 53.1591361,39.4468506" id="Path_2"></path>
                <rect id="Rectangle_2" x="42.3237958" y="3.6651954" width="21.63" height="4.57673563"></rect>
                <path d="M94.9925654,7.36422989 L97.2838743,2.50832184 C93.8422459,-0.318593176 88.9402266,-0.800385181 84.9752356,1.29857471 C82.3260349,2.97486228 80.7034019,5.79702443 80.6356021,8.84627586 L80.6356021,12.706046 L75.8094503,12.706046 L75.8094503,18.9689195 L80.5773298,18.9689195 L80.6383508,45.0641379 L88.3236911,45.0641379 L88.384712,18.9689195 L96.0084817,18.9689195 L95.9683508,12.7298391 L88.363822,12.7494023 L88.363822,9.55055172 C88.363822,9.55055172 88.6271466,7.20983908 90.2697644,6.58645977 C90.2697644,6.58645977 92.3384293,5.37724138 94.9942147,7.36687356" id="Path_3"></path>
                <path d="M109.889921,12.6885977 L102.238115,12.6885977 L102.238115,33.9083448 C102.238115,33.9083448 102.508586,39.4732874 105.401859,42.100046 C105.401859,42.100046 109.970733,47.3784138 118.136545,45.5061609 C118.136545,45.5061609 123.300236,44.1541839 125.220471,40.9553333 L125.220471,45.1677701 L133.196073,45.062023 L133.196073,12.6885977 L125.274346,12.6885977 L125.274346,32.1143448 C125.274346,32.1143448 125.300733,35.8842299 122.300262,37.7575402 C122.300262,37.7575402 119.569162,39.6033563 116.838613,39.3696552 C116.838613,39.3696552 113.729293,39.7598621 111.269215,36.4573793 C111.269215,36.4573793 109.971283,35.0789655 109.99767,31.7764828 L109.889921,12.6885977 Z" id="Path_4"></path>
                <path d="M149.642592,1.29804598 L141.734058,1.29804598 L141.754398,45.1127816 L149.642592,45.1127816 L149.642592,37.0474483 L154.246099,32.4157241 C154.246099,32.4157241 154.378037,32.1328506 154.570445,32.4056782 L163.915995,45.1217701 L173.223613,45.1217701 L159.811649,27.2446897 L173.650759,12.7171494 L164.292565,12.7367126 L149.669529,28.0758621 L149.642592,1.29804598 Z" id="Path_5"></path>
                <path d="M186.152906,12.7805977 L178.501099,12.7805977 L178.501099,33.9982299 C178.501099,33.9982299 178.771571,39.5631724 181.664843,42.189931 C181.664843,42.189931 186.234267,47.4682989 194.399529,45.596046 C194.399529,45.596046 199.56322,44.244069 201.483455,41.0452184 L201.483455,45.2602989 L209.459058,45.1545517 L209.459058,12.7805977 L201.53733,12.7805977 L201.53733,32.2063448 C201.53733,32.2063448 201.563717,35.9762299 198.563246,37.8495402 C198.563246,37.8495402 195.832147,39.6953563 193.101597,39.4616552 C193.101597,39.4616552 189.992277,39.8518621 187.532199,36.5493793 C187.532199,36.5493793 186.234267,35.1709655 186.260654,31.8684828 L186.152906,12.7805977 Z" id="Path_6"></path>
            </g>
        </g>
    </g>
</svg>