<svg width="519" height="136" viewBox="0 0 519 136" fill="none" xmlns="http://www.w3.org/2000/svg">
<path d="M275.047 90.5766V91.4336C276.329 102.389 285.437 110.835 297.136 111.055C308.001 111.259 317.276 103.159 319.023 92.4453C319.093 92.0276 319.105 91.6006 319.105 91.1768V56.6248C319.105 50.9507 323.811 46.3532 329.612 46.3532H329.751C335.862 46.3532 340.815 51.1951 340.815 57.1693L340.78 122.307C340.78 128.238 335.862 133.046 329.795 133.046H329.704C325.359 133.046 321.602 130.58 319.82 127C313.229 130.824 305.494 133.027 297.219 133.027C273.142 133.027 253.629 114.384 253.629 91.381C253.629 91.1149 253.635 90.8519 253.638 90.5859H253.651V85.2428C253.594 84.8004 253.562 84.3487 253.562 83.8908V56.9868C253.562 51.0466 258.49 46.2295 264.566 46.2295H264.693C270.455 46.2295 275.129 50.796 275.129 56.433V83.8134C275.129 84.2651 275.098 84.7076 275.044 85.1438V90.5085" fill="white"/>
<path d="M150.611 13.5229H95.7743C89.6222 13.5229 84.6348 18.3988 84.6348 24.4133C84.6348 30.4277 89.6222 35.3036 95.7743 35.3036H150.611C156.763 35.3036 161.751 30.4277 161.751 24.4133C161.751 18.3988 156.763 13.5229 150.611 13.5229Z" fill="white"/>
<path d="M374.064 122.273C374.064 128.213 369.136 133.03 363.06 133.03C356.984 133.03 352.057 128.213 352.057 122.273V13.7563C352.057 7.81613 356.984 2.99902 363.06 2.99902C369.136 2.99902 374.064 7.81613 374.064 13.7563V65.9556L400.65 39.4073C404.9 35.1626 411.865 35.0914 416.207 39.2464L416.258 39.2928C420.599 43.4479 420.672 50.2574 416.422 54.5022L390.789 80.1006C390.839 80.147 391.08 80.3821 391.13 80.4285L427.723 114.374C432.065 118.529 432.138 125.339 427.888 129.583L427.66 129.812C423.41 134.057 416.444 134.128 412.102 129.973L407.713 125.772L374.25 94.1342V96.368L374.07 122.273H374.064Z" fill="white"/>
<path d="M235.803 24.3448L239.072 24.1653C245.183 23.8312 250.984 19.6731 250.642 13.6834L250.617 13.2595C250.275 7.26678 244.408 2.68171 238.297 3.01894L236.281 3.13031C233.275 3.03441 229.765 3.55727 229.765 3.55727C193.214 8.80442 193.533 42.7964 193.198 43.8916L193.185 46.342H178.641C172.669 46.5121 167.881 51.3076 167.881 57.2044V57.3127C167.881 63.3148 172.843 68.1814 178.963 68.1814H193.16V123.051C193.16 128.561 197.717 133.031 203.337 133.031H204.989C210.61 133.031 215.167 128.564 215.167 123.051V68.1814H233.911C240.031 68.1814 244.993 63.3148 244.993 57.3127V57.2044C244.993 51.3076 240.205 46.5121 234.234 46.342H215.164V43.8916C216.208 29.8023 229.335 25.0471 235.8 24.351L235.803 24.3448Z" fill="white"/>
<path d="M123.525 46.5825C99.1543 46.5825 79.3975 65.8974 79.3975 89.723C79.3975 113.549 99.1543 132.864 123.525 132.864C147.896 132.864 167.653 113.549 167.653 89.723C167.653 65.8974 147.896 46.5825 123.525 46.5825ZM123.655 111.296C111.468 111.296 101.591 101.637 101.591 89.7261C101.591 77.8148 111.471 68.1559 123.655 68.1559C135.839 68.1559 145.719 77.8148 145.719 89.7261C145.719 101.637 135.839 111.296 123.655 111.296Z" fill="white"/>
<path d="M452.504 90.4755V91.3325C453.786 102.288 462.894 110.734 474.593 110.954C485.458 111.158 494.733 103.058 496.48 92.3442C496.55 91.9265 496.562 91.4996 496.562 91.0757V56.6134C496.562 50.9393 501.268 46.3419 507.069 46.3419H507.208C513.319 46.3419 518.272 51.1837 518.272 57.158L518.237 122.206C518.237 128.137 513.319 132.945 507.252 132.945H507.161C502.816 132.945 499.059 130.479 497.277 126.899C490.686 130.723 482.951 132.926 474.676 132.926C450.599 132.926 431.086 114.283 431.086 91.2799L431.02 56.8857C431.02 50.9455 435.947 46.1284 442.023 46.1284H442.15C447.912 46.1284 452.587 50.6949 452.587 56.3319V83.7124C452.587 84.1641 452.555 84.6065 452.501 85.0427V90.4074" fill="white"/>
<path d="M22.3203 122.403C22.3203 128.343 17.393 133.16 11.3169 133.16C5.24081 133.16 0.313477 128.343 0.313477 122.403V13.8862C0.313477 7.94601 5.24081 3.12891 11.3169 3.12891C17.393 3.12891 22.3203 7.94601 22.3203 13.8862V66.0854L48.9064 39.5372C53.1565 35.2924 60.1219 35.2213 64.4638 39.3763L64.5144 39.4227C68.8563 43.5778 68.9291 50.3873 64.679 54.632L39.0454 80.2305C39.0961 80.2769 39.3366 80.512 39.3872 80.5584L75.9799 114.504C80.3218 118.659 80.3945 125.469 76.1444 129.713L75.9166 129.942C71.6665 134.187 64.7011 134.258 60.3593 130.103L55.9699 125.902L22.5071 94.2641V96.4979L22.3267 122.403H22.3203Z" fill="white"/>
</svg>
