<svg width="38" height="48" viewBox="0 0 38 48" fill="none" xmlns="http://www.w3.org/2000/svg">
<path d="M29.4405 1.21387H7.98703C5.59844 1.21387 3.66211 3.06918 3.66211 5.35783V5.40157C3.66211 7.69021 5.59844 9.54553 7.98703 9.54553H29.4405C31.8291 9.54553 33.7654 7.69021 33.7654 5.40157V5.35783C33.7654 3.06918 31.8291 1.21387 29.4405 1.21387Z" fill="#00B2ED"/>
<path d="M18.84 12.9019C9.07186 12.9019 1.15234 20.49 1.15234 29.8495C1.15234 39.2089 9.07186 46.7971 18.84 46.7971C28.6082 46.7971 36.5277 39.2089 36.5277 29.8495C36.5277 20.49 28.6082 12.9019 18.84 12.9019ZM18.84 37.7656C14.1956 37.7656 10.4298 34.223 10.4298 29.8495C10.4298 25.4759 14.1956 21.9333 18.84 21.9333C23.4845 21.9333 27.2502 25.4759 27.2502 29.8495C27.2502 34.223 23.4845 37.7656 18.84 37.7656Z" fill="#00B2ED"/>
</svg>
