<svg width="24" height="24" viewBox="0 0 24 24" fill="none" xmlns="http://www.w3.org/2000/svg">
<path d="M5.5 18.77C5.358 18.77 5.23933 18.7217 5.144 18.625C5.048 18.529 5 18.4107 5 18.27C5 18.128 5.048 18.0093 5.144 17.914C5.23933 17.818 5.358 17.77 5.5 17.77H6.615V9.846C6.615 8.53933 7.02833 7.39033 7.855 6.399C8.683 5.40767 9.73133 4.79 11 4.546V4C11 3.722 11.097 3.486 11.291 3.292C11.485 3.09733 11.7207 3 11.998 3C12.2747 3 12.511 3.09733 12.707 3.292C12.9023 3.486 13 3.722 13 4V4.546C14.2693 4.79 15.3173 5.40767 16.144 6.399C16.9707 7.391 17.384 8.54 17.384 9.846V17.769H18.5C18.642 17.769 18.7607 17.817 18.856 17.913C18.9513 18.009 18.9993 18.128 19 18.27C19 18.412 18.952 18.5307 18.856 18.626C18.76 18.7213 18.6413 18.769 18.5 18.769L5.5 18.77ZM11.997 21.385C11.5517 21.385 11.1717 21.2267 10.857 20.91C10.5423 20.594 10.385 20.214 10.385 19.77H13.615C13.615 20.2167 13.4567 20.5977 13.14 20.913C12.8227 21.2277 12.4417 21.385 11.997 21.385ZM7.615 17.769H16.385V9.846C16.385 8.63067 15.958 7.596 15.104 6.742C14.2507 5.88867 13.216 5.462 12 5.462C10.784 5.462 9.74933 5.88867 8.896 6.742C8.04267 7.596 7.616 8.63067 7.616 9.846L7.615 17.769Z" fill="black"/>
</svg>
