<svg width="10" height="10" viewBox="0 0 10 10" fill="none" xmlns="http://www.w3.org/2000/svg">
<rect x="0.344112" y="0.344112" width="9.31178" height="9.31178" rx="4.65589" fill="white"/>
<rect x="0.344112" y="0.344112" width="9.31178" height="9.31178" rx="4.65589" stroke="#00B2ED" stroke-width="0.688223"/>
<path d="M6.5 4.72727C6.5 5.48039 5.82843 6.09091 5 6.09091C4.17157 6.09091 3.5 5.48039 3.5 4.72727C3.5 3.97416 4.17157 3.36364 5 3.36364C5.82843 3.36364 6.5 3.97416 6.5 4.72727ZM6 4.72727C6 4.2252 5.55228 3.81818 5 3.81818C4.44772 3.81818 4 4.2252 4 4.72727C4 5.22935 4.44772 5.63636 5 5.63636C5.55228 5.63636 6 5.22935 6 4.72727ZM4.30902 2C4.02494 2 3.76524 2.14591 3.6382 2.3769L3.34549 2.90909H3C2.44772 2.90909 2 3.3161 2 3.81818V6.09091C2 6.59299 2.44772 7 3 7H7C7.55228 7 8 6.59299 8 6.09091V3.81818C8 3.3161 7.55228 2.90909 7 2.90909H6.65451L6.3618 2.3769C6.23476 2.14591 5.97506 2 5.69098 2H4.30902ZM4.08541 2.58018C4.12776 2.50318 4.21432 2.45455 4.30902 2.45455H5.69098C5.78568 2.45455 5.87224 2.50318 5.91459 2.58018L6.27639 3.238C6.31874 3.315 6.40531 3.36364 6.5 3.36364H7C7.27614 3.36364 7.5 3.56714 7.5 3.81818V6.09091C7.5 6.34195 7.27614 6.54545 7 6.54545H3C2.72386 6.54545 2.5 6.34195 2.5 6.09091V3.81818C2.5 3.56714 2.72386 3.36364 3 3.36364H3.5C3.59469 3.36364 3.68126 3.315 3.72361 3.238L4.08541 2.58018Z" fill="#00B2ED"/>
</svg>
