<svg width="18" height="19" viewBox="0 0 18 19" fill="none" xmlns="http://www.w3.org/2000/svg">
<path d="M7.75 3.44604C7.75 1.92726 6.51878 0.696045 5 0.696045C3.48122 0.696045 2.25 1.92726 2.25 3.44604C2.25 4.96483 3.48122 6.19604 5 6.19604C6.51878 6.19604 7.75 4.96483 7.75 3.44604ZM3.25 3.44604C3.25 2.47955 4.0335 1.69604 5 1.69604C5.9665 1.69604 6.75 2.47955 6.75 3.44604C6.75 4.41254 5.9665 5.19604 5 5.19604C4.0335 5.19604 3.25 4.41254 3.25 3.44604ZM1.5 7.19604H5.68252C5.51859 7.50617 5.39687 7.84205 5.32501 8.19604H1.5C1.22386 8.19604 1 8.4199 1 8.69604V9.19604C1 10.4551 2.09851 11.8099 4.09636 12.127C3.77396 12.3461 3.50546 12.6386 3.31486 12.9805C1.20563 12.4079 0 10.7835 0 9.19604V8.69604C0 7.86762 0.671573 7.19604 1.5 7.19604ZM6.87858 7.19604C7.38298 6.58529 8.14603 6.19604 9 6.19604C9.85397 6.19604 10.617 6.58529 11.1214 7.19604C11.3605 7.48556 11.5415 7.82485 11.6465 8.19604C11.7139 8.43446 11.75 8.68604 11.75 8.94604C11.75 10.0161 11.1389 10.9434 10.2466 11.3979C9.89194 11.5786 9.49291 11.6846 9.07018 11.6952C9.04686 11.6958 9.02346 11.696 9 11.696C8.97654 11.696 8.95315 11.6957 8.92983 11.6952C8.50709 11.6846 8.10806 11.5786 7.75342 11.3979C6.86115 10.9434 6.25 10.0161 6.25 8.94604C6.25 8.68604 6.28608 8.43446 6.35352 8.19604C6.4585 7.82485 6.63948 7.48556 6.87858 7.19604ZM7.41841 8.19604C7.31042 8.42336 7.25 8.67765 7.25 8.94604C7.25 9.66011 7.67768 10.2743 8.29086 10.5464C8.50763 10.6426 8.74757 10.696 9 10.696C9.25243 10.696 9.49238 10.6426 9.70914 10.5464C10.3223 10.2743 10.75 9.66011 10.75 8.94604C10.75 8.67765 10.6896 8.42336 10.5816 8.19604C10.3362 7.67955 9.84532 7.30231 9.25972 7.21519C9.17498 7.20258 9.08825 7.19604 9 7.19604C8.91175 7.19604 8.82502 7.20258 8.74028 7.21519C8.15468 7.30231 7.66377 7.67955 7.41841 8.19604ZM14.6851 12.9805C14.4945 12.6386 14.226 12.3461 13.9036 12.127C15.9015 11.8099 17 10.4551 17 9.19604V8.69604C17 8.4199 16.7761 8.19604 16.5 8.19604H12.675C12.6031 7.84205 12.4814 7.50617 12.3175 7.19604H16.5C17.3284 7.19604 18 7.86762 18 8.69604V9.19604C18 10.7835 16.7944 12.4079 14.6851 12.9805ZM13.4872 13.0667C13.2234 12.8359 12.878 12.696 12.5 12.696H5.5C5.06797 12.696 4.6786 12.8787 4.40489 13.171C4.15376 13.4392 4 13.7996 4 14.196V14.696C4 16.6675 5.85951 18.696 9 18.696C12.1405 18.696 14 16.6675 14 14.696V14.196C14 13.7456 13.8015 13.3416 13.4872 13.0667ZM5 14.196C5 13.9199 5.22386 13.696 5.5 13.696H12.5C12.7761 13.696 13 13.9199 13 14.196V14.696C13 16.1337 11.5678 17.696 9 17.696C6.43216 17.696 5 16.1337 5 14.696V14.196ZM13 0.696045C14.5188 0.696045 15.75 1.92726 15.75 3.44604C15.75 4.96483 14.5188 6.19604 13 6.19604C11.4812 6.19604 10.25 4.96483 10.25 3.44604C10.25 1.92726 11.4812 0.696045 13 0.696045ZM13 1.69604C12.0335 1.69604 11.25 2.47955 11.25 3.44604C11.25 4.41254 12.0335 5.19604 13 5.19604C13.9665 5.19604 14.75 4.41254 14.75 3.44604C14.75 2.47955 13.9665 1.69604 13 1.69604Z" fill="#212121"/>
</svg>
