<svg width="25" height="24" viewBox="0 0 25 24" fill="none" xmlns="http://www.w3.org/2000/svg">
<path d="M12.9915 4.66707V19.3329C12.9916 19.4622 12.9533 19.5886 12.8813 19.697C12.8092 19.8053 12.7066 19.8908 12.5858 19.943C12.465 19.9953 12.3313 20.0121 12.2009 19.9914C12.0706 19.9706 11.9492 19.9133 11.8516 19.8262L7.0511 15.5554H4.58956C4.16798 15.5554 3.76367 15.3915 3.46557 15.0998C3.16747 14.8081 3 14.4124 3 13.9999V10.0001C3 9.14149 3.71212 8.44464 4.58956 8.44464H7.0511L11.8516 4.17376C11.9492 4.08675 12.0706 4.02938 12.2009 4.00864C12.3313 3.9879 12.465 4.00469 12.5858 4.05696C12.7066 4.10922 12.8092 4.19472 12.8813 4.30304C12.9533 4.41136 12.9916 4.53784 12.9915 4.66707ZM7.77321 9.60458C7.64779 9.71637 7.48416 9.77819 7.31451 9.7779H4.58956C4.52933 9.7779 4.47157 9.80131 4.42899 9.84298C4.3864 9.88466 4.36248 9.94118 4.36248 10.0001V13.9999C4.36248 14.1226 4.46421 14.2221 4.58956 14.2221H7.31451C7.48437 14.2221 7.64787 14.2834 7.77321 14.3954L11.629 17.8263V6.17365L7.77321 9.60458ZM16.8791 8.64019C16.8167 8.57469 16.7415 8.52216 16.658 8.48572C16.5744 8.44929 16.4842 8.4297 16.3927 8.42812C16.3013 8.42654 16.2104 8.443 16.1256 8.47653C16.0407 8.51006 15.9637 8.55996 15.899 8.62326C15.8343 8.68657 15.7833 8.76197 15.749 8.84498C15.7148 8.92798 15.698 9.01689 15.6996 9.1064C15.7012 9.19591 15.7212 9.28418 15.7584 9.36596C15.7957 9.44773 15.8494 9.52133 15.9163 9.58236L18.3869 12L15.9163 14.4176C15.8494 14.4787 15.7957 14.5523 15.7584 14.634C15.7212 14.7158 15.7012 14.8041 15.6996 14.8936C15.698 14.9831 15.7148 15.072 15.749 15.155C15.7833 15.238 15.8343 15.3134 15.899 15.3767C15.9637 15.44 16.0407 15.4899 16.1256 15.5235C16.2104 15.557 16.3013 15.5735 16.3927 15.5719C16.4842 15.5703 16.5744 15.5507 16.658 15.5143C16.7415 15.4778 16.8167 15.4253 16.8791 15.3598L19.3497 12.9422L21.8204 15.3598C21.8827 15.4253 21.9579 15.4778 22.0415 15.5143C22.1251 15.5507 22.2153 15.5703 22.3067 15.5719C22.3982 15.5735 22.4891 15.557 22.5739 15.5235C22.6587 15.4899 22.7358 15.44 22.8005 15.3767C22.8652 15.3134 22.9162 15.238 22.9504 15.155C22.9847 15.072 23.0015 14.9831 22.9999 14.8936C22.9983 14.8041 22.9783 14.7158 22.941 14.634C22.9038 14.5523 22.8501 14.4787 22.7832 14.4176L20.3125 12L22.7832 9.58236C22.9035 9.45598 22.969 9.28884 22.9659 9.11614C22.9628 8.94344 22.8913 8.77866 22.7665 8.65652C22.6417 8.53438 22.4733 8.46442 22.2968 8.46137C22.1203 8.45833 21.9495 8.52243 21.8204 8.64019L19.3497 11.0578L16.8791 8.64019Z" fill="#00B2ED"/>
</svg>
