<svg width="20" height="20" viewBox="0 0 20 20" fill="none" xmlns="http://www.w3.org/2000/svg">
<path d="M14.7751 9.23042L12.2043 11.8099C12.4235 12.4191 12.5144 13.4393 11.5701 14.6947C11.504 14.783 11.4197 14.8559 11.3229 14.9086C11.2261 14.9613 11.119 14.9925 11.009 15H10.9547C10.8536 15 10.7535 14.9801 10.6601 14.9414C10.5667 14.9027 10.4819 14.846 10.4104 14.7745L8.09006 12.4518L6.04041 14.5029C5.96824 14.575 5.87035 14.6156 5.76828 14.6156C5.66621 14.6156 5.56832 14.575 5.49615 14.5029C5.42397 14.4307 5.38343 14.3328 5.38343 14.2307C5.38343 14.1287 5.42397 14.0308 5.49615 13.9586L7.54724 11.909L5.22498 9.5867C5.14865 9.51027 5.08926 9.41862 5.0507 9.31773C5.01213 9.21683 4.99525 9.10894 5.00115 9.00108C5.00704 8.89323 5.03559 8.78782 5.08492 8.69173C5.13426 8.59564 5.20327 8.51101 5.28748 8.44336C6.50967 7.45724 7.67946 7.651 8.19151 7.81159L10.7686 5.22538C10.84 5.15393 10.9248 5.09725 11.0182 5.05857C11.1115 5.0199 11.2116 5 11.3126 5C11.4137 5 11.5137 5.0199 11.6071 5.05857C11.7004 5.09725 11.7852 5.15393 11.8566 5.22538L14.7746 8.14286C14.9188 8.28705 14.9999 8.4826 15 8.68654C15.0001 8.89048 14.9192 9.08611 14.7751 9.23042Z" fill="black" fill-opacity="0.4"/>
</svg>
