<svg width="512" height="447" viewBox="0 0 512 447" fill="none" xmlns="http://www.w3.org/2000/svg">
<path d="M198.83 265.663C198.83 265.663 268.81 260.124 275.81 275.88C275.81 275.88 277.122 283.119 265.316 280.989C265.316 280.989 271.005 291.636 264.439 297.598C264.439 297.598 262.251 304.837 256.127 306.968C256.127 306.968 258.315 322.3 248.256 322.724C248.256 322.724 240.385 322.3 242.567 304.414C242.567 304.414 242.567 292.489 225.072 288.658C225.072 288.658 215.448 289.082 219.825 298.875C223.847 307.887 227.502 316.384 221.244 319.251C220.173 319.74 218.915 319.59 217.944 318.938C213.902 316.24 202.772 308.017 202.772 299.305C202.772 288.658 202.337 293.721 202.337 293.721C202.337 293.721 189.654 302.707 187.465 303.56C185.277 304.414 186.153 275.033 198.836 265.663H198.83Z" fill="#FACFD7" stroke="black" stroke-width="2" stroke-linecap="round" stroke-linejoin="round"/>
<path d="M256.126 306.97C256.126 306.97 257.699 290.693 245.451 281.61L256.126 306.97Z" fill="#FACFD7"/>
<path d="M256.126 306.97C256.126 306.97 257.699 290.693 245.451 281.61" stroke="black" stroke-width="2" stroke-linecap="round" stroke-linejoin="round"/>
<path d="M264.431 297.604C264.431 297.604 265.763 287.289 256.186 279.339L264.431 297.604Z" fill="#FACFD7"/>
<path d="M264.431 297.604C264.431 297.604 265.763 287.289 256.186 279.339" stroke="black" stroke-width="2" stroke-linecap="round" stroke-linejoin="round"/>
<path d="M265.638 281.61C265.638 281.61 263.71 275.446 256.227 273.302L265.638 281.61Z" fill="#FACFD7"/>
<path d="M265.638 281.61C265.638 281.61 263.71 275.446 256.227 273.302" stroke="black" stroke-width="2" stroke-linecap="round" stroke-linejoin="round"/>
<path d="M212.388 313.867C212.388 313.867 214.356 311.632 216.431 312.485C218.506 313.339 220.808 314.981 218.834 318.474C218.834 318.474 213.914 316.643 212.382 313.873L212.388 313.867Z" fill="white" stroke="black" stroke-width="2" stroke-linecap="round" stroke-linejoin="round"/>
<path d="M256.194 310.886C256.194 310.886 252.379 308.756 249.976 310.886C247.573 313.017 245.552 318.341 250.826 321.103C250.826 321.103 256.629 322.029 256.194 310.886Z" fill="white" stroke="black" stroke-width="2" stroke-linecap="round" stroke-linejoin="round"/>
<path d="M267.102 270.68C267.102 270.68 264.84 273.182 266.132 275.3C267.424 277.418 271.279 279.744 274.27 276.258C274.27 276.258 275.897 272.094 267.102 270.68Z" fill="white" stroke="black" stroke-width="2" stroke-linecap="round" stroke-linejoin="round"/>
<path d="M188.214 285.315C188.214 285.315 199.177 268.425 207.081 265.167L198.829 265.662C198.829 265.662 189.901 271.246 188.214 285.315Z" fill="black"/>
<path d="M407.665 359.38C409.158 359.705 410.778 359.171 411.728 357.894C412.678 356.617 412.705 354.955 411.929 353.678C409.492 354.454 407.692 356.884 407.665 359.38Z" fill="white"/>
<path d="M418.134 348.719C419.319 345.8 422.725 344.36 425.724 345.514C428.722 346.667 430.201 349.984 429.017 352.903C427.832 355.822 424.425 357.262 421.427 356.109C418.429 354.955 416.95 351.639 418.134 348.719ZM420.249 349.534C419.526 351.326 420.43 353.352 422.264 354.056C422.732 354.239 423.214 354.31 423.683 354.297C425.068 354.258 426.366 353.431 426.908 352.095C427.451 350.759 427.082 349.299 426.105 348.348C425.771 348.022 425.362 347.755 424.894 347.573C423.06 346.869 420.972 347.749 420.249 349.534Z" fill="#3C5885"/>
<path d="M423.112 355.965C423.581 356.148 424.063 356.219 424.531 356.206C423.969 354.01 424.986 351.469 426.947 350.257C426.613 349.931 426.204 349.664 425.736 349.482C423.902 348.778 421.814 349.658 421.091 351.443C420.368 353.228 421.272 355.261 423.106 355.965H423.112Z" fill="#FDDA7A"/>
<path d="M436.345 260.025C435.006 259.51 433.48 260.155 432.951 261.458L430.897 266.521L439.892 269.975L442.904 262.54L436.345 260.018V260.025Z" fill="#9FD3F2"/>
<path d="M402.845 335.693L397.853 348.002C397.324 349.305 397.987 350.791 399.325 351.305L405.884 353.827L411.834 339.153L402.839 335.699L402.845 335.693Z" fill="#9FD3F2"/>
<path d="M480.751 273.134C483.254 274.099 484.486 276.862 483.502 279.305L481.032 285.398L453.812 352.513L448.405 365.845C447.414 368.282 444.57 369.481 442.067 368.523L397.646 351.451C395.143 350.486 393.912 347.724 394.896 345.287L400.303 331.955L427.523 264.84L429.993 258.747C430.983 256.31 433.821 255.111 436.324 256.069L480.744 273.141L480.751 273.134ZM451.283 352.728L410.992 337.239L402.003 333.786L397.011 346.095C396.482 347.398 397.138 348.883 398.483 349.398L405.042 351.92L442.903 366.47C444.248 366.985 445.768 366.346 446.296 365.037L451.289 352.728H451.283ZM479.914 275.194L442.053 260.643L435.494 258.122C434.156 257.607 432.63 258.245 432.101 259.555L430.046 264.618L439.035 268.072L479.325 283.56L481.38 278.497C481.909 277.194 481.253 275.708 479.908 275.194H479.914Z" fill="white" stroke="#0B131E" stroke-width="2" stroke-miterlimit="10"/>
<path d="M465.552 273.179L447.395 266.201C446.812 265.979 446.156 266.253 445.922 266.826C445.688 267.4 445.976 268.032 446.558 268.26L464.716 275.238C465.298 275.46 465.954 275.186 466.188 274.619C466.422 274.053 466.134 273.407 465.552 273.186V273.179Z" fill="#3C5885"/>
<path d="M240.867 366.833C197.826 366.833 164.107 333.628 164.107 291.247C164.107 244.547 200.75 209.328 249.347 209.328C267.986 209.328 282.048 219.779 295.654 229.892L296.17 230.277L298.599 227.338L299.924 232.622L275.208 263.639C266.735 257.787 259.272 254.966 250.364 254.23C249.688 254.171 248.979 254.145 248.249 254.145C233.144 254.145 211.86 265.046 211.86 289.279C211.86 312.229 227.555 327.346 251.903 327.946L251.736 366.136C248.102 366.599 244.448 366.833 240.86 366.833H240.867Z" fill="#005C9A"/>
<path d="M249.355 209.979C267.767 209.979 281.741 220.366 295.254 230.407L296.291 231.176L297.108 230.185L298.279 228.771L299.209 232.466L275.082 262.746C266.723 257.071 259.28 254.314 250.432 253.578C249.736 253.519 249.013 253.493 248.264 253.493C232.877 253.493 211.206 264.597 211.206 289.279C211.206 312.411 226.874 327.717 251.242 328.578L251.081 365.563C247.668 365.973 244.235 366.182 240.868 366.182C198.202 366.182 164.778 333.263 164.778 291.247C164.778 244.918 201.133 209.979 249.348 209.979M249.355 208.676C199.828 208.676 163.446 244.723 163.446 291.247C163.446 333.927 197.425 367.485 240.875 367.485C244.663 367.485 248.511 367.231 252.427 366.703L252.594 327.307C228.138 326.975 212.551 312.333 212.551 289.279C212.551 264.225 235.072 254.803 248.27 254.797C248.987 254.797 249.669 254.823 250.325 254.881C260.425 255.715 267.88 259.286 275.356 264.538L300.668 232.779L298.948 225.911L296.077 229.384C282.33 219.167 268.054 208.689 249.368 208.689L249.355 208.676Z" fill="#081012"/>
<path d="M166.959 382.154C154.108 372.464 148.071 356.48 151.418 340.992L157.073 314.836L140.268 335.974C130.315 348.492 113.898 354.363 97.9891 351.105L71.1242 345.592L92.8357 361.954C105.686 371.643 111.729 387.627 108.376 403.116L102.721 429.271L119.527 408.133C129.479 395.622 145.896 389.745 161.805 393.003L188.663 398.509L166.959 382.147V382.154Z" fill="white" stroke="#081E40" stroke-width="2" stroke-miterlimit="10"/>
<path d="M186.676 181.23C172.956 181.23 161.719 170.362 161.632 157.004C161.538 143.555 172.702 132.543 186.516 132.451L313.311 131.624C327.031 131.624 338.269 142.493 338.356 155.851C338.402 162.36 335.839 168.498 331.134 173.138C326.429 177.777 320.158 180.357 313.472 180.403L186.676 181.23Z" fill="#005C9A"/>
<path d="M313.304 130.977V132.281C326.657 132.281 337.593 142.856 337.68 155.862C337.726 162.196 335.23 168.171 330.652 172.687C326.074 177.202 319.97 179.711 313.465 179.756L186.844 180.584H186.676C173.324 180.584 162.388 170.008 162.301 157.009C162.214 143.918 173.077 133.199 186.516 133.115L313.137 132.287H313.304V130.984M313.304 130.977C313.244 130.977 313.184 130.977 313.13 130.977L186.509 131.805C172.314 131.896 160.869 143.195 160.963 157.015C161.056 170.777 172.561 181.887 186.676 181.887C186.737 181.887 186.797 181.887 186.85 181.887L313.472 181.06C327.667 180.968 339.112 169.67 339.018 155.849C338.924 142.087 327.42 130.977 313.304 130.977Z" fill="#081012"/>
<path d="M186.261 173.625C172.541 173.625 161.303 162.756 161.216 149.398C161.169 142.889 163.74 136.751 168.438 132.111C173.143 127.472 179.414 124.892 186.1 124.846L312.895 124.018C326.616 124.018 337.853 134.887 337.94 148.245C338.034 161.694 326.87 172.706 313.056 172.798L186.261 173.625Z" fill="#1EAFE5"/>
<path d="M312.897 123.367V124.67C326.249 124.67 337.185 135.246 337.272 148.252C337.319 154.585 334.822 160.56 330.244 165.076C325.666 169.592 319.563 172.1 313.057 172.146L186.436 172.973H186.269C172.916 172.973 161.98 162.398 161.893 149.398C161.847 143.065 164.343 137.09 168.921 132.574C173.499 128.058 179.603 125.55 186.108 125.504L312.729 124.677H312.897V123.373M312.897 123.367C312.836 123.367 312.776 123.367 312.723 123.367L186.101 124.194C171.906 124.286 160.461 135.584 160.555 149.405C160.649 163.167 172.153 174.277 186.269 174.277C186.329 174.277 186.389 174.277 186.443 174.277L313.064 173.449C327.259 173.358 338.704 162.059 338.61 148.239C338.517 134.477 327.012 123.367 312.897 123.367Z" fill="#05222C"/>
<path d="M246.315 371.4C224.409 371.139 203.856 362.682 188.369 347.551C172.721 332.258 164.107 311.948 164.107 290.36C164.107 245.667 201.453 209.307 247.359 209.307C265.865 209.307 283.353 215.08 297.983 226.014L272.571 256.718C265.276 251.577 256.655 248.86 247.607 248.86C224.102 248.86 204.98 267.476 204.98 290.36C204.98 313.245 223.466 331.164 246.322 331.835V371.4H246.315Z" fill="#1EAFE5"/>
<path d="M247.359 209.954C265.483 209.954 282.63 215.538 297.033 226.12L272.444 255.82C265.142 250.829 256.582 248.196 247.6 248.196C223.727 248.196 204.304 267.106 204.304 290.349C204.304 313.591 222.73 331.445 245.646 332.449V370.73C224.168 370.307 204.043 361.94 188.844 347.084C173.323 331.914 164.776 311.767 164.776 290.355C164.776 268.943 173.363 248.692 188.964 233.503C204.565 218.314 225.3 209.954 247.359 209.954ZM247.359 208.651C201.011 208.651 163.438 245.232 163.438 290.355C163.438 335.479 200.811 371.858 246.984 372.053V331.191C224.095 330.865 205.643 312.712 205.643 290.355C205.643 267.999 224.43 249.506 247.6 249.506C257.003 249.506 265.691 252.517 272.685 257.606L298.927 225.905C284.698 215.095 266.802 208.657 247.352 208.657L247.359 208.651Z" fill="#05222C"/>
<path d="M299.141 359.152C289.865 359.152 280.749 357.621 272.056 354.604C271.734 354.135 270.73 352.558 269.907 351.268C268.763 349.463 268.174 348.544 267.846 348.062L286.137 315.808C286.137 315.808 286.171 315.821 286.191 315.827C290.849 317.456 295.701 318.284 300.607 318.284C318.537 318.284 334.66 307.239 340.724 290.806C345.409 278.119 341.119 258.538 334.118 247.78L366.806 228.382L375.098 231.047C387.446 250.256 389.186 278.223 379.636 304.105C373.652 320.317 362.656 334.17 347.832 344.159C333.475 353.835 316.188 359.165 299.148 359.165L299.141 359.152Z" fill="#005C9A"/>
<path d="M366.886 229.077L374.657 231.573C386.784 250.606 388.457 278.254 379 303.868C373.064 319.956 362.154 333.699 347.444 343.61C333.201 353.214 316.041 358.499 299.135 358.499C290.013 358.499 281.044 357.007 272.484 354.061C272.083 353.449 271.172 352.022 270.476 350.927C269.579 349.513 269.004 348.614 268.616 348.034L286.439 316.601C291.023 318.145 295.782 318.927 300.594 318.927C318.805 318.927 335.182 307.713 341.34 291.019C346.005 278.371 341.895 258.992 335.028 247.987L361.157 232.479L366.879 229.084M366.719 227.65L360.468 231.358L333.181 247.557C340.235 257.937 344.746 277.954 340.088 290.569C333.937 307.237 317.801 317.617 300.601 317.617C295.889 317.617 291.097 316.842 286.412 315.2C286.218 315.128 286.024 315.05 285.83 314.978L267.056 348.086C267.177 348.125 271.514 355.104 271.634 355.143C280.669 358.303 289.959 359.796 299.142 359.796C334.259 359.796 367.837 337.967 380.265 304.298C389.361 279.648 388.872 251.03 375.54 230.472L366.719 227.644V227.65Z" fill="#081012"/>
<path d="M295.789 352.398C286.306 352.398 276.929 350.815 267.914 347.693L281.647 310.474C286.292 312.096 291.131 312.917 296.017 312.917C313.947 312.917 330.07 301.873 336.134 285.439C340.651 273.209 339.112 259.981 331.937 249.047L366.492 228.535C380.005 249.718 382.789 275.268 374.129 298.732C362.282 330.83 330.793 352.398 295.783 352.398H295.789Z" fill="#1EAFE5"/>
<path d="M366.277 229.434C372.448 239.293 376.43 250.494 377.822 261.917C379.335 274.343 377.882 286.652 373.505 298.511C367.642 314.403 357.021 327.859 342.805 337.431C328.884 346.795 312.628 351.747 295.788 351.747C286.606 351.747 277.517 350.248 268.77 347.296L282.055 311.302C286.579 312.807 291.271 313.563 296.023 313.563C314.234 313.563 330.611 302.349 336.769 285.655C341.279 273.437 339.847 260.255 332.867 249.256L366.277 229.428M366.719 227.649L331.006 248.846C338.06 259.226 340.168 272.61 335.51 285.225C329.36 301.893 313.223 312.273 296.023 312.273C291.311 312.273 286.519 311.497 281.834 309.855C281.64 309.783 281.446 309.705 281.252 309.634L267.056 348.091C267.177 348.13 267.29 348.176 267.411 348.222C276.788 351.499 286.365 353.056 295.788 353.056C330.196 353.056 362.462 332.303 374.77 298.96C383.866 274.31 380.051 248.207 366.719 227.655V227.649Z" fill="#05222C"/>
<path d="M252.42 366.709L246.986 372.052V331.19L252.588 328.199L252.42 366.709Z" fill="#005C9A"/>
<path d="M125.369 354.292C125.369 354.292 145.922 354.611 149.791 356.247C149.791 356.247 155.627 336.451 170.552 332.229C173.918 331.277 177.639 332.118 179.888 334.737C181.996 337.194 182.639 341.032 175.765 346.245C175.765 346.245 167.935 352.102 173.249 358.006C178.563 363.909 191.467 367.747 193.374 367.011C194.592 366.542 192.946 363.453 191.601 361.29C190.369 359.309 190.47 356.742 192.016 354.983C193.281 353.536 195.369 352.721 198.755 354.715C198.755 354.715 197.932 346.225 205.843 346.303C205.843 346.303 207.108 343.312 209.591 341.533C213.165 338.979 218.472 341.084 219.128 345.352C219.162 345.593 219.168 345.808 219.142 346.003C218.927 347.268 224.188 343.071 227.628 345.762C228.92 346.772 229.415 348.467 229.06 350.037C228.351 353.165 226.45 360.059 222.287 366.92C217.254 375.208 208.788 381.001 199.123 383.047C194.392 384.051 188.535 385.074 183.228 385.399C183.228 385.399 144.691 386.044 142.261 388.683C142.261 388.683 123.816 364.828 125.369 354.292Z" fill="#FACFD7" stroke="black" stroke-width="2" stroke-linecap="round" stroke-linejoin="round"/>
<path d="M219.149 346.012C219.149 346.012 212.034 370.694 193.388 367.013L219.149 346.012Z" fill="#FACFD7"/>
<path d="M219.149 346.012C219.149 346.012 212.034 370.694 193.388 367.013" stroke="black" stroke-width="2" stroke-linecap="round" stroke-linejoin="round"/>
<path d="M205.851 346.302C205.851 346.302 212.771 352.316 206.38 364.586L205.851 346.302Z" fill="#FACFD7"/>
<path d="M205.851 346.302C205.851 346.302 212.771 352.316 206.38 364.586" stroke="black" stroke-width="2" stroke-linecap="round" stroke-linejoin="round"/>
<path d="M198.761 354.706C198.761 354.706 204.021 360.369 200.608 366.8L198.761 354.706Z" fill="#FACFD7"/>
<path d="M198.761 354.706C198.761 354.706 204.021 360.369 200.608 366.8" stroke="black" stroke-width="2" stroke-linecap="round" stroke-linejoin="round"/>
<path d="M170.616 342.286C174.459 340.806 176.877 337.892 176.018 335.777C175.159 333.662 171.347 333.147 167.504 334.627C163.662 336.107 161.243 339.021 162.102 341.136C162.961 343.251 166.773 343.766 170.616 342.286Z" fill="white" stroke="black" stroke-width="2" stroke-linecap="round" stroke-linejoin="round"/>
<path d="M228.566 348.929C228.566 348.929 222.716 348.115 222.121 353.314C221.525 358.514 226.176 359.153 226.176 359.153C226.176 359.153 230.246 352.559 228.566 348.929Z" fill="white" stroke="black" stroke-width="2" stroke-linecap="round" stroke-linejoin="round"/>
<path d="M376.283 255.266L364.149 272.443L385.974 271.452L391.355 263.854C391.355 263.854 387.052 252.406 376.276 255.266H376.283Z" fill="#EF6388" stroke="black" stroke-width="2" stroke-linecap="round" stroke-linejoin="round"/>
<path d="M381.998 256.417C381.998 256.417 372.521 257.297 373.873 248.944C375.225 240.597 377.936 238.394 381.998 238.394C381.998 238.394 385.157 221.693 403.214 228.724C403.214 228.724 409.084 229.604 410.436 232.243L427.362 221.14C429.497 219.739 432.395 220.247 433.888 222.286L438.86 229.07C440.406 231.174 439.878 234.107 437.689 235.573L420.361 247.184C420.361 247.184 426.679 262.569 430.294 268.72C431.445 270.681 434.798 275.633 438.827 281.472C450.767 298.759 440.58 322.568 419.471 325.976C415.837 326.563 413.28 326.263 412.685 324.53C409.974 316.619 400.049 281.022 400.049 281.022C400.049 281.022 380.573 278.357 381.992 256.411L381.998 256.417Z" fill="#FACFD7" stroke="black" stroke-width="2" stroke-linecap="round" stroke-linejoin="round"/>
<path d="M410.436 232.246L393.49 244.059C393.49 244.059 386.717 253.286 397.325 259.333C401.635 259.333 405.818 257.958 409.251 255.417L420.368 247.187" fill="#FACFD7"/>
<path d="M410.436 232.246L393.49 244.059C393.49 244.059 386.717 253.286 397.325 259.333C401.635 259.333 405.818 257.958 409.251 255.417L420.368 247.187" stroke="black" stroke-width="2" stroke-linecap="round" stroke-linejoin="round"/>
<path d="M381.999 256.421C381.999 256.421 379.502 248.843 384.013 245.793C388.524 242.744 391.362 245.793 391.362 245.793" fill="#FACFD7"/>
<path d="M381.999 256.421C381.999 256.421 379.502 248.843 384.013 245.793C388.524 242.744 391.362 245.793 391.362 245.793" stroke="black" stroke-width="2" stroke-linecap="round" stroke-linejoin="round"/>
<path d="M403.215 228.733C403.215 228.733 391.235 231.19 389.427 244.437L403.215 228.733Z" fill="#FACFD7"/>
<path d="M403.215 228.733C403.215 228.733 391.235 231.19 389.427 244.437" stroke="black" stroke-width="2" stroke-linecap="round" stroke-linejoin="round"/>
<path d="M381.998 238.4C381.998 238.4 380.854 243.124 384.013 245.79L381.998 238.4Z" fill="#FACFD7"/>
<path d="M381.998 238.4C381.998 238.4 380.854 243.124 384.013 245.79" stroke="black" stroke-width="2" stroke-linecap="round" stroke-linejoin="round"/>
<path d="M386.336 245.793C386.336 245.793 387.775 253.808 385.218 255.417C382.662 257.026 381.31 255.417 381.31 255.417C381.31 255.417 380.714 244.424 386.336 245.793Z" fill="white" stroke="black" stroke-width="2" stroke-linecap="round" stroke-linejoin="round"/>
<path d="M375.514 245.675C375.514 245.675 381.49 249.141 377.762 253.807C374.028 258.466 372.355 247.434 375.514 245.675Z" fill="white" stroke="black" stroke-width="2" stroke-linecap="round" stroke-linejoin="round"/>
<path d="M394.621 243.296L427.362 221.142C427.362 221.142 431.284 218.744 433.887 222.289C436.491 225.833 439.636 230.766 439.636 230.766C439.636 230.766 440.279 233.835 437.689 235.575C435.668 236.93 414.813 251.904 405.69 258.453C401.742 261.287 396.1 260.831 392.961 257.156C390.886 254.732 389.969 251.018 392.773 245.394C393.188 244.554 393.831 243.831 394.621 243.296Z" fill="#EF6388" stroke="black" stroke-width="2" stroke-linecap="round" stroke-linejoin="round"/>
<path d="M371.378 263.625C371.378 263.625 370.495 269.111 374.551 271.972L364.157 272.441L371.378 263.625Z" fill="black"/>
<path d="M420.784 225.46L430.616 240.316" stroke="black" stroke-width="2" stroke-linecap="round" stroke-linejoin="round"/>
<path d="M400.055 281.029L405.864 282.443" stroke="black" stroke-width="2" stroke-linecap="round" stroke-linejoin="round"/>
<path d="M392.967 257.162L426.927 234.832" stroke="black" stroke-width="2" stroke-linecap="round" stroke-linejoin="round"/>
<path d="M144.229 235.244H96.6971C92.7457 235.244 89.5425 238.363 89.5425 242.21V288.487C89.5425 292.334 92.7457 295.452 96.6971 295.452H144.229C148.181 295.452 151.384 292.334 151.384 288.487V242.21C151.384 238.363 148.181 235.244 144.229 235.244Z" fill="#F5891F" stroke="black" stroke-width="2" stroke-miterlimit="10"/>
<path d="M123.623 132.823C126.495 120.652 136.253 111.151 148.755 108.356L169.871 103.638L148.762 98.9205C136.259 96.1252 126.501 86.6248 123.63 74.4528L118.784 53.8947L113.939 74.4528C111.068 86.6248 101.309 96.1252 88.8073 98.9205L67.6915 103.638L88.8073 108.356C101.309 111.151 111.068 120.652 113.939 132.823L118.784 153.375L123.63 132.823H123.623Z" fill="white" stroke="#081E40" stroke-width="2" stroke-miterlimit="10"/>
<path d="M470.517 399.574C472.626 393.762 477.96 389.637 484.244 388.946L494.866 387.786L484.786 384.32C478.816 382.267 474.58 377.074 473.87 370.949L472.679 360.601L469.119 370.415C467.01 376.227 461.676 380.352 455.385 381.042L444.763 382.202L454.843 385.669C460.813 387.721 465.049 392.914 465.759 399.033L466.95 409.374L470.511 399.561L470.517 399.574Z" fill="white" stroke="#081E40" stroke-width="2" stroke-miterlimit="10"/>
<path d="M483.154 356.71C484.238 353.732 486.969 351.614 490.195 351.262L495.643 350.669L490.476 348.89C487.417 347.841 485.242 345.176 484.881 342.035L484.271 336.731L482.444 341.762C481.36 344.74 478.629 346.857 475.404 347.209L469.956 347.802L475.122 349.581C478.181 350.63 480.356 353.295 480.718 356.436L481.327 361.74L483.154 356.71Z" fill="white" stroke="#081E40" stroke-width="2" stroke-miterlimit="10"/>
<path d="M386.664 328.021C386.095 329.207 385.493 330.374 384.871 331.52" stroke="black" stroke-width="3" stroke-linecap="round" stroke-linejoin="round"/>
<path d="M380.827 338.238C360.702 368.427 322.653 384.17 286.98 374.5" stroke="black" stroke-width="3" stroke-linecap="round" stroke-linejoin="round" stroke-dasharray="11.95 11.95"/>
<path d="M283.153 373.364C281.888 372.954 280.629 372.511 279.378 372.035" stroke="black" stroke-width="3" stroke-linecap="round" stroke-linejoin="round"/>
<path d="M380.191 324.83L391.428 319.311L392.66 331.457" stroke="black" stroke-width="3" stroke-linecap="round" stroke-linejoin="round"/>
<path d="M192.86 208.21C193.951 207.441 195.049 206.705 196.166 205.988" stroke="black" stroke-width="3" stroke-linecap="round" stroke-linejoin="round"/>
<path d="M203.033 202.016C235.627 185.035 276.754 189.134 303.204 214.364" stroke="black" stroke-width="3" stroke-linecap="round" stroke-linejoin="round" stroke-dasharray="11.95 11.95"/>
<path d="M305.99 217.157C306.893 218.108 307.777 219.086 308.64 220.096" stroke="black" stroke-width="3" stroke-linecap="round" stroke-linejoin="round"/>
<path d="M196.942 214.051L184.366 213.608L189.312 202.394" stroke="black" stroke-width="3" stroke-linecap="round" stroke-linejoin="round"/>
<path d="M355.677 64.0784L392.487 38.0403C394.287 36.7697 396.71 38.4834 396.021 40.5425L381.959 82.6752C381.651 83.5939 381.986 84.6039 382.796 85.1773L419.606 111.215C421.407 112.486 420.483 115.262 418.254 115.262H372.75C371.753 115.262 370.876 115.887 370.568 116.806L356.506 158.939C355.817 160.998 352.825 160.998 352.136 158.939L338.074 116.806C337.767 115.887 336.883 115.262 335.893 115.262H290.388C288.166 115.262 287.236 112.493 289.036 111.215L325.847 85.1773C326.65 84.6104 326.991 83.6004 326.683 82.6752L312.622 40.5425C311.932 38.4834 314.355 36.7697 316.156 38.0403L352.966 64.0784C353.769 64.6453 354.86 64.6453 355.663 64.0784H355.677Z" fill="#F5891F" stroke="black" stroke-width="2" stroke-miterlimit="10"/>
<path d="M465.672 67.6384C465.672 67.6384 444.048 171.048 417.042 174.384C417.042 174.384 405.45 173.172 413.77 157.032C413.77 157.032 395.11 160.668 388.852 148.639C388.852 148.639 378.766 142.371 378.151 132.616C378.151 132.616 353.862 129.189 357.537 114.482C357.537 114.482 361.566 103.301 387.868 114.137C387.868 114.137 406.026 119.258 419.378 95.6443C419.378 95.6443 422.865 81.5696 406.066 83.6743C390.612 85.6161 376.096 87.2386 374.429 76.9758C374.142 75.223 374.918 73.4702 376.323 72.3429C382.173 67.6644 399.474 55.1276 412.746 58.8678C428.962 63.442 421.433 60.6336 421.433 60.6336C421.433 60.6336 413.194 38.4596 412.833 34.9409C412.471 31.4222 456.851 45.3014 465.672 67.6384Z" fill="#FACFD7" stroke="black" stroke-width="2" stroke-linecap="round" stroke-linejoin="round"/>
<path d="M378.152 132.622C378.152 132.622 402.266 141.881 421.367 128.106L378.152 132.622Z" fill="#FACFD7"/>
<path d="M378.152 132.622C378.152 132.622 402.266 141.881 421.367 128.106" stroke="black" stroke-width="2" stroke-linecap="round" stroke-linejoin="round"/>
<path d="M388.844 148.639C388.844 148.639 403.984 154.986 420.207 144.58L388.844 148.639Z" fill="#FACFD7"/>
<path d="M388.844 148.639C388.844 148.639 403.984 154.986 420.207 144.58" stroke="black" stroke-width="2" stroke-linecap="round" stroke-linejoin="round"/>
<path d="M412.693 157.242C412.693 157.242 422.913 157.112 429.391 147.227L412.693 157.242Z" fill="#FACFD7"/>
<path d="M412.693 157.242C412.693 157.242 422.913 157.112 429.391 147.227" stroke="black" stroke-width="2" stroke-linecap="round" stroke-linejoin="round"/>
<path d="M386.429 66.5196C386.429 66.5196 388.986 70.3184 386.797 72.9574C384.609 75.5964 381.115 78.2028 376.651 73.8566C376.651 73.8566 381.557 67.5426 386.429 66.5196Z" fill="white" stroke="black" stroke-width="2" stroke-linecap="round" stroke-linejoin="round"/>
<path d="M372.16 131.034C372.16 131.034 377.039 126.44 374.83 122.055C372.622 117.67 365.38 112.47 358.902 118.895C358.902 118.895 355 126.87 372.16 131.034Z" fill="white" stroke="black" stroke-width="2" stroke-linecap="round" stroke-linejoin="round"/>
<path d="M428.701 164.054C428.701 164.054 425.863 159.714 422.082 160.672C418.3 161.63 413.1 166.197 417.122 172.01C417.122 172.01 422.764 176.147 428.694 164.054H428.701Z" fill="white" stroke="black" stroke-width="2" stroke-linecap="round" stroke-linejoin="round"/>
<path d="M440.301 43.8763C440.301 43.8763 461.316 66.9561 462.882 79.7667L465.673 67.6468C465.673 67.6468 461.008 52.3602 440.301 43.8828V43.8763Z" fill="black"/>
<path d="M126.193 273.668C144.734 273.668 159.765 259.035 159.765 240.984C159.765 222.933 144.734 208.299 126.193 208.299C107.653 208.299 92.6222 222.933 92.6222 240.984C92.6222 259.035 107.653 273.668 126.193 273.668Z" fill="#5757A5" stroke="black" stroke-width="2" stroke-miterlimit="10"/>
<path d="M120.269 278.83C138.81 278.83 153.84 264.197 153.84 246.146C153.84 228.095 138.81 213.461 120.269 213.461C101.728 213.461 86.698 228.095 86.698 246.146C86.698 264.197 101.728 278.83 120.269 278.83Z" fill="#5757A5" stroke="black" stroke-width="2" stroke-miterlimit="10"/>
<path d="M126.193 273.668C144.734 273.668 159.764 259.035 159.764 240.984C159.764 222.933 144.734 208.299 126.193 208.299C107.653 208.299 92.6222 222.933 92.6222 240.984C92.6222 259.035 107.653 273.668 126.193 273.668Z" fill="#5757A5" stroke="black" stroke-width="2" stroke-miterlimit="10"/>
<path d="M126.193 265.344C140.014 265.344 151.217 254.436 151.217 240.981C151.217 227.525 140.014 216.617 126.193 216.617C112.372 216.617 101.169 227.525 101.169 240.981C101.169 254.436 112.372 265.344 126.193 265.344Z" fill="#E2EBF7" stroke="black" stroke-width="2" stroke-miterlimit="10"/>
<path d="M74.1908 217.878L78.839 210.04C79.5786 208.793 81.2151 208.366 82.496 209.086L100.939 219.453L93.6141 231.805L75.1707 221.438C73.8898 220.718 73.4513 219.125 74.1908 217.878Z" fill="#5757A5" stroke="black" stroke-width="2" stroke-miterlimit="10"/>
<path d="M140.57 43.3305C140.416 43.4413 140.202 43.4348 140.055 43.3109L134.386 38.5021C131.167 35.7719 126.555 35.0616 122.633 36.6907L115.713 39.5577C115.532 39.6294 115.332 39.5773 115.218 39.4209C115.104 39.2645 115.111 39.0625 115.238 38.9191L120.177 33.4001C122.982 30.2658 123.711 25.7763 122.038 21.9579L119.086 15.2203C118.932 14.875 119.448 14.5101 119.742 14.7577L125.418 19.573C128.637 22.3033 133.248 23.0135 137.17 21.3845L144.091 18.5109C144.271 18.4392 144.472 18.4914 144.586 18.6478C144.7 18.8041 144.693 19.0061 144.566 19.1495L139.62 24.6751C136.816 27.8028 136.086 32.2988 137.759 36.1172L140.704 42.8548C140.778 43.0308 140.724 43.2262 140.564 43.337L140.57 43.3305ZM117.045 38.1242L122.306 35.9413C126.522 34.195 131.475 34.9574 134.928 37.8896L139.238 41.5451L136.996 36.4235C135.203 32.3184 135.986 27.4965 138.997 24.1343L142.752 19.9379L137.492 22.1208C133.275 23.8671 128.322 23.1047 124.869 20.1725L120.559 16.517L122.801 21.6386C124.594 25.7437 123.811 30.5656 120.8 33.9279L117.045 38.1242Z" fill="#081E40" stroke="#221F1F" stroke-width="0.75" stroke-miterlimit="10"/>
<path d="M131.078 91.2572C131.078 91.2572 201.058 85.7185 208.059 101.474C208.059 101.474 209.37 108.714 197.564 106.583C197.564 106.583 203.253 117.23 196.688 123.192C196.688 123.192 194.499 130.432 188.375 132.562C188.375 132.562 190.564 147.895 180.504 148.318C180.504 148.318 172.634 147.895 174.815 130.008C174.815 130.008 174.815 118.084 157.32 114.252C157.32 114.252 147.696 114.676 152.073 124.469C156.096 133.481 159.75 141.978 153.492 144.845C152.421 145.334 151.163 145.184 150.193 144.532C146.15 141.835 135.02 133.611 135.02 124.899C135.02 114.252 134.585 119.315 134.585 119.315C134.585 119.315 121.902 128.301 119.714 129.154C117.525 130.008 118.402 100.627 131.085 91.2572H131.078Z" fill="#FACFD7" stroke="black" stroke-width="2" stroke-linecap="round" stroke-linejoin="round"/>
<path d="M188.374 132.564C188.374 132.564 189.947 116.287 177.699 107.204L188.374 132.564Z" fill="#FACFD7"/>
<path d="M188.374 132.564C188.374 132.564 189.947 116.287 177.699 107.204" stroke="black" stroke-width="2" stroke-linecap="round" stroke-linejoin="round"/>
<path d="M196.687 123.193C196.687 123.193 198.019 112.878 188.442 104.929L196.687 123.193Z" fill="#FACFD7"/>
<path d="M196.687 123.193C196.687 123.193 198.019 112.878 188.442 104.929" stroke="black" stroke-width="2" stroke-linecap="round" stroke-linejoin="round"/>
<path d="M197.886 107.204C197.886 107.204 195.958 101.04 188.476 98.8961L197.886 107.204Z" fill="#FACFD7"/>
<path d="M197.886 107.204C197.886 107.204 195.958 101.04 188.476 98.8961" stroke="black" stroke-width="2" stroke-linecap="round" stroke-linejoin="round"/>
<path d="M144.645 139.456C144.645 139.456 146.612 137.221 148.687 138.075C150.762 138.928 153.064 140.57 151.09 144.063C151.09 144.063 146.171 142.232 144.638 139.463L144.645 139.456Z" fill="white" stroke="black" stroke-width="2" stroke-linecap="round" stroke-linejoin="round"/>
<path d="M188.442 136.47C188.442 136.47 184.627 134.34 182.224 136.47C179.822 138.601 177.8 143.925 183.074 146.687C183.074 146.687 188.877 147.613 188.442 136.47Z" fill="white" stroke="black" stroke-width="2" stroke-linecap="round" stroke-linejoin="round"/>
<path d="M199.358 96.2744C199.358 96.2744 197.096 98.7766 198.388 100.894C199.68 103.012 203.535 105.338 206.526 101.852C206.526 101.852 208.153 97.6884 199.358 96.2744Z" fill="white" stroke="black" stroke-width="2" stroke-linecap="round" stroke-linejoin="round"/>
<path d="M120.463 110.909C120.463 110.909 131.426 94.0192 139.33 90.7612L131.078 91.2565C131.078 91.2565 122.149 96.8407 120.463 110.909Z" fill="black"/>
<path d="M249.58 388.682C249.58 388.682 258.663 412.113 245.451 422.813" stroke="#081E40" stroke-width="2" stroke-linecap="round" stroke-linejoin="round"/>
<path d="M70.081 360.612C70.081 360.612 102.983 390.266 90.9425 416.962" stroke="#081E40" stroke-width="2" stroke-linecap="round" stroke-linejoin="round"/>
<path d="M439.195 392.494C439.195 392.494 454.046 396.456 454.715 406.445" stroke="#081E40" stroke-width="2" stroke-miterlimit="10"/>
<path d="M237.006 387.521C237.006 387.521 223.955 409.102 207.116 405.798" stroke="#081E40" stroke-width="2" stroke-linecap="round" stroke-linejoin="round"/>
<path d="M212.39 110.91L275.851 111.594" stroke="black" stroke-width="3" stroke-linecap="round" stroke-linejoin="round" stroke-dasharray="12 12"/>
<path d="M267.974 118.11L279.171 112.506L269.801 104.394" stroke="black" stroke-width="3" stroke-linecap="round" stroke-linejoin="round"/>
<path d="M116.548 356.692C116.548 356.692 114.379 369.079 132.283 388.679L116.548 356.692Z" fill="white"/>
<path d="M116.548 356.692C116.548 356.692 114.379 369.079 132.283 388.679" stroke="#081E40" stroke-width="2" stroke-linecap="round" stroke-linejoin="round"/>
<path d="M300.091 51.862C300.091 51.862 291.397 22.1684 300.091 22.7483C308.785 23.3217 335.195 37.3052 335.195 37.3052" stroke="#081E40" stroke-width="2" stroke-linecap="round" stroke-linejoin="round"/>
<path d="M233.318 78.2221C236.443 82.4836 237.36 87.9636 237.501 93.7499H228.492V93.5088C228.492 85.4158 225.173 77.7334 219.383 72.4294C213.333 66.8842 210.174 59.0585 210.709 50.9656C211.606 37.4513 222.75 26.6282 236.631 25.7876C244.401 25.3185 251.777 27.8988 257.419 33.0595C258.081 33.6655 258.704 34.291 259.293 34.9492C259.293 34.9557 259.306 34.9622 259.313 34.9687C259.902 35.6268 260.457 36.3045 260.979 37.0017C253.396 34.5126 245.512 34.5712 238.284 37.2102C222.174 43.2441 223.412 63.75 233.331 78.2221H233.318ZM238.411 32.5447C238.926 32.5447 239.341 32.1407 239.341 31.639C239.341 31.1373 238.926 30.7333 238.411 30.7333C225.742 30.7333 215.441 40.768 215.441 53.0963C215.441 53.598 215.856 54.002 216.372 54.002C216.887 54.002 217.302 53.598 217.302 53.0963C217.302 41.7649 226.772 32.5447 238.411 32.5447Z" fill="#9FD3F2"/>
<path d="M257.993 72.1449C252.191 77.7031 248.991 84.8837 248.991 92.3511V93.4979C248.991 93.9997 248.577 94.4037 248.061 94.4037H226.37C225.854 94.4037 225.439 93.9997 225.439 93.4979V92.3511C225.439 84.7599 222.334 77.5532 216.913 72.588C210.461 66.6714 207.088 58.3244 207.657 49.6906C208.614 35.2706 220.5 23.7242 235.318 22.8185C243.604 22.3168 251.475 25.073 257.491 30.5791C263.428 36.007 266.835 43.6698 266.835 51.5998C266.835 59.5298 263.696 66.6844 257.993 72.1449ZM256.688 70.8547C262.036 65.7331 264.974 58.8978 264.974 51.5998C264.974 50.9547 264.94 50.3162 264.9 49.6841C264.887 49.5408 264.88 49.3909 264.867 49.2475C264.813 48.6155 264.74 47.9834 264.639 47.3644C264.639 47.3383 264.633 47.3188 264.626 47.2927C264.526 46.6802 264.398 46.0742 264.258 45.4748C264.231 45.364 264.204 45.2467 264.177 45.1359C264.024 44.5104 263.843 43.8848 263.642 43.2723C263.642 43.2593 263.635 43.2528 263.629 43.2398C263.421 42.6272 263.194 42.0213 262.946 41.4218C262.919 41.3566 262.892 41.298 262.866 41.2328C262.337 39.9883 261.708 38.7828 260.985 37.6294C260.972 37.6099 260.958 37.5904 260.945 37.5708C260.577 36.9844 260.182 36.4044 259.767 35.8441C259.245 35.1468 258.689 34.4627 258.1 33.8111C258.1 33.8111 258.087 33.798 258.08 33.7915C257.491 33.1399 256.869 32.5078 256.206 31.9019C250.564 26.7412 243.189 24.1608 235.418 24.63C221.538 25.4705 210.394 36.3002 209.497 49.8079C208.962 57.9074 212.121 65.7331 218.171 71.2717C223.96 76.5758 227.28 84.2582 227.28 92.3511V92.5922H247.111V92.3511C247.111 84.395 250.504 76.7582 256.668 70.8547H256.688Z" fill="#3C5885"/>
<path d="M226.196 97.3834H247.974C248.489 97.3834 248.904 96.9794 248.904 96.4776C248.904 95.9759 248.489 95.5719 247.974 95.5719H226.196C225.68 95.5719 225.265 95.9759 225.265 96.4776C225.265 96.9794 225.68 97.3834 226.196 97.3834Z" fill="#3C5885"/>
<path d="M226.196 100.621H247.974C248.489 100.621 248.904 100.217 248.904 99.7153C248.904 99.2136 248.489 98.8096 247.974 98.8096H226.196C225.68 98.8096 225.265 99.2136 225.265 99.7153C225.265 100.217 225.68 100.621 226.196 100.621Z" fill="#3C5885"/>
<path d="M226.196 103.854H247.974C248.489 103.854 248.904 103.45 248.904 102.948C248.904 102.446 248.489 102.042 247.974 102.042H226.196C225.68 102.042 225.265 102.446 225.265 102.948C225.265 103.45 225.68 103.854 226.196 103.854Z" fill="#3C5885"/>
<path d="M226.329 107.091H248.107C248.623 107.091 249.038 106.687 249.038 106.186C249.038 105.684 248.623 105.28 248.107 105.28H226.329C225.814 105.28 225.399 105.684 225.399 106.186C225.399 106.687 225.814 107.091 226.329 107.091Z" fill="#3C5885"/>
<path d="M238.148 30.4824C238.148 29.9807 237.733 29.5767 237.218 29.5767C224.555 29.5767 214.248 39.6114 214.248 51.9397C214.248 52.4415 214.663 52.8455 215.179 52.8455C215.694 52.8455 216.109 52.4415 216.109 51.9397C216.109 40.6083 225.579 31.3816 237.218 31.3816C237.733 31.3816 238.148 30.9776 238.148 30.4759V30.4824Z" fill="#3C5885"/>
<path d="M124.373 188.58C124.373 195.09 119.333 200.57 112.768 201.358V201.43L111.971 201.469H58.5892C53.4491 201.469 49.1456 197.918 48.135 193.2C44.9225 192.275 41.8371 190.776 39.0261 188.704L35.1577 193.402C36.4293 194.862 36.5096 197.038 35.238 198.589L14.5706 223.675C13.1249 225.428 10.488 225.708 8.68761 224.307C6.88724 222.9 6.59945 220.333 8.0451 218.58L28.7125 193.493C29.9841 191.949 32.1861 191.551 33.9262 192.438L37.7946 187.739C26.0153 178.011 24.2484 160.809 33.973 149.008C43.865 137.006 61.9423 135.07 74.2705 144.695C79.879 149.073 83.3392 155.101 84.5238 161.506C87.1675 159.408 90.5139 158.144 94.128 158.144C102.548 158.144 109.394 164.81 109.394 173.007C109.394 173.952 109.294 174.903 109.107 175.848C109.789 175.743 110.472 175.685 111.134 175.685C118.436 175.685 124.373 181.465 124.373 188.574V188.58ZM33.6049 194.06C32.4872 193.187 30.8475 193.363 29.9507 194.451L9.28327 219.538C8.38643 220.626 8.56714 222.222 9.68484 223.095C10.8025 223.969 12.4423 223.793 13.3391 222.705L34.0065 197.618C34.9033 196.53 34.7226 194.933 33.6049 194.06ZM77.4629 182.963C83.2187 175.978 84.7112 166.986 82.2884 158.984C80.7759 153.999 77.7507 149.393 73.2799 145.9C61.6344 136.804 44.5544 138.635 35.2179 149.973C29.9239 156.404 28.2373 164.529 29.8904 172.023C31.1554 177.744 34.3612 183.094 39.4009 187.036C51.0531 196.132 68.1265 194.301 77.4629 182.963ZM122.787 188.58C122.787 188.163 122.76 187.759 122.713 187.355C122.7 187.231 122.673 187.107 122.653 186.984C122.613 186.703 122.572 186.43 122.512 186.163C122.485 186.026 122.439 185.895 122.405 185.765C122.338 185.511 122.265 185.257 122.184 185.009C122.144 184.879 122.091 184.755 122.044 184.631C121.95 184.384 121.85 184.136 121.736 183.895C121.682 183.784 121.629 183.673 121.569 183.563C121.441 183.315 121.308 183.067 121.16 182.833C121.107 182.742 121.047 182.65 120.986 182.559C120.826 182.305 120.652 182.064 120.464 181.823C120.411 181.751 120.364 181.686 120.304 181.614C120.096 181.354 119.875 181.106 119.641 180.859C119.601 180.819 119.567 180.78 119.527 180.741C119.253 180.461 118.965 180.194 118.664 179.946C118.456 179.77 118.236 179.607 118.008 179.451C117.948 179.405 117.887 179.36 117.821 179.314C117.62 179.177 117.412 179.047 117.205 178.923C117.111 178.865 117.017 178.806 116.917 178.754C116.723 178.643 116.522 178.545 116.321 178.441C116.201 178.382 116.074 178.324 115.947 178.265C115.759 178.18 115.572 178.102 115.378 178.031C115.224 177.972 115.07 177.92 114.916 177.868C114.735 177.809 114.561 177.75 114.38 177.698C114.2 177.646 114.012 177.601 113.825 177.561C113.658 177.522 113.497 177.483 113.33 177.451C113.102 177.412 112.875 177.379 112.64 177.346C112.506 177.327 112.373 177.307 112.232 177.294C111.857 177.262 111.482 177.242 111.101 177.242C110.157 177.242 109.187 177.366 108.203 177.607L106.864 177.939L107.239 176.649C107.594 175.444 107.768 174.219 107.768 173.013C107.768 165.67 101.631 159.694 94.0879 159.694C90.5139 159.694 87.221 161.069 84.7648 163.311C85.6014 170.452 83.6337 177.9 78.6609 183.934C71.5599 192.555 60.2423 195.982 49.8618 193.663C49.9421 193.917 50.0358 194.164 50.1362 194.405C50.163 194.464 50.1897 194.523 50.2165 194.581C50.3035 194.77 50.3905 194.953 50.4842 195.135C50.511 195.187 50.5444 195.239 50.5712 195.298C50.6783 195.494 50.7921 195.683 50.9192 195.865C50.9393 195.898 50.9594 195.93 50.9862 195.963C51.1334 196.178 51.2873 196.386 51.4547 196.588C51.8629 197.083 52.318 197.533 52.82 197.931C52.8468 197.95 52.8735 197.97 52.9003 197.989C53.3956 198.374 53.9243 198.706 54.4932 198.98C54.5467 199.006 54.5936 199.025 54.6471 199.051C54.8881 199.162 55.1357 199.266 55.39 199.358C55.4369 199.377 55.4837 199.397 55.5306 199.41C55.8184 199.507 56.1196 199.599 56.4207 199.67C56.4743 199.683 56.5345 199.69 56.5947 199.703C56.8424 199.755 57.0967 199.801 57.351 199.833C57.438 199.846 57.5184 199.853 57.6054 199.866C57.9199 199.898 58.2345 199.918 58.5557 199.918H91.1163V179.796L82.6231 188.163C82.4691 188.319 82.2617 188.391 82.0609 188.391C81.8601 188.391 81.6593 188.319 81.5054 188.17C81.1975 187.87 81.1908 187.381 81.5054 187.075L91.3639 177.359C91.5111 177.21 91.7186 177.131 91.9261 177.131C92.1403 177.131 92.341 177.216 92.4883 177.366L102.293 187.081C102.601 187.388 102.594 187.876 102.287 188.176C101.979 188.476 101.47 188.469 101.162 188.17L92.7092 179.796V199.924H111.569L111.897 199.885C117.988 199.488 122.76 194.523 122.76 188.58H122.787Z" fill="#061534"/>
<path d="M77.7294 155.688C81.7584 163.579 81.0356 173.366 75.0121 180.677C66.7532 190.705 51.6475 192.321 41.3473 184.28C35.8658 179.999 32.8608 173.835 32.4659 167.495C32.1179 161.917 33.7844 156.203 37.6461 151.511C45.9051 141.483 61.0107 139.867 71.311 147.908C74.1019 150.084 76.2302 152.762 77.7294 155.695V155.688ZM78.4455 169.085C76.9329 168.375 75.32 168.01 73.6601 168.01C67.6968 168.01 62.7442 172.734 62.6237 178.54L62.5969 179.667L61.5261 179.243C60.4485 178.813 59.3174 178.598 58.1596 178.598C53.4345 178.598 49.566 182.202 49.2849 186.737C57.8986 189.513 67.7705 187.011 73.7672 179.726C76.3841 176.546 77.9101 172.864 78.4388 169.098L78.4455 169.085ZM70.3137 149.113C60.6962 141.6 46.5944 143.112 38.8843 152.476C34.0387 158.36 32.8541 165.957 35.0225 172.662C36.3076 176.631 38.7638 180.286 42.3378 183.075C44.0177 184.385 45.8381 185.408 47.7322 186.17C48.2944 181.048 52.7585 177.048 58.1596 177.048C59.1635 177.048 60.1474 177.184 61.1044 177.458C61.7804 171.307 67.2016 166.459 73.6601 166.459C75.3735 166.459 77.0333 166.817 78.6195 167.475C78.6463 167.039 78.6664 166.609 78.6664 166.172C78.6864 159.767 75.8353 153.414 70.3204 149.107L70.3137 149.113Z" fill="#061534"/>
<path d="M78.8541 166.282C71.9203 158.45 60.8705 155.049 50.6104 158.88C43.8239 161.923 38.4897 166.895 34.8622 172.811C32.6804 166.054 33.8717 158.391 38.7574 152.468C46.5345 143.033 60.7433 141.508 70.4345 149.08C75.9962 153.426 78.8674 159.831 78.8474 166.282H78.8541ZM68.092 151.928C60.0138 145.62 48.1675 146.884 41.6889 154.755C41.4145 155.088 41.468 155.583 41.8094 155.85C42.1507 156.117 42.6593 156.065 42.9337 155.726C48.8636 148.526 59.6992 147.366 67.0881 153.139C67.4294 153.407 67.9381 153.355 68.2125 153.022C68.4869 152.69 68.4333 152.195 68.092 151.928Z" fill="#9FD3F2"/>
<path d="M50.5037 158.686C43.7172 161.729 38.3831 166.701 34.7556 172.618C36.0473 176.619 38.5236 180.3 42.131 183.115C43.8243 184.438 45.6581 185.461 47.5656 186.236C48.1278 181.076 52.632 177.036 58.08 177.036C59.0906 177.036 60.0811 177.172 61.0449 177.453C61.7276 171.249 67.1889 166.369 73.6943 166.369C75.4211 166.369 77.0943 166.727 78.6939 167.398C78.7206 166.962 78.7407 166.525 78.7407 166.089C71.807 158.256 60.7571 154.855 50.497 158.686H50.5037Z" fill="white"/>
<path d="M465.571 247.895C465.571 247.895 465.598 247.875 465.605 247.862C465.638 247.83 465.672 247.791 465.712 247.764C465.772 247.725 465.839 247.699 465.913 247.686C468.664 247.198 470.999 245.425 472.318 242.819C473.676 240.128 473.69 237.013 472.345 234.485C471.113 231.944 468.764 230.08 465.893 229.37C465.592 229.298 465.284 229.239 464.982 229.194C464.829 229.174 464.668 229.155 464.514 229.142C464.38 229.129 464.253 229.116 464.119 229.109C463.912 229.096 463.697 229.09 463.49 229.09C463.43 229.09 463.363 229.09 463.303 229.09C463.062 229.09 462.814 229.109 462.573 229.129C465.819 230.536 466.977 233.527 466.515 236.479C466.609 236.603 466.696 236.733 466.776 236.87C466.776 236.876 466.783 236.883 466.79 236.889C466.87 237.033 466.943 237.176 466.997 237.326C467.412 238.407 467.245 239.619 466.555 240.571C465.779 241.633 464.434 242.18 463.122 241.985C463.021 241.972 462.928 241.952 462.827 241.926C462.66 241.887 462.499 241.835 462.346 241.77C459.588 242.513 456.65 241.118 454.073 239.659C454.08 239.737 454.093 239.808 454.107 239.887C454.14 240.095 454.18 240.31 454.227 240.512C454.254 240.616 454.274 240.727 454.301 240.831C454.381 241.144 454.475 241.457 454.589 241.757C454.602 241.796 454.622 241.835 454.635 241.874C454.749 242.161 454.876 242.447 455.017 242.721C455.044 242.773 455.07 242.832 455.097 242.884C455.258 243.184 455.425 243.47 455.613 243.757C455.619 243.77 455.626 243.783 455.633 243.79C455.833 244.083 456.048 244.37 456.282 244.643C456.322 244.689 456.369 244.741 456.416 244.787C456.603 244.995 456.797 245.197 456.998 245.386C457.078 245.458 457.159 245.53 457.239 245.601C457.426 245.764 457.627 245.927 457.835 246.077C457.922 246.135 458.002 246.207 458.089 246.266C458.377 246.468 458.678 246.65 458.999 246.82C459.059 246.852 459.113 246.898 459.16 246.95C459.187 246.976 459.2 247.009 459.22 247.041C459.233 247.061 459.247 247.08 459.253 247.106C459.274 247.159 459.28 247.204 459.287 247.263C459.287 247.263 459.287 247.269 459.287 247.276C459.287 247.334 459.287 247.393 459.267 247.452C459.829 247.673 460.411 247.856 461.014 247.999C461.141 247.817 461.368 247.719 461.603 247.758C462.359 247.914 463.142 247.98 463.932 247.953C464.186 247.94 464.4 248.103 464.481 248.325C464.808 248.312 465.136 248.292 465.464 248.26C465.458 248.123 465.491 247.993 465.578 247.888L465.571 247.895Z" fill="#9FD3F2"/>
<path d="M477.76 243.095L479.533 243.851L478.208 246.751L476.415 245.956C475.933 245.741 475.364 245.897 475.056 246.321C473.925 247.898 472.493 249.194 470.793 250.185C470.338 250.452 470.137 250.993 470.324 251.475L471.034 253.234L467.995 254.375L467.306 252.576C467.118 252.094 466.603 251.814 466.081 251.899C464.127 252.237 462.166 252.172 460.258 251.703C459.75 251.579 459.207 251.82 458.987 252.289L458.21 254.016L455.232 252.726L456.048 250.98C456.269 250.511 456.109 249.957 455.674 249.657C454.054 248.556 452.722 247.161 451.705 245.506C451.531 245.22 451.243 245.044 450.928 244.992C450.748 244.965 450.56 244.978 450.38 245.044L448.573 245.734L447.401 242.776L449.249 242.105C449.744 241.922 450.038 241.421 449.938 240.912C449.59 239.016 449.657 237.107 450.145 235.244C450.279 234.742 450.025 234.221 449.543 234.005L447.769 233.25L449.095 230.35L450.888 231.145C451.37 231.36 451.939 231.204 452.247 230.78C453.378 229.203 454.81 227.906 456.51 226.916C456.965 226.649 457.166 226.108 456.979 225.626L456.269 223.867L459.308 222.726L459.997 224.525C460.178 225.007 460.693 225.287 461.222 225.202C463.17 224.863 465.131 224.929 467.045 225.398C467.553 225.522 468.095 225.281 468.316 224.811L469.093 223.085L472.071 224.375L471.254 226.121C471.034 226.59 471.194 227.144 471.629 227.444C473.249 228.545 474.581 229.939 475.598 231.595C475.873 232.038 476.428 232.233 476.923 232.051L478.73 231.36L479.902 234.318L478.054 234.989C477.559 235.172 477.271 235.667 477.358 236.182C477.706 238.078 477.639 239.987 477.158 241.851C477.024 242.353 477.278 242.874 477.76 243.089V243.095ZM473.356 233.999C471.991 231.178 469.367 229.099 466.175 228.304C463.156 227.555 460.044 228.102 457.641 229.809C457.387 229.992 457.333 230.33 457.521 230.578C457.708 230.826 458.056 230.878 458.311 230.695C458.605 230.487 458.913 230.298 459.234 230.128C459.308 230.089 459.388 230.057 459.462 230.018C459.723 229.887 459.984 229.77 460.252 229.666C460.318 229.64 460.385 229.62 460.459 229.594C460.76 229.49 461.061 229.399 461.369 229.327C461.409 229.32 461.45 229.307 461.49 229.301C461.844 229.223 462.206 229.164 462.574 229.125C465.82 230.532 466.978 233.523 466.516 236.475C466.396 236.319 466.262 236.169 466.114 236.032C466.114 236.032 466.108 236.025 466.101 236.019C465.954 235.882 465.8 235.758 465.626 235.648C465.626 235.648 465.612 235.641 465.606 235.634C465.459 235.537 465.298 235.459 465.137 235.387C465.097 235.367 465.057 235.354 465.017 235.335C464.843 235.263 464.662 235.198 464.475 235.152C463.089 234.813 461.583 235.361 460.747 236.508C460.057 237.459 459.89 238.677 460.305 239.753C460.385 239.968 460.492 240.163 460.613 240.352C460.633 240.378 460.646 240.411 460.666 240.437C460.787 240.619 460.927 240.782 461.081 240.939C461.101 240.958 461.128 240.984 461.148 241.004C461.309 241.16 461.49 241.303 461.684 241.427C461.684 241.427 461.684 241.427 461.69 241.427C461.898 241.558 462.119 241.675 462.346 241.76C459.589 242.502 456.651 241.108 454.074 239.648C454.074 239.596 454.061 239.551 454.054 239.498C454.02 239.186 453.994 238.873 453.987 238.56C453.987 238.475 453.987 238.384 453.987 238.3C453.987 238.15 453.994 238.006 454.007 237.856C454.014 237.733 454.027 237.609 454.041 237.485C454.054 237.361 454.061 237.237 454.081 237.12C454.114 236.886 454.161 236.651 454.215 236.416C454.235 236.332 454.261 236.24 454.282 236.156C454.328 235.973 454.382 235.797 454.442 235.621C454.469 235.543 454.496 235.465 454.522 235.38C454.609 235.133 454.71 234.879 454.824 234.638C454.951 234.364 454.824 234.038 454.543 233.908C454.261 233.784 453.92 233.908 453.793 234.181C451.484 239.108 453.585 245.2 458.465 247.774C458.525 247.806 458.585 247.826 458.645 247.833C458.873 247.865 459.114 247.761 459.228 247.552C459.248 247.513 459.254 247.474 459.261 247.435C459.823 247.657 460.405 247.839 461.008 247.982C460.968 248.035 460.941 248.1 460.927 248.165C460.861 248.465 461.061 248.751 461.363 248.816C461.55 248.856 461.737 248.888 461.925 248.914C462.594 249.012 463.277 249.058 463.966 249.031C464.281 249.018 464.522 248.764 464.508 248.465C464.508 248.406 464.488 248.36 464.468 248.308C464.796 248.295 465.124 248.276 465.452 248.243C465.452 248.263 465.452 248.282 465.452 248.302C465.499 248.536 465.686 248.712 465.92 248.745C465.981 248.751 466.047 248.751 466.108 248.745C469.22 248.191 471.85 246.204 473.323 243.278C474.835 240.28 474.842 236.794 473.349 233.973L473.356 233.999Z" fill="white"/>
<path d="M463.176 247.225C462.386 247.251 461.61 247.186 460.847 247.029C460.619 246.984 460.385 247.088 460.258 247.271C460.218 247.323 460.191 247.388 460.178 247.453C460.111 247.753 460.311 248.039 460.613 248.105C460.8 248.144 460.987 248.176 461.175 248.202C461.844 248.307 462.527 248.346 463.216 248.32C463.531 248.307 463.772 248.053 463.758 247.753C463.758 247.694 463.738 247.649 463.718 247.596C463.638 247.375 463.424 247.212 463.169 247.225H463.176Z" fill="#3C5885"/>
<path d="M479.841 242.755C479.941 243.022 479.934 243.309 479.814 243.57L478.449 246.482C478.201 247.017 477.545 247.251 476.996 247.01L475.203 246.215C474.018 247.916 472.472 249.317 470.631 250.392L471.327 252.151C471.542 252.705 471.247 253.318 470.685 253.526L467.606 254.647C467.044 254.849 466.408 254.575 466.194 254.021L465.505 252.223C463.43 252.614 461.308 252.542 459.24 252.034L458.457 253.761C458.337 254.021 458.116 254.217 457.841 254.315C457.661 254.38 457.473 254.399 457.293 254.367C457.192 254.354 457.098 254.321 457.005 254.282L454.013 252.953C453.464 252.705 453.217 252.073 453.471 251.539L454.288 249.792C452.541 248.646 451.095 247.134 449.997 245.342L448.184 246.02C447.615 246.228 446.986 245.948 446.771 245.394L445.62 242.39C445.413 241.836 445.701 241.224 446.263 241.015L448.11 240.344C447.708 238.324 447.782 236.259 448.304 234.245L446.531 233.483C445.982 233.235 445.734 232.603 445.988 232.069L447.354 229.156C447.474 228.896 447.695 228.7 447.963 228.602C448.237 228.505 448.538 228.511 448.806 228.628L450.6 229.423C451.784 227.723 453.33 226.315 455.171 225.247L454.475 223.487C454.261 222.933 454.549 222.321 455.117 222.112L458.203 220.992C458.477 220.894 458.772 220.9 459.039 221.024C459.307 221.141 459.508 221.356 459.608 221.624L460.298 223.422C462.379 223.031 464.494 223.103 466.562 223.618L467.345 221.891C467.593 221.356 468.249 221.122 468.798 221.363L471.789 222.692C472.057 222.81 472.258 223.025 472.358 223.292C472.458 223.559 472.452 223.846 472.331 224.106L471.515 225.853C473.262 226.999 474.707 228.511 475.805 230.303L477.612 229.625C477.886 229.528 478.181 229.534 478.449 229.651C478.716 229.769 478.917 229.984 479.017 230.251L480.169 233.255C480.269 233.522 480.262 233.809 480.135 234.069C480.015 234.33 479.794 234.525 479.519 234.623L477.672 235.294C478.074 237.308 478 239.367 477.478 241.374L479.245 242.156C479.513 242.273 479.713 242.488 479.814 242.755H479.841ZM478.783 243.114L477.01 242.358C476.528 242.143 476.273 241.621 476.407 241.12C476.889 239.256 476.956 237.347 476.608 235.451C476.514 234.936 476.809 234.441 477.304 234.258L479.151 233.587L477.98 230.629L476.173 231.319C475.678 231.502 475.122 231.306 474.848 230.863C473.831 229.208 472.499 227.807 470.879 226.713C470.444 226.413 470.283 225.859 470.504 225.39L471.321 223.644L468.342 222.353L467.566 224.08C467.345 224.549 466.803 224.797 466.294 224.667C464.38 224.197 462.419 224.132 460.472 224.471C459.943 224.562 459.428 224.276 459.247 223.793L458.558 221.995L455.519 223.135L456.228 224.895C456.416 225.377 456.215 225.918 455.76 226.185C454.06 227.175 452.628 228.472 451.497 230.049C451.195 230.472 450.627 230.629 450.138 230.414L448.344 229.619L447.019 232.518L448.793 233.274C449.275 233.489 449.529 234.011 449.395 234.512C448.913 236.376 448.846 238.279 449.188 240.181C449.281 240.69 448.993 241.191 448.498 241.374L446.651 242.045L447.822 245.003L449.629 244.312C449.81 244.247 449.997 244.234 450.178 244.26C450.493 244.306 450.78 244.488 450.954 244.775C451.972 246.43 453.304 247.831 454.923 248.926C455.358 249.226 455.519 249.779 455.298 250.249L454.482 251.995L457.46 253.285L458.236 251.558C458.457 251.089 458.999 250.848 459.508 250.972C461.415 251.441 463.376 251.506 465.331 251.167C465.853 251.076 466.368 251.363 466.555 251.845L467.245 253.643L470.283 252.503L469.574 250.744C469.386 250.262 469.587 249.721 470.042 249.454C471.742 248.463 473.181 247.166 474.306 245.59C474.607 245.166 475.176 245.01 475.664 245.225L477.458 246.02L478.783 243.12V243.114Z" fill="#3C5885"/>
<path d="M462.077 241.204C461.91 241.164 461.749 241.112 461.595 241.047C461.361 240.956 461.14 240.845 460.939 240.715C460.939 240.715 460.939 240.715 460.933 240.715C460.738 240.591 460.564 240.448 460.404 240.291C460.384 240.272 460.357 240.246 460.337 240.226C460.183 240.07 460.042 239.907 459.922 239.724C459.902 239.698 459.888 239.666 459.868 239.64C459.748 239.451 459.641 239.255 459.561 239.04C459.146 237.959 459.313 236.747 460.002 235.795C460.832 234.648 462.338 234.108 463.73 234.44C463.918 234.485 464.098 234.551 464.272 234.622C464.312 234.642 464.353 234.655 464.393 234.674C464.553 234.746 464.714 234.831 464.861 234.922C464.861 234.922 464.875 234.929 464.881 234.935C465.049 235.046 465.209 235.17 465.356 235.306C465.356 235.306 465.363 235.313 465.37 235.32C465.517 235.456 465.651 235.606 465.771 235.763C465.865 235.886 465.952 236.017 466.032 236.154C466.032 236.16 466.039 236.167 466.046 236.173C466.126 236.316 466.193 236.46 466.253 236.61C466.668 237.691 466.501 238.903 465.812 239.855C465.042 240.917 463.69 241.464 462.378 241.269C462.278 241.256 462.184 241.236 462.084 241.21L462.077 241.204ZM462.345 240.135C463.302 240.356 464.312 239.992 464.881 239.216C465.363 238.551 465.477 237.737 465.189 236.988C464.901 236.238 464.272 235.697 463.456 235.502C462.499 235.274 461.488 235.645 460.919 236.421C460.437 237.085 460.323 237.9 460.611 238.649C460.899 239.399 461.528 239.939 462.345 240.135Z" fill="#3C5885"/>
<path d="M458.531 246.533C458.531 246.481 458.518 246.429 458.498 246.377C458.491 246.357 458.477 246.338 458.464 246.318C458.444 246.286 458.431 246.253 458.404 246.227C458.364 246.175 458.31 246.136 458.25 246.097C457.929 245.927 457.634 245.745 457.34 245.543C457.253 245.484 457.172 245.419 457.085 245.354C456.878 245.204 456.684 245.048 456.49 244.878C456.409 244.806 456.329 244.735 456.249 244.663C456.041 244.474 455.847 244.272 455.666 244.064C455.626 244.018 455.579 243.972 455.533 243.92C455.298 243.647 455.084 243.366 454.883 243.067C454.877 243.054 454.87 243.047 454.863 243.034C454.676 242.754 454.502 242.461 454.348 242.161C454.321 242.109 454.294 242.057 454.268 241.998C454.127 241.724 454 241.438 453.886 241.151C453.873 241.112 453.853 241.073 453.839 241.034C453.726 240.734 453.632 240.421 453.552 240.108C453.525 240.004 453.498 239.893 453.478 239.789C453.431 239.581 453.391 239.372 453.357 239.164C453.344 239.085 453.337 239.014 453.324 238.935C453.324 238.883 453.311 238.838 453.304 238.786C453.27 238.473 453.244 238.16 453.237 237.847C453.237 237.763 453.237 237.671 453.237 237.587C453.237 237.437 453.244 237.293 453.257 237.144C453.264 237.02 453.277 236.896 453.291 236.772C453.304 236.648 453.311 236.525 453.331 236.407C453.364 236.173 453.411 235.938 453.464 235.704C453.485 235.619 453.511 235.528 453.531 235.443C453.578 235.26 453.632 235.085 453.692 234.909C453.719 234.83 453.746 234.752 453.772 234.668C453.866 234.42 453.96 234.166 454.074 233.925C454.201 233.651 454.074 233.325 453.792 233.195C453.511 233.071 453.177 233.195 453.043 233.469C450.734 238.395 452.835 244.487 457.714 247.061C457.775 247.094 457.835 247.113 457.895 247.12C458.123 247.152 458.364 247.048 458.477 246.839C458.498 246.8 458.504 246.761 458.511 246.722C458.531 246.664 458.538 246.605 458.531 246.546V246.533Z" fill="#3C5885"/>
<path d="M465.417 227.575C462.398 226.826 459.286 227.373 456.883 229.08C456.629 229.263 456.575 229.601 456.763 229.849C456.95 230.097 457.298 230.149 457.553 229.966C457.847 229.758 458.155 229.569 458.476 229.399C458.55 229.36 458.63 229.328 458.704 229.289C458.965 229.158 459.226 229.041 459.493 228.937C459.56 228.911 459.627 228.891 459.701 228.865C460.002 228.761 460.303 228.67 460.611 228.598C460.651 228.591 460.691 228.578 460.732 228.572C461.086 228.494 461.448 228.435 461.816 228.396C462.057 228.37 462.298 228.363 462.545 228.357C462.606 228.357 462.666 228.357 462.733 228.357C462.94 228.357 463.154 228.357 463.362 228.376C463.496 228.383 463.623 228.396 463.757 228.409C463.911 228.422 464.071 228.442 464.225 228.461C464.526 228.507 464.834 228.565 465.135 228.637C468.007 229.347 470.356 231.204 471.587 233.752C472.926 236.28 472.919 239.395 471.561 242.086C470.249 244.693 467.913 246.465 465.156 246.954C465.082 246.967 465.015 246.993 464.955 247.032C464.915 247.058 464.881 247.09 464.848 247.13C464.834 247.143 464.821 247.149 464.814 247.162C464.734 247.266 464.694 247.397 464.7 247.534C464.7 247.534 464.7 247.573 464.7 247.599C464.747 247.833 464.935 248.009 465.169 248.042C465.229 248.048 465.296 248.048 465.356 248.042C468.469 247.488 471.099 245.5 472.571 242.575C474.084 239.577 474.09 236.091 472.598 233.27C471.233 230.448 468.616 228.37 465.417 227.575Z" fill="#3C5885"/>
<path d="M441.316 208.801C441.316 208.801 441.336 208.781 441.343 208.775C441.37 208.749 441.396 208.716 441.43 208.696C441.477 208.67 441.53 208.644 441.59 208.638C443.779 208.247 445.633 206.839 446.677 204.774C447.755 202.636 447.768 200.16 446.697 198.153C445.72 196.133 443.853 194.654 441.577 194.094C441.336 194.035 441.095 193.99 440.854 193.951C440.727 193.931 440.607 193.918 440.479 193.912C440.372 193.898 440.272 193.892 440.165 193.885C439.998 193.879 439.83 193.872 439.663 193.872C439.616 193.872 439.563 193.872 439.516 193.872C439.322 193.872 439.128 193.885 438.933 193.905C441.51 195.019 442.427 197.398 442.066 199.743C442.139 199.841 442.213 199.945 442.273 200.056C442.273 200.056 442.28 200.069 442.287 200.076C442.347 200.186 442.407 200.304 442.454 200.428C442.782 201.288 442.648 202.252 442.099 203.008C441.483 203.855 440.413 204.285 439.368 204.129C439.288 204.116 439.215 204.103 439.134 204.083C439 204.05 438.873 204.011 438.753 203.959C436.564 204.546 434.228 203.444 432.18 202.278C432.187 202.337 432.2 202.402 432.207 202.461C432.234 202.63 432.267 202.793 432.301 202.962C432.321 203.047 432.341 203.132 432.361 203.216C432.428 203.464 432.502 203.712 432.589 203.953C432.602 203.985 432.615 204.018 432.629 204.05C432.716 204.279 432.816 204.507 432.93 204.722C432.95 204.767 432.97 204.806 432.997 204.852C433.124 205.087 433.258 205.321 433.405 205.543C433.405 205.549 433.419 205.562 433.425 205.569C433.586 205.803 433.76 206.025 433.941 206.246C433.974 206.285 434.014 206.325 434.048 206.357C434.195 206.52 434.349 206.683 434.509 206.833C434.57 206.891 434.637 206.95 434.704 207.002C434.858 207.133 435.011 207.256 435.172 207.38C435.239 207.432 435.306 207.478 435.373 207.53C435.6 207.686 435.841 207.836 436.096 207.973C436.143 207.999 436.189 208.038 436.223 208.077C436.243 208.097 436.256 208.129 436.27 208.149C436.276 208.169 436.29 208.182 436.296 208.201C436.31 208.24 436.317 208.279 436.323 208.325C436.323 208.325 436.323 208.331 436.323 208.338C436.323 208.384 436.323 208.429 436.31 208.481C436.758 208.657 437.22 208.807 437.702 208.911C437.802 208.768 437.983 208.69 438.17 208.722C438.773 208.846 439.395 208.898 440.018 208.879C440.218 208.872 440.386 208.996 440.453 209.172C440.714 209.166 440.975 209.146 441.236 209.12C441.229 209.009 441.256 208.911 441.323 208.827L441.316 208.801Z" fill="#9FD3F2"/>
<path d="M451.002 204.982L452.414 205.582L451.363 207.882L449.937 207.25C449.556 207.08 449.101 207.204 448.86 207.543C447.963 208.794 446.825 209.824 445.473 210.612C445.112 210.821 444.951 211.257 445.099 211.635L445.661 213.03L443.245 213.935L442.696 212.508C442.549 212.124 442.14 211.902 441.725 211.974C440.173 212.241 438.62 212.189 437.101 211.818C436.699 211.72 436.264 211.915 436.09 212.287L435.474 213.662L433.112 212.639L433.761 211.251C433.935 210.879 433.808 210.436 433.46 210.202C432.175 209.328 431.111 208.221 430.307 206.904C430.167 206.676 429.939 206.533 429.692 206.5C429.551 206.481 429.397 206.494 429.257 206.546L427.824 207.093L426.894 204.741L428.36 204.207C428.755 204.063 428.982 203.666 428.909 203.262C428.634 201.757 428.688 200.239 429.069 198.759C429.176 198.362 428.969 197.945 428.587 197.776L427.175 197.176L428.226 194.876L429.652 195.508C430.033 195.677 430.488 195.554 430.729 195.215C431.626 193.964 432.764 192.928 434.116 192.146C434.477 191.937 434.638 191.501 434.49 191.123L433.928 189.728L436.344 188.822L436.893 190.249C437.04 190.634 437.449 190.855 437.864 190.784C439.41 190.517 440.969 190.569 442.488 190.94C442.89 191.038 443.325 190.842 443.499 190.471L444.115 189.096L446.477 190.119L445.828 191.507C445.654 191.878 445.781 192.322 446.129 192.556C447.414 193.429 448.478 194.537 449.282 195.853C449.496 196.205 449.944 196.362 450.332 196.218L451.765 195.671L452.695 198.023L451.229 198.557C450.834 198.701 450.607 199.098 450.68 199.502C450.955 201.007 450.901 202.526 450.52 204.005C450.413 204.402 450.62 204.819 451.002 204.989V204.982ZM447.501 197.762C446.417 195.521 444.336 193.872 441.792 193.24C439.396 192.647 436.92 193.077 435.019 194.433C434.818 194.576 434.778 194.85 434.919 195.045C435.066 195.241 435.347 195.28 435.548 195.143C435.782 194.974 436.03 194.83 436.284 194.693C436.344 194.661 436.405 194.635 436.465 194.609C436.672 194.504 436.88 194.413 437.094 194.329C437.147 194.309 437.201 194.289 437.255 194.27C437.489 194.185 437.73 194.114 437.977 194.061C438.011 194.055 438.044 194.048 438.071 194.042C438.352 193.977 438.64 193.931 438.934 193.905C441.511 195.019 442.435 197.398 442.067 199.743C441.973 199.62 441.866 199.502 441.745 199.391C441.745 199.391 441.745 199.385 441.739 199.385C441.625 199.281 441.498 199.176 441.364 199.092C441.364 199.092 441.351 199.092 441.351 199.085C441.23 199.007 441.11 198.942 440.976 198.883C440.942 198.87 440.916 198.857 440.882 198.844C440.742 198.786 440.601 198.74 440.454 198.701C439.349 198.434 438.151 198.87 437.495 199.776C436.947 200.532 436.813 201.496 437.141 202.356C437.208 202.526 437.288 202.682 437.388 202.832C437.402 202.852 437.415 202.878 437.429 202.897C437.522 203.04 437.636 203.171 437.757 203.295C437.777 203.314 437.79 203.327 437.81 203.347C437.937 203.471 438.078 203.588 438.232 203.686C438.392 203.79 438.573 203.881 438.754 203.953C436.565 204.539 434.229 203.438 432.181 202.272C432.181 202.232 432.168 202.193 432.168 202.154C432.141 201.907 432.121 201.659 432.114 201.405C432.114 201.333 432.114 201.268 432.114 201.196C432.114 201.079 432.121 200.962 432.128 200.845C432.128 200.747 432.141 200.649 432.155 200.551C432.161 200.454 432.175 200.356 432.188 200.258C432.215 200.069 432.248 199.887 432.295 199.698C432.309 199.626 432.329 199.561 432.349 199.489C432.389 199.346 432.429 199.203 432.476 199.066C432.496 199.001 432.516 198.942 432.543 198.877C432.616 198.675 432.69 198.479 432.784 198.284C432.884 198.062 432.784 197.808 432.563 197.704C432.335 197.606 432.074 197.704 431.967 197.919C430.133 201.828 431.8 206.676 435.682 208.716C435.729 208.742 435.775 208.755 435.829 208.762C436.01 208.788 436.197 208.703 436.291 208.54C436.304 208.514 436.311 208.481 436.318 208.449C436.766 208.625 437.228 208.775 437.71 208.879C437.683 208.924 437.656 208.97 437.643 209.022C437.589 209.257 437.743 209.491 437.991 209.537C438.138 209.57 438.285 209.596 438.439 209.615C438.975 209.693 439.517 209.726 440.059 209.706C440.306 209.7 440.501 209.498 440.494 209.257C440.494 209.211 440.48 209.172 440.46 209.133C440.721 209.126 440.982 209.107 441.243 209.081C441.243 209.1 441.243 209.113 441.243 209.133C441.277 209.322 441.431 209.459 441.618 209.485C441.665 209.491 441.719 209.491 441.766 209.485C444.235 209.048 446.323 207.465 447.495 205.145C448.699 202.76 448.706 199.991 447.515 197.756L447.501 197.762Z" fill="white"/>
<path d="M439.41 208.264C438.788 208.284 438.165 208.232 437.563 208.108C437.382 208.076 437.195 208.154 437.095 208.297C437.061 208.343 437.041 208.388 437.028 208.447C436.974 208.682 437.128 208.916 437.376 208.962C437.523 208.994 437.67 209.02 437.824 209.04C438.359 209.118 438.902 209.151 439.444 209.131C439.691 209.125 439.885 208.923 439.879 208.682C439.879 208.636 439.865 208.597 439.845 208.558C439.785 208.382 439.611 208.251 439.41 208.264Z" fill="#3C5885"/>
<path d="M452.654 204.713C452.735 204.928 452.728 205.156 452.628 205.365L451.543 207.678C451.342 208.101 450.827 208.29 450.392 208.095L448.967 207.463C448.03 208.812 446.798 209.926 445.332 210.779L445.888 212.18C446.055 212.617 445.828 213.112 445.373 213.275L442.923 214.168C442.475 214.331 441.973 214.109 441.805 213.673L441.256 212.246C439.603 212.552 437.923 212.5 436.277 212.096L435.655 213.464C435.561 213.673 435.387 213.829 435.166 213.907C435.025 213.959 434.871 213.972 434.731 213.953C434.651 213.94 434.577 213.92 434.503 213.888L432.127 212.832C431.692 212.636 431.498 212.135 431.692 211.711L432.342 210.323C430.956 209.411 429.805 208.212 428.935 206.785L427.496 207.326C427.048 207.489 426.546 207.267 426.378 206.831L425.461 204.446C425.294 204.009 425.522 203.521 425.977 203.358L427.442 202.823C427.128 201.214 427.181 199.578 427.596 197.975L426.191 197.369C425.756 197.174 425.562 196.672 425.763 196.249L426.847 193.935C426.941 193.727 427.115 193.571 427.335 193.492C427.556 193.414 427.791 193.421 428.005 193.512L429.43 194.144C430.367 192.795 431.599 191.674 433.064 190.827L432.509 189.426C432.342 188.99 432.569 188.501 433.018 188.338L435.467 187.446C435.688 187.367 435.922 187.374 436.136 187.472C436.351 187.563 436.511 187.732 436.592 187.947L437.14 189.374C438.793 189.068 440.473 189.12 442.12 189.524L442.742 188.156C442.943 187.732 443.458 187.543 443.893 187.739L446.269 188.794C446.484 188.886 446.644 189.055 446.724 189.27C446.805 189.479 446.798 189.713 446.698 189.915L446.049 191.303C447.434 192.215 448.585 193.414 449.455 194.841L450.894 194.3C451.108 194.222 451.349 194.229 451.563 194.32C451.778 194.411 451.938 194.581 452.018 194.796L452.935 197.18C453.016 197.389 453.009 197.624 452.909 197.832C452.815 198.041 452.641 198.197 452.42 198.275L450.954 198.809C451.269 200.412 451.215 202.041 450.8 203.638L452.206 204.263C452.42 204.355 452.581 204.524 452.661 204.739L452.654 204.713ZM451.811 205L450.399 204.4C450.017 204.231 449.817 203.82 449.917 203.416C450.298 201.937 450.352 200.419 450.078 198.914C450.004 198.51 450.238 198.106 450.626 197.969L452.092 197.435L451.162 195.082L449.73 195.63C449.335 195.773 448.893 195.617 448.679 195.265C447.869 193.949 446.811 192.841 445.526 191.968C445.178 191.733 445.051 191.29 445.225 190.919L445.874 189.531L443.512 188.508L442.896 189.883C442.722 190.254 442.287 190.449 441.886 190.352C440.366 189.974 438.807 189.928 437.261 190.195C436.846 190.267 436.431 190.045 436.29 189.661L435.742 188.234L433.325 189.14L433.888 190.534C434.035 190.919 433.874 191.349 433.513 191.557C432.161 192.339 431.023 193.375 430.126 194.626C429.885 194.965 429.43 195.089 429.049 194.919L427.623 194.287L426.572 196.588L427.985 197.187C428.366 197.356 428.567 197.773 428.466 198.171C428.085 199.65 428.031 201.162 428.306 202.673C428.379 203.077 428.152 203.475 427.757 203.618L426.291 204.153L427.222 206.505L428.654 205.958C428.794 205.905 428.948 205.892 429.089 205.912C429.337 205.951 429.571 206.094 429.705 206.316C430.514 207.632 431.572 208.74 432.857 209.613C433.205 209.848 433.332 210.291 433.158 210.662L432.509 212.05L434.872 213.073L435.487 211.698C435.661 211.327 436.096 211.131 436.498 211.229C438.017 211.6 439.57 211.653 441.123 211.385C441.538 211.314 441.946 211.542 442.093 211.92L442.642 213.347L445.058 212.441L444.496 211.047C444.349 210.662 444.502 210.232 444.871 210.017C446.223 209.229 447.36 208.199 448.257 206.948C448.498 206.609 448.953 206.485 449.335 206.655L450.76 207.287L451.811 204.987V205Z" fill="#3C5885"/>
<path d="M438.54 203.48C438.406 203.447 438.279 203.408 438.158 203.356C437.971 203.284 437.797 203.193 437.636 203.089C437.636 203.089 437.636 203.089 437.63 203.089C437.476 202.991 437.335 202.874 437.208 202.75C437.188 202.731 437.175 202.717 437.154 202.698C437.034 202.574 436.92 202.444 436.827 202.3C436.813 202.281 436.8 202.255 436.786 202.235C436.693 202.085 436.606 201.929 436.545 201.76C436.218 200.9 436.351 199.935 436.9 199.179C437.563 198.274 438.754 197.837 439.858 198.104C440.006 198.137 440.153 198.189 440.287 198.247C440.32 198.261 440.354 198.274 440.38 198.287C440.508 198.345 440.635 198.41 440.755 198.489C440.755 198.489 440.762 198.489 440.769 198.495C440.902 198.58 441.03 198.678 441.143 198.788C441.143 198.788 441.15 198.788 441.15 198.795C441.264 198.906 441.371 199.023 441.471 199.147C441.545 199.244 441.619 199.349 441.679 199.459C441.679 199.459 441.686 199.472 441.692 199.479C441.752 199.59 441.813 199.707 441.86 199.831C442.187 200.691 442.054 201.655 441.505 202.411C440.889 203.258 439.818 203.688 438.781 203.532C438.701 203.519 438.627 203.506 438.547 203.486L438.54 203.48ZM438.754 202.633C439.517 202.809 440.32 202.515 440.769 201.903C441.15 201.375 441.244 200.73 441.016 200.131C440.789 199.538 440.287 199.108 439.638 198.951C438.881 198.769 438.071 199.069 437.623 199.681C437.241 200.209 437.148 200.854 437.375 201.447C437.603 202.04 438.105 202.47 438.754 202.626V202.633Z" fill="#3C5885"/>
<path d="M435.721 207.717C435.721 207.678 435.708 207.632 435.694 207.593C435.694 207.573 435.674 207.56 435.667 207.541C435.654 207.515 435.641 207.489 435.621 207.469C435.587 207.43 435.547 207.398 435.493 207.365C435.239 207.235 435.005 207.085 434.771 206.922C434.704 206.876 434.637 206.824 434.57 206.772C434.409 206.655 434.249 206.524 434.101 206.394C434.034 206.335 433.974 206.283 433.907 206.225C433.747 206.075 433.593 205.912 433.445 205.749C433.412 205.71 433.372 205.677 433.338 205.638C433.151 205.423 432.977 205.195 432.823 204.961C432.823 204.954 432.81 204.941 432.803 204.935C432.656 204.713 432.515 204.478 432.395 204.244C432.375 204.205 432.354 204.159 432.328 204.113C432.214 203.892 432.114 203.67 432.027 203.442C432.013 203.41 432 203.377 431.986 203.345C431.899 203.103 431.826 202.856 431.759 202.608C431.739 202.524 431.719 202.439 431.699 202.354C431.658 202.191 431.632 202.022 431.605 201.852C431.598 201.794 431.585 201.729 431.578 201.67C431.578 201.631 431.565 201.592 431.558 201.553C431.531 201.305 431.511 201.057 431.504 200.803C431.504 200.732 431.504 200.666 431.504 200.595C431.504 200.478 431.504 200.36 431.518 200.243C431.518 200.145 431.531 200.047 431.545 199.95C431.551 199.852 431.565 199.754 431.578 199.657C431.605 199.468 431.638 199.285 431.685 199.096C431.699 199.024 431.719 198.959 431.739 198.888C431.779 198.744 431.819 198.601 431.866 198.464C431.886 198.399 431.906 198.34 431.933 198.275C432.006 198.073 432.08 197.878 432.174 197.682C432.274 197.461 432.174 197.206 431.953 197.102C431.725 197.004 431.464 197.102 431.357 197.317C429.523 201.227 431.19 206.075 435.072 208.114C435.119 208.14 435.165 208.153 435.219 208.16C435.4 208.186 435.587 208.101 435.681 207.938C435.694 207.906 435.701 207.88 435.708 207.847C435.721 207.802 435.728 207.756 435.721 207.704V207.691V207.717Z" fill="#3C5885"/>
<path d="M441.197 192.656C438.801 192.063 436.325 192.493 434.424 193.849C434.223 193.992 434.183 194.266 434.324 194.461C434.471 194.657 434.752 194.696 434.953 194.559C435.187 194.39 435.435 194.246 435.689 194.109C435.749 194.077 435.81 194.051 435.87 194.025C436.077 193.92 436.285 193.829 436.499 193.744C436.552 193.725 436.606 193.705 436.659 193.686C436.894 193.601 437.135 193.529 437.382 193.477C437.416 193.471 437.449 193.464 437.476 193.458C437.757 193.393 438.045 193.347 438.339 193.321C438.533 193.301 438.728 193.295 438.922 193.288C438.969 193.288 439.022 193.288 439.069 193.288C439.236 193.288 439.404 193.288 439.571 193.301C439.678 193.301 439.778 193.321 439.885 193.327C440.013 193.341 440.133 193.354 440.26 193.367C440.501 193.406 440.742 193.445 440.983 193.51C443.265 194.077 445.126 195.549 446.11 197.569C447.174 199.576 447.167 202.052 446.09 204.19C445.046 206.262 443.192 207.669 441.003 208.054C440.943 208.067 440.889 208.086 440.843 208.112C440.809 208.132 440.782 208.164 440.755 208.191C440.749 208.197 440.735 208.21 440.729 208.217C440.662 208.301 440.635 208.399 440.642 208.51C440.642 208.51 440.642 208.542 440.642 208.562C440.675 208.751 440.829 208.888 441.017 208.914C441.063 208.92 441.117 208.92 441.164 208.914C443.633 208.477 445.722 206.894 446.893 204.574C448.097 202.189 448.104 199.42 446.913 197.185C445.829 194.943 443.747 193.295 441.204 192.663L441.197 192.656Z" fill="#3C5885"/>
</svg>
