<svg width="25" height="24" viewBox="0 0 25 24" fill="none" xmlns="http://www.w3.org/2000/svg">
<path d="M12.5001 8.14244C11.9935 8.14244 11.492 8.24221 11.024 8.43605C10.556 8.62988 10.1308 8.914 9.77265 9.27217C9.41448 9.63034 9.13037 10.0555 8.93653 10.5235C8.74269 10.9915 8.64292 11.4931 8.64292 11.9996C8.64292 12.5061 8.74269 13.0077 8.93653 13.4756C9.13037 13.9436 9.41448 14.3688 9.77265 14.727C10.1308 15.0852 10.556 15.3693 11.024 15.5631C11.492 15.757 11.9935 15.8567 12.5001 15.8567C13.523 15.8567 14.5041 15.4503 15.2275 14.727C15.9508 14.0036 16.3572 13.0226 16.3572 11.9996C16.3572 10.9766 15.9508 9.99552 15.2275 9.27217C14.5041 8.54881 13.523 8.14244 12.5001 8.14244ZM9.92864 11.9996C9.92864 11.6619 9.99515 11.3275 10.1244 11.0155C10.2536 10.7036 10.443 10.4201 10.6818 10.1813C10.9206 9.94253 11.204 9.75312 11.516 9.62389C11.828 9.49466 12.1624 9.42815 12.5001 9.42815C12.8377 9.42815 13.1721 9.49466 13.4841 9.62389C13.7961 9.75312 14.0796 9.94253 14.3183 10.1813C14.5571 10.4201 14.7465 10.7036 14.8758 11.0155C15.005 11.3275 15.0715 11.6619 15.0715 11.9996C15.0715 12.6816 14.8006 13.3356 14.3183 13.8179C13.8361 14.3001 13.182 14.571 12.5001 14.571C11.8181 14.571 11.164 14.3001 10.6818 13.8179C10.1996 13.3356 9.92864 12.6816 9.92864 11.9996ZM19.1086 19.1953L17.6275 18.5447C17.4167 18.4531 17.1874 18.4121 16.9579 18.4249C16.7284 18.4377 16.5051 18.504 16.3058 18.6184C15.9055 18.8499 15.6501 19.2587 15.5995 19.719L15.4212 21.3304C15.4032 21.4924 15.3357 21.6448 15.2279 21.7669C15.12 21.889 14.9771 21.9749 14.8186 22.0127C13.2937 22.3762 11.7047 22.3762 10.1798 22.0127C10.0215 21.9747 9.87873 21.8888 9.77105 21.7667C9.66336 21.6446 9.59597 21.4923 9.57806 21.3304L9.39978 19.7216C9.37418 19.4952 9.29587 19.2779 9.17113 19.0872C9.04639 18.8965 8.87869 18.7377 8.68149 18.6236C8.4845 18.5097 8.26348 18.4436 8.03628 18.4308C7.80907 18.418 7.58204 18.4588 7.37349 18.5499L5.89235 19.2004C5.74262 19.2662 5.57615 19.2838 5.41598 19.2508C5.2558 19.2178 5.10986 19.1358 4.99835 19.0162C3.93229 17.8737 3.139 16.5046 2.67806 15.0116C2.6296 14.8547 2.63112 14.6865 2.68241 14.5305C2.7337 14.3745 2.83223 14.2383 2.96435 14.1407L4.27321 13.1739C4.45747 13.0385 4.60728 12.8617 4.71055 12.6577C4.81381 12.4537 4.86761 12.2282 4.86761 11.9996C4.86761 11.7709 4.81381 11.5455 4.71055 11.3415C4.60728 11.1375 4.45747 10.9607 4.27321 10.8253L2.96435 9.86101C2.83206 9.7634 2.73342 9.62703 2.68212 9.47083C2.63082 9.31463 2.6294 9.14634 2.67806 8.9893C3.13995 7.49759 3.93382 6.12992 5.00006 4.98901C5.11168 4.86953 5.25767 4.78769 5.41783 4.75483C5.578 4.72197 5.74442 4.7397 5.89406 4.80558L7.36835 5.45444C7.57812 5.54472 7.80611 5.58465 8.03408 5.57102C8.26205 5.55739 8.48366 5.49059 8.68119 5.37596C8.87871 5.26133 9.04665 5.10205 9.17158 4.91088C9.29651 4.7197 9.37496 4.50194 9.40064 4.27501L9.58064 2.6653C9.59876 2.50154 9.66756 2.34753 9.77742 2.22475C9.88729 2.10198 10.0327 2.01657 10.1935 1.98044C10.9486 1.81244 11.7192 1.7233 12.5112 1.71387C13.2843 1.72244 14.0541 1.81244 14.8084 1.98044C14.9693 2.0165 15.1149 2.102 15.2248 2.22497C15.3347 2.34793 15.4034 2.5022 15.4212 2.66615L15.6004 4.27587C15.639 4.63285 15.808 4.96302 16.075 5.20312C16.3419 5.44322 16.6881 5.57635 17.0472 5.57701C17.2469 5.57701 17.4449 5.53501 17.6301 5.45358L19.1044 4.80472C19.254 4.73884 19.4204 4.72111 19.5806 4.75397C19.7407 4.78683 19.8867 4.86867 19.9984 4.98815C21.0643 6.12911 21.8579 7.49678 22.3195 8.98844C22.368 9.14528 22.3667 9.31333 22.3155 9.46934C22.2644 9.62536 22.166 9.76163 22.0341 9.8593L20.7269 10.8253C20.3541 11.0996 20.1286 11.5359 20.1286 11.9996C20.1286 12.4624 20.3541 12.8987 20.7278 13.1739L22.0358 14.139C22.3066 14.3396 22.4215 14.6893 22.3221 15.0107C21.8605 16.5022 21.0673 17.8698 20.0018 19.011C19.8903 19.1306 19.7443 19.2126 19.5842 19.2457C19.424 19.2787 19.2584 19.2611 19.1086 19.1953ZM14.4389 19.0256C14.6435 18.385 15.0788 17.8434 15.6604 17.5059C16.0345 17.2903 16.454 17.1655 16.8851 17.1415C17.3162 17.1176 17.7469 17.1951 18.1426 17.3679L19.2946 17.8736C20.0346 17.0168 20.6074 16.0289 20.9832 14.961L19.9641 14.2093C19.6171 13.9545 19.3348 13.621 19.1399 13.2372C18.945 12.8534 18.843 12.4292 18.8421 11.9987C18.8421 11.1184 19.2681 10.3016 19.9623 9.79072L19.9641 9.78987L20.9815 9.03815C20.6054 7.97048 20.0323 6.98283 19.2921 6.12644L18.1495 6.62872L18.1478 6.62958C17.7998 6.78387 17.4252 6.86272 17.0455 6.86272C16.3702 6.86171 15.7191 6.6118 15.2165 6.1608C14.714 5.7098 14.3953 5.08936 14.3215 4.41815V4.41644L14.1818 3.16501C13.6304 3.06231 13.0712 3.00697 12.5104 2.99958C11.9424 3.00673 11.3761 3.06207 10.8175 3.16501L10.6778 4.4173C10.6297 4.84452 10.4821 5.25452 10.2467 5.61433C10.0114 5.97415 9.695 6.27375 9.32288 6.48907C8.95076 6.70439 8.53332 6.82943 8.1041 6.85413C7.67489 6.87883 7.24586 6.80251 6.85149 6.6313L5.70635 6.1273C4.96606 6.98366 4.393 7.97132 4.01692 9.03901L5.03692 9.79072C5.38317 10.0457 5.66463 10.3785 5.85862 10.7623C6.0526 11.146 6.15367 11.57 6.15367 12C6.15367 12.43 6.0526 12.854 5.85862 13.2378C5.66463 13.6215 5.38317 13.9543 5.03692 14.2093L4.01692 14.9619C4.39229 16.0312 4.96507 17.0207 5.70549 17.8787L6.85835 17.373C7.25151 17.2009 7.67962 17.1237 8.10813 17.1475C8.53664 17.1713 8.95355 17.2955 9.32521 17.5102C9.69671 17.7248 10.0127 18.0235 10.2477 18.3824C10.4828 18.7414 10.6304 19.1504 10.6786 19.5767V19.581L10.8175 20.8359C11.9292 21.0544 13.0718 21.0544 14.1835 20.8359L14.3223 19.5784C14.3429 19.3899 14.3823 19.2039 14.4406 19.0256" fill="#00B2ED"/>
</svg>
