<svg width="32" height="32" viewBox="0 0 32 32" fill="none" xmlns="http://www.w3.org/2000/svg">
<path d="M26.7303 21.9638C25.1253 19.9994 23.9922 18.9994 23.9922 13.5838C23.9922 8.62445 21.4597 6.85758 19.3753 5.99945C19.0984 5.8857 18.8378 5.62445 18.7534 5.34008C18.3878 4.0957 17.3628 2.99945 16.0003 2.99945C14.6378 2.99945 13.6122 4.09633 13.2503 5.34133C13.1659 5.62883 12.9053 5.8857 12.6284 5.99945C10.5416 6.85883 8.01156 8.61945 8.01156 13.5838C8.00843 18.9994 6.87531 19.9994 5.27031 21.9638C4.60531 22.7776 5.18781 23.9994 6.35093 23.9994H25.6559C26.8128 23.9994 27.3915 22.7738 26.7303 21.9638Z" stroke="#00B2ED" stroke-width="1.5" stroke-linecap="round" stroke-linejoin="round"/>
<path d="M20 23.9984V24.9984C20 26.0593 19.5786 27.0767 18.8284 27.8268C18.0783 28.577 17.0609 28.9984 16 28.9984C14.9391 28.9984 13.9217 28.577 13.1716 27.8268C12.4214 27.0767 12 26.0593 12 24.9984V23.9984" stroke="#00B2ED" stroke-width="1.5" stroke-linecap="round" stroke-linejoin="round"/>
</svg>
