<svg width="227" height="227" viewBox="0 0 227 227" fill="none" xmlns="http://www.w3.org/2000/svg">
<g clip-path="url(#clip0_476_16347)">
<path d="M113.5 227C176.184 227 227 176.184 227 113.5C227 50.8157 176.184 0 113.5 0C50.8157 0 0 50.8157 0 113.5C0 176.184 50.8157 227 113.5 227Z" fill="#F4F3F3"/>
<path d="M145.293 89.0216L182.307 95.6424C185.043 96.1343 186.481 98.2403 185.472 100.309L160.616 151.674C159.808 153.338 157.223 154.208 154.852 153.628L69.8534 132.87C67.8987 132.391 66.6502 130.727 67.0663 129.15L77.0796 91.4808C77.5714 89.627 79.7279 88.4541 81.897 88.8703L121.168 97.2441C123.892 97.7611 126.957 97.2441 129.58 95.7812L140.11 89.9422C141.712 89.0468 143.603 88.7063 145.28 89.009L145.293 89.0216Z" fill="#818181"/>
<path d="M140.488 79.6013L170.351 86.9031C172.47 87.4202 173.769 89.5767 173.252 91.6827L158.938 150.261C158.421 152.38 156.264 153.679 154.158 153.162L70.6097 132.745C68.4911 132.227 67.1921 130.071 67.7092 127.965L79.1348 81.2281C79.6519 79.1095 81.7958 77.8105 83.9145 78.3276L121.319 87.4706C123.791 88.076 126.401 87.5715 128.47 86.096L136.44 80.3958C137.613 79.5635 139.088 79.2734 140.488 79.6139V79.6013Z" fill="white" stroke="#757575" stroke-width="0.630556" stroke-miterlimit="10"/>
<path d="M71.8079 110.587L64.7205 136.402C63.2702 141.963 66.1582 147.525 71.1522 148.824L105.429 157.576L110.839 152.948C110.839 152.948 122.088 145.583 114.408 123.677" fill="white"/>
<path d="M71.8079 110.587L64.7205 136.402C63.2702 141.963 66.1582 147.525 71.1522 148.824L105.429 157.576L110.839 152.948C110.839 152.948 122.088 145.583 114.408 123.677" stroke="#757575" stroke-width="0.630556" stroke-miterlimit="10"/>
<path d="M88.9982 141.807L74.2666 137.685C72.7441 137.259 71.1645 138.148 70.7385 139.671C70.3125 141.193 71.2015 142.773 72.7241 143.199L87.4557 147.321C88.9782 147.746 90.5578 146.858 90.9838 145.335C91.4098 143.812 90.5208 142.233 88.9982 141.807Z" fill="#818181"/>
<path d="M106.141 146.736L96.1944 143.953C94.6718 143.527 93.0922 144.416 92.6662 145.939C92.2402 147.461 93.1292 149.041 94.6518 149.467L104.598 152.25C106.121 152.676 107.701 151.787 108.127 150.264C108.552 148.742 107.664 147.162 106.141 146.736Z" fill="#818181"/>
<g opacity="0.5">
<path d="M106.074 150.997C114.715 140.017 112.818 124.112 101.838 115.472C90.8586 106.832 74.9535 108.729 66.3134 119.708C57.6732 130.688 59.5698 146.593 70.5495 155.233C81.5292 163.873 97.4342 161.977 106.074 150.997Z" fill="#DADADA"/>
</g>
<path d="M117.737 142.518C121.394 125.518 110.448 108.745 93.2966 105.063C76.1455 101.381 59.2844 112.176 55.6272 129.175C51.97 146.175 62.9164 162.948 80.0676 166.63C97.2187 170.313 114.08 159.518 117.737 142.518ZM59.9276 130.361C62.929 116.4 76.7761 107.535 90.8627 110.561C104.949 113.588 113.928 127.359 110.927 141.32C107.925 155.28 94.0785 164.146 79.9919 161.119C65.9053 158.093 56.9262 144.321 59.9276 130.361Z" fill="#818181"/>
<path d="M116.299 141.824C119.868 125.19 109.287 108.808 92.6531 105.239C76.0191 101.67 59.6372 112.251 56.0683 128.885C52.4994 145.519 63.0801 161.901 79.7141 165.47C96.3482 169.039 112.73 158.458 116.299 141.824ZM61.4533 130.033C64.3916 116.375 77.8351 107.686 91.4929 110.624C105.151 113.563 113.84 127.006 110.901 140.664C107.963 154.322 94.5196 163.011 80.8618 160.072C67.2039 157.134 58.5149 143.691 61.4533 130.033Z" fill="white" stroke="#757575" stroke-width="0.630556" stroke-miterlimit="10"/>
<path d="M82.6533 115.039C92.9818 112.63 103.31 119.062 105.719 129.39" stroke="#757575" stroke-width="0.630556" stroke-linecap="round" stroke-linejoin="round"/>
<path d="M16.5205 118.721L16.4952 118.834C16.2935 119.717 16.8357 120.587 17.7185 120.802L48.1996 127.965C49.612 128.293 51.0118 127.423 51.3397 126.023L51.365 125.934C51.6928 124.522 50.8227 123.122 49.4228 122.794L18.9418 115.631C18.059 115.429 17.1888 115.972 16.9745 116.854L16.9366 117.044L16.5331 118.746L16.5205 118.721Z" fill="white" stroke="#757575" stroke-width="0.630556" stroke-miterlimit="10"/>
<path d="M17.2139 120.487C16.432 120.285 16.0663 119.036 16.4068 117.712C16.7473 116.388 17.6679 115.467 18.4498 115.669" fill="white"/>
<path d="M17.2139 120.487C16.432 120.285 16.0663 119.036 16.4068 117.712C16.7473 116.388 17.6679 115.467 18.4498 115.669" stroke="#757575" stroke-width="0.630556" stroke-miterlimit="10"/>
<path d="M50.4948 127.776L54.3159 128.797C54.8582 128.949 55.4131 128.595 55.5266 128.053C55.5771 127.839 55.6275 127.624 55.6779 127.41C55.7284 127.196 55.8041 126.981 55.8671 126.779C56.0437 126.25 55.741 125.67 55.1861 125.531L51.3649 124.509C50.9614 124.409 50.5452 124.623 50.4065 125.014C50.3056 125.317 50.2047 125.632 50.1164 125.934C50.0282 126.25 49.9651 126.565 49.9021 126.88C49.8264 127.284 50.0786 127.687 50.4822 127.788L50.4948 127.776Z" fill="white" stroke="#757575" stroke-width="0.630556" stroke-miterlimit="10"/>
<path d="M153.161 112.605C162.682 112.605 170.401 104.886 170.401 95.3654C170.401 85.8443 162.682 78.126 153.161 78.126C143.64 78.126 135.922 85.8443 135.922 95.3654C135.922 104.886 143.64 112.605 153.161 112.605Z" fill="#757575"/>
<path d="M152.039 112.479C161.56 112.479 169.279 104.76 169.279 95.2393C169.279 85.7182 161.56 77.9999 152.039 77.9999C142.518 77.9999 134.8 85.7182 134.8 95.2393C134.8 104.76 142.518 112.479 152.039 112.479Z" fill="white" stroke="#757575" stroke-width="0.630556" stroke-miterlimit="10"/>
<path d="M151.219 87.2707C154.518 87.4621 156.906 90.6783 156.68 94.5752C156.454 98.4721 153.71 101.391 150.411 101.199C147.132 101.009 144.744 97.793 144.97 93.896C145.196 89.9991 147.94 87.0805 151.219 87.2707ZM150.596 98.0162C152.043 98.1002 153.299 96.4696 153.42 94.3861C153.541 92.3026 152.481 90.5378 151.035 90.4539C149.607 90.3711 148.332 92.0005 148.211 94.084C148.09 96.1675 149.168 97.9334 150.596 98.0162Z" fill="#6D6D6D"/>
<path d="M175.09 71.6104L176.541 70.6267C176.541 70.6267 176.641 70.6267 176.641 70.6898L176.515 72.4301C176.465 73.1742 176.868 73.8804 177.537 74.2083L179.113 74.9776C179.113 74.9776 179.164 75.0658 179.113 75.0911L177.537 75.8603C176.868 76.1882 176.452 76.8944 176.515 77.6385L176.641 79.3788C176.641 79.3788 176.591 79.4671 176.541 79.4419L175.09 78.4582C174.472 78.0421 173.653 78.0421 173.035 78.4582L171.584 79.4419C171.584 79.4419 171.483 79.4419 171.483 79.3788L171.61 77.6385C171.66 76.8944 171.256 76.1882 170.588 75.8603L169.012 75.0911C169.012 75.0911 168.961 75.0028 169.012 74.9776L170.588 74.2083C171.256 73.8804 171.673 73.1742 171.61 72.4301L171.483 70.6898C171.483 70.6898 171.534 70.6015 171.584 70.6267L173.035 71.6104C173.653 72.0266 174.472 72.0266 175.09 71.6104Z" fill="white" stroke="#757575" stroke-width="0.630556" stroke-miterlimit="10"/>
<path d="M191.913 58.3183L196.1 55.4934C196.1 55.4934 196.201 55.4934 196.201 55.5565L195.848 60.6009C195.797 61.345 196.201 62.0512 196.869 62.3791L201.409 64.5986C201.409 64.5986 201.46 64.6869 201.409 64.7121L196.869 66.9317C196.201 67.2596 195.785 67.9658 195.848 68.7099L196.201 73.7543C196.201 73.7543 196.15 73.8426 196.1 73.8174L191.913 70.9925C191.295 70.5763 190.475 70.5763 189.857 70.9925L185.671 73.8174C185.671 73.8174 185.57 73.8174 185.57 73.7543L185.923 68.7099C185.973 67.9658 185.57 67.2596 184.901 66.9317L180.361 64.7121C180.361 64.7121 180.311 64.6239 180.361 64.5986L184.901 62.3791C185.57 62.0512 185.986 61.345 185.923 60.6009L185.57 55.5565C185.57 55.5565 185.62 55.4682 185.671 55.4934L189.857 58.3183C190.475 58.7345 191.295 58.7345 191.913 58.3183Z" fill="white" stroke="#757575" stroke-width="0.630556" stroke-miterlimit="10"/>
</g>
<defs>
<clipPath id="clip0_476_16347">
<rect width="227" height="227" fill="white"/>
</clipPath>
</defs>
</svg>
