<svg width="24" height="24" viewBox="0 0 24 24" fill="none" xmlns="http://www.w3.org/2000/svg">
<path d="M16.8803 18.77H5.50028C5.35828 18.77 5.23961 18.7217 5.14428 18.625C5.04828 18.529 5.00028 18.4107 5.00028 18.27C5.00028 18.128 5.04828 18.0093 5.14428 17.914C5.23961 17.818 5.35828 17.77 5.50028 17.77H6.61528V9.846C6.61528 9.46267 6.65728 9.07733 6.74128 8.69C6.82528 8.302 6.95128 7.932 7.11928 7.58L7.88928 8.35C7.79795 8.592 7.72961 8.83767 7.68428 9.087C7.63828 9.33633 7.61528 9.58967 7.61528 9.847V17.769H15.9693L3.02328 4.9C2.91661 4.81067 2.86328 4.697 2.86328 4.559C2.86328 4.421 2.91661 4.29867 3.02328 4.192C3.12995 4.08533 3.24795 4.032 3.37728 4.032C3.50661 4.032 3.62461 4.08533 3.73128 4.192L20.3083 20.77C20.4016 20.8633 20.4526 20.9773 20.4613 21.112C20.4693 21.2453 20.417 21.3687 20.3043 21.482C20.2003 21.586 20.0836 21.638 19.9543 21.638C19.8249 21.638 19.7069 21.5847 19.6003 21.478L16.8803 18.77ZM17.3853 14.958L16.3853 13.958V9.846C16.3853 8.63067 15.9583 7.596 15.1043 6.742C14.2509 5.88867 13.2163 5.462 12.0003 5.462C11.4456 5.462 10.9123 5.55733 10.4003 5.748C9.88695 5.93933 9.43195 6.226 9.03528 6.608L8.31528 5.888C8.68728 5.54467 9.10028 5.257 9.55428 5.025C10.0076 4.793 10.4896 4.63333 11.0003 4.546V4C11.0003 3.722 11.0973 3.486 11.2913 3.292C11.4853 3.09733 11.7209 3 11.9983 3C12.2749 3 12.5113 3.09733 12.7073 3.292C12.9026 3.486 13.0003 3.722 13.0003 4V4.546C14.2823 4.764 15.3336 5.372 16.1543 6.37C16.9743 7.368 17.3843 8.52667 17.3843 9.846L17.3853 14.958ZM11.9973 21.385C11.5519 21.385 11.1719 21.2267 10.8573 20.91C10.5426 20.594 10.3853 20.214 10.3853 19.77H13.6153C13.6153 20.2167 13.4569 20.5973 13.1403 20.912C12.8229 21.2273 12.4419 21.385 11.9973 21.385Z" fill="black"/>
</svg>
