<svg width="20" height="20" viewBox="0 0 20 20" fill="none" xmlns="http://www.w3.org/2000/svg">
<path d="M5.33333 16C4.96667 16 4.65289 15.8696 4.392 15.6087C4.13111 15.3478 4.00044 15.0338 4 14.6667V5.33333C4 4.96667 4.13067 4.65289 4.392 4.392C4.65333 4.13111 4.96711 4.00044 5.33333 4H10.6667C10.8556 4 11.014 4.064 11.142 4.192C11.27 4.32 11.3338 4.47822 11.3333 4.66667C11.3333 4.85556 11.2693 5.014 11.1413 5.142C11.0133 5.27 10.8551 5.33378 10.6667 5.33333H5.33333V14.6667H14.6667V9.33333C14.6667 9.14444 14.7307 8.98622 14.8587 8.85867C14.9867 8.73111 15.1449 8.66711 15.3333 8.66667C15.5222 8.66667 15.6807 8.73067 15.8087 8.85867C15.9367 8.98667 16.0004 9.14489 16 9.33333V14.6667C16 15.0333 15.8696 15.3473 15.6087 15.6087C15.3478 15.87 15.0338 16.0004 14.6667 16H5.33333ZM8 13.3333C7.81111 13.3333 7.65289 13.2693 7.52533 13.1413C7.39778 13.0133 7.33378 12.8551 7.33333 12.6667C7.33333 12.4778 7.39733 12.3196 7.52533 12.192C7.65333 12.0644 7.81155 12.0004 8 12H12C12.1889 12 12.3473 12.064 12.4753 12.192C12.6033 12.32 12.6671 12.4782 12.6667 12.6667C12.6667 12.8556 12.6027 13.014 12.4747 13.142C12.3467 13.27 12.1884 13.3338 12 13.3333H8ZM8 11.3333C7.81111 11.3333 7.65289 11.2693 7.52533 11.1413C7.39778 11.0133 7.33378 10.8551 7.33333 10.6667C7.33333 10.4778 7.39733 10.3196 7.52533 10.192C7.65333 10.0644 7.81155 10.0004 8 10H12C12.1889 10 12.3473 10.064 12.4753 10.192C12.6033 10.32 12.6671 10.4782 12.6667 10.6667C12.6667 10.8556 12.6027 11.014 12.4747 11.142C12.3467 11.27 12.1884 11.3338 12 11.3333H8ZM8 9.33333C7.81111 9.33333 7.65289 9.26933 7.52533 9.14133C7.39778 9.01333 7.33378 8.85511 7.33333 8.66667C7.33333 8.47778 7.39733 8.31956 7.52533 8.192C7.65333 8.06444 7.81155 8.00044 8 8H12C12.1889 8 12.3473 8.064 12.4753 8.192C12.6033 8.32 12.6671 8.47822 12.6667 8.66667C12.6667 8.85556 12.6027 9.014 12.4747 9.142C12.3467 9.27 12.1884 9.33378 12 9.33333H8ZM14 8C13.8111 8 13.6529 7.936 13.5253 7.808C13.3978 7.68 13.3338 7.52178 13.3333 7.33333V6.66667H12.6667C12.4778 6.66667 12.3196 6.60267 12.192 6.47467C12.0644 6.34667 12.0004 6.18844 12 6C12 5.81111 12.064 5.65289 12.192 5.52533C12.32 5.39778 12.4782 5.33378 12.6667 5.33333H13.3333V4.66667C13.3333 4.47778 13.3973 4.31956 13.5253 4.192C13.6533 4.06444 13.8116 4.00044 14 4C14.1889 4 14.3473 4.064 14.4753 4.192C14.6033 4.32 14.6671 4.47822 14.6667 4.66667V5.33333H15.3333C15.5222 5.33333 15.6807 5.39733 15.8087 5.52533C15.9367 5.65333 16.0004 5.81156 16 6C16 6.18889 15.936 6.34733 15.808 6.47533C15.68 6.60333 15.5218 6.66711 15.3333 6.66667H14.6667V7.33333C14.6667 7.52222 14.6027 7.68067 14.4747 7.80867C14.3467 7.93667 14.1884 8.00044 14 8Z" fill="black" fill-opacity="0.4"/>
</svg>
