<svg width="142" height="147" viewBox="0 0 142 147" fill="none" xmlns="http://www.w3.org/2000/svg">
<path d="M100.413 5.36561C88.544 -1.0399 77.171 -1.73245 68.3944 3.4168C57.9213 9.56232 51.9983 20.9284 51.7618 34.4389C51.7021 37.7866 51.8858 41.2194 52.3174 44.6983C49.5579 48.5752 46.2039 52.7098 42.308 56.4854C40.7584 56.9755 39.2708 57.6335 37.875 58.4526C37.4273 58.7149 36.975 59.0071 36.4562 59.3707L11.6348 74.922C-0.0252235 81.7623 -3.50555 97.6035 3.87292 110.235C11.2514 122.867 26.7384 127.579 38.341 120.771L40.8938 119.404L64.7832 144.513C66.9641 147.157 71.1056 147.789 74.2485 145.946C74.276 145.93 74.3036 145.914 74.3288 145.896L80.6673 141.641C81.3607 141.177 81.8979 140.544 82.2468 139.817C82.3731 139.64 82.4902 139.453 82.5912 139.258C84.9581 134.716 85.0683 134.173 85.1256 133.881C85.4999 132.008 84.7055 130.133 83.1054 129.107L76.8863 125.115C74.1612 123.366 71.7461 121.205 69.7075 118.691L61.3763 108.424L63.7777 107.136C64.5261 106.795 65.1459 106.478 65.7267 106.137C67.1202 105.318 68.4196 104.336 69.6065 103.211C75.3252 101.752 81.1678 101.168 86.4388 101.036C88.4682 102.431 90.5367 103.694 92.6281 104.817C105.461 111.701 116.205 112.409 128.012 105.482C136.791 100.332 141.754 90.0545 141.991 76.5464C142.218 63.5858 138.033 49.0699 130.207 35.6721C122.381 22.2744 111.8 11.5111 100.413 5.36561ZM76.4845 76.3393L89.4715 66.7425L74.7283 73.4103L82.0172 67.5938L72.9284 70.9277C72.8481 70.7943 72.7677 70.6608 72.6897 70.5274L77.7633 66.4595L71.3375 68.1852C71.248 68.0241 71.1584 67.8653 71.0712 67.7043L75.1163 64.398L69.8636 65.4287C69.7718 65.2493 69.68 65.0698 69.5882 64.8904L73.2338 61.9591L68.5229 62.6977C68.4311 62.5021 68.3439 62.3065 68.252 62.111L71.7025 59.3362L67.3269 60.0218C67.2465 59.8331 67.1662 59.6445 67.0881 59.4558L86.122 52.0195C85.5136 54.9393 86.2207 58.6758 88.2961 62.2329C89.4118 64.1449 90.7709 65.7348 92.2263 66.9358L76.7325 76.6729C76.6498 76.5579 76.5672 76.4451 76.4845 76.3301V76.3393ZM99.8436 65.9994C97.8371 67.1751 93.7232 65.2654 91.0211 60.643C88.3213 56.0207 88.6725 51.488 90.679 50.31C92.6855 49.1343 96.8017 51.044 99.5015 55.6663C102.201 60.2887 101.85 64.8213 99.8436 65.9994ZM65.9081 36.5257C64.8199 38.1524 63.7134 39.7745 62.5265 41.3322C64.207 37.3816 66.2525 33.5761 68.3117 29.8004C71.0161 24.8398 73.9477 19.9736 77.0952 15.2684C78.1834 13.6417 79.2899 12.0219 80.4791 10.4619C78.8009 14.4148 76.7531 18.218 74.6962 21.9937C71.9941 26.9543 69.0533 31.8182 65.9081 36.5211V36.5257ZM62.3681 32.092C63.1486 28.8203 64.4848 25.6474 65.8874 22.6034C67.2901 19.5617 68.8489 16.4832 70.8393 13.7797C70.0634 17.0515 68.725 20.2244 67.32 23.2684C65.9173 26.3101 64.3539 29.3863 62.3681 32.092ZM92.2126 92.7258L102.066 93.2688L88.3787 88.957L111.175 88.5636L85.2244 84.9352L105.34 81.8015L86.6316 81.0491L102.075 68.3393C102.158 68.2726 102.229 68.1966 102.295 68.1161C105.381 65.4311 105.427 59.5317 102.233 54.065C101.503 52.8133 100.67 51.702 99.7724 50.7449L116.111 36.8064L95.9661 47.809C95.1718 47.4018 94.3706 47.1096 93.5808 46.9439L113.303 29.239C112.261 27.847 111.18 26.4849 110.062 25.1596L90.9499 43.4903L107.603 22.3687C104.472 18.975 101.042 15.8459 97.2494 13.0596C97.1828 13.0113 97.1162 12.9652 97.0497 12.9169L79.5333 33.5531L95.1167 11.6078C93.4982 10.5793 91.8177 9.65665 90.1166 8.76393C102.013 12.3532 114.986 23.3972 124.213 39.1924C138.513 63.6732 138.481 90.4342 124.142 98.846C115.457 103.942 103.485 101.154 92.2172 92.7235L92.2126 92.7258ZM67.1983 142.467C67.1708 142.433 67.1432 142.401 67.1134 142.371L43.7888 117.853L44.505 117.469L49.7944 121.525L46.8581 116.208L47.7971 115.704L52.9625 119.666L50.0951 114.473L51.0892 113.939L56.1306 117.807L53.3298 112.738L54.0438 112.356L65.0426 125.911C67.0973 128.444 69.5308 130.62 72.2742 132.381L78.8905 136.628C79.3014 136.893 79.5401 137.323 79.5447 137.813C79.5493 138.303 79.3198 138.738 78.9157 139.009L72.6185 143.234C71.0253 144.142 68.4839 144.055 67.2029 142.467H67.1983ZM60.2629 110.129C62.8135 112.913 65.2286 115.824 67.6391 118.73C69.2897 120.718 70.9587 122.627 72.9284 124.309C74.8018 125.908 76.8679 127.218 78.9088 128.582C80.8189 129.859 83.2202 131.044 83.4911 133.593C82.7014 131.502 80.8074 130.65 79.0075 129.564C76.9161 128.301 74.8018 127.038 72.8986 125.499C69.0533 122.393 66.14 118.205 63.2221 114.257C62.2166 112.895 61.2179 111.526 60.2606 110.129H60.2629ZM20.0968 91.1911C19.0178 86.2467 19.0408 81.2608 20.7442 76.4451C20.2552 77.2113 19.7984 78.0028 19.4035 78.8495C17.3282 83.3062 16.8254 88.0252 17.3489 92.873C16.2699 87.9286 16.2928 82.9427 17.9962 78.127C17.5073 78.8932 17.0504 79.6847 16.6555 80.5314C14.5802 84.9881 14.0774 89.7071 14.6009 94.5549C13.5219 89.6105 13.5448 84.6246 15.2483 79.8089C14.7593 80.5751 14.3024 81.3666 13.9076 82.2133C11.8322 86.67 11.3295 91.389 11.8529 96.2369C10.7739 91.2924 10.7968 86.3065 12.5003 81.4908C12.0113 82.257 11.5544 83.0485 11.1596 83.8952C9.08423 88.3519 8.58146 93.0709 9.10489 97.9188C8.0259 92.9743 8.04885 87.9884 9.75229 83.1727C9.2633 83.9389 8.80645 84.7304 8.41158 85.5771C6.33624 90.0338 5.83348 94.7528 6.3569 99.6007C5.27791 94.6539 5.30087 89.6657 7.00659 84.8477C7.40605 83.7226 7.89274 82.6574 8.43913 81.6358C9.80279 80.085 11.4167 78.7321 13.2739 77.6416L32.845 65.3804C31.7408 66.7655 28.3201 72.3865 27.6521 73.8176C25.5744 78.2743 25.074 82.9933 25.5974 87.8411C24.5184 82.8967 24.5414 77.9108 26.2448 73.0951C25.7558 73.8613 25.299 74.6528 24.9041 75.4995C22.8288 79.9562 22.326 84.6752 22.8494 89.523C21.7704 84.5786 21.7934 79.5927 23.4968 74.777C23.0078 75.5432 22.551 76.3347 22.1561 77.1814C20.0808 81.6381 19.578 86.3571 20.1014 91.2049L20.0968 91.1911ZM73.4083 93.5242C74.4597 94.2766 75.5479 94.9484 76.6682 95.5512C74.5148 95.022 72.4211 94.2719 70.3917 93.2366C66.6267 91.3154 63.4058 88.6464 60.5338 85.5656C63.1463 89.1825 66.202 92.3416 69.921 94.8311C70.8967 95.4845 71.9045 96.0643 72.9353 96.5843C70.8485 96.1494 68.8122 95.496 66.8218 94.5665C63.0384 92.8017 59.8015 90.2225 56.9272 87.2199C59.565 90.7747 62.6734 93.8555 66.4568 96.1816C67.3659 96.7407 68.2957 97.2377 69.2438 97.6818C67.3911 97.3689 65.5706 96.8696 63.78 96.1402C59.767 94.5066 56.3418 91.9504 53.3252 88.8719C56.0296 92.4221 59.239 95.4684 63.1601 97.645C63.9544 98.0844 64.7602 98.4779 65.5752 98.8322C63.7226 98.5952 61.8929 98.1557 60.093 97.4678C56.1145 95.947 52.7214 93.5196 49.7209 90.5262C52.4781 94.0603 55.7793 97.0767 59.8083 99.0968C60.4856 99.435 61.1674 99.741 61.8561 100.017C60.0655 99.8492 58.2909 99.4787 56.5346 98.869C52.5309 97.477 49.1309 95.1256 46.1143 92.1805C48.9564 95.7422 52.384 98.7425 56.5737 100.611C57.0833 100.839 57.5953 101.046 58.1072 101.237C56.4405 101.131 54.7784 100.841 53.1209 100.335C49.0345 99.0853 45.5702 96.766 42.5077 93.8302C45.3292 97.2906 48.7062 100.157 52.8431 101.918C53.3551 102.136 53.8716 102.334 54.3881 102.514C52.7605 102.461 51.1282 102.217 49.5005 101.752C45.4141 100.588 41.9751 98.3743 38.9035 95.4799C41.7593 98.9104 45.1065 101.572 49.2365 103.303C49.877 103.572 50.5244 103.8 51.1764 104C44.4339 103.241 38.0288 99.083 34.1926 92.5164C29.2522 84.0609 29.9616 73.5898 35.7147 66.8599C42.7212 62.3134 48.5983 56.1104 53.1989 50.1512C54.8473 58.4342 57.9442 66.8829 62.701 75.0232C66.8287 82.0891 71.7576 88.2898 77.1641 93.469C76.03 93.0111 74.9165 92.4842 73.8261 91.8722C70.1299 89.8014 66.9733 87.045 64.1381 83.9136C66.7254 87.5995 69.7351 90.8966 73.4083 93.5265V93.5242ZM75.8601 84.3186C70.433 77.9084 66.039 70.6954 62.7193 62.9807C58.7523 53.7635 56.4359 43.4742 57.0466 33.4058C57.6136 24.0529 60.9769 14.3043 68.9821 8.81685C69.5928 8.3981 70.2401 8.04147 70.8784 7.66874C67.6001 9.96496 64.8819 12.7582 62.9328 16.2853C60.6509 20.413 59.4456 25.086 58.9727 29.759C57.981 39.5536 59.9828 49.5001 63.4494 58.6413C66.3122 66.1903 70.3067 73.3367 75.1668 79.7744C81.0898 87.6203 88.4981 94.6838 97.2471 99.2694C105.344 103.514 114.881 105.663 123.627 102.12C124.277 101.858 124.899 101.533 125.53 101.23C121.862 103.386 117.982 104.633 113.707 104.794C108.914 104.975 104.173 103.933 99.7242 102.187C90.415 98.5331 82.2858 91.9113 75.8601 84.3209V84.3186ZM139.268 64.2231C139.899 67.939 140.303 71.7054 140.191 75.4811C140.092 78.7506 139.642 81.8958 138.896 85.0732C140.092 78.9507 140.111 72.8765 139.167 66.7103C138.136 59.9597 136.05 53.3379 133.334 47.0842C127.76 34.2548 119.353 22.3664 108.556 13.4369C103.209 9.01472 97.2448 5.67162 90.6078 3.6722C96.5607 5.22526 101.976 7.88501 106.933 11.5433C112.532 15.6733 117.36 20.5994 121.694 26.034C126.143 31.6135 129.895 37.8211 132.875 44.3025C135.797 50.6528 138.093 57.3206 139.268 64.2254V64.2231Z" fill="#00B2ED"/>
</svg>
