<svg width="20" height="21" viewBox="0 0 20 21" fill="none" xmlns="http://www.w3.org/2000/svg">
<path d="M18.9519 1.85986C17.5543 0.462343 15.2885 0.462411 13.8911 1.86001L1.94103 13.8115C1.5347 14.2178 1.2491 14.729 1.116 15.288L0.0204105 19.8895C-0.0399142 20.1428 0.0355221 20.4093 0.219685 20.5935C0.403848 20.7777 0.670367 20.8531 0.92373 20.7928L5.52498 19.6972C6.08418 19.5641 6.59546 19.2784 7.00191 18.8719L18.952 6.92038C20.3493 5.52289 20.3493 3.25727 18.9519 1.85986ZM14.9518 2.92061C15.7634 2.10885 17.0795 2.10881 17.8912 2.92052C18.7028 3.73217 18.7029 5.04809 17.8913 5.85978L17 6.75123L14.0606 3.81189L14.9518 2.92061ZM13 4.87261L15.9394 7.81195L5.94119 17.8113C5.73104 18.0215 5.46668 18.1692 5.17755 18.238L1.76191 19.0513L2.57521 15.6354C2.64402 15.3464 2.79168 15.0821 3.00175 14.8721L13 4.87261Z" fill="#212121"/>
</svg>
