<svg width="18" height="23" viewBox="0 0 18 23" fill="none" xmlns="http://www.w3.org/2000/svg">
<path d="M14.2753 2.10323L14.2872 9.20435C15.4294 9.74197 16.9614 11.0234 17.3903 14.0562C17.421 14.269 17.4053 14.4858 17.3444 14.692C17.2836 14.8982 17.1789 15.0888 17.0376 15.2508L16.9627 15.3257C16.8234 15.4651 16.6579 15.5756 16.4758 15.6511C16.2937 15.7265 16.0985 15.7653 15.9014 15.7652L9.49966 15.7619L9.50164 21.4159C9.50164 21.6149 9.42258 21.8058 9.28185 21.9465C9.14112 22.0872 8.95025 22.1663 8.75123 22.1663C8.5522 22.1663 8.36133 22.0872 8.2206 21.9465C8.07987 21.8058 8.00081 21.6149 8.00081 21.4159L8.0028 15.7619L1.59906 15.7619C1.38844 15.7617 1.18021 15.7173 0.987923 15.6313C0.795635 15.5454 0.623601 15.4199 0.483021 15.2631C0.342442 15.1062 0.236468 14.9215 0.171998 14.721C0.107527 14.5205 0.0860065 14.3087 0.108836 14.0993C0.434326 11.0545 2.31435 9.70883 3.24176 9.22424L3.22916 2.10522C3.22914 1.90821 3.26793 1.71312 3.34331 1.5311C3.4187 1.34908 3.5292 1.18369 3.6685 1.04439C3.80781 0.905077 3.9732 0.794576 4.15522 0.719194C4.33724 0.643811 4.53232 0.605023 4.72934 0.605046L12.7751 0.604383C13.1728 0.604338 13.5542 0.762194 13.8355 1.04325C14.1168 1.32431 14.275 1.70557 14.2753 2.10323Z" fill="#00B2ED"/>
</svg>
