<svg xmlns="http://www.w3.org/2000/svg" width="328.571" height="308.569" viewBox="0 0 328.571 308.569"><path d="M950.944,684.094c1.04-12.376,3.221-26.674,3.209-40.972-.016-20.739-1.765-41.476-2.489-62.219-.516-14.818.342-29.686-1.023-44.457-2.2-23.8-2.579-47.7-8.166-71.337-2.813-11.9-2.819-23.9,4.5-35.21a40.5,40.5,0,0,1,8.715-9.678c7.205-5.721,18.365-7.1,28.075-3.678a42.471,42.471,0,0,1,10.921,5.427c16.924,12.552,37.479,21.59,58.2,30.518,34.8,14.995,70.43,29.122,103.171,46.347,29.773,15.663,58.937,31.9,88.3,47.955,5.747,3.142,11.08,6.657,16.747,9.876,7.59,4.311,9.713,10.144,7.194,16.232a42.234,42.234,0,0,1-9.974,14.164c-13.093,12.383-29.559,22.519-47.336,31.361-18.758,9.33-38.014,18.255-57.839,26.408a766.117,766.117,0,0,0-92.387,45.356c-14.622,8.457-29.764,16.479-44.912,24.472-9.208,4.858-19.406,8.313-31.26,8.586-14.059.323-23.858-4.131-29.237-13.307C951.911,704.073,950.442,696.241,950.944,684.094ZM1129.3,504.751c-1.674,4.62-6.12,7.96-5.033,12.643.158.683-1.619,1.967-2.859,2.289-.719.187-3.01-.936-3.089-1.564a7.089,7.089,0,0,1,1.057-4.228c2.025-3.541,4.334-7,6.639-10.668l-11.692-5.473c-2.676,2.839-5.162,5.343-7.438,7.938-1.425,1.625-2.527,3.386,1.75,5.011-2.247.731-4.132,1.805-4.913,1.5-1.293-.513-2.8-2.034-2.574-2.921a17.674,17.674,0,0,1,3.282-6.509c1.75-2.206,4.251-4.117,6.725-6.438l-13.565-6.019c-2.527,5.4-4.72,10.238-7.1,15.027-.379.76-1.627,1.3-2.473,1.948-.754-.682-2.3-1.493-2.129-2.024a37.6,37.6,0,0,1,3.435-7.828c1.67-2.762,3.913-5.352,6.01-8.156l-12.481-5.428-10.042,15.7c1.556.832,3.507,1.528,3.389,1.879a4.473,4.473,0,0,1-2.434,2.539,7.672,7.672,0,0,1-4.578.326c-1.128-.45-2.25-2.04-1.971-2.9a32.514,32.514,0,0,1,3.885-8.375c2.446-3.6,5.541-6.989,8.469-10.6l-14.346-6.16c-2.655,4.271-5.088,8.128-7.422,12.014a1.566,1.566,0,0,0-.013,1.682c1.1,1.275,1.8,2.5-.926,2.934-2.677.423-4.469-.707-4.581-2.537a6.5,6.5,0,0,1,1.246-3.974c2.661-3.788,5.6-7.478,8.616-11.44l-9.465-4.1c-2.095,3.054-4.112,5.652-5.627,8.388-.543.979.129,2.293.246,3.454l1.314.2c-1.228,1.55-1.447,4.1-5.492,3.173-3.29-.75-3.292-2.668-2.281-4.648a11.3,11.3,0,0,1,.865-1.35c2.474-3.5,4.955-7,7.579-10.7l-11.847-5.2c-2.006,3.763-3.791,7.024-5.451,10.316a1.419,1.419,0,0,0,.234,1.633c2.6,1.627.686,2.478-1.147,3.022-2.417.716-4.362-.175-4.71-1.857a6.13,6.13,0,0,1,.781-4.317c2.085-3.4,4.588-6.68,7.064-10.206l-9.307-4.243c-4.047,4.225-4.48,6.456-.888,8.9l-5.773,2.224c-.934-1.294-2.248-2.53-2.672-3.9-.292-.945.483-2.129,1.076-3.118,1.232-2.055,2.659-4.05,4.09-6.2l-7.646-3.691c-2.216,3.338-7.433,5.648-2.727,10.488-2.642,0-5.095.5-5.986-.121-1.216-.845-2.154-2.778-1.6-3.826,1.578-3.006,3.966-5.8,6.17-8.867l-7.266-4.119c-2.162,3.309-6.634,5.61-3.986,9.669.338.518-1.575,1.766-2.445,2.675-1.225-.61-3.453-1.194-3.486-1.834a10.9,10.9,0,0,1,1.2-5.742,49.631,49.631,0,0,1,4.69-6.272l-7.569-6.011c-3.085,4.631-5.946,8.886-8.724,13.168-.228.35.1.885.19,1.331.164.778.818,2.062.437,2.237a10.018,10.018,0,0,1-4.464,1.025,2.778,2.778,0,0,1-1.871-2.225,10.224,10.224,0,0,1,1.806-4.785c2.838-3.852,6.133-7.536,8.984-11.384a2.79,2.79,0,0,0-.094-3c-.795-1.147-2.343-2.035-4.056-3.432-4.683,5.879-9,11.286-13.285,16.707-.332.42-.749,1.023-.559,1.4,1.686,3.326-1.176,4.071-5.168,4.15.3,3.106.57,5.947.884,9.219l4.858-4.64,1,.483c-.689,5.681-5.652,10.938-3.727,16.91,1.71-1.878,2.754-3.927,4.323-5.753,1.433-1.667,1.951-4.3,6.6-4.21-5.706,9.942-13.636,19.159-8.209,30.077,2.807-3.8,5.543-7.646,8.488-11.416a87.146,87.146,0,0,1,5.8-6.514,19.142,19.142,0,0,1,2.844-2.02,19.308,19.308,0,0,1,.86,3.028c.055.429-.5.9-.8,1.348-5.279,7.732-10.859,15.371-15.729,23.228-2.781,4.486-.644,9.262.094,13.927a3.28,3.28,0,0,0,1.408-1.24c3.867-6.024,7.684-12.064,11.64-18.059.428-.648,1.642-1.039,2.491-1.55.313.767,1.056,1.6.853,2.287a23,23,0,0,1-2.178,4.785c-3.757,6.6-7.667,13.15-11.37,19.76-3.263,5.825-3.128,11.865-1.609,18.063,3.557-4.462,6.493-9.1,9.8-13.608,3.34-4.552,6.971-9,10.687-13.409.471-.559,2.232-.578,3.4-.847-.081.779.169,1.68-.3,2.317-2,2.713-4.487,5.261-6.305,8.029-5.353,8.151-10.31,16.432-15.744,24.555-3.132,4.684-1.678,9.375-1.135,14.187,1.766-1.82,2.865-3.806,4.35-5.638,6.734-8.307,13.527-16.591,20.474-24.809.55-.65,2.448-.735,3.719-1.083-.029.874.421,1.971-.158,2.589a175.017,175.017,0,0,0-27.03,38.722c-2.239,4.241-.928,8.207-.856,12.368a4.187,4.187,0,0,0,1.706-1.262q10.96-13.5,21.9-27a6.185,6.185,0,0,1,1.594-1.722,3.812,3.812,0,0,1,2.442-.446,1.544,1.544,0,0,1,.756,1.7,21.971,21.971,0,0,1-2.332,3.143c-7.431,9.848-14.683,19.765-22.368,29.512a15.546,15.546,0,0,0-3.389,12.49c.538,3.849.687,7.724,1.008,11.588a2.939,2.939,0,0,0,1.8-1.136c6.192-8.727,12.345-17.468,18.579-26.18,1.765-2.468,3.674-4.892,5.72-7.249.425-.49,1.743-.6,2.65-.879a5.692,5.692,0,0,1,.795,2.035c-.012.534-.675,1.063-1.059,1.59-6.913,9.47-15.112,18.487-19.793,28.746a11.445,11.445,0,0,1-5.537,5.36c-2.571,1.111-2.83,2.153-2.846,3.9-.123,14.018-.365,28.034-.555,42.051a10.76,10.76,0,0,0,.383,1.761l2.359-3.816,1.567.208c-5.676,14.913-9.956,29.855-3.013,45.081a74.289,74.289,0,0,0,3.924-9.628c1.944-5.354,3.883-10.71,6.013-16.027.234-.584,1.7-.922,2.6-1.374.162.673.637,1.4.436,2.012-1.541,4.713-3.337,9.384-4.811,14.106-1.493,4.784-2.708,9.611-4.145,14.783,2.569.086,4.345.231,6.112.189,3.482-.083,5.22-.8,6.092-3.819,2.226-7.714,5.651-15.259,8.758-22.839.289-.705,1.73-1.174,2.637-1.753.137.791.612,1.642.354,2.364-1.434,4.019-3.252,7.974-4.536,12.015-1.163,3.663-1.811,7.407-2.893,11.992,3.874-1.659,6.422-2.844,9.093-3.87a9.662,9.662,0,0,0,6.27-6.187c3.464-9.665,7.346-19.258,11.261-28.839.36-.88,2.089-1.483,3.182-2.215.3,1.021,1.123,2.131.811,3.048-1.833,5.374-4.045,10.683-5.9,16.053-1.266,3.659-2.163,7.381-3.224,11.075l1.128.434c2.9-1.9,6.779-3.449,8.448-5.784,2.334-3.267,2.89-7.146,4.432-10.715,3.06-7.083,6.237-14.141,9.456-21.189.611-1.338,1.1-3.29,3.964-2.531.716.189.956,2.319.552,3.4-2.616,6.965-5.478,13.885-8.243,20.824-.771,1.935-1.487,3.88-2.229,5.821a161.366,161.366,0,0,0,17.269-9.191,2.821,2.821,0,0,0,.969-2.045c.308-1.841,0-3.792.745-5.528,3.161-7.366,6.537-14.689,10.057-21.974.458-.949,2.212-1.587,3.366-2.37.433,1.167,1.575,2.472,1.177,3.475-1.959,4.942-4.424,9.783-6.512,14.7-1.257,2.963-2.149,6-3.2,9.008l1.12.34c4.4-2.859,11.022-4.227,10.84-10.009-.079-2.533,1.765-5.151,3.083-7.639,2.89-5.453,5.909-10.875,9.111-16.24.565-.947,2.272-1.556,3.451-2.322.327,1.082,1.271,2.295.874,3.224-1.894,4.439-4.178,8.795-6.272,13.193-1.528,3.206-2.976,6.431-4.46,9.647l.981.385c3.717-1.892,7.507-3.719,11.1-5.721a5.167,5.167,0,0,0,1.906-2.438c4.221-8.774,8.374-17.565,12.571-26.345a2.719,2.719,0,0,1,1.051-1.261,3.63,3.63,0,0,1,2.131-.533c.734.244,1.565.926,1.621,1.459.077.729-.507,1.5-.858,2.241-3.061,6.459-6.151,12.911-9.183,19.377a25.931,25.931,0,0,0-.985,3.4c3.964-1.814,6.769-3.294,9.825-4.441,3.232-1.214,4.8-2.607,4.805-5.463.01-2.661,1.536-5.395,2.9-7.963,2.9-5.454,6.055-10.841,9.285-16.2.488-.811,1.94-1.334,2.946-1.99.284,1.007,1.154,2.152.752,3-2,4.209-4.51,8.3-6.511,12.51-1.695,3.566-2.941,7.239-4.386,10.865a43.671,43.671,0,0,0,9.213-3.06c3.055-1.32,7.243-2.034,5.476-5.78-.413-.875.43-2.132.989-3.132,3.645-6.523,7.365-13.025,11.078-19.529a3.784,3.784,0,0,1,1.175-1.549,4.025,4.025,0,0,1,2.424-.611,2.162,2.162,0,0,1,1.476,1.52c.037.734-.57,1.492-.946,2.229-3.17,6.224-6.371,12.439-9.5,18.672a23.457,23.457,0,0,0-1.039,3.473c3.7-1.512,6.479-2.6,9.173-3.792a3.193,3.193,0,0,0,1.383-1.364c4.284-7.579,8.462-15.189,12.881-22.729.414-.706,2.281-.99,3.473-1.471.24.921,1.029,1.985.632,2.739-2.922,5.552-6.088,11.04-9.158,16.553-.428.767-.756,1.561-1.458,3.026,3.946-1.644,6.93-2.912,9.948-4.139,3.731-1.516,7.748-2.822,6.784-6.744-.17-.69.5-1.529.957-2.243,4.042-6.294,8.041-12.6,12.285-18.829.619-.91,2.458-1.407,3.732-2.1.163,1.205.951,2.587.381,3.584-2.458,4.3-5.406,8.464-7.988,12.733-1.4,2.308-2.412,4.731-3.6,7.1l.993.39c4.175-2.261,10.063-3.255,10.857-8.012.155-.926,1.141-1.786,1.766-2.669,3.99-5.635,7.918-11.292,12.064-16.869.539-.726,2.211-1.032,3.359-1.533.374.839,1.338,1.814,1.022,2.494a79.684,79.684,0,0,1-4.937,9.113c-1.674,2.646-3.769,5.159-5.678,7.73l.962.629c4.624-2.9,9.852-5.452,13.7-8.794,3.833-3.329,6.245-7.465,9.352-11.217,2.4-2.9,4.78-5.819,7.48-8.578.614-.628,2.517-.629,3.827-.918a6.532,6.532,0,0,1,.081,2.6c-.306.826-1.262,1.524-1.867,2.3-1.991,2.567-3.953,5.146-5.926,7.719l1.227.54c2.02-1.835,4.39-3.531,5.99-5.532,3.847-4.81,7.369-9.75,10.928-14.672.593-.819,1.385-2.049.933-2.675-1.713-2.371-3.9-4.572-6.047-6.99-6.018,4.521-7.427,10.621-15.26,14.193-.541-4.13,2.148-6.5,4.254-8.97,2.143-2.515,4.526-4.929,7.041-7.642l-14.286-8.115c-3.639,4.906-6.9,9.366-10.26,13.786a39.676,39.676,0,0,1-3.165,3.294l-1.6-.658c-1.077-7.473,8.27-11.862,11.812-18.252l-11.775-6.511c-4.447,6.185-9.562,11.737-11.15,18.423-.2.865-1.367,1.616-2.086,2.42-.856-.965-2.564-2.009-2.4-2.88a18.261,18.261,0,0,1,2.647-6.5c2.9-4.472,6.167-8.823,9.45-13.456l-11.622-6.227c-4.784,5.781-10.059,11.006-11.81,17.484a8.929,8.929,0,0,1-1.587,2.3c-.9-.854-2.7-1.8-2.538-2.544a17.719,17.719,0,0,1,2.792-6.716c2.979-4.109,6.491-8.026,9.963-12.241l-11.646-6.237c-3.115,6.466-6,12.4-8.8,18.36a2.336,2.336,0,0,0,.134,1.748c.468,1.207,1.776,2.646-1.258,2.945-2.693.266-4.033-1.035-3.794-2.712a20.688,20.688,0,0,1,1.981-7.205c2.67-4.849,5.891-9.548,9.02-14.519l-11.024-5.925c-1.82,2.711-3.757,5.014-4.937,7.5-1.578,3.319-4.836,6.679-.7,10.181-3.8,1.573-6.881.727-7.036-1.982a9.478,9.478,0,0,1,1.353-5.17c2.379-4.088,5.141-8.066,7.94-12.38l-10.979-5.936c-5.247,5.074-6.6,7.782-7.856,14.085-.155.777-1.956,1.391-2.994,2.08-.917-.688-2.745-1.5-2.6-2.044a34.832,34.832,0,0,1,3.328-8.722c1.519-2.583,3.987-4.888,6.168-7.47ZM963.38,449.174l16.914-19c-1.265-.735-2.737-1.591-5.173-3.009C972.27,435.15,962.721,440.683,963.38,449.174Zm10.255-22.316c-6.581-.568-11.519,5.648-9.668,12.393Z" transform="translate(-940.732 -414.693)" fill="#fef200"/></svg>