<svg width="29" height="28" viewBox="0 0 29 28" fill="none" xmlns="http://www.w3.org/2000/svg">
<path d="M14.334 2C16.2042 2 17.7203 3.4783 17.7203 5.30187V22.6981C17.7203 24.5217 16.2042 26 14.334 26C12.4638 26 10.9477 24.5217 10.9477 22.6981V5.30187C10.9477 3.4783 12.4638 2 14.334 2ZM22.9477 7.99932C24.8179 7.99932 26.334 9.47761 26.334 11.3012V22.6981C26.334 24.5217 24.8179 26 22.9477 26C21.0775 26 19.5614 24.5217 19.5614 22.6981V11.3012C19.5614 9.47761 21.0775 7.99932 22.9477 7.99932ZM5.72025 13.9986C7.59044 13.9986 9.10652 15.4769 9.10652 17.3005V22.6981C9.10652 24.5217 7.59044 26 5.72025 26C3.85007 26 2.33398 24.5217 2.33398 22.6981V17.3005C2.33398 15.4769 3.85007 13.9986 5.72025 13.9986Z" fill="#00B2ED"/>
</svg>
