<svg width="16" height="16" viewBox="0 0 16 16" fill="none" xmlns="http://www.w3.org/2000/svg">
<path d="M11.3346 5.99967V4.66634C11.3346 2.79967 9.86797 1.33301 8.0013 1.33301C6.13464 1.33301 4.66797 2.79967 4.66797 4.66634V5.99967C3.53464 5.99967 2.66797 6.86634 2.66797 7.99967V12.6663C2.66797 13.7997 3.53464 14.6663 4.66797 14.6663H11.3346C12.468 14.6663 13.3346 13.7997 13.3346 12.6663V7.99967C13.3346 6.86634 12.468 5.99967 11.3346 5.99967ZM6.0013 4.66634C6.0013 3.53301 6.86797 2.66634 8.0013 2.66634C9.13464 2.66634 10.0013 3.53301 10.0013 4.66634V5.99967H6.0013V4.66634Z" fill="#2B2B2B"/>
</svg>
