<svg width="24" height="24" viewBox="0 0 24 24" fill="none" xmlns="http://www.w3.org/2000/svg">
<path fill-rule="evenodd" clip-rule="evenodd" d="M0.75 11.9995C0.75 5.78651 5.787 0.749512 12 0.749512C18.213 0.749512 23.25 5.78651 23.25 11.9995C23.25 14.2915 22.5637 16.4245 21.3862 18.2035L22.5907 19.4088C22.8056 19.6163 22.9771 19.8646 23.095 20.1391C23.2129 20.4136 23.275 20.7089 23.2776 21.0076C23.2802 21.3064 23.2232 21.6026 23.1101 21.8792C22.997 22.1557 22.8299 22.4069 22.6186 22.6181C22.4074 22.8294 22.1562 22.9965 21.8796 23.1096C21.6031 23.2227 21.3069 23.2797 21.0081 23.2771C20.7093 23.2745 20.4141 23.2124 20.1396 23.0945C19.8651 22.9766 19.6168 22.8052 19.4093 22.5903L18.204 21.3858C16.3647 22.6045 14.2064 23.2529 12 23.2495C5.787 23.2495 0.75 18.2125 0.75 11.9995ZM12 2.24951C6.615 2.24951 2.25 6.61451 2.25 11.9995C2.25 17.3845 6.615 21.7495 12 21.7495C14.1908 21.7495 16.2113 21.028 17.8387 19.8085L18.3592 19.4185L20.4697 21.5298C20.6112 21.6664 20.8007 21.742 20.9973 21.7403C21.1939 21.7386 21.3821 21.6597 21.5211 21.5206C21.6602 21.3816 21.739 21.1935 21.7408 20.9968C21.7425 20.8002 21.6669 20.6107 21.5303 20.4693L19.4198 18.3588L19.8097 17.8383C21.0727 16.154 21.7537 14.1047 21.75 11.9995C21.75 6.61451 17.385 2.24951 12 2.24951ZM12 5.24951C10.2098 5.24951 8.4929 5.96067 7.22703 7.22654C5.96116 8.49241 5.25 10.2093 5.25 11.9995C5.25 13.7897 5.96116 15.5066 7.22703 16.7725C8.4929 18.0384 10.2098 18.7495 12 18.7495C13.0425 18.7495 14.0295 18.5133 14.91 18.0918L13.4093 16.5903C13.1944 16.3827 13.0229 16.1344 12.905 15.8599C12.7871 15.5854 12.725 15.2902 12.7224 14.9914C12.7198 14.6927 12.7768 14.3964 12.8899 14.1199C13.003 13.8433 13.1701 13.5921 13.3814 13.3809C13.5926 13.1696 13.8438 13.0025 14.1204 12.8894C14.3969 12.7763 14.6931 12.7194 14.9919 12.7219C15.2907 12.7245 15.5859 12.7866 15.8604 12.9045C16.1349 13.0225 16.3832 13.1939 16.5907 13.4088L18.0923 14.9095C18.5267 14.001 18.7515 13.0065 18.75 11.9995C18.75 10.2093 18.0388 8.49241 16.773 7.22654C15.5071 5.96067 13.7902 5.24951 12 5.24951ZM3.75 11.9995C3.75 7.44326 7.44375 3.74951 12 3.74951C16.5562 3.74951 20.25 7.44326 20.25 11.9995C20.25 13.6795 19.7475 15.2448 18.8827 16.5498L18.3757 17.3148L15.5303 14.4693C15.3888 14.3326 15.1993 14.257 15.0027 14.2588C14.8061 14.2605 14.6179 14.3393 14.4789 14.4784C14.3398 14.6175 14.261 14.8056 14.2592 15.0022C14.2575 15.1989 14.3331 15.3883 14.4697 15.5298L17.3153 18.3753L16.5502 18.8823C15.2013 19.7763 13.6183 20.2519 12 20.2495C7.44375 20.2495 3.75 16.5558 3.75 11.9995Z" fill="black"/>
</svg>
