<svg width="16" height="16" viewBox="0 0 16 16" fill="none" xmlns="http://www.w3.org/2000/svg">
<path d="M10 13C9.73478 13 9.48043 12.8946 9.29289 12.7071C9.10536 12.5196 9 12.2652 9 12C9 11.7348 9.10536 11.4804 9.29289 11.2929C9.48043 11.1054 9.73478 11 10 11C10.2652 11 10.5196 11.1054 10.7071 11.2929C10.8946 11.4804 11 11.7348 11 12C11 12.2652 10.8946 12.5196 10.7071 12.7071C10.5196 12.8946 10.2652 13 10 13ZM10 9C9.73478 9 9.48043 8.89464 9.29289 8.70711C9.10536 8.51957 9 8.26522 9 8C9 7.73478 9.10536 7.48043 9.29289 7.29289C9.48043 7.10536 9.73478 7 10 7C10.2652 7 10.5196 7.10536 10.7071 7.29289C10.8946 7.48043 11 7.73478 11 8C11 8.26522 10.8946 8.51957 10.7071 8.70711C10.5196 8.89464 10.2652 9 10 9ZM6 13C5.73478 13 5.48043 12.8946 5.29289 12.7071C5.10536 12.5196 5 12.2652 5 12C5 11.7348 5.10536 11.4804 5.29289 11.2929C5.48043 11.1054 5.73478 11 6 11C6.26522 11 6.51957 11.1054 6.70711 11.2929C6.89464 11.4804 7 11.7348 7 12C7 12.2652 6.89464 12.5196 6.70711 12.7071C6.51957 12.8946 6.26522 13 6 13ZM11 4C11 4.26522 10.8946 4.51957 10.7071 4.70711C10.5196 4.89464 10.2652 5 10 5C9.73478 5 9.48043 4.89464 9.29289 4.70711C9.10536 4.51957 9 4.26522 9 4C9 3.73478 9.10536 3.48043 9.29289 3.29289C9.48043 3.10536 9.73478 3 10 3C10.2652 3 10.5196 3.10536 10.7071 3.29289C10.8946 3.48043 11 3.73478 11 4ZM7 8C7 8.26522 6.89464 8.51957 6.70711 8.70711C6.51957 8.89464 6.26522 9 6 9C5.73478 9 5.48043 8.89464 5.29289 8.70711C5.10536 8.51957 5 8.26522 5 8C5 7.73478 5.10536 7.48043 5.29289 7.29289C5.48043 7.10536 5.73478 7 6 7C6.26522 7 6.51957 7.10536 6.70711 7.29289C6.89464 7.48043 7 7.73478 7 8ZM6 5C5.73478 5 5.48043 4.89464 5.29289 4.70711C5.10536 4.51957 5 4.26522 5 4C5 3.73478 5.10536 3.48043 5.29289 3.29289C5.48043 3.10536 5.73478 3 6 3C6.26522 3 6.51957 3.10536 6.70711 3.29289C6.89464 3.48043 7 3.73478 7 4C7 4.26522 6.89464 4.51957 6.70711 4.70711C6.51957 4.89464 6.26522 5 6 5Z" fill="black"/>
</svg>
