<svg width="20" height="20" viewBox="0 0 20 20" fill="none" xmlns="http://www.w3.org/2000/svg">
<path d="M13.3101 13.3092C13.0666 13.5526 12.6719 13.5526 12.4284 13.3092L9.66838 10.5491C9.48085 10.3616 9.37549 10.1073 9.37549 9.84204V5C9.37549 4.65482 9.65531 4.375 10.0005 4.375C10.3457 4.375 10.6255 4.65482 10.6255 5V9.32387C10.6255 9.58874 10.7306 9.84279 10.9177 10.0303L13.3105 12.4279C13.5536 12.6714 13.5534 13.0659 13.3101 13.3092Z" fill="#A8A8A8"/>
<path d="M10.0005 1.25C8.83484 1.25017 7.68107 1.48424 6.60751 1.93835C5.53395 2.39247 4.56243 3.05739 3.75049 3.89375V1.89394C3.75049 1.5383 3.46219 1.25 3.10655 1.25C2.77183 1.25 2.50049 1.52134 2.50049 1.85606V5.80263C2.50049 6.04971 2.70078 6.25 2.94786 6.25H6.86258C7.21489 6.25 7.50049 5.9644 7.50049 5.61209C7.50049 5.27404 7.22644 5 6.88839 5H4.42549C5.59801 3.69706 7.18985 2.84596 8.92456 2.5945C10.6593 2.34305 12.4273 2.70714 13.9215 3.62352C15.4157 4.53991 16.5417 5.95072 17.1041 7.61091C17.6664 9.27111 17.6294 11.0758 16.9997 12.7116C16.3699 14.3474 15.187 15.711 13.6566 16.5654C12.1261 17.4199 10.3447 17.7113 8.62173 17.3891C6.89876 17.0669 5.34308 16.1514 4.22486 14.8015C3.24016 13.6129 2.64947 12.1536 2.52515 10.6251C2.49716 10.2809 2.22012 10 1.87478 10C1.52999 10 1.24817 10.2799 1.27275 10.6238C1.38073 12.1348 1.87957 13.5958 2.72513 14.8612C3.68659 16.3002 5.05315 17.4217 6.65201 18.0839C8.25086 18.7462 10.0102 18.9195 11.7075 18.5819C13.4049 18.2442 14.964 17.4109 16.1877 16.1872C17.4114 14.9635 18.2447 13.4044 18.5824 11.707C18.92 10.0097 18.7467 8.25037 18.0844 6.65152C17.4222 5.05267 16.3007 3.6861 14.8617 2.72464C13.4228 1.76318 11.7311 1.25 10.0005 1.25Z" fill="#A8A8A8"/>
</svg>
