<svg width="20" height="20" viewBox="0 0 20 20" fill="none" xmlns="http://www.w3.org/2000/svg">
<path d="M10.5768 9.4455C10.8835 9.11827 11.099 8.73938 11.2235 8.30883C11.3479 7.87827 11.4102 7.43744 11.4102 6.98633C11.4102 6.53522 11.3479 6.09466 11.2235 5.66466C11.099 5.23466 10.8835 4.85577 10.5768 4.528C11.2074 4.58577 11.7282 4.84966 12.1393 5.31966C12.5504 5.79022 12.756 6.34577 12.756 6.98633C12.756 7.62688 12.5504 8.18244 12.1393 8.653C11.7282 9.12355 11.2074 9.38744 10.5768 9.44466M14.7435 15.5122V14.1022C14.7435 13.6938 14.6699 13.3049 14.5227 12.9355C14.3754 12.5661 14.1427 12.2616 13.8243 12.0222C14.3938 12.1972 14.9138 12.448 15.3843 12.7747C15.8549 13.1008 16.0902 13.5433 16.0902 14.1022V15.513L14.7435 15.5122ZM16.0902 10.4163V8.74966H14.4235V7.91633H16.0902V6.24966H16.9235V7.91633H18.5902V8.74966H16.9235V10.4163H16.0902ZM7.24349 9.48716C6.55627 9.48716 5.96766 9.24216 5.47766 8.75216C4.98766 8.26216 4.74321 7.67355 4.74432 6.98633C4.74543 6.29911 4.98988 5.71077 5.47766 5.22133C5.96543 4.73188 6.55432 4.48688 7.24432 4.48633C7.93432 4.48577 8.52266 4.73077 9.00932 5.22133C9.49599 5.71188 9.74071 6.30022 9.74349 6.98633C9.74627 7.67244 9.50154 8.26133 9.00932 8.753C8.5171 9.24466 7.92849 9.48911 7.24349 9.48633M1.41016 15.513V14.1405C1.41016 13.7966 1.51016 13.4749 1.71016 13.1755C1.91071 12.8755 2.18043 12.6427 2.51932 12.4772C3.30543 12.0999 4.09238 11.8172 4.88016 11.6288C5.66738 11.4399 6.45516 11.3455 7.24349 11.3455C8.03182 11.3455 8.81988 11.4399 9.60766 11.6288C10.3954 11.8177 11.1821 12.1005 11.9677 12.4772C12.3065 12.6427 12.576 12.8755 12.776 13.1755C12.9765 13.4749 13.0768 13.7966 13.0768 14.1405V15.513H1.41016Z" fill="black" fill-opacity="0.4"/>
</svg>
