<svg width="162" height="161" viewBox="0 0 162 161" fill="none" xmlns="http://www.w3.org/2000/svg">
<path d="M80.997 5.03125C101.006 5.05531 120.189 13.0145 134.337 27.163C148.486 41.3122 156.445 60.4959 156.469 80.5058C156.468 95.4301 152.041 110.019 143.75 122.428C135.457 134.839 123.671 144.512 109.881 150.224C96.0905 155.936 80.9163 157.431 66.2768 154.519C51.6373 151.607 38.1901 144.419 27.6356 133.864C17.0811 123.31 9.89338 109.863 6.9814 95.2232C4.06942 80.5837 5.56395 65.4095 11.276 51.6193C16.9881 37.8292 26.6611 26.0426 39.0718 17.75C51.4818 9.45797 66.0718 5.03184 80.997 5.03125ZM73.0243 124.637L74.3487 119.783L73.0243 124.637C74.5378 125.05 76.1184 125.157 77.6739 124.952C79.2294 124.748 80.7286 124.236 82.0839 123.446C83.4393 122.655 84.6236 121.603 85.5679 120.35L85.5843 120.329L85.6004 120.307L131.462 58.0707C132.419 56.8595 133.128 55.4711 133.548 53.9848L128.706 52.6166L133.548 53.9848C133.979 52.4576 134.097 50.8588 133.893 49.2849C133.689 47.711 133.168 46.1948 132.362 44.828L128.029 47.3842L132.362 44.828C131.556 43.4611 130.481 42.2718 129.202 41.3321C127.923 40.3924 126.467 39.7218 124.921 39.3607C123.376 38.9997 121.774 38.9557 120.211 39.2314C118.648 39.5072 117.157 40.097 115.829 40.9651C114.538 41.8085 113.426 42.8977 112.557 44.1701L73.9506 96.5652L50.6959 77.9604C48.2645 76.0146 45.1598 75.1145 42.0648 75.4579C38.9697 75.8013 36.1378 77.3601 34.1921 79.7915C32.2464 82.2229 31.3462 85.3276 31.6896 88.4226L36.6902 87.8678L31.6896 88.4226C31.8597 89.9551 32.3299 91.4392 33.0735 92.7899L37.4811 90.3637L33.0735 92.79C33.817 94.1408 34.8194 95.3318 36.0232 96.2953L36.025 96.2967L68.8154 122.513L68.8369 122.53L68.8586 122.547C70.0946 123.513 71.5107 124.224 73.0243 124.637Z" fill="#00B2ED" stroke="#00B2ED" stroke-width="10.0625"/>
</svg>
