<svg width="20" height="20" viewBox="0 0 20 20" fill="none" xmlns="http://www.w3.org/2000/svg">
<g clip-path="url(#clip0_21_414954)">
<path fill-rule="evenodd" clip-rule="evenodd" d="M0.222486 9.55067L7.91849 1.73067C8.33449 1.42467 8.69849 1.42167 9.00949 1.72267C9.32149 2.02367 9.32349 2.38767 9.01649 2.81567L2.68249 9.24367L19.3205 9.24367C19.7735 9.28467 20.0005 9.56267 20.0015 10.0767C20.0025 10.5907 19.7755 10.8687 19.3215 10.9097L2.68149 10.7987L9.00949 17.1787C9.33049 17.5937 9.33049 17.9587 9.00949 18.2707C8.68949 18.5837 8.34649 18.6047 7.98249 18.3327L0.222486 10.6327C0.150629 10.5594 0.0940087 10.4727 0.0559027 10.3774C0.0177967 10.2821 -0.00103872 10.1803 0.000486349 10.0777C-0.00325904 9.97909 0.0146813 9.88089 0.0530406 9.79C0.0914 9.69911 0.149243 9.61775 0.222486 9.55167" fill="black"/>
</g>
<defs>
<clipPath id="clip0_21_414954">
<rect width="20" height="20" fill="white" transform="matrix(4.37114e-08 1 1 -4.37114e-08 0 0)"/>
</clipPath>
</defs>
</svg>
