<svg width="20" height="20" viewBox="0 0 20 20" fill="none" xmlns="http://www.w3.org/2000/svg">
<g clip-path="url(#clip0_21_414879)">
<path fill-rule="evenodd" clip-rule="evenodd" d="M19.7775 9.55067L12.0815 1.73067C11.6655 1.42467 11.3015 1.42167 10.9905 1.72267C10.6785 2.02367 10.6765 2.38767 10.9835 2.81567L17.3175 9.24367L0.679514 9.24367C0.226514 9.28467 -0.000486726 9.56267 -0.0014862 10.0767C-0.00248567 10.5907 0.224514 10.8687 0.678514 10.9097L17.3185 10.7987L10.9905 17.1787C10.6695 17.5937 10.6695 17.9587 10.9905 18.2707C11.3105 18.5837 11.6535 18.6047 12.0175 18.3327L19.7775 10.6327C19.8494 10.5594 19.906 10.4727 19.9441 10.3774C19.9822 10.2821 20.001 10.1803 19.9995 10.0777C20.0033 9.97909 19.9853 9.88089 19.947 9.79C19.9086 9.69911 19.8508 9.61775 19.7775 9.55167" fill="black"/>
</g>
<defs>
<clipPath id="clip0_21_414879">
<rect width="20" height="20" fill="white" transform="translate(20) rotate(90)"/>
</clipPath>
</defs>
</svg>
