<svg width="4" height="17" viewBox="0 0 4 17" fill="none" xmlns="http://www.w3.org/2000/svg">
<path d="M2 4.69482C0.89543 4.69482 -1.35705e-07 3.79939 -8.74228e-08 2.69482C-3.91405e-08 1.59025 0.895431 0.694824 2 0.694824C3.10457 0.694824 4 1.59025 4 2.69482C4 3.79939 3.10457 4.69482 2 4.69482ZM2 10.6948C0.89543 10.6948 -3.97973e-07 9.79939 -3.49691e-07 8.69482C-3.01409e-07 7.59025 0.89543 6.69482 2 6.69482C3.10457 6.69482 4 7.59025 4 8.69482C4 9.79939 3.10457 10.6948 2 10.6948ZM-6.11959e-07 14.6948C-6.60242e-07 15.7994 0.89543 16.6948 2 16.6948C3.10457 16.6948 4 15.7994 4 14.6948C4 13.5903 3.10457 12.6948 2 12.6948C0.89543 12.6948 -5.63677e-07 13.5903 -6.11959e-07 14.6948Z" fill="#272727"/>
</svg>
