<svg width="19" height="20" viewBox="0 0 19 20" fill="none" xmlns="http://www.w3.org/2000/svg">
<path d="M0 1.74805C0 1.33383 0.335786 0.998047 0.75 0.998047H17.2541C17.8722 0.998047 18.225 1.70369 17.8541 2.19811L13.6898 7.74927L17.8541 13.3004C18.225 13.7948 17.8722 14.5005 17.2541 14.5005L1.5 14.5V19.2499C1.5 19.6296 1.21785 19.9434 0.851771 19.993L0.75 19.9999C0.370304 19.9999 0.0565091 19.7177 0.00684667 19.3517L0 19.2499V1.74805ZM15.7539 2.49805H1.5V13.0005H15.7539L12.1522 8.19933C11.9522 7.93264 11.9522 7.5659 12.1522 7.29921L15.7539 2.49805Z" fill="#272727"/>
</svg>
