<svg width="20" height="20" viewBox="0 0 20 20" fill="none" xmlns="http://www.w3.org/2000/svg">
<path d="M1.28034 0.219675C0.987445 -0.0732209 0.512571 -0.0732257 0.219675 0.219665C-0.0732209 0.512555 -0.0732257 0.987429 0.219665 1.28032L3.49306 4.55379L0.627704 7.67259L0.583823 7.72499L0.546016 7.78018C0.205764 8.1744 0 8.68795 0 9.24957V12.7461C0 14.541 1.45507 15.9961 3.25 15.9961H5.74883C7.54376 15.9961 8.99883 14.541 8.99883 12.7461L8.998 10.504H9.44316L10.9997 12.0606L11 12.7461C11 14.541 12.4551 15.9961 14.25 15.9961H14.9351L18.7194 19.7805C19.0123 20.0734 19.4872 20.0734 19.7801 19.7805C20.073 19.4876 20.073 19.0127 19.7801 18.7198L1.28034 0.219675ZM5.93866 6.99944L3.283 6.99901L4.55456 5.61531L5.93866 6.99944ZM2.25 8.49957H6.74883C7.16305 8.49957 7.49883 8.83536 7.49883 9.24957V12.7461C7.49883 13.7126 6.71533 14.4961 5.74883 14.4961H3.25C2.2835 14.4961 1.5 13.7126 1.5 12.7461V9.24957C1.5 8.83536 1.83579 8.49957 2.25 8.49957ZM11.303 8.12117L12.5 9.31821V9.24957C12.5 8.83536 12.8358 8.49957 13.25 8.49957H17.7488C18.163 8.49957 18.4988 8.83536 18.4988 9.24957V12.7461C18.4988 13.4414 18.0934 14.042 17.506 14.3243L18.5996 15.418C19.4452 14.8312 19.9988 13.8533 19.9988 12.7461V9.24957C19.9988 8.72014 19.816 8.23342 19.5101 7.84907C19.479 7.7858 19.4384 7.72589 19.3881 7.67142L15.7462 3.72425L15.6133 3.59179C15.2 3.2127 14.6579 3.00001 14.0925 3.00001H12.7467L12.645 3.00686C12.2789 3.05652 11.9967 3.37031 11.9967 3.75001C11.9967 4.16422 12.3325 4.50001 12.7467 4.50001H14.0925L14.1962 4.50721C14.3669 4.53103 14.5254 4.61318 14.6438 4.74142L16.727 6.99901L13.25 6.99957C12.4186 6.99957 11.6925 7.45052 11.303 8.12117Z" fill="#272727"/>
</svg>
