<svg width="20" height="19" viewBox="0 0 20 19" fill="none" xmlns="http://www.w3.org/2000/svg">
<path d="M4.74658 1.11557H8.21079C8.625 1.11557 8.96079 1.45136 8.96079 1.86557C8.96079 2.24526 8.67863 2.55906 8.31256 2.60872L8.21079 2.61557H4.74658C3.55572 2.61557 2.58094 3.54073 2.50177 4.71152L2.49658 4.86557V14.3656C2.49658 15.5564 3.42174 16.5312 4.59253 16.6104L4.74658 16.6156H14.2473C15.4382 16.6156 16.413 15.6904 16.4921 14.5196L16.4973 14.3656V13.8678C16.4973 13.4536 16.8331 13.1178 17.2473 13.1178C17.627 13.1178 17.9408 13.3999 17.9905 13.766L17.9973 13.8678V14.3656C17.9973 16.3698 16.425 18.0068 14.4465 18.1104L14.2473 18.1156H4.74658C2.74232 18.1156 1.10531 16.5432 1.00178 14.5647L0.996582 14.3656V4.86557C0.996582 2.86131 2.56894 1.2243 4.54742 1.12077L4.74658 1.11557H8.21079H4.74658ZM12.5006 3.63542V0.865569C12.5006 0.241598 13.2074 -0.0944844 13.6876 0.255371L13.7697 0.324311L19.7643 6.07431C20.0441 6.34266 20.0696 6.77368 19.8407 7.07164L19.7644 7.15674L13.7698 12.9086C13.3196 13.3406 12.5877 13.0632 12.5077 12.4745L12.5006 12.3674V9.6421L12.1571 9.67221C9.75739 9.92253 7.45735 11.0034 5.24253 12.9329C4.72342 13.3852 3.92029 12.9576 4.00567 12.2744C4.67046 6.95487 7.45233 4.02287 12.2012 3.65507L12.5006 3.63542V0.865569V3.63542ZM14.0006 2.62421V4.36557C14.0006 4.77978 13.6648 5.11557 13.2506 5.11557C9.37717 5.11557 6.97655 6.7917 5.93931 10.2728L5.86025 10.5513L6.21244 10.3145C8.44892 8.85276 10.7983 8.11557 13.2506 8.11557C13.6303 8.11557 13.9441 8.39772 13.9937 8.7638L14.0006 8.86557V10.6084L18.1618 6.61566L14.0006 2.62421Z" fill="#272727"/>
</svg>
