<svg width="121" height="120" viewBox="0 0 121 120" fill="none" xmlns="http://www.w3.org/2000/svg">
<g clip-path="url(#clip0_2336_29025)">
<path d="M68.2349 5.28118L65.7495 14.9852L65.5695 15.6895L66.2909 15.6061L75.4714 14.5473L64.7393 31.3849L63.2649 31.7445L65.75 22.0395L65.9303 21.3361L65.2086 21.4186L56.0272 22.4777L66.7596 5.64098L68.2349 5.28118Z" fill="white" stroke="#00B2ED"/>
</g>
<g clip-path="url(#clip1_2336_29025)">
<path d="M113.944 85.53L103.968 84.6186L103.244 84.5519L103.441 85.2518L105.945 94.1475L87.6163 86.2263L87.0271 84.8278L97.0028 85.7401L97.7267 85.806L97.5293 85.1061L95.026 76.2091L113.354 84.1315L113.944 85.53Z" fill="white" stroke="#00B2ED"/>
</g>
<path d="M104.674 31.8815L96.0063 41.45L95.5185 41.989L96.1956 42.2517L107.368 46.5903L85.1061 59.2791L82.9741 58.7436L91.6413 49.1751L92.1291 48.6361L91.452 48.3734L80.2781 44.0334L102.541 31.3458L104.674 31.8815Z" fill="white" stroke="#00B2ED"/>
<g clip-path="url(#clip2_2336_29025)">
<path d="M4.67165 78.3985C7.74647 73.2808 22.3492 66.8547 23.087 67.4172C23.8249 67.9797 31.5776 58.7038 32.1304 58.5053C32.6831 58.3068 32.1022 32.157 45.091 34.1162C58.0798 36.0753 75.8298 48.3374 78.4981 65.6166C81.1665 82.8958 80.0838 95.0338 69.5487 94.2328C59.0136 93.4318 53.0812 86.3797 48.7896 88.2768C44.4981 90.1739 33.8744 91.3058 33.2801 94.7222C32.6858 98.1386 41.175 105.727 43.2061 108.666C45.2372 111.606 50.4411 111.837 48.791 114.313C47.1409 116.79 44.7409 119.958 42.2054 119.86C39.6698 119.762 27.1667 102.756 25.589 102.534C24.0113 102.312 21.4275 107.37 16.4437 104.936C11.4599 102.501 3.78355 95.4833 3.2845 89.6031C2.78544 83.723 1.94564 82.9358 4.67299 78.3985H4.67165Z" fill="white"/>
<path d="M55.2099 68.2897C54.1675 67.1743 53.4431 65.8094 52.9119 64.3962C52.7656 66.1996 53.8348 68.2359 55.1335 69.4464C55.8136 70.0806 56.8184 70.6652 57.6649 70.3536C58.1841 70.1633 58.4712 69.6491 58.486 69.0438C57.6569 70.2102 56.1369 69.2837 55.2086 68.2897H55.2099Z" fill="#00B2ED"/>
<path d="M58.6775 35.1294C51.7418 31.2911 45.0958 30.8761 39.967 33.9616C33.8469 37.6441 30.3857 44.4549 30.2476 52.5506C30.2127 54.5566 30.32 56.6136 30.5722 58.6982C28.9597 61.0213 26.9997 63.4988 24.7231 65.7612C23.8175 66.0549 22.9482 66.4492 22.1326 66.94C21.871 67.0972 21.6067 67.2723 21.3035 67.4901L6.79871 76.8087C-0.0149893 80.9076 -2.04877 90.3999 2.26295 97.9689C6.57467 105.538 15.6247 108.362 22.4049 104.282L23.8967 103.463L37.8568 118.509C39.1313 120.093 41.5514 120.472 43.388 119.368C43.4041 119.358 43.4202 119.348 43.4349 119.337L47.1389 116.788C47.5441 116.51 47.858 116.13 48.0619 115.695C48.1357 115.589 48.2041 115.477 48.2631 115.36C49.6463 112.638 49.7107 112.313 49.7442 112.138C49.9629 111.016 49.4987 109.892 48.5636 109.277L44.9294 106.885C43.337 105.837 41.9257 104.543 40.7344 103.036L35.8659 96.8839L37.2692 96.1118C37.7065 95.9078 38.0687 95.7175 38.4082 95.5135C39.2225 95.0226 39.9818 94.4339 40.6754 93.7598C44.0172 92.8857 47.4314 92.5355 50.5116 92.4569C51.6975 93.2924 52.9062 94.0493 54.1284 94.7221C61.6276 98.8471 67.906 99.2718 74.8056 95.1205C79.9356 92.035 82.8361 85.8764 82.9742 77.7821C83.1071 70.0159 80.6614 61.3177 76.0881 53.2895C71.5148 45.2614 65.3316 38.8119 58.6775 35.1294ZM44.6946 77.658L52.2837 71.9074L43.6684 75.9029L47.9278 72.4176L42.6166 74.4153C42.5696 74.3353 42.5227 74.2554 42.4771 74.1754L45.4419 71.7379L41.6869 72.7719C41.6346 72.6754 41.5823 72.5802 41.5313 72.4837L43.8951 70.5026L40.8256 71.1202C40.772 71.0127 40.7183 70.9051 40.6646 70.7976L42.795 69.0411L40.0422 69.4837C39.9885 69.3665 39.9375 69.2493 39.8839 69.1321L41.9002 67.4694L39.3432 67.8803C39.2963 67.7672 39.2493 67.6542 39.2037 67.5411L50.3264 63.0852C49.9709 64.8347 50.3841 67.0737 51.5969 69.2052C52.2489 70.3509 53.0431 71.3036 53.8936 72.0233L44.8395 77.8579C44.7912 77.789 44.7429 77.7214 44.6946 77.6525V77.658ZM58.3448 71.4621C57.1723 72.1666 54.7683 71.0223 53.1893 68.2525C51.6116 65.4827 51.8169 62.7667 52.9894 62.0608C54.1619 61.3563 56.5673 62.5006 58.145 65.2704C59.7226 68.0402 59.5173 70.7562 58.3448 71.4621ZM38.5141 53.801C37.8783 54.7758 37.2316 55.7478 36.538 56.6811C37.5201 54.3139 38.7154 52.0336 39.9187 49.7711C41.4991 46.7986 43.2122 43.8827 45.0515 41.0633C45.6874 40.0885 46.334 39.1179 47.0289 38.1832C46.0483 40.5518 44.8516 42.8308 43.6496 45.0932C42.0706 48.0657 40.3521 50.9802 38.5141 53.7983V53.801ZM36.4455 51.1443C36.9016 49.1838 37.6824 47.2826 38.5021 45.4586C39.3218 43.6359 40.2327 41.7912 41.3958 40.1713C40.9423 42.1318 40.1602 44.033 39.3392 45.857C38.5195 47.6796 37.6059 49.5229 36.4455 51.1443ZM53.8856 87.477L59.6435 87.8024L51.6452 85.2187L64.9667 84.983L49.8019 82.8088L61.5565 80.931L50.6243 80.4802L59.6488 72.8643C59.6971 72.8243 59.7387 72.7788 59.7776 72.7305C61.5806 71.1216 61.6075 67.5866 59.7414 64.3108C59.3148 63.5608 58.8278 62.8949 58.3033 62.3214L67.851 53.9692L56.079 60.5622C55.6148 60.3181 55.1466 60.143 54.6851 60.0438L66.2103 49.4347C65.6012 48.6006 64.9694 47.7844 64.3161 46.9903L53.1477 57.9743L62.8793 45.3179C61.0494 43.2844 59.0451 41.4093 56.8289 39.7397C56.79 39.7108 56.7511 39.6832 56.7122 39.6542L46.4762 52.0198L55.5826 38.8698C54.6368 38.2535 53.6548 37.7006 52.6607 37.1657C59.6126 39.3165 67.1937 45.9342 72.5853 55.3989C80.9418 70.0683 80.923 86.1039 72.5437 91.1444C67.4687 94.1982 60.4725 92.5272 53.8882 87.4757L53.8856 87.477ZM39.2681 117.283C39.252 117.262 39.2359 117.243 39.2185 117.225L25.5884 102.534L26.0069 102.304L29.0978 104.734L27.382 101.548L27.9307 101.246L30.9492 103.62L29.2736 100.508L29.8545 100.189L32.8005 102.506L31.1638 99.4689L31.581 99.2401L38.0084 107.362C39.2091 108.88 40.6311 110.184 42.2342 111.239L46.1006 113.784C46.3407 113.942 46.4802 114.2 46.4829 114.494C46.4856 114.788 46.3514 115.048 46.1153 115.211L42.4355 117.742C41.5044 118.287 40.0194 118.234 39.2708 117.283H39.2681ZM35.2153 97.9055C36.7057 99.5737 38.1171 101.318 39.5257 103.059C40.4902 104.25 41.4655 105.395 42.6166 106.402C43.7113 107.361 44.9187 108.145 46.1113 108.963C47.2275 109.728 48.6307 110.438 48.789 111.965C48.3275 110.712 47.2208 110.202 46.169 109.551C44.9468 108.794 43.7113 108.038 42.5991 107.115C40.3521 105.254 38.6496 102.745 36.9445 100.379C36.3569 99.5627 35.7747 98.7424 35.2153 97.9055ZM11.7436 86.5575C11.1131 83.5946 11.1265 80.607 12.122 77.7214C11.8362 78.1805 11.5692 78.6548 11.3385 79.1621C10.1257 81.8327 9.83194 84.6604 10.1378 87.5653C9.50729 84.6025 9.5207 81.6148 10.5161 78.7292C10.2304 79.1883 9.96341 79.6626 9.73267 80.17C8.51991 82.8405 8.22611 85.6682 8.53199 88.5731C7.90146 85.6103 7.91487 82.6227 8.9103 79.737C8.62455 80.1962 8.35758 80.6704 8.12684 81.1778C6.91408 83.8483 6.62029 86.676 6.92616 89.5809C6.29563 86.6181 6.30905 83.6305 7.30447 80.7449C7.01872 81.204 6.75176 81.6783 6.52101 82.1856C5.30826 84.8561 5.01446 87.6838 5.32033 90.5888C4.6898 87.6259 4.70322 84.6383 5.69865 81.7527C5.4129 82.2118 5.14593 82.6861 4.91518 83.1934C3.70243 85.864 3.40863 88.6917 3.7145 91.5966C3.08398 88.6324 3.09739 85.6434 4.09416 82.7564C4.32759 82.0822 4.61199 81.4439 4.93128 80.8317C5.72816 79.9025 6.67126 79.0918 7.75657 78.4383L19.1932 71.0913C18.548 71.9212 16.549 75.2894 16.1587 76.1469C14.9446 78.8175 14.6521 81.6452 14.958 84.5501C14.3275 81.5873 14.3409 78.5996 15.3363 75.714C15.0505 76.1731 14.7836 76.6474 14.5528 77.1548C13.3401 79.8253 13.0463 82.653 13.3522 85.5579C12.7216 82.5951 12.735 79.6075 13.7305 76.7218C13.4447 77.181 13.1778 77.6552 12.947 78.1626C11.7343 80.8331 11.4405 83.6608 11.7463 86.5657L11.7436 86.5575ZM42.897 87.9555C43.5114 88.4063 44.1473 88.8089 44.802 89.1701C43.5436 88.853 42.3201 88.4035 41.1342 87.7831C38.934 86.6319 37.0519 85.0326 35.3736 83.1866C36.9003 85.3539 38.6859 87.2468 40.8592 88.7385C41.4293 89.1301 42.0183 89.4775 42.6206 89.7891C41.4011 89.5285 40.2112 89.137 39.0481 88.58C36.8372 87.5225 34.9456 85.977 33.266 84.1778C34.8075 86.3079 36.6239 88.154 38.8348 89.5478C39.366 89.8829 39.9093 90.1807 40.4634 90.4468C39.3808 90.2593 38.3169 89.9601 37.2705 89.523C34.9255 88.5442 32.9239 87.0124 31.1611 85.1677C32.7415 87.2951 34.617 89.1204 36.9083 90.4247C37.3725 90.688 37.8434 90.9238 38.3196 91.1361C37.237 90.9941 36.1678 90.7308 35.116 90.3185C32.7911 89.4072 30.8083 87.9527 29.0549 86.159C30.6661 88.2767 32.5953 90.0842 34.9497 91.2947C35.3454 91.4973 35.7439 91.6807 36.1463 91.8461C35.0999 91.7455 34.0629 91.5235 33.0366 91.1582C30.697 90.3241 28.7101 88.915 26.9474 87.1503C28.6082 89.2845 30.6111 91.0823 33.0594 92.2018C33.3573 92.3383 33.6564 92.4624 33.9556 92.5768C32.9816 92.5134 32.0103 92.3397 31.0417 92.0364C28.6538 91.2878 26.6294 89.898 24.8398 88.1388C26.4885 90.2124 28.462 91.9302 30.8794 92.9849C31.1786 93.1159 31.4804 93.2345 31.7823 93.342C30.8311 93.3103 29.8773 93.1642 28.9261 92.8857C26.5382 92.188 24.5286 90.8617 22.7336 89.1273C24.4024 91.183 26.3584 92.7781 28.7719 93.8149C29.1461 93.9762 29.5245 94.1127 29.9055 94.2327C25.9653 93.7777 22.2224 91.2864 19.9807 87.3516C17.0937 82.2849 17.5083 76.0104 20.8702 71.9778C24.9646 69.2535 28.3989 65.5365 31.0874 61.9657C32.0506 66.929 33.8603 71.9915 36.64 76.8694C39.0521 81.1033 41.9324 84.8189 45.0917 87.9224C44.429 87.648 43.7784 87.3323 43.1411 86.9655C40.9812 85.7247 39.1366 84.073 37.4798 82.1966C38.9917 84.4053 40.7505 86.3796 42.897 87.9555ZM44.3297 82.4393C41.1583 78.5983 38.5906 74.276 36.6507 69.6533C34.3326 64.1302 32.9789 57.9647 33.3358 51.9315C33.6671 46.3271 35.6325 40.4856 40.3105 37.1974C40.6673 36.9465 41.0456 36.7328 41.4186 36.5094C39.5029 37.8854 37.9145 39.5591 36.7755 41.6727C35.442 44.146 34.7377 46.9462 34.4613 49.7463C33.8818 55.6154 35.0516 61.5755 37.0774 67.0531C38.7503 71.5766 41.0845 75.8588 43.9246 79.7164C47.3858 84.4177 51.7149 88.6503 56.8276 91.3981C61.5592 93.9417 67.132 95.2294 72.2432 93.1063C72.6229 92.9491 72.9864 92.7547 73.3554 92.5727C71.2116 93.8645 68.9444 94.6118 66.4464 94.7083C63.6453 94.8172 60.875 94.1927 58.2751 93.1462C52.8351 90.9569 48.0847 86.9876 44.3297 82.4393ZM81.3832 70.3978C81.7521 72.6244 81.9882 74.8813 81.9225 77.1437C81.8648 79.1028 81.6018 80.9875 81.1658 82.8915C81.8648 79.2228 81.8755 75.583 81.3242 71.8881C80.7218 67.843 79.5023 63.8752 77.9153 60.1279C74.658 52.4403 69.7453 45.3165 63.436 39.9658C60.3115 37.316 56.8262 35.3127 52.9478 34.1147C56.4264 35.0453 59.5911 36.639 62.4875 38.8312C65.7596 41.3059 68.5808 44.2577 71.1137 47.5142C73.7136 50.8575 75.9056 54.5772 77.647 58.461C79.3548 62.2662 80.6963 66.2603 81.3832 70.3978Z" fill="#00B2ED"/>
</g>
<defs>
<clipPath id="clip0_2336_29025">
<rect width="30.6387" height="30.6382" fill="white" transform="matrix(0.971526 -0.236932 0.236939 0.971524 47.2383 7.25928)"/>
</clipPath>
<clipPath id="clip1_2336_29025">
<rect width="30.6383" height="30.6386" fill="white" transform="matrix(0.388267 0.921547 -0.921551 0.388256 108.656 65.114)"/>
</clipPath>
<clipPath id="clip2_2336_29025">
<rect width="82.9798" height="88.0848" fill="white" transform="translate(0 31.9152)"/>
</clipPath>
</defs>
</svg>
