<svg width="170" height="164" viewBox="0 0 170 164" fill="none" xmlns="http://www.w3.org/2000/svg" >
<path d="M100.413 22.3657C88.544 15.9602 77.171 15.2677 68.3944 20.4169C57.9213 26.5624 51.9983 37.9285 51.7618 51.439C51.7021 54.7867 51.8858 58.2196 52.3174 61.6984C49.5579 65.5753 46.2039 69.7099 42.308 73.4856C40.7584 73.9756 39.2708 74.6337 37.875 75.4528C37.4273 75.7151 36.975 76.0073 36.4562 76.3708L11.6348 91.9221C-0.0252235 98.7625 -3.50555 114.604 3.87292 127.235C11.2514 139.867 26.7384 144.579 38.341 137.771L40.8938 136.404L64.7832 161.513C66.9641 164.157 71.1056 164.789 74.2485 162.946C74.276 162.93 74.3036 162.914 74.3288 162.896L80.6673 158.642C81.3607 158.177 81.8979 157.544 82.2468 156.817C82.3731 156.64 82.4902 156.453 82.5912 156.258C84.9581 151.716 85.0683 151.173 85.1256 150.881C85.4999 149.008 84.7055 147.133 83.1054 146.107L76.8863 142.115C74.1612 140.366 71.7461 138.206 69.7075 135.691L61.3763 125.424L63.7777 124.136C64.5261 123.795 65.1459 123.478 65.7267 123.137C67.1202 122.318 68.4196 121.336 69.6065 120.211C75.3252 118.752 81.1678 118.168 86.4388 118.037C88.4682 119.431 90.5367 120.694 92.6281 121.817C105.461 128.701 116.205 129.41 128.012 122.482C136.791 117.332 141.754 107.055 141.991 93.5465C142.218 80.5859 138.033 66.07 130.207 52.6723C122.381 39.2745 111.8 28.5112 100.413 22.3657ZM76.4845 93.3394L89.4715 83.7426L74.7283 90.4105L82.0172 84.594L72.9284 87.9279C72.8481 87.7944 72.7677 87.661 72.6897 87.5275L77.7633 83.4596L71.3375 85.1853C71.248 85.0242 71.1584 84.8655 71.0712 84.7044L75.1163 81.3981L69.8636 82.4289C69.7718 82.2494 69.68 82.0699 69.5882 81.8905L73.2338 78.9592L68.5229 79.6978C68.4311 79.5022 68.3439 79.3067 68.252 79.1111L71.7025 76.3363L67.3269 77.0219C67.2465 76.8333 67.1662 76.6446 67.0881 76.4559L86.122 69.0196C85.5136 71.9394 86.2207 75.6759 88.2961 79.233C89.4118 81.145 90.7709 82.7349 92.2263 83.9359L76.7325 93.673C76.6498 93.558 76.5672 93.4452 76.4845 93.3302V93.3394ZM99.8436 82.9995C97.8371 84.1752 93.7232 82.2655 91.0211 77.6432C88.3213 73.0208 88.6725 68.4882 90.679 67.3101C92.6855 66.1344 96.8017 68.0441 99.5015 72.6665C102.201 77.2888 101.85 81.8215 99.8436 82.9995ZM65.9081 53.5259C64.8199 55.1525 63.7134 56.7746 62.5265 58.3323C64.207 54.3818 66.2525 50.5762 68.3117 46.8005C71.0161 41.84 73.9477 36.9737 77.0952 32.2685C78.1834 30.6418 79.2899 29.022 80.4791 27.4621C78.8009 31.4149 76.7531 35.2182 74.6962 38.9938C71.9941 43.9544 69.0533 48.8184 65.9081 53.5213V53.5259ZM62.3681 49.0922C63.1486 45.8204 64.4848 42.6475 65.8874 39.6035C67.2901 36.5618 68.8489 33.4833 70.8393 30.7799C70.0634 34.0516 68.725 37.2245 67.32 40.2685C65.9173 43.3102 64.3539 46.3864 62.3681 49.0922ZM92.2126 109.726L102.066 110.269L88.3787 105.957L111.175 105.564L85.2244 101.935L105.34 98.8016L86.6316 98.0492L102.075 85.3394C102.158 85.2727 102.229 85.1968 102.295 85.1162C105.381 82.4312 105.427 76.5319 102.233 71.0651C101.503 69.8134 100.67 68.7021 99.7724 67.745L116.111 53.8066L95.9661 64.8091C95.1718 64.4019 94.3706 64.1097 93.5808 63.944L113.303 46.2391C112.261 44.8471 111.18 43.485 110.062 42.1598L90.9499 60.4905L107.603 39.3689C104.472 35.9751 101.042 32.846 97.2494 30.0597C97.1828 30.0114 97.1162 29.9654 97.0497 29.9171L79.5333 50.5532L95.1167 28.6079C93.4982 27.5794 91.8177 26.6568 90.1166 25.7641C102.013 29.3533 114.986 40.3973 124.213 56.1925C138.513 80.6733 138.481 107.434 124.142 115.846C115.457 120.942 103.485 118.154 92.2172 109.724L92.2126 109.726ZM67.1983 159.468C67.1708 159.433 67.1432 159.401 67.1134 159.371L43.7888 134.853L44.505 134.469L49.7944 138.525L46.8581 133.208L47.7971 132.704L52.9625 136.666L50.0951 131.473L51.0892 130.94L56.1306 134.807L53.3298 129.739L54.0438 129.357L65.0426 142.911C67.0973 145.444 69.5308 147.621 72.2742 149.381L78.8905 153.628C79.3014 153.893 79.5401 154.323 79.5447 154.813C79.5493 155.303 79.3198 155.738 78.9157 156.009L72.6185 160.234C71.0253 161.143 68.4839 161.055 67.2029 159.468H67.1983ZM60.2629 127.129C62.8135 129.913 65.2286 132.824 67.6391 135.73C69.2897 137.718 70.9587 139.627 72.9284 141.309C74.8018 142.908 76.8679 144.218 78.9088 145.582C80.8189 146.859 83.2202 148.044 83.4911 150.593C82.7014 148.502 80.8074 147.65 79.0075 146.564C76.9161 145.301 74.8018 144.038 72.8986 142.499C69.0533 139.393 66.14 135.205 63.2221 131.257C62.2166 129.895 61.2179 128.526 60.2606 127.129H60.2629ZM20.0968 108.191C19.0178 103.247 19.0408 98.2609 20.7442 93.4452C20.2552 94.2114 19.7984 95.0029 19.4035 95.8496C17.3282 100.306 16.8254 105.025 17.3489 109.873C16.2699 104.929 16.2928 99.9428 17.9962 95.1272C17.5073 95.8933 17.0504 96.6848 16.6555 97.5315C14.5802 101.988 14.0774 106.707 14.6009 111.555C13.5219 106.611 13.5448 101.625 15.2483 96.8091C14.7593 97.5752 14.3024 98.3667 13.9076 99.2134C11.8322 103.67 11.3295 108.389 11.8529 113.237C10.7739 108.292 10.7968 103.307 12.5003 98.491C12.0113 99.2571 11.5544 100.049 11.1596 100.895C9.08423 105.352 8.58146 110.071 9.10489 114.919C8.0259 109.974 8.04885 104.989 9.75229 100.173C9.2633 100.939 8.80645 101.731 8.41158 102.577C6.33624 107.034 5.83348 111.753 6.3569 116.601C5.27791 111.654 5.30087 106.666 7.00659 101.848C7.40605 100.723 7.89274 99.6575 8.43913 98.6359C9.80279 97.0852 11.4167 95.7323 13.2739 94.6417L32.845 82.3806C31.7408 83.7657 28.3201 89.3866 27.6521 90.8177C25.5744 95.2744 25.074 99.9934 25.5974 104.841C24.5184 99.8968 24.5414 94.9109 26.2448 90.0952C25.7558 90.8614 25.299 91.6529 24.9041 92.4996C22.8288 96.9563 22.326 101.675 22.8494 106.523C21.7704 101.579 21.7934 96.5928 23.4968 91.7771C23.0078 92.5433 22.551 93.3348 22.1561 94.1815C20.0808 98.6382 19.578 103.357 20.1014 108.205L20.0968 108.191ZM73.4083 110.524C74.4597 111.277 75.5479 111.949 76.6682 112.551C74.5148 112.022 72.4211 111.272 70.3917 110.237C66.6267 108.316 63.4058 105.647 60.5338 102.566C63.1463 106.183 66.202 109.342 69.921 111.831C70.8967 112.485 71.9045 113.064 72.9353 113.584C70.8485 113.15 68.8122 112.496 66.8218 111.567C63.0384 109.802 59.8015 107.223 56.9272 104.22C59.565 107.775 62.6734 110.856 66.4568 113.182C67.3659 113.741 68.2957 114.238 69.2438 114.682C67.3911 114.369 65.5706 113.87 63.78 113.14C59.767 111.507 56.3418 108.951 53.3252 105.872C56.0296 109.422 59.239 112.469 63.1601 114.645C63.9544 115.085 64.7602 115.478 65.5752 115.832C63.7226 115.595 61.8929 115.156 60.093 114.468C56.1145 112.947 52.7214 110.52 49.7209 107.526C52.4781 111.06 55.7793 114.077 59.8083 116.097C60.4856 116.435 61.1674 116.741 61.8561 117.017C60.0655 116.849 58.2909 116.479 56.5346 115.869C52.5309 114.477 49.1309 112.126 46.1143 109.181C48.9564 112.742 52.384 115.743 56.5737 117.611C57.0833 117.839 57.5953 118.046 58.1072 118.237C56.4405 118.131 54.7784 117.841 53.1209 117.335C49.0345 116.085 45.5702 113.766 42.5077 110.83C45.3292 114.291 48.7062 117.158 52.8431 118.918C53.3551 119.136 53.8716 119.334 54.3881 119.514C52.7605 119.461 51.1282 119.217 49.5005 118.752C45.4141 117.588 41.9751 115.374 38.9035 112.48C41.7593 115.911 45.1065 118.573 49.2365 120.303C49.877 120.572 50.5244 120.8 51.1764 121C44.4339 120.241 38.0288 116.083 34.1926 109.517C29.2522 101.061 29.9616 90.5899 35.7147 83.86C42.7212 79.3136 48.5983 73.1105 53.1989 67.1514C54.8473 75.4344 57.9442 83.883 62.701 92.0233C66.8287 99.0892 71.7576 105.29 77.1641 110.469C76.03 110.011 74.9165 109.484 73.8261 108.872C70.1299 106.802 66.9733 104.045 64.1381 100.914C66.7254 104.6 69.7351 107.897 73.4083 110.527V110.524ZM75.8601 101.319C70.433 94.9086 66.039 87.6955 62.7193 79.9808C58.7523 70.7637 56.4359 60.4744 57.0466 50.4059C57.6136 41.0531 60.9769 31.3045 68.9821 25.817C69.5928 25.3982 70.2401 25.0416 70.8784 24.6689C67.6001 26.9651 64.8819 29.7583 62.9328 33.2855C60.6509 37.4132 59.4456 42.0861 58.9727 46.7591C57.981 56.5538 59.9828 66.5002 63.4494 75.6414C66.3122 83.1905 70.3067 90.3368 75.1668 96.7745C81.0898 104.62 88.4981 111.684 97.2471 116.269C105.344 120.515 114.881 122.663 123.627 119.12C124.277 118.858 124.899 118.533 125.53 118.23C121.862 120.386 117.982 121.633 113.707 121.794C108.914 121.976 104.173 120.933 99.7242 119.187C90.415 115.533 82.2858 108.911 75.8601 101.321V101.319ZM139.268 81.2232C139.899 84.9391 140.303 88.7055 140.191 92.4812C140.092 95.7507 139.642 98.8959 138.896 102.073C140.092 95.9509 140.111 89.8767 139.167 83.7104C138.136 76.9598 136.05 70.338 133.334 64.0844C127.76 51.2549 119.353 39.3666 108.556 30.437C103.209 26.0148 97.2448 22.6717 90.6078 20.6723C96.5607 22.2254 101.976 24.8851 106.933 28.5435C112.532 32.6734 117.36 37.5995 121.694 43.0341C126.143 48.6136 129.895 54.8212 132.875 61.3027C135.797 67.653 138.093 74.3208 139.268 81.2255V81.2232Z" fill="#00B2ED"/>
<g clip-path="url(#clip0_0_1)">
<path d="M120 20.0015C120.801 19.0723 121.54 18.0865 122.259 17.0927C124.203 14.4068 125.927 11.5804 127.623 8.73461C126.45 8.78632 125.279 8.83803 124.109 8.90591C125.645 6.01969 127.112 3.0656 128.256 0C127.241 1.22818 126.302 2.521 125.393 3.82998C123.795 6.13119 122.325 8.50998 120.852 10.8936C121.996 10.8645 123.138 10.8338 124.28 10.787C124.134 11.0584 123.982 11.3267 123.839 11.5982C122.399 14.3067 121.013 17.1008 120 20.0015Z" fill="#00B2ED"/>
<path d="M130.993 28.6246C132.066 27.9701 133.095 27.2413 134.109 26.4963C136.752 24.5539 139.234 22.4143 141.696 20.2488C140.565 19.9369 139.434 19.625 138.299 19.3309C140.642 17.0555 142.943 14.6945 144.969 12.1299C143.627 12.9864 142.339 13.9285 141.074 14.8933C138.849 16.5917 136.721 18.4033 134.592 20.2181C135.689 20.5429 136.786 20.8645 137.886 21.1715C137.664 21.3849 137.438 21.5933 137.218 21.8082C135.02 23.943 132.847 26.178 130.995 28.6263L130.993 28.6246Z" fill="#00B2ED"/>
<path d="M149.754 34.0933C152.683 32.655 155.598 31.1214 158.313 29.3066C156.773 29.7058 155.257 30.2035 153.757 30.7304C151.118 31.658 148.538 32.7213 145.954 33.7895C146.896 34.4375 147.838 35.0807 148.791 35.7126C147.531 36.3218 146.281 36.9537 145.048 37.6178C143.307 38.5568 141.57 39.5393 139.947 40.6737C141.169 40.3829 142.371 40.0079 143.563 39.6136C146.675 38.5842 149.694 37.3173 152.702 36.018C151.721 35.3716 150.741 34.7252 149.752 34.0933H149.754Z" fill="#00B2ED"/>
<path d="M159.988 53.3045C159.192 52.4399 158.398 51.5753 157.589 50.7221C160.779 50.0369 163.975 49.2547 167.049 48.1526C165.459 48.1671 163.869 48.2819 162.285 48.4289C159.502 48.6891 156.74 49.0963 153.976 49.5052C154.735 50.3617 155.494 51.215 156.265 52.0585C154.896 52.3446 153.531 52.6548 152.175 53.0007C150.26 53.4887 148.338 54.022 146.488 54.7282C147.743 54.7427 149.002 54.67 150.253 54.5763C153.522 54.3323 156.755 53.8329 159.986 53.3029L159.988 53.3045Z" fill="#00B2ED"/>
<path d="M170 67.7664C168.457 67.3851 166.886 67.1006 165.317 66.8485C162.556 66.4074 159.78 66.1149 157.001 65.824C157.523 66.8421 158.049 67.8585 158.587 68.8669C157.188 68.8023 155.79 68.7635 154.392 68.7619C152.415 68.7587 150.422 68.7958 148.455 69.0205C149.668 69.3469 150.906 69.5893 152.141 69.8107C155.368 70.3876 158.624 70.7092 161.886 71.0001C161.328 69.9642 160.773 68.9284 160.201 67.9022C163.46 68.0315 166.751 68.0702 169.998 67.7681L170 67.7664Z" fill="#00B2ED"/>
</g>
<defs>
<clipPath id="clip0_0_1">
<rect width="50" height="71" fill="white" transform="translate(120)" />
</clipPath>
</defs>
</svg>
