<svg width="96" height="96" viewBox="0 0 96 96" fill="none" xmlns="http://www.w3.org/2000/svg">
<g clip-path="url(#clip0_2334_10766)">
<rect width="96" height="96" rx="48" fill="#FFD2EC"/>
<g clip-path="url(#clip1_2334_10766)">
<path d="M48.2884 69.5857C50.1565 69.5857 51.6778 68.06 51.6778 66.1865H48.9306C48.9306 66.5412 48.6421 66.8305 48.2884 66.8305C47.9347 66.8305 47.6462 66.5412 47.6462 66.1865H44.8989C44.8989 68.06 46.4202 69.5857 48.2884 69.5857Z" fill="#929292"/>
<path d="M86.283 72.1905C86.283 71.0092 85.9911 69.8555 85.452 68.8326L86.1663 65.0305C86.4822 63.3671 86.1491 61.6968 85.27 60.3055L85.3352 60.3192L86.0838 56.3415C86.4513 54.3957 85.9259 52.4395 84.6724 50.9552C85.3558 48.6099 85.3318 46.2026 84.5934 43.9744L84.5694 43.9055C84.1092 42.5486 83.2507 41.3466 82.09 40.434L79.2706 38.2127C78.8619 37.8924 78.6112 37.393 78.5803 36.8454C77.7321 21.4339 63.9957 8.89453 47.9654 8.89453C31.935 8.89453 18.1987 21.4304 17.3504 36.842C17.3195 37.3896 17.0688 37.8889 16.6602 38.2092L13.8408 40.4306C12.6801 41.3432 11.8216 42.5451 11.3614 43.902L11.3373 43.9778C10.5853 46.237 10.5715 48.6857 11.2893 51.0689C10.0427 52.5532 9.52414 54.5025 9.88816 56.4414L10.5784 61.0631C10.2041 62.1308 10.1079 63.2879 10.3243 64.4382L11.0695 68.7396C10.1801 69.9622 9.68555 71.4466 9.68555 72.9826L9.86412 74.9112C9.86068 74.9456 9.85038 74.98 9.85038 75.0145C9.82291 75.5035 9.87786 75.9891 10.0084 76.4506L10.0324 76.7227L10.0908 76.7158C10.2041 77.0361 10.3552 77.3426 10.5406 77.6284C18.5318 89.8716 32.33 97.9786 47.9791 97.9786C63.6283 97.9786 77.6463 89.7442 85.6099 77.3357C86.0014 76.7261 86.2246 76.0167 86.2418 75.29C86.2658 74.3567 86.2521 73.5611 86.2246 72.8758L86.2693 72.2972V72.187L86.283 72.1905ZM79.8922 71.481L73.0617 65.2509C72.1002 64.3762 71.719 63.0021 72.0865 61.7554L72.5192 60.2882L82.0659 68.8877C82.9863 69.7177 83.522 70.899 83.5357 72.1388L83.2782 75.3589C82.7459 76.2233 82.1827 77.0671 81.592 77.8902V75.3348C81.592 73.8711 80.9739 72.466 79.8922 71.481ZM36.2174 77.5492C34.6857 76.1923 33.5456 74.336 32.9824 72.249L28.288 56.7203L31.6534 53.6897L32.5532 54.4887L35.5855 57.0337C37.6459 59.4307 39.6514 59.3722 41.4749 59.5409C43.0306 59.6821 43.192 57.9292 44.9571 57.8775L43.2263 55.0948C42.6288 54.3578 41.9282 54.0203 40.977 53.9824L32.3231 53.0904L33.4289 52.0951C34.0779 51.5269 34.6308 50.8726 35.0841 50.1597L37.5223 49.6121C37.9241 49.5225 38.3465 49.5845 38.6865 49.7877L46.0869 54.1305L44.9262 50.6935C44.9262 50.6935 45.0636 49.4468 39.0093 47.1772C38.5972 47.0222 38.1198 47.0808 37.7627 47.3322L35.8465 48.6753C36.2826 47.5974 36.5161 46.4368 36.5161 45.2486V40.7646L39.0402 38.5433L40.1563 37.5824C39.8094 40.2756 40.7057 43.0445 42.567 44.8353C44.1638 46.3748 46.1659 47.1462 48.1714 47.1462C50.1769 47.1462 52.179 46.3748 53.7759 44.8353C55.541 43.1306 56.4167 40.5614 56.1694 38.0198L57.4298 39.1047L59.4421 40.8748V44.4565C59.4421 45.6653 59.6825 46.8466 60.1324 47.9349L59.2704 47.3288C58.9133 47.0773 58.4359 47.0188 58.0238 47.1738C51.973 49.4433 52.1069 50.69 52.1069 50.69L50.9462 54.1271L58.3467 49.7843C58.6901 49.5845 59.1125 49.5191 59.5108 49.6086L61.3309 50.015C61.6846 50.4731 62.0795 50.9001 62.5156 51.2858L64.5349 53.1042L56.0561 53.979C55.1049 54.0169 54.4043 54.3578 53.8068 55.0914L52.076 57.8741C53.8446 57.9257 54.0025 59.6821 55.5582 59.5375C57.3817 59.3687 59.3872 59.4273 61.4476 57.0303L64.4799 54.4852L65.2801 53.7758L67.866 56.1039L65.0603 68.8154H65.0294C65.0294 68.8464 65.0363 68.874 65.0397 68.9015L64.7478 70.2205L64.7409 70.255C64.243 72.8241 62.9174 75.0937 61.0115 76.6435L53.8377 82.4706C50.5272 85.1637 46.0423 85.2188 42.6769 82.6049L36.6844 77.9556C36.5333 77.8385 36.3925 77.7111 36.2517 77.5871V77.5492H36.2071H36.2174ZM14.9397 75.3348V78.6478C14.1327 77.5768 13.3703 76.4609 12.6629 75.3107L12.4363 72.9171C12.4534 71.6808 12.9857 70.5029 13.906 69.673L24.0778 60.5121L24.4418 61.7519C24.8127 62.9986 24.4281 64.3727 23.4666 65.2475L16.6362 71.4776C15.5544 72.4625 14.9363 73.8677 14.9363 75.3313L14.9397 75.3348ZM13.6245 52.3534L42.6219 26.9786L41.1762 33.0709L37.2442 36.4563L12.8003 57.9774L12.4191 55.9592C12.165 54.6127 12.6217 53.2592 13.621 52.35L13.6245 52.3534ZM82.3475 52.2501C83.3469 53.1593 83.8036 54.5128 83.5495 55.8594L83.1339 58.06L59.2361 37.0176L55.1117 33.4669L53.4222 26.9407L82.3441 52.2467L82.3475 52.2501ZM52.3439 22.5497C52.3233 22.5325 52.2992 22.5187 52.2752 22.5015L51.0114 17.6111C61.2553 19.0507 69.3358 27.6329 70.3694 38.3298L52.3439 22.5497ZM43.6522 22.6358C43.6522 22.6358 43.635 22.6461 43.6281 22.6565L25.6163 38.4228C26.8457 27.8602 34.9124 19.1712 44.8404 17.6387L43.6556 22.6358H43.6522ZM25.3175 67.2897C26.5401 66.1739 27.2406 64.6173 27.3196 63.0055L29.0882 68.8567H29.0607C29.0847 69.146 29.0058 69.3768 28.8031 69.611C28.3498 70.1379 27.3814 70.5305 26.3375 70.6028C25.0531 70.6924 23.937 69.8314 23.81 68.6673L25.321 67.2897H25.3175ZM34.648 54.4852L34.7407 54.5231L40.8671 55.2085C41.4715 55.2429 42.4468 55.7113 42.8417 56.4483L43.398 57.4918C42.2751 57.5021 42.1721 58.5077 41.1831 58.4044C40.0223 58.2873 38.7483 58.2942 37.4399 56.896L36.5058 56.1693C35.843 55.6562 35.2249 55.0914 34.648 54.4818V54.4852ZM62.6496 54.4852C62.0726 55.0948 61.4511 55.6596 60.7917 56.1728L59.8577 56.8994C58.5493 58.3011 57.2752 58.2908 56.1145 58.4079C55.1255 58.5077 55.0224 57.5021 53.8995 57.4952L54.4558 56.4517C54.8473 55.7113 55.826 55.2429 56.4304 55.2119L62.5569 54.5266L62.6496 54.4887V54.4852ZM69.4663 70.558C69.1228 70.4823 68.8035 70.3239 68.5287 70.0862C68.1922 69.7935 67.9552 69.4147 67.8488 68.9945L69.2087 62.8402C69.243 64.5105 69.9505 66.1395 71.2142 67.2897L72.6806 68.626C72.5466 68.9532 72.3165 69.2907 72.0075 69.6041C71.4409 70.1758 70.7128 70.558 70.105 70.6028C69.8886 70.62 69.6757 70.6028 69.4697 70.558H69.4663ZM17.687 81.9437V75.3348C17.687 74.646 17.9789 73.9847 18.4871 73.5198L21.6019 70.6786C22.3264 72.0458 23.6932 73.0308 25.2901 73.2925C23.8443 75.1763 22.9824 77.4907 22.869 79.867L22.56 86.4483C20.8189 85.0811 19.1911 83.5726 17.6836 81.9471L17.687 81.9437ZM36.262 93.5359V81.1033L41.0079 84.7849C43.168 86.4586 45.6783 87.2955 48.1852 87.2955C50.6921 87.2955 53.381 86.4001 55.5788 84.6127L60.2594 80.8106V93.3706C56.3927 94.576 52.2752 95.2303 47.9826 95.2303C43.6899 95.2303 39.9674 94.638 36.262 93.5394V93.5359ZM73.673 86.2313L73.3296 78.7339C73.2369 76.7227 72.4814 74.7631 71.197 73.2168L71.1799 73.1961C72.1723 72.9309 73.1476 72.3592 73.9512 71.5464C74.2671 71.2262 74.535 70.8852 74.7651 70.5305L78.0446 73.5198C78.5529 73.9847 78.8448 74.646 78.8448 75.3348V81.3203C77.2616 83.1008 75.5343 84.7436 73.6764 86.2313H73.673Z" fill="#929292"/>
<path d="M48.3046 77.1249C50.9317 77.1249 53.0642 75.6475 53.0642 73.8291H43.5449C43.5449 75.6509 45.6741 77.1249 48.3046 77.1249Z" fill="#929292"/>
</g>
</g>
<rect x="1.35484" y="1.35484" width="93.2903" height="93.2903" rx="46.6452" stroke="#929292" stroke-width="2.70968"/>
<defs>
<clipPath id="clip0_2334_10766">
<rect width="96" height="96" rx="48" fill="white"/>
</clipPath>
<clipPath id="clip1_2334_10766">
<rect width="76.6452" height="89.0323" fill="white" transform="translate(9.67725 8.90332)"/>
</clipPath>
</defs>
</svg>
