<svg width="14" height="20" viewBox="0 0 14 20" fill="none" xmlns="http://www.w3.org/2000/svg">
<path d="M1.19045 18.9692C0.694316 19.3262 0.00244141 18.9716 0.00244141 18.3604V3.36447C0.00244141 1.56955 1.45752 0.114471 3.25244 0.114471H10.7508C12.5458 0.114471 14.0008 1.56955 14.0008 3.36447V18.3604C14.0008 18.9716 13.309 19.3262 12.8128 18.9692L7.00164 14.7883L1.19045 18.9692ZM12.5008 3.36447C12.5008 2.39797 11.7173 1.61447 10.7508 1.61447H3.25244C2.28594 1.61447 1.50244 2.39797 1.50244 3.36447V16.8969L6.56362 13.2555C6.82529 13.0673 7.17798 13.0673 7.43965 13.2555L12.5008 16.8969V3.36447Z" fill="#272727"/>
</svg>
