<svg width="20" height="20" viewBox="0 0 20 20" fill="none" xmlns="http://www.w3.org/2000/svg">
<path d="M18.9299 6.2592L13.2402 0.569509C13.1183 0.447478 12.9736 0.350669 12.8142 0.284618C12.6549 0.218568 12.4841 0.18457 12.3116 0.18457C12.1391 0.18457 11.9684 0.218568 11.809 0.284618C11.6497 0.350669 11.5049 0.447478 11.383 0.569509L6.27554 5.69482C5.38304 5.39013 3.08804 4.91295 0.677725 6.85826C0.533976 6.9738 0.416192 7.11835 0.332051 7.28246C0.247911 7.44658 0.199302 7.62659 0.189395 7.81075C0.179488 7.99492 0.208505 8.1791 0.274554 8.3513C0.340603 8.52349 0.442201 8.67984 0.572725 8.81013L5.23304 13.4704L1.10335 17.5954C1.04808 17.6469 1.00376 17.709 0.973014 17.778C0.94227 17.847 0.925739 17.9215 0.924407 17.9971C0.923074 18.0726 0.936967 18.1476 0.965258 18.2176C0.993549 18.2877 1.03566 18.3513 1.08907 18.4047C1.14249 18.4581 1.20611 18.5002 1.27615 18.5285C1.34619 18.5568 1.42121 18.5707 1.49674 18.5694C1.57227 18.5681 1.64675 18.5515 1.71575 18.5208C1.78475 18.49 1.84685 18.4457 1.89835 18.3904L6.02804 14.2608L10.6883 18.9248C10.8102 19.0469 10.9548 19.1437 11.1141 19.2098C11.2733 19.2759 11.444 19.31 11.6165 19.3101H11.7102C11.8973 19.2969 12.0794 19.2436 12.2442 19.154C12.409 19.0644 12.5527 18.9406 12.6655 18.7908C14.5143 16.3336 14.2733 14.3629 13.8337 13.2314L18.9308 8.11732C19.053 7.99535 19.1498 7.85049 19.2159 7.69103C19.2819 7.53158 19.3159 7.36066 19.3158 7.18807C19.3157 7.01547 19.2816 6.84459 19.2154 6.6852C19.1491 6.52581 19.0521 6.38105 18.9299 6.2592ZM18.134 7.31951L12.7649 12.7064C12.6818 12.79 12.627 12.8976 12.6083 13.014C12.5896 13.1304 12.608 13.2497 12.6608 13.3551C13.5927 15.2189 12.5005 17.1351 11.7665 18.1101C11.7502 18.1313 11.7297 18.1488 11.7062 18.1614C11.6827 18.174 11.6567 18.1814 11.6301 18.1832C11.6035 18.185 11.5768 18.1811 11.5518 18.1717C11.5268 18.1623 11.5041 18.1477 11.4852 18.1289L1.36773 8.0142C1.34878 7.99543 1.33405 7.97284 1.32453 7.94793C1.31501 7.92302 1.31091 7.89637 1.31251 7.86975C1.31411 7.84313 1.32136 7.81716 1.33379 7.79357C1.34623 7.76998 1.36355 7.74931 1.3846 7.73295C2.55647 6.78701 3.68147 6.5367 4.54397 6.5367C5.09952 6.52833 5.65059 6.63726 6.16116 6.85638C6.26714 6.90885 6.38696 6.92658 6.50359 6.90706C6.62022 6.88754 6.72773 6.83175 6.81085 6.74763L12.179 1.36545C12.1964 1.34801 12.2171 1.33418 12.2398 1.32475C12.2626 1.31531 12.287 1.31046 12.3116 1.31046C12.3363 1.31046 12.3607 1.31531 12.3834 1.32475C12.4062 1.33418 12.4269 1.34801 12.4443 1.36545L18.134 7.0542C18.1514 7.07161 18.1652 7.09229 18.1747 7.11505C18.1841 7.13781 18.189 7.16221 18.189 7.18685C18.189 7.21149 18.1841 7.23589 18.1747 7.25865C18.1652 7.28142 18.1514 7.3021 18.134 7.31951Z" fill="#272727"/>
</svg>
