<svg width="16" height="17" viewBox="0 0 16 17" fill="none" xmlns="http://www.w3.org/2000/svg">
<path d="M9.14332 0.644508C8.54422 -0.0620657 7.45422 -0.0620648 6.85512 0.644509L0.238703 8.44791C-0.312191 9.09764 0.149601 10.0946 1.00144 10.0946H4.00008V13.1113C4.00008 13.6635 4.4478 14.1113 5.00008 14.1113H11.0001C11.5524 14.1113 12.0001 13.6635 12.0001 13.1113V10.0946H14.997C15.8488 10.0946 16.3106 9.09763 15.7597 8.44791L9.14332 0.644508ZM7.61785 1.29122C7.81755 1.0557 8.18089 1.0557 8.38059 1.29122L14.997 9.09462H11.5001C11.2239 9.09462 11.0001 9.31848 11.0001 9.59462V13.1113H5.00008V9.59462C5.00008 9.31848 4.77622 9.09462 4.50008 9.09462H1.00144L7.61785 1.29122ZM4.50008 15.1146C4.22394 15.1146 4.00008 15.3384 4.00008 15.6146C4.00008 15.8907 4.22394 16.1146 4.50008 16.1146H11.5001C11.7762 16.1146 12.0001 15.8907 12.0001 15.6146C12.0001 15.3384 11.7762 15.1146 11.5001 15.1146H4.50008Z" fill="#00B2ED"/>
</svg>
