<svg width="200" height="200" viewBox="0 0 200 200" fill="none" xmlns="http://www.w3.org/2000/svg">
<rect width="200" height="200" rx="100" fill="#F3F3F3"/>
<path d="M98.3337 113.333C118.584 113.333 135 96.9171 135 76.6667C135 56.4162 118.584 40 98.3337 40C78.0832 40 61.667 56.4162 61.667 76.6667C61.667 96.9171 78.0832 113.333 98.3337 113.333Z" fill="#D1D5DB"/>
<path d="M61.667 73.3333C61.667 51.6667 78.3337 40 98.3337 40C118.334 40 135 51.6667 135 73.3333C131.667 60 115 56.6667 98.3337 56.6667C81.667 56.6667 65.0003 60 61.667 73.3333Z" fill="#6B7280"/>
<path d="M85.0003 83.3337C86.8413 83.3337 88.3337 81.8413 88.3337 80.0003C88.3337 78.1594 86.8413 76.667 85.0003 76.667C83.1594 76.667 81.667 78.1594 81.667 80.0003C81.667 81.8413 83.1594 83.3337 85.0003 83.3337Z" fill="#6B7280"/>
<path d="M111.666 83.3337C113.507 83.3337 115 81.8413 115 80.0003C115 78.1594 113.507 76.667 111.666 76.667C109.825 76.667 108.333 78.1594 108.333 80.0003C108.333 81.8413 109.825 83.3337 111.666 83.3337Z" fill="#6B7280"/>
<path d="M108.333 105H91.6667C82.4619 105 75 112.462 75 121.667C75 130.871 82.4619 138.333 91.6667 138.333H108.333C117.538 138.333 125 130.871 125 121.667C125 112.462 117.538 105 108.333 105Z" fill="#C8C9CC"/>
<path d="M50 149.762C50 125.952 75 120 100 120C125 120 150 125.952 150 149.762V161.667H50V149.762Z" fill="#9CA3AF"/>
</svg>
