<svg width="56" height="56" viewBox="0 0 28 28" fill="none" xmlns="http://www.w3.org/2000/svg">
<mask id="path-1-inside-1_3_10013" fill="white">
<path d="M14 26C20.6276 26 26 20.6276 26 14C26 7.37241 20.6276 2.00002 14 2.00002C7.3724 2.00002 2 7.37241 2 14C2 16.1852 2.5844 18.236 3.6056 20L2.6 25.4L8 24.3944C9.82344 25.4493 11.8934 26.0032 14 26Z"/>
</mask>
<path d="M14 26V1.90735e-06C13.9869 1.90735e-06 13.9738 1.19209e-05 13.9606 3.17097e-05L14 26ZM3.6056 20L29.1662 24.76C30.3028 18.6561 29.2177 12.347 26.107 6.97367L3.6056 20ZM2.6 25.4L-22.9606 20.6401C-24.5297 29.0661 -21.8453 37.7242 -15.7848 43.7848C-9.72421 49.8453 -1.06613 52.5297 7.35994 50.9606L2.6 25.4ZM8 24.3944L21.0194 1.88896C15.6475 -1.21869 9.34119 -2.30234 3.24005 -1.16617L8 24.3944ZM14 52C34.987 52 52 34.987 52 14H-1.33514e-05C-1.33514e-05 6.2682 6.26819 1.90735e-06 14 1.90735e-06V52ZM52 14C52 -6.98699 34.987 -24 14 -24V28C6.26819 28 -1.33514e-05 21.7318 -1.33514e-05 14H52ZM14 -24C-6.98701 -24 -24 -6.98699 -24 14H28C28 21.7318 21.7318 28 14 28V-24ZM-24 14C-24 20.8741 -22.1507 27.404 -18.8958 33.0263L26.107 6.97367C27.3195 9.06806 28 11.4963 28 14H-24ZM-21.955 15.2401L-22.9606 20.6401L28.1606 30.16L29.1662 24.76L-21.955 15.2401ZM7.35994 50.9606L12.7599 49.955L3.24005 -1.16617L-2.15994 -0.160572L7.35994 50.9606ZM-5.01941 46.8998C0.772708 50.2506 7.34788 52.0101 14.0394 52L13.9606 3.17097e-05C16.4389 -0.00371981 18.8742 0.647947 21.0194 1.88896L-5.01941 46.8998Z" fill="#00B2ED" mask="url(#path-1-inside-1_3_10013)"/>
<path d="M11 10.625C11 7.125 16.5 7.125 16.5 10.625C16.5 13.125 14 12.625 14 15.625M14 19.635L14.01 19.624" stroke="white" stroke-width="1.5" stroke-linecap="round" stroke-linejoin="round"/>
</svg>
