<svg width="24" height="24" viewBox="0 0 24 24" fill="none" xmlns="http://www.w3.org/2000/svg">
<path d="M20.3125 12.647L20.8295 10.715C21.4335 8.46 21.7365 7.333 21.5095 6.357C21.3295 5.58649 20.9252 4.88665 20.3475 4.346C19.6165 3.661 18.4885 3.359 16.2335 2.755C13.9785 2.15 12.8505 1.848 11.8755 2.075C11.105 2.25491 10.4051 2.6593 9.86446 3.237C9.27746 3.863 8.97146 4.78 8.51646 6.446L8.27246 7.351L7.75546 9.283C7.15046 11.538 6.84846 12.665 7.07546 13.641C7.25537 14.4115 7.65975 15.1113 8.23746 15.652C8.96846 16.337 10.0965 16.639 12.3515 17.244C14.3835 17.788 15.5005 18.087 16.4155 17.974C16.5155 17.962 16.6135 17.944 16.7095 17.922C17.4797 17.7426 18.1795 17.339 18.7205 16.762C19.4055 16.03 19.7075 14.902 20.3125 12.647Z" stroke="#858585" stroke-width="1.5"/>
<path opacity="0.5" d="M16.4155 17.974C16.2064 18.6143 15.8391 19.1915 15.3475 19.652C14.6165 20.337 13.4885 20.639 11.2335 21.243C8.97846 21.847 7.85046 22.15 6.87546 21.922C6.10507 21.7424 5.40524 21.3383 4.86446 20.761C4.17946 20.03 3.87646 18.902 3.27246 16.647L2.75546 14.715C2.15046 12.46 1.84846 11.332 2.07546 10.357C2.25537 9.5865 2.65975 8.88666 3.23746 8.34601C3.96846 7.66101 5.09646 7.35901 7.35146 6.75401C7.77746 6.64001 8.16446 6.53601 8.51646 6.44501" stroke="#858585" stroke-width="1.5"/>
<path d="M11.7773 10L16.6073 11.294" stroke="#858585" stroke-width="1.5" stroke-linecap="round"/>
<path opacity="0.5" d="M11 12.898L13.898 13.674" stroke="#858585" stroke-width="1.5" stroke-linecap="round"/>
</svg>
