<svg width="1263" height="622" viewBox="0 0 1263 622" fill="none" xmlns="http://www.w3.org/2000/svg">
<path d="M113.556 27.2229C113.556 27.2229 398.052 43.8664 519.564 27.8856C519.564 27.8856 1091.66 -21.3063 1203.66 10.9813C1211.61 13.2736 1217.74 19.6072 1219.97 27.5814C1237.37 89.7665 1315.17 394.684 1214.26 547.018C1211.95 550.506 1208.28 552.863 1204.14 553.547C1121.22 567.399 254.393 707.424 61.892 541.814C61.892 541.814 -20.1477 454.827 4.68024 238.255C4.68024 238.255 24.6338 19.4551 113.556 27.2229Z" fill="#170C42"/>
<path d="M505.878 278.704C471.451 278.704 443.449 299.987 443.449 326.153C443.449 352.319 471.451 373.602 505.878 373.602C540.305 373.602 568.307 352.319 568.307 326.153C568.307 299.987 540.305 278.704 505.878 278.704ZM505.878 349.898C488.646 349.898 474.636 339.25 474.636 326.153C474.636 313.056 488.646 302.408 505.878 302.408C523.11 302.408 537.12 313.056 537.12 326.153C537.12 339.25 523.11 349.898 505.878 349.898Z" fill="#14B1E7"/>
<path d="M537.145 243.611H474.642C466.03 243.611 459.049 248.918 459.049 255.463C459.049 262.009 466.03 267.315 474.642 267.315H537.145C545.757 267.315 552.738 262.009 552.738 255.463C552.738 248.918 545.757 243.611 537.145 243.611Z" fill="#14B1E7"/>
<path d="M591.137 323.124H598.133V299.714H609.823V294.705H579.446V299.714H591.137V323.124Z" fill="white"/>
<path d="M633.852 317.206L636.227 323.125H643.426L632.103 294.692H621.646L610.324 323.125H617.523L619.861 317.206H633.816H633.852ZM621.886 312.197L626.82 299.744L631.827 312.197H621.867H621.886Z" fill="white"/>
<path d="M671.561 318.115H655.599V294.705H648.604V323.124H671.561V318.115Z" fill="white"/>
<path d="M682.928 310.181L697.693 323.124H706.549L690.071 308.712L705.573 294.705H697.031L682.928 307.802V294.705H675.914V323.124H682.928V310.181Z" fill="white"/>
<path d="M591.282 328.915L579.96 357.348H587.177L589.515 351.429H603.47L605.845 357.348H613.043L601.721 328.915H591.264H591.282ZM591.503 346.406L596.437 333.952L601.445 346.406H591.485H591.503Z" fill="white"/>
<path d="M640.138 342.39C640.967 342.012 641.685 341.508 642.256 340.865C643.195 339.815 643.655 338.486 643.655 336.891C643.655 335.645 643.268 334.4 642.513 333.183C641.759 331.965 640.562 330.944 638.942 330.132C637.303 329.321 635.168 328.915 632.535 328.915H617.715V357.348H634.137C636.659 357.348 638.758 356.984 640.415 356.257C642.072 355.529 643.323 354.521 644.133 353.22C644.943 351.933 645.349 350.436 645.349 348.743C645.349 347.161 644.778 345.734 643.618 344.461C642.771 343.523 641.611 342.838 640.138 342.39ZM624.821 333.924H632.443C633.787 333.924 634.799 334.218 635.499 334.806C636.199 335.394 636.548 336.135 636.548 337.003C636.548 337.702 636.364 338.276 636.015 338.71C635.646 339.158 635.168 339.479 634.542 339.689C633.916 339.899 633.216 340.011 632.425 340.011H624.803V333.924H624.821ZM637.671 350.52C637.248 351.079 636.677 351.513 635.941 351.821C635.204 352.129 634.358 352.283 633.419 352.283H624.821V345.02H633.419C634.505 345.02 635.407 345.174 636.143 345.482C636.88 345.79 637.414 346.21 637.782 346.742C638.15 347.273 638.316 347.861 638.316 348.533C638.316 349.302 638.113 349.96 637.69 350.52H637.671Z" fill="white"/>
<path d="M675.998 330.176C673.311 328.945 670.107 328.315 666.407 328.315C662.706 328.315 659.503 328.931 656.815 330.176C654.127 331.408 652.065 333.143 650.611 335.368C649.156 337.593 648.438 340.181 648.438 343.12C648.438 346.058 649.156 348.661 650.611 350.885C652.065 353.11 654.127 354.845 656.815 356.077C659.503 357.308 662.706 357.938 666.407 357.938C670.107 357.938 673.311 357.322 675.998 356.077C678.686 354.845 680.748 353.11 682.203 350.885C683.657 348.661 684.375 346.072 684.375 343.12C684.375 340.167 683.657 337.579 682.203 335.368C680.748 333.143 678.686 331.408 675.998 330.176ZM675.796 348.311C675.023 349.78 673.845 350.927 672.28 351.725C670.715 352.523 668.763 352.914 666.407 352.886C664.05 352.858 662.099 352.439 660.534 351.641C658.969 350.843 657.809 349.71 657.018 348.269C656.244 346.828 655.839 345.107 655.839 343.134C655.839 341.161 656.226 339.44 657.018 337.956C657.791 336.487 658.969 335.34 660.534 334.542C662.099 333.745 664.05 333.353 666.407 333.381C668.763 333.409 670.715 333.829 672.28 334.626C673.845 335.424 675.004 336.557 675.796 337.998C676.569 339.44 676.974 341.161 676.974 343.134C676.974 345.107 676.588 346.828 675.796 348.311Z" fill="white"/>
<path d="M712.594 346.644C712.594 347.567 712.392 348.407 711.987 349.176C711.582 349.946 711.029 350.604 710.293 351.149C709.575 351.695 708.728 352.129 707.752 352.437C706.777 352.744 705.727 352.884 704.604 352.884C703.481 352.884 702.469 352.73 701.511 352.437C700.536 352.143 699.689 351.709 698.971 351.163C698.234 350.604 697.664 349.946 697.259 349.19C696.854 348.421 696.633 347.581 696.633 346.644V328.915L689.526 328.957V346.686C689.526 348.966 690.152 350.939 691.423 352.632C692.693 354.312 694.46 355.627 696.725 356.55C698.989 357.474 701.622 357.936 704.604 357.936C707.587 357.936 710.219 357.474 712.484 356.55C714.748 355.627 716.516 354.312 717.786 352.632C719.056 350.953 719.682 348.966 719.682 346.686V328.915H712.576V346.644H712.594Z" fill="white"/>
<path d="M723.799 333.924H735.489V357.348H742.485V333.924H754.176V328.915H723.799V333.924Z" fill="white"/>
<path d="M774.557 328.915H767.562V357.348H774.557V328.915Z" fill="white"/>
<path d="M779.199 333.924H790.89V357.348H797.886V333.924H809.576V328.915H779.199V333.924Z" fill="white"/>
<path d="M816.683 351.974H809.688V357.347H816.683V351.974Z" fill="white"/>
<rect x="583" y="261" width="100" height="100" rx="50" fill="#C5C5C5" fill-opacity="0.3"/>
<mask id="mask0_331_332" style="mask-type:luminance" maskUnits="userSpaceOnUse" x="607" y="285" width="52" height="52">
<path d="M633 336C646.807 336 658 324.807 658 311C658 297.193 646.807 286 633 286C619.193 286 608 297.193 608 311C608 324.807 619.193 336 633 336Z" fill="white" stroke="white" stroke-width="2" stroke-linejoin="round"/>
<path d="M628 311V302.34L635.5 306.67L643 311L635.5 315.33L628 319.66V311Z" fill="black" stroke="black" stroke-width="2" stroke-linejoin="round"/>
</mask>
<g mask="url(#mask0_331_332)">
<path d="M603 281H663V341H603V281Z" fill="white"/>
</g>
</svg>
