<svg width="20" height="21" viewBox="0 0 20 21" fill="none" xmlns="http://www.w3.org/2000/svg">
<path d="M9.56237 3.76005C9.60522 3.68067 9.66873 3.61436 9.74619 3.56815C9.82365 3.52193 9.91217 3.49753 10.0024 3.49753C10.0926 3.49753 10.1811 3.52193 10.2586 3.56815C10.336 3.61436 10.3995 3.68067 10.4424 3.76005L16.9424 15.76C16.9838 15.8363 17.0048 15.922 17.0031 16.0087C17.0014 16.0955 16.9772 16.1803 16.9328 16.2548C16.8884 16.3294 16.8254 16.3911 16.7499 16.4339C16.6745 16.4767 16.5891 16.4992 16.5024 16.499H3.50037C3.41375 16.4991 3.32859 16.4766 3.25326 16.4339C3.17793 16.3911 3.11499 16.3295 3.07063 16.2551C3.02627 16.1807 3.002 16.096 3.0002 16.0094C2.99841 15.9228 3.01914 15.8372 3.06037 15.761L9.56237 3.76005ZM11.3204 3.28405C10.7534 2.23605 9.25037 2.23605 8.68337 3.28405L2.18137 15.284C2.05751 15.5125 1.99511 15.7692 2.0003 16.029C2.00548 16.2888 2.07807 16.5428 2.21094 16.7661C2.34382 16.9894 2.53243 17.1743 2.75829 17.3028C2.98415 17.4313 3.23952 17.4989 3.49937 17.499H16.5024C16.7623 17.4991 17.0178 17.4316 17.2438 17.3032C17.4698 17.1748 17.6586 16.9898 17.7915 16.7665C17.9245 16.5432 17.9972 16.2891 18.0024 16.0292C18.0077 15.7693 17.9453 15.5126 17.8214 15.284L11.3214 3.28405H11.3204ZM10.5004 7.99805C10.5004 7.86544 10.4477 7.73826 10.3539 7.64449C10.2602 7.55073 10.133 7.49805 10.0004 7.49805C9.86777 7.49805 9.74059 7.55073 9.64682 7.64449C9.55305 7.73826 9.50037 7.86544 9.50037 7.99805V11.998C9.50037 12.1307 9.55305 12.2578 9.64682 12.3516C9.74059 12.4454 9.86777 12.498 10.0004 12.498C10.133 12.498 10.2602 12.4454 10.3539 12.3516C10.4477 12.2578 10.5004 12.1307 10.5004 11.998V7.99805ZM10.7504 14.248C10.7504 14.447 10.6714 14.6377 10.5307 14.7784C10.3901 14.919 10.1993 14.998 10.0004 14.998C9.80146 14.998 9.6107 14.919 9.47004 14.7784C9.32939 14.6377 9.25037 14.447 9.25037 14.248C9.25037 14.0491 9.32939 13.8584 9.47004 13.7177C9.6107 13.5771 9.80146 13.498 10.0004 13.498C10.1993 13.498 10.3901 13.5771 10.5307 13.7177C10.6714 13.8584 10.7504 14.0491 10.7504 14.248Z" fill="#FF1010"/>
</svg>
