<svg width="32" height="32" viewBox="0 0 32 32" fill="none" xmlns="http://www.w3.org/2000/svg">
<g clip-path="url(#clip0_3021_6316)">
<path d="M15.9998 13.0918V19.2882H24.6106C24.2325 21.2809 23.0978 22.9682 21.3961 24.1028L26.5888 28.1319C29.6142 25.3392 31.3597 21.2374 31.3597 16.3647C31.3597 15.2302 31.2579 14.1391 31.0687 13.092L15.9998 13.0918Z" fill="white"/>
<path d="M7.03286 19.0449L5.86171 19.9414L1.71619 23.1705C4.34891 28.3922 9.74487 31.9996 15.9994 31.9996C20.3193 31.9996 23.941 30.5741 26.5884 28.1305L21.3957 24.1014C19.9702 25.0614 18.152 25.6433 15.9994 25.6433C11.8394 25.6433 8.30495 22.836 7.0394 19.0542L7.03286 19.0449Z" fill="white"/>
<path d="M1.71624 8.82812C0.625389 10.9808 0 13.4099 0 15.9989C0 18.588 0.625389 21.0171 1.71624 23.1698C1.71624 23.1842 7.03997 19.0388 7.03997 19.0388C6.71997 18.0788 6.53082 17.0607 6.53082 15.9988C6.53082 14.9368 6.71997 13.9187 7.03997 12.9587L1.71624 8.82812Z" fill="white"/>
<path d="M15.9997 6.3709C18.3561 6.3709 20.4506 7.18543 22.1233 8.75636L26.7051 4.1746C23.9269 1.58555 20.3198 0 15.9997 0C9.7452 0 4.34891 3.59272 1.71619 8.8291L7.03975 12.96C8.30513 9.17816 11.8397 6.3709 15.9997 6.3709Z" fill="white"/>
</g>
<defs>
<clipPath id="clip0_3021_6316">
<rect width="32" height="32" fill="white"/>
</clipPath>
</defs>
</svg>
