<svg width="36" height="36" viewBox="0 0 36 36" fill="none" xmlns="http://www.w3.org/2000/svg">
<path d="M15.5 10.5C15.5 9.11929 16.6193 8 18 8C19.3807 8 20.5 9.11929 20.5 10.5V25.5C20.5 26.8807 19.3807 28 18 28C16.6193 28 15.5 26.8807 15.5 25.5V10.5ZM18 9.25C17.3096 9.25 16.75 9.80964 16.75 10.5V25.5C16.75 26.1904 17.3096 26.75 18 26.75C18.6904 26.75 19.25 26.1904 19.25 25.5V10.5C19.25 9.80964 18.6904 9.25 18 9.25ZM8 20.5C8 19.1193 9.11929 18 10.5 18C11.8807 18 13 19.1193 13 20.5V25.5C13 26.8807 11.8807 28 10.5 28C9.11929 28 8 26.8807 8 25.5V20.5ZM10.5 19.25C9.80964 19.25 9.25 19.8096 9.25 20.5V25.5C9.25 26.1904 9.80964 26.75 10.5 26.75C11.1904 26.75 11.75 26.1904 11.75 25.5V20.5C11.75 19.8096 11.1904 19.25 10.5 19.25ZM25.5 13C24.1193 13 23 14.1193 23 15.5V25.5C23 26.8807 24.1193 28 25.5 28C26.8807 28 28 26.8807 28 25.5V15.5C28 14.1193 26.8807 13 25.5 13ZM24.25 15.5C24.25 14.8096 24.8096 14.25 25.5 14.25C26.1904 14.25 26.75 14.8096 26.75 15.5V25.5C26.75 26.1904 26.1904 26.75 25.5 26.75C24.8096 26.75 24.25 26.1904 24.25 25.5V15.5Z" fill="#212121"/>
</svg>
