<svg xmlns="http://www.w3.org/2000/svg" width="240.992" height="248.041" viewBox="0 0 240.992 248.041">
  <path id="Polygon_1" data-name="Polygon 1" d="M108,0,216,177H0Z" transform="translate(5.991)" fill="#ffc233"/>
  <path id="Polygon_2" data-name="Polygon 2" d="M80,0l80,131H0Z" transform="translate(33.991 29)" fill="#bc880d"/>
  <g id="Group_541" data-name="Group 541" transform="translate(-0.001 131.628)">
    <g id="Group_537" data-name="Group 537" transform="translate(0.001 0)">
      <path id="Path_5337" data-name="Path 5337" d="M207.751,309.557,312.24,286.652l-118.683,4.954,1.689,11.067Z" transform="translate(-151.104 -233.247)" fill="#4e4d5b"/>
      <path id="Path_5338" data-name="Path 5338" d="M219.751,243.407v20.642l-8.378-5.827-.976-14.815Z" transform="translate(-160.565 -206.771)" fill="#282730"/>
      <path id="Path_5339" data-name="Path 5339" d="M411.322,264.276l2.645,6.82,1.413.942,1.713,7.118,27.4,10.664,4.252-2.968-1.723-4.442-2.32-1.238-7.83-13.108-11.2.235-2.9-7.483-7.755-.542Z" transform="translate(-273.451 -217.603)" fill="#3f3e4d"/>
      <path id="Path_5340" data-name="Path 5340" d="M349.243,313.039l-96.464,29.822-2.964-3.568,98.754-28.509a1.177,1.177,0,0,1,1.446.768h0A1.177,1.177,0,0,1,349.243,313.039Z" transform="translate(-182.711 -249.741)" fill="#4254a6"/>
      <path id="Path_5341" data-name="Path 5341" d="M337.395,292.819l-98.16,24.5-1.268-3.979,98.753-22.78a1.177,1.177,0,0,1,1.446.768h0A1.177,1.177,0,0,1,337.395,292.819Z" transform="translate(-176.055 -235.918)" fill="#4254a6"/>
      <path id="Path_5342" data-name="Path 5342" d="M209.952,250.088v23.044l19.95,9s1.91-13.272-1.887-22.359L214,256.254v-6.166Z" transform="translate(-160.315 -211.518)" fill="#3f3e4d"/>
      <path id="Path_5343" data-name="Path 5343" d="M427.922,224.033v20.2L446.2,247.7a32.96,32.96,0,0,0-2.44-15.181l-12.291-3.083v-5.406Z" transform="translate(-282.778 -195.105)" fill="#282730"/>
      <path id="Path_5344" data-name="Path 5344" d="M251.176,256.018l93.28-12.611s4.9,1.09,2.44,15.181l-93.833,19.789S254.83,264.049,251.176,256.018Z" transform="translate(-183.476 -207.603)" fill="#696874"/>
      <path id="Path_5345" data-name="Path 5345" d="M209.3,325.042v6.573l-6.95,1.7L174.5,306.156l-.73-10.242L172.421,294v-12.21l6.741-1.19,9.7,4.566v11.075l12.673,7.844,5.391,18.212Z" transform="translate(-139.229 -232.807)" fill="#3f3e4d"/>
      <path id="Path_5346" data-name="Path 5346" d="M250.891,264.553l94.214-14.772-.306-4.174a4.327,4.327,0,0,0-4.908-3.969l-93.049,12.887Z" transform="translate(-181.041 -205.782)" fill="#3f3e4d"/>
      <path id="Path_5347" data-name="Path 5347" d="M116.677,198.393l-7.331-.048a11.449,11.449,0,0,1-12.677-11.13V161.482c0-6.455,7.334-12.024,14.029-11.61l137.1,9.045a11.37,11.37,0,0,1,10.869,11.1l.025,4.88C258.724,180.693,122.677,197.863,116.677,198.393Z" transform="translate(-96.669 -149.85)" fill="#1f1f26"/>
      <path id="Path_5348" data-name="Path 5348" d="M271.716,175.479a11.174,11.174,0,0,1-10.152,11.184L137.076,198.1l-9.065.833a11.175,11.175,0,0,1-12.2-11.128V162.065a11.175,11.175,0,0,1,11.895-11.151l9.071.582,31.352,2.019,93.1,5.988A11.174,11.174,0,0,1,271.691,170.6Z" transform="translate(-107.424 -150.435)" fill="#4254a6"/>
      <path id="Path_5349" data-name="Path 5349" d="M333.727,174.594l-3.314,7.7L235.963,186.3a81.5,81.5,0,0,0-.627-21.356c-.376-2.236-.8-4.036-1.157-5.358-.468-1.726-.822-2.637-.822-2.637l.814-.072,93.1,5.988a11.083,11.083,0,0,1,4.045,1.042l.878,1.734Z" transform="translate(-173.464 -153.8)" fill="#3f3e4d"/>
      <path id="Path_5350" data-name="Path 5350" d="M326.339,170.9l-89.948-2.481c-.376-2.236-.8-4.036-1.157-5.358l91.262,4.271a2.039,2.039,0,0,1,.895.251,1.862,1.862,0,0,1,.661.613A1.792,1.792,0,0,1,326.339,170.9Z" transform="translate(-174.519 -157.274)" fill="#6c79b5"/>
      <path id="Path_5351" data-name="Path 5351" d="M328.074,194.181,238.1,195.513c-.471-2.218-.971-4-1.383-5.3l91.361.4a2.032,2.032,0,0,1,.9.213,1.864,1.864,0,0,1,.686.585A1.793,1.793,0,0,1,328.074,194.181Z" transform="translate(-175.353 -174.13)" fill="#6c79b5"/>
      <path id="Path_5352" data-name="Path 5352" d="M236.206,235.243l8.155-.779,2.239-8.733-2.632-2.368-6.039-1.084-3.1,2.09Z" transform="translate(-174.294 -193.65)" fill="#3f3e4d"/>
      <path id="Path_5353" data-name="Path 5353" d="M457.028,187.857v2.388l-2.318,2.388v3.453l-10.748.762-2.717.193-.723-9.188a21.738,21.738,0,0,0-2.686-10.468l-1.542-2.813-1.884-5.056,2.8.171,14.17.868,2.861,5.644A25.724,25.724,0,0,1,457.028,187.857Z" transform="translate(-286.423 -160.899)" fill="#4254a6"/>
      <path id="Path_5354" data-name="Path 5354" d="M460.613,188.076v2.388l-2.318,2.388V196.3l-10.748.762-.71-9a21.776,21.776,0,0,0-2.686-10.468l-1.547-2.809L440.79,169.9l14.17.868,2.861,5.644A25.725,25.725,0,0,1,460.613,188.076Z" transform="translate(-290.007 -161.118)" fill="#3f3e4d"/>
      <path id="Path_5355" data-name="Path 5355" d="M241.9,216.145l90.465-4.784s7.818,3.342,7.925,8.679l-91.957,8.29S247.433,217.491,241.9,216.145Z" transform="translate(-178.264 -187.161)" fill="#3f3e4d"/>
      <path id="Path_5356" data-name="Path 5356" d="M233.265,156.75l.041.128a70.784,70.784,0,0,1,1.609,37.316l-.964,4.232" transform="translate(-173.413 -153.727)" fill="#4254a6"/>
      <path id="Path_5357" data-name="Path 5357" d="M137.076,198.1l-9.065.833a11.175,11.175,0,0,1-12.2-11.128V162.065a11.175,11.175,0,0,1,11.895-11.151l9.071.582.3.463S143.474,176.921,137.076,198.1Z" transform="translate(-107.424 -150.435)" fill="#3f3e4d"/>
      <g id="Group_532" data-name="Group 532" transform="translate(35.27 8.022)">
        <path id="Path_5358" data-name="Path 5358" d="M191.755,187.089H182.6a4.647,4.647,0,0,1-4.631-4.267l-.791-9.636a4.647,4.647,0,0,1,4.845-5.022l8.869.407a4.647,4.647,0,0,1,4.4,4.1l1.074,9.228A4.647,4.647,0,0,1,191.755,187.089Z" transform="translate(-177.164 -168.159)" fill="#364487"/>
        <path id="Path_5359" data-name="Path 5359" d="M196.635,187.089h-9.153a4.647,4.647,0,0,1-4.631-4.267l-.791-9.636a4.647,4.647,0,0,1,4.844-5.022l8.869.407a4.647,4.647,0,0,1,4.4,4.1l1.074,9.228A4.647,4.647,0,0,1,196.635,187.089Z" transform="translate(-179.905 -168.159)" fill="#1f1f26"/>
      </g>
      <g id="Group_535" data-name="Group 535" transform="translate(40.466 10.37)">
        <path id="Path_5360" data-name="Path 5360" d="M200.473,179.523l-9.067-.213a2.187,2.187,0,0,1-2.1-1.811l-.248-1.42a2.188,2.188,0,0,1,2.248-2.561l8.994.382a2.187,2.187,0,0,1,2.026,1.642l.321,1.251A2.187,2.187,0,0,1,200.473,179.523Z" transform="translate(-189.021 -173.516)" fill="#f0f0f0"/>
        <path id="Path_5361" data-name="Path 5361" d="M198.718,205.435l-3.274-.077a.412.412,0,0,1-.379-.414l-.08-1.088a.524.524,0,0,1,.482-.59l3.208.147a.407.407,0,0,1,.367.376l.145,1.017A.532.532,0,0,1,198.718,205.435Z" transform="translate(-192.371 -190.23)" fill="#f0f0f0"/>
        <g id="Group_533" data-name="Group 533" transform="translate(1.987 7.569)">
          <path id="Path_5362" data-name="Path 5362" d="M195.246,191.636a.845.845,0,1,1-.844-.845A.845.845,0,0,1,195.246,191.636Z" transform="translate(-193.557 -190.791)" fill="#f0f0f0"/>
          <path id="Path_5363" data-name="Path 5363" d="M202.865,191.636a.845.845,0,1,1-.844-.845A.845.845,0,0,1,202.865,191.636Z" transform="translate(-197.838 -190.791)" fill="#f0f0f0"/>
          <path id="Path_5364" data-name="Path 5364" d="M210.484,191.636a.845.845,0,1,1-.844-.845A.845.845,0,0,1,210.484,191.636Z" transform="translate(-202.118 -190.791)" fill="#f0f0f0"/>
          <path id="Path_5365" data-name="Path 5365" d="M218.1,191.636a.845.845,0,1,1-.844-.845A.845.845,0,0,1,218.1,191.636Z" transform="translate(-206.399 -190.791)" fill="#f0f0f0"/>
        </g>
        <g id="Group_534" data-name="Group 534" transform="translate(1.987 10.424)">
          <path id="Path_5366" data-name="Path 5366" d="M195.246,198.15a.845.845,0,1,1-.844-.844A.845.845,0,0,1,195.246,198.15Z" transform="translate(-193.557 -197.306)" fill="#f0f0f0"/>
          <path id="Path_5367" data-name="Path 5367" d="M202.865,198.15a.845.845,0,1,1-.844-.844A.845.845,0,0,1,202.865,198.15Z" transform="translate(-197.838 -197.306)" fill="#f0f0f0"/>
          <path id="Path_5368" data-name="Path 5368" d="M210.484,198.15a.845.845,0,1,1-.844-.844A.845.845,0,0,1,210.484,198.15Z" transform="translate(-202.118 -197.306)" fill="#f0f0f0"/>
          <path id="Path_5369" data-name="Path 5369" d="M218.1,198.15a.845.845,0,1,1-.844-.844A.845.845,0,0,1,218.1,198.15Z" transform="translate(-206.399 -197.306)" fill="#f0f0f0"/>
        </g>
      </g>
      <g id="Group_536" data-name="Group 536" transform="translate(42.396 29.653)">
        <ellipse id="Ellipse_2" data-name="Ellipse 2" cx="2.494" cy="2.494" rx="2.494" ry="2.494" fill="#f0f0f0"/>
        <path id="Path_5370" data-name="Path 5370" d="M217.125,227.753a1.71,1.71,0,1,1-1.71-1.71A1.71,1.71,0,0,1,217.125,227.753Z" transform="translate(-204.819 -225.259)" fill="#f0f0f0"/>
      </g>
    </g>
    <g id="Group_540" data-name="Group 540" transform="translate(62.431 17.411)">
      <g id="Group_538" data-name="Group 538">
        <path id="Path_5371" data-name="Path 5371" d="M420.462,279.257,342.95,310.266c-.215-.653-.456-1.376-.732-2.16-.044-.127-.088-.259-.14-.39-.188-.535-.39-1.087-.609-1.656-.053-.145-.11-.289-.167-.434s-.11-.294-.166-.438c-.066-.162-.131-.333-.2-.5l-.158-.407c-.11-.259-.215-.517-.324-.78-.018-.039-.031-.074-.048-.114-.11-.263-.223-.53-.337-.8a65.02,65.02,0,0,0-3.221-6.516c-.057-.1-.118-.2-.175-.3-.412-.705-.837-1.4-1.284-2.077-.066-.1-.131-.193-.193-.289-.381-.574-.78-1.13-1.187-1.669-.136-.175-.276-.355-.412-.526-.206-.263-.421-.521-.635-.771-.07-.083-.14-.167-.215-.25-.088-.1-.18-.206-.276-.307s-.193-.215-.294-.32c-.083-.088-.167-.18-.254-.267-.14-.145-.28-.285-.425-.425-.114-.114-.232-.223-.346-.329-.215-.2-.434-.394-.653-.578-.158-.136-.315-.263-.478-.39-.1-.079-.2-.158-.3-.228s-.18-.136-.267-.2c-.048-.035-.1-.07-.145-.1-.118-.083-.232-.162-.351-.237s-.237-.153-.355-.223c-.092-.057-.188-.114-.285-.167-.035-.022-.074-.039-.11-.061q-.184-.105-.368-.2c-.105-.053-.206-.105-.307-.149-.053-.031-.105-.053-.162-.079-.245-.11-.491-.215-.741-.3-.127-.048-.25-.092-.372-.131a30.986,30.986,0,0,0-7.563-1.534,17.845,17.845,0,0,0-7.256.946c-11.265,4.049-13.929,19.358-25.173,22.351-5.736,1.525-12.207.031-18.052-4.715a39.8,39.8,0,0,1-10.56-14.113,58.769,58.769,0,0,1-2.371-5.779,73.713,73.713,0,0,1-2.423-8.566,91.047,91.047,0,0,1-1.525-9.127q-.388-3.194-.578-6.638-.145-2.491-.184-5.109c-.083-5.289-.315-9.885-.657-13.877-.048-.583-.1-1.157-.158-1.713-1.814-18.517-6.047-23.14-7.856-23.6l52.7-1.542,38.283-1.122s2.927-1.542,4.759,8.36q.145.782.276,1.656c.359,2.327.657,5.184.863,8.685.039.618.07,1.249.1,1.906q.125,2.675.175,5.832c.039,2.441.171,4.886.425,7.317q.23,2.241.6,4.461c.039.237.083.473.127.71.1.535.2,1.074.311,1.612a46.7,46.7,0,0,0,4.675,13.259,24.893,24.893,0,0,0,8.058,8.974,15.032,15.032,0,0,0,1.726.964c8.128,3.86,17.382-1,25.9-3.054,0,0,0,0,.009,0a31.02,31.02,0,0,1,4.049-.727c9.946-1.034,18.591,3.4,27.946,5.915.272.074.552.153.833.237.863.254,1.748.539,2.651.815l.535.158c.1.031.2.061.3.088s.232.066.346.1c.342.1.688.193,1.034.276.088.017.171.039.254.057.123.031.245.057.364.083.232.048.464.1.7.136a2.129,2.129,0,0,0,.232.039C420.247,279.226,420.353,279.239,420.462,279.257Z" transform="translate(-241.9 -211.266)" fill="#20acff"/>
        <path id="Path_5372" data-name="Path 5372" d="M518.6,355.991c.109.02.214.033.323.05l-77.51,31.012c-.215-.655-.457-1.38-.733-2.161-.045-.128-.092-.259-.14-.393q-.284-.8-.61-1.656c-.053-.142-.109-.287-.164-.432s-.112-.293-.17-.438l-.2-.5c-.056-.137-.109-.27-.162-.407-.106-.256-.215-.518-.323-.783-.017-.036-.031-.072-.047-.111-.109-.265-.223-.53-.337-.8a64.112,64.112,0,0,0-3.22-6.515c-.059-.1-.117-.2-.176-.3-.41-.705-.839-1.4-1.285-2.077-.061-.1-.125-.192-.192-.29-.382-.571-.78-1.129-1.187-1.667-.137-.178-.273-.357-.413-.53-.206-.262-.418-.518-.633-.769-.07-.084-.142-.167-.215-.248q-.133-.155-.276-.309c-.1-.109-.2-.215-.293-.318s-.17-.181-.257-.268c-.139-.145-.281-.287-.424-.427-.114-.111-.231-.223-.348-.329-.212-.2-.429-.393-.649-.577-.159-.134-.318-.265-.48-.39-.1-.078-.2-.153-.3-.229s-.178-.134-.27-.2c-.047-.036-.095-.07-.145-.1-.114-.081-.231-.159-.348-.237s-.234-.148-.354-.22l-.284-.167c-.036-.022-.075-.042-.111-.061-.123-.07-.245-.137-.368-.2-.1-.053-.2-.1-.307-.151-.053-.028-.109-.053-.162-.075-.245-.112-.491-.215-.741-.3-.123-.047-.249-.089-.374-.131a30.912,30.912,0,0,0-7.563-1.533c15.6-2.094,49.265-9.749,62.2-11.928,0,0,0,0,.006,0a30.633,30.633,0,0,1,4.05-.728c9.946-1.034,18.591,3.4,27.946,5.913.273.075.552.153.834.237.861.254,1.748.541,2.651.814.178.056.357.109.535.162.1.031.2.059.3.087s.231.067.346.1c.343.1.688.19,1.034.273.086.019.173.042.256.058.123.031.243.056.362.081.231.05.466.1.7.139C518.446,355.966,518.524,355.98,518.6,355.991Z" transform="translate(-340.364 -288.052)" fill="#4254a6"/>
      </g>
      <g id="Group_539" data-name="Group 539" transform="translate(7.856)">
        <path id="Path_5373" data-name="Path 5373" d="M375.18,344.183c-11.747,3.65-24.384,4.723-36.486,7.409a135.128,135.128,0,0,0-30.575,10.788c-6.511,3.225-12.838,7.006-19.709,9.259a39.8,39.8,0,0,1-10.56-14.113c7.834.061,15.739-1.424,23.381-3.356,21.716-5.486,42.445-14.525,64.165-19.924a24.893,24.893,0,0,0,8.058,8.974A15.03,15.03,0,0,0,375.18,344.183Z" transform="translate(-269.954 -280.359)" fill="#fff" opacity="0.16"/>
        <path id="Path_5374" data-name="Path 5374" d="M347.989,221.37c-1.069.39-2.147.754-3.225,1.113-21.7,7.173-44.338,11.835-65.064,21.475-7.26,3.374-14.608,7.742-18.872,14.363q-.145-2.491-.184-5.109c-.083-5.289-.315-9.885-.657-13.877-.048-.583-.1-1.157-.158-1.713a147.111,147.111,0,0,1,24.353-15.5c6.665-3.505,13.5-6.77,20.489-9.649l38.283-1.122s2.927-1.542,4.758,8.36Q347.858,220.5,347.989,221.37Z" transform="translate(-259.83 -211.266)" fill="#fff" opacity="0.16"/>
        <path id="Path_5375" data-name="Path 5375" d="M352.308,274.371c-16.252,11.134-34.3,19.569-52.795,26.426-10.117,3.751-20.774,7.1-31.509,6.02-.21-.022-.416-.044-.627-.074a73.711,73.711,0,0,1-2.423-8.566,91.042,91.042,0,0,1-1.525-9.127c3.387,1.433,7.453.7,11.086-.3,27-7.418,49.75-26.071,76.359-34.607.039.618.07,1.249.1,1.906q.125,2.675.175,5.832c.039,2.441.171,4.886.425,7.317q.23,2.241.6,4.461C352.22,273.9,352.264,274.134,352.308,274.371Z" transform="translate(-261.853 -235.357)" fill="#fff" opacity="0.16"/>
      </g>
    </g>
  </g>
  <g id="Group_553" data-name="Group 553" transform="translate(71.816 61.142)">
    <path id="Path_5376" data-name="Path 5376" d="M507.5,180.447s-14.214,22.043-27.684,23.663l.883,4.116s17.809.81,23.52-6.972S507.5,180.447,507.5,180.447Z" transform="translate(-470.153 -151.309)" fill="#cc006e"/>
    <g id="Group_552" data-name="Group 552" transform="translate(0.001 0)">
      <path id="Path_5377" data-name="Path 5377" d="M508.738,149.836s-.079,4,2.187,5.157v-5.83Z" transform="translate(-479.691 -140.993)" fill="#221d53"/>
      <g id="Group_545" data-name="Group 545" transform="translate(25.418)">
        <path id="Path_5378" data-name="Path 5378" d="M510.72,144.879s-.452,14.159,4.106,15.629,8.066-3.249,7.978-6.734-2.253-9.116-5.348-9.778S510.72,144.879,510.72,144.879Z" transform="translate(-505.758 -139.236)" fill="#fcb798"/>
        <path id="Path_5379" data-name="Path 5379" d="M507.852,140.3a16.124,16.124,0,0,0,3.912-.791c1.914-.822,5.611-3.972,7.559-1.753a5.453,5.453,0,0,1,.881,1.656,18.15,18.15,0,0,1,1.277,4.326c.175,1.408-1.023,6.054-1.311,7.413-.537.728-.995-.629-2.068-1.2a4.479,4.479,0,0,1-1.4-1.561c-.1-.176-.694-1.979-.4-2.032a18.824,18.824,0,0,0-2.445.9,22.035,22.035,0,0,1-3,.753c-2.223.4-5.965.58-7.139-1.862a3.85,3.85,0,0,1,1.334-4.9A6.626,6.626,0,0,1,507.852,140.3Z" transform="translate(-503.324 -136.975)" fill="#221d53"/>
        <g id="Group_544" data-name="Group 544" transform="translate(5.695 11.769)">
          <g id="Group_542" data-name="Group 542" transform="translate(0.501 1.303)">
            <path id="Path_5380" data-name="Path 5380" d="M518.947,157.073c.06.368-.1.7-.347.741s-.505-.223-.566-.591.1-.7.348-.741S518.886,156.706,518.947,157.073Z" transform="translate(-514.366 -156.478)" fill="#4d5681"/>
            <path id="Path_5381" data-name="Path 5381" d="M513.494,157.966c.06.368-.1.7-.347.741s-.505-.223-.565-.591.1-.7.347-.741S513.434,157.6,513.494,157.966Z" transform="translate(-512.569 -156.772)" fill="#4d5681"/>
            <path id="Path_5382" data-name="Path 5382" d="M516.9,162.83a2.573,2.573,0,0,0,2.823-1.581" transform="translate(-513.998 -158.051)" fill="none" stroke="#4d5681" stroke-linecap="round" stroke-linejoin="round" stroke-width="0.492"/>
            <path id="Path_5383" data-name="Path 5383" d="M514.5,158.37s.706,1.326.4,1.763-.1.981.605.978" transform="translate(-513.204 -157.102)" fill="none" stroke="#4d5681" stroke-linecap="round" stroke-linejoin="round" stroke-width="0.492"/>
          </g>
          <g id="Group_543" data-name="Group 543">
            <path id="Path_5384" data-name="Path 5384" d="M511.821,156.234s.446-.912,1.181-.262" transform="translate(-511.821 -154.931)" fill="none" stroke="#4d5681" stroke-linecap="round" stroke-linejoin="round" stroke-width="0.492"/>
            <path id="Path_5385" data-name="Path 5385" d="M517.248,155.029s.446-.912,1.181-.262" transform="translate(-513.61 -154.534)" fill="none" stroke="#4d5681" stroke-linecap="round" stroke-linejoin="round" stroke-width="0.492"/>
          </g>
        </g>
      </g>
      <g id="Group_551" data-name="Group 551" transform="translate(0 12.405)">
        <g id="Group_548" data-name="Group 548">
          <g id="Group_546" data-name="Group 546" transform="translate(32.294)">
            <path id="Path_5386" data-name="Path 5386" d="M535.9,170.063c-5.447-2.862-10.113-14.581-10.113-14.581l-4.156,6.8s.057.438.155,1.137c.138,1.023.356,2.6.593,4.223.247,1.738.519,3.52.729,4.715C523.643,175.451,537.976,171.154,535.9,170.063Z" transform="translate(-516.236 -155.482)" fill="#fcb798"/>
            <path id="Path_5387" data-name="Path 5387" d="M519.96,174.431l8.945-3.282s11.894,2.125,16.308,17.562-3.053,37.507-3.053,37.507l-26.958-.875s.245-20.693-1.513-34.263C512.627,182.891,519.96,174.431,519.96,174.431Z" transform="translate(-513.583 -160.648)" fill="#cc006e"/>
          </g>
          <g id="Group_547" data-name="Group 547" transform="translate(0 24.487)">
            <path id="Path_5388" data-name="Path 5388" d="M490.808,231.073l18.824-5.087-24.307-6.444-16.956,4.525Z" transform="translate(-466.381 -201.091)" fill="#3b4263"/>
            <path id="Path_5389" data-name="Path 5389" d="M486.9,197.337l2.931,24.917-22.439-7.264L465.4,192.014Z" transform="translate(-465.402 -192.014)" fill="#4f62b8"/>
          </g>
        </g>
        <g id="Group_550" data-name="Group 550" transform="translate(16.274 14.063)">
          <g id="Group_549" data-name="Group 549">
            <path id="Path_5390" data-name="Path 5390" d="M536.858,207.241a37.152,37.152,0,0,1-4.262,8.7c-2.3,3.453-5.26,6.241-9.352,7.37a15.045,15.045,0,0,1-7.854.012c-2.67-.717-5.378-1.35-8.051-2.105a71.76,71.76,0,0,1-14.048-5.558c-.138-.077-.276-.149-.414-.225q-1.647-.882-3.2-1.839l1.788-3.377s.188.088.53.225c.2.082.458.186.773.307.359.137.784.291,1.27.456a34.4,34.4,0,0,0,9.228,1.839,18.348,18.348,0,0,0,8.62-1.471,15.368,15.368,0,0,0,8.313-11c.879-4.737-.777-8.783-2.007-13.22a12,12,0,0,1-.279-6.385c.646-2.312,2.638-4.585,5.205-4.5,2.782.089,5.175,2.282,7.166,4a24.37,24.37,0,0,1,6.665,9.013C539.323,195.177,538.792,201.483,536.858,207.241Z" transform="translate(-489.682 -176.463)" fill="#eb007e"/>
          </g>
        </g>
        <path id="Path_5391" data-name="Path 5391" d="M486.908,224.016s-1.135-3.455-2.132-3.919-2.658-2.257-2.725-1.66a2.978,2.978,0,0,0,1.794,2.729s-5.286-.8-6.829-1.6-1.58,4.187,0,5.117,8.1,2.711,8.1,2.711Z" transform="translate(-468.845 -176.2)" fill="#fcb798"/>
      </g>
      <path id="Path_5392" data-name="Path 5392" d="M522.992,155.213a1.767,1.767,0,1,0,1.061-2.262A1.767,1.767,0,0,0,522.992,155.213Z" transform="translate(-484.357 -142.208)" fill="#fcb798"/>
    </g>
  </g>
</svg>
