<svg xmlns="http://www.w3.org/2000/svg" width="183.618" height="162.183" viewBox="0 0 183.618 162.183">
  <g id="Group_576" data-name="Group 576" transform="translate(-11.524 18.908) rotate(-7)">
    <g id="Group_573" data-name="Group 573" transform="translate(62.709 0)">
      <path id="Path_5393" data-name="Path 5393" d="M13.75,0l2.6,2.89L30.387,51.882a13.235,13.235,0,0,1,.513,3.626l.066,32.2a11.471,11.471,0,0,1-2.846,7.585l-15.167,17.3L0,96.621,8.064.348Z" transform="translate(75.331 2.489)" fill="#144db2"/>
      <g id="Group_571" data-name="Group 571" transform="translate(0)">
        <g id="Group_557" data-name="Group 557">
          <g id="Group_555" data-name="Group 555">
            <path id="Path_5394" data-name="Path 5394" d="M83.7,116.872l-76.9-1.283A6.921,6.921,0,0,1,0,108.554L1.7,6.805A6.921,6.921,0,0,1,8.734,0l76.9,1.283a6.921,6.921,0,0,1,6.8,7.035l-1.7,101.748A6.921,6.921,0,0,1,83.7,116.872Z" fill="#17cabe"/>
          </g>
          <g id="Group_556" data-name="Group 556" transform="translate(6.662 8.09)">
            <rect id="Rectangle_33" data-name="Rectangle 33" width="78.034" height="82.38" rx="10.284" transform="matrix(1, 0.017, -0.017, 1, 1.374, 0)" fill="#fff"/>
          </g>
        </g>
        <g id="Group_562" data-name="Group 562" transform="translate(8.814 99.002)">
          <g id="Group_560" data-name="Group 560" transform="translate(0 0)">
            <g id="Group_558" data-name="Group 558">
              <rect id="Rectangle_34" data-name="Rectangle 34" width="22.389" height="7.036" rx="1.819" transform="translate(0.117 0) rotate(0.956)" fill="#316cd5"/>
            </g>
            <g id="Group_559" data-name="Group 559" transform="translate(11.193 0.187)">
              <path id="Rectangle_35" data-name="Rectangle 35" d="M0,0H9.8a1.395,1.395,0,0,1,1.395,1.395V5.641A1.395,1.395,0,0,1,9.8,7.036H0a0,0,0,0,1,0,0V0A0,0,0,0,1,0,0Z" transform="matrix(1, 0.017, -0.017, 1, 0.117, 0)" fill="#144db2"/>
            </g>
          </g>
          <g id="Group_561" data-name="Group 561" transform="translate(50.331 0.84)">
            <rect id="Rectangle_36" data-name="Rectangle 36" width="22.389" height="7.036" rx="1.819" transform="translate(0.117 0) rotate(0.956)" fill="#144db2"/>
          </g>
        </g>
        <g id="Group_570" data-name="Group 570" transform="translate(14.348 15.971)">
          <g id="Group_563" data-name="Group 563" transform="translate(0 59.484)">
            <rect id="Rectangle_37" data-name="Rectangle 37" width="22.389" height="4.286" rx="1.48" transform="matrix(1, 0.017, -0.017, 1, 0.072, 0)" fill="#d7f2ff"/>
          </g>
          <g id="Group_564" data-name="Group 564" transform="translate(1.115 29.153)">
            <rect id="Rectangle_38" data-name="Rectangle 38" width="22.389" height="4.286" rx="1.48" transform="translate(0.072 0) rotate(0.956)" fill="#d7f2ff"/>
          </g>
          <g id="Group_565" data-name="Group 565" transform="translate(1.548 3.153)">
            <rect id="Rectangle_39" data-name="Rectangle 39" width="22.389" height="4.286" rx="1.48" transform="matrix(1, 0.017, -0.017, 1, 0.072, 0)" fill="#d7f2ff"/>
          </g>
          <g id="Group_569" data-name="Group 569" transform="translate(38.976 0)">
            <g id="Group_566" data-name="Group 566" transform="translate(0 0)">
              <path id="Path_5395" data-name="Path 5395" d="M1.708,1.939,0,1.91.032,0l3.82.064L3.628,13.452l-2.112-.035Z" transform="translate(0 0.095)" fill="#98d7fe"/>
              <path id="Path_5396" data-name="Path 5396" d="M.025,11.885C3.231,9.165,6.6,6.8,6.639,4.169c.023-1.4-.567-2.361-2.128-2.386-1.469-.024-2.276.991-2.356,2.5L.135,4.244A4.062,4.062,0,0,1,4.522,0C7.241.046,8.756,1.706,8.716,4.112c-.054,3.251-3.4,5.675-5.583,7.6l5.822.1-.029,1.745L0,13.41Z" transform="translate(6.349 0)" fill="#98d7fe"/>
              <path id="Path_5397" data-name="Path 5397" d="M8.537.135l-.03,1.837-6.152-.1L2.294,5.524A3.586,3.586,0,0,1,5.087,4.358c3.287.055,4.257,2.514,4.223,4.534C9.266,11.555,7.708,13.55,4.6,13.5,1.85,13.452.277,11.9,0,9.8l2.038.034a2.5,2.5,0,0,0,2.613,1.917c1.8.03,2.629-1.187,2.656-2.84.029-1.745-.817-2.751-2.562-2.78A2.415,2.415,0,0,0,2.312,7.765L.328,7.732.457,0Z" transform="translate(17.426 0.356)" fill="#98d7fe"/>
            </g>
            <g id="Group_567" data-name="Group 567" transform="translate(9.25 29.581)">
              <path id="Path_5398" data-name="Path 5398" d="M2.2,10.029A2.2,2.2,0,0,0,4.6,11.943c1.67.028,2.534-1.079,2.592-4.494a3.643,3.643,0,0,1-3,1.254A4,4,0,0,1,0,4.353,4.115,4.115,0,0,1,4.519,0c3.452.058,4.57,2.446,4.5,6.835-.075,4.518-1.069,6.908-4.577,6.849A3.844,3.844,0,0,1,.274,10ZM7,4.469A2.388,2.388,0,0,0,4.545,1.747,2.407,2.407,0,0,0,2,4.331,2.394,2.394,0,0,0,4.587,6.946,2.278,2.278,0,0,0,7,4.469Z" transform="translate(0 0)" fill="#98d7fe"/>
              <path id="Path_5399" data-name="Path 5399" d="M1.708,1.938,0,1.909.032,0l3.82.064L3.629,13.452l-2.112-.036Z" transform="translate(11.111 0.424)" fill="#98d7fe"/>
            </g>
            <g id="Group_568" data-name="Group 568" transform="translate(2.831 53.875)">
              <path id="Path_5400" data-name="Path 5400" d="M7,3.471A2,2,0,0,0,4.807,1.745c-1.892-.032-2.886,1.238-3,4.745A3.864,3.864,0,0,1,5.214,4.856C7.62,4.9,9.3,6.541,9.254,9.333A4.135,4.135,0,0,1,4.79,13.722C.9,13.657-.067,10.9,0,6.643.074,2.456,1.511-.055,4.854,0A3.843,3.843,0,0,1,8.929,3.5Zm-5,5.7a2.539,2.539,0,0,0,2.709,2.8A2.4,2.4,0,0,0,7.251,9.391,2.421,2.421,0,0,0,4.726,6.612,2.5,2.5,0,0,0,2,9.174Z" transform="translate(0 0)" fill="#98d7fe"/>
              <path id="Path_5401" data-name="Path 5401" d="M.436,3.546C.469,1.6,1.947-.049,4.9,0S9.283,1.764,9.252,3.693a3.293,3.293,0,0,1-1.96,2.98,3.407,3.407,0,0,1,2.2,3.344c-.04,2.443-2.05,3.989-4.824,3.942C1.917,13.913-.04,12.3,0,9.857A3.384,3.384,0,0,1,2.3,6.589,3.187,3.187,0,0,1,.436,3.546ZM2,9.817c-.023,1.359.989,2.368,2.7,2.4A2.4,2.4,0,0,0,7.44,9.908C7.465,8.4,6.358,7.576,4.778,7.549,3.236,7.524,2.029,8.256,2,9.817Zm5.242-5.9c.023-1.378-.9-2.146-2.37-2.17-1.433-.024-2.4.694-2.423,2.108A2.161,2.161,0,0,0,4.805,5.97,2.191,2.191,0,0,0,7.245,3.917Z" transform="translate(11.5 0.284)" fill="#98d7fe"/>
            </g>
          </g>
        </g>
      </g>
      <g id="Group_572" data-name="Group 572" transform="translate(46.373 0.661)" opacity="0.3" style="mix-blend-mode: multiply;isolation: isolate">
        <path id="Rectangle_40" data-name="Rectangle 40" d="M0,0H31.566a12.69,12.69,0,0,1,12.69,12.69V102.4A13.209,13.209,0,0,1,31.047,115.6H0a0,0,0,0,1,0,0V0A0,0,0,0,1,0,0Z" transform="translate(1.929 0) rotate(0.956)" fill="#17cabe"/>
      </g>
    </g>
    <g id="Group_575" data-name="Group 575" transform="translate(0 93.367)">
      <path id="Path_5402" data-name="Path 5402" d="M106.5,44.393H44.146A11.959,11.959,0,0,1,32.2,32.448a8.636,8.636,0,0,0-8.626-8.627H1.853a1.853,1.853,0,0,1,0-3.707h21.72A12.347,12.347,0,0,1,35.907,32.448a8.248,8.248,0,0,0,8.24,8.239H106.5a6.511,6.511,0,0,0,6.5-6.5V9.893a6.193,6.193,0,0,0-6.186-6.187h-6.271a1.853,1.853,0,1,1,0-3.706h6.271a9.9,9.9,0,0,1,9.893,9.893v24.29A10.222,10.222,0,0,1,106.5,44.393Z" transform="translate(62.38 4.866)" fill="#144db2"/>
      <g id="Group_574" data-name="Group 574" transform="translate(0 0)">
        <path id="Path_5403" data-name="Path 5403" d="M2.516,0S-1.856,1.59.927,21.268,5.744,49.891,11.683,49.791C7.088,13.119,2.516,0,2.516,0Z" transform="translate(0 1.192)" fill="#144db2"/>
        <path id="Path_5404" data-name="Path 5404" d="M68.419,50.984H10.7a4.409,4.409,0,0,1-4.361-3.759L.049,5.059A4.409,4.409,0,0,1,4.41,0H62.131a4.409,4.409,0,0,1,4.361,3.759L72.78,45.924A4.409,4.409,0,0,1,68.419,50.984Z" transform="translate(0.986 0)" fill="#316cd5"/>
        <path id="Path_5405" data-name="Path 5405" d="M45.667,0H4.41A4.409,4.409,0,0,0,.049,5.059L6.337,47.225a4.4,4.4,0,0,0,.241.911A123.225,123.225,0,0,0,45.667,0Z" transform="translate(0.986 0)" fill="#3d7dd8"/>
        <path id="Path_5406" data-name="Path 5406" d="M66.74,4.685c.064-.07.118-.146.179-.218L66.253,0A4.717,4.717,0,0,1,65,3.313a4.97,4.97,0,0,1-3.681,1.619L4.471,5.257h-.03A5,5,0,0,1,0,2.574l.552,3.7a7.428,7.428,0,0,0,3.89,1.1h.043l56.852-.326A7.384,7.384,0,0,0,66.74,4.685Z" transform="translate(4.342 24.661)" fill="#144db2"/>
      </g>
    </g>
  </g>
</svg>
