<svg width="244" height="292" viewBox="0 0 244 292" fill="none" xmlns="http://www.w3.org/2000/svg">
<rect width="243.71" height="291.538" fill="#FFF97D"/>
<g opacity="0.1">
<path d="M121.969 89.4551C73.0073 89.4551 33.1758 129.287 33.1758 178.248C33.1758 227.21 73.0073 267.042 121.969 267.042C170.931 267.042 210.763 227.21 210.763 178.248C210.763 129.287 170.931 89.4551 121.969 89.4551ZM121.969 222.683C97.4678 222.683 77.5317 202.75 77.5317 178.248C77.5317 153.747 97.4647 133.811 121.969 133.811C146.474 133.811 166.403 153.744 166.403 178.248C166.403 202.753 146.47 222.683 121.969 222.683Z" fill="black"/>
<path d="M166.418 23.7793H77.5242C65.2748 23.7793 55.3447 33.7094 55.3447 45.9588C55.3447 58.2082 65.2748 68.1383 77.5242 68.1383H166.418C178.667 68.1383 188.598 58.2082 188.598 45.9588C188.598 33.7094 178.667 23.7793 166.418 23.7793Z" fill="black"/>
</g>
<path d="M12.272 58.626C11.864 58.626 11.498 58.554 11.174 58.41C10.862 58.254 10.574 58.086 10.31 57.906C10.058 57.714 9.818 57.546 9.59 57.402C9.374 57.246 9.158 57.168 8.942 57.168C8.642 57.168 8.402 57.282 8.222 57.51C8.042 57.726 7.94 58.032 7.916 58.428H5.81C5.834 57.24 6.11 56.328 6.638 55.692C7.178 55.056 7.862 54.738 8.69 54.738C9.11 54.738 9.476 54.816 9.788 54.972C10.112 55.116 10.4 55.284 10.652 55.476C10.916 55.656 11.156 55.824 11.372 55.98C11.588 56.124 11.81 56.196 12.038 56.196C12.338 56.196 12.578 56.082 12.758 55.854C12.938 55.626 13.034 55.314 13.046 54.918H15.152C15.14 56.106 14.864 57.024 14.324 57.672C13.796 58.308 13.112 58.626 12.272 58.626ZM16.1923 63V60.768L20.9083 56.358C21.2443 56.046 21.4903 55.77 21.6463 55.53C21.8143 55.29 21.9223 55.074 21.9703 54.882C22.0303 54.678 22.0603 54.492 22.0603 54.324C22.0603 53.916 21.9223 53.598 21.6463 53.37C21.3823 53.142 20.9803 53.028 20.4403 53.028C19.9843 53.028 19.5583 53.13 19.1623 53.334C18.7663 53.538 18.4423 53.844 18.1903 54.252L15.5443 52.776C16.0123 51.984 16.6903 51.348 17.5783 50.868C18.4663 50.388 19.5283 50.148 20.7643 50.148C21.7363 50.148 22.5883 50.304 23.3203 50.616C24.0523 50.928 24.6223 51.372 25.0303 51.948C25.4503 52.524 25.6603 53.202 25.6603 53.982C25.6603 54.39 25.6063 54.798 25.4983 55.206C25.3903 55.602 25.1803 56.028 24.8683 56.484C24.5683 56.928 24.1183 57.426 23.5183 57.978L19.7743 61.434L19.1803 60.174H26.0023V63H16.1923ZM32.6017 63.252C31.5217 63.252 30.5617 62.994 29.7217 62.478C28.8937 61.962 28.2397 61.218 27.7597 60.246C27.2797 59.274 27.0397 58.092 27.0397 56.7C27.0397 55.308 27.2797 54.126 27.7597 53.154C28.2397 52.182 28.8937 51.438 29.7217 50.922C30.5617 50.406 31.5217 50.148 32.6017 50.148C33.6697 50.148 34.6177 50.406 35.4457 50.922C36.2857 51.438 36.9457 52.182 37.4257 53.154C37.9057 54.126 38.1457 55.308 38.1457 56.7C38.1457 58.092 37.9057 59.274 37.4257 60.246C36.9457 61.218 36.2857 61.962 35.4457 62.478C34.6177 62.994 33.6697 63.252 32.6017 63.252ZM32.6017 60.336C32.9857 60.336 33.3217 60.216 33.6097 59.976C33.9097 59.736 34.1437 59.352 34.3117 58.824C34.4797 58.284 34.5637 57.576 34.5637 56.7C34.5637 55.812 34.4797 55.104 34.3117 54.576C34.1437 54.048 33.9097 53.664 33.6097 53.424C33.3217 53.184 32.9857 53.064 32.6017 53.064C32.2177 53.064 31.8757 53.184 31.5757 53.424C31.2877 53.664 31.0537 54.048 30.8737 54.576C30.7057 55.104 30.6217 55.812 30.6217 56.7C30.6217 57.576 30.7057 58.284 30.8737 58.824C31.0537 59.352 31.2877 59.736 31.5757 59.976C31.8757 60.216 32.2177 60.336 32.6017 60.336ZM39.167 63V60.768L43.883 56.358C44.219 56.046 44.465 55.77 44.621 55.53C44.789 55.29 44.897 55.074 44.945 54.882C45.005 54.678 45.035 54.492 45.035 54.324C45.035 53.916 44.897 53.598 44.621 53.37C44.357 53.142 43.955 53.028 43.415 53.028C42.959 53.028 42.533 53.13 42.137 53.334C41.741 53.538 41.417 53.844 41.165 54.252L38.519 52.776C38.987 51.984 39.665 51.348 40.553 50.868C41.441 50.388 42.503 50.148 43.739 50.148C44.711 50.148 45.563 50.304 46.295 50.616C47.027 50.928 47.597 51.372 48.005 51.948C48.425 52.524 48.635 53.202 48.635 53.982C48.635 54.39 48.581 54.798 48.473 55.206C48.365 55.602 48.155 56.028 47.843 56.484C47.543 56.928 47.093 57.426 46.493 57.978L42.749 61.434L42.155 60.174H48.977V63H39.167ZM54.4243 63.252C53.5603 63.252 52.6903 63.144 51.8143 62.928C50.9383 62.712 50.1823 62.406 49.5463 62.01L50.8243 59.328C51.3403 59.664 51.8983 59.922 52.4983 60.102C53.1103 60.282 53.7163 60.372 54.3163 60.372C54.9163 60.372 55.4023 60.258 55.7743 60.03C56.1463 59.79 56.3323 59.46 56.3323 59.04C56.3323 58.788 56.2603 58.566 56.1163 58.374C55.9723 58.17 55.7263 58.02 55.3783 57.924C55.0303 57.816 54.5323 57.762 53.8843 57.762H50.4643L51.0943 50.4H59.1223V53.154H52.3543L54.1723 51.588L53.7583 56.556L51.9403 54.99H54.7303C55.9783 54.99 56.9803 55.17 57.7363 55.53C58.4923 55.878 59.0443 56.352 59.3923 56.952C59.7403 57.54 59.9143 58.206 59.9143 58.95C59.9143 59.694 59.7163 60.396 59.3203 61.056C58.9363 61.704 58.3423 62.232 57.5383 62.64C56.7343 63.048 55.6963 63.252 54.4243 63.252ZM66.4382 59.184V56.556H71.6942V59.184H66.4382ZM79.051 63V50.4H82.615V63H79.051ZM91.3426 53.082C92.0986 53.082 92.7826 53.238 93.3946 53.55C94.0066 53.85 94.4866 54.318 94.8346 54.954C95.1946 55.59 95.3746 56.412 95.3746 57.42V63H91.9546V57.978C91.9546 57.282 91.8106 56.778 91.5226 56.466C91.2466 56.142 90.8566 55.98 90.3526 55.98C89.9926 55.98 89.6626 56.064 89.3626 56.232C89.0626 56.388 88.8286 56.634 88.6606 56.97C88.4926 57.306 88.4086 57.744 88.4086 58.284V63H84.9886V53.244H88.2466V56.016L87.6166 55.206C87.9886 54.498 88.4986 53.97 89.1466 53.622C89.7946 53.262 90.5266 53.082 91.3426 53.082ZM97.9178 63V53.352C97.9178 52.176 98.2658 51.24 98.9618 50.544C99.6698 49.836 100.678 49.482 101.986 49.482C102.406 49.482 102.82 49.524 103.228 49.608C103.636 49.692 103.978 49.818 104.254 49.986L103.408 52.398C103.264 52.314 103.102 52.248 102.922 52.2C102.742 52.14 102.562 52.11 102.382 52.11C102.022 52.11 101.74 52.218 101.536 52.434C101.344 52.638 101.248 52.956 101.248 53.388V54.09L101.338 55.512V63H97.9178ZM96.4958 56.16V53.604H103.57V56.16H96.4958ZM105.136 63V53.244H108.556V63H105.136ZM106.846 52.164C106.222 52.164 105.718 51.99 105.334 51.642C104.95 51.294 104.758 50.862 104.758 50.346C104.758 49.83 104.95 49.398 105.334 49.05C105.718 48.702 106.222 48.528 106.846 48.528C107.47 48.528 107.974 48.696 108.358 49.032C108.742 49.356 108.934 49.776 108.934 50.292C108.934 50.832 108.742 51.282 108.358 51.642C107.986 51.99 107.482 52.164 106.846 52.164ZM117.13 53.082C117.886 53.082 118.57 53.238 119.182 53.55C119.794 53.85 120.274 54.318 120.622 54.954C120.982 55.59 121.162 56.412 121.162 57.42V63H117.742V57.978C117.742 57.282 117.598 56.778 117.31 56.466C117.034 56.142 116.644 55.98 116.14 55.98C115.78 55.98 115.45 56.064 115.15 56.232C114.85 56.388 114.616 56.634 114.448 56.97C114.28 57.306 114.196 57.744 114.196 58.284V63H110.776V53.244H114.034V56.016L113.404 55.206C113.776 54.498 114.286 53.97 114.934 53.622C115.582 53.262 116.314 53.082 117.13 53.082ZM123.309 63V53.244H126.729V63H123.309ZM125.019 52.164C124.395 52.164 123.891 51.99 123.507 51.642C123.123 51.294 122.931 50.862 122.931 50.346C122.931 49.83 123.123 49.398 123.507 49.05C123.891 48.702 124.395 48.528 125.019 48.528C125.643 48.528 126.147 48.696 126.531 49.032C126.915 49.356 127.107 49.776 127.107 50.292C127.107 50.832 126.915 51.282 126.531 51.642C126.159 51.99 125.655 52.164 125.019 52.164ZM133.308 63.162C132.06 63.162 131.088 62.856 130.392 62.244C129.696 61.62 129.348 60.684 129.348 59.436V51.066H132.768V59.4C132.768 59.748 132.864 60.024 133.056 60.228C133.248 60.42 133.494 60.516 133.794 60.516C134.202 60.516 134.55 60.414 134.838 60.21L135.684 62.604C135.396 62.796 135.042 62.934 134.622 63.018C134.202 63.114 133.764 63.162 133.308 63.162ZM127.926 56.16V53.604H135V56.16H127.926ZM138.501 66.654C137.985 66.654 137.463 66.57 136.935 66.402C136.419 66.246 135.999 66.036 135.675 65.772L136.863 63.378C137.067 63.558 137.301 63.696 137.565 63.792C137.841 63.9 138.111 63.954 138.375 63.954C138.747 63.954 139.041 63.87 139.257 63.702C139.473 63.534 139.659 63.27 139.815 62.91L140.265 61.776L140.535 61.434L143.847 53.244H147.105L142.893 63.396C142.557 64.236 142.167 64.89 141.723 65.358C141.291 65.838 140.805 66.174 140.265 66.366C139.737 66.558 139.149 66.654 138.501 66.654ZM139.833 63.414L135.531 53.244H139.041L142.209 61.128L139.833 63.414Z" fill="black"/>
<path d="M240.856 277L240.856 289H227L240.856 277Z" fill="#00B2ED"/>
<path d="M52.1777 206.278C33.3301 206.278 18 221.608 18 240.456C18 259.304 33.3301 274.634 52.1777 274.634C71.0253 274.634 86.3554 259.304 86.3554 240.456C86.3554 221.608 71.0253 206.278 52.1777 206.278ZM52.1777 257.56C42.7438 257.56 35.0737 249.89 35.0737 240.456C35.0737 231.022 42.7438 223.352 52.1777 223.352C61.6116 223.352 69.2816 231.022 69.2816 240.456C69.2816 249.89 61.6116 257.56 52.1777 257.56Z" fill="#14B1E7"/>
<path d="M69.292 181H35.074C30.3592 181 26.5371 184.822 26.5371 189.537C26.5371 194.252 30.3592 198.074 35.074 198.074H69.292C74.0067 198.074 77.8288 194.252 77.8288 189.537C77.8288 184.822 74.0067 181 69.292 181Z" fill="#14B1E7"/>
<path d="M98.8581 238.268H102.688V221.406H109.088V217.798H92.458V221.406H98.8581V238.268Z" fill="#231F20"/>
<path d="M122.245 234.005L123.545 238.268H127.486L121.288 217.788H115.563L109.364 238.268H113.305L114.585 234.005H122.225H122.245ZM115.694 230.397L118.395 221.427L121.136 230.397H115.684H115.694Z" fill="#231F20"/>
<path d="M142.886 234.66H134.147V217.798H130.317V238.268H142.886V234.66Z" fill="#231F20"/>
<path d="M149.112 228.945L157.195 238.268H162.043L153.022 227.887L161.509 217.798H156.832L149.112 227.232V217.798H145.271V238.268H149.112V228.945Z" fill="#231F20"/>
<path d="M98.9388 242.441L92.7402 262.922H96.6912L97.9712 258.658H105.611L106.911 262.922H110.852L104.654 242.441H98.9287H98.9388ZM99.0597 255.04L101.761 246.07L104.502 255.04H99.0497H99.0597Z" fill="#231F20"/>
<path d="M125.678 252.147C126.131 251.875 126.524 251.512 126.837 251.049C127.351 250.293 127.603 249.335 127.603 248.186C127.603 247.289 127.391 246.392 126.978 245.515C126.564 244.639 125.909 243.903 125.022 243.318C124.125 242.734 122.956 242.441 121.515 242.441H113.401V262.922H122.392C123.773 262.922 124.922 262.66 125.829 262.136C126.736 261.612 127.421 260.886 127.865 259.949C128.308 259.021 128.53 257.943 128.53 256.723C128.53 255.584 128.217 254.556 127.582 253.639C127.119 252.964 126.484 252.47 125.678 252.147ZM117.292 246.05H121.465C122.2 246.05 122.755 246.261 123.138 246.685C123.521 247.108 123.712 247.642 123.712 248.267C123.712 248.771 123.611 249.184 123.42 249.497C123.218 249.819 122.956 250.051 122.614 250.202C122.271 250.353 121.888 250.434 121.454 250.434H117.282V246.05H117.292ZM124.327 258.003C124.095 258.406 123.783 258.719 123.38 258.941C122.976 259.162 122.513 259.273 121.999 259.273H117.292V254.042H121.999C122.593 254.042 123.087 254.153 123.49 254.375C123.894 254.597 124.186 254.899 124.387 255.282C124.589 255.665 124.68 256.088 124.68 256.572C124.68 257.126 124.569 257.6 124.337 258.003H124.327Z" fill="#231F20"/>
<path d="M145.314 243.348C143.842 242.461 142.088 242.008 140.063 242.008C138.037 242.008 136.283 242.451 134.811 243.348C133.34 244.235 132.211 245.485 131.415 247.088C130.619 248.69 130.226 250.555 130.226 252.671C130.226 254.788 130.619 256.663 131.415 258.265C132.211 259.868 133.34 261.117 134.811 262.004C136.283 262.891 138.037 263.345 140.063 263.345C142.088 263.345 143.842 262.901 145.314 262.004C146.785 261.117 147.914 259.868 148.71 258.265C149.507 256.663 149.9 254.798 149.9 252.671C149.9 250.545 149.507 248.68 148.71 247.088C147.914 245.485 146.785 244.235 145.314 243.348ZM145.203 256.411C144.78 257.469 144.135 258.295 143.278 258.87C142.421 259.444 141.353 259.727 140.063 259.706C138.773 259.686 137.704 259.384 136.847 258.809C135.991 258.235 135.356 257.419 134.922 256.38C134.499 255.342 134.277 254.103 134.277 252.681C134.277 251.26 134.489 250.021 134.922 248.952C135.346 247.894 135.991 247.067 136.847 246.493C137.704 245.918 138.773 245.636 140.063 245.656C141.353 245.677 142.421 245.979 143.278 246.553C144.135 247.128 144.769 247.944 145.203 248.982C145.626 250.021 145.848 251.26 145.848 252.681C145.848 254.103 145.636 255.342 145.203 256.411Z" fill="#231F20"/>
<path d="M165.351 255.211C165.351 255.877 165.24 256.481 165.018 257.036C164.796 257.59 164.494 258.064 164.091 258.457C163.698 258.85 163.234 259.162 162.7 259.384C162.166 259.606 161.591 259.707 160.976 259.707C160.362 259.707 159.807 259.596 159.283 259.384C158.749 259.172 158.285 258.86 157.892 258.467C157.489 258.064 157.177 257.59 156.955 257.046C156.733 256.491 156.612 255.887 156.612 255.211V242.441L152.722 242.472V255.242C152.722 256.885 153.064 258.306 153.76 259.525C154.455 260.735 155.423 261.682 156.663 262.347C157.902 263.013 159.344 263.345 160.976 263.345C162.609 263.345 164.05 263.013 165.29 262.347C166.53 261.682 167.497 260.735 168.193 259.525C168.888 258.316 169.231 256.885 169.231 255.242V242.441H165.341V255.211H165.351Z" fill="#231F20"/>
<path d="M171.49 246.05H177.89V262.922H181.72V246.05H188.12V242.441H171.49V246.05Z" fill="#231F20"/>
<path d="M199.277 242.441H195.447V262.922H199.277V242.441Z" fill="#231F20"/>
<path d="M201.814 246.05H208.215V262.922H212.045V246.05H218.445V242.441H201.814V246.05Z" fill="#231F20"/>
<path d="M222.338 259.052H218.508V262.922H222.338V259.052Z" fill="#231F20"/>
</svg>
