<svg xmlns="http://www.w3.org/2000/svg" width="213.484" height="221.368" viewBox="0 0 213.484 221.368">
  <g id="Group_1749" data-name="Group 1749" transform="matrix(0.966, -0.259, 0.259, 0.966, -27.586, 44.804)">
    <g id="Group_1318" data-name="Group 1318" transform="translate(42.497 0)">
      <g id="Group_1317" data-name="Group 1317" transform="translate(0 0)">
        <path id="Path_6010" data-name="Path 6010" d="M44.312,10.683a1.9,1.9,0,0,1-1.894,1.9H1.894A1.9,1.9,0,0,1,0,10.683a1.9,1.9,0,0,1,1.894-1.9H3.809a4.94,4.94,0,0,1,8.04-1.531,6.863,6.863,0,0,1,7.906-3.089A7.844,7.844,0,0,1,34.243,5.75,4.941,4.941,0,0,1,41.2,8.787h1.22A1.9,1.9,0,0,1,44.312,10.683Z" fill="#e3d7d5"/>
      </g>
    </g>
    <g id="Group_1320" data-name="Group 1320" transform="translate(54.948 45.604)">
      <g id="Group_1319" data-name="Group 1319">
        <path id="Path_6011" data-name="Path 6011" d="M44.311,10.683a1.9,1.9,0,0,1-1.893,1.9H1.893A1.893,1.893,0,0,1,.557,9.345a1.874,1.874,0,0,1,1.336-.557H3.809a4.94,4.94,0,0,1,8.04-1.531,6.861,6.861,0,0,1,7.906-3.089A7.843,7.843,0,0,1,34.243,5.751,4.94,4.94,0,0,1,41.2,8.788h1.22A1.9,1.9,0,0,1,44.311,10.683Z" fill="#e3d7d5"/>
      </g>
    </g>
    <g id="Group_1322" data-name="Group 1322" transform="translate(99.891 0.581)">
      <g id="Group_1321" data-name="Group 1321" transform="translate(0 0)">
        <path id="Path_6012" data-name="Path 6012" d="M28.6,20.535l.91-4.638-4.346-.853a10.608,10.608,0,0,0-.575-3.395L28.17,9.244,25.534,5.32l-3.427,2.3a10.6,10.6,0,0,0-3.518-2.367L19.443.91,14.8,0l-.879,4.479a10.537,10.537,0,0,0-2.822.549L8.7,1.447,4.774,4.083l2.3,3.427A10.6,10.6,0,0,0,4.71,11.028l-3.8-.746L0,14.92l3.933.772a10.54,10.54,0,0,0,.835,3.579l-3.428,2.3L3.976,25.5l3.581-2.406A10.586,10.586,0,0,0,11.013,25.1l-.859,4.372,4.638.91.931-4.74a10.507,10.507,0,0,0,3-.792l2.3,3.428,3.924-2.636L22.545,22.06a10.555,10.555,0,0,0,1.576-2.405ZM16.951,18.678a4.332,4.332,0,1,1,1.18-6.012A4.337,4.337,0,0,1,16.951,18.678Z" fill="#e3d7d5"/>
      </g>
    </g>
    <g id="Group_1324" data-name="Group 1324" transform="translate(131.96 28.912)">
      <g id="Group_1323" data-name="Group 1323" transform="translate(0 0)">
        <path id="Path_6013" data-name="Path 6013" d="M15.3,10.988l.487-2.482-2.325-.456a5.676,5.676,0,0,0-.307-1.816l1.916-1.287-1.41-2.1L11.828,4.079A5.659,5.659,0,0,0,9.946,2.813L10.4.487,7.921,0,7.45,2.4a5.637,5.637,0,0,0-1.51.294L4.654.774l-2.1,1.41L3.786,4.018A5.66,5.66,0,0,0,2.52,5.9L.487,5.5,0,7.983,2.1,8.4a5.643,5.643,0,0,0,.447,1.915L.717,11.543l1.41,2.1,1.916-1.287a5.658,5.658,0,0,0,1.848,1.074l-.46,2.34,2.482.487.5-2.536a5.619,5.619,0,0,0,1.606-.424L11.25,15.13l2.1-1.41L12.062,11.8a5.655,5.655,0,0,0,.843-1.287ZM9.07,9.994A2.318,2.318,0,1,1,9.7,6.777,2.321,2.321,0,0,1,9.07,9.994Z" fill="#e3d7d5"/>
      </g>
    </g>
    <g id="Group_1375" data-name="Group 1375" transform="translate(141.894 5.057)">
      <g id="Group_1374" data-name="Group 1374" transform="translate(0 0)">
        <g id="Group_1326" data-name="Group 1326">
          <g id="Group_1325" data-name="Group 1325">
            <path id="Path_6014" data-name="Path 6014" d="M50.09,2.471V99.787a3.313,3.313,0,0,1-3.313,3.313H3.313A3.313,3.313,0,0,1,0,99.787V2.471A2.471,2.471,0,0,1,2.471,0H47.619A2.471,2.471,0,0,1,50.09,2.471Z" fill="#fff"/>
          </g>
        </g>
        <g id="Group_1339" data-name="Group 1339" transform="translate(7.261 52.693)">
          <g id="Group_1328" data-name="Group 1328" transform="translate(0 0)" opacity="0.3">
            <g id="Group_1327" data-name="Group 1327">
              <path id="Path_6015" data-name="Path 6015" d="M34.467,2.2H1.1A1.1,1.1,0,0,1,0,1.1H0A1.1,1.1,0,0,1,1.1,0H34.467a1.1,1.1,0,0,1,1.1,1.1h0A1.1,1.1,0,0,1,34.467,2.2Z" fill="#fc8068"/>
            </g>
          </g>
          <g id="Group_1330" data-name="Group 1330" transform="translate(0 6.979)" opacity="0.3">
            <g id="Group_1329" data-name="Group 1329" transform="translate(0 0)">
              <path id="Path_6016" data-name="Path 6016" d="M34.467,2.2H1.1A1.1,1.1,0,0,1,0,1.1H0A1.1,1.1,0,0,1,1.1,0H34.467a1.1,1.1,0,0,1,1.1,1.1h0A1.1,1.1,0,0,1,34.467,2.2Z" fill="#fc8068"/>
            </g>
          </g>
          <g id="Group_1332" data-name="Group 1332" transform="translate(0 13.958)" opacity="0.3">
            <g id="Group_1331" data-name="Group 1331" transform="translate(0 0)">
              <path id="Path_6017" data-name="Path 6017" d="M34.467,2.2H1.1A1.1,1.1,0,0,1,0,1.1H0A1.1,1.1,0,0,1,1.1,0H34.467a1.1,1.1,0,0,1,1.1,1.1h0A1.1,1.1,0,0,1,34.467,2.2Z" fill="#fc8068"/>
            </g>
          </g>
          <g id="Group_1334" data-name="Group 1334" transform="translate(0 20.938)" opacity="0.3">
            <g id="Group_1333" data-name="Group 1333" transform="translate(0 0)">
              <path id="Path_6018" data-name="Path 6018" d="M34.467,2.2H1.1A1.1,1.1,0,0,1,0,1.1H0A1.1,1.1,0,0,1,1.1,0H34.467a1.1,1.1,0,0,1,1.1,1.1h0A1.1,1.1,0,0,1,34.467,2.2Z" fill="#fc8068"/>
            </g>
          </g>
          <g id="Group_1336" data-name="Group 1336" transform="translate(0 27.917)" opacity="0.3">
            <g id="Group_1335" data-name="Group 1335" transform="translate(0 0)">
              <path id="Path_6019" data-name="Path 6019" d="M34.467,2.2H1.1A1.1,1.1,0,0,1,0,1.1H0A1.1,1.1,0,0,1,1.1,0H34.467a1.1,1.1,0,0,1,1.1,1.1h0A1.1,1.1,0,0,1,34.467,2.2Z" fill="#fc8068"/>
            </g>
          </g>
          <g id="Group_1338" data-name="Group 1338" transform="translate(0 34.897)" opacity="0.3">
            <g id="Group_1337" data-name="Group 1337" transform="translate(0 0)">
              <path id="Path_6020" data-name="Path 6020" d="M34.467,2.2H1.1A1.1,1.1,0,0,1,0,1.1H0A1.1,1.1,0,0,1,1.1,0H34.467a1.1,1.1,0,0,1,1.1,1.1h0A1.1,1.1,0,0,1,34.467,2.2Z" fill="#fc8068"/>
            </g>
          </g>
        </g>
        <g id="Group_1341" data-name="Group 1341">
          <g id="Group_1340" data-name="Group 1340">
            <path id="Path_6021" data-name="Path 6021" d="M50.09,2.471V9.322H0V2.471A2.471,2.471,0,0,1,2.471,0H47.619A2.471,2.471,0,0,1,50.09,2.471Z" fill="#fc8068"/>
          </g>
        </g>
        <g id="Group_1348" data-name="Group 1348" transform="translate(34.703 2.583)">
          <g id="Group_1343" data-name="Group 1343" transform="translate(0 0)">
            <g id="Group_1342" data-name="Group 1342">
              <path id="Path_6022" data-name="Path 6022" d="M3.257,1.628A1.628,1.628,0,1,1,1.628,0,1.628,1.628,0,0,1,3.257,1.628Z" fill="#ff5325"/>
            </g>
          </g>
          <g id="Group_1345" data-name="Group 1345" transform="translate(5.278 0)">
            <g id="Group_1344" data-name="Group 1344" transform="translate(0)">
              <path id="Path_6023" data-name="Path 6023" d="M3.257,1.628A1.629,1.629,0,1,1,1.629,0,1.628,1.628,0,0,1,3.257,1.628Z" fill="#e3390f"/>
            </g>
          </g>
          <g id="Group_1347" data-name="Group 1347" transform="translate(10.332 0)">
            <g id="Group_1346" data-name="Group 1346" transform="translate(0)">
              <path id="Path_6024" data-name="Path 6024" d="M3.257,1.628A1.629,1.629,0,1,1,1.629,0,1.628,1.628,0,0,1,3.257,1.628Z" fill="#002029"/>
            </g>
          </g>
        </g>
        <g id="Group_1349" data-name="Group 1349" transform="translate(14.275 26.668)">
          <rect id="Rectangle_186" data-name="Rectangle 186" width="21.536" height="7.044" rx="3.522" fill="#e3390f"/>
        </g>
        <g id="Group_1373" data-name="Group 1373" transform="translate(5.545 17.14)">
          <g id="Group_1350" data-name="Group 1350" transform="translate(4.171 1.578)">
            <rect id="Rectangle_187" data-name="Rectangle 187" width="1.396" height="9.762" fill="#0c4e73"/>
          </g>
          <g id="Group_1351" data-name="Group 1351" transform="translate(3.29 0)">
            <path id="Path_6025" data-name="Path 6025" d="M3.157,1.578A1.578,1.578,0,1,1,1.579,0,1.578,1.578,0,0,1,3.157,1.578Z" fill="#173953"/>
          </g>
          <g id="Group_1352" data-name="Group 1352" transform="translate(4.171 8.597)">
            <path id="Path_6026" data-name="Path 6026" d="M1.4,0V1.03c-.353.1-.922.272-1.4.415V.328S.949.075,1.4,0Z" fill="#173953"/>
          </g>
          <g id="Group_1353" data-name="Group 1353" transform="translate(0 12.553)">
            <path id="Path_6027" data-name="Path 6027" d="M3.157,1.579A1.581,1.581,0,0,1,1.947,3.114a1.558,1.558,0,0,1-.368.044,1.608,1.608,0,0,1-.287-.026A1.579,1.579,0,0,1,1.271.03,1.6,1.6,0,0,1,1.579,0a1.559,1.559,0,0,1,.368.044A1.579,1.579,0,0,1,3.157,1.579Z" fill="#173953"/>
          </g>
          <g id="Group_1354" data-name="Group 1354" transform="translate(1.303 9.528)">
            <path id="Path_6028" data-name="Path 6028" d="M13.119,4.6a4.617,4.617,0,0,1-4.6,4.6H4.6a4.509,4.509,0,0,1-.8-.071A4.605,4.605,0,0,1,3.661.1,4.531,4.531,0,0,1,4.6,0H8.515A4.617,4.617,0,0,1,13.119,4.6Z" transform="translate(0 0)" fill="#0c4e73"/>
          </g>
          <g id="Group_1355" data-name="Group 1355" transform="translate(3.541 9.528)">
            <path id="Path_6029" data-name="Path 6029" d="M3.931,8.981c-.007.08-.015.156-.025.226H2.366a4.51,4.51,0,0,1-.8-.071A9.837,9.837,0,0,1,.026,4.6,5.84,5.84,0,0,1,1.423.1,4.53,4.53,0,0,1,2.366,0H3.613C4.63,1.872,4.069,7.383,3.931,8.981Z" transform="translate(0 0)" fill="#173953"/>
          </g>
          <g id="Group_1356" data-name="Group 1356" transform="translate(33.905 1.578)">
            <rect id="Rectangle_188" data-name="Rectangle 188" width="1.396" height="9.762" fill="#0c4e73"/>
          </g>
          <g id="Group_1357" data-name="Group 1357" transform="translate(33.026 0)">
            <path id="Path_6030" data-name="Path 6030" d="M0,1.578A1.578,1.578,0,1,0,1.579,0,1.579,1.579,0,0,0,0,1.578Z" fill="#173953"/>
          </g>
          <g id="Group_1358" data-name="Group 1358" transform="translate(33.906 8.597)">
            <path id="Path_6031" data-name="Path 6031" d="M0,0V1.03c.353.1.922.272,1.4.415V.328S.447.075,0,0Z" fill="#173953"/>
          </g>
          <g id="Group_1359" data-name="Group 1359" transform="translate(36.316 12.554)">
            <path id="Path_6032" data-name="Path 6032" d="M0,1.579A1.578,1.578,0,1,0,1.578,0,1.578,1.578,0,0,0,0,1.579Z" fill="#173953"/>
          </g>
          <g id="Group_1360" data-name="Group 1360" transform="translate(25.051 9.528)">
            <path id="Path_6033" data-name="Path 6033" d="M0,4.6a4.617,4.617,0,0,0,4.6,4.6H8.515a4.509,4.509,0,0,0,.8-.071A4.605,4.605,0,0,0,9.459.1,4.534,4.534,0,0,0,8.515,0H4.6A4.617,4.617,0,0,0,0,4.6Z" transform="translate(0 0)" fill="#0c4e73"/>
          </g>
          <g id="Group_1361" data-name="Group 1361" transform="translate(31.722 9.528)">
            <path id="Path_6034" data-name="Path 6034" d="M.278,8.981c.008.08.015.156.026.226h1.54a4.51,4.51,0,0,0,.8-.071A9.833,9.833,0,0,0,4.184,4.6,5.844,5.844,0,0,0,2.787.1,4.533,4.533,0,0,0,1.844,0H.6C-.42,1.872.141,7.383.278,8.981Z" transform="translate(0 0)" fill="#173953"/>
          </g>
          <g id="Group_1362" data-name="Group 1362" transform="translate(4.868 4.743)">
            <path id="Path_6035" data-name="Path 6035" d="M29.629,9.028a8.93,8.93,0,0,1-.211,1.94l0,0A9.064,9.064,0,0,1,20.6,18.058H9.029a9.066,9.066,0,0,1-8.818-7.09,8.981,8.981,0,0,1,.906-6.273A9.067,9.067,0,0,1,9.029,0H20.6a9.045,9.045,0,0,1,7.843,4.572l0,0A8.951,8.951,0,0,1,29.629,9.028Z" fill="#ff5325"/>
          </g>
          <g id="Group_1363" data-name="Group 1363" transform="translate(9.636 10.433)">
            <path id="Path_6036" data-name="Path 6036" d="M2.616,5.233A2.617,2.617,0,0,1,2.616,0H17.109a2.617,2.617,0,0,1,0,5.233Z" fill="#173953"/>
          </g>
          <g id="Group_1366" data-name="Group 1366" transform="translate(11.722 11.472)">
            <g id="Group_1364" data-name="Group 1364" transform="translate(0 0)">
              <path id="Path_6037" data-name="Path 6037" d="M2.695,2.694a1.578,1.578,0,1,1,0-2.231A1.578,1.578,0,0,1,2.695,2.694Z" fill="#fff"/>
            </g>
            <g id="Group_1365" data-name="Group 1365" transform="translate(0.462 0.463)">
              <path id="Path_6038" data-name="Path 6038" d="M2.232,2.231A1.578,1.578,0,0,1,0,2.232L2.232,0A1.578,1.578,0,0,1,2.232,2.231Z" fill="#dfdfdf"/>
            </g>
          </g>
          <g id="Group_1369" data-name="Group 1369" transform="translate(24.488 11.472)">
            <g id="Group_1367" data-name="Group 1367" transform="translate(0 0)">
              <path id="Path_6039" data-name="Path 6039" d="M2.695,2.694a1.578,1.578,0,1,1,0-2.231A1.578,1.578,0,0,1,2.695,2.694Z" fill="#fff"/>
            </g>
            <g id="Group_1368" data-name="Group 1368" transform="translate(0.463 0.463)">
              <path id="Path_6040" data-name="Path 6040" d="M2.232,2.231A1.577,1.577,0,0,1,0,2.232L2.232,0A1.577,1.577,0,0,1,2.232,2.231Z" fill="#dfdfdf"/>
            </g>
          </g>
          <g id="Group_1370" data-name="Group 1370" transform="translate(13.136 17.604)">
            <rect id="Rectangle_189" data-name="Rectangle 189" width="12.356" height="2.868" rx="1.434" fill="#e3390f"/>
          </g>
          <g id="Group_1371" data-name="Group 1371" transform="translate(14.14 18.283)">
            <path id="Path_6041" data-name="Path 6041" d="M10.349.755a.789.789,0,0,1-.012.132.757.757,0,0,1-.743.622H.755A.758.758,0,0,1,.012.887.785.785,0,0,1,0,.755.758.758,0,0,1,.755,0H9.594A.757.757,0,0,1,10.349.755Z" transform="translate(0 0)" fill="#dfdfdf"/>
          </g>
          <g id="Group_1372" data-name="Group 1372" transform="translate(17.165 22.801)">
            <path id="Rectangle_190" data-name="Rectangle 190" d="M0,0H5.037a0,0,0,0,1,0,0V1.472A2.518,2.518,0,0,1,2.518,3.99h0A2.518,2.518,0,0,1,0,1.472V0A0,0,0,0,1,0,0Z" fill="#173953"/>
          </g>
        </g>
      </g>
    </g>
    <g id="Group_1425" data-name="Group 1425" transform="translate(33.065 12.47)">
      <g id="Group_1378" data-name="Group 1378" transform="translate(0 4.892)">
        <g id="Group_1377" data-name="Group 1377">
          <g id="Group_1376" data-name="Group 1376">
            <path id="Path_6042" data-name="Path 6042" d="M0,0V57.184a5.567,5.567,0,0,0,5.566,5.567H50.853a5.567,5.567,0,0,0,5.567-5.567V0Z" fill="#fff"/>
          </g>
        </g>
      </g>
      <g id="Group_1392" data-name="Group 1392" transform="translate(0 0)">
        <g id="Group_1381" data-name="Group 1381">
          <g id="Group_1380" data-name="Group 1380">
            <g id="Group_1379" data-name="Group 1379">
              <path id="Path_6043" data-name="Path 6043" d="M56.42,2.783V10.5H0V2.783A2.783,2.783,0,0,1,2.783,0H53.637A2.783,2.783,0,0,1,56.42,2.783Z" fill="#fc8068"/>
            </g>
          </g>
        </g>
        <g id="Group_1391" data-name="Group 1391" transform="translate(39.089 2.91)">
          <g id="Group_1384" data-name="Group 1384" transform="translate(0 0)">
            <g id="Group_1383" data-name="Group 1383">
              <g id="Group_1382" data-name="Group 1382">
                <circle id="Ellipse_29" data-name="Ellipse 29" cx="1.834" cy="1.834" r="1.834" fill="#ff5325"/>
              </g>
            </g>
          </g>
          <g id="Group_1387" data-name="Group 1387" transform="translate(5.946 0)">
            <g id="Group_1386" data-name="Group 1386">
              <g id="Group_1385" data-name="Group 1385">
                <path id="Path_6044" data-name="Path 6044" d="M3.669,1.834A1.834,1.834,0,1,1,1.834,0,1.834,1.834,0,0,1,3.669,1.834Z" fill="#e3390f"/>
              </g>
            </g>
          </g>
          <g id="Group_1390" data-name="Group 1390" transform="translate(11.638 0)">
            <g id="Group_1389" data-name="Group 1389">
              <g id="Group_1388" data-name="Group 1388">
                <circle id="Ellipse_30" data-name="Ellipse 30" cx="1.834" cy="1.834" r="1.834" fill="#002029"/>
              </g>
            </g>
          </g>
        </g>
      </g>
      <g id="Group_1424" data-name="Group 1424" transform="translate(7.561 18.727)">
        <g id="Group_1401" data-name="Group 1401" transform="translate(0 22.355)">
          <g id="Group_1394" data-name="Group 1394" transform="translate(0 0)" opacity="0.3">
            <g id="Group_1393" data-name="Group 1393">
              <path id="Path_6045" data-name="Path 6045" d="M40.654,0H1.1A1.1,1.1,0,0,0,0,1.1H0a1.1,1.1,0,0,0,1.1,1.1H40.654a1.1,1.1,0,0,0,1.1-1.1h0A1.1,1.1,0,0,0,40.654,0Z" fill="#fc8068"/>
            </g>
          </g>
          <g id="Group_1396" data-name="Group 1396" transform="translate(0 5.533)" opacity="0.3">
            <g id="Group_1395" data-name="Group 1395">
              <path id="Path_6046" data-name="Path 6046" d="M40.654,0H1.1A1.1,1.1,0,0,0,0,1.1H0a1.1,1.1,0,0,0,1.1,1.1H40.654a1.1,1.1,0,0,0,1.1-1.1h0A1.1,1.1,0,0,0,40.654,0Z" fill="#fc8068"/>
            </g>
          </g>
          <g id="Group_1398" data-name="Group 1398" transform="translate(0 11.065)" opacity="0.3">
            <g id="Group_1397" data-name="Group 1397">
              <path id="Path_6047" data-name="Path 6047" d="M40.654,0H1.1A1.1,1.1,0,0,0,0,1.1H0a1.1,1.1,0,0,0,1.1,1.1H40.654a1.1,1.1,0,0,0,1.1-1.1h0A1.1,1.1,0,0,0,40.654,0Z" fill="#fc8068"/>
            </g>
          </g>
          <g id="Group_1400" data-name="Group 1400" transform="translate(0 16.598)" opacity="0.3">
            <g id="Group_1399" data-name="Group 1399">
              <path id="Path_6048" data-name="Path 6048" d="M40.654,0H1.1A1.1,1.1,0,0,0,0,1.1H0a1.1,1.1,0,0,0,1.1,1.1H40.654a1.1,1.1,0,0,0,1.1-1.1h0A1.1,1.1,0,0,0,40.654,0Z" fill="#fc8068"/>
            </g>
          </g>
        </g>
        <g id="Group_1423" data-name="Group 1423" transform="translate(0.457 0)">
          <g id="Group_1408" data-name="Group 1408" transform="translate(15.754 5.222)">
            <g id="Group_1402" data-name="Group 1402" transform="translate(0)">
              <rect id="Rectangle_191" data-name="Rectangle 191" width="9.336" height="0.697" fill="#173953"/>
            </g>
            <g id="Group_1403" data-name="Group 1403" transform="translate(0 1.414)">
              <rect id="Rectangle_192" data-name="Rectangle 192" width="9.336" height="0.697" fill="#173953"/>
            </g>
            <g id="Group_1404" data-name="Group 1404" transform="translate(0.043 2.938)">
              <rect id="Rectangle_193" data-name="Rectangle 193" width="9.336" height="0.697" fill="#173953"/>
            </g>
            <g id="Group_1405" data-name="Group 1405" transform="translate(0 4.434)">
              <rect id="Rectangle_194" data-name="Rectangle 194" width="9.336" height="0.697" fill="#173953"/>
            </g>
            <g id="Group_1406" data-name="Group 1406" transform="translate(0 5.848)">
              <rect id="Rectangle_195" data-name="Rectangle 195" width="9.336" height="0.697" fill="#173953"/>
            </g>
            <g id="Group_1407" data-name="Group 1407" transform="translate(0 7.466)">
              <rect id="Rectangle_196" data-name="Rectangle 196" width="9.336" height="0.697" fill="#173953"/>
            </g>
          </g>
          <g id="Group_1415" data-name="Group 1415" transform="translate(0 0)">
            <g id="Group_1410" data-name="Group 1410">
              <g id="Group_1409" data-name="Group 1409">
                <path id="Path_6049" data-name="Path 6049" d="M17.627,8.813c0,.124,0,.247-.008.369a8.765,8.765,0,0,1-1.86,5.059l-.015.019q-.237.3-.5.579l-.017.019a8.787,8.787,0,0,1-5.62,2.733l-.079.006h0c-.126.011-.251.017-.379.021-.107,0-.213.007-.322.007H8.78c-.056,0-.112,0-.168,0l-.2-.007c-.2-.008-.4-.025-.594-.047h0a8.794,8.794,0,0,1-5.434-2.731l-.017-.017c-.039-.042-.078-.084-.116-.128s-.087-.1-.13-.148c-.026-.03-.052-.06-.077-.091l-.066-.08c-.036-.044-.072-.089-.106-.134a.224.224,0,0,1-.016-.02A8.773,8.773,0,0,1,.008,9.182C0,9.06,0,8.936,0,8.813s0-.247.008-.368A8.766,8.766,0,0,1,1.647,3.681l.015-.02c.014-.019.027-.038.042-.057l.071-.1.012-.015c.036-.047.072-.094.109-.141s.08-.1.121-.15.082-.1.125-.149h0a8.793,8.793,0,0,1,5.674-3h0c.2-.022.394-.038.594-.047L8.611,0l.169,0h.053c.106,0,.21,0,.316.006.127,0,.253.011.379.021h0l.08.007a8.794,8.794,0,0,1,5.876,3.015l.017.02c.162.188.316.384.462.586l.015.021a8.761,8.761,0,0,1,1.641,4.767C17.624,8.566,17.627,8.69,17.627,8.813Z" fill="#ff5325"/>
              </g>
            </g>
            <g id="Group_1411" data-name="Group 1411" transform="translate(4.033 4.174)">
              <circle id="Ellipse_31" data-name="Ellipse 31" cx="4.78" cy="4.78" r="4.78" fill="#fff"/>
            </g>
            <g id="Group_1414" data-name="Group 1414" transform="translate(6.057 6.198)">
              <g id="Group_1412" data-name="Group 1412">
                <path id="Path_6050" data-name="Path 6050" d="M2.757,5.513A2.757,2.757,0,1,1,5.513,2.757,2.76,2.76,0,0,1,2.757,5.513Z" fill="#2a5b74"/>
              </g>
              <g id="Group_1413" data-name="Group 1413" transform="translate(1.638 1.638)">
                <path id="Path_6051" data-name="Path 6051" d="M1.118,2.237A1.118,1.118,0,1,1,2.237,1.118,1.12,1.12,0,0,1,1.118,2.237Z" fill="#002029"/>
              </g>
            </g>
          </g>
          <g id="Group_1422" data-name="Group 1422" transform="translate(23.217 0)">
            <g id="Group_1417" data-name="Group 1417">
              <g id="Group_1416" data-name="Group 1416">
                <path id="Path_6052" data-name="Path 6052" d="M17.627,8.813c0,.124,0,.247-.008.369a8.765,8.765,0,0,1-1.86,5.059l-.015.019q-.237.3-.5.579l-.017.019a8.787,8.787,0,0,1-5.62,2.733l-.078.006h0c-.126.011-.251.017-.379.021-.107,0-.213.007-.322.007H8.78c-.056,0-.112,0-.168,0l-.2-.007c-.2-.008-.4-.025-.594-.047h0a8.793,8.793,0,0,1-5.434-2.731l-.017-.017c-.039-.042-.078-.084-.116-.128s-.087-.1-.13-.148c-.026-.03-.052-.06-.077-.091l-.067-.08c-.036-.044-.072-.089-.106-.134l-.016-.02A8.766,8.766,0,0,1,.008,9.182C0,9.06,0,8.936,0,8.813s0-.247.008-.368A8.763,8.763,0,0,1,1.647,3.681l.014-.02L1.7,3.6l.071-.1.012-.015c.036-.047.072-.094.109-.141s.08-.1.121-.15.082-.1.125-.149h0a8.8,8.8,0,0,1,5.674-3h0c.2-.022.393-.038.594-.047L8.611,0,8.78,0h.053c.106,0,.21,0,.316.006.127,0,.253.011.379.021h0l.08.007a8.792,8.792,0,0,1,5.875,3.015l.017.02c.162.188.316.384.462.586l.015.021a8.762,8.762,0,0,1,1.641,4.767C17.624,8.566,17.627,8.69,17.627,8.813Z" fill="#ff5325"/>
              </g>
            </g>
            <g id="Group_1418" data-name="Group 1418" transform="translate(4.033 4.174)">
              <circle id="Ellipse_32" data-name="Ellipse 32" cx="4.78" cy="4.78" r="4.78" fill="#fff"/>
            </g>
            <g id="Group_1421" data-name="Group 1421" transform="translate(6.057 6.198)">
              <g id="Group_1419" data-name="Group 1419">
                <path id="Path_6053" data-name="Path 6053" d="M2.757,5.513A2.757,2.757,0,1,1,5.513,2.757,2.76,2.76,0,0,1,2.757,5.513Z" fill="#2a5b74"/>
              </g>
              <g id="Group_1420" data-name="Group 1420" transform="translate(1.638 1.638)">
                <path id="Path_6054" data-name="Path 6054" d="M1.118,2.237A1.118,1.118,0,1,1,2.237,1.118,1.119,1.119,0,0,1,1.118,2.237Z" fill="#002029"/>
              </g>
            </g>
          </g>
        </g>
      </g>
    </g>
    <g id="Group_1505" data-name="Group 1505" transform="translate(48.463 43.001)">
      <g id="Group_1426" data-name="Group 1426" transform="translate(0 129.107)">
        <ellipse id="Ellipse_33" data-name="Ellipse 33" cx="56.344" cy="4.758" rx="56.344" ry="4.758" fill="#e3d7d5"/>
      </g>
      <g id="Group_1504" data-name="Group 1504" transform="translate(7.451 0)">
        <g id="Group_1445" data-name="Group 1445" transform="translate(14.944 73.468)">
          <g id="Group_1427" data-name="Group 1427" transform="translate(2.4 4.318)">
            <path id="Path_6055" data-name="Path 6055" d="M.933,44.213a.7.7,0,0,1-.694-.695V32.449a.7.7,0,0,1,.2-.491L6.2,26.2V20.15L.2,14.157a.7.7,0,0,1-.2-.491V.695a.695.695,0,1,1,1.389,0V13.378l5.993,5.993a.693.693,0,0,1,.2.491v6.628a.694.694,0,0,1-.2.491L1.628,32.737V43.518A.7.7,0,0,1,.933,44.213Z" fill="#ff5325"/>
          </g>
          <g id="Group_1428" data-name="Group 1428" transform="translate(15.737 24.556)">
            <path id="Path_6056" data-name="Path 6056" d="M.695,24.778A.7.7,0,0,1,0,24.083V11.537a.7.7,0,0,1,.2-.491L2.738,8.512V.695a.695.695,0,1,1,1.389,0V8.8a.7.7,0,0,1-.2.492L1.39,11.824V24.083A.7.7,0,0,1,.695,24.778Z" fill="#ff5325"/>
          </g>
          <g id="Group_1429" data-name="Group 1429" transform="translate(23.334 3.473)">
            <path id="Path_6057" data-name="Path 6057" d="M6.937,45.861a.7.7,0,0,1-.695-.694V16.673L.2,10.634a.693.693,0,0,1-.2-.491V.695a.695.695,0,1,1,1.39,0v9.16l6.039,6.039a.693.693,0,0,1,.2.491V45.167A.7.7,0,0,1,6.937,45.861Z" fill="#ff5325"/>
          </g>
          <g id="Group_1430" data-name="Group 1430" transform="translate(38.498 9.414)">
            <path id="Path_6058" data-name="Path 6058" d="M5.539,40.973a.7.7,0,0,1-.695-.695V32.316L.2,27.675a.7.7,0,0,1-.2-.491V13.871a.7.7,0,0,1,.2-.491L4.595,8.988V.695a.695.695,0,1,1,1.389,0V9.276a.7.7,0,0,1-.2.491L1.389,14.158V26.9L6.03,31.537a.693.693,0,0,1,.2.491v8.25A.7.7,0,0,1,5.539,40.973Z" fill="#ff5325"/>
          </g>
          <g id="Group_1431" data-name="Group 1431" transform="translate(53.175 16.936)">
            <path id="Path_6059" data-name="Path 6059" d="M.694,33.885A.7.7,0,0,1,0,33.19V29.22a.7.7,0,0,1,.2-.491L4.7,24.236V17.3L.447,13.051a.7.7,0,0,1-.2-.491V.694a.695.695,0,0,1,1.389,0V12.272l4.249,4.249a.7.7,0,0,1,.2.491v7.512a.7.7,0,0,1-.2.492L1.389,29.508V33.19A.7.7,0,0,1,.694,33.885Z" transform="translate(0 0)" fill="#ff5325"/>
          </g>
          <g id="Group_1432" data-name="Group 1432" transform="translate(58.657 11.071)">
            <path id="Path_6060" data-name="Path 6060" d="M3.719,37.459a.7.7,0,0,1-.695-.695V19.421L.2,16.6A.7.7,0,0,1,0,16.11v-3.4a.693.693,0,0,1,.2-.491L2.651,9.771V.695a.695.695,0,0,1,1.39,0v9.364a.693.693,0,0,1-.2.491L1.39,13v2.825l2.82,2.82a.694.694,0,0,1,.2.491V36.764A.7.7,0,0,1,3.719,37.459Z" fill="#ff5325"/>
          </g>
          <g id="Group_1434" data-name="Group 1434" transform="translate(0 0.954)">
            <g id="Group_1433" data-name="Group 1433">
              <path id="Path_6061" data-name="Path 6061" d="M6.189,3.095A3.095,3.095,0,1,1,3.095,0,3.095,3.095,0,0,1,6.189,3.095Z" fill="#173953"/>
            </g>
          </g>
          <g id="Group_1436" data-name="Group 1436" transform="translate(16.074 20.424)">
            <g id="Group_1435" data-name="Group 1435">
              <path id="Path_6062" data-name="Path 6062" d="M6.189,3.095A3.095,3.095,0,1,1,3.095,0,3.095,3.095,0,0,1,6.189,3.095Z" fill="#173953"/>
            </g>
          </g>
          <g id="Group_1438" data-name="Group 1438" transform="translate(20.934 0)">
            <g id="Group_1437" data-name="Group 1437" transform="translate(0)">
              <path id="Path_6063" data-name="Path 6063" d="M6.189,3.095A3.095,3.095,0,1,1,3.095,0,3.095,3.095,0,0,1,6.189,3.095Z" fill="#173953"/>
            </g>
          </g>
          <g id="Group_1440" data-name="Group 1440" transform="translate(40.693 6.189)">
            <g id="Group_1439" data-name="Group 1439" transform="translate(0 0)">
              <path id="Path_6064" data-name="Path 6064" d="M6.19,3.095A3.095,3.095,0,1,1,3.095,0,3.095,3.095,0,0,1,6.19,3.095Z" fill="#173953"/>
            </g>
          </g>
          <g id="Group_1442" data-name="Group 1442" transform="translate(51.02 13.616)">
            <g id="Group_1441" data-name="Group 1441">
              <path id="Path_6065" data-name="Path 6065" d="M6.189,3.095A3.094,3.094,0,1,1,3.095,0,3.094,3.094,0,0,1,6.189,3.095Z" fill="#173953"/>
            </g>
          </g>
          <g id="Group_1444" data-name="Group 1444" transform="translate(58.908 7.014)">
            <g id="Group_1443" data-name="Group 1443">
              <path id="Path_6066" data-name="Path 6066" d="M6.189,3.095A3.095,3.095,0,1,1,3.095,0,3.095,3.095,0,0,1,6.189,3.095Z" fill="#173953"/>
            </g>
          </g>
        </g>
        <g id="Group_1446" data-name="Group 1446" transform="translate(0 123.161)">
          <rect id="Rectangle_197" data-name="Rectangle 197" width="97.786" height="11.759" rx="5.88" transform="translate(0 0)" fill="#173953"/>
        </g>
        <g id="Group_1447" data-name="Group 1447" transform="translate(0 128.886)">
          <path id="Path_6067" data-name="Path 6067" d="M97.787,0V2.321a3.724,3.724,0,0,1-3.713,3.713H3.713A3.724,3.724,0,0,1,0,2.321V0Z" fill="#002029"/>
        </g>
        <g id="Group_1449" data-name="Group 1449" transform="translate(8.355 0)">
          <g id="Group_1448" data-name="Group 1448" transform="translate(0)">
            <path id="Path_6068" data-name="Path 6068" d="M77.024,125.327H4.59A4.59,4.59,0,0,1,0,120.737V41.256C0,18.738,18.051.13,40.568,0A40.853,40.853,0,0,1,81.614,40.807v79.93A4.59,4.59,0,0,1,77.024,125.327ZM6.446,121.3H75.167a2.424,2.424,0,0,0,2.424-2.424V41.211c0-20.3-16.272-37.071-36.569-37.188a36.825,36.825,0,0,0-37,36.783V118.88A2.424,2.424,0,0,0,6.446,121.3Z" fill="#173953"/>
          </g>
        </g>
        <g id="Group_1503" data-name="Group 1503" transform="translate(20.763 17.786)">
          <g id="Group_1495" data-name="Group 1495">
            <g id="Group_1453" data-name="Group 1453">
              <g id="Group_1450" data-name="Group 1450">
                <path id="Path_6069" data-name="Path 6069" d="M57.623,24.624v9.622H4.472A4.476,4.476,0,0,1,0,29.774V26.681c0-.18,0-.358.006-.529.008-.5.03-1,.068-1.492a25.58,25.58,0,0,1,.351-2.735c.089-.5.193-1,.312-1.49A25.9,25.9,0,0,1,2.19,16.09c.216-.506.447-1,.7-1.49A26.41,26.41,0,0,1,6.238,9.54c.432-.514.88-1.014,1.356-1.49A25.184,25.184,0,0,1,10.1,5.778h0a26.857,26.857,0,0,1,2.263-1.61,27.273,27.273,0,0,1,2.661-1.49,26.65,26.65,0,0,1,7.185-2.3C22.7.29,23.2.224,23.7.163A28.131,28.131,0,0,1,26.68,0h6.328c.715,0,1.416.03,2.116.1.5.036.991.089,1.484.163A24.521,24.521,0,0,1,51.2,8.049c.447.476.864.976,1.26,1.49A24.423,24.423,0,0,1,54.9,13.355c.254.492.493.984.709,1.491a24.43,24.43,0,0,1,1.945,7.884c.038.493.059.992.068,1.492C57.623,24.355,57.623,24.489,57.623,24.624Z" fill="#ff5325"/>
              </g>
              <g id="Group_1451" data-name="Group 1451" transform="translate(19.839 34.248)">
                <path id="Path_6070" data-name="Path 6070" d="M37.788,0a6.26,6.26,0,0,1-1.53,3.811c-.036.055-.082.117-.127.181L31.2,8.924a12.708,12.708,0,0,1-8.979,3.721,9.824,9.824,0,0,1-5.839-1.729,30.02,30.02,0,0,1-4.136-3.8l-.254-.254H6.861a6.859,6.859,0,0,1-5.7-3.05A6.8,6.8,0,0,1,0,0Z" transform="translate(0 0)" fill="#ff5325"/>
              </g>
              <g id="Group_1452" data-name="Group 1452" transform="translate(19.839 34.248)">
                <path id="Path_6071" data-name="Path 6071" d="M37.788,0a6.26,6.26,0,0,1-1.53,3.811c-.036.055-.082.117-.127.181L31.2,8.924a12.708,12.708,0,0,1-8.979,3.721,9.824,9.824,0,0,1-5.839-1.729,30.02,30.02,0,0,1-4.136-3.8l-.254-.254H6.861a6.859,6.859,0,0,1-5.7-3.05A6.8,6.8,0,0,1,0,0Z" transform="translate(0 0)" fill="#e3390f"/>
              </g>
            </g>
            <g id="Group_1454" data-name="Group 1454" transform="translate(31.831 41.109)">
              <path id="Path_6072" data-name="Path 6072" d="M21.27,0,19.206,2.064a12.7,12.7,0,0,1-8.979,3.72A9.83,9.83,0,0,1,4.39,4.055,29.973,29.973,0,0,1,.254.254L0,0Z" fill="#173953"/>
            </g>
            <g id="Group_1456" data-name="Group 1456" transform="translate(0.007 24.661)">
              <g id="Group_1455" data-name="Group 1455">
                <path id="Path_6073" data-name="Path 6073" d="M8.749,4.963H7.259A3.476,3.476,0,0,0,3.786,1.49H0C.007.991.03.492.067,0H3.786A4.971,4.971,0,0,1,8.749,4.963Z" fill="#173953"/>
              </g>
            </g>
            <g id="Group_1458" data-name="Group 1458" transform="translate(0.424 13.355)">
              <g id="Group_1457" data-name="Group 1457">
                <path id="Path_6074" data-name="Path 6074" d="M15.256,0a8.443,8.443,0,0,1-.611,3.167,8.081,8.081,0,0,1-.775,1.491A8.541,8.541,0,0,1,6.685,8.571H0c.089-.5.194-1,.313-1.491H6.685A7.086,7.086,0,0,0,13.765,0Z" fill="#173953"/>
              </g>
            </g>
            <g id="Group_1460" data-name="Group 1460" transform="translate(41.303 23.975)">
              <g id="Group_1459" data-name="Group 1459">
                <path id="Path_6075" data-name="Path 6075" d="M16.321,4.9V6.395H6.275A6.4,6.4,0,0,1,0,0H1.491a4.907,4.907,0,0,0,4.9,4.9Z" fill="#173953"/>
              </g>
            </g>
            <g id="Group_1462" data-name="Group 1462" transform="translate(2.191 14.6)">
              <g id="Group_1461" data-name="Group 1461" transform="translate(0 0)">
                <path id="Path_6076" data-name="Path 6076" d="M7.036,0V1.491H0C.216.984.447.492.7,0Z" fill="#173953"/>
              </g>
            </g>
            <g id="Group_1464" data-name="Group 1464" transform="translate(34.685 8.049)">
              <g id="Group_1463" data-name="Group 1463">
                <path id="Path_6077" data-name="Path 6077" d="M17.775,1.491H8.295a6.81,6.81,0,0,0-6.8,6.8H0a8.218,8.218,0,0,1,1.043-4.01A7.76,7.76,0,0,1,1.99,2.921,8.236,8.236,0,0,1,8.295,0h8.22C16.962.477,17.38.976,17.775,1.491Z" fill="#173953"/>
              </g>
            </g>
            <g id="Group_1466" data-name="Group 1466" transform="translate(44.798 13.355)">
              <g id="Group_1465" data-name="Group 1465">
                <path id="Path_6078" data-name="Path 6078" d="M10.807,1.491H0V0H10.1C10.352.492,10.59.984,10.807,1.491Z" fill="#173953"/>
              </g>
            </g>
            <g id="Group_1468" data-name="Group 1468" transform="translate(18.342 23.23)">
              <g id="Group_1467" data-name="Group 1467" transform="translate(0 0)">
                <path id="Path_6079" data-name="Path 6079" d="M5.366,0V1.491A3.877,3.877,0,0,0,1.491,5.366v5.649H0V5.366A1.217,1.217,0,0,1,.007,5.2,5.008,5.008,0,0,1,.253,3.734,5.377,5.377,0,0,1,5.366,0Z" fill="#173953"/>
              </g>
            </g>
            <g id="Group_1470" data-name="Group 1470" transform="translate(22.209 0.164)">
              <g id="Group_1469" data-name="Group 1469" transform="translate(0 0)">
                <path id="Path_6080" data-name="Path 6080" d="M6.052,8.436V9.927A6.056,6.056,0,0,1,0,3.875V.209C.492.127.991.06,1.491,0V3.875A4.561,4.561,0,0,0,6.052,8.436Z" fill="#173953"/>
              </g>
            </g>
            <g id="Group_1472" data-name="Group 1472" transform="translate(30.586 0.097)">
              <g id="Group_1471" data-name="Group 1471" transform="translate(0 0)">
                <path id="Path_6081" data-name="Path 6081" d="M6.022.164A6.055,6.055,0,0,1,0,5.634V4.144A4.562,4.562,0,0,0,4.539,0C5.038.038,5.53.09,6.022.164Z" fill="#173953"/>
              </g>
            </g>
            <g id="Group_1474" data-name="Group 1474" transform="translate(6.238 8.049)">
              <g id="Group_1473" data-name="Group 1473">
                <path id="Path_6082" data-name="Path 6082" d="M15.226,6.61H13.735a5.13,5.13,0,0,0-5.128-5.12H0C.432.976.88.477,1.356,0H8.608A6.625,6.625,0,0,1,15.226,6.61Z" fill="#173953"/>
              </g>
            </g>
            <g id="Group_1476" data-name="Group 1476" transform="translate(31.987 7.58)">
              <g id="Group_1475" data-name="Group 1475">
                <path id="Path_6083" data-name="Path 6083" d="M5.025,4.891H4.891A4.9,4.9,0,0,1,0,0H1.491a3.4,3.4,0,0,0,3.4,3.4h.134Z" fill="#173953"/>
              </g>
            </g>
            <g id="Group_1478" data-name="Group 1478" transform="translate(14.948 21.677)">
              <g id="Group_1477" data-name="Group 1477" transform="translate(0 0)">
                <path id="Path_6084" data-name="Path 6084" d="M4.215,6.831A4.22,4.22,0,0,1,0,2.615V0H1.491V2.615A2.727,2.727,0,0,0,4.215,5.34Z" fill="#173953"/>
              </g>
            </g>
            <g id="Group_1480" data-name="Group 1480" transform="translate(28.069 24.72)">
              <g id="Group_1479" data-name="Group 1479" transform="translate(0 0)">
                <path id="Path_6085" data-name="Path 6085" d="M6.9,16.389H5.409V8.356A1.961,1.961,0,0,0,3.45,6.4,3.453,3.453,0,0,1,0,2.948V0H1.491V2.948A1.962,1.962,0,0,0,3.45,4.907,3.453,3.453,0,0,1,6.9,8.356Z" fill="#173953"/>
              </g>
            </g>
            <g id="Group_1482" data-name="Group 1482" transform="translate(34.223 31.615)">
              <g id="Group_1481" data-name="Group 1481">
                <path id="Path_6086" data-name="Path 6086" d="M0,5.776V4.285A3.482,3.482,0,0,0,3.478.807V0H4.968V.807A4.974,4.974,0,0,1,0,5.776Z" fill="#173953"/>
              </g>
            </g>
            <g id="Group_1484" data-name="Group 1484" transform="translate(13.889 16.522)">
              <g id="Group_1483" data-name="Group 1483">
                <path id="Path_6087" data-name="Path 6087" d="M18.688,6.956H17.2a5.472,5.472,0,0,0-5.466-5.466H0V0H11.731A6.964,6.964,0,0,1,18.688,6.956Z" fill="#173953"/>
              </g>
            </g>
            <g id="Group_1486" data-name="Group 1486" transform="translate(30.584 15.032)">
              <g id="Group_1485" data-name="Group 1485">
                <path id="Path_6088" data-name="Path 6088" d="M5.629,5.462H0V3.971H5.629A3.976,3.976,0,0,0,9.6,0h1.49A5.468,5.468,0,0,1,5.629,5.462Z" fill="#173953"/>
              </g>
            </g>
            <g id="Group_1488" data-name="Group 1488" transform="translate(47.575 29.627)">
              <g id="Group_1487" data-name="Group 1487">
                <path id="Path_6089" data-name="Path 6089" d="M5.217,6.086A5.223,5.223,0,0,1,0,.869V0H1.491V.869A3.73,3.73,0,0,0,5.217,4.6Z" fill="#173953"/>
              </g>
            </g>
            <g id="Group_1490" data-name="Group 1490" transform="translate(46.023 14.101)">
              <g id="Group_1489" data-name="Group 1489">
                <path id="Path_6090" data-name="Path 6090" d="M1.3,5.217H0V3.726H1.3A3.731,3.731,0,0,0,5.031,0H6.521A5.223,5.223,0,0,1,1.3,5.217Z" fill="#173953"/>
              </g>
            </g>
            <g id="Group_1492" data-name="Group 1492" transform="translate(50.06 22.731)">
              <g id="Group_1491" data-name="Group 1491">
                <path id="Path_6091" data-name="Path 6091" d="M7.557,1.491H0V0H7.49C7.527.492,7.55.992,7.557,1.491Z" fill="#173953"/>
              </g>
            </g>
            <g id="Group_1494" data-name="Group 1494" transform="translate(12.364 2.676)">
              <g id="Group_1493" data-name="Group 1493">
                <path id="Path_6092" data-name="Path 6092" d="M7.3,3.786H5.813a2.3,2.3,0,0,0-2.3-2.3H0A27.308,27.308,0,0,1,2.66,0h.857A3.791,3.791,0,0,1,7.3,3.786Z" fill="#173953"/>
              </g>
            </g>
          </g>
          <g id="Group_1502" data-name="Group 1502" transform="translate(4.382 34.245)">
            <g id="Group_1501" data-name="Group 1501" transform="translate(0 0)">
              <g id="Group_1496" data-name="Group 1496" transform="translate(0 0)">
                <path id="Path_6093" data-name="Path 6093" d="M0,0V4.331a.738.738,0,0,0,.768.738H.783a.739.739,0,0,0,.707-.738V0Z" fill="#173953"/>
              </g>
              <g id="Group_1497" data-name="Group 1497" transform="translate(2.858 0)">
                <path id="Path_6094" data-name="Path 6094" d="M0,0V4.331a.739.739,0,0,0,.768.738H.783a.739.739,0,0,0,.708-.738V0Z" transform="translate(0)" fill="#173953"/>
              </g>
              <g id="Group_1498" data-name="Group 1498" transform="translate(5.717 0)">
                <path id="Path_6095" data-name="Path 6095" d="M0,0V4.331a.739.739,0,0,0,.768.738H.783a.739.739,0,0,0,.707-.738V0Z" transform="translate(0)" fill="#173953"/>
              </g>
              <g id="Group_1499" data-name="Group 1499" transform="translate(8.576 0)">
                <path id="Path_6096" data-name="Path 6096" d="M0,0V4.331a.739.739,0,0,0,.768.738H.783a.739.739,0,0,0,.707-.738V0Z" fill="#173953"/>
              </g>
              <g id="Group_1500" data-name="Group 1500" transform="translate(11.435 0)">
                <path id="Path_6097" data-name="Path 6097" d="M0,0V4.331a.738.738,0,0,0,.768.738H.783a.739.739,0,0,0,.707-.738V0Z" fill="#173953"/>
              </g>
            </g>
          </g>
        </g>
      </g>
    </g>
    <g id="Group_1689" data-name="Group 1689" transform="translate(0 92.649)">
      <g id="Group_1506" data-name="Group 1506" transform="translate(8.055 81.989)">
        <ellipse id="Ellipse_34" data-name="Ellipse 34" cx="35.208" cy="5.157" rx="35.208" ry="5.157" fill="#e3d7d5"/>
      </g>
      <g id="Group_1660" data-name="Group 1660" transform="translate(3.194 3.94)">
        <g id="Group_1573" data-name="Group 1573" transform="translate(0 59.843)">
          <g id="Group_1540" data-name="Group 1540" transform="translate(25.946 0)">
            <g id="Group_1507" data-name="Group 1507" transform="translate(10.177 0)">
              <path id="Path_6098" data-name="Path 6098" d="M8.307,23.6l.16-2.6.025-.379.047-.777s2.918-1.337,9.019-4.82c-4.153,1.311-8.7,2.392-11.9,2.169q-.449-.031-.861-.1c-.165-.027-.326-.058-.481-.094C-2.565,15.422-.485,4.182,5.429,2.625c0,0,24.119-5.681,33.935-.329C49.051,7.579,42.331,19.163,8.307,23.6Z" transform="translate(0)" fill="#173953"/>
            </g>
            <g id="Group_1509" data-name="Group 1509" transform="translate(14.971 8.028)">
              <g id="Group_1508" data-name="Group 1508" transform="translate(0 0)">
                <path id="Path_6099" data-name="Path 6099" d="M26.792.28c-.143.715-6.224,4.255-9.419,6.028a122.1,122.1,0,0,1-13.7,6.669L3.7,12.6A123.3,123.3,0,0,0,17.083,6.072,74.817,74.817,0,0,0,26.3.383c-.106.028-.26.073-.476.152C10.792,5.918,3.954,8.2.861,9.17Q.412,9.139,0,9.073C2.628,8.273,9.249,6.1,25.708.207c.7-.249.9-.242,1.012-.144A.223.223,0,0,1,26.792.28Z" fill="#002029"/>
              </g>
            </g>
            <g id="Group_1539" data-name="Group 1539" transform="translate(0 16.012)">
              <g id="Group_1513" data-name="Group 1513" transform="translate(11.383 3.969)">
                <g id="Group_1512" data-name="Group 1512" transform="translate(0 0)">
                  <g id="Group_1511" data-name="Group 1511">
                    <g id="Group_1510" data-name="Group 1510">
                      <path id="Path_6100" data-name="Path 6100" d="M6.528,0,3.119.675S1.624,2.865,0,4.778l6.346-.92Z" fill="#fdbb92"/>
                    </g>
                  </g>
                </g>
              </g>
              <g id="Group_1517" data-name="Group 1517" transform="translate(16.436 2.992)">
                <g id="Group_1516" data-name="Group 1516" transform="translate(0 0)">
                  <g id="Group_1515" data-name="Group 1515">
                    <g id="Group_1514" data-name="Group 1514">
                      <path id="Path_6101" data-name="Path 6101" d="M3.288,5.553a4.349,4.349,0,0,1-2.743.412L0,.492A6.019,6.019,0,0,1,2.776,0Z" fill="#2a5b74"/>
                    </g>
                  </g>
                </g>
              </g>
              <g id="Group_1538" data-name="Group 1538" transform="translate(0 0)">
                <g id="Group_1521" data-name="Group 1521">
                  <g id="Group_1520" data-name="Group 1520">
                    <g id="Group_1519" data-name="Group 1519">
                      <g id="Group_1518" data-name="Group 1518">
                        <path id="Path_6102" data-name="Path 6102" d="M0,9.9C-.2,9.11,12.067,0,12.067,0a49.037,49.037,0,0,1,3.686,4.007c.491.7-1.592.7-3.05,3.388,0,0,.1,1.557-.5,2a12.013,12.013,0,0,1-2.784.453l-.716.079c-.171.018-.343.037-.518.056-.284.031-.572.063-.86.1L7,10.116H7c-.263.031-.526.065-.785.1a12.59,12.59,0,0,0-3.634.84C.851,12.039.207,10.7,0,9.9Z" fill="#e3390f"/>
                      </g>
                    </g>
                  </g>
                </g>
                <g id="Group_1537" data-name="Group 1537" transform="translate(6.219 7.351)">
                  <g id="Group_1526" data-name="Group 1526" transform="translate(1.11 0)">
                    <g id="Group_1525" data-name="Group 1525" transform="translate(0)">
                      <g id="Group_1524" data-name="Group 1524">
                        <g id="Group_1523" data-name="Group 1523">
                          <g id="Group_1522" data-name="Group 1522">
                            <path id="Path_6103" data-name="Path 6103" d="M0,2.726a1.413,1.413,0,0,0,.54-.659A3.73,3.73,0,0,0,.63.325a.269.269,0,0,1,.039-.2.273.273,0,0,1,.5.1A4.182,4.182,0,0,1,1.044,2.28a2.167,2.167,0,0,1-.185.349C.53,2.858.215,3,0,2.726Z" fill="#fff"/>
                          </g>
                        </g>
                      </g>
                    </g>
                  </g>
                  <g id="Group_1531" data-name="Group 1531" transform="translate(2.488 0.058)">
                    <g id="Group_1530" data-name="Group 1530" transform="translate(0 0)">
                      <g id="Group_1529" data-name="Group 1529">
                        <g id="Group_1528" data-name="Group 1528">
                          <g id="Group_1527" data-name="Group 1527">
                            <path id="Path_6104" data-name="Path 6104" d="M0,2.514a1.482,1.482,0,0,0,.285-.446A3.715,3.715,0,0,0,.374.324a.274.274,0,0,1,.538-.1A4.2,4.2,0,0,1,.789,2.28a1.655,1.655,0,0,1-.074.155C.505,2.582.293,2.777,0,2.514Z" fill="#fff"/>
                          </g>
                        </g>
                      </g>
                    </g>
                  </g>
                  <g id="Group_1536" data-name="Group 1536" transform="translate(0 0.241)">
                    <g id="Group_1535" data-name="Group 1535" transform="translate(0 0)">
                      <g id="Group_1534" data-name="Group 1534">
                        <g id="Group_1533" data-name="Group 1533">
                          <g id="Group_1532" data-name="Group 1532">
                            <path id="Path_6105" data-name="Path 6105" d="M0,2.625a1.459,1.459,0,0,0,.4-.557A3.717,3.717,0,0,0,.49.326a.274.274,0,1,1,.538-.1A4.218,4.218,0,0,1,.906,2.28a2.267,2.267,0,0,1-.12.244h0C.476,2.834.206,2.914,0,2.625Z" fill="#fff"/>
                          </g>
                        </g>
                      </g>
                    </g>
                  </g>
                </g>
              </g>
            </g>
          </g>
          <g id="Group_1572" data-name="Group 1572" transform="translate(0 0)">
            <g id="Group_1541" data-name="Group 1541">
              <path id="Path_6106" data-name="Path 6106" d="M39.1,17.007c-.172.039-.352.074-.537.1q-.417.066-.874.094c-3.2.2-7.71-.872-11.833-2.173,6.1,3.483,9.019,4.82,9.019,4.82l.05.809.023.379L35.1,23.6C1.076,19.163-5.643,7.579,4.044,2.3c9.816-5.353,33.935.329,33.935.329C43.893,4.182,45.973,15.422,39.1,17.007Z" fill="#173953"/>
            </g>
            <g id="Group_1543" data-name="Group 1543" transform="translate(11.734 8.028)">
              <g id="Group_1542" data-name="Group 1542" transform="translate(0 0)">
                <path id="Path_6107" data-name="Path 6107" d="M.97.535C.754.456.6.411.494.383A74.815,74.815,0,0,0,9.713,6.072a122.345,122.345,0,0,0,13.471,6.559l.023.379a121.273,121.273,0,0,1-13.784-6.7C6.228,4.535.147.995,0,.28A.223.223,0,0,1,.076.064c.113-.1.315-.106,1.012.144,16.517,5.914,23.127,8.08,25.736,8.873q-.417.066-.874.094C22.862,8.208,16.026,5.926.97.535Z" fill="#002029"/>
              </g>
            </g>
            <g id="Group_1571" data-name="Group 1571" transform="translate(33.861 16.012)">
              <g id="Group_1547" data-name="Group 1547" transform="translate(1.812 3.969)">
                <g id="Group_1546" data-name="Group 1546" transform="translate(0 0)">
                  <g id="Group_1545" data-name="Group 1545">
                    <g id="Group_1544" data-name="Group 1544">
                      <path id="Path_6108" data-name="Path 6108" d="M0,0,3.409.675s1.495,2.19,3.119,4.1L.182,3.858Z" fill="#fdbb92"/>
                    </g>
                  </g>
                </g>
              </g>
              <g id="Group_1551" data-name="Group 1551" transform="translate(0 2.992)">
                <g id="Group_1550" data-name="Group 1550" transform="translate(0 0)">
                  <g id="Group_1549" data-name="Group 1549">
                    <g id="Group_1548" data-name="Group 1548">
                      <path id="Path_6109" data-name="Path 6109" d="M0,5.553a4.348,4.348,0,0,0,2.742.412L3.288.492A6.021,6.021,0,0,0,.512,0Z" fill="#2a5b74"/>
                    </g>
                  </g>
                </g>
              </g>
              <g id="Group_1570" data-name="Group 1570" transform="translate(3.898 0)">
                <g id="Group_1553" data-name="Group 1553" transform="translate(0)">
                  <g id="Group_1552" data-name="Group 1552">
                    <path id="Path_6110" data-name="Path 6110" d="M15.824,9.9C16.028,9.11,3.759,0,3.759,0A49.054,49.054,0,0,0,.073,4.007c-.491.7,1.592.7,3.05,3.388,0,0-.1,1.557.5,2A12.018,12.018,0,0,0,6.4,9.845l.716.079c.171.018.343.037.518.056.284.031.572.063.86.1l.324.039h0c.263.031.526.065.785.1a12.594,12.594,0,0,1,3.634.84C14.975,12.039,15.619,10.7,15.824,9.9Z" fill="#ff5325"/>
                  </g>
                </g>
                <g id="Group_1569" data-name="Group 1569" transform="translate(6.131 7.351)">
                  <g id="Group_1558" data-name="Group 1558" transform="translate(1.122 0)">
                    <g id="Group_1557" data-name="Group 1557" transform="translate(0)">
                      <g id="Group_1556" data-name="Group 1556">
                        <g id="Group_1555" data-name="Group 1555">
                          <g id="Group_1554" data-name="Group 1554">
                            <path id="Path_6111" data-name="Path 6111" d="M1.244,2.726A1.417,1.417,0,0,1,.7,2.067,3.727,3.727,0,0,1,.614.325a.267.267,0,0,0-.039-.2.273.273,0,0,0-.5.1A4.188,4.188,0,0,0,.2,2.28a2.2,2.2,0,0,0,.185.349C.714,2.858,1.029,3,1.244,2.726Z" fill="#fff"/>
                          </g>
                        </g>
                      </g>
                    </g>
                  </g>
                  <g id="Group_1563" data-name="Group 1563" transform="translate(0 0.058)">
                    <g id="Group_1562" data-name="Group 1562" transform="translate(0 0)">
                      <g id="Group_1561" data-name="Group 1561">
                        <g id="Group_1560" data-name="Group 1560">
                          <g id="Group_1559" data-name="Group 1559">
                            <path id="Path_6112" data-name="Path 6112" d="M.988,2.514A1.482,1.482,0,0,1,.7,2.068,3.708,3.708,0,0,1,.614.324a.274.274,0,0,0-.538-.1A4.208,4.208,0,0,0,.2,2.28a1.66,1.66,0,0,0,.074.155C.483,2.582.695,2.777.988,2.514Z" fill="#fff"/>
                          </g>
                        </g>
                      </g>
                    </g>
                  </g>
                  <g id="Group_1568" data-name="Group 1568" transform="translate(2.372 0.241)">
                    <g id="Group_1567" data-name="Group 1567" transform="translate(0 0)">
                      <g id="Group_1566" data-name="Group 1566">
                        <g id="Group_1565" data-name="Group 1565">
                          <g id="Group_1564" data-name="Group 1564">
                            <path id="Path_6113" data-name="Path 6113" d="M1.1,2.625a1.45,1.45,0,0,1-.4-.557A3.711,3.711,0,0,1,.614.326a.274.274,0,1,0-.538-.1A4.218,4.218,0,0,0,.2,2.28a2.267,2.267,0,0,0,.12.244h0C.628,2.834.9,2.914,1.1,2.625Z" fill="#fff"/>
                          </g>
                        </g>
                      </g>
                    </g>
                  </g>
                </g>
              </g>
            </g>
          </g>
        </g>
        <g id="Group_1589" data-name="Group 1589" transform="translate(24.642 19.968)">
          <g id="Group_1574" data-name="Group 1574" transform="translate(0 0)">
            <path id="Path_6114" data-name="Path 6114" d="M1.912,23.671c0,.019.006.037.008.055v0l0,.021c.012.08.022.16.033.238.032.24.064.475.093.705l.007.058c.011.087.021.174.03.259.006.051.012.1.018.153a19.214,19.214,0,0,1,.152,2.7c-.163,4.426-.759,12.6-1.167,19.056a44.592,44.592,0,0,0,27.544,0c-.362-5.046-1-11.078-1.288-16.181q-.036-.617-.063-1.215c-.065-1.384-.1-2.682-.087-3.853.066-7.091,1.723-20.052.151-22.038C25.759,1.632,17.184.1,17.184.1L10.3,0S3.108,2.021.7,4.182C-.978,5.7.753,15.811,1.756,22.6Q1.837,23.149,1.912,23.671Z" fill="#ff5325"/>
          </g>
          <g id="Group_1579" data-name="Group 1579" transform="translate(1.957 20.413)">
            <g id="Group_1576" data-name="Group 1576" transform="translate(0 0)">
              <g id="Group_1575" data-name="Group 1575">
                <path id="Path_6115" data-name="Path 6115" d="M1.91.4,1.322,1.848v0L.731,3.309v0L.147,4.751C.141,4.7.136,4.649.13,4.6.12,4.512.11,4.425.1,4.339L.093,4.281C.064,4.05.032,3.815,0,3.575l.21-.518.007-.021L1.373.181A.289.289,0,0,1,1.91.4Z" fill="#e3390f"/>
              </g>
            </g>
            <g id="Group_1578" data-name="Group 1578" transform="translate(0.194 0.968)">
              <g id="Group_1577" data-name="Group 1577" transform="translate(0 0)">
                <path id="Path_6116" data-name="Path 6116" d="M.277,2.471a.29.29,0,0,1-.2-.489L1.881.09a.289.289,0,0,1,.419.4L.5,2.381A.29.29,0,0,1,.277,2.471Z" fill="#e3390f"/>
              </g>
            </g>
          </g>
          <g id="Group_1584" data-name="Group 1584" transform="translate(24.771 21.011)">
            <g id="Group_1581" data-name="Group 1581" transform="translate(0.642 0)">
              <g id="Group_1580" data-name="Group 1580" transform="translate(0)">
                <path id="Path_6117" data-name="Path 6117" d="M.021.4.61,1.848v0L1.2,3.309v0l.583,1.439c.006-.05.012-.1.018-.153.009-.086.02-.173.03-.259l.007-.058q.044-.345.093-.705l-.21-.518-.007-.021L.559.181A.288.288,0,0,0,.181.022.287.287,0,0,0,.021.4Z" fill="#e3390f"/>
              </g>
            </g>
            <g id="Group_1583" data-name="Group 1583" transform="translate(0 0.968)">
              <g id="Group_1582" data-name="Group 1582" transform="translate(0 0)">
                <path id="Path_6118" data-name="Path 6118" d="M2.1,2.471a.289.289,0,0,0,.2-.489L.5.09a.289.289,0,1,0-.419.4l1.8,1.892A.289.289,0,0,0,2.1,2.471Z" fill="#e3390f"/>
              </g>
            </g>
          </g>
          <g id="Group_1586" data-name="Group 1586" transform="translate(8.683 3.449)">
            <g id="Group_1585" data-name="Group 1585" transform="translate(0 0)">
              <path id="Path_6119" data-name="Path 6119" d="M7.28,3.274a10.407,10.407,0,0,1-4.142-.9A12.124,12.124,0,0,1,.1.5.289.289,0,1,1,.483.074c.045.04,4.527,3.982,9.658,2.121a.289.289,0,1,1,.2.544A8.912,8.912,0,0,1,7.28,3.274Z" fill="#e3390f"/>
            </g>
          </g>
          <g id="Group_1588" data-name="Group 1588" transform="translate(6.783 45.479)">
            <g id="Group_1587" data-name="Group 1587" transform="translate(0 0)">
              <path id="Path_6120" data-name="Path 6120" d="M15.214,6.683a21.622,21.622,0,0,1-9.421-2.5A31.437,31.437,0,0,1,.1.509.289.289,0,1,1,.478.069a30.863,30.863,0,0,0,5.588,3.6c3.026,1.52,7.57,3.123,12.028,2.126a.29.29,0,0,1,.126.565A13.762,13.762,0,0,1,15.214,6.683Z" fill="#e3390f"/>
            </g>
          </g>
        </g>
        <g id="Group_1640" data-name="Group 1640" transform="translate(31.486 0)">
          <g id="Group_1590" data-name="Group 1590" transform="translate(0.383 0)">
            <path id="Path_6121" data-name="Path 6121" d="M.937,10.4S-.47,7.712.164,6.516.529,5.049,1.4,3.621s1.735-.193,3.637-.811S7.757-.583,10.086.11s.944,3.175.944,3.175.47-1.015,1.873-.32-.187,2.363-.187,2.363A3.881,3.881,0,0,1,13.5,7.481,13.531,13.531,0,0,1,12.334,10.4Z" transform="translate(0)" fill="#002029"/>
          </g>
          <g id="Group_1591" data-name="Group 1591" transform="translate(0 11.37)">
            <path id="Path_6122" data-name="Path 6122" d="M1.889.1A1.32,1.32,0,0,0,.047,1.239C-.318,2.977,1.511,4.806,2.975,4.212,2.975,4.212,2.632.837,1.889.1Z" transform="translate(0 0)" fill="#fdbb92"/>
          </g>
          <g id="Group_1600" data-name="Group 1600" transform="translate(0.918 12.449)">
            <g id="Group_1595" data-name="Group 1595" transform="translate(0.186 0)">
              <g id="Group_1594" data-name="Group 1594" transform="translate(0)">
                <g id="Group_1593" data-name="Group 1593">
                  <g id="Group_1592" data-name="Group 1592">
                    <path id="Path_6123" data-name="Path 6123" d="M1.488,2.479A.193.193,0,0,1,1.3,2.32,3.222,3.222,0,0,0,.085.354.193.193,0,0,1,.3.033a3.557,3.557,0,0,1,1.383,2.22.194.194,0,0,1-.156.224A.183.183,0,0,1,1.488,2.479Z" fill="#fd967d"/>
                  </g>
                </g>
              </g>
            </g>
            <g id="Group_1599" data-name="Group 1599" transform="translate(0 0.914)">
              <g id="Group_1598" data-name="Group 1598" transform="translate(0 0)">
                <g id="Group_1597" data-name="Group 1597">
                  <g id="Group_1596" data-name="Group 1596">
                    <path id="Path_6124" data-name="Path 6124" d="M.189.625A.193.193,0,0,1,.1.261,2.154,2.154,0,0,1,1.264.017a.193.193,0,0,1-.07.38A1.746,1.746,0,0,0,.283.6.19.19,0,0,1,.189.625Z" fill="#fd967d"/>
                  </g>
                </g>
              </g>
            </g>
          </g>
          <g id="Group_1601" data-name="Group 1601" transform="translate(11.23 11.37)">
            <path id="Path_6125" data-name="Path 6125" d="M1.086.1A1.319,1.319,0,0,1,2.927,1.239C3.294,2.977,1.464,4.806,0,4.212,0,4.212.343.837,1.086.1Z" transform="translate(0 0)" fill="#fdbb92"/>
          </g>
          <g id="Group_1610" data-name="Group 1610" transform="translate(11.414 12.449)">
            <g id="Group_1605" data-name="Group 1605" transform="translate(0 0)">
              <g id="Group_1604" data-name="Group 1604">
                <g id="Group_1603" data-name="Group 1603">
                  <g id="Group_1602" data-name="Group 1602">
                    <path id="Path_6126" data-name="Path 6126" d="M.2,2.479A.193.193,0,0,0,.384,2.32,3.22,3.22,0,0,1,1.6.354.193.193,0,0,0,1.386.033,3.557,3.557,0,0,0,0,2.252a.194.194,0,0,0,.156.224A.18.18,0,0,0,.2,2.479Z" fill="#fd967d"/>
                  </g>
                </g>
              </g>
            </g>
            <g id="Group_1609" data-name="Group 1609" transform="translate(0.45 0.914)">
              <g id="Group_1608" data-name="Group 1608" transform="translate(0 0)">
                <g id="Group_1607" data-name="Group 1607">
                  <g id="Group_1606" data-name="Group 1606">
                    <path id="Path_6127" data-name="Path 6127" d="M1.234.625A.193.193,0,0,0,1.319.261,2.152,2.152,0,0,0,.158.017.193.193,0,1,0,.229.4,1.748,1.748,0,0,1,1.14.6.189.189,0,0,0,1.234.625Z" fill="#fd967d"/>
                  </g>
                </g>
              </g>
            </g>
          </g>
          <g id="Group_1614" data-name="Group 1614" transform="translate(3.581 16.505)">
            <g id="Group_1611" data-name="Group 1611">
              <path id="Path_6128" data-name="Path 6128" d="M7.287,5.166A6.056,6.056,0,0,1,3.644,6.317,6.062,6.062,0,0,1,0,5.166l.086-.859L.513,0H6.68l.293,2.494Z" fill="#fdbb92"/>
            </g>
            <g id="Group_1613" data-name="Group 1613" transform="translate(0.086 0)">
              <g id="Group_1612" data-name="Group 1612">
                <path id="Path_6129" data-name="Path 6129" d="M6.887,2.494C6.183,3.256,4.2,4.809,0,4.307L.427,0H6.594Z" fill="#fd967d"/>
              </g>
            </g>
          </g>
          <g id="Group_1615" data-name="Group 1615" transform="translate(1.343 6.536)">
            <path id="Path_6130" data-name="Path 6130" d="M10.947,6.664c-.128.605-.288,1.227-.48,1.837-.909,2.886-2.548,5.53-5.134,5.01-2.156-.434-3.462-2.665-4.248-5.026C.882,7.877.713,7.26.573,6.664a28.283,28.283,0,0,1-.561-3.35A1.867,1.867,0,0,1,.785,1.587c4.332-3.065,10.127-1.049,10.521.7A13.368,13.368,0,0,1,10.947,6.664Z" transform="translate(0 0)" fill="#fdbb92"/>
          </g>
          <g id="Group_1616" data-name="Group 1616" transform="translate(2.724 13.988)">
            <path id="Path_6131" data-name="Path 6131" d="M2.163.538c0,.305-.477.559-1.074.566S0,.871,0,.566.477.008,1.074,0,2.159.233,2.163.538Z" transform="translate(0 0)" fill="#fd967d"/>
          </g>
          <g id="Group_1617" data-name="Group 1617" transform="translate(9.472 13.988)">
            <path id="Path_6132" data-name="Path 6132" d="M2.163.538c0,.305-.477.559-1.074.566S0,.871,0,.566.477.008,1.074,0,2.159.233,2.163.538Z" transform="translate(0 0)" fill="#fd967d"/>
          </g>
          <g id="Group_1619" data-name="Group 1619" transform="translate(4.929 12.328)">
            <g id="Group_1618" data-name="Group 1618" transform="translate(0 0)">
              <path id="Path_6133" data-name="Path 6133" d="M.6.54c.006.3-.125.549-.292.551S.006.853,0,.551.126,0,.292,0,.6.239.6.54Z" fill="#002029"/>
            </g>
          </g>
          <g id="Group_1621" data-name="Group 1621" transform="translate(3.774 10.965)">
            <g id="Group_1620" data-name="Group 1620" transform="translate(0 0)">
              <path id="Path_6134" data-name="Path 6134" d="M.2,1.129A.261.261,0,0,1,.057.711,1.818,1.818,0,0,1,2.234.172a.261.261,0,1,1-.225.472,1.3,1.3,0,0,0-1.543.393A.261.261,0,0,1,.2,1.129Z" fill="#002029"/>
            </g>
          </g>
          <g id="Group_1623" data-name="Group 1623" transform="translate(9.109 12.328)">
            <g id="Group_1622" data-name="Group 1622" transform="translate(0 0)">
              <path id="Path_6135" data-name="Path 6135" d="M0,.54c-.006.3.125.549.292.551S.6.853.6.551.478,0,.311,0,.005.239,0,.54Z" fill="#002029"/>
            </g>
          </g>
          <g id="Group_1625" data-name="Group 1625" transform="translate(8.485 10.965)">
            <g id="Group_1624" data-name="Group 1624" transform="translate(0 0)">
              <path id="Path_6136" data-name="Path 6136" d="M2.179,1.129A.261.261,0,0,0,2.326.711,1.818,1.818,0,0,0,.149.172.261.261,0,1,0,.374.644a1.3,1.3,0,0,1,1.543.393A.261.261,0,0,0,2.179,1.129Z" fill="#002029"/>
            </g>
          </g>
          <g id="Group_1626" data-name="Group 1626" transform="translate(5.199 16.332)">
            <path id="Path_6137" data-name="Path 6137" d="M2.081.919H2.023A3.931,3.931,0,0,1,.076.317.174.174,0,1,1,.271.03,3.639,3.639,0,0,0,2.029.572H2.08A2.761,2.761,0,0,0,3.765.042a.174.174,0,1,1,.226.264A3.083,3.083,0,0,1,2.081.919Z" transform="translate(0 0)" fill="#fd967d"/>
          </g>
          <g id="Group_1627" data-name="Group 1627" transform="translate(6.857 12.275)">
            <path id="Path_6138" data-name="Path 6138" d="M.678,3.3a2.477,2.477,0,0,1-.546-.075.174.174,0,0,1,.082-.337,1.783,1.783,0,0,0,.577.059C.779,2.664.586,1.361.4.2A.174.174,0,1,1,.741.146c.1.617.424,2.65.395,2.888a.273.273,0,0,1-.119.192A.615.615,0,0,1,.678,3.3Z" transform="translate(0 0)" fill="#fd967d"/>
          </g>
          <g id="Group_1628" data-name="Group 1628" transform="translate(0.977 5.594)">
            <path id="Path_6139" data-name="Path 6139" d="M1.363,5.776a9.2,9.2,0,0,0,.226-1.442A1.539,1.539,0,0,1,2,2.98c.637-.656.341-.542.923-.847A8.561,8.561,0,0,1,7.494,1.7c1.409.367,2.116.572,2.759.694s.576,1.1.706,1.289.012,3.936.321,4.088.88-3.687.46-5.06S7.857-.958,3.621.431-.062,3.326.139,3.885s.645,3.751.935,3.844C1.222,7.778,1.321,6.02,1.363,5.776Z" transform="translate(0 0)" fill="#002029"/>
          </g>
          <g id="Group_1639" data-name="Group 1639" transform="translate(1.227 10.702)">
            <g id="Group_1630" data-name="Group 1630" transform="translate(1.984 0)">
              <g id="Group_1629" data-name="Group 1629" transform="translate(0)">
                <path id="Path_6140" data-name="Path 6140" d="M1.9,3.79a1.9,1.9,0,1,1,1.9-1.9A1.9,1.9,0,0,1,1.9,3.79ZM1.9.231A1.664,1.664,0,1,0,3.559,1.9,1.665,1.665,0,0,0,1.9.231Z" fill="#fff"/>
              </g>
            </g>
            <g id="Group_1632" data-name="Group 1632" transform="translate(6.428 0)">
              <g id="Group_1631" data-name="Group 1631">
                <path id="Path_6141" data-name="Path 6141" d="M1.9,3.79a1.9,1.9,0,1,1,1.9-1.9A1.9,1.9,0,0,1,1.9,3.79ZM1.9.231A1.664,1.664,0,1,0,3.559,1.9,1.665,1.665,0,0,0,1.9.231Z" fill="#fff"/>
              </g>
            </g>
            <g id="Group_1634" data-name="Group 1634" transform="translate(5.542 1.622)">
              <g id="Group_1633" data-name="Group 1633" transform="translate(0 0)">
                <path id="Path_6142" data-name="Path 6142" d="M.116.389A.116.116,0,0,1,.049.179a.83.83,0,0,1,1.032.01A.116.116,0,1,1,.923.358C.614.069.187.365.182.368A.115.115,0,0,1,.116.389Z" fill="#fff"/>
              </g>
            </g>
            <g id="Group_1636" data-name="Group 1636" transform="translate(9.987 0.434)">
              <g id="Group_1635" data-name="Group 1635" transform="translate(0 0)">
                <path id="Path_6143" data-name="Path 6143" d="M.116,1.181a.113.113,0,0,1-.071-.025A.116.116,0,0,1,.024.994C.059.951.871-.079,1.791,0a.116.116,0,0,1-.02.231C.977.166.215,1.127.207,1.137A.116.116,0,0,1,.116,1.181Z" fill="#fff"/>
              </g>
            </g>
            <g id="Group_1638" data-name="Group 1638" transform="translate(0 0.434)">
              <g id="Group_1637" data-name="Group 1637">
                <path id="Path_6144" data-name="Path 6144" d="M2.144,1.181a.115.115,0,0,1-.085-.037A3.028,3.028,0,0,0,.123.231H.116A.116.116,0,1,1,.116,0H.124A3.21,3.21,0,0,1,2.229.987a.116.116,0,0,1-.085.194Z" fill="#fff"/>
              </g>
            </g>
          </g>
        </g>
        <g id="Group_1647" data-name="Group 1647" transform="translate(16.918 22.769)">
          <g id="Group_1641" data-name="Group 1641" transform="translate(0 0)">
            <path id="Path_6145" data-name="Path 6145" d="M15.945,6.892l-.288.567-.295.592-.585,1.2q-.581,1.2-1.144,2.416-1.125,2.426-2.162,4.88c-.687,1.634-1.344,3.274-1.939,4.913q-.45,1.229-.846,2.453c-.267.816-.506,1.627-.719,2.427-.11.4-.2.8-.295,1.188a3.5,3.5,0,0,0-.1.653,4.735,4.735,0,0,0,.179,1.554,8.946,8.946,0,0,0,.744,1.816A15.181,15.181,0,0,0,9.7,33.431a26.755,26.755,0,0,0,3.287,3.6c.614.57,1.255,1.123,1.913,1.656.329.267.663.527,1,.781.168.127.336.251.5.373l.467.333.136.1a3.055,3.055,0,0,1-3.327,5.117l-.361-.213-.325-.2q-.32-.2-.632-.4-.624-.4-1.231-.82-1.214-.839-2.379-1.763a33.475,33.475,0,0,1-4.434-4.185,22.221,22.221,0,0,1-1.958-2.6A16.31,16.31,0,0,1,.773,32.068,12.318,12.318,0,0,1,.006,28.24a11.19,11.19,0,0,1,.123-2.078c.08-.507.158-1.011.253-1.5Q.657,23.182,1,21.766t.734-2.8c.517-1.847,1.087-3.656,1.686-5.448S4.656,9.952,5.316,8.192q.5-1.32,1.011-2.633L6.85,4.245l.269-.659.283-.68a4.718,4.718,0,1,1,8.711,3.626q-.067.161-.144.314Z" fill="#ff5325"/>
          </g>
          <g id="Group_1646" data-name="Group 1646" transform="translate(4.795 27.167)">
            <g id="Group_1643" data-name="Group 1643" transform="translate(0 0)">
              <g id="Group_1642" data-name="Group 1642">
                <path id="Path_6146" data-name="Path 6146" d="M.155.546l1.39.72h0l1.4.726h0l1.5.778,0,0c-.01-.014-.02-.03-.029-.046q-.282-.445-.58-.919L3.174,1.46l-.01-.006-.006,0L.423.033a.288.288,0,0,0-.39.125A.287.287,0,0,0,.155.546Z" fill="#e3390f"/>
              </g>
            </g>
            <g id="Group_1645" data-name="Group 1645" transform="translate(0.141 1.154)">
              <g id="Group_1644" data-name="Group 1644" transform="translate(0 0)">
                <path id="Path_6147" data-name="Path 6147" d="M3.086.769a.29.29,0,0,0-.168-.5L.319,0A.289.289,0,1,0,.26.577l2.6.268A.291.291,0,0,0,3.086.769Z" fill="#e3390f"/>
              </g>
            </g>
          </g>
        </g>
        <g id="Group_1654" data-name="Group 1654" transform="translate(43.037 22.769)">
          <g id="Group_1648" data-name="Group 1648" transform="translate(0 0)">
            <path id="Path_6148" data-name="Path 6148" d="M10.882,2.906l.283.68.268.659.523,1.314q.517,1.314,1.011,2.633.989,2.64,1.892,5.322c.6,1.792,1.169,3.6,1.686,5.448q.39,1.384.734,2.8T17.9,24.66c.094.491.173.994.252,1.5a11.19,11.19,0,0,1,.123,2.078,12.317,12.317,0,0,1-.767,3.829,16.308,16.308,0,0,1-1.581,3.145,22.328,22.328,0,0,1-1.958,2.6,33.509,33.509,0,0,1-4.435,4.185q-1.166.927-2.379,1.763-.607.42-1.23.82c-.208.134-.418.266-.632.4l-.325.2-.361.213a3.055,3.055,0,0,1-3.338-5.11l.146-.1.467-.333q.251-.182.5-.373c.335-.254.669-.514,1-.781.658-.533,1.3-1.086,1.914-1.656a26.751,26.751,0,0,0,3.286-3.6,15.128,15.128,0,0,0,1.207-1.883,8.919,8.919,0,0,0,.744-1.816,4.723,4.723,0,0,0,.179-1.554,3.538,3.538,0,0,0-.1-.653c-.094-.391-.186-.787-.3-1.188-.213-.8-.452-1.611-.719-2.427s-.545-1.634-.846-2.453c-.595-1.639-1.252-3.279-1.939-4.913S5.4,13.281,4.651,11.663Q4.088,10.45,3.507,9.247l-.585-1.2-.295-.592-.288-.567-.018-.036a4.718,4.718,0,0,1,8.412-4.274C10.786,2.685,10.838,2.8,10.882,2.906Z" fill="#ff5325"/>
          </g>
          <g id="Group_1653" data-name="Group 1653" transform="translate(9.041 27.167)">
            <g id="Group_1650" data-name="Group 1650" transform="translate(0 0)">
              <g id="Group_1649" data-name="Group 1649">
                <path id="Path_6149" data-name="Path 6149" d="M4.293.546l-1.39.72h0l-1.4.726h0L0,2.773l0,0,.029-.046q.282-.445.58-.919l.663-.344.01-.006.006,0L4.025.033a.288.288,0,0,1,.39.125A.287.287,0,0,1,4.293.546Z" fill="#e3390f"/>
              </g>
            </g>
            <g id="Group_1652" data-name="Group 1652" transform="translate(1.129 1.154)">
              <g id="Group_1651" data-name="Group 1651" transform="translate(0 0)">
                <path id="Path_6150" data-name="Path 6150" d="M.092.769A.29.29,0,0,1,.26.269L2.859,0a.289.289,0,1,1,.059.576L.319.845A.289.289,0,0,1,.092.769Z" fill="#e3390f"/>
              </g>
            </g>
          </g>
        </g>
        <g id="Group_1658" data-name="Group 1658" transform="translate(21.78 51.936)">
          <g id="Group_1655" data-name="Group 1655" transform="translate(0 0)">
            <path id="Path_6151" data-name="Path 6151" d="M30.23,19.017H5.726a1.482,1.482,0,0,1-1.433-1.1L.05,1.861A1.482,1.482,0,0,1,1.483,0h32.99a1.482,1.482,0,0,1,1.433,1.861L31.662,17.914A1.481,1.481,0,0,1,30.23,19.017Z" fill="#2a5b74"/>
          </g>
          <g id="Group_1656" data-name="Group 1656" transform="translate(15.689 7.906)">
            <circle id="Ellipse_35" data-name="Ellipse 35" cx="2.289" cy="2.289" r="2.289" fill="#173953"/>
          </g>
          <g id="Group_1657" data-name="Group 1657" transform="translate(4.536 18.417)">
            <path id="Path_6152" data-name="Path 6152" d="M24.8,2.5H2.125A1.889,1.889,0,0,1,.3,1.111L0,0H26.921l-.3,1.111A1.889,1.889,0,0,1,24.8,2.5Z" fill="#002029"/>
          </g>
        </g>
        <g id="Group_1659" data-name="Group 1659" transform="translate(31.899 41.92)">
          <path id="Path_6153" data-name="Path 6153" d="M14.863,9.111a16.7,16.7,0,0,1-10.7-4.018A19.634,19.634,0,0,1,.04.436a.29.29,0,0,1,.5-.293A19.437,19.437,0,0,0,4.553,4.661a15.981,15.981,0,0,0,11.71,3.81.29.29,0,0,1,.051.577C15.819,9.091,15.335,9.111,14.863,9.111Z" transform="translate(0 0)" fill="#e3390f"/>
        </g>
      </g>
      <g id="Group_1688" data-name="Group 1688" transform="translate(0 0)">
        <g id="Group_1669" data-name="Group 1669" transform="translate(59.069 0)">
          <g id="Group_1665" data-name="Group 1665" transform="translate(0 12.107)">
            <g id="Group_1662" data-name="Group 1662" transform="translate(0 0)">
              <g id="Group_1661" data-name="Group 1661">
                <path id="Path_6154" data-name="Path 6154" d="M.312,13.242a.309.309,0,0,0,.22-.092L13.15.532a.311.311,0,0,0-.441-.44L.091,12.71a.312.312,0,0,0,.22.532Z" fill="#173953"/>
              </g>
            </g>
            <g id="Group_1664" data-name="Group 1664" transform="translate(4.495 6.191)">
              <g id="Group_1663" data-name="Group 1663" transform="translate(0 0)">
                <path id="Path_6155" data-name="Path 6155" d="M0,1.215A1.215,1.215,0,1,0,1.215,0,1.214,1.214,0,0,0,0,1.215Z" fill="#ff5325"/>
              </g>
            </g>
          </g>
          <g id="Group_1667" data-name="Group 1667" transform="translate(5.544 0)">
            <g id="Group_1666" data-name="Group 1666" transform="translate(0 0)">
              <circle id="Ellipse_36" data-name="Ellipse 36" cx="7.346" cy="7.346" r="7.346" transform="translate(0 13.551) rotate(-67.268)" fill="#ff5325"/>
            </g>
          </g>
          <g id="Group_1668" data-name="Group 1668" transform="translate(10.78 5.359)">
            <path id="Path_6156" data-name="Path 6156" d="M3.433,1.254a3.073,3.073,0,0,0-.912.411l-.91-.91-.971.971.937.938a3.069,3.069,0,0,0-.324.77H0V4.806H1.2a3.067,3.067,0,0,0,.3.853L.5,6.651l.971.971.916-.915a3.073,3.073,0,0,0,1.044.508V8.468H4.806v-1.2a3.046,3.046,0,0,0,1-.378l.824.824L7.6,6.743l-.8-.8a3.076,3.076,0,0,0,.465-1.141h1.2V3.433H7.215a3.075,3.075,0,0,0-.324-.77l.938-.938L6.857.755l-.91.91A3.075,3.075,0,0,0,4.806,1.2V0H3.433Zm.8,1.722A1.259,1.259,0,1,1,2.976,4.234,1.26,1.26,0,0,1,4.234,2.976Z" fill="#fff"/>
          </g>
        </g>
        <g id="Group_1687" data-name="Group 1687" transform="translate(0 0.385)">
          <g id="Group_1674" data-name="Group 1674" transform="translate(10.34 11.722)">
            <g id="Group_1671" data-name="Group 1671" transform="translate(0 0)">
              <g id="Group_1670" data-name="Group 1670">
                <path id="Path_6157" data-name="Path 6157" d="M12.93,13.242a.312.312,0,0,0,.22-.532L.532.091a.311.311,0,0,0-.44.44L12.71,13.15A.311.311,0,0,0,12.93,13.242Z" fill="#173953"/>
              </g>
            </g>
            <g id="Group_1673" data-name="Group 1673" transform="translate(6.317 6.192)">
              <g id="Group_1672" data-name="Group 1672">
                <circle id="Ellipse_37" data-name="Ellipse 37" cx="1.214" cy="1.214" r="1.214" fill="#ff5325"/>
              </g>
            </g>
          </g>
          <g id="Group_1676" data-name="Group 1676" transform="translate(0 0)">
            <g id="Group_1675" data-name="Group 1675">
              <circle id="Ellipse_38" data-name="Ellipse 38" cx="7.346" cy="7.346" r="7.346" transform="translate(0 13.551) rotate(-67.268)" fill="#ff5325"/>
            </g>
          </g>
          <g id="Group_1686" data-name="Group 1686" transform="translate(4.455 4.977)">
            <g id="Group_1681" data-name="Group 1681" transform="translate(0.082 0)">
              <g id="Group_1677" data-name="Group 1677" transform="translate(2.25 0)">
                <path id="Path_6158" data-name="Path 6158" d="M.759,9.2c.53.226,1.224-.069,1.955-.83A10.039,10.039,0,0,0,4.556,5.427a10.033,10.033,0,0,0,.85-3.367C5.45,1.005,5.182.3,4.652.074S3.427.143,2.7.9A10.054,10.054,0,0,0,.855,3.848,10.058,10.058,0,0,0,0,7.215C-.039,8.27.229,8.975.759,9.2ZM4.48.477C5.165.769,5.2,2.8,4.153,5.255S1.616,9.09.931,8.8.212,6.472,1.257,4.02,3.795.184,4.48.477Z" transform="translate(0)" fill="#fff"/>
              </g>
              <g id="Group_1679" data-name="Group 1679" transform="translate(1.348 0.648)">
                <g id="Group_1678" data-name="Group 1678" transform="translate(0 0)">
                  <path id="Path_6159" data-name="Path 6159" d="M5.144,7.74a1.616,1.616,0,0,0,1.714,0c.436-.378.475-1.131.11-2.121a10.045,10.045,0,0,0-1.84-2.945A10.048,10.048,0,0,0,2.473.432C1.544-.069.793-.137.358.241S-.117,1.372.248,2.362a10.04,10.04,0,0,0,1.84,2.945A10.034,10.034,0,0,0,4.743,7.546Q4.95,7.658,5.144,7.74ZM1.891.636c.119.051.244.111.374.181A9.6,9.6,0,0,1,4.8,2.958C6.543,4.972,7.134,6.919,6.571,7.406c-.284.246-.875.157-1.621-.246a9.6,9.6,0,0,1-2.532-2.14,9.608,9.608,0,0,1-1.76-2.81C.365,1.415.36.818.645.572.879.368,1.323.394,1.891.636Z" fill="#fff"/>
                </g>
              </g>
              <g id="Group_1680" data-name="Group 1680" transform="translate(0 2.612)">
                <path id="Path_6160" data-name="Path 6160" d="M1.185,3.514q.194.083.418.155a10.039,10.039,0,0,0,3.453.367,10.028,10.028,0,0,0,3.4-.711c.967-.422,1.484-.972,1.455-1.547S9.313.706,8.308.383A10.044,10.044,0,0,0,4.855.016a10.045,10.045,0,0,0-3.4.711C.489,1.149-.028,1.7,0,2.274.026,2.765.442,3.2,1.185,3.514ZM8.564.944c.568.242.894.545.91.855.037.743-1.777,1.665-4.439,1.8a9.589,9.589,0,0,1-3.3-.346c-.807-.26-1.28-.624-1.3-1s.416-.785,1.192-1.124A9.6,9.6,0,0,1,4.877.453,9.6,9.6,0,0,1,8.174.8C8.314.844,8.445.893,8.564.944Z" transform="translate(0 0)" fill="#fff"/>
              </g>
            </g>
            <g id="Group_1682" data-name="Group 1682" transform="translate(3.949 3.549)">
              <path id="Path_6161" data-name="Path 6161" d="M.087.661A1.088,1.088,0,1,0,1.515.088,1.088,1.088,0,0,0,.087.661Z" transform="translate(0 0)" fill="#fff"/>
            </g>
            <g id="Group_1683" data-name="Group 1683" transform="translate(6.901 0.466)">
              <path id="Path_6162" data-name="Path 6162" d="M.051.388A.639.639,0,1,0,.89.051.639.639,0,0,0,.051.388Z" transform="translate(0 0)" fill="#fff"/>
            </g>
            <g id="Group_1684" data-name="Group 1684" transform="translate(0 3.6)">
              <path id="Path_6163" data-name="Path 6163" d="M.051.389A.639.639,0,1,0,.89.051.639.639,0,0,0,.051.389Z" transform="translate(0 0)" fill="#fff"/>
            </g>
            <g id="Group_1685" data-name="Group 1685" transform="translate(7.657 6.083)">
              <path id="Path_6164" data-name="Path 6164" d="M.051.388A.639.639,0,1,0,.89.051.639.639,0,0,0,.051.388Z" transform="translate(0 0)" fill="#fff"/>
            </g>
          </g>
        </g>
      </g>
    </g>
    <g id="Group_1748" data-name="Group 1748" transform="translate(145.883 127.616)">
      <g id="Group_1690" data-name="Group 1690" transform="translate(9.437 47.602)">
        <ellipse id="Ellipse_39" data-name="Ellipse 39" cx="22.923" cy="2.721" rx="22.923" ry="2.721" fill="#e3d7d5"/>
      </g>
      <g id="Group_1747" data-name="Group 1747" transform="translate(0 0)">
        <g id="Group_1691" data-name="Group 1691" transform="translate(3.208 0)">
          <path id="Path_6165" data-name="Path 6165" d="M7.692,24.635H.579a.579.579,0,0,1,0-1.158H7.113V.579A.579.579,0,0,1,7.692,0h20.99a.579.579,0,0,1,.579.579V5.535a.579.579,0,0,1-1.158,0V1.158H8.271v22.9A.579.579,0,0,1,7.692,24.635Z" transform="translate(0)" fill="#ff5325"/>
        </g>
        <g id="Group_1693" data-name="Group 1693" transform="translate(0 21.86)">
          <g id="Group_1692" data-name="Group 1692" transform="translate(0 0)">
            <path id="Rectangle_198" data-name="Rectangle 198" d="M2.2,0h2.2a0,0,0,0,1,0,0V4.393a0,0,0,0,1,0,0H2.2A2.2,2.2,0,0,1,0,2.2v0A2.2,2.2,0,0,1,2.2,0Z" transform="translate(4.393 4.393) rotate(-180)" fill="#fc8068"/>
          </g>
        </g>
        <g id="Group_1744" data-name="Group 1744" transform="translate(18.735 7.335)">
          <g id="Group_1743" data-name="Group 1743" transform="translate(0 0)">
            <g id="Group_1742" data-name="Group 1742">
              <g id="Group_1741" data-name="Group 1741">
                <g id="Group_1695" data-name="Group 1695">
                  <g id="Group_1694" data-name="Group 1694">
                    <path id="Path_6166" data-name="Path 6166" d="M0,1.588V41.5a1.588,1.588,0,0,0,1.588,1.589H24.72A1.59,1.59,0,0,0,26.308,41.5V1.588A1.588,1.588,0,0,0,24.72,0H1.588A1.588,1.588,0,0,0,0,1.588Z" fill="#ff5325"/>
                  </g>
                </g>
                <g id="Group_1710" data-name="Group 1710" transform="translate(6.115 5.51)">
                  <g id="Group_1697" data-name="Group 1697" transform="translate(0 0)">
                    <g id="Group_1696" data-name="Group 1696">
                      <path id="Path_6167" data-name="Path 6167" d="M1.093,2.186H16.541a1.093,1.093,0,0,0,1.093-1.093h0A1.093,1.093,0,0,0,16.541,0H1.093A1.093,1.093,0,0,0,0,1.093H0A1.093,1.093,0,0,0,1.093,2.186Z" fill="#fc8068"/>
                    </g>
                  </g>
                  <g id="Group_1699" data-name="Group 1699" transform="translate(0 4.98)">
                    <g id="Group_1698" data-name="Group 1698">
                      <rect id="Rectangle_199" data-name="Rectangle 199" width="17.634" height="2.186" rx="1.093" fill="#fc8068"/>
                    </g>
                  </g>
                  <g id="Group_1701" data-name="Group 1701" transform="translate(0 9.961)">
                    <g id="Group_1700" data-name="Group 1700">
                      <path id="Path_6168" data-name="Path 6168" d="M1.093,2.186H16.541a1.093,1.093,0,0,0,1.093-1.093h0A1.093,1.093,0,0,0,16.541,0H1.093A1.093,1.093,0,0,0,0,1.093H0A1.093,1.093,0,0,0,1.093,2.186Z" fill="#fc8068"/>
                    </g>
                  </g>
                  <g id="Group_1703" data-name="Group 1703" transform="translate(0 14.941)">
                    <g id="Group_1702" data-name="Group 1702">
                      <path id="Path_6169" data-name="Path 6169" d="M1.093,2.187H16.541a1.093,1.093,0,0,0,1.093-1.093h0A1.093,1.093,0,0,0,16.541,0H1.093A1.093,1.093,0,0,0,0,1.093H0A1.093,1.093,0,0,0,1.093,2.187Z" fill="#fc8068"/>
                    </g>
                  </g>
                  <g id="Group_1705" data-name="Group 1705" transform="translate(0 19.921)">
                    <g id="Group_1704" data-name="Group 1704">
                      <path id="Path_6170" data-name="Path 6170" d="M1.093,2.186H16.541a1.093,1.093,0,0,0,1.093-1.093h0A1.093,1.093,0,0,0,16.541,0H1.093A1.093,1.093,0,0,0,0,1.093H0A1.093,1.093,0,0,0,1.093,2.186Z" fill="#fc8068"/>
                    </g>
                  </g>
                  <g id="Group_1707" data-name="Group 1707" transform="translate(0 24.902)">
                    <g id="Group_1706" data-name="Group 1706">
                      <path id="Path_6171" data-name="Path 6171" d="M1.093,2.186H16.541a1.093,1.093,0,0,0,1.093-1.093h0A1.093,1.093,0,0,0,16.541,0H1.093A1.093,1.093,0,0,0,0,1.093H0A1.093,1.093,0,0,0,1.093,2.186Z" fill="#fc8068"/>
                    </g>
                  </g>
                  <g id="Group_1709" data-name="Group 1709" transform="translate(0 29.881)">
                    <g id="Group_1708" data-name="Group 1708">
                      <path id="Path_6172" data-name="Path 6172" d="M1.093,2.187H16.541a1.093,1.093,0,0,0,1.093-1.093h0A1.093,1.093,0,0,0,16.541,0H1.093A1.093,1.093,0,0,0,0,1.093H0A1.093,1.093,0,0,0,1.093,2.187Z" fill="#fc8068"/>
                    </g>
                  </g>
                </g>
                <g id="Group_1727" data-name="Group 1727" transform="translate(2.992 5.51)">
                  <g id="Group_1712" data-name="Group 1712" transform="translate(0)">
                    <g id="Group_1711" data-name="Group 1711">
                      <path id="Path_6173" data-name="Path 6173" d="M0,.468A.468.468,0,1,0,.468,0,.468.468,0,0,0,0,.468Z" fill="#173953"/>
                    </g>
                  </g>
                  <g id="Group_1714" data-name="Group 1714" transform="translate(0 1.25)">
                    <g id="Group_1713" data-name="Group 1713">
                      <path id="Path_6174" data-name="Path 6174" d="M0,.468A.468.468,0,1,0,.468,0,.468.468,0,0,0,0,.468Z" fill="#fc8068"/>
                    </g>
                  </g>
                  <g id="Group_1716" data-name="Group 1716" transform="translate(0 4.98)">
                    <g id="Group_1715" data-name="Group 1715" transform="translate(0 0)">
                      <path id="Path_6175" data-name="Path 6175" d="M0,.468A.468.468,0,1,0,.468,0,.468.468,0,0,0,0,.468Z" fill="#fff"/>
                    </g>
                  </g>
                  <g id="Group_1718" data-name="Group 1718" transform="translate(0 6.231)">
                    <g id="Group_1717" data-name="Group 1717">
                      <path id="Path_6176" data-name="Path 6176" d="M0,.468A.468.468,0,1,0,.468,0,.468.468,0,0,0,0,.468Z" fill="#fc8068"/>
                    </g>
                  </g>
                  <g id="Group_1720" data-name="Group 1720" transform="translate(0 14.941)">
                    <g id="Group_1719" data-name="Group 1719">
                      <path id="Path_6177" data-name="Path 6177" d="M0,.468A.468.468,0,1,0,.468,0,.468.468,0,0,0,0,.468Z" fill="#fff"/>
                    </g>
                  </g>
                  <g id="Group_1722" data-name="Group 1722" transform="translate(0 16.191)">
                    <g id="Group_1721" data-name="Group 1721">
                      <path id="Path_6178" data-name="Path 6178" d="M0,.468A.468.468,0,1,0,.468,0,.468.468,0,0,0,0,.468Z" fill="#fc8068"/>
                    </g>
                  </g>
                  <g id="Group_1724" data-name="Group 1724" transform="translate(0 9.961)">
                    <g id="Group_1723" data-name="Group 1723">
                      <path id="Path_6179" data-name="Path 6179" d="M0,.468A.468.468,0,1,0,.468,0,.468.468,0,0,0,0,.468Z" fill="#173953"/>
                    </g>
                  </g>
                  <g id="Group_1726" data-name="Group 1726" transform="translate(0 11.211)">
                    <g id="Group_1725" data-name="Group 1725">
                      <path id="Path_6180" data-name="Path 6180" d="M0,.468A.468.468,0,1,0,.468,0,.468.468,0,0,0,0,.468Z" fill="#fc8068"/>
                    </g>
                  </g>
                </g>
                <g id="Group_1740" data-name="Group 1740" transform="translate(2.992 25.432)">
                  <g id="Group_1729" data-name="Group 1729" transform="translate(0)">
                    <g id="Group_1728" data-name="Group 1728">
                      <path id="Path_6181" data-name="Path 6181" d="M0,.468A.468.468,0,1,0,.468,0,.468.468,0,0,0,0,.468Z" fill="#173953"/>
                    </g>
                  </g>
                  <g id="Group_1731" data-name="Group 1731" transform="translate(0 1.25)">
                    <g id="Group_1730" data-name="Group 1730">
                      <path id="Path_6182" data-name="Path 6182" d="M0,.468A.468.468,0,1,0,.468,0,.468.468,0,0,0,0,.468Z" fill="#fc8068"/>
                    </g>
                  </g>
                  <g id="Group_1733" data-name="Group 1733" transform="translate(0 4.98)">
                    <g id="Group_1732" data-name="Group 1732">
                      <path id="Path_6183" data-name="Path 6183" d="M0,.468A.468.468,0,1,0,.468,0,.468.468,0,0,0,0,.468Z" fill="#fff"/>
                    </g>
                  </g>
                  <g id="Group_1735" data-name="Group 1735" transform="translate(0 6.231)">
                    <g id="Group_1734" data-name="Group 1734" transform="translate(0 0)">
                      <path id="Path_6184" data-name="Path 6184" d="M0,.468A.468.468,0,1,0,.468,0,.468.468,0,0,0,0,.468Z" fill="#fc8068"/>
                    </g>
                  </g>
                  <g id="Group_1737" data-name="Group 1737" transform="translate(0 9.96)">
                    <g id="Group_1736" data-name="Group 1736">
                      <path id="Path_6185" data-name="Path 6185" d="M0,.468A.468.468,0,1,0,.468,0,.468.468,0,0,0,0,.468Z" fill="#173953"/>
                    </g>
                  </g>
                  <g id="Group_1739" data-name="Group 1739" transform="translate(0 11.211)">
                    <g id="Group_1738" data-name="Group 1738">
                      <path id="Path_6186" data-name="Path 6186" d="M0,.468A.468.468,0,1,0,.468,0,.468.468,0,0,0,0,.468Z" fill="#fc8068"/>
                    </g>
                  </g>
                </g>
              </g>
            </g>
          </g>
        </g>
        <g id="Group_1746" data-name="Group 1746" transform="translate(23.753 5.535)">
          <g id="Group_1745" data-name="Group 1745" transform="translate(0 0)">
            <path id="Path_6187" data-name="Path 6187" d="M0,1.8H16.273a1.8,1.8,0,0,0-1.8-1.8H1.8A1.8,1.8,0,0,0,0,1.8Z" fill="#173953"/>
          </g>
        </g>
      </g>
    </g>
  </g>
</svg>
