<svg width="105" height="110" viewBox="0 0 105 110" fill="none" xmlns="http://www.w3.org/2000/svg">
<path d="M65.1666 61H63.9595L64.8131 61.8536L73.4287 70.4692L55.0225 88.8754L39.7094 73.5623L39.3556 73.2085L39.0021 73.5625L1.95736 110.647L1.60419 111L1.95755 111.354L7.48005 116.876L7.83361 117.23L8.18716 116.876L39.3558 85.7071L54.6689 101.02L55.0222 101.373L55.3757 101.021L79.6972 76.7377L88.3131 85.3536L89.1666 86.2071V85V61.5V61H88.6666H65.1666Z" fill="white" stroke="white"/>
<path d="M89.1042 44.2434L89.8813 47.2045L86.1513 45.0509L89.1042 44.2434Z" fill="white"/>
<path d="M72.8953 9.6561L76.4303 23.1265L59.462 13.3298L72.8953 9.6561Z" fill="white"/>
<path d="M97.0201 14.4444L97.7638 16.556L94.1939 15.0203L97.0201 14.4444Z" fill="white"/>
<path d="M102.411 7.68849L103.198 9.92358L99.4193 8.29806L102.411 7.68849Z" fill="white"/>
<path d="M92.3906 2.7117L94.2446 7.9759L85.3451 4.14739L92.3906 2.7117Z" fill="white"/>
<path d="M89.367 26.9235L92.5773 36.0387L77.1677 29.4095L89.367 26.9235Z" fill="white"/>
</svg>
