<svg width="133" height="144" viewBox="0 0 133 144" fill="none" xmlns="http://www.w3.org/2000/svg">
<path d="M93.5801 99.9274C97.7199 97.1646 101.348 93.7026 104.301 89.6961L112.856 95.6696C112.461 96.9822 112.547 98.3923 113.098 99.6474C113.649 100.902 114.628 101.92 115.861 102.519C117.094 103.117 118.5 103.256 119.827 102.912C121.154 102.568 122.314 101.763 123.101 100.64C123.888 99.5179 124.249 98.1521 124.12 96.7876C123.991 95.4231 123.38 94.1491 122.397 93.194C121.414 92.2389 120.123 91.6652 118.756 91.5756C117.388 91.486 116.033 91.8864 114.934 92.7051L106.327 86.6955C109.028 82.295 110.903 77.4385 111.86 72.3648L121.825 74.2537C122.068 75.1919 122.623 76.0194 123.398 76.6C124.174 77.1805 125.125 77.4793 126.093 77.4472C127.061 77.415 127.99 77.0538 128.725 76.4232C129.461 75.7925 129.96 74.93 130.139 73.9779C130.319 73.0257 130.169 72.0408 129.713 71.1855C129.258 70.3302 128.525 69.6556 127.635 69.273C126.745 68.8903 125.75 68.8224 124.817 69.0804C123.883 69.3385 123.065 69.9072 122.497 70.6926L112.392 68.7786C112.756 65.2232 112.675 61.6362 112.152 58.1008L122.788 56.6602C123.348 57.6589 124.239 58.4311 125.307 58.8438C126.374 59.2564 127.553 59.2837 128.639 58.921C129.725 58.5582 130.65 57.8281 131.256 56.8564C131.861 55.8847 132.109 54.7323 131.956 53.5976C131.803 52.4629 131.259 51.4171 130.418 50.6402C129.577 49.8633 128.492 49.404 127.349 49.3414C126.205 49.2789 125.076 49.617 124.156 50.2975C123.235 50.9779 122.58 51.9582 122.305 53.0695L111.465 54.5388C110.185 49.1205 107.852 44.0067 104.599 39.4882L112.317 34.2077C112.735 34.3595 113.184 34.4027 113.623 34.333C114.062 34.2633 114.476 34.0831 114.827 33.8093C115.249 33.5351 115.596 33.1597 115.836 32.7172C116.076 32.2747 116.202 31.7791 116.202 31.2756C116.164 30.5199 115.838 29.8073 115.293 29.2834C114.747 28.7594 114.021 28.4636 113.265 28.4563C112.508 28.4489 111.777 28.7307 111.221 29.244C110.665 29.7572 110.326 30.4633 110.273 31.2181L102.36 36.633C99.292 33.0492 95.6543 29.9959 91.593 27.5959L100.178 13.646C100.872 13.6163 101.538 13.3645 102.078 12.9277C102.618 12.4909 103.004 11.8923 103.178 11.22C103.352 10.5476 103.306 9.83703 103.046 9.19293C102.786 8.54883 102.326 8.0052 101.734 7.64216C101.142 7.27912 100.449 7.11585 99.7568 7.17635C99.0649 7.23686 98.4107 7.51795 97.8905 7.97826C97.3704 8.43856 97.0118 9.05376 96.8675 9.7332C96.7233 10.4126 96.8011 11.1205 97.0894 11.7524L88.3959 25.8783C82.6431 23.1153 76.3422 21.6822 69.9603 21.6854V15.5062C71.7053 15.0644 73.2289 14.0003 74.2445 12.5141C75.2601 11.0278 75.6977 9.22172 75.4751 7.43544C75.2525 5.64915 74.385 4.00574 73.0357 2.81417C71.6864 1.6226 69.9483 0.964966 68.1482 0.964966C66.3481 0.964966 64.61 1.6226 63.2608 2.81417C61.9115 4.00574 61.044 5.64915 60.8214 7.43544C60.5988 9.22172 61.0364 11.0278 62.052 12.5141C63.0676 14.0003 64.5911 15.0644 66.3362 15.5062V21.8392C57.6239 22.5584 49.3452 25.9464 42.6283 31.5414L32.3452 20.2605C32.9242 19.1557 33.0954 17.8822 32.8287 16.6637C32.5619 15.4452 31.8743 14.3597 30.8867 13.5978C29.899 12.8359 28.6745 12.4465 27.4282 12.4979C26.1819 12.5493 24.9936 13.0382 24.072 13.8788C23.1504 14.7194 22.5545 15.8579 22.389 17.0942C22.2235 18.3305 22.499 19.5856 23.167 20.639C23.835 21.6924 24.8529 22.4767 26.0418 22.8541C27.2307 23.2315 28.5146 23.1778 29.6678 22.7026L39.9427 33.977C35.3173 38.5337 31.7916 44.0849 29.6336 50.2087L18.1247 47.1747C18.1312 47.0487 18.1442 46.9255 18.1442 46.7985C18.1488 44.6991 17.3829 42.671 15.9916 41.0988C14.6004 39.5266 12.6805 38.5195 10.5961 38.2687C8.51175 38.0179 6.40781 38.5408 4.68329 39.7381C2.95878 40.9355 1.73364 42.724 1.24018 44.7646C0.746711 46.8052 1.01925 48.956 2.00612 50.809C2.99299 52.662 4.62559 54.0884 6.59425 54.8177C8.56291 55.547 10.7307 55.5285 12.6867 54.7657C14.6426 54.0029 16.2506 52.5489 17.2058 50.6793L28.5682 53.6744C26.9466 59.9791 26.7775 66.5697 28.0735 72.9493L17.0158 76.4299C16.3504 75.6948 15.4537 75.2094 14.4744 75.0541C13.4951 74.8989 12.4922 75.0832 11.6321 75.5764C10.772 76.0697 10.1064 76.8422 9.74577 77.7658C9.38516 78.6894 9.35122 79.7085 9.64959 80.654C9.94796 81.5996 10.5607 82.4147 11.3861 82.9641C12.2115 83.5134 13.1999 83.764 14.1873 83.6743C15.1748 83.5845 16.1018 83.1598 16.8146 82.4706C17.5275 81.7814 17.9832 80.8692 18.1062 79.8854L28.9582 76.4688C30.8549 82.8899 34.2368 88.7742 38.8301 93.6454L31.2492 102.488C29.3239 101.421 27.0714 101.107 24.9274 101.605C22.7835 102.103 20.9004 103.378 19.6423 105.184C18.3842 106.99 17.8405 109.199 18.1163 111.382C18.3922 113.566 19.468 115.57 21.1357 117.006C22.8033 118.443 24.9445 119.21 27.1449 119.159C29.3453 119.108 31.4488 118.243 33.0485 116.731C34.6481 115.22 35.6304 113.168 35.8053 110.974C35.9801 108.78 35.3352 106.599 33.9951 104.853L41.4249 96.1856C47.2012 101.372 54.2861 104.879 61.9126 106.328L60.6156 119.283C59.6002 119.58 58.71 120.201 58.0813 121.051C57.4525 121.902 57.1198 122.935 57.1341 123.993C57.1647 125.236 57.6673 126.421 58.5399 127.306C59.4124 128.192 60.5895 128.713 61.8319 128.762C62.925 128.794 63.9965 128.454 64.8718 127.798C65.7471 127.143 66.3744 126.21 66.6516 125.152C66.9287 124.095 66.8393 122.974 66.398 121.974C65.9566 120.973 65.1893 120.152 64.2212 119.643L65.4996 106.859C69.5092 107.271 73.5569 107.12 77.5245 106.409C81.6955 105.64 86.0014 106.145 89.881 107.859C93.7606 109.573 97.0341 112.415 99.2748 116.016L110.271 142.827" stroke="#00B2ED" stroke-width="1.85283" stroke-linecap="round" stroke-linejoin="round"/>
<path d="M78.4524 91.6899C81.7872 90.6802 83.6721 87.1583 82.6624 83.8235C81.6527 80.4887 78.1308 78.6039 74.796 79.6136C71.4612 80.6233 69.5763 84.1452 70.586 87.4799C71.5957 90.8147 75.1176 92.6996 78.4524 91.6899Z" stroke="#00B2ED" stroke-width="1.85283" stroke-linecap="round" stroke-linejoin="round"/>
<path d="M57.4539 42.172C55.737 42.1722 54.0586 42.6815 52.631 43.6355C51.2035 44.5896 50.0909 45.9455 49.434 47.5318C48.7771 49.1182 48.6053 50.8637 48.9404 52.5477C49.2754 54.2316 50.1024 55.7784 51.3165 56.9925C52.5307 58.2065 54.0775 59.0332 55.7615 59.3681C57.4455 59.703 59.191 59.531 60.7773 58.8739C62.3636 58.2168 63.7194 57.1041 64.6733 55.6765C65.6272 54.2488 66.1363 52.5704 66.1363 50.8534C66.1336 48.5517 65.2179 46.3449 63.5902 44.7174C61.9625 43.0898 59.7557 42.1744 57.4539 42.172Z" stroke="#00B2ED" stroke-width="1.85283" stroke-linecap="round" stroke-linejoin="round"/>
<path d="M94.7579 58.6631C94.0518 58.6631 93.3616 58.8725 92.7745 59.2648C92.1873 59.657 91.7296 60.2146 91.4594 60.8669C91.1891 61.5193 91.1183 62.2371 91.256 62.9297C91.3937 63.6223 91.7337 64.2585 92.2329 64.7578C92.7321 65.2572 93.3683 65.5973 94.0608 65.7352C94.7534 65.8731 95.4712 65.8025 96.1237 65.5324C96.7761 65.2623 97.3337 64.8048 97.7261 64.2178C98.1185 63.6307 98.3281 62.9405 98.3283 62.2344C98.3273 61.2877 97.9509 60.38 97.2816 59.7105C96.6122 59.041 95.7046 58.6643 94.7579 58.6631Z" stroke="#00B2ED" stroke-width="1.85283" stroke-linecap="round" stroke-linejoin="round"/>
</svg>
