<svg width="146" height="97" viewBox="0 0 146 97" fill="none" xmlns="http://www.w3.org/2000/svg">
<path d="M100.797 75.9479C100.797 75.9479 116.736 80.2204 124.409 78.1199C124.409 78.1199 127.702 73.0239 128.813 73.9888C130.365 75.4027 131.658 77.0767 132.634 78.9355C133.645 80.95 146.386 84.2303 145.063 85.1914C143.739 86.1525 137.056 87.4893 134.931 86.9425C132.087 86.0498 129.193 85.3238 126.264 84.768C119.917 83.4739 105.563 84.4776 102.29 84.8805C99.017 85.2834 55.9393 90.5567 46.1408 82.2048C36.3424 73.8529 42.5251 57.7806 51.9726 58.6839C61.42 59.5872 65.754 76.8361 43.7623 82.8924C43.7623 82.8924 39.9819 83.504 39.2053 82.3425C38.8025 81.7397 32.3522 77.6756 26.1458 71.7987C20.3878 66.3499 14.8371 59.3436 14.4975 52.0942C14.4975 52.0942 10.9172 43.1343 25.8828 45.9109C25.8828 45.9109 40.4989 51.1454 34.5198 60.0784C28.5407 69.0114 6.5842 50.7891 9.21419 46.1469C11.8442 41.5047 28.2025 29.4126 26.6648 17.3553C27.2117 15.2318 26.8571 12.6501 28.3771 12.0217C29.8971 11.3932 30.7826 14.1127 31.2046 12.6933C31.6267 11.274 28.2377 0.0840963 26.2812 1.93711L26.4611 4.50929C26.4611 4.50929 20.5077 -3.58931 11.5522 5.03136C11.5522 5.03136 9.47321 7.61004 9.45717 9.86959C9.43976 11.6869 9.27607 13.4999 8.9677 15.2909C8.83078 15.8218 7.84163 16.5863 8.56987 17.0567C9.11005 17.3508 9.72152 17.4886 10.3357 17.4545C10.3357 17.4545 9.60867 24.4572 10.647 24.3846C11.6854 24.3119 31.1786 22.2535 32.6355 30.6665C32.6355 30.6665 33.2994 32.7053 31.4178 35.6175C29.5362 38.5296 23.1394 53.9223 25.5759 76.3446C25.5759 76.3446 29.8239 92.3644 15.2763 95.564C15.2763 95.564 -10.1353 95.003 8.62153 89.8682" stroke="#00B2ED" stroke-width="1.66945" stroke-linecap="round" stroke-linejoin="round"/>
</svg>
