<svg width="105" height="153" viewBox="0 0 105 153" fill="none" xmlns="http://www.w3.org/2000/svg">
<path d="M1.88281 151.017C11.538 147.578 20.7062 142.902 29.1578 137.104C42.4788 127.796 44.1418 119.647 46.9438 111.24C52.1438 95.6398 54.6438 95.4508 54.6438 95.4508C54.6438 95.4508 55.0598 90.3418 55.5618 85.6668C55.9618 81.9258 56.4198 78.4669 56.7618 78.1209C57.5318 77.3509 43.4758 74.2698 43.6678 76.5808C43.8598 78.8918 44.6308 82.7428 54.0678 85.6308C54.0678 85.6308 58.6758 75.8108 58.3938 74.2698C58.1118 72.7288 58.1118 59.8289 59.2668 61.5619C59.942 62.5302 60.3513 63.6588 60.4538 64.8348C60.4538 64.8348 63.3108 61.3688 64.0808 69.4558C64.1178 69.8458 64.1548 70.2508 64.1918 70.6688C64.6038 75.3248 65.2768 86.2279 65.2768 86.2279L65.6208 92.3688C65.6208 92.3688 58.8818 94.9158 59.6518 94.1238C60.4218 93.3318 71.7828 90.0578 73.9008 92.3688C76.0188 94.6798 85.2618 102.607 84.3008 104.805C83.3398 107.003 80.8348 114.127 80.2578 113.935C79.6808 113.743 79.1028 109.314 77.5578 107.966C76.0128 106.618 77.1728 103.345 72.5518 103.345C67.9308 103.345 56.6328 101.997 60.4518 103.537C64.2708 105.077 71.5878 101.804 72.1658 101.804C72.7438 101.804 79.6758 114.127 80.0608 116.245C80.4458 118.363 80.8308 122.214 80.8308 122.214C80.8308 122.214 78.3308 130.686 77.1728 130.686C76.0148 130.686 71.3968 127.986 71.5888 124.524C71.7808 121.062 64.4648 121.058 62.7318 122.213C60.9988 123.368 59.6508 132.418 57.3408 138.772C55.0308 145.126 50.0988 152.381 51.0618 147.182C51.6296 144.378 52.9412 141.778 54.8588 139.655C56.7765 137.532 59.2298 135.963 61.9618 135.114C68.1238 132.996 70.7568 130.914 71.3968 128.76C72.0368 126.606 77.3658 133.766 78.1358 132.418C78.9058 131.07 78.7138 122.018 82.3718 118.939C86.0298 115.86 90.0718 110.467 88.3408 108.349C86.6098 106.231 85.9408 106.422 84.4898 107.194C83.0388 107.966 86.2228 102.188 84.8748 101.417C83.5268 100.646 98.9318 88.8878 101.627 75.3168C104.322 61.7458 111.255 16.4988 72.9368 3.21685C34.6188 -10.0651 72.1668 42.3529 72.5518 44.8559C72.9368 47.3589 72.3588 51.8958 68.8448 51.0178C64.9938 50.0548 68.6038 48.0329 67.0638 47.2629C65.5238 46.4929 63.4058 53.0398 59.5548 51.3068C55.7038 49.5738 58.2548 46.8779 54.9338 47.0229C52.7408 47.1229 54.6448 50.4408 52.5268 51.5958C50.4088 52.7508 46.3578 45.4058 49.4388 43.0958C52.5198 40.7858 56.5698 62.0109 57.5328 62.7159C58.4958 63.4209 56.9418 54.8209 58.3928 57.1319C59.8438 59.4429 59.4588 64.0638 62.1538 63.2938C63.8871 62.884 65.6993 62.9543 67.3957 63.4971C69.0921 64.04 70.6084 65.0349 71.7818 66.3749C74.2818 69.4559 78.1358 73.1138 76.4028 74.0748C74.6698 75.0358 70.0488 73.8829 69.2788 72.5349C68.9051 71.9084 68.3657 71.3972 67.7202 71.0575C67.0746 70.7179 66.3478 70.563 65.6198 70.6099C64.1908 70.6679 64.0798 77.7339 65.6198 78.3099C67.1598 78.8859 69.8558 75.2159 71.9738 75.3189C74.0918 75.4219 77.3648 74.0919 76.9798 76.1049C76.5948 78.1179 75.6318 84.0869 67.1598 86.0129" stroke="#00B2ED" stroke-width="2" stroke-miterlimit="10" stroke-linecap="square" stroke-linejoin="round"/>
</svg>
