<svg width="130" height="105" viewBox="0 0 130 105" fill="none" xmlns="http://www.w3.org/2000/svg">
<path d="M1 100.972C1 100.972 49.8531 90.5326 48.9987 70.9058C48.1442 51.279 33.5054 28.565 42.8059 17.6225C52.1065 6.68013 55.0352 -0.213202 60.0524 1.09809C65.0695 2.40938 66.2427 2.72812 67.311 5.2797C68.3792 7.83127 72.6524 8.18633 70.0172 9.93472C67.382 11.6831 56.4396 17.7567 55.6198 25.7751C54.8001 33.7936 54.8829 45.1052 52.9318 42.3225C50.9806 39.5398 56.4033 20.8621 61.7344 18.2387C67.0656 15.6154 69.887 8.19106 74.2004 8.20684C78.5138 8.22262 86.0233 7.59539 86.7689 8.55164C87.5145 9.50789 91.6188 26.5996 85.8308 23.1202C85.4304 22.8799 85.0486 22.6101 84.6884 22.3131C80.1359 18.5543 80.7868 11.7241 82.3056 11.1095C83.942 10.4484 82.0413 20.2325 85.5357 25.5021C89.0301 30.7718 81.6342 20.1047 75.3578 22.3028C69.0814 24.5009 65.1318 31.2696 68.3011 32.1801C71.4705 33.0906 71.0815 27.8596 76.5066 30.0854C81.9317 32.3111 102.655 40.7477 107.04 77.9136C107.04 77.9136 112.776 103.573 100.792 103.695C88.8069 103.817 37.3935 108.86 26.1537 81.038C14.9138 53.216 22.9062 52.8231 23.8656 52.0775C24.825 51.3319 29.1115 47.3712 39.5608 53.6736C50.0101 59.976 58.0657 58.4446 51.4067 54.2748C44.7476 50.105 30.052 50.9429 22.286 48.0821C14.52 45.2212 9.01135 43.6764 8.47878 41.0183C7.94622 38.3602 9.96446 22.0267 13.3516 26.7645C16.7387 31.5024 17.7928 41.1343 13.1354 41.0767C8.47807 41.0191 12.0127 27.8091 16.0957 28.3141C20.1787 28.819 26.4614 35.2966 27.6543 36.8264C28.3988 37.7878 29.0818 38.7953 29.6993 39.8427C29.6993 39.8427 21.774 28.4971 22.9402 26.0505C24.1063 23.6038 29.6283 18.0676 31.4406 21.5738C33.2529 25.0801 27.4784 32.6582 26.1371 30.9375C24.7958 29.2167 21.3329 26.7267 26.5544 24.7692C31.7759 22.8117 34.2075 25.9819 37.2152 29.3698C40.2228 32.7577 42.2805 33.1056 43.2407 35.1254C44.2009 37.1452 38.8918 43.7435 48.145 45.7514C57.3982 47.7594 58.5414 44.1001 62.1163 45.9242C65.6912 47.7483 69.5517 48.7559 70.4582 54.6496C71.3648 60.5433 71.6575 63.846 72.7305 67.701C73.8035 71.556 78.5974 78.8864 84.0848 79.2201C89.5722 79.5539 90.9489 78.17 92.4851 79.7409C94.0212 81.3117 97.8029 81.4348 95.4249 83.9051C93.0469 86.3754 90.8622 82.9339 86.6388 80.918C82.4153 78.9021 81.1293 79.3732 80.0239 79.9271C78.9185 80.4809 75.787 76.4658 73.914 74.8523C72.0409 73.2388 68.7415 70.5847 69.3379 74.1138C69.9344 77.643 68.0455 77.5854 69.9414 80.4075C71.8374 83.2297 74.415 86.1435 73.5889 88.6327C72.7629 91.1219 73.0224 94.6085 71.2109 91.1022C69.3994 87.596 69.3111 85.5115 68.3935 83.1524C67.4759 80.7934 71.0468 79.8529 67.4759 80.7934C63.9049 81.7338 65.3496 81.221 64.3097 82.6475C63.2698 84.0739 65.3954 83.6455 63.2698 84.0732C61.1443 84.5008 59.2673 80.1227 57.9971 84.803C56.7268 89.4832 52.6241 90.531 59.2594 92.7331C65.8948 94.9351 67.3197 93.2119 70.8749 96.5888C74.43 99.9657 88.7722 103.54 93.9369 94.8996C99.1016 86.2594 95.7105 78.757 99.3895 78.3483C103.069 77.9396 124.314 73.3777 128.718 94.8996" stroke="#00B2ED" stroke-width="1.57797" stroke-linecap="round" stroke-linejoin="round"/>
</svg>
