

<svg width="123" height="119" viewBox="0 0 123 119" fill="none" xmlns="http://www.w3.org/2000/svg">
<path d="M106.922 27.9123C106.922 27.9123 101.165 33.2939 102.399 33.2939C103.633 33.2939 108.8 32.5436 108.8 34.1694C108.8 35.7952 98.5379 43.3052 98.2875 42.9296C98.0371 42.554 104.045 36.4221 103.919 35.5457C103.793 34.6694 96.9104 36.1717 96.4096 35.5457C95.9088 34.9197 102.855 28.7252 102.855 28.7252C102.855 28.7252 76.6564 28.8273 71.6503 28.5537C63.361 28.0975 64.7415 19.4343 68.036 16.3559C71.7995 12.8402 80.5983 18.4044 76.857 19.1513C73.1158 19.8982 72.1065 9.80463 78.5214 6.52043C83.524 3.96253 88.5978 5.17674 90.3257 10.1836C90.9697 12.0495 88.5421 12.6892 88.2351 10.2317C87.6915 5.8876 92.9256 1.70905 98.7943 1.70905C105.406 1.70905 108.403 7.8384 107.957 9.99757C107.271 13.3324 101.943 10.4357 108.081 7.38564C115.184 3.85535 123.237 15.9674 116.393 20.0843C113.974 21.542 112.449 19.2165 115.906 18.419C123.385 16.6903 124.871 30.6246 115.708 30.6246H89.1998C89.1998 30.6246 83.4966 36.1442 84.7305 36.1442C85.9645 36.1442 91.1317 35.3939 91.1317 37.0206C91.1317 38.6473 80.8693 46.1563 80.6189 45.7807C80.3685 45.4052 86.3761 39.2732 86.2509 38.3969C86.1257 37.5205 79.2417 39.0229 78.7418 38.3969C78.2419 37.7709 85.1876 31.5764 85.1876 31.5764C85.1876 31.5764 70.2261 30.8998 64.5177 32.0754C59.2013 33.1705 52.4862 43.2769 77.1872 59.2923C122.058 88.3844 105.341 132.494 89.9553 106.298C81.2817 91.5314 90.8985 81.4147 85.3548 50.3786C79.8111 19.3425 62.5215 10.6973 46.1168 11.3627C29.7121 12.0281 18.6281 44.1721 26.3876 39.9601C34.147 35.7481 44.1214 45.5021 48.9071 54.1482C53.6927 62.7943 58.0882 83.4101 65.1823 92.0562C72.2763 100.702 83.3543 109.806 80.7029 114.668C78.0515 119.53 66.9581 117.107 64.1876 108.794C61.8784 101.864 63.1903 92.8322 62.5249 93.1649C61.8595 93.4977 53.5641 110.146 43.0684 110.287C35.7883 110.386 32.7656 106.546 30.6545 103.161C27.5504 98.1873 29.454 97.0417 32.7793 99.85C34.1393 100.999 35.9195 104.191 40.4642 104.246C45.0089 104.301 47.9835 101.234 49.184 100.108C50.0707 99.2772 52.3928 96.468 51.1563 97.3744C49.4593 98.6229 46.7779 101.147 40.959 100.81C35.14 100.473 33.6643 99.1528 33.1806 98.815C32.0719 98.0432 29.5414 96.3951 31.4356 97.3349C32.9851 98.1067 36.2127 98.6032 38.3908 99.1665C39.0219 99.3295 39.4729 99.5953 39.6839 99.5953C39.93 99.5953 40.6142 99.3963 41.1416 99.3921C42.3421 99.3818 43.7304 99.5455 44.4481 99.4298C46.2857 99.1322 49.521 98.2293 51.0431 96.492C52.6011 94.7187 52.7306 88.7034 45.4454 88.4007C42.7871 88.2901 47.7735 88.844 45.4454 91.9473C43.1173 95.0506 40.5688 96.7141 38.684 95.8266C36.7993 94.9391 33.2415 92.9274 34.3606 89.8413C35.3775 87.039 36.7993 85.7408 37.0188 81.75C37.2383 77.7592 36.2016 74.8343 33.804 74.4347C30.4787 73.8808 29.1813 77.093 29.55 77.0527C29.9188 77.0124 29.55 75.0015 29.0355 75.0255C28.3427 75.0581 27.1233 77.0252 27.456 77.0252C27.7887 77.0252 27.7261 75.2845 27.2168 75.2476C26.7074 75.2108 25.23 76.7808 25.6364 76.8366C26.0772 76.8966 26.4493 75.0264 25.9323 75.0264C25.4152 75.0264 23.4198 76.6153 23.8631 76.6556C24.3064 76.6959 25.2677 74.8823 24.6349 74.698C24.002 74.5136 22.2982 75.769 22.4911 75.7964C22.6841 75.8239 23.7662 74.4673 23.4344 73.94C23.1025 73.4126 20.8019 74.6328 21.2452 74.6054C21.6885 74.5779 22.9353 73.1922 22.8521 72.7763C22.769 72.3605 20.145 72.8501 20.3303 72.9984C20.5378 73.1648 22.5194 72.3613 22.3805 71.7233C22.2416 71.0854 20.9116 69.5342 20.7453 69.1466C20.5789 68.759 17.8358 65.4594 18.9445 64.4081C20.0533 63.3568 24.598 65.7938 25.8722 66.8468C28.1544 68.3184 30.6632 69.4045 33.2981 70.0615C34.6281 70.1721 38.2304 42.5171 26.9244 44.8452C15.6183 47.1733 17.1147 62.5799 16.6165 67.5688C16.1183 72.5577 17.4474 82.8647 21.9329 89.8482C26.4185 96.8316 29.4205 107.246 24.8149 113.126C19.6048 119.776 -3.56035 118.224 2.93687 94.9468C8.18473 76.1446 3.90498 50.0794 15.2848 30.6589C21.716 19.683 28.8537 14.8364 32.8196 13.7422C35.3835 13.0348 19.9178 27.6696 20.2728 38.3068C20.4392 43.2949 10.9621 59.324 9.13311 73.5549C6.90363 90.9217 22.1464 104.008 14.3981 114.899" stroke="#00B2ED" stroke-width="1.71499" stroke-linecap="round" stroke-linejoin="round"/>
</svg>
