<svg width="137" height="105" viewBox="0 0 137 105" fill="none" xmlns="http://www.w3.org/2000/svg">
<path d="M135.667 90.4288C135.667 90.4288 136.636 90.5623 126.821 90.9911C117.006 91.4198 129.935 94.8283 127.988 96.1696C126.041 97.511 132.629 102.515 127.721 98.0533C122.814 93.5912 111.714 94.3829 101.002 100.185C90.2892 105.986 70.2113 106.994 70.8803 87.7511C71.3566 74.0538 74.4364 67.2803 76.1724 64.5141C76.5083 63.944 76.9058 63.4125 77.3577 62.9292C77.3577 62.9292 76.748 48.5871 75.822 51.2965C74.8961 54.0059 85.8272 35.5046 88.2813 32.8202C90.7355 30.1358 94.6962 26.3762 93.1621 23.0136C91.6281 19.651 89.4192 20.2291 90.3001 17.5981C90.562 16.8164 90.6746 13.9552 91.1601 13.1769C91.85 12.0683 94.7596 11.1382 94.7596 11.1382C94.7596 11.1382 99.3309 10.7478 99.2717 14.5316C99.2125 18.3155 99.4919 21.3869 97.2329 26.7666C94.974 32.1462 91.4045 43.9691 88.0569 47.7613C84.7094 51.5535 81.1332 55.7919 80.4659 58.689C79.7985 61.5862 77.6121 49.478 73.5755 51.2948C69.5389 53.1117 64.5998 56.2574 62.6077 54.2379C60.6157 52.2183 51.247 52.4427 47.454 52.8882C43.661 53.3336 40.6479 53.7157 41.1509 51.294C41.6539 48.8724 47.3522 35.0058 40.934 30.1158C34.5158 25.2259 38.5699 26.3428 38.5699 26.3428C38.5699 26.3428 30.5818 25.5086 27.864 22.8017C26.3491 21.2491 24.5877 19.9579 22.6512 18.9803C22.6512 18.9803 26.1607 12.9876 24.2037 12.9742C22.2467 12.9609 22.6613 13.3388 21.0037 14.2639C19.3462 15.189 18.2309 14.9846 17.5619 16.0907C16.9835 17.1151 16.6763 18.2702 16.6693 19.4466C16.6693 20.32 18.4537 25.6196 18.4537 28.9938C18.4537 32.3681 20.6025 36.6049 22.6512 42.1814C24.7 47.7579 30.4976 59.0269 31.8373 60.8671C33.1769 62.7073 32.0875 51.9338 34.7511 51.2965C37.4146 50.6592 38.9395 55.5892 40.3334 54.2395C41.7273 52.8898 33.8493 47.2073 32.7324 45.4756C31.6154 43.7438 22.6721 28.475 23.6348 21.6372C24.5974 14.7994 22.8148 14.6301 26.3091 16.5103C29.8035 18.3906 36.8248 23.6501 38.5716 21.8741C40.3184 20.0981 40.0523 19.1213 43.6426 19.6101C47.2329 20.099 48.1564 18.5857 53.2716 18.7834C58.3868 18.9812 67.7563 20.0573 69.9869 20.0773C72.2175 20.0973 72.5036 21.6189 76.0422 20.0773C79.5808 18.5357 86.0524 15.3975 87.6107 15.4058C89.1689 15.4142 92.0719 17.6456 88.9454 19.8754C85.8188 22.1052 84.1013 23.7677 80.2765 24.9447C76.4518 26.1217 75.4883 28.8454 74.8544 26.1451C74.2204 23.4449 72.9499 18.2204 75.8162 17.5989C78.6824 16.9775 77.8532 18.6416 76.0372 21.0432C74.2212 23.4448 76.2433 27.2379 72.6663 29.6921C69.0893 32.1462 65.5207 30.4053 67.5286 37.6334C69.5364 44.8616 71.3207 60.1455 65.2979 60.8687C59.2752 61.592 58.7555 61.4835 55.669 60.8687C52.5825 60.2539 48.7161 63.3771 45.1833 59.8077C41.6506 56.2382 34.7561 46.646 33.8526 62.9309C32.9492 79.2158 35.4284 63.3771 37.6474 69.8462C39.8663 76.3153 41.4963 82.233 40.4585 87.7511C39.4208 93.2692 42.021 96.1696 37.151 96.1696C32.2811 96.1696 31.471 93.7163 27.8607 97.0622C24.2504 100.408 20.9045 103.086 16.666 102.416C14.3538 102.01 12.0039 101.861 9.65888 101.97C9.07496 101.97 6.18283 101.636 3.96474 101.523C1.74665 101.411 0.9375 101.97 0.9375 101.97" stroke="#00B2ED" stroke-width="1.66836" stroke-linecap="round" stroke-linejoin="round"/>
<path d="M62.3447 11.2457C62.3447 11.2457 64.3685 10.5409 63.6995 12.8048C63.0304 15.0688 61.4246 13.946 61.4246 13.946C61.4246 13.946 61.2578 17.9501 60.135 16.8456C59.0122 15.7411 58.2923 12.5913 57.4264 14.1646C56.5605 15.7378 54.4159 17.8775 53.4799 16.1382C52.544 14.3989 52.5623 14.8928 51.4612 16.1382C50.36 17.3836 49.6944 14.6317 49.6944 14.6317C49.6944 14.6317 47.4087 11.2115 48.7501 10.3532C50.0914 9.49478 51.14 -1.01005 57.6425 1.45245C64.1449 3.91495 64.5545 5.64587 62.3447 11.2457Z" stroke="#00B2ED" stroke-width="1.66836" stroke-linecap="round" stroke-linejoin="round"/>
</svg>
