<svg width="157" height="118" viewBox="0 0 157 118" fill="none" xmlns="http://www.w3.org/2000/svg">
<path d="M1.2297 43.568C14.9298 38.3671 39.1783 61.0977 35.0673 76.4052M35.0673 76.4052C30.9564 91.7127 25.4671 79.7079 25.4671 79.7079C21.1637 75.9583 4.22481 60.5683 24.0002 48.9848C27.1635 47.9246 30.4024 47.1047 33.6891 46.5318C38.2594 45.8285 50.9026 45.5625 51.6043 43.2663C52.3061 40.9701 50.1681 33.2816 53.0619 31.3954C55.9557 29.5091 71.6142 27.5075 76.9636 20.4585C82.3131 13.4094 90.8858 21.1866 92.2861 22.3398C93.6863 23.493 100.747 26.4607 102.132 20.8857C103.517 15.3107 117.881 -3.52113 135.542 3.27465C153.203 10.0704 161.648 22.3133 152.29 34.6154C142.933 46.9175 132.894 46.522 134.02 48.7618C135.145 51.0015 141.457 57.8015 137.103 62.4514C132.748 67.1012 114.774 82.2687 101.778 79.695C88.7809 77.1213 84.8975 74.5369 81.4687 76.215C78.0398 77.8931 51.6707 88.3896 42.1167 81.7522C42.1167 81.7522 36.5826 75.4684 37.5657 67.4617C42.2889 70.6254 47.9969 71.9742 53.6367 71.2592C63.0344 70.0308 76.5701 67.0688 90.1404 56.9658C98.8076 50.6155 108.656 46.0608 119.108 43.5689C119.972 43.3943 136.362 37.7008 135.354 26.5117C134.346 15.3227 124.247 11.9777 117.29 17.2884C110.333 22.5991 97.6536 39.1121 81.845 43.4759C66.0365 47.8397 54.3655 51.592 46.1409 52.4039C37.9163 53.2158 33.4564 57.5719 35.1416 63.2432C36.8267 68.9145 36.5538 77.9888 45.1967 78.3495C53.8396 78.7102 75.893 74.2718 80.7346 72.2041C85.5761 70.1363 93.3025 68.8434 96.8469 65.0779C100.391 61.3124 114.532 51.1362 119.358 49.4872C124.185 47.8383 132.602 39.764 136.188 39.0831C139.775 38.4022 153.862 27.6529 143.208 15.0047C132.554 2.35646 119.34 9.69254 117.72 10.3341C116.1 10.9757 99.5218 25.05 97.68 27.4861C95.8382 29.9221 76.6065 43.9505 64.6323 44.4461C64.6323 44.4461 49.3212 49.2352 40.076 48.1565C30.8308 47.0778 16.4802 56.6087 25.2854 68.1979C34.0906 79.7871 33.4066 75.0801 35.0673 76.4052ZM35.0673 76.4052C36.728 77.7303 42.7917 84.2191 47.7477 84.9675C52.7037 85.716 75.0246 79.3809 78.7024 88.7683C82.3802 98.1557 88.9187 125.714 131.185 113.57" stroke="#00B2ED" stroke-width="1.67344" stroke-linecap="round" stroke-linejoin="round"/>
</svg>
