<svg width="147" height="114" viewBox="0 0 147 114" fill="none" xmlns="http://www.w3.org/2000/svg">
<path d="M17.3665 82.5539C17.3665 82.5539 11.4782 75.8194 15.2913 59.0327C19.1043 42.2459 26.7304 29.473 42.7993 37.6298C58.8681 45.7865 75.7536 33.238 80.1108 34.3397C84.468 35.4415 101.831 36.5331 99.2773 82.5564C99.2773 82.5564 99.6148 85.0079 93.5409 84.1905C87.467 83.373 9.04106 87.2477 6.03953 84.3592C3.03801 81.4707 1.33564 77.5471 7.95619 76.6133C14.5767 75.6794 21.4445 74.8459 18.3636 76.6133C15.2828 78.3806 -0.0976342 78.2009 1.06231 82.8306C2.22226 87.4602 0.28704 109.249 2.47955 110.065C4.67206 110.882 43.8909 111.699 43.8909 111.699C43.8909 111.699 110.19 114.967 111.22 111.699C112.25 108.431 114.386 83.3747 112.092 83.1014C109.799 82.8281 101.858 83.6464 101.858 83.6464C101.858 83.6464 109.25 36.4892 83.9239 32.1523C58.5974 27.8153 77.9343 37.6197 55.8742 43.0659C55.8742 43.0659 54.3448 21.571 76.8444 14.7927C76.8444 14.7927 76.0278 10.6743 74.1212 12.0274C72.2147 13.3806 60.4195 24.5287 57.0578 27.2611C53.6961 29.9935 61.0936 10.0239 36.5584 1.62503C36.5584 1.62503 31.6081 0.21875 31.8933 1.62503C32.1784 3.03131 29.8037 31.4783 53.1519 33.1958C76.5002 34.9134 60.7772 36.3045 60.7772 36.3045C60.7772 36.3045 36.5381 32.9891 46.6157 43.8834C56.6934 54.7776 107.468 31.3551 114.626 44.7C121.784 58.0449 108.123 107.34 122.034 105.161C135.945 102.982 141.666 101.164 146 103.343" stroke="#00B2ED" stroke-width="1.6872" stroke-linecap="round" stroke-linejoin="round"/>
</svg>
